<svg xmlns="http://www.w3.org/2000/svg" width="307" height="36" fill-rule="evenodd" clip-rule="evenodd" image-rendering="optimizeQuality" shape-rendering="geometricPrecision" text-rendering="geometricPrecision" viewBox="0 0 22.66 2.68"><defs><style>.fil0{fill:#99f}.fil0,.fil1,.fil3{fill-rule:nonzero}.fil1{fill:#f9f}.fil3{fill:#ffc}</style></defs><g id="Layer_x0020_1"><g id="_1334181568"><path d="M0 2.62v-.33h.14c.1 0 .16-.01.19-.04.02-.02.04-.08.04-.18V.65C.37.55.35.5.33.47a.4.4 0 00-.2-.04H0V.1h2.48v.96h-.33a1.7 1.7 0 00-.07-.33.45.45 0 00-.11-.18.38.38 0 00-.18-.09c-.07-.02-.2-.03-.4-.03h-.32v.72h.06c.14 0 .24-.03.28-.08.05-.05.07-.16.07-.32h.32V1.9h-.32c0-.18-.02-.29-.07-.34-.04-.05-.13-.08-.28-.08h-.06v.8h.34c.27 0 .46-.04.56-.13.1-.1.16-.29.18-.57h.33v1.04H0z" class="fil0"/><path id="1" d="M2.77 2.62v-.26h.04c.07 0 .13 0 .17-.03.05-.02.1-.07.14-.13l.44-.54-.47-.62a.4.4 0 00-.12-.12.32.32 0 00-.15-.04V.63h1.04v.25h-.04c-.05 0-.08 0-.1.02-.03.01-.04.03-.04.05a.1.1 0 000 .04l.04.05.2.28.23-.28A.24.24 0 004.2 1V.96c0-.03 0-.05-.03-.06a.32.32 0 00-.13-.02h-.02V.63h.87v.25a.4.4 0 00-.18.04.42.42 0 00-.14.11l-.42.52.48.64c.05.07.1.12.13.14.04.03.09.04.14.04h.05v.25h-1.1v-.26h.03L4 2.35c.02-.02.04-.03.04-.06L4 2.2l-.02-.02-.21-.29-.23.28a.48.48 0 00-.05.08l-.01.05c0 .02.01.04.04.05l.1.02h.06v.25h-.92z" class="fil0"/><path id="2" d="M10.54 1.46h.13c.14 0 .23-.02.3-.07.05-.05.08-.12.08-.22s-.03-.17-.08-.21a.536.536 0 00-.29-.07h-.14v.57zm0 .9h.16c.14 0 .25-.03.32-.08s.1-.13.1-.24c0-.12-.03-.2-.1-.25-.07-.05-.18-.08-.33-.08h-.15v.65zm-.84.26v-.26h.1c.08 0 .13-.01.15-.03.02-.02.04-.07.04-.14V1.07c0-.08-.02-.13-.04-.15C9.93.9 9.88.9 9.8.9h-.1V.63h1.15c.26 0 .45.04.57.12.13.07.19.19.19.35 0 .11-.04.2-.11.29a.67.67 0 01-.3.18c.17.04.3.1.38.18.08.08.13.19.13.32 0 .2-.07.34-.2.42-.14.09-.37.13-.69.13H9.7z" class="fil0"/><path id="3" d="M12.56 1.63c0 .27.04.47.12.59.07.12.19.18.35.18.17 0 .29-.06.36-.18.08-.13.11-.32.11-.6 0-.26-.03-.46-.1-.58-.08-.13-.2-.19-.37-.19-.16 0-.28.06-.35.19-.08.12-.12.32-.12.59zm-.64 0a1 1 0 01.3-.77c.2-.2.47-.29.81-.29.35 0 .62.1.82.29.2.18.3.44.3.77a1 1 0 01-.3.77c-.2.18-.47.28-.82.28-.34 0-.62-.1-.81-.28a1 1 0 01-.3-.77z" class="fil0"/><path id="4" d="M14.23 2.62v-.26h.04c.07 0 .13 0 .17-.03.05-.02.1-.07.14-.13l.44-.54-.47-.62a.43.43 0 00-.12-.12.32.32 0 00-.15-.04V.63h1.04v.25h-.04c-.05 0-.08 0-.1.02-.03.01-.04.03-.04.05a.1.1 0 000 .04l.04.05.2.28.23-.28a.22.22 0 00.04-.05V.96c0-.03 0-.05-.03-.06a.32.32 0 00-.13-.02h-.02V.63h.87v.25a.4.4 0 00-.18.04.42.42 0 00-.14.11l-.42.52.48.64c.05.07.1.12.13.14.04.03.09.04.14.04a.6.6 0 00.05 0h.01v.25h-1.1v-.26h.02l.14-.01c.02-.02.04-.03.04-.06l-.05-.09-.01-.02-.22-.29-.22.28a.48.48 0 00-.05.08l-.01.05c0 .02.01.04.03.05l.1.02h.06v.25h-.91z" class="fil0"/><path id="5" d="M7.4 1.13h-.96v.46h.4v.54a.8.8 0 01-.28.04c-.48 0-.82-.31-.82-.85 0-.56.37-.84.86-.84.28 0 .46.05.6.12l.12-.47A1.77 1.77 0 006.6 0c-.84 0-1.47.5-1.48 1.35 0 .38.13.72.37.94.24.24.58.35 1.05.35.35 0 .69-.08.87-.14V1.13z" class="fil1"/><path id="6" d="M7.87 2.62h.58V1.58h.93V1.1h-.93V.51h1V.03H7.87z" class="fil1"/><path id="7" fill="#fff" fill-rule="nonzero" d="M16.64 2.49c0-.05.02-.08.04-.1.03-.04.06-.05.12-.05.05 0 .08.01.11.04s.04.07.04.1c0 .05-.01.08-.04.11s-.06.04-.12.04c-.05 0-.08-.01-.1-.04a.15.15 0 01-.05-.1z"/><path d="M18.5 2.01c-.03.2-.1.37-.23.48a.74.74 0 01-.51.17.69.69 0 01-.55-.25 1 1 0 01-.21-.66v-.19c0-.18.03-.34.1-.48a.73.73 0 01.27-.31.77.77 0 01.41-.11c.2 0 .37.05.5.17.12.11.2.27.22.48h-.26c-.02-.16-.07-.27-.15-.34a.44.44 0 00-.3-.1c-.17 0-.3.06-.4.18-.09.12-.13.3-.13.52v.18c0 .22.04.38.13.5.09.13.21.2.37.2.14 0 .25-.04.33-.1.07-.07.12-.18.15-.34h.26z" class="fil3"/><path id="1" d="M20.34 1.72c0 .19-.03.36-.1.5a.72.72 0 01-.68.44.74.74 0 01-.4-.12.75.75 0 01-.28-.32c-.07-.14-.1-.3-.1-.48V1.6c0-.2.03-.36.1-.5a.73.73 0 01.27-.33.74.74 0 01.41-.11c.15 0 .3.03.41.1.12.08.21.2.28.34.06.14.1.3.1.5v.12zm-.25-.13c0-.23-.05-.4-.14-.53a.46.46 0 00-.39-.18.45.45 0 00-.38.18c-.1.13-.14.3-.15.51v.15c0 .22.05.4.14.52.1.13.23.2.4.2.16 0 .29-.06.38-.18.09-.12.13-.3.14-.52v-.15z" class="fil3"/><path id="2" d="M21.06.68l.63 1.59.64-1.59h.33v1.95h-.25v-.76l.02-.82-.64 1.58h-.2l-.63-1.57.02.81v.76h-.25V.68z" class="fil3"/></g></g></svg>