<?xml version="1.0" encoding="utf-8"?>
<!-- Generator: Adobe Illustrator 25.0.1, SVG Export Plug-In . SVG Version: 6.00 Build 0)  -->
<svg version="1.1" id="Layer_1" xmlns="http://www.w3.org/2000/svg" xmlns:xlink="http://www.w3.org/1999/xlink" x="0px" y="0px"
	 viewBox="0 0 300 65" style="enable-background:new 0 0 300 65;" xml:space="preserve">
<style type="text/css">
	.st0{fill:#FF2737;stroke:#BA082A;stroke-width:1.0193;stroke-miterlimit:10;}
	.st1{fill:#A5EF56;stroke:#71A33D;stroke-width:0.8921;stroke-miterlimit:10;}
</style>
<g>
	<path class="st0" d="M263.8,14.8l-1.2,34c-0.1,2.9-0.2,6.9-0.3,7.5c0,0.6-0.2,1-0.7,1c-0.5,0-1.4-0.3-1.4-1.2
		c0.2-4.9,1-15.4,0.2-15.4c-0.5,0-1,13.9-1.1,14.7c0,0.7-0.1,1.6-0.9,1.6s-0.6-0.4-0.9-0.4c-0.2,0-0.2,0.5-0.7,0.5
		c-0.3,0-0.5-1.3-0.9-1.3c-0.4,0-0.1,1.5-1.4,1.5c-0.6,0-0.7-2-0.6-2.7l0,0.1c-0.1,1.6,0-4.3-0.3-4.3c-0.2,0-0.5,4.4-0.6,5
		c0,0.7-0.3,1.4-0.6,1.3c-0.3,0-0.3-0.5-0.6-0.5c-0.2,0-0.2,0.2-0.5,0.2c-0.3,0-0.6-0.2-0.6-1.2l0.3-10.2c0.1-2.6,0.3-9.4,0.3-10.3
		c0-1,0.3-1.3,0.3-2c0-0.7-0.2-0.5-0.2-0.9c0-0.5,0.2-1.1,0-1.1c-0.2,0-0.4,1.1-0.9,3.6c-0.6,2.5-1.5,7.1-3.6,13.7
		c-2,6.6-2.5,8.3-3.1,8.3c-0.5,0-0.3-0.7-0.5-0.8c-0.2,0-0.2,0.2-0.3,0.2c-0.2,0,0-0.5-0.2-0.5c-0.2,0-0.5,0-0.2-0.6
		c0.2-0.6,0.6-1.6,0.8-2.1c0.1-0.5,0.1-0.7,0-0.7c-0.2,0-0.3,0.1-0.4,0.4c-0.1,0.3-0.4,1.2-0.6,1.8c-0.2,0.6,0.2,0.5,0,0.9
		c-0.2,0.4-0.3,0-0.5,0.3c-0.1,0.3-0.3,0.7-0.5,0.7c-0.2,0-0.2-0.5-0.3-0.5c-0.2,0-0.1-0.6-0.4-0.6c-0.3,0-0.4,0.9-0.7,0.9
		c-0.3,0-0.5,0.3-0.7,0.3c-0.2,0-0.1-0.7-0.3-0.7c-0.3,0-0.4,0.3-0.6,0.3c-0.2,0-0.3-0.3-0.5-0.3c-0.2,0-0.5-0.1-0.7-0.1
		c-0.2,0-0.2-0.5-0.6-0.5c-0.3,0-0.4,0.6-0.8,0.6c-0.5,0-0.6-0.6-0.8-1.1c-0.1-0.5,0.1-1-0.2-1.7c-0.2-0.7-1-3.2-1.2-3.2
		c-0.2,0.1,0.1,1.3,0.4,2.7c0.3,1.5,0.4,2.2,0.4,2.8c0,0.5-0.1,1.2-0.8,1.2c-0.7,0-0.9-0.5-1.5-2.8c-0.5-2.3-1.4-5.9-2.4-12
		c-1-6.1-1.8-13.1-2.1-13.1c-0.3,0,0,1-0.1,5l-0.7,21.4c0,0,0,1.1-0.8,1.1c-0.7,0-0.7-0.5-0.9-0.5c-0.2,0-0.6-0.3-0.5-0.8
		c0-0.5,0-2.5-0.1-2.5c-0.2,0-0.2,2.2-0.3,2.4c0,0.3-0.1,1.1-0.5,1.1c-0.5,0-0.6-0.7-0.8-0.7c-0.2,0-0.2,0.6-0.5,0.6
		c-0.3,0-0.6-0.4-0.5-0.8c0-0.4-0.1-1.1-0.2-1.1c-0.2,0-0.3,1.5-0.3,1.9c0,0.3-0.1,0.8-0.6,0.8c-0.5,0-0.6-1.2-0.8-1.2
		c-0.2,0-0.5,0.7-0.8,0.7c-0.3,0-0.3-0.4-0.4-0.4c-0.1,0-0.2,0.2-0.4,0.2c-0.2,0-0.4-0.5-0.4-1c0-0.5,0-5.5-0.2-5.5
		c-0.2,0-0.4,4.5-0.4,5.3c0,0.8-0.2,1.2-0.7,1.2c-0.6,0-0.9-0.8-0.9-1.4l1.2-34c0.1-2.9,0.2-6.9,0.3-7.5c0-0.6,0.2-1,0.7-0.9
		c0.5,0,1,0.7,1,1.1c0,0.5,0,2.6,0.2,2.6c0.5,0,0.6-2,0.6-2.7c0-0.8,0.3-1.2,1.1-1.2c0.7,0,0.8,0.9,1.1,0.9c0.2,0,0.2-0.4,0.7-0.4
		c1,0,0.4,5.6,0.7,5.7c1,0,0.2-6,1.5-5.9c0.9,0,0.6,1.9,1.5,1.9c0.9,0,0.4-1.4,0.8-1.4c0.6,0,0.6,1,0.9,1c0.2,0,0.1-0.7,0.6-0.7
		c0.6,0,0.3,0.8,0.6,0.8c0.3,0,0-1,1.1-0.9c1.1,0,0.8,0.7,1.1,0.7c0.3,0,0.2-0.6,0.7-0.8c0.5-0.3,0.9-0.5,1.6-0.5
		c0.7,0,1.1,0.3,1.3,1.6c0.1,1.2,3.9,23.3,4.1,25.2c0.2,1.9,0.3,2.3,0.4,2.3c0.1,0.1,1-4.8,2-9.4l3.7-16c0.8-3.9,0.6-3.2,1.2-3.2
		c0.6,0,0.5,0.6,0.8,0.6c0.3,0,0.2-0.3,0.5-0.3c0.3,0-0.4,1.3,0.4,1.4c0.7,0,0.5-1,1.1-1c0.6,0,0.4,0.6,0.7,0.6
		c0.3,0,0.3-0.4,0.9-0.4s0.3-0.3,1.3-0.2c0.3,0,0.1,0.9,0.6,0.9c0.5,0,0.6-0.4,1.2-0.4c0.7,0,0.7,0.4,0.7,1c0,0.6,0,2.5,0.1,2.5
		c0.2,0,0.2-2.2,0.3-2.4c0-0.3,0.1-1.1,0.5-1.1c0.5,0,0.6,0.7,0.8,0.7c0.2,0,0.2-0.6,0.5-0.6c0.3,0,0.6,0.4,0.5,0.8
		c0,0.4,0.1,1.1,0.2,1.1c0.2,0,0.3-1.5,0.3-1.9c0-0.3,0.1-0.9,0.6-0.8c1,0,0.1,9.2,0.5,9.2c0.5,0,0.6-8.4,1-8.7
		c0.3-0.3,0.3,0.4,0.4,0.4c0.1,0,0.2-0.2,0.4-0.2c0.2,0,0.4,0.5,0.4,1c0,0.5,0,5.5,0.2,5.5c0.2,0,0.4-4.5,0.4-5.3
		c0-0.8,0.2-1.2,0.7-1.2C263.5,13.4,263.8,14.2,263.8,14.8z M225,27.3c-0.3,0-0.3,1-0.4,3.7c-0.2,5.6-0.2,8.3,0,8.3
		c0.1,0,0.3-2.8,0.5-8.3C225.2,29.7,225.3,27.3,225,27.3z M234.3,23.6c-0.3-3.1-1.3-7.1-1.6-7c-0.3,0.1-0.3,1.4-0.2,2.3
		c0.1,0.9,0.6,2.7,1.1,5.5c0.4,2.9,1.9,10.9,2.1,10.9C235.8,35.2,234.9,27.9,234.3,23.6z M245.2,27.3c-0.6,2.2-4.7,17-4.7,17
		c-0.2,0.7,0.1,1.3,0.3,1.3c0.2,0,0.3-0.3,1.1-3.5c0.8-3.2,3.9-15.2,4.2-17C246.4,23.3,245.9,25.2,245.2,27.3z"/>
	<path class="st0" d="M215.7,55.3c-0.3,0.4-0.3,0.7-0.7,0.6c-0.4,0-0.7-0.3-1.4-0.3c-0.6,0-1.2,0.7-1.5,0.7c-0.2,0-0.5-0.5-0.6-0.8
		l-0.5-2c-0.1-0.9,0-1.6-0.2-2.2c-0.1-0.6-0.3-0.3-0.4-0.8c0-0.4,0-0.6,0-1.1c-0.1-0.6-0.2-1-0.5-0.9c-0.4,0.1-0.3,0.3-0.2,0.8
		c0.1,0.6,0.2,1.3,0.4,1.8c0.1,0.6,0.2,0.4,0.2,1c0.1,0.6-0.1,1.1,0.1,1.5c0.1,0.5,0.2,1.2,0.2,1.6c0,0.4,0.1,1.1-0.3,1.2
		c-0.3,0-1,0.2-1.4,0.2c-0.4,0-0.8,0.1-0.8-0.2c0-0.2-0.1-0.4-0.3-0.4c-0.2,0-0.6,0.8-1,0.8c-0.3,0-0.4-0.3-0.6-0.3
		c-0.2,0-0.2,0.3-0.5,0.3c-0.2,0-0.3-0.4-0.4-0.4c-0.2,0-0.2,0.8-0.4-0.5c-0.2-1.3-0.3-2.4-0.4-2.8c-0.1-0.3-0.2-0.1-0.3,0
		c-0.2,0.1-0.1,1.4-0.1,2.2c0,0.8,0.1,1.8-0.6,1.8c-0.6,0-1.1-1.3-1.4-4.1c-0.3-2.8-0.5-5.3-0.5-5.7c0-0.4-0.1-0.3-0.4-0.3
		c-0.3,0-1.1,0.2-1.8,0.1c-0.7,0-0.5-0.3-1.2-0.4c-0.7,0-0.5,0.3-0.7,0.3c-0.3,0-0.3-0.4-0.5-0.4c-0.2,0-0.1,0.3-0.4,0.3
		c-0.3,0-0.5-0.1-0.9-0.2c-0.5,0-0.8-0.3-0.9-0.3c-0.2,0,0,0.3-0.3,0.3c-0.4,0-0.2-0.5-0.4-0.5c-0.2,0-0.5,0.4-0.7,0.4l-1-0.1
		c-0.3,0-0.4,0.2-0.4,0.8c-0.1,0.6-1,5-1.3,6.2c-0.2,1.2-0.4,2.3-0.8,2.3c-0.3,0-0.3-0.4-0.4-0.4c-0.2,0-0.2,0.5-0.5,0.5
		c-0.3,0,0-0.5-1-0.7c-1-0.2-0.7,0.4-1.4,0.2c-0.8-0.2-0.7-0.2-0.4-1.5c0.3-1.4,0.5-2.4,0.6-2.6c0.1-0.3,0.2-0.2,0.3-0.5
		c0.1-0.3-0.3-0.1-0.2-0.5c0.1-0.4,0.2,0.3,0.4-0.5c0.2-0.9,0-1,0.3-1.9c0.2-0.9,0.4-0.6,0.5-1.3c0-0.7-0.1-1,0-1.3
		c0.2-0.4,0.6-1.2,0.4-1.2c-0.2-0.1-0.2,0-0.3,0.4c-0.2,0.4-0.4,0.7-0.5,1.1c-0.1,0.3,0,0.3-0.1,0.7c-0.1,0.3-0.4,0.7-0.5,1.1
		c-0.1,0.5-0.2,0.9-0.3,1.5c-0.1,0.6-0.2,0.9-0.4,1.3c-0.2,0.4-0.3,0.9-0.4,1.3c-0.1,0.4-0.7,1.9-1,2.7c-0.2,0.8-0.4,1.2-0.6,1.2
		c-0.3,0-0.3-0.4-0.4-0.4s-0.3,0.3-0.6,0.2c-0.4,0-0.3-0.8-0.9-0.9c-0.6-0.2-0.4-0.3-0.4-0.7c0-0.3-0.3-0.5-0.2-1
		c0-0.5,0.4-0.3,0.4-0.6c0-0.3,0-0.3-0.2-0.3c-0.1,0-0.4,0-0.4,0.3s0,0.6-0.2,0.7c-0.1,0.2-0.2,0.2-0.3,0.3c0,0.1,0.2,0.3,0,0.7
		c-0.3,0.4-0.1,0.8-0.8,0.5c-0.8-0.3-0.8-0.3-1.1-0.4c-0.4-0.1-0.2,0.2-0.8,0c-0.5-0.2-0.3-0.5-0.2-0.7c0-0.2,0.3-0.7,0.4-1.7
		c0.1-0.9,0.5,0.1,0.5-0.9c0.1-1,0-1,0.1-1.5c0.2-0.4,0.3-0.2,0.5-1.3c0.2-1.1,0.1-1.5,1.7-7.2c1.5-5.6,4.1-14.9,5.5-19.5
		c1.4-4.6,2.4-7.3,2.5-8s-0.3-1.4,0.7-1.3l0.6,0c0.1,0,0,0.3,0.3,0.3c0.2,0,0.1-0.3,0.4-0.3l0.7,0c0.2,0-0.1,0.4,0.2,0.5
		c0.4,0,0.6-0.2,0.8-0.2c0.2,0,0.2-0.3,0.5-0.3c0.2,0,0,0.5,0.2,0.5c0.2,0,0.3,0.4,0.2,1.2c-0.1,0.8-0.1,1.4-0.2,1.9
		c-0.1,0.6-0.1,0.9-0.1,0.9c0.1,0.1,0.4-0.5,0.5-0.8c0-0.3,0-0.7,0.2-1.1c0.1-0.3,0.4-0.5,0.4-0.9c0.1-0.4,0.1-1,0.5-1.3
		c0.4-0.3,0.4-0.3,0.6-0.3c0.2,0,0,0.2,0.1,0.2c0.1,0,0.3-0.6,0.6-0.5s0.6,0.3,0.7,0.3c0.2,0,0,0.6,0.3,0.6c0.3,0,0.5-0.5,1.1-0.5
		c0.5,0,0.5-0.1,0.5,0c0,0.2,0,0.2,0.1,0.2c0.1,0-0.1-0.6,0.4-0.5c0.5,0,0.2,0.4,0.5,0.4c0.3,0,0.3,0.1,0.3,0.2
		c0,0.1-0.1,0.3,0.1,0.3c0.2,0,0.1-0.4,0.5-0.4c0.3,0,0.5,0,0.7,0c0.2,0,0.1-0.3,0.3-0.3c0.2,0,0,0.8,0.2,0.8s0.4-0.4,0.7-0.4
		c0.3,0,0.3,0.2,0.6,2.1c0.2,1.8,0.5,3.2,0.6,3.6c0,0.5-0.1,0.4-0.2,0.6c0,0.2,0.3-0.1,0.3,0.2l0.2,0.9c0,0.2,0.2,0.1,0.1-0.2
		c0-0.3-0.3-2.2,0.1-0.6c0.4,1.6,0.4,1.7,0.2,1.7c-0.2,0-0.4-0.1-0.3,0.2s0.2,0.6,0.3,0.8c0,0.2-0.1,0.3,0,0.6
		c0.1,0.2,0.5,0.5,0.5,0.8c0,0.3,0,0.4-0.3,0.4l-0.4-0.1c-0.1,0-0.3,0.1-0.3,0.3c0,0.2,0.2,0.1,0.3,0c0.1-0.1,0.3-0.1,0.6-0.1
		c0.2,0,0.3,0.1,0.3,0.5c0,0.3-0.6,0-0.5,0.3c0.1,0.3,0.4,0,0.5,0.5c0.1,0.5-0.3,0-0.2,0.4c0.2,0.3,0.3,0.1,0.4,0.1
		c0.1,0,0.1-0.1,0.2-0.1c0.1,0,0.2,0.2,0.3,0.2c0.1,0,0.2-0.2,0.1-0.3c-0.1-0.1-0.4,0-0.4-0.3c0-0.2,0.1-0.4,0.2-0.7
		c0-0.3-0.2-0.4-0.1-0.5c0-0.2,0.3-0.1,0.3-0.4c-0.1-0.3-0.2,0-0.4-0.8c-0.1-0.9-0.2-0.9-0.5-2.8c-0.3-1.9-0.6-4.7-0.8-5.6
		s-0.2-1.2-0.2-1.3c0-0.2,0.1-0.3,0.6-0.4c0.4-0.1,0.5-0.1,0.6,0.2c0,0.2,0.1,0.2,0.3,0.2c0.2,0,0.9-0.8,1.4-0.8
		c0.5,0,0.2,0.6,0.6,0.6c0.4,0,0.1-0.4,0.5-0.4c0.3,0,0.4-0.2,0.9,2.9c0.5,3.1,0.8,4.7,2.2,12.4c1.4,7.7,1.2,6.8,1.7,9.5
		c0.5,2.7,1.6,9.2,1.8,10.4l0.5,2.8c0,0.2-0.4,0.2-0.3,0.3c0,0.2,0.2,0.1,0.4,0.5c0.1,0.5,0.5,2.7,0.6,3.5
		C216,55,216,54.9,215.7,55.3z M190.6,22.8c-0.1,0-0.1,0.3-0.2,0.5c-0.1,0.2-0.3,0.5-0.4,0.8c-0.1,0.3-0.1,0.6-0.2,1.1
		c-0.1,0.4-0.2,0.2-0.2,0.3c-0.1,0.2,0.2,0.2,0,0.5c-0.1,0.3-0.2,0.2-0.3,0.4c-0.1,0.2,0,0.5-0.3,1.4c-0.2,1-0.6,1.8-0.9,3.1
		c-0.4,1.3-0.8,3.1-1.3,4.8c-0.4,1.7-1,2.9-1.1,3.2c-0.1,0.4-0.2,0.7,0,0.7c0.3,0,0.7-1,0.8-1.2c0.1-0.2,0.2,0.1,0.3-0.2
		c0.1-0.2-0.2-0.4-0.1-0.5c0.1-0.1,0.2,0.1,0.3-0.3c0.1-0.3-0.2-0.1-0.1-0.5c0.1-0.4,0.3-0.1,0.4-0.3c0.1-0.2,0.1-0.5,0.5-1.9
		c0.4-1.3,0.5-1.9,0.5-2.2c0-0.3,0.1-0.2,0.4-0.2c0.2,0,0.3,0,0.4-0.3c0-0.2-0.2,0-0.3,0c-0.2,0-0.1-0.1-0.1-0.5
		c0.1-0.3,0.2-0.2,0.3-0.2c0.1-0.1-0.2-0.4-0.1-0.6c0-0.2,0.2,0,0.2-0.2c0.1-0.2-0.1-0.4,0-0.6c0.1-0.2,0.3,0.1,0.5-0.1
		c0.1-0.2-0.4-0.3-0.3-0.4c0-0.1,0.1,0,0.1-0.2c0.1-0.2-0.1-0.2,0-0.6c0.1-0.3,0.5-0.4,0.5-0.4l0.1-0.2c0.1-0.2-0.3-0.1-0.2-0.4
		c0.1-0.2,0.3,0,0.4-0.3c0.1-0.3-0.2-0.3-0.1-0.5c0-0.1,0.2-0.7,0.2-1c0.1-0.3-0.1-0.4-0.1-0.5c0.1-0.1,0.2-0.1,0.2-0.3
		c0.1-0.2,0.1-0.5,0.2-0.8c0.1-0.3,0.1-0.7,0.2-0.8c0.1-0.2,0.2-0.4,0.3-0.5C190.7,23.2,190.7,22.8,190.6,22.8z M195.9,36.3
		c0.4,0,0.9-0.1,1.2,0c0.2,0,0.6,0.1,0.9,0.2l2.2,0.2c0.3,0,0.3-0.1,0.3-0.2c0.1-0.1-0.1-0.1-0.1-0.3c0-0.1,0-0.3,0-0.6
		c0-0.2-0.3-0.4-0.3-0.8c0-0.4,0.1-0.5,0-0.7c0-0.2-0.2-0.2-0.3-0.5c0-0.3,0-0.5,0-0.6c0-0.1-0.1,0-0.1-0.2c0-0.2,0.1-0.2,0.1-0.4
		c0-0.2-0.3-0.4-0.3-0.8l-0.1-1.2c0-0.4-0.3-1.4-0.3-1.7c0-0.2,0.2-0.2,0.2-0.4c0-0.1-0.2-0.2-0.2-0.5c0-0.2-0.1-0.6-0.2-1.6
		c-0.1-1-0.3-1.4-0.4-2.5c0-1.1-0.1-0.6-0.1-1c0-0.3-0.2-1.2-0.3-1.2c-0.1,0-0.2,0.4-0.2,0.6c0,0.1-0.1,0.1-0.2,0.2
		c-0.1,0.2,0,0.2,0,0.6c0,0.3-0.2,0.4-0.3,0.6c-0.1,0.2,0,0.3,0,0.8c-0.1,0.6-0.6,2.1-0.7,2.8c-0.1,0.7-0.2,0.3-0.3,0.7
		c-0.1,0.4-0.1,1.3-0.2,1.7c-0.1,0.4-0.3,0.7-0.6,1.7c-0.3,1,0,0.3,0,0.6c-0.1,0.3-0.2,0.1-0.4,0.4c-0.1,0.3,0.1,0.5,0,0.7
		c-0.1,0.2-0.1,0.7-0.2,0.8c0,0.2-0.1,0.2-0.2,0.3c-0.1,0.1,0.1,0.3,0.1,0.5c-0.1,0.2-0.3,0.3-0.4,0.4c-0.1,0.1,0,0.3,0,0.8
		c-0.1,0.3,0,0.4,0.3,0.4c0.2,0,0.2-0.1,0.3-0.1L195.9,36.3z M201.6,44.4c0-0.3,0-0.4-0.4-0.4c-0.4,0-0.8,0.2-1.4,0.3
		c-0.6,0-0.8-0.3-1.1-0.3c-0.3,0-0.6,0.1-1,0.1c-0.3,0-0.5-0.1-1-0.1c-0.5,0-0.7,0-0.7,0.1c0,0.1-0.1,0.1,0.2,0.1
		c0.3,0,0.8-0.1,1.1,0.1c0.3,0.1,0.6,0.3,0.8,0.3c0.3,0,0.8,0.3,1.2,0.4c0.5,0,1.8,0.1,2.1,0C201.6,44.8,201.6,44.7,201.6,44.4z"/>
	<path class="st0" d="M277.8,39.3c-0.3,0,0.1,1.1,0.3,5.4l0.5,10.4c0,0,0.1,1.2-0.7,1.2c-0.9,0-0.8-0.5-1.1-0.5
		c-0.2,0-0.6-0.3-0.6-0.8c0-0.5-0.3-2.7-0.4-2.7c-0.2,0-0.1,2.4,0,2.6c0,0.3,0,1.2-0.5,1.3c-0.4,0-0.7-0.7-0.9-0.7
		c-0.1,0-0.1,0.7-0.5,0.7c-0.4,0-0.6-0.4-0.7-0.8c0-0.4-0.2-1.2-0.4-1.1c-0.2,0-0.2,1.7-0.2,2s-0.1,0.9-0.6,0.9
		c-0.5,0-0.7-1.2-1-1.2c-0.2,0-0.4,0.8-0.8,0.8c-0.2,0-0.4-0.4-0.5-0.4c-0.1,0-0.2,0.2-0.4,0.2c-0.2,0-0.5-0.5-0.5-1.1
		c0-0.5-0.5-5.9-0.7-5.8c-0.2,0,0,4.9,0,5.7c0,0.9-0.1,1.3-0.7,1.3c-0.6,0-1-0.8-1.1-1.5l-1.9-36.6c-0.2-3.1-0.3-6.1-0.4-6.8
		c0-0.7,0.1-1.1,0.7-1.1c0.6,0,0.5,0.8,1,0.7c0.4,0,0.2-1.2,1-1.2c0.9,0,0.6,0.2,1.5,0.2c0.9,0,2-0.3,3.6-0.4c0,0,0.1,0.5,0.5,0.5
		c0.2,0,0.3-0.5,0.6-0.5c0.3,0,0.8,0.3,1.8,0.3c1-0.1,1.7-0.5,3.2-0.5c1.2-0.1,4.5-0.4,6.4,0.1c2,0.4,3.4,1.7,3.8,1.6s0-0.4,0-0.5
		c0-0.2-0.7-0.1-0.8-0.6s0.5-0.5,0.8-0.5c0.2,0,9,2.2,9.5,11.5c0.5,9.4-2.8,12.6-3.1,13.1c-0.3,0.5-0.5,0.6-0.7,0.5
		c-0.1-0.1-0.1-0.4,0.4-1.2c0.5-0.8,1.1-2,0.8-2.2c-0.3-0.2-0.5,0.7-1.4,2.2c-1,1.5-1.3,2.8-3.9,4C287.3,38.9,281.6,39.5,277.8,39.3
		z M266.9,13.9c-0.3,0,0,2.6,0.2,5.5c0.3,6,0.6,8.9,0.8,8.9c0.2,0,0.4-3,0.1-9C267.6,14.2,268,13.8,266.9,13.9z M277.9,34
		c0,0.6,0.5,0.7,1.1,0.7c0.6,0,1.6,0.1,2.3,0.1c0.8,0,1.4-0.3,2.1-0.4c0.7,0,1.5-0.3,2.2-0.4c0.7,0,1.5-0.1,1.5-0.6
		c0-0.4-0.9-0.3-1.6-0.2c-0.7,0-2.4,0.4-3.7,0.5c-1.3,0.1-2.8-0.2-3.3-0.2C278.1,33.5,277.8,33.8,277.9,34z M277.9,16.4
		c-0.5,0-0.9,0-0.9,0.4c0,0.4,0.3,0.7,0.6,0.6c0.2,0,0.4-0.3,1.6-0.4c1.2-0.1,2-0.1,2.3,0.1c0.3,0.1,0.5,0.3,0.8,0
		c0.3-0.2,0.6-0.7,0-0.8C281.7,16.3,278.4,16.4,277.9,16.4z M277.4,21.8c0.1,1.1,0.1,4.5,0.1,5.1c0,0.7,0.1,0.9,0.5,0.9l3.5-0.2
		c0.8,0,1.4-0.3,1.8-0.3c0.4-0.1,1.7-0.6,1.6-3.1c-0.1-2.4-1.4-3.4-3.4-3.3c-2.1,0.1-2.5,0-2.8,0c-0.4,0-0.3,0.4-0.6,0.4
		S277.4,21.4,277.4,21.8z M291.1,15.5c0.3,0.4,1.4,1.5,1.7,2.2c0.4,0.7-0.2,0.7,0.1,1.5c0.2,0.8,0.7,0.3,0.8,1.6
		c0.1,1.3-0.2,1.5-0.3,2c-0.1,0.6,0.2,0.7,0.2,1.1c0,0.4-0.1,1.2-0.3,1.6c-0.2,0.4-0.2,0.6-0.1,0.7c0.1,0.1,0.2,0,0.4-0.3
		c0.2-0.3,1.1-2.1,0.9-5.3c-0.2-3.1-2.2-5.4-2.4-5.7c-0.3-0.3-0.6-0.6-0.9-0.3C290.7,14.9,290.8,15.2,291.1,15.5z"/>
	<path class="st0" d="M184.2,50.3c-0.1,0.2-0.6,0.5-0.9,0.7c-0.2,0.2-0.2,0.6-0.5,0.7c-0.2,0.1-0.6-0.2-0.7-0.1
		c-0.1,0.1-5,4.5-11.5,4.5c-6.4,0-9.1-2.3-9.5-2.5c-0.4-0.2-0.7,0.1-0.3,0.2c0.3,0.2,0.9,0.7,1.2,0.8c0.4,0.2,0.9,0.8-0.4,0.4
		c-1.4-0.5-11.4-7.2-11.4-21.7c0-10.2,4-16.4,4.2-16.7c0.4-0.5,0.7-0.7,0.7-0.7c0.1,0.1-0.5,1.1-0.7,1.9c-0.2,0.9-0.8,2.4-0.6,2.4
		c0.2-0.1,0.4-1.7,2.4-4.8c1.9-3,4.6-4.9,6.7-5.9c2.1-1.1,5-1.7,8.1-1.7c3.2,0,5.8,0.5,8.5,2.1c2.8,1.5,3,2,3.3,2.3
		c0.2,0.3,0.1,0.3,0,0.6c-0.1,0.4-0.3,0.9-0.4,1.1c-0.1,0.2,0,0.6-0.1,0.7c-0.1,0.1-0.4,0.1-0.5,0.2c-0.1,0.2-0.4,0.5-0.7,0.4
		c-0.3-0.1-1.1-0.9-1.9-1.3c-0.9-0.4-0.9-0.5-1.3-0.6c-0.4-0.1-0.9,0.4-0.4,0.6c0.5,0.2,1.5,0.7,1.8,1c0.2,0.3,0.1,0.5,0.3,0.6
		c0.2,0.1,0.5,0.2,0.7,0.5c0.1,0.2,0.1,0.5,0.1,0.8c0,0.2-0.1,0.3-0.1,0.5c0,0.2-0.1,0.3-0.2,0.3h-0.9c-0.2,0-0.2,0.1-0.2,0.3
		c0.1,0.2-0.1,0.5,0.1,0.6c0.2,0,0.4,0.4,0.4,0.5c-0.1,0.1-0.3,0.9-0.6,1.1c-0.4,0.2-0.7,0.2-0.8,0.4c-0.1,0.2,0.3,0.9,0.2,1
		c-0.2,0.2-0.3-0.1-0.4,0c-0.1,0.2,0.2,0.6-0.1,0.7c-0.2,0.2-0.4,0.1-0.7-0.2c-0.2-0.3-1.5-1.7-2.1-2c-0.7-0.2-1.7-0.8-3.8-0.8
		c-2.1,0-7.4,2-7.4,11.3c0,9.2,2.4,13.3,7.2,13.3c5,0,6.6-3.5,6.7-3.8c0.1-0.4,0.2-0.6,0.3-0.5c0.1,0,0,0.7,0.2,0.8
		c0.2,0.2,0.6-0.1,0.9,0.1c0.2,0.1,0.2,0.6,0.3,0.6c0.1,0.1,0.4,0.5,0.2,0.7l-0.6,0.6c-0.2,0.2-0.5,0.1-0.6,0.2
		c-0.1,0.1,0.1,0.2-0.1,0.4c-0.2,0.1-2.8,2.5-4,2.8c-1.1,0.3-1.5,0.7-0.3,0.5c1.3-0.2,4-1.9,4.5-2.3c0.5-0.4,0.5-0.1,0.6-0.3
		c0.2-0.2-0.1-0.6,0.2-0.9c0.3-0.3,0.5-0.2,0.2,0.1c-0.2,0.3-0.2,0.5,0.1,0.4c0.2-0.1,0.4-0.1,0.8,0.1c0.4,0.2,0.8,0.6,0.7,0.7
		c-0.1,0.2-0.9,0.7-0.8,0.8c0.2,0.2,0.9,0.1,1.1,0.3c0.2,0.1,0.6,0.6,0.6,0.7c0,0.1-0.6,0.5-0.4,0.6c0.2,0.1,0.7,0.4,0.6,0.6
		c-0.2,0.2-3,2.7-6.3,3.8c-3.3,1.1-5.3,1.2-6.9,1.1c-1.7-0.1-1.9,0.2-0.4,0.4c1.5,0.1,5.8,0.4,10-1.7c4.3-2.1,3.5-2.5,3.8-2.5
		c0.2,0.1,0.1,0.9,0.4,0.8c0.4-0.1,0.6-0.9,0.8-0.9c0.2,0.1-0.2,0.7-0.1,0.9c0.1,0.1,0.4,0.2,0.4,0.6
		C184.2,50.1,184.4,50.1,184.2,50.3z M155.3,38.4c-0.3-0.8-0.6-2.4-0.6-2.6c0-0.2,0.1-0.1,0.4-0.2c0.3-0.1-0.2-0.3-0.2-0.3
		s-0.2,0.1-0.2-0.2c-0.1-0.2-0.2-2.2-0.2-2.6c0-0.5-0.1-0.4-0.2-1.2c0-0.9,0.2-2.7,0.3-3.1c0.1-0.4,0-0.4-0.1-0.4s-0.2,0.4-0.4,0.7
		c-0.3,1.5-0.4,3.2-0.4,3.3c0.1,0.2-0.2-0.1-0.2,0.3c-0.1,0.4,0.3,0,0.2,0.4c0,0.5,0.1,2.5,0.1,2.8c0,0.3,0.1,0.1,0.2,0.3
		c0,0.2-0.4,0.2-0.4,0.3c-0.1,0.2,0.2,0.2,0.2,0.3c0.1,0.1,0.3,0.2,0.4,0.2c0.1,0.1-0.3,0.6-0.4,0.9c0,0.3,0.5,0.6,0.6,0.9
		c0.1,0.2,0,0.4-0.1,0.4c-0.1,0.1-0.2-0.2-0.3-0.2c-0.1-0.1-0.2,0.2-0.2,0.4c0,0.2,0.4,0.4,0.4,0.4s0.1-0.1,0.2-0.2
		c0.1-0.1,0.1,0,0.3,0c0.1,0.1,0.1,0.4,0.1,0.8c0.1,0.4,0.4,0.2,0.4,0.4c0.1,0.2-0.2,0.1-0.3,0.2c-0.1,0.2,0.1,0.4,0.3,0.4
		c0.2,0,0.4-0.6,0.5-0.9C155.9,39.8,155.6,39.2,155.3,38.4z"/>
	<path class="st0" d="M37.2,25.6c0.4,0,0.1,1.4,0,2.2c-0.1,0.8-0.1,0.9,0.1,0.9c0.1,0.1,0.2,0.1,0.3-1c0.1-1,0.4-3.3,2.2-6.4
		c1.8-3,5.7-5.5,7.2-5.9c1.6-0.4,2-0.6,2.9-0.6c0.9,0,0.4,0.3,0.6,0.3c0.3,0,0.4,0.2,0.4,0.4c0,0.3-0.3,0.5-0.1,0.7
		c0.1,0.1,0.8,0,1,0.4c0.2,0.4,0.2,0.6,0.1,0.9c-0.2,0.2-0.6,0.5-0.8,0.5c-0.1,0.1-0.5,0.2-0.4,0.4c0,0.2,0.5,0.1,0.6,0.1
		s0.2,0.3,0.3,0.3c0.2,0,0.4,0.1,0.4,0.3c0,0.3,0,1-0.1,1.1c-0.2,0.1-0.8,0.4-0.8,0.6c0,0.2,0.5,0.2,0.7,0.2
		c0.2,0.1,0.5,0.5,0.5,0.8c0,0.2-0.2,0.4-0.4,0.4c-0.2,0-1.1,0-1.1,0.2s0.7,0.1,0.7,0.4c0,0.3-0.1,0.6-0.2,0.6S50,23.8,50,24.3
		c0,0.5,0.8-0.1,1.1-0.1c0.3,0,0.4,0.4,0.4,0.7c0,0.3-0.1,0.6-0.3,0.6s-0.9-0.1-1.6,0.8c-0.8,0.8-2.7,2.9-2.7,8.4
		c0,5.4,0.4,10.7,5.6,10.7s5.8-5.4,5.8-10.5c0-5.1-1-7.8-2.6-8.9c-1.7-1.1-1.7-0.9-2-0.9c-0.4,0-0.9,0.2-1.1,0.1s-0.1-0.5-0.1-0.8
		c0-0.3-0.3-0.2-0.3-0.8c0-0.6,0.5-0.6,0.7-0.6c0.2,0,0.6-0.1,0.6-0.3c0-0.2-0.8-0.3-0.8-0.8c0-0.4,0.5-0.8,0.8-0.8
		c0.2,0,0.5,0,0.5-0.2s-0.3-0.5-0.6-0.5c-0.2,0-0.6-0.2-0.6-0.6c0-0.3,0.4-0.1,0.4-0.4c0-0.3-0.4-0.4-0.4-0.6c0-0.3-0.5-0.2-0.5-0.5
		c0-0.4,0.4-0.6,0.7-0.6c0.3,0,0.6-0.1,0.6-0.3c0-0.3-0.6-0.2-1-0.8c-0.4-0.6-0.5-0.4-0.5-0.7c0-0.3-0.3-0.3-0.3-0.5
		c0-0.3,1.1-1,3.2-1c2,0,5.6,1.8,7,3c1.4,1.1,2.3,2,2.4,2.5c0.1,0.4,0.2,0.6,0.3,0.9c0.2,0.2,0.6,1.1,0.8,1.1s-0.1-0.6-0.2-0.9
		c-0.1-0.3-0.5-1.1-0.1-1.1c0.4,0,2.7,2.5,3.7,5.7c0.9,3.2,1.8,9.1,0.3,15.9c-1.5,6.7-3.4,9.2-5.4,11.2c-2,1.9-3.2,1.7-3.6,1.9
		c-0.3,0.2-0.7,0.4-0.9,0.4c-0.2,0.1-0.3-0.5-0.6-0.4c-0.2,0.2-0.1,0.8-1,1c-0.9,0.3-1.6,0.8-4.7,0.8c-6,0-7.6-1.9-7.8-2
		c-0.2-0.1-1-0.2-1.3-0.3c-0.3-0.2-0.1-0.4-0.2-0.5c-0.1-0.1-0.4,0.3-0.9,0c-0.4-0.3-3.4-2.9-4.4-4.3c-1-1.5,0.1-1-0.1-1.2
		c-0.2-0.3-0.5,0.2-0.6-0.1c-0.2-0.3-1.4-3.6-1.9-7.4c-0.5-3.7-0.2-7.8,0.3-10.5C36.2,27.4,36.9,25.6,37.2,25.6z M43.3,21.6
		c-0.3,0.3-0.3,0-0.5,0.3c-0.2,0.3,0.1,0.3-0.1,0.8c-0.2,0.5-1.2,2.5-1.8,4.6c-0.5,2.1-0.2,2.4-0.1,2.1l0.5-1.7
		c0.1-0.2-0.2-0.3-0.1-0.4c0.1-0.2,0.2,0.1,0.4-0.3c0.1-0.3,1.3-3.6,2.5-5.1c1.3-1.6,1.9-1.9,1.9-2.1c0-0.1-0.2-0.3-0.6-0.3
		C45,19.5,43.6,21.2,43.3,21.6z M44.3,46.1c0.8,1,0.9,1.8,1.3,1.9c0.3,0.1,0.8,0.4,1.3,0.8c0.5,0.3,0.8,0.5,1.2,0.4
		c0.4-0.1,0.2-0.3-0.5-0.7c-0.6-0.4-1.9-1.7-2.7-2.8c-0.8-1.1-0.8-2.2-1.1-2.4C43.6,43,43,43,43,43.4C43,44.4,43.6,45,44.3,46.1z
		 M48.8,49c-0.2-0.1-0.3,0.4-0.2,0.5c0.2,0.1,0.7,0.1,0.7-0.1C49.3,49.2,48.9,49,48.8,49z M49.8,49.5c-0.2,0-0.3,0.2,0,0.3
		c0.3,0.1,0.6,0.2,0.7,0.1C50.5,49.7,50,49.5,49.8,49.5z M58.5,25.2c-0.6,0-0.2,0.5,1,2.6c1.2,2.2,1,6.2,1,7.2
		c-0.1,1.1,0.8-0.1,0.5-3.4C60.8,28.3,59.9,25.2,58.5,25.2z M64.6,40.8c-1.4,4.9-2.3,5.2-2.8,5.8c-0.4,0.6-0.2,0.6,0,0.5
		c0.2-0.1,1.1-1.5,1.3-1.5c0.2-0.1,0.3-0.3,0.5-0.6c0.3-0.4,0.8-1.4,1.4-3c0.6-1.6,1-4.2,1-5.3c0-1.1-0.2-1.3-0.5-1.3
		C64.6,35.3,65.5,37.8,64.6,40.8z"/>
	<path class="st0" d="M88,24.7c0-0.2,0.4-0.1,0.3,0.2c-0.1,0.3-0.7,4.5,1.2,6.4C89.5,31.4,87.6,30,88,24.7z M88.2,23.1
		c-0.2,1-0.1,1.2,0.1,1.2c0.2,0,0.3,0.1,0.4-0.3c0.1-0.5,0.4-1.2,0.7-1.1c0.2,0.2-0.5,1.2-0.5,4.4s1.7,5.6,4.8,7.4
		c3.2,1.9,6.1,2.4,8.5,3.2c2.4,0.7,4,1.1,4,3.4s-2,2.8-4.3,2.8c-2.4,0-5.8-1.5-6.5-1.8c-0.7-0.4-0.8-0.9-1.2-0.9
		c-0.4,0-0.8,1.3-0.9,1.7c-0.1,0.3-0.4,0.2-0.5,0.3c-0.1,0.1-0.2,0.9-0.1,1.3c0.1,0.4-0.4,0.5,2.1,1.9c2.5,1.3,5.5,1.4,5.8,1.4
		s0.6,0.2,0.6,0.2s0,0.2-0.6,0.2c-0.5,0.1-1.4,0.1-3.8-0.4c-2.4-0.5-3.8-1.5-4.3-1.5c-0.4,0-0.6,0.4-0.6,0.6c0,0.3,0.4,0.4,0.4,0.6
		c0,0.2-0.2,0.4-0.6,0.4c-0.5,0-0.6,0.7-0.6,1.1c0,0.4,0.9,0.8,1.4,0.9c0.5,0.1,0.9,0.5,1.2,0.6c0.3,0.2,0.9,0.1,1.1,0.2
		c0.2,0,0.3,0.2,0.2,0.4c0,0.1-0.3,0.1-0.5,0.1c-0.2-0.1-0.6-0.2-0.8-0.3c-0.2-0.1-0.9-0.2-1.2-0.2c-0.4-0.1-1-0.4-1.1-0.6
		c-0.2-0.1-0.4-0.1-0.6,0.1c-0.2,0.2-0.4,0.7-0.6,1c-0.2,0.3-0.2,1.1-0.1,1.2c0.1,0.2,0.3,0.9,1.8,1.2c1.5,0.4,3.6,2,8.5,2
		c4.8,0,5.6-1,6.3-1.4c0.6-0.4,1.1-0.2,1.1,0c0,0.2-0.8,0.4-0.8,0.6c0,0.2,0.2,0.6,0.6,0.6c0.4,0,2.2-0.6,5.3-3
		c3.2-2.5,6.5-6.9,6.5-11.5s-0.2-7.3-2.6-10c-2.4-2.7-6.2-3.7-10.4-4.8c-4.2-1.1-5.1-2.2-5.1-3.2c0-0.9,0.1-2.9,4.6-2.9
		c4.5,0,6.8,1.8,7.9,2.5c1.1,0.8,1.4,1.4,1.9,1.4s0.5-1.1,0.6-1.4c0-0.4-0.9-1.5-2-2.3c-1.1-0.9-2.8-1.5-3.9-1.9
		c-1-0.3-1.1-0.7-1.1-0.7c0.1-0.1,0.2-0.1,1.2,0.2c0.9,0.4,3.7,1.7,4.7,2.3c1.1,0.7,1.5,1.1,1.9,1.1c0.3,0,0.4-0.2,0.4-0.6
		c0-0.4,0-1,0.2-1.6c0.2-0.6,1.1-3.1,1.5-4c0.4-1,0.2-1.1,0.2-1.4c0-0.4-0.2-0.6-0.2-0.8c0.1-0.2,1.7,0-0.4-1.1
		c-2.1-1-9.7-4.1-14.6-4.1C90.4,8,88.3,22,88.2,23.1z M95.2,19.3c-0.2-0.2,1.4-3.5,5.1-5.1c4.6-2,6.1-1.2,6.4-1.2
		c0.4,0,1.4,0.6,1.5,0.6c0.2,0,1.3-0.2,1.3,0c0,0.2,0,0.5-0.2,0.5c-0.3,0-2.5-0.4-4.1-0.4C97.5,13.7,95.3,19.5,95.2,19.3z
		 M102.3,33.4c2.5,0.9,4.1,1.7,4.5,1.9c0.3,0.2,0.3,0.4,0.3,0.4s-0.2,0.2-0.4-0.1c-0.2-0.2-1.7-0.9-2.4-1.1c-0.6-0.2-1.5,0-2.4-0.1
		c-0.8-0.2-1.2-0.7-1.7-1l-1.8-0.6c-0.2-0.1-0.4-0.2-0.2-0.4C98.6,32,99.8,32.5,102.3,33.4z M107.7,30.2c7.9,2.1,7.9,6.8,7.9,9.1
		c0,0.4-0.1,0.5-0.2,0.5c-0.1,0-0.2-0.2-0.2-0.5c0-5.4-4.4-7.5-7.5-8.5c-0.3-0.1-0.6-0.2-0.4-0.5C107.2,30.1,107.3,30.2,107.7,30.2z
		"/>
	<path class="st0" d="M95,13.1c-0.5,1-1.5,3.5-4.7,11.1c-3.2,7.7-4.6,10.8-4.7,11.3c-0.1,0.4-0.3,1-0.7,1.3l-1.1,19.5
		c0,0,0,0.6-0.9,0.6c-0.9-0.1-0.8-0.4-1.2-0.4c-0.2,0-0.6-0.2-0.6-0.5c0-0.2,0-1.5-0.2-1.5c-0.2,0-0.3,1.3-0.3,1.5
		c0,0.1-0.2,0.7-0.7,0.6c-0.6,0-0.8-0.5-1-0.5s-0.3,0.4-0.6,0.3c-0.4,0-0.7-0.3-0.7-0.5c0-0.2-0.2-0.6-0.3-0.6
		c-0.2,0-0.4,0.9-0.4,1.1c0,0.2-0.2,0.5-0.7,0.5c-0.6,0-0.8-0.7-1-0.7c-0.2,0-0.5,0.4-0.9,0.4c-0.3,0-0.4-0.2-0.5-0.2
		c-0.1,0-0.2,0-0.5,0c-0.3,0-0.5-0.3-0.5-0.7c0-0.2-0.1-3.2-0.3-3.2c-0.2,0-0.5,2.6-0.5,3.1c0,0.4-0.2,0.7-0.9,0.6
		c-0.7,0-1-0.6-1-0.9l1.1-19.9c0-0.2,0-0.4,0-0.7l-0.2-0.5c-0.4-2-7.3-24.6-6.4-25.5c0.5-0.5,0.8-0.3,0.9-0.3c0.1,0,0.3-0.2,0.5-0.2
		s0.8,0.5,1.1,2c0.2,1.4,2.1,9.7,2.4,9.6s0.1-0.9,0.1-1.2c0-0.3-1.6-8.7-1.7-9.4c-0.1-0.7,0.1-1.1,0.5-1.1c0.1,0,0.2,0,0.2,0.1
		c0.1,0.1,0.1,0.1,0.2,0.1c0.2,0-0.1-0.1-0.2-0.1c0.1,0,0.2-0.3,0.4-0.3c0.2,0,0,0.5,0.3,0.5c0.2,0,0.3,0.2,0.7,0.2
		c0.4,0,0-0.7,0.7-0.8c0.7,0,0.5,1,1.3,0.9c0.8-0.1,0.2-0.9,0.7-1c0.5,0,0.4,0.2,0.6,0.2c0.3,0,0.5-0.3,0.7,0
		c0.2,0.3,0.7,1.4,0.9,2.5c0.2,1.1,2.8,11.4,3.1,12.7c0.2,1.3,0.7,1.8,1.3,0c0.7-1.9,1.9-4.3,3.1-8l2-5.7C84.6,9,85,8.8,85.3,8.9
		c0.2,0.1,0.2,0.4,0.4,0.5c0.3,0.1-0.1,0.6,0.4,0.7c0.5,0.1,0.7-0.6,1-0.6c0.4,0.1,0.1,0.4,0.4,0.5c0.4,0.1,0.9,0,0.9,0.3
		c-0.1,0.2-1.5,3.6-1.7,4.4c-0.3,0.7-0.3,1-0.1,1c0.2,0.1,0.5-0.2,0.9-0.9c0.4-0.8,1.3-2.8,1.6-3.7c0.3-1,0.9-0.9,1.3-0.8
		c0.4,0.1,1.2,0.4,1.6,0.5c0.3,0,0.4,0.3,0.3,0.6c-0.1,0.3-0.8,2.2-1,2.7c-0.2,0.5-0.1,0.8,0,0.8c0.1,0.1,0.4-0.1,0.7-0.8
		c0.2-0.6,1.6-3.5,1.7-3.6c0.1-0.2,0.7,0,0.6,0.1c-0.1,0.2-0.5,0.7-0.4,0.9c0.2,0.6,0.7-0.6,1.4-0.5C95.9,11.1,95.5,12,95,13.1z
		 M77.8,46c0.1-0.9,0.1-2.6-0.2-2.6c-0.4,0-0.4,0.7-0.5,2.6c-0.2,3.8-0.2,5.6,0,5.6C77.3,51.6,77.5,49.8,77.8,46z M86.3,28.4
		c0.5-1.5,0.5-1.8,0.4-1.9c-0.2-0.1-0.6,0-0.9,1.1c-0.2,0.5-0.9,2.3-1.7,4c0.1,0-1.6,4.1-1.4,4.1c0.2,0,2.2-4.1,2.3-4L86.3,28.4z"/>
	<path class="st0" d="M11.1,55.9c-0.5,0-0.5-0.8-0.7-0.8c-0.2,0-0.5,0.8-0.8,0.8c-0.3,0-0.4-0.4-0.6-0.4c-0.1,0-0.2,0.2-0.4,0.2
		c-0.2,0-0.5-0.5-0.5-1.1c0-0.5-0.6-2.8-0.7-2.8c-0.2,0-0.1,2.6-0.1,3.4c0,0.8-1.3,1.3-1.9,1.3c-0.6,0-0.6-0.8-0.6-1.5
		c0-0.2-0.5-3.9-0.6-8.9L3.4,19c-0.1-3-0.2-7.2-0.2-7.9c0-0.7,0.2-1.1,0.7-1.1c0.5,0,1.4-0.7,1.4-0.2c0,0.5,0.6,16.4,0.8,16.4
		c0.5,0,0.2-13.5,0.2-14.3c0-0.8,0.5-1.7,1.3-1.9c0.7-0.1,3.9-0.6,7.5-0.7s6.8,0,9,1c2.1,1,1.8,0.7,1.9,0.7c0.1-0.1-0.1-0.3-0.6-0.5
		c-0.5-0.3-1.2-0.5-1.4-0.6c-0.2-0.1-0.1-0.2,0.1-0.4c0.2-0.1,0.3-0.2,0.7-0.1c0.4,0.1,1.5,0.4,1.8,0.5c0.3,0.1,0.4,0.3,0.7,0.4
		c0.4,0.1,1,0.1,1.7,0.5c0.7,0.4,5.8,2.7,6,10.3c0.2,7.7-3.2,9.5-3.4,9.6c-0.2,0.1-0.5,0.3,0,0.5c0.4,0.3,2.5,1.6,3.4,3.4
		c0.8,1.8,0.9,4.2,0.9,4.8c0,0.7,0.1,0.8,0.3,0.8c0.1,0,0.2-0.4,0.2-0.9c0-0.5,0-1.7,0.1-1.8c0.2-0.1,0.4,0.1,0.4,0.3
		c0.1,0.2,0.1,0.9,0.1,1.1c0,0.1,0.2,0.2,0.2,0.5c0,0.2-0.2,0.5-0.2,0.8c0,0.3,0.1,5.3-3.1,9.3c-3.3,4.1-7.7,5.9-8.1,6
		c-0.4,0.1-0.6-0.4-0.7-0.3c-0.1,0-0.2,0.4-0.4,0.4C24.5,55.5,25,55,24.8,55c-0.2-0.1-0.6,0.4-0.9,0.6c-0.2,0.2-0.4,0.3-0.6,0.3
		c-0.2,0-0.1-0.2-0.2-0.2c-0.1,0-0.2,0.3-0.5,0.3c-0.3,0-0.4-0.6-0.7-0.6s-0.3,0.9-0.9,0.9c-0.5,0-1.6-0.1-1.9-0.3
		c-0.4-0.1-0.5-0.4-0.7-0.4s0.1,0.5-0.3,0.5c-0.4,0-0.6,0-0.6-0.2c0-0.2,0-0.4-0.1-0.4c-0.1,0-0.5,0.7-1.2,0.8
		c-0.8,0-1.8-0.3-2.3-0.2s-1,0-1.3,0c-0.3,0-0.2-0.4-0.4-0.4C11.9,55.7,12.1,55.9,11.1,55.9z M14,48.2c0.2,0,0.3-0.5,0.3-0.7
		c0-0.2-0.2-0.2-0.3-0.6c0-0.3,0.1-0.5,0.1-0.8c0-0.2-0.2-1-0.2-1.1c0-0.2,0.2-0.1,0.2-0.2c0-0.1-0.1-0.2-0.1-0.3l-0.1-0.7
		c0-0.1-0.1-0.1-0.1-0.2c0-0.2,0.2-0.2,0.2-0.3l0-0.7c0-0.4-0.2-0.4-0.2-0.8c0-0.4,0.1-1,0.1-1.3c0-0.3-0.2-0.4-0.2-0.6
		c0-0.2,0.5-0.3,0.5-0.6c0-0.2-0.3-0.3-0.3-0.3s-0.1-0.3-0.1-0.5c0-0.3-0.1-0.5-0.2-0.5c-0.2,0-0.3,0.6-0.3,0.9
		c0,0.2,0.2,0.5,0.2,0.9c0,0.4-0.3,0.7-0.3,1c0,0.4,0.2,0.2,0.2,0.9c0,0.6-0.1,3.8-0.2,4.7c-0.1,0.8,0.2,0.8,0.2,1
		c0,0.2-0.2,0.2-0.4,0.4c-0.2,0.2-0.1,0.5,0.1,0.5c0.2,0,0.2-0.2,0.4-0.3C13.7,47.9,13.8,48.2,14,48.2z M13.5,35.9
		c-0.2,0-0.2,0.4-0.2,0.7c0,0.4-0.2,0.4-0.2,0.6c0,0.2,0.2,0.3,0.3,0.4c0.2,0.1,0.4,0.2,0.4-0.1c0-0.2-0.2-0.2-0.2-0.5
		C13.6,36.8,13.7,35.9,13.5,35.9z M16,20c-0.2,0-0.6,0.3-0.6,0.6s0.2,0.2,0.3,0.7c0,0.5-0.3,0.3-0.3,0.4c0,0.2,0.4-0.1,0.4,0.4
		c0,0.4-0.4,0-0.4,0.3c0,0.4,0.4-0.1,0.4,0.3c0,0.4-0.3,0.3-0.3,0.4c0,0.2,0.4,0.2,0.4,0.5c0,0.4-0.5,0.3-0.5,0.4
		c0,0.2,0.4-0.1,0.4,0.2c0,0.2-0.4,0.4-0.3,0.6c0,0.2,0.2-0.1,0.5-0.1c0.2,0,0.1,0.4,0.1,0.8c0,0.3-0.1,0.3-0.1,0.6
		c0,0.3-0.3,0.5-0.3,0.7c0,0.2,0.1,0.4,0.4,0.4c0.2,0,0.3-0.1,0.6-0.1c0.2,0,0.4,0.3,0.8,0.3c0.4,0,0.8-0.1,1.8-0.2
		c1,0,4-0.4,3.9-3.9c-0.1-3.6-3.2-3.5-3.5-3.5c-0.2,0-0.3,0.3-0.7,0.3c-0.4,0-0.4-0.2-0.7-0.2c-0.3,0-1,0.1-1.3,0.2
		c-0.4,0-0.4,0.3-0.6,0.3C15.9,20.4,16.2,20,16,20z M16,30.2c0.2,0.2-0.2,0.2-0.2,0.4c0,0.2,0,0.5,0.3,0.5c0.3,0,0.1-0.4,0.4-0.4
		s0.3,0.4,0.6,0.3c0.4,0,0.1-0.3,0.5-0.3c0.4,0,1,0.1,1.3,0.1c0.3,0.1,1.1,0.1,1.1-0.2c0-0.3-0.2-0.2-1.1-0.3c-1,0-1.9-0.1-2.2-0.1
		c-0.2,0-0.5-0.5-0.7-0.5C15.8,29.7,15.7,29.9,16,30.2z M16.5,36.5c-0.2,0-0.4-0.1-0.4,0.9c0,1,0.3,0.4,0.3,1.1
		c0,0.8-0.3,0.7-0.3,1.2c0,0.5,0.4,0.1,0.4,0.5c0,0.4-0.3,0.3-0.3,0.7c0,0.4,0.3,0.1,0.3,0.2c0,0.2-0.4,0.1-0.3,0.6
		c0,0.5,0.2,0.2,0.3,0.7c0,0.5-0.2,0.2-0.2,0.6c0,0.4,0.3,0.4,0.3,0.5c0,0.2-0.3,0.1-0.3,0.3l0,0.8c0,0.5,0.3,0.5,0.5,0.5
		c0.2,0,0.1,0.2,0.7,0.2c0.5,0,1-0.3,1.9-0.3c1,0,5.2-0.4,5.1-4.4c-0.1-4-3.6-4.3-5-4.3L16.5,36.5z M17.4,14.4
		c0.4,0,0.5-0.1,0.7-0.1c0.2,0,0.4,0.2,0.7,0.2c0.2,0,0.5,0,0.8,0.1c0.4,0.1,0.7,0,0.7-0.1c0.1-0.1-0.5-0.3-0.9-0.3
		c-0.4,0-0.4-0.1-0.2-0.2c0.1-0.1,0-0.2-0.2-0.2c-0.2,0-0.9-0.2-1.5-0.2c-0.7,0-0.9-0.2-1.2-0.1c-0.4,0-0.7,0.3-0.7,0.5
		c0,0.3,0.2,0.5,0.6,0.5c0.5,0,0.3-0.4,0.7-0.4C17.3,13.9,17,14.4,17.4,14.4z M23.4,47.9c3-0.9,4.1-3.2,4.7-4c0.6-0.9,0-0.8,0.1-1.1
		c0.1-0.2,0.3-0.1,0.4-0.3c0.2-0.1-0.1-0.2-0.2-0.3c-0.1-0.1,0-0.3,0.1-1c0.2-0.7-0.1-1.8-0.1-2.2c0-0.4-0.5-0.5-0.5,0
		c0,0.5-0.2,1.3-0.2,1.7c0,0.4,0.2,0.2,0.3,0.4c0,0.2-0.1,0.4-0.3,0.6c-0.2,0.2,0,0.5-0.7,2.1c-0.7,1.6-3,3.3-3.8,3.7
		C23.2,47.6,20.4,48.8,23.4,47.9z M29.3,19.2c0.3,0.5,0.6,3,0.1,4.7c-0.6,1.6-0.8,2-0.9,2.1c-0.2,0.2-0.1,0.2,0,0.4
		c0.1,0.1,0.2-0.2,0.2-0.1c0.1,0.1,0.1,0.3-0.3,0.6c-0.4,0.4-0.5,0.3-0.7,0.4c-0.1,0.1,0.1,0.7-0.1,0.8c-0.2,0.2-0.4-0.4-0.6-0.2
		c-0.1,0.1,0.1,0.3,0,0.4c-0.2,0.2-0.6,0.6-0.5,0.7c0.1,0.1,0.4-0.2,0.6-0.4c0.2-0.1,0.2,0.2,0.4,0.1c0.1-0.1,0.1-0.3,0.3-0.5
		l0.6-0.6c0.1-0.1,0.2,0.3,0.4,0c0.2-0.2-0.5-0.2-0.1-0.5c0.4-0.4,1.2-1.2,1.5-2.9c0.3-1.8,0-3.7-0.4-4.9
		C29.4,18.1,29.1,18.7,29.3,19.2z"/>
	<g>
		<path class="st1" d="M142.7,48.2c-0.1,0.3-0.1,0.5-0.4,0.5c-0.3,0-0.5-0.1-1-0.1c-0.4,0-0.8,0.6-1,0.7c-0.2,0-0.4-0.3-0.5-0.5
			l-0.5-1.3c-0.2-0.6-0.2-1.1-0.3-1.6c-0.1-0.4-0.2-0.2-0.3-0.5c-0.1-0.3,0-0.4-0.2-0.8c-0.2-0.4-0.2-0.7-0.5-0.6
			c-0.3,0.1-0.2,0.2-0.1,0.6c0.2,0.4,0.3,0.9,0.4,1.2c0.1,0.4,0.2,0.3,0.3,0.7c0.1,0.4,0.1,0.8,0.2,1c0.1,0.3,0.2,0.8,0.3,1.1
			c0,0.3,0.2,0.8-0.1,0.9c-0.2,0.1-0.7,0.3-1,0.3c-0.3,0-0.6,0.1-0.6,0c0-0.2-0.1-0.3-0.2-0.3c-0.2,0-0.4,0.6-0.6,0.7
			c-0.2,0-0.3-0.2-0.5-0.2c-0.1,0-0.1,0.2-0.3,0.2c-0.2,0-0.2-0.2-0.3-0.2c-0.1,0-0.1,0.6-0.4-0.3c-0.3-0.9-0.5-1.7-0.6-1.9
			c-0.1-0.2-0.1,0-0.2,0.1c-0.1,0.1,0.1,1,0.1,1.5c0.1,0.6,0.2,1.3-0.2,1.3c-0.4,0-0.9-0.8-1.4-2.7c-0.5-1.9-0.9-3.7-1-4
			c-0.1-0.3-0.1-0.2-0.3-0.2c-0.2,0-0.8,0.2-1.3,0.3c-0.5,0-0.4-0.2-0.9-0.1c-0.5,0-0.3,0.3-0.5,0.3c-0.2,0-0.3-0.2-0.4-0.2
			c-0.1,0-0.1,0.2-0.2,0.3c-0.2,0-0.4,0-0.7,0c-0.3,0-0.6-0.1-0.7-0.1c-0.1,0,0.1,0.2-0.2,0.3c-0.3,0-0.2-0.3-0.3-0.3
			c-0.2,0-0.3,0.3-0.5,0.3l-0.7,0c-0.2,0-0.2,0.1-0.2,0.6c0,0.4-0.2,3.7-0.3,4.5c0,0.9-0.1,1.7-0.3,1.7c-0.2,0-0.3-0.3-0.3-0.3
			c-0.1,0-0.1,0.4-0.3,0.4c-0.2,0-0.1-0.4-0.8-0.4c-0.7,0-0.5,0.4-1,0.3c-0.6-0.1-0.5,0-0.4-1c0.1-1,0.1-1.7,0.1-1.9
			c0-0.2,0.1-0.1,0.2-0.4c0-0.2-0.2,0-0.2-0.3c0.1-0.3,0.1,0.2,0.2-0.4c0-0.7-0.1-0.7,0-1.3c0.1-0.7,0.2-0.5,0.2-1
			c0-0.5-0.2-0.7-0.1-0.9c0.1-0.3,0.3-0.9,0.2-0.9c-0.1,0-0.1,0-0.2,0.3c-0.1,0.3-0.2,0.5-0.2,0.8c0,0.2,0,0.2,0,0.5
			c0,0.2-0.2,0.5-0.3,0.8c0,0.3,0,0.7-0.1,1.1c0,0.4-0.1,0.7-0.1,0.9c-0.1,0.3-0.1,0.7-0.2,1c-0.1,0.3-0.3,1.4-0.4,2
			c-0.1,0.6-0.2,0.9-0.3,0.9c-0.2,0-0.2-0.2-0.3-0.2c-0.1,0-0.2,0.2-0.4,0.2c-0.3,0-0.3-0.5-0.7-0.5c-0.5,0-0.3-0.2-0.4-0.4
			c0-0.2-0.2-0.3-0.3-0.7c0-0.3,0.2-0.3,0.2-0.5c0-0.2-0.1-0.2-0.2-0.2c-0.1,0-0.3,0.1-0.3,0.2c0,0.2,0,0.4,0,0.5
			c-0.1,0.1-0.2,0.1-0.2,0.3c0,0.1,0.1,0.2,0,0.5c-0.1,0.3,0,0.6-0.5,0.4c-0.6-0.2-0.6-0.1-0.8-0.1c-0.3-0.1-0.2,0.1-0.6,0.1
			c-0.4-0.1-0.2-0.3-0.2-0.5c0-0.2,0.2-0.5,0.1-1.2c-0.1-0.6,0.3,0,0.3-0.7c-0.1-0.7-0.1-0.7-0.1-1.1c0.1-0.3,0.2-0.1,0.2-1
			c0-0.8-0.1-1.1,0.4-5.2c0.5-4.1,1.4-10.9,1.8-14.3c0.5-3.4,1-5.4,0.9-5.9s-0.3-1,0.3-1l0.4,0c0.1,0,0.1,0.2,0.2,0.2
			c0.2,0,0-0.2,0.2-0.3l0.5,0c0.1,0-0.1,0.3,0.2,0.3c0.3,0,0.4-0.2,0.6-0.2s0.1-0.2,0.3-0.2c0.2,0,0.1,0.3,0.2,0.3
			c0.2,0,0.3,0.2,0.2,0.8c0,0.6,0,1,0,1.4c0,0.4,0,0.6,0.1,0.6c0.1,0,0.3-0.4,0.3-0.6c0-0.2,0-0.5,0-0.8c0.1-0.2,0.2-0.4,0.2-0.7
			c0-0.3,0-0.7,0.2-1c0.3-0.3,0.3-0.3,0.4-0.3c0.1,0,0,0.2,0.1,0.2c0.1,0,0.1-0.4,0.4-0.4c0.2,0,0.4,0.2,0.5,0.2
			c0.1,0,0.1,0.4,0.3,0.4c0.2,0,0.3-0.4,0.7-0.4c0.4,0,0.4-0.2,0.4,0c0,0.1,0,0.2,0.1,0.2c0.1,0-0.1-0.4,0.2-0.4
			c0.3,0,0.2,0.2,0.4,0.2c0.2,0,0.2,0,0.2,0.1c0,0.1,0,0.2,0.1,0.2c0.2,0,0.1-0.3,0.3-0.4c0.2,0,0.3-0.1,0.5-0.1
			c0.1,0,0-0.2,0.2-0.2c0.2,0,0.1,0.6,0.2,0.6c0.1,0,0.3-0.3,0.5-0.4c0.2,0,0.2,0.1,0.6,1.4c0.4,1.3,0.7,2.2,0.8,2.5
			c0.1,0.3-0.1,0.3,0,0.5c0.1,0.1,0.2-0.1,0.2,0.1l0.2,0.6c0.1,0.2,0.1,0.1,0.1-0.2c-0.1-0.2-0.4-1.5,0-0.4c0.4,1.1,0.4,1.1,0.3,1.2
			c-0.1,0-0.3,0-0.2,0.1c0.1,0.2,0.2,0.4,0.3,0.5c0.1,0.1,0,0.2,0,0.4c0.1,0.2,0.4,0.3,0.5,0.5c0,0.2,0,0.3-0.1,0.3l-0.3-0.1
			c0,0-0.2,0.1-0.2,0.2c0,0.2,0.2,0.1,0.2,0c0,0,0.2-0.1,0.4-0.1c0.2,0,0.2,0.1,0.2,0.3c0,0.2-0.4,0-0.3,0.2
			c0.1,0.2,0.3-0.1,0.4,0.3c0.1,0.4-0.2,0.1-0.1,0.3c0.1,0.2,0.3,0.1,0.3,0.1c0,0,0-0.1,0.1-0.1c0.1,0,0.1,0.2,0.2,0.1
			c0.1,0,0.1-0.2,0-0.2c-0.1-0.1-0.3,0-0.3-0.1c0-0.1,0.1-0.3,0-0.5c0-0.2-0.1-0.2-0.2-0.4s0.2-0.1,0.1-0.3
			c-0.1-0.2-0.1,0.1-0.3-0.5c-0.2-0.6-0.3-0.6-0.7-1.9c-0.4-1.3-0.9-3.2-1.2-3.9c-0.2-0.7-0.2-0.8-0.3-0.9c0-0.1,0.1-0.2,0.4-0.4
			c0.3-0.1,0.4-0.1,0.5,0c0.1,0.2,0.1,0.2,0.3,0.1c0.1,0,0.6-0.7,0.9-0.7c0.4,0,0.2,0.4,0.5,0.4c0.3,0,0.1-0.3,0.3-0.3
			c0.2,0,0.2-0.2,0.9,1.9c0.7,2.1,1.1,3.3,2.8,8.5c1.8,5.3,1.6,4.7,2.2,6.5c0.7,1.9,2.1,6.3,2.3,7.1l0.7,1.9c0,0.2-0.2,0.1-0.2,0.2
			c0.1,0.1,0.2,0,0.3,0.3c0.1,0.4,0.7,1.8,0.8,2.4C142.9,47.9,142.9,47.8,142.7,48.2z M121.6,27.9c-0.1,0-0.1,0.2-0.1,0.4
			c0,0.1-0.2,0.4-0.2,0.6c-0.1,0.2,0,0.4-0.1,0.8c-0.1,0.3-0.1,0.2-0.1,0.3c0,0.1,0.1,0.2,0.1,0.4c-0.1,0.2-0.1,0.1-0.1,0.3
			c0,0.2,0,0.3-0.1,1c-0.1,0.7-0.2,1.3-0.3,2.3c-0.1,0.9-0.2,2.3-0.4,3.5c-0.1,1.3-0.4,2.1-0.4,2.4c-0.1,0.3,0,0.5,0,0.5
			c0.2,0,0.4-0.8,0.4-0.9c0-0.2,0.2,0,0.2-0.1c0-0.2-0.2-0.3-0.2-0.4c0-0.1,0.2,0,0.2-0.2c0-0.2-0.2-0.1-0.2-0.4
			c0.1-0.3,0.2-0.1,0.2-0.2c0-0.1,0-0.4,0.2-1.4c0.1-1,0.2-1.4,0.1-1.6c0-0.2,0.1-0.1,0.2-0.1c0.2,0,0.2-0.1,0.2-0.2
			c0-0.2-0.2,0-0.2,0c-0.1,0-0.1-0.1-0.1-0.3c0-0.2,0.1-0.1,0.2-0.2c0-0.1-0.1-0.2-0.1-0.4c0-0.1,0.1,0,0.1-0.2
			c0.1-0.2-0.1-0.3-0.1-0.4c0.1-0.2,0.3,0.1,0.3-0.1c0-0.2-0.3-0.2-0.3-0.3c0-0.1,0,0,0.1-0.1c0-0.1-0.1-0.1,0-0.4
			c0.1-0.2,0.3-0.3,0.3-0.3l0-0.2c0-0.2-0.2-0.1-0.2-0.2c0-0.2,0.2-0.1,0.2-0.2c0.1-0.2-0.1-0.2-0.1-0.3c0-0.1,0-0.5,0.1-0.7
			c0-0.2-0.1-0.3-0.1-0.4c0-0.1,0.1-0.1,0.1-0.3c0-0.2,0-0.4,0-0.6c0-0.2,0-0.5,0-0.6c0-0.2,0.1-0.3,0.1-0.4
			C121.7,28.1,121.7,27.9,121.6,27.9z M126.8,36.9c0.3,0,0.6-0.1,0.8-0.2c0.2,0,0.4,0,0.7,0l1.5-0.1c0.2,0,0.2-0.1,0.2-0.2
			c0,0,0-0.1-0.1-0.2c0-0.1,0-0.2-0.1-0.4c-0.1-0.2-0.2-0.3-0.3-0.5c-0.1-0.3,0-0.4,0-0.5c0-0.1-0.2-0.1-0.2-0.3
			c-0.1-0.2,0-0.4,0-0.4c0-0.1-0.1,0-0.1-0.1c0-0.1,0-0.1,0-0.3c-0.1-0.1-0.2-0.3-0.3-0.5l-0.2-0.8c-0.1-0.3-0.3-1-0.4-1.1
			c-0.1-0.1,0.1-0.2,0.1-0.3c0-0.1-0.1-0.2-0.2-0.3c0-0.1-0.2-0.4-0.3-1.1c-0.1-0.7-0.3-1-0.5-1.7c-0.1-0.8-0.1-0.4-0.2-0.7
			c-0.1-0.2-0.2-0.8-0.3-0.8s-0.1,0.3-0.1,0.5c0,0.1-0.1,0-0.1,0.1c0,0.1,0.1,0.2,0,0.4c0,0.2-0.1,0.3-0.1,0.5c0,0.1,0.1,0.2,0,0.6
			c0,0.4-0.2,1.5-0.2,2.1c0,0.5-0.1,0.3-0.2,0.5c0,0.3,0,0.9,0,1.2c0,0.3-0.1,0.5-0.2,1.3c-0.1,0.7,0.1,0.2,0,0.4
			c0,0.2-0.2,0.1-0.2,0.3c0,0.2,0.2,0.4,0.1,0.5c-0.1,0.2,0,0.5,0,0.6c0,0.1-0.1,0.2-0.1,0.3c0,0,0.1,0.2,0.1,0.4
			c0,0.2-0.2,0.2-0.2,0.3c0,0.1,0.1,0.2,0,0.6c0,0.2,0.1,0.3,0.2,0.3c0.1,0,0.1-0.1,0.2-0.1L126.8,36.9z M131.6,42
			c-0.1-0.2-0.1-0.3-0.3-0.3c-0.3,0.1-0.5,0.3-1,0.3c-0.4,0-0.6-0.1-0.8-0.1c-0.2,0-0.4,0.2-0.7,0.2c-0.2,0-0.4,0-0.7,0
			s-0.5,0-0.5,0.2c0,0.1-0.1,0,0.1,0c0.2,0,0.6-0.1,0.8-0.1c0.2,0.1,0.4,0.1,0.6,0.1c0.2,0,0.6,0.2,0.9,0.1c0.3,0,1.3-0.2,1.5-0.2
			C131.7,42.3,131.7,42.2,131.6,42z"/>
		<path class="st1" d="M160.5,23.7c0,0.1-0.2,0.4-1.4,0.4c-1.2,0-5.9,0.1-6.5,0.1c-0.4,0-1.3-0.2-1.3,0.1v6.1c0,1.6-0.1,3.2-0.1,4.7
			c0,2.2,0.1,4.1,0.1,5.6v2.9c0,2.4,0,5.6,0,6.2c0,0.5-0.2,0.8-0.6,0.8s-0.9-0.5-0.9-0.9c0-0.4-0.1-1.3-0.3-1.3
			c-0.5,0-0.5,0-0.5,0.7c0,0.7,0,1.2-0.6,1.2c-0.5,0-0.2-7.2-0.2-10.1c0-0.8-0.3-1.1-0.3-1.1s-0.1,0.2-0.2,1.1
			c-0.3,3.1-0.2,10-0.5,10c-0.3,0-0.7-0.8-1-0.8c-0.4,0,0,0.7-1.2,0.7c-0.7,0-0.6-0.8-0.6-2.3c0-1.6-0.2-4.4-0.4-4.4
			c-0.2,0-0.2,3-0.2,3.5c0,0.6,0,3.5-0.6,3.5c-0.6,0-0.7-0.4-0.9-0.4c-0.2,0-0.2,0.2-0.4,0.2c-0.3,0-0.5-0.2-0.5-0.9v-2.4
			c0-0.6,0.4-0.3,0.4-1.1c0-0.8-0.4-2.7-0.4-3.6V24.6c0-0.1,0-0.4-0.3-0.4c-1,0-2.9-0.1-3.8-0.1c-1.3,0-3.7-0.1-4.2-0.2
			c-0.6-0.2-0.9-0.5-0.9-0.9c0-0.5,0.9-0.4,0.9-0.8c0-0.4-0.4-0.4-0.4-0.8c0-0.5,0.5-0.5,1-0.5l3.6,0c0.4,0,0.6,0,0.6-0.1
			c0-0.2-0.2-0.4-0.4-0.4c-0.2,0-3.1-0.1-3.7-0.1s-1.4-0.1-1.4-0.5c0-0.4-0.6-0.6-0.6-1.3c0-0.7,0.8-0.7,0.8-1s0-0.8,0.8-0.8
			c0.8,0,3.6,0.1,4.9,0.1c1.4,0,1.8-0.3,2.4-0.3c0.6,0,0.8,0.1,1.1,0.1c0.2,0,0.3-0.1,0.3-0.2c0-0.1-0.1-0.4-2.1-0.4
			c-2.1,0-2.4,0.1-4.3,0.1c-1.9,0-2.7-0.1-3.1-0.1c-0.4,0-0.8-0.3-0.8-0.7c0-0.3,0.5-0.4,0.5-0.7c0-0.2,0-0.4,0.3-0.5
			c0.8,0,8.2-0.2,12.7-0.2c4.5,0,12.5,0.5,13.4,0.5c0.9,0,1.1,0.3,1.2,0.4c0.1,0.1,0.5,0.4,0.5,0.8c0,0.3-0.1,0.8-0.7,0.8h-4.6
			c-0.4,0-0.6,0.1-0.6,0.2c0,0.1,0.3,0.2,0.6,0.2l3.9,0.1c0.4,0,0.3,0.3,0.6,0.3c0.3,0,0.8,0.1,0.8,0.4c0,0.3-0.5,0.3-0.5,0.5
			c0,0.2,0.5,0.4,0.5,0.7c0,0.3-1,0.2-1,0.4c0,0.1,0.6,0.3,0.6,0.7c0,0.3-0.3,0.2-0.3,0.4c0,0.2,0.7,0.4,0.7,0.5
			c0,0.1-0.3,0.1-0.3,0.2c0,0.1,0,0.4-0.2,0.4l-2,0.1c-0.1,0-0.3,0-0.3,0.2c0,0.1,0.4,0.1,0.6,0.1c0.2,0,1.3,0.3,1.7,0.3
			c0.4,0,0.5,0.2,0.5,0.4c0,0.2-0.1,0.6-0.1,0.8S160.5,23.5,160.5,23.7z M148,31.6c0,0.3,0.1,0.7,0.2,0.7c0.1,0,0.2-0.1,0.2-0.4
			l0.1-7c0-0.7,0-0.8-0.4-0.8c-0.4,0-0.3,0.3-0.3,0.8L148,31.6z"/>
	</g>
</g>
</svg>
