<svg xmlns="http://www.w3.org/2000/svg" xmlns:xlink="http://www.w3.org/1999/xlink" viewBox="0 0 745.61 126.22"><defs><style>.cls-1{fill:url(#linear-gradient);}.cls-2{fill:url(#linear-gradient-2);}.cls-3{fill:url(#linear-gradient-4);}.cls-4{fill:url(#linear-gradient-6);}.cls-5{fill:url(#linear-gradient-7);}.cls-6{fill:url(#linear-gradient-8);}.cls-7{fill:url(#linear-gradient-9);}.cls-8{fill:url(#linear-gradient-10);}.cls-9{fill:url(#linear-gradient-11);}.cls-10{fill:url(#linear-gradient-13);}.cls-11{fill:url(#linear-gradient-14);}.cls-12{fill:url(#linear-gradient-15);}.cls-13{fill:url(#linear-gradient-16);}.cls-14{fill:url(#linear-gradient-17);}.cls-15{fill:url(#linear-gradient-18);}</style><linearGradient id="linear-gradient" x1="-4.74" y1="87.18" x2="511.6" y2="87.18" gradientUnits="userSpaceOnUse"><stop offset="0" stop-color="#662d91"/><stop offset="0.27" stop-color="#ed1e79"/><stop offset="0.48" stop-color="#ed1c24"/><stop offset="0.73" stop-color="#d9e021"/><stop offset="1" stop-color="#006837"/></linearGradient><linearGradient id="linear-gradient-2" x1="-4.74" y1="74.45" x2="511.6" y2="74.45" xlink:href="#linear-gradient"/><linearGradient id="linear-gradient-4" x1="-4.74" y1="86.54" x2="511.6" y2="86.54" xlink:href="#linear-gradient"/><linearGradient id="linear-gradient-6" x1="-4.74" y1="88.75" x2="511.6" y2="88.75" xlink:href="#linear-gradient"/><linearGradient id="linear-gradient-7" x1="-4.74" y1="92.27" x2="511.6" y2="92.27" xlink:href="#linear-gradient"/><linearGradient id="linear-gradient-8" x1="-4.74" y1="81.05" x2="511.6" y2="81.05" xlink:href="#linear-gradient"/><linearGradient id="linear-gradient-9" x1="402.67" y1="48.52" x2="431.67" y2="76.18" gradientUnits="userSpaceOnUse"><stop offset="0.28" stop-color="#29abe2"/><stop offset="1" stop-color="#0071bc"/></linearGradient><linearGradient id="linear-gradient-10" x1="519.11" y1="11.75" x2="748.49" y2="11.75" xlink:href="#linear-gradient"/><linearGradient id="linear-gradient-11" x1="519.11" y1="76.81" x2="748.49" y2="76.81" xlink:href="#linear-gradient"/><linearGradient id="linear-gradient-13" x1="519.11" y1="76.81" x2="748.49" y2="76.81" xlink:href="#linear-gradient"/><linearGradient id="linear-gradient-14" x1="628.58" y1="53.2" x2="628.63" y2="53.2" xlink:href="#linear-gradient"/><linearGradient id="linear-gradient-15" x1="665.9" y1="99.18" x2="666.93" y2="99.18" xlink:href="#linear-gradient"/><linearGradient id="linear-gradient-16" x1="627.18" y1="104.35" x2="627.39" y2="104.35" xlink:href="#linear-gradient"/><linearGradient id="linear-gradient-17" x1="582.25" y1="69.21" x2="668.19" y2="69.21" gradientTransform="matrix(0.87, -0.05, 0.03, 0.92, 85.26, 41.87)" xlink:href="#linear-gradient"/><linearGradient id="linear-gradient-18" x1="596.34" y1="78.6" x2="689.55" y2="78.6" gradientTransform="matrix(0.87, -0.05, 0.03, 0.92, 85.26, 41.87)" xlink:href="#linear-gradient"/></defs><title>Asset 3</title><g id="Layer_2" data-name="Layer 2"><g id="Layer_1-2" data-name="Layer 1"><path class="cls-1" d="M516.38,77.6h-.51c-3.54,0-5.06,1.59-6.88,7L500.59,110H481.87L475.8,91.34,470.13,110H451.81L441.39,77.6h-3.14V64.39h27.33V77.6h-4.86l4.86,15.76,8.8-29H485l9.21,29,3.65-10.86a11.92,11.92,0,0,0,.5-2.77c0-1.5-.91-2.13-2.83-2.13h-1.92V64.39h22.77Z"/><path class="cls-2" d="M91.9,54.59H90.73c-3.9,0-4.89,1.28-6.7,8.95L73.07,110H53.6L46.09,78.66,38.57,110H18.74L5.43,54.59H0V38.93H32.42V54.59h-6l6.25,26.52L42.92,38.93H57L67,81.11l5-21.3a8.55,8.55,0,0,0,.46-2.67c0-1.7-1.18-2.66-3.08-2.66a5.71,5.71,0,0,0-1.27.11V38.93H91.9Z"/><path class="cls-1" d="M137.37,110H114.68v-3.73a16.69,16.69,0,0,1-12.57,5c-9.69,0-17.36-6.93-17.36-15.77,0-8.52,7.88-14.91,18.42-14.91a19.07,19.07,0,0,1,11.51,3.3,16,16,0,0,0,.1-2c0-4.58-3.3-6.93-9.58-6.93-4.26,0-6.93,1.17-9.27,4h-7V65.67c11-2.13,14.59-2.56,20.24-2.56,17.47,0,25,5.11,25,16.72V96.77h3.2ZM105.62,94.64a5,5,0,0,0,4.8,5A4.78,4.78,0,0,0,115,95a5,5,0,0,0-4.9-4.69A4.56,4.56,0,0,0,105.62,94.64Z"/><path class="cls-3" d="M168.37,71.1c4-5.86,7.88-8,13.95-8,5.43,0,10,1.92,13,5.43,1.91,2.35,2.76,5.22,2.76,9.38V96.77h3.63V110h-24.5V84c0-3.3-1.49-5.22-4.26-5.22a4.44,4.44,0,0,0-4.58,4.68V96.77H172V110H144.08V96.77h3.51V77.6h-3.51V68.46l24.29-4.07Z"/><path class="cls-2" d="M260.19,77.6c-6.47-.11-6.88,0-10.72,3.62a21.83,21.83,0,0,1-1.72,1.49l9.1,14.06h5.27V110H243.4L231.66,90.59V110H208.38V96.77h3.34V52.14h-3.34V43.59l23.28-4.66V85.48l9.1-7.88h-4.14V64.39h23.57Z"/><path class="cls-4" d="M280.85,102.17h2V110H267.08v-7.81h2V90.83h-2V83h13.77ZM281,73.88c0,3.84-2.81,6.42-6.94,6.42s-6.95-2.58-6.95-6.36,2.76-6.43,7.07-6.43C278.28,67.51,281,70.1,281,73.88Z"/><path class="cls-5" d="M301.23,83h3.95v7.75h-3.95v8.76c0,1.89.6,2.65,2.16,2.65a4.34,4.34,0,0,0,1.67-.44v7.62a17.76,17.76,0,0,1-7.42,1.38c-3.29,0-5.86-1.19-7.12-3.33-.6-1.08-.78-2.08-.78-4.41V90.76h-2.57V83h2.57V76.78l11.49-3Z"/><path class="cls-6" d="M336.23,52.13,353.78,88V73.29c0-5-.17-5.81-1.24-7.11a4.09,4.09,0,0,0-3.21-1.3h-.58V52.13h20.52V64.88h-.58a3.91,3.91,0,0,0-3.38,1.56c-1,1.3-1.07,2-1.07,6.85V110h-20.1L327.91,76.5V88.82c0,5,.16,5.81,1.23,7.11a4.11,4.11,0,0,0,3.22,1.3h.57V110H312.42V97.23H313a4,4,0,0,0,3.38-1.56c1-1.3,1.07-2,1.07-6.85V64.88H313V52.13Z"/><path class="cls-7" d="M419.39,24.2l10.23,8.86L415.28,49.62A32.19,32.19,0,0,0,402.59,47c-18.74,0-34,16.16-34,36s15.24,36,34,36,34-16.15,34-36A37.14,37.14,0,0,0,428,59.18l13.61-15.71,10.23,8.85,3.35-36.68Zm-16.8,78.51c-9.66,0-17.51-8.84-17.51-19.7s7.85-19.69,17.51-19.69,17.5,8.83,17.5,19.69S412.24,102.71,402.59,102.71Z"/><path class="cls-8" d="M612.92,23.49H592.17l1.79-2.4,1.51-2c1.29-1.7,2.5-3.31,3.67-5,.9-1.29,1.88-2.51,2.83-3.7.58-.72,1.15-1.45,1.71-2.18s1-1.36,1.48-2,1.07-1.5,1.62-2.23A9,9,0,0,1,614.2,0h0c14.35.07,27.55.07,40.38,0a9.08,9.08,0,0,1,7.53,3.85c.4.53.79,1.07,1.18,1.61s.8,1.12,1.23,1.66c.67.86,1.3,1.76,1.92,2.63l.39.54c.7,1,1.44,2,2.19,2.91,1.18,1.55,2.41,3.14,3.5,4.84A15.06,15.06,0,0,0,674.11,20c.31.33.62.68.92,1l2.07,2.46H656l-5.2-6.73H618.17l-.26.35c-.61.83-1.26,1.7-1.92,2.55h0c-.63.82-1.27,1.62-1.89,2.38Zm-14.75-3h13.31l.29-.35c.6-.75,1.23-1.54,1.85-2.34h0c.65-.84,1.28-1.69,1.88-2.5l1.17-1.57h35.59l5.2,6.73H670.6c-.2-.26-.39-.52-.57-.8-1-1.6-2.19-3.14-3.34-4.63-.75-1-1.52-2-2.25-3l-.39-.55c-.6-.84-1.22-1.71-1.85-2.52-.45-.57-.87-1.16-1.3-1.75s-.74-1-1.12-1.53A6,6,0,0,0,654.69,3h0c-12.84.07-26,.07-40.41,0h0a6,6,0,0,0-5,2.74c-.54.7-1,1.43-1.56,2.14s-1,1.43-1.54,2.13-1.16,1.5-1.76,2.24c-.92,1.15-1.87,2.34-2.7,3.54C600.5,17.39,599.32,19,598.17,20.49Z"/><path class="cls-9" d="M533.11,99.73A9.76,9.76,0,0,1,523.36,90V63.64a9.75,9.75,0,1,1,19.5,0V90A9.76,9.76,0,0,1,533.11,99.73Zm0-42.84a6.76,6.76,0,0,0-6.75,6.75V90a6.75,6.75,0,1,0,13.5,0V63.64A6.75,6.75,0,0,0,533.11,56.89Z"/><path class="cls-9" d="M735.86,99.73A9.76,9.76,0,0,1,726.11,90V63.64a9.75,9.75,0,1,1,19.5,0V90A9.76,9.76,0,0,1,735.86,99.73Zm0-42.84a6.76,6.76,0,0,0-6.75,6.75V90a6.75,6.75,0,1,0,13.5,0V63.64A6.75,6.75,0,0,0,735.86,56.89Z"/><path class="cls-10" d="M607.21,126.22H588.16q-11.55,0-23.1,0a20,20,0,0,1-11-3.54,21.05,21.05,0,0,1-8.42-10.23,34.18,34.18,0,0,1-1.25-4.2,19.08,19.08,0,0,1-.37-4.81c0-.31,0-.63,0-.94q0-14,0-27.9,0-13.1,0-26.19a16.8,16.8,0,0,1,.71-4.4,21.25,21.25,0,0,1,2.91-6.61A22,22,0,0,1,557.87,29a29,29,0,0,1,4.25-1.23,20.11,20.11,0,0,1,4.7-.35h3.75c43.61,0,88.7,0,133,0a20.44,20.44,0,0,1,14.15,5.83,21,21,0,0,1,5.5,7.86,33.91,33.91,0,0,1,1.27,4.18,19.52,19.52,0,0,1,.39,5c0,.38,0,.76,0,1.14q0,9.32,0,18.63v6.82q0,3.87,0,7.73c0,6.23,0,12.66,0,19a23.34,23.34,0,0,1-3.22,11.91l-.19.35a7.65,7.65,0,0,1-1.26,1.82c-.41.4-.81.82-1.2,1.23a24.8,24.8,0,0,1-4.12,3.67,34.12,34.12,0,0,1-8,3.15,17.24,17.24,0,0,1-4.78.4h-1q-12.68,0-25.35,0h-7.79a23.89,23.89,0,0,1-11-3.59,28.53,28.53,0,0,1-7.55-8.11c-.49-.76-1-1.54-1.45-2.32a48.86,48.86,0,0,0-2.84-4.32,5,5,0,0,0-4.22-2.19c-1.51,0-3,0-4.51,0h-1.74a4.81,4.81,0,0,0-4.11,2.26c-.85,1.22-1.66,2.53-2.44,3.8a63.83,63.83,0,0,1-3.67,5.48,22.15,22.15,0,0,1-11.5,8.07A21.38,21.38,0,0,1,607.21,126.22Zm-14.76-3h14.76a18.45,18.45,0,0,0,5-.83,19.16,19.16,0,0,0,9.94-7,61.52,61.52,0,0,0,3.49-5.22c.8-1.3,1.63-2.65,2.53-3.94a7.77,7.77,0,0,1,6.57-3.54h1.75c1.48,0,2.95,0,4.43,0a8,8,0,0,1,6.68,3.37c1.11,1.48,2.08,3,3,4.58.47.75.93,1.51,1.41,2.25a25.65,25.65,0,0,0,6.74,7.28,21.34,21.34,0,0,0,9.32,3h7.8q12.66,0,25.33,0h1a15,15,0,0,0,4-.3,32.41,32.41,0,0,0,7.11-2.75,22.28,22.28,0,0,0,3.6-3.25c.42-.43.83-.86,1.26-1.28a5.39,5.39,0,0,0,.73-1.13l.22-.39A20.4,20.4,0,0,0,722,103.68c-.06-6.34-.05-12.78,0-19,0-2.58,0-5.15,0-7.73V70.12q0-9.32,0-18.61c0-.4,0-.8,0-1.2a16.79,16.79,0,0,0-.3-4.28,31.3,31.3,0,0,0-1.16-3.81,17.9,17.9,0,0,0-4.73-6.74,17.52,17.52,0,0,0-12.12-5c-44.35-.06-89.44,0-133,0h-3.75a18.08,18.08,0,0,0-4.05.28A26,26,0,0,0,559,31.8a18.93,18.93,0,0,0-8.85,7.25,18.31,18.31,0,0,0-2.49,5.67,14.75,14.75,0,0,0-.61,3.64q0,13.1,0,26.2,0,13.95,0,27.9c0,.32,0,.65,0,1a16.64,16.64,0,0,0,.29,4.08,33.91,33.91,0,0,0,1.13,3.83,18.18,18.18,0,0,0,7.26,8.79,17,17,0,0,0,9.35,3.05q11.53,0,23.09,0Z"/><path class="cls-11" d="M628.62,53.19l0,0h0S628.62,53.2,628.62,53.19Z"/><path class="cls-12" d="M666.93,99.38l-.86-.42.23.13A3.91,3.91,0,0,0,666.93,99.38Z"/><path class="cls-13" d="M627.23,104.51l.17-.32-.12.08C627.22,104.46,627.2,104.54,627.23,104.51Z"/><path class="cls-14" d="M644.82,38.46c.18,0,.2.19.06.46s-.58.78-1.21,1.53a12,12,0,0,1-1.19,1.44,1.35,1.35,0,0,1-.17.17c-.54.56-1.12,1.19-1.74,1.88l.69-.48c.43-.29.88-.61,1.35-1q-1.65,2.45-3.18,5-1.47,2.23-3.37,5l-.87,1.24-2,3c-.89,1.34-1.76,2.61-2.6,3.83l0,0-.4.67q-2.58,3.74-7.46,11.74t-9.6,16.74v.1c-.81,1.55-7.85,13.82-8.7,15.27a1.81,1.81,0,0,0-.34.34.48.48,0,0,0-.08.16l0,.12,0,.12a.43.43,0,0,1-.07.16.71.71,0,0,0-.07.11.05.05,0,0,1,0,0,.08.08,0,0,1-.07,0l-.11.08c-.38.73-.77,1.46-1.18,2.18q-.21.42-.48.87a.48.48,0,0,0-.08.18,2.16,2.16,0,0,0-.2.36,5.71,5.71,0,0,1-.35.64.94.94,0,0,0-.1.28l0,0H601l-.21-.14-.87-.4-.7-.32a15,15,0,0,0-1.44-.65l-.17-.08-.13-.07-.26-.1a3,3,0,0,0-.52-.24l-.27-.1h-.09l0-.06-.09,0a1.13,1.13,0,0,0-.31-.1h-.18l-2-.34-2-.35a3.55,3.55,0,0,0-.46,0l-.78-.13-.32-.06h-.09v0l0,0v0l0-.09v0l0-1c0-.4,0-.8,0-1.2,0-.23,0-.48,0-.75v-3.19l0-.69c0-.36.06-.7.08-1l.18-1.56c0-.43,0-.85-.06-1.25,0-.24,0-.48,0-.74a3.24,3.24,0,0,0-.06-1.31c0-.8,0-1.64,0-2.53q.08-3.37-.07-6.29v-.2a.35.35,0,0,1,0-.2.35.35,0,0,1,0-.2l0-.15q.31-15.27,1-30.54a22.66,22.66,0,0,1,.62-3.52c.2-.8.38-1.61.52-2.45a12.09,12.09,0,0,1,.68-1.72c0,.66,0,1.32-.07,2,0-.76.1-1.53.17-2.31a3.92,3.92,0,0,1,.32-.5c0,.79-.07,1.57-.07,2.33l0,.69c0-.46.06-1,.11-1.72s.11-1.06.13-1.52a30.13,30.13,0,0,1-.16,3.6c0,.83-.09,1.57-.11,2.23.37-2.33.7-3,1-2.12a25.52,25.52,0,0,1,.55,5.47,9.39,9.39,0,0,1,0-1c0-.4,0-.74.06-1s.06-.44.12-.43.28.53.24,1.19A18.65,18.65,0,0,1,595,56a11.51,11.51,0,0,0-.15,1.91c.15,0,.25-.21.29-.72s.08-1.14.12-1.89.07-1.34.13-1.94a2.78,2.78,0,0,1,.28-1.18c0,.7,0,1.4.05,2.1a21.7,21.7,0,0,1,0,3.13c.12.22.2.25.25.07a4.65,4.65,0,0,0,.08-.85c0-.4,0-.83,0-1.3s0-1,0-1.44.05-.59.14-.57c0,.82,0,1.55,0,2.18s0,1.3,0,2.13a3.45,3.45,0,0,1,.26-1c.09-.18.19-.28.28-.3a1.24,1.24,0,0,1,.33,0,.51.51,0,0,0,.21,0,.41.41,0,0,0,.24-.16,1.31,1.31,0,0,0,.22-.46c.16-.37.3-.73.43-1.07a11.38,11.38,0,0,1,.73-1.51c.22-.36.42-.35.61,0a10.76,10.76,0,0,1,.49,2.8,10.79,10.79,0,0,1,.18,2.47c0,1.12,0,2.35,0,3.67.23-.95.46-2,.7-3.21l.16,1.23q.48,3.21.91,6.38.56,8.1.34,17.93c.35-.57.69-1.13,1-1.67a1.49,1.49,0,0,0,.45-.41,1.62,1.62,0,0,0,.1-.18q0-.1,0-.15l0-.15a.43.43,0,0,1,.13-.22c0-.07,0-.11.07-.12l.1,0s.06,0,.07,0l.09-.06c1.66-2.72,9.54-16.12,11.2-18.61l.13-.18h0s0,0,0,0a.06.06,0,0,0,0,0s0-.05.09-.11q.78-1.25,1.8-2.82l1.62-2.5c.47-.75,1-1.47,1.51-2.18a.58.58,0,0,0,.08-.18v-.15a.28.28,0,0,0,.08-.06l.08-.06a.1.1,0,0,0,.1,0,.36.36,0,0,1,0-.09l.09-.09.13-.22c.05-.09.09-.17.13-.23.58-.79,1.15-1.61,1.7-2.44s1.29-1.95,2-2.89c0,0,0,0,0,0a.92.92,0,0,0,.22-.19l.15-.17.28-.37a.6.6,0,0,0,.15-.18.5.5,0,0,1,.07-.13l.09-.14a.47.47,0,0,1,.14-.22.21.21,0,0,1,0-.12,1,1,0,0,1,.1-.16.69.69,0,0,1,.13-.2.24.24,0,0,0,.06-.11s.06,0,0,0,0,0,0,0,0,0,.05,0a4,4,0,0,0,.33-.41,7.35,7.35,0,0,0,.42-.65l.69-1q.36-.43.81-.9c.4-.46.79-.94,1.19-1.43a3.22,3.22,0,0,0-.77,2.25,8.7,8.7,0,0,0,1.3-1.51,9.68,9.68,0,0,1,1.25-1.48c-.49.62-1,1.38-1.67,2.3-.54.73-1,1.37-1.37,1.9a1.2,1.2,0,0,0-.19.27,2.42,2.42,0,0,0-.52,1.12c0,.28.13.38.46.31a9.92,9.92,0,0,0,1.44-1.79,12.13,12.13,0,0,1,1.11-1.5s0,0,0,0a.71.71,0,0,1,.34,0c1.29-1.67,2.65-3.28,4.09-4.86a46.85,46.85,0,0,1,4.6-4.52,9.1,9.1,0,0,1,1.9-1.21,17.7,17.7,0,0,1,2.93-1.18,5,5,0,0,1,1.66-.11,9.21,9.21,0,0,0-1.76.64,7,7,0,0,1,2-.64,3.78,3.78,0,0,1,.54.14,6.2,6.2,0,0,0-1.37.31l-.91.39,1-.37a5.34,5.34,0,0,1,1.49-.19,8.71,8.71,0,0,0-2.55.65,14.06,14.06,0,0,0-2.14,1.22,4.41,4.41,0,0,1,1.81-.68c.28,0,.29.1,0,.35a5.33,5.33,0,0,1-.79.76l-.45.42c-.59.53-1.27,1.17-2,1.93a3.79,3.79,0,0,1,.45-.44l.55-.43a2.44,2.44,0,0,1,.58-.39c0,.17-.11.36-.36.58a6.26,6.26,0,0,1-.89.69l-.11.08c-.36.27-.71.54-1,.82a4.82,4.82,0,0,0-.67.63c0,.1.13.07.35-.09a8.38,8.38,0,0,0,.78-.71,5.06,5.06,0,0,1,.49-.41,15.63,15.63,0,0,1,1.26-1c.39-.28.66-.41.81-.38a14.31,14.31,0,0,0-1.78,1.58c-.41.42-.83.83-1.24,1.22-.06.16-.05.22,0,.18a1.45,1.45,0,0,0,.37-.28c.17-.15.35-.33.54-.53a.3.3,0,0,1,.17-.12,8.88,8.88,0,0,1,1-.92l.35-.27c.09-.06.14-.06.16,0A11.44,11.44,0,0,0,642.17,38c-.37.33-.78.72-1.24,1.18a1.88,1.88,0,0,1,.63-.34.35.35,0,0,1,.07-.14,1.82,1.82,0,0,0,.3-.4l-.25.36a.81.81,0,0,1-.11.13c.16,0,.27,0,.32,0a.66.66,0,0,1,.16.17V39a.31.31,0,0,0,.21.14,1.06,1.06,0,0,0,.45-.12c.16-.07.33-.15.5-.21s.52-.16.75-.22a2.34,2.34,0,0,1,.49-.16A2.17,2.17,0,0,1,644.82,38.46Zm-18.26,8.21s0-.06,0-.07l0,0Zm5.37-5.14a5.92,5.92,0,0,1,.46-.61c.05-.06,0,.1-.3.49A.28.28,0,0,0,631.93,41.53Z"/><path class="cls-15" d="M690.14,108.51a7.57,7.57,0,0,1-2.7-.12c-.87-.19-1.68-.39-2.43-.62a1.06,1.06,0,0,1-.26-.1,6.93,6.93,0,0,0,.83.35c.61.27,1,.46,1.22.56s.21.33-.2.36l-.84,0a10.58,10.58,0,0,1-1.24-.17,20.58,20.58,0,0,1-3.3-1,1,1,0,0,0,.27.1,2.28,2.28,0,0,0,.47.23,4.51,4.51,0,0,1,.57.25l.18,0,.87.4c-.14.11-.44.09-.88,0a8,8,0,0,1-1.39-.65c-.47-.21-.91-.44-1.34-.68s-.94-.49-1.21-.61c-.07.06.11.21.55.47A16.37,16.37,0,0,0,681,108l1.23.51q.6.3,1.08.51a2,2,0,0,1,.64.39l-1.29-.43-.4-.12c-.29-.11-.59-.21-.89-.3A18,18,0,0,1,679,107.5c-.16,0-.23,0-.2.07a.81.81,0,0,0,.24.19,12.89,12.89,0,0,0,1.39.64c.38.17.75.32,1.1.44s.69.26.93.36.33.18.29.2a7.8,7.8,0,0,1-.93-.31.48.48,0,0,0-.18-.08l-.34-.16a4.73,4.73,0,0,1-.62-.25c-.58-.24-1.25-.54-2-.9a9,9,0,0,1,.75.53,6.53,6.53,0,0,0,.75.28l-.71-.23a.79.79,0,0,1,.17.23.24.24,0,0,1,0,.18l-.1.16a.32.32,0,0,0-.06.18.38.38,0,0,0,.11.22,2.25,2.25,0,0,0,.34.31c.41.34.84.68,1.28,1a5.7,5.7,0,0,1,1.1.94c.18.23,0,.32-.47.27a5.24,5.24,0,0,1-1.05-.19c-.48-.11-1.06-.28-1.74-.5a13.26,13.26,0,0,1-2.51-1,33.21,33.21,0,0,1-3.39-1.79,26.65,26.65,0,0,0,2.74,2.08c-2.56-1-5-2-7.36-3.08-2.62-1.32-12-7.42-15.07-9.35s-5.88-3.83-8.62-5.74l-.89-.55q-1.21-.86-2.94-2c-1-.7-2.14-1.45-3.41-2.24v0c-.13.21-.26.41-.38.58s-.06,0-.06.07,0,0,0,0,0,0,0-.06H637a.11.11,0,0,0-.1,0c-.18.33-.4.71-.66,1.13s-.59.94-.86,1.39a10.44,10.44,0,0,1-.66,1.08v.1s0,0,0,0,0,0,0,0h-.07s0,0,0,0a.12.12,0,0,1-.06.09.18.18,0,0,1,0,.09.3.3,0,0,1-.08.08c-.27.45-.52.91-.76,1.36s-.47.83-.73,1.22v0l-.12,0a.17.17,0,0,0-.06.09.53.53,0,0,1-.15.15.26.26,0,0,1-.05.14.36.36,0,0,0,0,.09l0,.15a.2.2,0,0,1-.07.13.45.45,0,0,1-.07.14s0,0,0,0,0,0,0,0h0a1,1,0,0,0-.15.19,2.85,2.85,0,0,0-.17.35,1.71,1.71,0,0,1-.23.45,1.35,1.35,0,0,1-.3.4c-.17.24-.33.49-.51.76a1.25,1.25,0,0,0-.15-1.28,1.89,1.89,0,0,0-.55.76,1.72,1.72,0,0,1-.46.71c.14-.27.31-.62.52-1l.58-1.2c.22-.55.07-.86-.45-.92a2.7,2.7,0,0,0-.59.94,3.55,3.55,0,0,1-.41.73h0a.63.63,0,0,1-.24,0c-.22.39-.46.78-.72,1.16-.76,1.3-1.51,2.58-2.27,3.84a2.91,2.91,0,0,1-.86.89l-.79.76c-.21.13-.42.24-.62.34l0-.14.07-.19a3.26,3.26,0,0,0,.15-.32,2.75,2.75,0,0,1-.4.72h-.1v0h0a.11.11,0,0,1-.1,0l.06-.09,0-.09v-.05s0,0,0,0l0-.2a4.67,4.67,0,0,0,.23-.5c0,.06-.05.14-.09.23a.12.12,0,0,0-.06.09l-.13.18a.76.76,0,0,0-.09.23s0,0-.05,0l0,.1v0l0,0v0l0-.19a.76.76,0,0,0,.09-.23l.14-.23v0a1.4,1.4,0,0,0,.14-.22,1.9,1.9,0,0,0,.2-.37,6.17,6.17,0,0,0,.34-.58c-.62.68-.94.83-1,.42a5.15,5.15,0,0,1,.57-2.19.24.24,0,0,0-.06.09c0,.09-.1.21-.18.35a1.91,1.91,0,0,1-.19.31c-.06.07-.11.11-.14.1s-.08-.2,0-.37a3.66,3.66,0,0,1,.54-.83,2.33,2.33,0,0,0,.44-.62c-.09,0-.19,0-.31.17a6.32,6.32,0,0,0-.39.6.15.15,0,0,1-.06.09l-.39.61c-.13.19-.26.29-.38.3a4.35,4.35,0,0,0,.32-.74,6.73,6.73,0,0,1,.57-1.14c0-.1,0-.14-.1-.12a.51.51,0,0,0-.17.2c-.07.1-.14.23-.23.38a.76.76,0,0,1-.09.23l-.24.46c-.07.12-.14.17-.2.16.15-.3.28-.56.4-.78s.26-.46.44-.76a1.5,1.5,0,0,1-.33.24,1,1,0,0,1-.09.28.71.71,0,0,1,.09-.28h-.26a.41.41,0,0,1-.19-.08.43.43,0,0,0-.24-.14.47.47,0,0,0-.32.09,4.09,4.09,0,0,0-.51.26,2.38,2.38,0,0,1-.81.31c-.16,0-.25-.1-.28-.3A3.61,3.61,0,0,1,620.7,98a2.82,2.82,0,0,1,.32-1,13.8,13.8,0,0,1,.69-1.29,10.87,10.87,0,0,0-1.05.91v-.05c.22-1.06.46-2.09.73-3.11a37.75,37.75,0,0,1,3.51-7.15l.15-.37c.83-1.31,2-3.36,3.62-6.14l.71-9.43c1.57,0,3.16-.08,4.77-.16.08-.12.17-.25.26-.4l.25-.11,0-.1s0,0,0,0v-.07l.07-.12s0,0,0,0l.07,0s0,0,0,0c.44-.69.87-1.36,1.3-2,.61-1.22,1.25-2.42,1.89-3.6l.83-1,.28-.55a1.48,1.48,0,0,1,.19-.27,1.91,1.91,0,0,1,.16-.27.46.46,0,0,0,.08-.33c.19-.33.39-.68.61-1,.4-.69.77-1.37,1.11-2.05-.13,0-.27,0-.43,0a13.81,13.81,0,0,1-1.67.15c-.61.06-1.26.12-2,.16s-1.34.11-2,.2c-.38,0-.73,0-1.07,0a3.59,3.59,0,0,1-.47,0,.41.41,0,0,1-.19,0l-.27,0a.16.16,0,0,0,.1,0,.26.26,0,0,0,.14,0l.3-.1.55-.15.19-.07.89-.24a1.8,1.8,0,0,0-.39.08l-.89.24a4.13,4.13,0,0,0-.63.14,3.41,3.41,0,0,0-.59.15l-.64-.11.45-.12c.36-.14.75-.27,1.15-.4l.29-.05c.46-.15.92-.29,1.38-.4l-.44.12a1.8,1.8,0,0,0-.39.08c-.3.08-.61.16-.94.23l-.49.12a2.55,2.55,0,0,0-.44.12,8.39,8.39,0,0,0-.8.26h0l.7-.28a.48.48,0,0,0,.16-.07l.24-.06a.48.48,0,0,0,.16-.07.31.31,0,0,1,.19,0l0,0,.83-.21a.23.23,0,0,1,.11,0c.22-.06.47-.12.73-.17.59-.13,1.16-.26,1.71-.4s1.11-.25,1.57-.37c-.71.11-1.28.17-1.73.2a5,5,0,0,1-.93,0c-.4-.07-.38-.25,0-.54a33,33,0,0,1,6.21-2.25.14.14,0,0,1-.1,0l-1.81.43-.75.11q-.31,0-.3,0c.06-.19.36-.35.88-.49s1.13-.27,1.81-.38c.38,0,.75-.09,1.1-.16l.87-.1a1,1,0,0,0,.34-.09.09.09,0,0,0,.06-.08l.13-.18c-.61.09-1.34.23-2.19.41s-1.62.33-2.33.44a3.47,3.47,0,0,1-1.43.1c.73-.2,1.47-.42,2.23-.65a28,28,0,0,1,3.83-.93c.21-.16.24-.25.09-.26a3.72,3.72,0,0,0-.82.11c-.39.08-.81.18-1.27.3a3.31,3.31,0,0,0-.64.14l-1.59.39c-.44.11-.65.11-.64,0,.85-.18,1.59-.35,2.23-.5s1.33-.32,2.08-.48l.73-.18a5.32,5.32,0,0,1-1.15,0c-.22,0-.36-.11-.4-.22a.91.91,0,0,1-.09-.31.49.49,0,0,0,0-.23.32.32,0,0,0-.23-.19,2.66,2.66,0,0,0-.59-.08,9.22,9.22,0,0,0-1.39-.14,11.37,11.37,0,0,1-2.05-.36c-.28-.15-.2-.38.26-.68a15.83,15.83,0,0,1,3-1.23,6.26,6.26,0,0,1,1.15-.45l.79-.21a1,1,0,0,1,.35-.09.13.13,0,0,1,.1,0,.35.35,0,0,1,.15-.07,1.18,1.18,0,0,0,.3-.1.62.62,0,0,1,.24,0l.79-.26c.32,0,.65-.1,1-.17a.35.35,0,0,1,.15,0c.49-.11,1-.21,1.5-.28a.15.15,0,0,1,.07-.09.12.12,0,0,1,.06-.09l-.09,0h-.09a.41.41,0,0,1-.19,0c-.25,0-.52,0-.8,0l-1.09.06-.19,0-.33,0-.29.05a.71.71,0,0,0-.29,0l.56-.2.6-.25,1.15-.39,1.2-.39a5.33,5.33,0,0,1,.74-.22.3.3,0,0,0,.07-.14l.13-.17A5.35,5.35,0,0,1,651,44.09q.48-.31,1-.72a5.63,5.63,0,0,1,1-.33,1,1,0,0,0-.19.32,2.44,2.44,0,0,0-.32.49,3.45,3.45,0,0,1,.66-.83,1.8,1.8,0,0,1,.39-.08l-.38.53c-.13.24-.27.47-.4.68l.49-.66c.16-.21.31-.4.43-.58h.05a9.19,9.19,0,0,1-1,1.42,2,2,0,0,1-.24.3.11.11,0,0,0,.1,0c.26,0,.54-.12.83-.2l.49-.11c.23-.06.44-.12.64-.19.42-.06.86-.13,1.31-.22a5.79,5.79,0,0,0,.68-.13c.22,0,.47-.07.73-.12a2.93,2.93,0,0,0,.48-.07l1-.12H659l.2-.07a.35.35,0,0,0,.23,0,.41.41,0,0,0,.19,0l.81-.06c1-.06,2-.11,3.13-.15s2.22,0,3.36.09,2.33.13,3.53.27,2.38.4,3.59.68l.45.12.09,0,.36.06a.36.36,0,0,0,.18.08,3.28,3.28,0,0,1,.58.16l.18,0a.73.73,0,0,0,.22.09l.14,0,.09,0,.27.09q.48.14,1,.33l.35.16a.44.44,0,0,1,.17.08l.09,0,.39.16.31.16.34.16a3.06,3.06,0,0,1,.6.35l.09,0a9.93,9.93,0,0,1,1.22.81,1.92,1.92,0,0,1,.46.33.34.34,0,0,0,.12.12.09.09,0,0,1,.08.06c.17.13.32.26.45.38s.06,0,.09.06a6.75,6.75,0,0,1,.84.85,5.35,5.35,0,0,1,.43.47l.35.41s0,.05,0,.06l.26.39.22.34s0,0,0,0c.1.16.19.32.29.5l.2.44.08.11q.06.16.09.27l0,0,.07.11s0,.05,0,.06v0a.48.48,0,0,0,.07.16c.08.25.17.51.28.8s.2.65.29,1a1.85,1.85,0,0,0,.07.41.33.33,0,0,1,0,.16.15.15,0,0,1,0,.15,4.11,4.11,0,0,1,.11.47l0,.09a.13.13,0,0,1,0,.11.22.22,0,0,0,0,.1v.1a3.09,3.09,0,0,0,0,.35c0,.3,0,.59,0,.86l0,.14c0,.23,0,.48,0,.74l-.05.29,0,.14,0,.2,0,.24a12.61,12.61,0,0,1-1.3,3.7l-.27.46a3.94,3.94,0,0,1-.31.44,7.8,7.8,0,0,1-.46.71,2.09,2.09,0,0,1-.13.23l-.61.79-.11.08c-.12.15-.24.29-.35.44s-.22.26-.3.34v0a30.77,30.77,0,0,1-2.36,2.23A43.89,43.89,0,0,1,674.58,72a61.3,61.3,0,0,1-5.94,3,82.55,82.55,0,0,1-13.25,4.6c-2.07.53-4.15,1-6.26,1.39a5,5,0,0,0,.51.34l.12.1a.08.08,0,0,0,.1,0h.07s0,0,.06.06a.48.48,0,0,1,.1.09l0,.09a.15.15,0,0,0,0,.07.1.1,0,0,0,.07,0,.16.16,0,0,1,.08.06.2.2,0,0,0,.13.08,1,1,0,0,0,.27.19.52.52,0,0,1,.22.19c1.15.8,2.28,1.56,3.41,2.29,1,.64,8.54,5.78,9.51,6.48a.13.13,0,0,1,.08.07l.22.21.23.19.42.29A1,1,0,0,0,665,92l.15.08.15.1.31.1s0,.06.07.09a.62.62,0,0,1,.17.11,1.38,1.38,0,0,1,.24.14.45.45,0,0,0,.15.07l0,.06-.06,0v0l.55.37.85.52a11.32,11.32,0,0,1,1.05.68l1,.67a19.94,19.94,0,0,0,2,1.34,3.81,3.81,0,0,0-2.56-.65,12,12,0,0,0,2,1.4,10.17,10.17,0,0,1,1.68,1.14c-.74-.43-1.67-1-2.77-1.63s-2-1.2-2.63-1.61a3.4,3.4,0,0,0-1.36-.58c-.31,0-.4.16-.28.55a22.9,22.9,0,0,0,2.43,1.66,13.94,13.94,0,0,1,1.7,1s0,0,0,0a2.2,2.2,0,0,1,.12.37c2.08,1.33,4.18,2.61,6.28,3.84a60.94,60.94,0,0,0,6.38,3.26,15.2,15.2,0,0,1,1.43.7c.23.1.48.23.73.37a15.27,15.27,0,0,0,2.89,1.21,1,1,0,0,0,.22.08.33.33,0,0,0,.18.08.3.3,0,0,0,.12.08.72.72,0,0,0,.27.09.87.87,0,0,0,.31.11l.39.16a11,11,0,0,1-1.85-.17h0a18.86,18.86,0,0,0,2,.25,1,1,0,0,1,.27.1.49.49,0,0,1,.22.09,11.15,11.15,0,0,1-2.8-.14l.28,0c.36.06.77.11,1.23.16A12.64,12.64,0,0,0,690.14,108.51ZM629.7,98.1c-.09.18-.15.29-.17.32s0,0,.06-.24Zm2.62-2.33h0S632.31,95.8,632.32,95.77Zm25-40.18-1.1.11a.41.41,0,0,0-.19,0h-.09l0,.14v.1a46.91,46.91,0,0,1-4.33,8.35.68.68,0,0,1-.09.23c0,.06-.08.14-.13.23-.55.8-1.28,2-2.21,3.5q2.53-.56,5-1.17a1.74,1.74,0,0,0,.56,0,.5.5,0,0,0,.2-.07l.11-.08s0-.06.08-.08a.58.58,0,0,1,.22-.06l.15,0,.09,0s0,.06.06.06,0,0,.08,0q2.8-.75,5.37-1.7c1.48-.6,2.94-1.25,4.38-2a45.65,45.65,0,0,0,4-2.28c.79-.39,1.53-.81,2.24-1.25.33-.28.62-.54.89-.79,0,0,.05,0,.05,0a1.49,1.49,0,0,1,.38-.28,1.72,1.72,0,0,1,.28-.25l.05,0a1.38,1.38,0,0,0,.29-.3,1.16,1.16,0,0,0,.2-.37l.06-.08h0v-.2s0,0-.06-.06a.14.14,0,0,0-.12,0v.05a.15.15,0,0,0-.12-.07,3,3,0,0,0-.57-.25l-.18,0h-.1l-.12-.07a2.71,2.71,0,0,1-.5-.14l-.49-.14-.18,0h0l-.22-.08-1.8-.42c-.64-.11-1.28-.21-1.92-.28-1.3-.13-2.65-.22-4-.26l-2.1-.07a4.71,4.71,0,0,1-.75,0,.91.91,0,0,1-.33,0l-.95,0-1,.08h-.52Zm8.94,37.1h.07s0,0,0,0Zm6.54,5.62c.45.24.72.39.79.44l-.58-.31Zm1-41h0Z"/></g></g></svg>