<?xml version="1.0" encoding="utf-8"?>
<!-- Generator: Adobe Illustrator 22.1.0, SVG Export Plug-In . SVG Version: 6.00 Build 0)  -->
<svg version="1.1" id="Vrstva_1" xmlns="http://www.w3.org/2000/svg" xmlns:xlink="http://www.w3.org/1999/xlink" x="0px" y="0px"
	 viewBox="0 0 1446 100.8" style="enable-background:new 0 0 1446 100.8;" xml:space="preserve">
<style type="text/css">
	.st0{fill:#FFFFFF;}
	.st1{fill:#F4CF3E;}
</style>
<title>site-logo-watermark</title>
<g>
	<path class="st0" d="M51.1,83.2c11.6,0,20-3.5,26.1-7.6L85.6,87c-8.1,7-18.9,10.7-34.4,10.7C19.4,97.8,2,77.4,2,49.6
		C2,21.7,19.4,1.4,51.1,1.4c15.5,0,26.4,3.7,34.4,10.7l-8.3,11.5C71.1,19.5,62.7,16,51.1,16c-21.3,0-31.5,14.3-31.5,33.6
		C19.7,68.9,29.8,83.2,51.1,83.2z"/>
	<path class="st0" d="M171.8,81.2v14.6H97.2v-8.6l50.1-69.3H99.9V3.3h71.9V12l-50.1,69.3H171.8z"/>
	<path class="st0" d="M253.8,41.4V56h-46v25.3h48.8v14.6h-66.2V3.3H256v14.6h-48.2v23.5H253.8z"/>
	<path class="st0" d="M315.6,83.2c11.6,0,20-3.5,26.1-7.6l8.3,11.5c-8.1,7-18.9,10.7-34.4,10.7c-31.7,0-49.1-20.3-49.1-48.2
		c0-27.9,17.4-48.2,49.1-48.2c15.5,0,26.4,3.7,34.4,10.7l-8.3,11.5c-6.1-4.1-14.5-7.6-26.1-7.6c-21.3,0-31.5,14.3-31.5,33.6
		C284.2,68.9,294.3,83.2,315.6,83.2z"/>
	<path class="st0" d="M427.5,3.3h17.4v92.5h-17.4V56h-44v39.9h-17.4V3.3h17.4v38h44V3.3z"/>
	<path class="st1" d="M462.9,95.8V3.3h47.8c29.9,0,35.4,13.9,35.4,25.5c0,6.7-5.2,15.5-14.4,18c14.2,4.8,17.5,14,17.5,21.3
		c0,12.5-7.7,27.7-37.6,27.7H462.9z M510.7,39.5c7,0,9.2-3.7,9.2-7.4c0-3.7-2.2-7.4-9.2-7.4h-20.5v14.7H510.7z M511.6,74.5
		c7.5,0,11.2-2.7,11.2-7.8s-3.6-7.8-11.2-7.8h-21.5v15.6H511.6z"/>
	<path class="st1" d="M580.5,95.8h-28.8l37.9-92.5h27.6l37.9,92.5h-28.8l-5.8-15h-34.2L580.5,95.8z M594.4,60.1h18.1l-9-23.3
		L594.4,60.1z"/>
	<path class="st1" d="M662.2,3.3h31.9l30.6,52v-52H752v92.5h-31.9l-30.6-52v52h-27.3V3.3z"/>
	<path class="st1" d="M856.9,12.8l-13,17.3c-8.4-4.5-16.9-6.6-27.8-6.6c-16.7,0-23.2,13-23.2,26.1c0,13.1,6.4,26.1,23.2,26.1
		c6.4,0,11.2-1,14.8-2.8V59.8h-16.1V39.7h40.4v47.8c-12.4,9-24.8,10.9-39.1,10.9c-34.6,0-50.7-21.8-50.7-48.8
		c0-27,16.1-48.8,50.7-48.8C835.1,0.8,846.9,5.5,856.9,12.8z"/>
	<path class="st1" d="M871.6,95.8V3.3h47.8c29.9,0,35.4,13.9,35.4,25.5c0,6.7-5.2,15.5-14.4,18c14.2,4.8,17.5,14,17.5,21.3
		c0,12.5-7.7,27.7-37.6,27.7H871.6z M919.4,39.5c7,0,9.2-3.7,9.2-7.4c0-3.7-2.2-7.4-9.2-7.4h-20.5v14.7H919.4z M920.4,74.5
		c7.5,0,11.2-2.7,11.2-7.8s-3.6-7.8-11.2-7.8h-21.5v15.6H920.4z"/>
	<path class="st1" d="M968.3,53.2V3.3h27.3v49.8c0,14,2.3,22.5,16.6,22.5c14.3,0,16.6-8.5,16.6-22.5V3.3h27.3v49.8
		c0,27.4-12.1,45.2-43.9,45.2C980.5,98.4,968.3,80.6,968.3,53.2z"/>
	<path class="st1" d="M1131.4,28.5c-7.2-3.1-15.5-5-25-5c-6,0-11.2,1.7-11.2,6.6c0,5,5.3,6.4,13.5,8.1c23.5,4.9,37.3,12.1,37.3,30.4
		c0,22.1-18.6,29.8-41.6,29.8c-15.7,0-29.3-4.3-39.3-11.9l12.3-18.4c7.7,4.8,16.8,7.6,25.7,7.6c9.2,0,15.4-1.2,15.4-7.1
		c0-4.8-5.8-6.4-15.1-8.3c-24.7-5.2-35.8-15.3-35.8-30.2c0-16.1,10.8-29.3,37.5-29.3c15.8,0,28.2,3,38.6,9.4L1131.4,28.5z"/>
	<path class="st0" d="M1165.3,77.3c5.3,0,9.6,4.3,9.6,9.6c0,5.3-4.3,9.5-9.6,9.5c-5.3,0-9.5-4.3-9.5-9.5
		C1155.8,81.6,1160,77.3,1165.3,77.3z"/>
	<path class="st0" d="M1220.8,83.6c7,0,13.2-1.9,19-6.4l8.3,10.4c-7.2,7.2-16.6,9.5-27.2,9.5c-22.4,0-36.8-14.8-36.8-34.2
		s14.3-34.2,36.8-34.2c10.6,0,20,2.3,27.2,9.5l-8.4,10.3c-5.7-4.5-11.9-6.3-18.8-6.3c-14.1,0-20.2,9.9-20.2,20.8
		S1206.7,83.6,1220.8,83.6z"/>
	<path class="st0" d="M1293.1,97.1c-22.4,0-36.8-14.8-36.8-34.2s14.3-34.2,36.8-34.2c22.4,0,36.8,14.6,36.8,34.2
		C1329.9,82.5,1315.5,97.1,1293.1,97.1z M1293.1,42.1c-14.1,0-20.2,9.9-20.2,20.8s6.1,20.8,20.2,20.8s20.2-9.9,20.2-20.8
		S1307.3,42.1,1293.1,42.1z"/>
	<path class="st0" d="M1344.1,29.9h16.2V36c2.2-3.9,8.8-7.4,15.3-7.4c10.4,0,17.7,3.6,21.6,9.1c3.5-4.7,11.3-9.1,20.3-9.1
		c15.8,0,26.6,8.5,26.6,28.8v38.4h-16.2V57.4c0-9.1-3.9-15.3-12.8-15.3s-12.8,6.2-12.8,15.3v38.4H1386V57.4
		c0-9.1-3.9-15.3-12.8-15.3c-9,0-12.8,6.2-12.8,15.3v38.4h-16.2V29.9z"/>
</g>
</svg>
