<svg xmlns="http://www.w3.org/2000/svg" width="204" height="48" fill-rule="evenodd" clip-rule="evenodd" image-rendering="optimizeQuality" shape-rendering="geometricPrecision" text-rendering="geometricPrecision" viewBox="0 0 10 2.33"><defs><style>.fil1{fill:#69f;fill-rule:nonzero}</style></defs><g id="Layer_x0020_1"><path d="M9.2.78c.53 0 .8.25.8.76s-.27.76-.8.76h-.67V.78h.67zM9 1.1v.86l.66-.44L9 1.11zM6.91.78h1.32v.36H7.4v.21h.71v.36H7.4v.23h.85v.36H6.91zm-.81 0h.61l-.55.63.56.89h-.58l-.32-.55-.27.21v.34h-.49V.78h.49v.65zM4.06.75c.23 0 .4.06.54.17.13.11.2.27.2.48h-.47a.3.3 0 00-.07-.2.25.25 0 00-.2-.08c-.1 0-.17.03-.22.09a.43.43 0 00-.07.26v.14c0 .11.02.2.07.26s.12.1.22.1c.09 0 .16-.03.21-.08a.28.28 0 00.07-.2h.46c0 .2-.07.36-.2.47a.8.8 0 01-.54.17c-.26 0-.46-.07-.6-.2-.13-.13-.2-.33-.2-.59a.9.9 0 01.2-.6.9.9 0 01.6-.2zM3 1.68c0 .2-.06.36-.2.47a.85.85 0 01-.56.17.86.86 0 01-.56-.17c-.13-.1-.2-.26-.2-.47V.76h.5v.9c0 .1.02.16.06.22.05.05.11.07.2.07.09 0 .16-.02.2-.08a.3.3 0 00.07-.2v-.9h.5v.9zm-3-.9h1.24v.36H.49v.27h.64v.35H.49v.54H0z" fill="#fff" fill-rule="nonzero"/><path d="M.79.59L.66.18.52.59H.28L.04.01h.19L.4.45.55.01h.22l.14.44.18-.44h.18l-.24.58z" class="fil1"/><path id="1" d="M1.96.6h-.2L2.1 0h.24l.32.6h-.2L2.4.47h-.38L1.96.6zm.12-.24h.25L2.21.13l-.13.23z" class="fil1"/><path id="2" d="M3.4.59V.15h-.26V.01h.71v.14h-.27v.44z" class="fil1"/><path id="3" d="M5.12.4c0 .07-.01.13-.04.15-.03.03-.09.04-.18.04h-.24c-.12 0-.2-.01-.23-.04S4.38.47 4.38.4V.28c0-.1 0-.16.04-.2.02-.05.08-.08.17-.08h.4c.04.01.08.03.1.07.02.03.03.08.03.14h-.18c0-.02 0-.04-.02-.05L4.86.14h-.19c-.05 0-.09.01-.1.03-.01.02-.02.06-.02.13l.02.12c.02.02.06.03.12.03h.16l.07-.01c.02-.01.03-.03.03-.07h.17v.02z" class="fil1"/><path id="4" d="M6.46.01v.58h-.17V.37h-.41v.22H5.7V.01h.18v.21h.41V.01z" class="fil1"/><path id="5" d="M8.54.59V.14l-.26.45h-.14L7.88.14v.45h-.17V.01H8l.21.38.22-.38h.28v.58z" class="fil1"/><path id="6" d="M9.96.01v.13h-.48v.1h.45v.11h-.45v.11h.48v.13H9.3V.01z" class="fil1"/></g></svg>