<?xml version="1.0" encoding="utf-8"?>
<!-- Generator: Adobe Illustrator 23.0.2, SVG Export Plug-In . SVG Version: 6.00 Build 0)  -->
<svg version="1.1" id="Layer_1" xmlns="http://www.w3.org/2000/svg" xmlns:xlink="http://www.w3.org/1999/xlink" x="0px" y="0px"
	 viewBox="0 0 245.2 62.5" style="enable-background:new 0 0 245.2 62.5;" xml:space="preserve">
<style type="text/css">
	.st0{fill:#FFFFFF;}
</style>
<title>logo-czech-executor-v2</title>
<g>
	<g id="Layer_1-2">
		<path class="st0" d="M60.5,13.6c1,0.2,1.9,0.5,2.8,0.9c0.7,0.4,1.4,0.9,1.9,1.5c0.6,0.7,0.9,1.6,0.8,2.5c-0.2,0.9-0.6,1.7-1.2,2.4
			c-0.8,1-1.9,2.3-3.2,3.9c-1.3,1.5-2.9,3.4-4.7,5.4s-3.7,4.4-5.7,7c1.8,3,3.7,5.9,5.9,8.6c2.6,3.2,5.4,6.1,8.5,8.7V55
			c0,0.2,0,0.3,0,0.5c0,0.2-0.1,0.4-0.1,0.6s0.1,0.3,0.2,0.5s0.3,0.4,0.2,0.5s-0.2,0-0.5-0.2S65,56.7,65,56.7s0,0.2,0.1,0.3
			s0.2,0.3,0.1,0.3c-0.1,0.1-0.3,0.2-0.4,0.2c-0.2,0-0.3,0.1-0.4,0.2c-1.1,0.8-2.5,1.3-3.8,1.6c-1.3,0.3-2.7,0.1-3.9-0.6
			c-2.2-1.5-4.1-3.2-5.8-5.2c-2.1-2.3-4-4.8-5.8-7.3c-1.4,2.3-2.9,4.8-4.3,7.3c-1.4,2.5-2.7,5.3-4,8.2c-1.9,4.4-0.1,0-0.1-0.1
			s-0.1-0.2-0.1-0.4c-0.1,0.1-0.2,0.2-0.2,0.3c-0.1,0.1-0.2,0.3-0.3,0.4l-0.4,0.5c-0.1-0.1-0.1-0.1-0.1-0.2L35,62
			c-0.2,0-0.4-0.1-0.6-0.2c-0.1-0.1-0.2-0.2-0.3-0.2c-0.2,0-0.3,0.1-0.5,0.1c-0.4,0-0.8-0.2-0.9-0.5c-0.3-0.4-0.4-0.9-0.5-1.4
			c-0.1-0.5-0.1-1.1-0.1-1.7c0.7-3.2,1.8-6.3,3.2-9.2c1.5-3.1,3.1-6.2,5-9.3c-1.6-2.5-3-5-4.4-7.3c-1.3-2.4-2.5-4.5-3.5-6.4
			s-1.8-3.4-2.3-4.6c-0.3-0.6-0.6-1.3-0.8-2c0.7-0.8,1.5-1.5,2.3-2.2c0.8-0.6,1.6-1.1,2.4-1.5c0.9-0.5,2-0.7,3-0.8
			c1,0,2.1,0.3,2.8,1c0.9,0.9,1.7,1.9,2.4,3c0.9,1.5,1.7,3.1,2.3,4.6c0.8,1.8,1.7,3.8,2.7,5.9c1.7-2.2,3.3-4.3,4.8-6.2
			c1.6-1.9,3-3.6,4.2-5s2.2-2.5,3-3.3C59.7,14.4,60.1,13.9,60.5,13.6z"/>
		<path class="st0" d="M9.2,10.9c-0.3,0.2-0.7,0.4-1,0.5c-0.7,0.3-1.5,0.5-2.3,0.5c-0.8,0-1.6-0.2-2.3-0.5c-0.7-0.3-1.3-0.7-1.9-1.3
			c-0.5-0.5-1-1.2-1.3-1.9C0.2,7.5,0,6.7,0,5.9c0-0.8,0.2-1.6,0.5-2.3c0.3-0.7,0.7-1.3,1.3-1.9c0.5-0.5,1.2-1,1.9-1.3
			C4.4,0.1,5.1,0,5.9,0c0.8,0,1.6,0.1,2.3,0.5l0.3,0.1v2.2C7.8,2.2,6.9,1.9,5.9,1.9c-1.1,0-2.1,0.4-2.9,1.2c-1.6,1.6-1.6,4.2,0,5.8
			s4.2,1.6,5.8,0C9,8.7,9.1,8.5,9.2,8.4L9.2,10.9z"/>
		<path class="st0" d="M10.3,11.9l6.1-10h-4.8V0h8.1l-6.1,10h5.9v1.9L10.3,11.9z"/>
		<path class="st0" d="M23.8,4.8h4.3v1.7h-4.3v3.7h5.3v1.7H22V0h7.1v1.7h-5.3V4.8z"/>
		<path class="st0" d="M39.5,10.9c-0.3,0.2-0.7,0.4-1,0.5c-0.7,0.3-1.5,0.5-2.3,0.5c-2.4,0-4.5-1.4-5.5-3.6
			c-0.3-0.7-0.5-1.5-0.5-2.3c0-1.6,0.7-3.1,1.8-4.2C33.1,0.6,34.6,0,36.2,0c0.8,0,1.6,0.1,2.3,0.5l0.3,0.1v2.2
			c-0.7-0.6-1.6-0.9-2.6-0.9c-1.1,0-2.1,0.4-2.9,1.2c-1.6,1.6-1.6,4.2,0,5.8s4.2,1.6,5.8,0l0,0c0.1-0.1,0.3-0.3,0.4-0.4V10.9z"/>
		<path class="st0" d="M49.7,11.9h-1.9V6.8h-4.7v5.1h-1.9V0h1.9v5.1h4.7V0h1.9V11.9z"/>
		<path class="st0" d="M242.6,42.3l-0.2-0.2c-0.1-0.2-0.2-0.4-0.2-0.6c0-0.3,0.2-0.5,0.7-0.8c0.2-0.1,0.4-0.2,0.7-0.3
			c0.2,0,0.3,0.1,0.4,0.2c0.1,0.1,0.2,0.2,0.3,0.4l0.3,0.4c0.1,0.3,0.2,0.5,0.3,0.8c0.1,0.4,0.2,0.8,0.2,1.2c0,0.4-0.1,0.8-0.1,1.2
			c-0.3,0.9-0.7,1.7-1.4,2.4c-0.4,0.4-0.8,0.7-1.4,0.8c-0.6,0.2-1.2,0.3-1.8,0.3c-0.6,0-1.2-0.1-1.8-0.3c-0.5-0.2-0.9-0.5-1.3-0.8
			c-0.3-0.3-0.6-0.7-0.9-1.2c-0.4-0.7-0.7-1.6-0.7-2.5c0-0.4,0.1-0.8,0.2-1.2c0.1-0.3,0.2-0.6,0.4-0.9l0.2-0.3
			c0.1-0.2,0.2-0.3,0.2-0.3c0.1-0.2,0.4-0.3,0.6-0.3c0.3,0,0.5,0.1,0.7,0.3c0.4,0.3,0.7,0.6,0.7,0.9c0,0.2-0.1,0.4-0.3,0.6
			c-0.3,0.4-0.4,0.9-0.4,1.4c0,0.6,0.2,1.1,0.6,1.6c0.2,0.3,0.5,0.5,0.8,0.6c0.4,0.2,0.7,0.3,1.1,0.2c0.4,0,0.8-0.1,1.1-0.2
			c0.3-0.1,0.6-0.4,0.8-0.6c0.3-0.5,0.5-1,0.6-1.6c0-0.2,0-0.5-0.1-0.7C242.8,42.6,242.7,42.4,242.6,42.3z"/>
		<path class="st0" d="M235.8,35.3c0-2.5,2.1-4.6,4.6-4.5c0,0,0,0,0,0c1.2,0,2.4,0.4,3.3,1.3c0.9,0.8,1.4,2,1.4,3.2
			c0,1.2-0.5,2.4-1.4,3.2c-0.9,0.9-2,1.3-3.2,1.3c-0.7,0-1.3-0.1-1.9-0.4c-0.6-0.2-1.1-0.6-1.5-1c-0.4-0.4-0.8-0.9-1-1.4
			C235.9,36.4,235.8,35.8,235.8,35.3z M240.5,37.5c0.7,0,1.3-0.2,1.8-0.7c0.9-0.8,0.9-2.2,0.1-3.1c0,0,0,0-0.1-0.1c-1-1-2.6-1-3.6,0
			c-0.4,0.4-0.7,1-0.7,1.6c0,0.6,0.3,1.2,0.7,1.6C239.2,37.3,239.8,37.5,240.5,37.5L240.5,37.5z"/>
		<path class="st0" d="M236.3,20.2c0.1-0.1,0.2-0.1,0.3-0.1h0.4h6.9c0.6,0,0.9,0.2,1,0.5c0.1,0.2,0.1,0.4,0.1,0.6
			c0,0.2,0,0.4-0.1,0.6c0,0.1-0.1,0.2-0.1,0.3c-0.1,0.1-0.1,0.1-0.2,0.2c-0.2,0-0.4,0.1-0.6,0.1h-4.2c0.3,0.2,0.7,0.5,1.2,0.9l1,0.8
			c0.1,0.1,0.2,0.2,0.3,0.2c0.1,0.1,0.2,0.2,0.2,0.3c0.1,0.2,0.1,0.3,0.1,0.5c0,0.2,0,0.4-0.1,0.5c-0.1,0.1-0.2,0.2-0.2,0.3
			l-0.1,0.1l-1.3,1l-1.1,0.8h4.2h0.4c0.1,0,0.2,0.1,0.3,0.1c0.2,0.1,0.3,0.5,0.3,1s-0.1,0.8-0.3,0.9c-0.1,0.1-0.2,0.1-0.3,0.1h-0.4
			H237h-0.4c-0.1,0-0.2-0.1-0.3-0.1c-0.2-0.1-0.3-0.4-0.3-1c0-0.2,0-0.4,0.1-0.6c0-0.1,0.1-0.2,0.2-0.3l0.1-0.1L240,25
			c-1.9-1.4-3.1-2.3-3.7-2.8c-0.2-0.1-0.3-0.5-0.3-1S236.1,20.3,236.3,20.2z"/>
		<circle class="st0" cx="244.1" cy="49.8" r="1.1"/>
		<path class="st0" d="M10.1,37v2.9c0.2,2.3,2.1,4,4.4,3.8c1.8,0.1,3.5-1,4.2-2.7c0.1-0.2,0.1-0.4,0.2-0.6h8.8c0,0.2,0,0.2-0.1,0.6
			c-0.6,5.8-6.3,10.4-13.1,10.4c-7.3,0-13.1-5.2-13.1-11.5v-8.6c0-6.4,5.9-11.5,13.1-11.5s13.1,5.1,13.1,11.5V37H10.1z M10.1,33.2
			h8.8v-1.9c-0.2-2.3-2.1-4-4.4-3.8c-2.3-0.1-4.2,1.6-4.4,3.8L10.1,33.2z"/>
		<path class="st0" d="M76.5,37v2.9c0.2,2.3,2.1,4,4.4,3.8c1.8,0,3.5-1,4.2-2.7c0.1-0.2,0.1-0.4,0.2-0.6H94c0,0.2,0,0.2-0.1,0.6
			c-0.7,5.8-6.3,10.4-13.1,10.4c-7.3,0-13.2-5.2-13.2-11.5v-8.6c0-6.4,5.9-11.5,13.2-11.5S94,24.9,94,31.2V37H76.5z M76.5,33.2h8.8
			v-1.9c-0.3-2.4-2.6-4.1-5-3.8c-2,0.3-3.5,1.8-3.8,3.8V33.2z"/>
		<path class="st0" d="M114.4,39.4h8.8c0,6.4-5.9,11.6-13.1,11.6s-13.2-5.2-13.2-11.6v-8.7c0-6.4,5.9-11.5,13.2-11.5
			s13.2,5.2,13.2,11.5h-8.8c-0.3-2.4-2.5-4.1-4.9-3.8c-2,0.3-3.6,1.8-3.8,3.8v8.7c0.3,2.4,2.5,4.1,4.9,3.8
			C112.5,43,114.1,41.4,114.4,39.4z"/>
		<path class="st0" d="M152.6,20.3V51h-8c-0.2-2.6-0.5-5.1-0.7-7.7c0,4.2-3.9,7.7-8.8,7.7s-8.8-3.4-8.8-7.7v-23h8.8v19.2
			c0.2,2.3,2.1,4,4.4,3.8c1.6,0,3.2-0.8,4-2.3c0.3-0.5,0.4-1,0.4-1.6V20.3H152.6z"/>
		<path class="st0" d="M168.6,27.9v11.5c0.2,2.3,2.1,4,4.4,3.8h4.4V51h-4.4c-1.5,0-3-0.2-4.4-0.7c-5.1-1.6-8.8-5.9-8.8-10.9V27.9
			h-4.4v-7.7h4.4V4.9h8.8v15.4h8.8v7.7H168.6z"/>
		<path class="st0" d="M206.1,31.1v8.6c0,6.4-5.9,11.5-13.1,11.5s-13.1-5.2-13.1-11.5v-8.6c0-6.4,5.9-11.5,13.1-11.5
			S206.1,24.7,206.1,31.1z M197.3,31.1c-0.3-2.4-2.5-4.1-4.9-3.8c-2,0.3-3.6,1.8-3.8,3.8v8.6c0.3,2.4,2.5,4.1,4.9,3.8
			c2-0.3,3.6-1.8,3.8-3.8V31.1z"/>
		<path class="st0" d="M228.3,20.6v7.7c-2-0.7-4.2-0.9-6.3-0.3l-0.2,0.1c-0.9,0.3-3.9,1.4-4.2,3.3c0,0.2,0,0.3,0,0.5V51h-8.8V20.2h8
			c0.2,0.6,0.5,1.3,0.7,1.9c1-0.7,2.1-1.2,3.3-1.5c1.1-0.3,2.2-0.4,3.2-0.4C225.5,20.2,226.9,20.3,228.3,20.6z"/>
	</g>
</g>
</svg>
