<?xml version="1.0" encoding="utf-8"?>
<!-- Generator: Adobe Illustrator 22.1.0, SVG Export Plug-In . SVG Version: 6.00 Build 0)  -->
<svg version="1.1" id="Vrstva_1" xmlns="http://www.w3.org/2000/svg" xmlns:xlink="http://www.w3.org/1999/xlink" x="0px" y="0px"
	 viewBox="0 0 1558.7 100.8" style="enable-background:new 0 0 1558.7 100.8;" xml:space="preserve">
<style type="text/css">
	.st0{fill:#FFFFFF;}
	.st1{fill:#286F93;}
</style>
<g>
	<path class="st0" d="M51,83.2c11.6,0,19.9-3.5,26.1-7.6l8.3,11.5C77.3,94,66.5,97.8,51,97.8c-31.7,0-49-20.3-49-48.1
		C2,21.9,19.4,1.6,51,1.6c15.5,0,26.3,3.7,34.4,10.7l-8.3,11.5C71,19.7,62.6,16.2,51,16.2c-21.3,0-31.4,14.2-31.4,33.5
		S29.7,83.2,51,83.2z"/>
	<path class="st0" d="M171.4,81.3v14.5H97v-8.6l50-69.1H99.7V3.6h71.7v8.6l-50,69.1H171.4z"/>
	<path class="st0" d="M253.2,41.5v14.5h-45.9v25.2h48.7v14.5H190V3.6h65.4v14.5h-48.1v23.4H253.2z"/>
	<path class="st0" d="M314.9,83.2c11.6,0,19.9-3.5,26.1-7.6l8.3,11.5c-8,6.9-18.9,10.7-34.4,10.7c-31.7,0-49-20.3-49-48.1
		c0-27.8,17.4-48.1,49-48.1c15.5,0,26.3,3.7,34.4,10.7L341,23.8c-6.1-4.1-14.5-7.6-26.1-7.6c-21.3,0-31.4,14.2-31.4,33.5
		S293.6,83.2,314.9,83.2z"/>
	<path class="st0" d="M426.5,3.6h17.4v92.3h-17.4V56.1h-43.9v39.8h-17.4V3.6h17.4v38h43.9V3.6z"/>
	<path class="st1" d="M547.4,13l-12.9,17.2c-8.4-4.5-16.9-6.6-27.7-6.6c-16.7,0-23.1,13-23.1,26.1c0,13.1,6.4,26.1,23.1,26.1
		c6.4,0,11.2-1,14.8-2.8V59.9h-16.1V39.8h40.3v47.7c-12.4,8.9-24.7,10.9-39,10.9c-34.6,0-50.6-21.7-50.6-48.7
		c0-27,16-48.7,50.6-48.7C525.6,1,537.4,5.8,547.4,13z"/>
	<path class="st1" d="M581.9,95.8h-28.7L591,3.6h27.5l37.8,92.3h-28.7l-5.8-14.9h-34.1L581.9,95.8z M595.7,60.2h18l-9-23.2
		L595.7,60.2z"/>
	<path class="st1" d="M663.4,3.6h31.8l30.6,51.9V3.6H753v92.3h-31.8l-30.6-51.9v51.9h-27.2V3.6z"/>
	<path class="st1" d="M854.6,13l-12.9,17.2c-8.4-4.5-16.9-6.6-27.7-6.6c-16.7,0-23.1,13-23.1,26.1c0,13.1,6.4,26.1,23.1,26.1
		c6.4,0,11.2-1,14.8-2.8V59.9h-16.1V39.8h40.3v47.7c-12.4,8.9-24.7,10.9-39,10.9c-34.6,0-50.6-21.7-50.6-48.7
		c0-27,16-48.7,50.6-48.7C832.7,1,844.6,5.8,854.6,13z"/>
	<path class="st1" d="M866.2,95.8V3.6h47.7c29.8,0,35.3,13.8,35.3,25.4c0,6.7-5.1,15.4-14.3,18c14.2,4.8,17.5,14,17.5,21.3
		c0,12.5-7.7,27.6-37.5,27.6H866.2z M913.8,39.6c7,0,9.2-3.7,9.2-7.3c0-3.7-2.2-7.3-9.2-7.3h-20.5v14.7H913.8z M914.8,74.5
		c7.5,0,11.1-2.7,11.1-7.8c0-5.1-3.6-7.8-11.1-7.8h-21.4v15.6H914.8z"/>
	<path class="st1" d="M983.5,95.8h-28.7l37.8-92.3h27.5l37.8,92.3h-28.7l-5.8-14.9h-34.1L983.5,95.8z M997.4,60.2h18l-9-23.2
		L997.4,60.2z"/>
	<path class="st1" d="M1065,3.6h31.8l30.6,51.9V3.6h27.2v92.3h-31.8l-30.6-51.9v51.9H1065V3.6z"/>
	<path class="st1" d="M1256.2,13l-12.9,17.2c-8.4-4.5-16.9-6.6-27.7-6.6c-16.7,0-23.1,13-23.1,26.1c0,13.1,6.4,26.1,23.1,26.1
		c6.4,0,11.2-1,14.8-2.8V59.9h-16.1V39.8h40.3v47.7c-12.4,8.9-24.7,10.9-39,10.9c-34.6,0-50.6-21.7-50.6-48.7
		c0-27,16-48.7,50.6-48.7C1234.4,1,1246.2,5.8,1256.2,13z"/>
	<path class="st0" d="M1278,77.4c5.3,0,9.6,4.3,9.6,9.6s-4.3,9.5-9.6,9.5c-5.3,0-9.5-4.2-9.5-9.5S1272.7,77.4,1278,77.4z"/>
	<path class="st0" d="M1333.3,83.7c6.9,0,13.2-1.9,18.9-6.4l8.2,10.4c-7.2,7.1-16.5,9.5-27.2,9.5c-22.4,0-36.7-14.7-36.7-34.2
		c0-19.4,14.3-34.2,36.7-34.2c10.6,0,19.9,2.3,27.2,9.5l-8.4,10.2c-5.7-4.5-11.8-6.2-18.8-6.2c-14.1,0-20.1,9.9-20.1,20.7
		C1313.2,73.8,1319.2,83.7,1333.3,83.7z"/>
	<path class="st0" d="M1405.5,97.1c-22.4,0-36.7-14.7-36.7-34.2c0-19.4,14.3-34.2,36.7-34.2c22.3,0,36.7,14.6,36.7,34.2
		C1442.2,82.5,1427.8,97.1,1405.5,97.1z M1405.5,42.2c-14.1,0-20.1,9.9-20.1,20.7c0,10.8,6,20.7,20.1,20.7s20.1-9.9,20.1-20.7
		C1425.6,52.1,1419.6,42.2,1405.5,42.2z"/>
	<path class="st0" d="M1456.3,30.1h16.1v6c2.2-3.9,8.7-7.3,15.2-7.3c10.4,0,17.6,3.6,21.6,9.1c3.5-4.7,11.3-9.1,20.2-9.1
		c15.8,0,26.5,8.4,26.5,28.7v38.3h-16.1V57.5c0-9.1-3.9-15.3-12.8-15.3c-8.9,0-12.8,6.2-12.8,15.3v38.3h-16.1V57.5
		c0-9.1-3.9-15.3-12.8-15.3c-8.9,0-12.8,6.2-12.8,15.3v38.3h-16.1V30.1z"/>
</g>
</svg>
