<svg width="150" height="30" viewBox="0 0 150 30" xmlns="http://www.w3.org/2000/svg"><defs><linearGradient x1="50%" y1="2.1170236%" x2="50%" y2="99.727271%" id="a"><stop stop-color="#047CFF" offset="0%"/><stop stop-color="#3E91C6" offset="31.3019012%"/><stop stop-color="#C0BB3A" offset="63.5926573%"/><stop stop-color="#FFD300" offset="100%"/></linearGradient><linearGradient x1="50%" y1="2.1170236%" x2="50%" y2="100%" id="b"><stop stop-color="#047CFF" offset=".27862762%"/><stop stop-color="#3E91C6" offset="31.3019012%"/><stop stop-color="#C0BB3A" offset="63.5926573%"/><stop stop-color="#FFD300" offset="100%"/></linearGradient><linearGradient x1="50%" y1="2.1170236%" x2="50%" y2="100%" id="c"><stop stop-color="#047CFF" offset=".27862762%"/><stop stop-color="#3E91C6" offset="31.3019012%"/><stop stop-color="#C0BB3A" offset="63.5926573%"/><stop stop-color="#FFD300" offset="100%"/></linearGradient><linearGradient x1="50%" y1="2.1170236%" x2="50%" y2="100%" id="d"><stop stop-color="#047CFF" offset=".27862762%"/><stop stop-color="#3E91C6" offset="31.3019012%"/><stop stop-color="#C0BB3A" offset="63.5926573%"/><stop stop-color="#FFD300" offset="100%"/></linearGradient></defs><g fill-rule="nonzero" fill="none"><path fill="#FFF" d="m13 18 4-18h11l-.8333333 3.85714286h-6L20.5 6.75h5.6666667l-.8333334 3.8571429h-5.6666666L19 13.9821429h6L24.1666667 18zM25 18l6.88-9.48214286L29.16 0h5.12l1.44 5.78571429L39.56 0H45l-6.56 8.83928571 3.2 8.99999999h-5.28l-1.76-6.1071428-4.16 6.1071428H25zM43 18l4-18h5l-3 13.9821429h6l-.8333333 3.8571428H43zM63 18l3.7894737-18h4.7368421l-1.5789474 7.71428571 1.7368421-2.57142857L75.4736842 0H81l-6.6315789 8.35714286L77.6842105 18h-5.368421l-2.0526316-7.0714286-1.1052632.6428572L67.8947368 18zM79 18l4-18h11l-.8333333 3.85714286h-6L86.5 6.75h5.6666667l-1 3.8571429H85.5l-.6666667 3.375h6L90 18z"/><path d="m92 18 3.8297872-18h4.7872338c2.074468 0 3.670213.48214286 4.787234 1.28571429C106.521277 2.08928571 107 3.375 107 4.98214286c0 1.125-.159574 2.08928571-.478723 2.73214285-.319149.80357143-.797873 1.28571429-1.276596 1.76785715-.478724.48214285-1.117021.80357144-1.595745.96428574L106.840426 18h-5.265958l-2.3936169-6.5892857h-.9574468L96.787234 18H92Zm6.8617021-10.125H99.5c.638298 0 1.276596-.16071429 1.755319-.64285714.478724-.32142857.797872-.96428572.797872-1.92857143 0-.48214286-.159574-.80357143-.319148-1.125-.319149-.32142857-.638298-.48214286-1.276596-.48214286h-.6382981L98.8617021 7.875Z" fill="url(#a)"/><path fill="url(#b)" d="m108 18 4-18h11l-.833333 3.85714286h-6L115.5 6.75h5.666667l-.833334 3.8571429h-5.666666l-.666667 3.375h6L119.166667 18z"/><path d="m120 18 9.228571-18h6.314286L137 18h-4.695238l-.161905-3.375h-5.504762L125.019048 18H120Zm8.419048-7.2321429h3.561904L131.819048 5.625v-2.25c-.32381.80357143-.485715 1.44642857-.809524 2.25l-2.590476 5.1428571Z" fill="url(#c)"/><path fill="url(#d)" d="m138 18 4-18h5l-3 13.9821429h6l-.833333 3.8571428H138z"/><path fill="#FFF" d="M61 18h-5l4-18h5zM4.83333333 18c-1 0-1.83333333-.1565217-2.66666666-.3130435-.83333334-.1565217-1.5-.4695652-2.16666667-.7826087v-4.2260869c.66666667.4695652 1.5.7826087 2.33333333 1.0956521 1 .3130435 1.83333334.4695653 2.5.4695653 1.33333334 0 1.83333334-.4695653 1.83333334-1.4086957 0-.4695652-.16666667-.7826087-.66666667-1.2521739-.33333333-.3130435-.83333333-.7826087-1.5-1.2521739-.83333333-.62608697-1.5-1.40869567-2-2.19130437-.33333333-.78260869-.66666667-1.72173913-.66666667-2.8173913 0-1.09565217.33333334-2.03478261.83333334-2.8173913C3.16666667 1.72173913 4 1.09565217 5 .62608696 6 .15652174 7.16666667 0 8.5 0c1 0 2 .15652174 3 .31304348s1.8333333.46956522 2.5.93913043l-1.6666667 3.6C11.6666667 4.53913043 11.1666667 4.3826087 10.5 4.06956522c-.66666667-.15652174-1.33333333-.31304348-1.83333333-.31304348C8 3.75652174 7.5 3.91304348 7.33333333 4.22608696c-.33333333.31304347-.5.62608695-.5.78260869 0 .31304348.16666667.7826087.5 1.09565218C7.66666667 6.4173913 8.16666667 6.88695652 9 7.51304348c1 .78260869 1.8333333 1.40869565 2.1666667 2.19130435.5.78260867.6666666 1.56521737.6666666 2.66086957 0 1.7217391-.6666666 3.1304348-1.8333333 4.0695652C8.83333333 17.5304348 7 18 4.83333333 18Z"/><g fill="#CCC"><path d="m11.26419753 25.5 1.77901235-3h1.61728395l-3.07283951 4.66666667L10.94074074 30H9.48518519l.64691358-2.83333333L9 22.5h1.61728395zM21.291358 27.66666667C20.9679012 28.5 20.482716 29 19.9975309 29.33333333c-.6469136.33333334-1.2938272.5-1.94074078.5-.80864197 0-1.45555555-.33333333-1.94074074-.83333333-.48518518-.5-.64691358-1.16666667-.64691358-2.16666667 0-.83333333.1617284-1.66666666.48518519-2.5C16.27777778 23.5 16.76296296 23 17.24814815 22.66666667 17.89506173 22.33333333 18.54197531 22 19.1888889 22c.808642 0 1.4555555.16666667 1.9407407.66666667.4851852.5.6469136 1.16666666.6469136 2 0 1.5-.1617284 2.33333333-.4851852 3Zm-3.39629627-3.5C17.57160494 24.5 17.24814815 24.83333333 17.08641975 25.5c-.16172839.5-.32345679 1.16666667-.32345679 1.83333333 0 .5.1617284.83333334.32345679 1.16666667.1617284.33333333.48518519.33333333.97037037.33333333.32345679 0 .80864198-.16666666 1.13209878-.5C19.5123457 28 19.8358025 27.66666667 19.9975309 27c.1617284-.5.3234568-1.16666667.3234568-1.83333333 0-.5-.1617284-.83333334-.3234568-1.16666667-.1617284-.33333333-.4851852-.33333333-.9703704-.33333333-.3234568 0-.80864198.16666666-1.13209877.5ZM30.0246914 22.5l-.9703704 4.83333333c-.1617284.83333334-.4851852 1.66666667-1.1320988 2-.4851852.5-1.2938271.66666667-2.1024691.66666667-.6469136 0-1.2938272-.16666667-1.617284-.5s-.6469135-.83333333-.6469135-1.5v-.66666667l.9703703-4.66666666h1.4555556l-.808642 4.5c0 .33333333-.1617284.5-.1617284.66666666 0 .66666667.3234568.83333334.9703704.83333334.4851852 0 .808642-.16666667.9703704-.33333334.1617283-.33333333.4851851-.66666666.4851851-1.16666666L28.4074074 22.5h1.617284ZM33.0975309 27l-.6469136 2.83333333h-1.4555556l1.4555556-7.5h1.7790123c.808642 0 1.2938272.16666667 1.7790124.5.3234568.33333334.6469136.83333334.6469136 1.5 0 .5-.1617284 1-.4851852 1.33333334C35.8469136 26 35.5234568 26.33333333 35.0382716 26.5l1.2938272 3.16666667h-1.617284l-.9703704-2.83333334h-.6469135V27Zm.3234568-1.16666667h.3234567c.4851852 0 .808642-.16666666.9703704-.33333333.3234568-.16666667.3234568-.5.3234568-.83333333 0-.33333334 0-.5-.1617284-.66666667-.1617284-.16666667-.4851852-.16666667-.808642-.16666667h-.3234568l-.3234567 2ZM45.2271605 29.33333333C44.7419753 29.66666667 44.0950617 30 43.2864198 30c-.808642 0-1.2938272-.16666667-1.7790124-.5v-1.33333333c.6469136.33333333 1.2938272.5 1.7790124.5.3234567 0 .6469135 0 .8086419-.16666667s.3234568-.33333333.3234568-.66666667V27.5c0-.16666667-.1617284-.16666667-.1617284-.33333333-.1617284-.16666667-.3234568-.33333334-.6469136-.5-.4851851-.33333334-.8086419-.66666667-.9703703-1-.1617284-.33333334-.3234568-.66666667-.3234568-1 0-.5.1617284-.83333334.3234568-1.16666667.1617284-.33333333.4851852-.66666667.8086419-.83333333.3234568-.16666667.808642-.33333334 1.2938272-.33333334.6469136 0 1.2938272.16666667 1.9407407.5L46.1975309 24c-.4851852-.33333333-.9703704-.33333333-1.4555556-.33333333-.3234568 0-.4851852 0-.6469136.16666666C43.9333333 24 43.7716049 24.16666667 43.7716049 24.5c0 .16666667 0 .33333333.1617284.5.1617284.16666667.3234568.33333333.808642.66666667.3234568.33333333.6469136.5.9703704.83333333.1617284.33333333.3234568.66666667.3234568 1.16666667C45.8740741 28.5 45.7123457 29 45.2271605 29.33333333ZM51.6962963 30h-4.0432099l1.4555556-7.5h4.0432099l-.3234568 1.33333333h-2.5876544L49.917284 25.5h2.4259259l-.3234568 1.33333333h-2.4259259l-.3234568 2h2.5876543zM59.2975309 30h-1.617284l-.808642-2.83333333L54.9308642 30h-1.617284l2.9111112-3.83333333-1.1320988-3.5h1.6172839l.808642 2.66666666 1.7790124-2.66666666h1.7790123l-2.7493827 3.66666666zM67.8691358 22.5l-.9703704 4.83333333c-.1617284.83333334-.4851852 1.66666667-1.1320987 2-.4851852.5-1.2938272.66666667-2.1024692.66666667-.6469135 0-1.2938271-.16666667-1.6172839-.5C61.7234568 29.16666667 61.4 28.66666667 61.4 28v-.66666667l.9703704-4.66666666h1.4555555l-.8086419 4.5c0 .33333333-.1617284.5-.1617284.66666666 0 .66666667.3234567.83333334.9703703.83333334.4851852 0 .808642-.16666667.9703704-.33333334.1617284-.33333333.4851852-.66666666.4851852-1.16666666L66.2518519 22.5h1.6172839ZM72.7209877 28.16666667h-2.425926L69.4864198 30h-1.617284l3.7197531-7.5h1.7790123l.808642 7.5H72.882716l-.1617283-1.83333333Zm0-1.33333334L72.5592593 25v-1.5c-.1617284.5-.3234568 1-.4851852 1.33333333l-.9703704 2h1.617284ZM75.9555556 30l1.4555555-7.5h1.4555556l-1.1320988 6.16666667h2.5876543L79.9987654 30zM90.1876543 24.66666667l-.4851852 1.5-1.6172839 3.66666666h-1.617284l-.1617284-7.5h1.4555556V28c.1617284-.33333333.1617284-.66666667.3234568-1s.1617284-.5.3234568-.66666667l1.7790123-4.16666666h1.2938272l.1617284 4.5V28c.1617284-.5.3234568-1.16666667.6469136-1.83333333l1.6172839-4h1.4555556l-3.2345679 7.5h-1.7790124L90.1876543 26V24.66666667ZM99.4061728 30H95.362963l1.4555555-7.5h4.0432099l-.3234568 1.33333333h-2.5876543L97.6271605 25.5h2.4259259l-.3234568 1.33333333h-2.4259259l-.1617284 1.83333334h2.5876543zM101.6703704 30l1.4555555-7.5h1.4555556l-1.2938272 6.16666667h2.5876543L105.5518519 30zM107.8160494 30l1.4555556-7.5h1.455555l-1.293827 6.16666667h2.587655L111.697531 30zM119.783951 30h-1.617284l-1.779013-5.66666667v.33333334C116.225926 25.33333333 116.225926 26 116.064198 26.5l-.646914 3.5h-1.293827l1.455555-7.5h1.779013l1.617284 5.5c.161728-.83333333.161728-1.33333333.323456-2l.808642-3.5h1.293828l-1.617284 7.5ZM126.414815 30h-4.04321l1.455555-7.5h4.04321l-.323456 1.33333333h-2.587655L124.635802 25.5h2.425926l-.323456 1.33333333h-2.425926l-.323457 2h2.587654zM132.398765 29.33333333C131.91358 29.66666667 131.266667 30 130.458025 30c-.808642 0-1.293827-.16666667-1.779013-.5v-1.33333333c.646914.33333333 1.293828.5 1.779013.5.323456 0 .646913 0 .808642-.16666667.161728-.16666667.323456-.33333333.323456-.66666667V27.5c0-.16666667-.161728-.16666667-.161728-.33333333-.161728-.16666667-.323457-.33333334-.646914-.5-.485185-.33333334-.808641-.66666667-.97037-1-.161728-.33333334-.323457-.66666667-.323457-1 0-.5.161729-.83333334.323457-1.16666667.161729-.33333333.485185-.66666667.808642-.83333333.323457-.16666667.808642-.33333334 1.293827-.33333334.646914 0 1.293827.16666667 1.940741.5L133.369136 24c-.485185-.33333333-.970371-.33333333-1.455556-.33333333-.323457 0-.485185 0-.646913.16666666-.161729.16666667-.323457.33333334-.323457.66666667 0 .16666667 0 .33333333.161728.5.161729.16666667.323457.33333333.808642.66666667.323457.33333333.646914.5.970371.83333333.161728.33333333.323456.66666667.323456 1.16666667C133.045679 28.5 132.883951 29 132.398765 29.33333333ZM138.544444 29.33333333C138.059259 29.66666667 137.412346 30 136.603704 30c-.808642 0-1.293827-.16666667-1.779013-.5v-1.33333333c.646914.33333333 1.293828.5 1.779013.5.323456 0 .646913 0 .808642-.16666667.161728-.16666667.323456-.33333333.323456-.66666667V27.5c0-.16666667-.161728-.16666667-.161728-.33333333-.161728-.16666667-.323457-.33333334-.646914-.5-.485185-.33333334-.808641-.66666667-.97037-1-.161728-.33333334-.323457-.66666667-.323457-1 0-.5.161729-.83333334.323457-1.16666667.161729-.33333333.485185-.66666667.808642-.83333333.323457-.16666667.808642-.33333334 1.293827-.33333334.646914 0 1.293827.16666667 1.940741.5L139.514815 24c-.485185-.33333333-.970371-.33333333-1.455556-.33333333-.323457 0-.485185 0-.646913.16666666-.161729.16666667-.323457.33333334-.323457.66666667 0 .16666667 0 .33333333.161728.5.161729.16666667.323457.33333333.808642.66666667.323457.33333333.646914.5.970371.83333333.161728.33333333.323456.66666667.323456 1.16666667 0 .83333333-.323456 1.33333333-.808642 1.66666666Z"/></g></g></svg>