<svg xmlns:xlink="http://www.w3.org/1999/xlink" class="u-mb--eight desktop:u-block" width="998.9473684210526" height="130" style="width: 239px; height: auto;" viewBox="0 0 146 19" xmlns="http://www.w3.org/2000/svg"><g fill="none" fill-rule="evenodd"><path d="M99.812 18l-3.168-5.52H94.82V18h-3.84V1.2h6.72a5.746 5.746 0 0 1 5.76 5.76c0 2.064-1.248 3.936-3.096 4.872L103.94 18h-4.128zM94.82 4.8v4.32h2.88c1.056 0 1.92-.936 1.92-2.16 0-1.224-.864-2.16-1.92-2.16h-2.88zm15.06 9.504h6.72V18h-10.56V1.2h10.44v3.696h-6.6V7.68h6v3.648h-6v2.976zM129.98 18l-.84-2.64h-6.24l-.84 2.64h-4.2l5.712-16.8h4.896L134.18 18h-4.2zm-5.928-6.24h3.936l-1.968-6.168-1.968 6.168zm15.708 2.544h6V18h-9.84V1.2h3.84v13.104z" fill="#FF5800"></path><path d="M7.32 18.336c-3.528 0-5.784-1.68-6.72-4.152l3.312-1.92c.6 1.392 1.632 2.328 3.528 2.328 1.824 0 2.28-.72 2.28-1.368 0-1.032-.96-1.44-3.48-2.136-2.496-.696-4.944-1.896-4.944-5.112 0-3.24 2.736-5.112 5.64-5.112 2.76 0 4.92 1.32 6.144 3.792L9.84 6.552c-.576-1.2-1.368-1.944-2.904-1.944-1.2 0-1.8.6-1.8 1.272 0 .768.408 1.296 3.024 2.088 2.544.768 5.4 1.656 5.4 5.208 0 3.24-2.592 5.16-6.24 5.16zm12.18-4.032h6.72V18H15.66V1.2H26.1v3.696h-6.6V7.68h6v3.648h-6v2.976zM41.88 18h-4.368l-2.832-4.848L31.848 18H27.48l5.016-8.616L27.72 1.2h4.368l2.592 4.44 2.592-4.44h4.368l-4.776 8.184L41.88 18zm5.82-3.696h6V18h-9.84V1.2h3.84v13.104zM55.68 1.2h3.84V18h-3.84V1.2zM76.284 18h-4.368l-5.376-7.776V18H62.7V1.2h3.84v7.296L71.676 1.2h4.368L70.38 9.384 76.284 18zm5.58-3.696h6.72V18h-10.56V1.2h10.44v3.696h-6.6V7.68h6v3.648h-6v2.976z" fill="#FFFFFF"></path></g></svg>