<svg xmlns="http://www.w3.org/2000/svg" viewBox="0 0 278.76 66.42"><defs><style>.cls-1{fill:#fff;}</style></defs><title>logo-boys-fuck-milfs</title><g id="Layer_2" data-name="Layer 2"><g id="Layer_1-2" data-name="Layer 1"><polygon class="cls-1" points="170.73 34.36 163.15 13.82 157.6 13.82 157.6 52.93 163.75 52.93 163.75 28.82 168.97 44.58 172.38 44.58 177.71 28.54 177.71 52.93 183.86 52.93 183.86 13.82 178.26 13.82 170.73 34.36"/><rect class="cls-1" x="189.07" y="13.82" width="6.15" height="39.11"/><polygon class="cls-1" points="206.59 13.82 200.44 13.82 200.44 52.93 216.86 52.93 216.86 47.38 206.59 47.38 206.59 13.82"/><polygon class="cls-1" points="220.1 52.93 226.25 52.93 226.25 36.01 235.1 36.01 235.1 30.46 226.25 30.46 226.25 19.37 236.52 19.37 236.52 13.82 220.1 13.82 220.1 52.93"/><path class="cls-1" d="M252.83,31.12l-4.61-1.87C245.48,28.16,245,27.17,245,24a5.84,5.84,0,0,1,1-3.85,3.29,3.29,0,0,1,2.64-1.1,3.24,3.24,0,0,1,2.75,1.15c.82,1,.93,2.42.93,4.17h6.15c0-3.74-.71-6.54-2.75-8.51-1.59-1.54-3.9-2.36-7-2.36a9.84,9.84,0,0,0-6.7,2.36c-2.14,1.92-3.19,4.78-3.19,8.29,0,6,1.48,8.18,5.44,9.83l4.67,1.92c3,1.21,3.68,2.25,3.68,6.43,0,2.09-.22,3.41-1,4.34a3.62,3.62,0,0,1-3,1.1,3.72,3.72,0,0,1-2.86-1c-.88-1-1.1-2.31-1.1-4.39H238.5c0,4.12.66,6.54,2.53,8.4,1.65,1.65,4.17,2.58,7.58,2.58s6-1,7.63-2.58c2-1.92,2.53-4.61,2.53-8.62C258.77,35.52,257.5,33,252.83,31.12Z"/><path class="cls-1" d="M277.53,46.52A6.67,6.67,0,0,0,277,44a7.69,7.69,0,0,0-.56-1.06h-2.78a6,6,0,0,1,.49.44,4.48,4.48,0,1,1-6.33,6.33,4.48,4.48,0,0,1-.32-6h-2.41L265,44a6.36,6.36,0,0,0-.51,2.55,6.54,6.54,0,0,0,1.9,4.61A6.45,6.45,0,0,0,271,53a6.52,6.52,0,0,0,6.53-6.53Z"/><path class="cls-1" d="M273.54,28.89a6.51,6.51,0,0,0-2.53-.51,6.67,6.67,0,0,0-2.55.51A6.43,6.43,0,0,0,265,32.35a6.67,6.67,0,0,0-.51,2.55,6.52,6.52,0,0,0,.51,2.53,6.42,6.42,0,0,0,1.39,2.08,6.88,6.88,0,0,0,2.08,1.41,6.67,6.67,0,0,0,2.55.51,6.52,6.52,0,0,0,6.53-6.53,6.67,6.67,0,0,0-.51-2.55,6.88,6.88,0,0,0-1.41-2.08A6.42,6.42,0,0,0,273.54,28.89Zm.63,9.18a4.46,4.46,0,1,1,1.32-3.17A4.46,4.46,0,0,1,274.17,38.07Z"/><polygon class="cls-1" points="277.53 26.07 277.53 24.03 270.6 24.03 276.69 19.93 270.6 15.85 277.53 15.85 277.53 13.79 263.88 13.79 273.03 19.93 263.88 26.07 277.53 26.07"/><path class="cls-1" d="M277.53,52.92a1.23,1.23,0,1,0,0,2.46,1.23,1.23,0,0,0,0-2.46Z"/><path class="cls-1" d="M100.26,56.76a.31.31,0,0,1-.23-.26,1.63,1.63,0,0,0-.3-.79,1.62,1.62,0,0,1-.3-.79l.06-.3A6.68,6.68,0,0,0,99,54a2.11,2.11,0,0,1-.39-.73c.26,0,.38-.11.36-.24v-.1a.29.29,0,0,0-.12-.18c-.39.05-.58-.07-.59-.36a7,7,0,0,1,.09-1.14.17.17,0,0,1-.22-.17.43.43,0,0,1,0-.2.44.44,0,0,0,0-.2l-.49,0L97.9,50c.17-.22.25-.36.24-.42l0-.19q-.54.37-.64-.4h-.1c0-.26.23-.49.6-.67v-.1a.56.56,0,0,0-.24-.36.56.56,0,0,1-.24-.36v-.1L97.7,47l-.31-.15-.19,0a.58.58,0,0,0,.19-.81c.09-.27.06-.43-.11-.47a.38.38,0,0,1-.29-.35c.35.15.49,0,.44-.35a6,6,0,0,1-.8-3.08,8.71,8.71,0,0,0-.62-3.2,1.66,1.66,0,0,0,0-.84,5.72,5.72,0,0,1-.16-.81l.14-.41-.24-.36.17-.22a9.41,9.41,0,0,0-.14-2.18c-.14-.8-.25-1.52-.34-2.16l0-.29a5.16,5.16,0,0,1,.79-.69,2.16,2.16,0,0,1,.94-.32l.24-.42a5.24,5.24,0,0,0,1.6-.5v-.1l.29,0,0-.19a.44.44,0,0,1,.47-.16.89.89,0,0,0,.58-.08l.33-.44,1.13-.35.25-.33,1.59-.6.35-.34.87-.11a5.92,5.92,0,0,0,1-.57,3.16,3.16,0,0,1,1-.47l-.06-.48a4.28,4.28,0,0,0,1,0,1.26,1.26,0,0,0,.88-.41h.69a.86.86,0,0,1,0-.4.31.31,0,0,1,.26-.23h.1l.14.28a.19.19,0,0,1,.06-.3.88.88,0,0,1,.37-.15l.19,0,.24-.42.31.15.57-.17.12-.6a4.34,4.34,0,0,1,.54,0c.23,0,.37-.06.41-.2l.58-.08c0-.14.11-.29.18-.46a2.32,2.32,0,0,1,.28-.48c.14.11.26.11.34,0a.46.46,0,0,1,.32-.19h.1a.32.32,0,0,1,0-.34c.05-.1.15-.13.28-.09a2.38,2.38,0,0,0,.08-.89,4.48,4.48,0,0,1,0-.88l.22-.52a1.9,1.9,0,0,0-.93,0,3,3,0,0,1-.92.07l-.11-.08h-.1c-.13,0-.21.06-.23.13s-.11,0-.25-.06l-.77.1a4.63,4.63,0,0,0-1.93-.14l-2,.26-1.68.22a4.53,4.53,0,0,0-1.55.5.55.55,0,0,1-.6-.12,1.43,1.43,0,0,1-.66.58,4.11,4.11,0,0,0-.77.49L102,20.2l-.54.37-.11-.08-.47.16a4.62,4.62,0,0,1-.6.67c.09-.27,0-.4-.15-.37l-.19,0c.14.11.14.18,0,.2l-.43.06-.21.62-.62-.21a1.53,1.53,0,0,1-.6.62l-.82.45c.09-.34,0-.49-.26-.46a.17.17,0,0,0-.17.22l.3.06a.47.47,0,0,1-.54.36.48.48,0,0,0-.54.37q.33-.43-.17-.57l-.12.6-.46.26L94.91,23l-.08-2.83a4.06,4.06,0,0,1,0-.79c0-.4.09-.83.12-1.29a10.61,10.61,0,0,0,0-1.23c0-.36,0-.6,0-.73a4.29,4.29,0,0,0,.23-1.6q.06-1.38.09-1.87l.17-.22-.05-.38a.17.17,0,0,1,.17-.22h.1a1.61,1.61,0,0,0,1-.47,1.62,1.62,0,0,1,1-.47l.29,0a3.93,3.93,0,0,1,.62-.47l1.13-.74A6.79,6.79,0,0,1,100.8,9a4.1,4.1,0,0,1,.75-.25q.72-.48.92-.42a1.52,1.52,0,0,0,.85-.21l.25-.33a1.35,1.35,0,0,0,.92-.42l.19,0,.25-.33.22.17.35-.34a.32.32,0,0,0,.34,0,.18.18,0,0,0,.07-.13c.05.08.14.07.25-.06s.28-.32.34-.39l.33.25.25-.33.58-.08a1.21,1.21,0,0,1,.49-.36,2.11,2.11,0,0,1,.52-.17c-.17-.3-.17-.5,0-.59a7,7,0,0,1,.75-.29l.11.08c0-.26.21-.42.53-.46l.29,0a2.93,2.93,0,0,1,0-.88L111,3a.65.65,0,0,1-.18-.61.92.92,0,0,0-.19-.71l-.08-.58a1.88,1.88,0,0,1-.57-.61l-.35.34-.9-.17.25-.33c-.15-.11-.25-.16-.31-.15s-.2.06-.23.13-.1.11-.23.13L108.12,0l-.19,0a1.57,1.57,0,0,0-.65.28,3.84,3.84,0,0,0-.64-.06A1.48,1.48,0,0,1,106,.09l-.26.23-1.83.24a2.65,2.65,0,0,0-1.68.61L102,1,99.1,2.17l-.17.22-.58.08-.17.22q-.39.05-.44.35l-.51-.13-.17.22-.91.51a1.54,1.54,0,0,1-.55-.47,2.64,2.64,0,0,0-.45-.48l-.6-.12-.34-.35a4.27,4.27,0,0,1-1.42-.4l-.38.05-.17.22-.7-.1a1.87,1.87,0,0,1-.91.51.65.65,0,0,1-.51-.13q-.22-.17-.77.1a1.18,1.18,0,0,0,0,.58,1.21,1.21,0,0,1,0,.58l-.58.08.12.87a1.87,1.87,0,0,0-.36,1.32,5.35,5.35,0,0,1-.06,1.38c-.3.17-.43.32-.38.44s-.28.23-1,.33l-.25.33-.19,0a2.09,2.09,0,0,1-1.1.54l-.06.3-.47.16c-.17.16-.41.35-.71.58a1.15,1.15,0,0,1-.84.31,2.59,2.59,0,0,1-.85,1l-.3-.06.07.53.12.92.12.91.07.53a3.45,3.45,0,0,1,0,1l.11.08a2.37,2.37,0,0,1,.16.3,9.88,9.88,0,0,0-6.78-2.15,9.84,9.84,0,0,0-6.7,2.36C67.44,17.62,66.4,20.48,66.4,24c0,6,1.48,8.18,5.44,9.83l4.67,1.92c3,1.21,3.68,2.25,3.68,6.43,0,2.09-.22,3.41-1,4.34a3.62,3.62,0,0,1-3,1.1,3.72,3.72,0,0,1-2.86-1c-.88-1-1.1-2.31-1.1-4.39H66.07c0,4.12.66,6.54,2.53,8.4,1.65,1.65,4.17,2.58,7.58,2.58s6-1,7.63-2.58c2-1.92,2.53-4.61,2.53-8.62,0-6.59-1.26-9.06-5.93-11L75.79,29.1C73,28,72.55,27,72.55,23.83a5.84,5.84,0,0,1,1-3.85,3.29,3.29,0,0,1,2.64-1.1A3.24,3.24,0,0,1,79,20c.82,1,.93,2.42.93,4.17h6.15a13.33,13.33,0,0,0-1.48-6.91l.13,0a4.72,4.72,0,0,1,1,.31l.65-.28.31.15.06-.3.58-.08.32-.53.56-.17q-.07,1,0,2.75a8.1,8.1,0,0,1-.25,2.58c.14.11.24.48.29,1.09s.08,1,.1,1.11l-.2.71a.5.5,0,0,1,.27.55,1.19,1.19,0,0,0,.09.67,1.63,1.63,0,0,1-.58.76l-.55.27a2.3,2.3,0,0,1-.39.39,2.3,2.3,0,0,0-.39.4.69.69,0,0,0-.28.09.43.43,0,0,1-.19.07c.17.3.18.48,0,.54a.72.72,0,0,0-.39.39.55.55,0,0,1,.38-.1c.13,0,.21.12.24.31s0,.2-.07.21c-.26,0-.41.12-.45.26.2,0,.23.23.08.58A4.75,4.75,0,0,0,86,31.42a9.77,9.77,0,0,0,.47,1.31,1.76,1.76,0,0,1,.54.42l.71.54a1.12,1.12,0,0,0,.86.23l.19,0a2.21,2.21,0,0,1,.49.77,3.78,3.78,0,0,1,.3.79,4.21,4.21,0,0,1,0,.93c0,.3-.05.61-.07.94a1.25,1.25,0,0,1,.24.7,5,5,0,0,0,0,.73l.33.25-.15.31.36.54v.69a2.53,2.53,0,0,1,.2.76,6.31,6.31,0,0,1,.05,1.12,2.68,2.68,0,0,0,.13,1l.44.33A4.8,4.8,0,0,1,91.56,45a4.74,4.74,0,0,0,.36,1.27l-.06.3.38.64-.13.51.21.07q.17.57.46,1.26a3.13,3.13,0,0,1,.27,1.29q.56,1.3.82,2.09c.17.54.33,1,.49,1.5s.24.74.25.8a1.14,1.14,0,0,1,.28.6,2,2,0,0,0,.18.61l.33.25c0,.26.08.38.15.37a1,1,0,0,1,.27.55,1.84,1.84,0,0,0,.17.57,2.62,2.62,0,0,1,.5.81c0,.13.31.35.87.67l.05.38.13-.51c.22.17.33.28.34.35a.4.4,0,0,1-.06.3.62.62,0,0,0,.63.31h.1l0-.4.44-.35v.1c0,.13,0,.18-.13.16s-.14,0-.12.16l0,.19a2.07,2.07,0,0,0,.82-.84c.3-.47.51-.7.64-.72s.12.07.18.22.1.16.15,0v-.1l-.23-.26.22-.52-.17-.56.25-.33A.85.85,0,0,1,100.26,56.76Zm-4.53-3.12c0-.32.13-.51.51-.56C96.29,53.4,96.12,53.59,95.74,53.64Zm2.54,0a.43.43,0,0,1,0-.2.44.44,0,0,0,0-.2h.19C98.52,53.24,98.44,53.38,98.28,53.6Z"/><path class="cls-1" d="M165.53,63.54l.31-.33a2.71,2.71,0,0,0,.31-.41,1.79,1.79,0,0,1-.63.34l-.23.33a5.47,5.47,0,0,1-1.12.12l-1.2,0a1.58,1.58,0,0,1-.53-.38.74.74,0,0,0-.61-.22,1.34,1.34,0,0,1-.58-.54l-.32-.07-.09-.24-.32-.07c-.11-.21-.25-.31-.41-.31h-.16a2.39,2.39,0,0,0-1.08-1.09l-.25-.39a.26.26,0,0,1-.28,0c-.08-.05-.1-.13,0-.24a1.21,1.21,0,0,1-.58-.62,4.43,4.43,0,0,1-.74-.7l-.37-.11a.16.16,0,0,0,0-.12c0-.16-.1-.18-.2-.07v-.32l-.33-.23a4.26,4.26,0,0,0-.54-.59,1,1,0,0,1-.38-.59v-.08l-.33-.15v-.16c-.22-.1-.33-.23-.33-.39v-.16a.2.2,0,0,1-.28-.07,1.86,1.86,0,0,1-.21-.31h-.32c.16-.06.15-.22,0-.48a5.23,5.23,0,0,1-.71-1,5.52,5.52,0,0,0-.71-1l-.26-.47c-.27,0-.4-.15-.41-.47l-.84-1.25a14.66,14.66,0,0,1-.76-1.26l-.16-.07V49l-.16-.15-.19-.8-.08-.08a2.07,2.07,0,0,1-.1-.64,1.85,1.85,0,0,1,.62-.66h.24a2.18,2.18,0,0,1,.54-.54,4.58,4.58,0,0,0,.55-.46l-.1-.48.41.15a.79.79,0,0,1,.38-.73.23.23,0,0,1-.16.08c-.05,0-.08,0-.08-.08V44.5l-.32.09-.07.24a.32.32,0,0,0,.09.24c-.16-.1-.3-.06-.4.13a.46.46,0,0,1-.39.29h-.16a3.53,3.53,0,0,1,1.24-1.4c-.06-.11-.06-.17,0-.2s.08-.1.07-.2v-.16l.63-.42a1.14,1.14,0,0,1,.26-.61,1.16,1.16,0,0,0,.26-.61l.55-.5.15-.33.39-.33.07-.4.23-.33.07-.48.24-.17a2,2,0,0,0,.18-.69,2.5,2.5,0,0,1,.25-.85l.23-.25a.26.26,0,0,1,0-.28c.05-.08.13-.1.24,0v-.32l.15-.25.13-.88.08-.08.22-.65-.09-.32H156a.45.45,0,0,0,0-.32.45.45,0,0,1,0-.32l.16-.16-.17-.32a.28.28,0,0,0,.31-.33l-.17-.4.15-.33q-.24.09-.37-.19a1.21,1.21,0,0,1-.13-.43h-.16a.13.13,0,0,0-.09,0,.29.29,0,0,0,0-.32,1.38,1.38,0,0,0-.3-.51l-.41-.31a1.43,1.43,0,0,0-.3-.63c-.14-.16-.32-.34-.54-.54l-.15.32-.24-.15.23-.25a3.33,3.33,0,0,0-1.29-.28c-.75-.08-1.18-.12-1.28-.12a4.85,4.85,0,0,0-1.24.2A2.79,2.79,0,0,0,149,30h-.32l-.47.49a1.9,1.9,0,0,1-.63.42l-.07.16-.32.17-.31.41-.16.09a2.29,2.29,0,0,1-.62.7,1.25,1.25,0,0,0-.46.78l-.47.5a2.11,2.11,0,0,0-.38.57l.16.15-.33-.15v.24l-.31.25a1.29,1.29,0,0,1-.34.69,1.29,1.29,0,0,0-.34.69c-.21,0-.31.1-.27.29s-.06.28-.27.29a1.74,1.74,0,0,1-.29,1l-.24.17-.15.33-.17-3,0-3a1.2,1.2,0,0,0,.59-.42,6.05,6.05,0,0,0,.42-.57v-.08h.24l.07-.32a1.42,1.42,0,0,1,.39-.41.54.54,0,0,0,.23-.49,1.58,1.58,0,0,1,.55-.42l.07-.32.39-.25.07-.48c.1-.11.31-.37.62-.78a2.17,2.17,0,0,1,.7-.7,1.94,1.94,0,0,1,.84-1.23V25.4h.24l.22-.65.31-.25a2,2,0,0,1,.19-.33,3.13,3.13,0,0,1,.27-.33c-.11-.16-.09-.24.07-.24s.18-.09.07-.24a5.42,5.42,0,0,0,.7-.7,2.88,2.88,0,0,0,.53-.86v-.4a3.39,3.39,0,0,0,.61-.9v-.4l.24-.17.07-.16a.38.38,0,0,1-.05-.44.85.85,0,0,0,.11-.45.47.47,0,0,0-.09-.32l.3-.57a1.45,1.45,0,0,1,0-1,3.5,3.5,0,0,0,.17-1.09l.24-.17v-.08a.66.66,0,0,0-.17-.48,3.85,3.85,0,0,0-.11-.88h.08v-.4l-.34-.63c.26-.06.33-.2.19-.41a.49.49,0,0,1-.06-.56l-.33-.39a.5.5,0,0,0-.21-.39.49.49,0,0,1-.21-.39l-.17-.24h-.32a1.44,1.44,0,0,1-.41-.39.54.54,0,0,0-.49-.23h-.08a.75.75,0,0,0-.57-.46l-.25-.15L148,9.52a5.7,5.7,0,0,1-.72,0,5.63,5.63,0,0,0-.64,0,4.61,4.61,0,0,0-.88.11,2.44,2.44,0,0,1-.88,0l-.31.25-.56,0-.31.33v.16l-.55.18-.07.32-.48.18-.07.32-.55.34-.07.32a.45.45,0,0,0-.43.25.94.94,0,0,1-.43.42.69.69,0,0,1-.14.76,5.64,5.64,0,0,0-.46.61v.08a.86.86,0,0,0,.26.63.88.88,0,0,0-.39.33v.32a1.45,1.45,0,0,0-.45,1.06v.16c-.38-.1-.56.07-.55.5a.9.9,0,0,1-.06.64V18a7.48,7.48,0,0,0-.41,1.13c-.12.43-.23.81-.32,1.13,0,.16,0,.24-.07.24l-.7,4.35a23.12,23.12,0,0,0-.3,4.5l-.16.09.17.4a2.42,2.42,0,0,0-.12,1.2.41.41,0,0,0-.14.49,1.31,1.31,0,0,1,0,.64,3.72,3.72,0,0,1,.22,1.88c0,.12,0,.22,0,.34l-.1-.24a1.86,1.86,0,0,1-.25.88,1.32,1.32,0,0,0-.17.87,4.74,4.74,0,0,0-.71,2c-.32,0-.45.25-.4.62l-.21.27,0,.41-.22.19,0,.16a1.18,1.18,0,0,0-.33.57,4.2,4.2,0,0,1-.24.64,2,2,0,0,0-.57.56,3.49,3.49,0,0,1-.62,1.13,10.63,10.63,0,0,1-.89.92l-.32.61-.24,0-.76,1c-.11,0-.18,0-.19.07s-.08.1-.19.07a1.91,1.91,0,0,1-.25.27,1.92,1.92,0,0,0-.25.28.59.59,0,0,0-.23.07.53.53,0,0,1-.23.07.87.87,0,0,1-.72-.23,3,3,0,0,1-.52-.58l-.25,0a2.48,2.48,0,0,1-.25-.69l-.08-.63A2,2,0,0,0,128,43c0-.16-.07-.41-.14-.75a2,2,0,0,1-.06-.76l-.21-.38.15-.1a1.29,1.29,0,0,0,0-.76,5.14,5.14,0,0,0-.34-.72,7.7,7.7,0,0,0,.07-1,2.88,2.88,0,0,0-.1-1l.19-.43-.12-.31.07-.09a8.62,8.62,0,0,0,0-.92,2.43,2.43,0,0,1,.13-.87l.07-.09-.08-.63.22-.19c-.11,0-.14,0-.09-.11a.39.39,0,0,0,.05-.21,2.86,2.86,0,0,0,.07-.74c0-.38.06-.6.16-.67l0-.32.21-.27c-.07-.1-.07-.15,0-.16a.07.07,0,0,0,.07-.09.88.88,0,0,1,0-.28l.07-.37.16,0c.14-.18.12-.31-.05-.4l.1-.5-.45.22c0,.21,0,.35-.11.42l-.17.59-.32,0c.07-.28.15-.53.23-.76a1.1,1.1,0,0,0,0-.73q.26.13.22-.19l0-.16c.09-.12.22-.3.37-.53a1.28,1.28,0,0,1,.46-.47l.51.17a.14.14,0,0,0,.18.14.32.32,0,0,0,.23-.11,1,1,0,0,0,.48.59.84.84,0,0,1,.41.67v.08l.52.25,0,.24c.26,0,.41,0,.43.19v.08a5.7,5.7,0,0,1,.93-.28,2.19,2.19,0,0,0,.82-.51l.55-.15.29-.28-.16-.63v-.57l-.31-.52h-.08l0-.16-.27-.21.13-.26-.27-.21-.17-.71-.27-.21-.12-.31a.18.18,0,0,1-.19.07c-.08,0-.13-.08-.14-.18l-.44-.27a.29.29,0,0,1-.37,0,.42.42,0,0,0-.38-.11l-.24,0c-.18-.14-.25-.24-.2-.3a2.87,2.87,0,0,1-1.48.11,5.68,5.68,0,0,0-1.58,0c0,.22-.17.35-.43.38a2.6,2.6,0,0,1-.71.42,2.58,2.58,0,0,0-.71.42l-.16,0-.28.36-.23.11c-.08.23-.2.35-.35.37l-.16,0-.23.68-.52.39a1.92,1.92,0,0,0-.23.39.85.85,0,0,0-.06.45,1.94,1.94,0,0,0-.52,1,2.2,2.2,0,0,1-.43,1,3.87,3.87,0,0,1,0,1.57c-.09.53-.16,1-.2,1.52l-.07.09A5.78,5.78,0,0,1,122,35a1.65,1.65,0,0,0,0,.93,7.72,7.72,0,0,0-.22,2.33c0,.88.1,1.67.19,2.36a14.55,14.55,0,0,0,.45,2.2q.29,1,.61,2.18l.25,0,0,.07a.93.93,0,0,1-.26.26l-.05.29a2.06,2.06,0,0,0-.33.44,2.09,2.09,0,0,1-.47,1.13,2.11,2.11,0,0,0-.49.85,5.19,5.19,0,0,0-.46.7q-.33.55-.54.56h-.07a2.32,2.32,0,0,0-.7-1.17s.08,0,.1-.08,0-.14-.11-.14l-.19-.77-.08-.14a.06.06,0,0,1,.07-.07s0,0,0-.14h-.14v-.21h-.07a2.75,2.75,0,0,0-.27-1,1.37,1.37,0,0,1-.12-1l-.24-.41.14-.08-.15-.2v-.14h-.07a14.9,14.9,0,0,0-.16-2.26,9,9,0,0,0-.59-2.24l.13-.29-.16-.21c0-.28,0-.71,0-1.28a3.82,3.82,0,0,0-.18-1.27,2.08,2.08,0,0,0,.1-.72c0-.43,0-.91.06-1.46s0-1.07.05-1.57,0-.89,0-1.17l-.29-.2a3.92,3.92,0,0,0,.09-.86l-.08-.14-.22-.13,0-.28-.41-.33a2,2,0,0,1-.41-.4h-.14l-.3-.27q0,.14-.14.11c-.1,0-.12-.05-.08-.1l-.36,0a2.09,2.09,0,0,0-.36,0,7.07,7.07,0,0,0-1.69.31l-.21.15a.16.16,0,0,1,0,.17.17.17,0,0,1-.17.12l.1.42-.34.23.16.28h-.14l.06,1.13-.13.29q.05,1,.08,2.09a8.6,8.6,0,0,1-.2,2.11l.09.28a3.85,3.85,0,0,0-.17.76c0,.26-.07.54-.1.82.09,0,.12,0,.08.1a.34.34,0,0,0-.06.18l-.22,1.15a2.27,2.27,0,0,0,.06,1.13l-.13.22-.29,2.43c-.09.05-.17.21-.22.47s-.11.56-.16.9-.09.64-.13.93a4.91,4.91,0,0,0,0,.5l-.14.08,0,.57-.21.15a1.8,1.8,0,0,1-.2.94,2.57,2.57,0,0,0-.26,1l-.13.22c-.19-.08-.31,0-.34.3a.81.81,0,0,1-.25.58V50a2.69,2.69,0,0,1-.46.74.58.58,0,0,1-.13-.42.88.88,0,0,0-.06-.42h-.14a.32.32,0,0,1-.09-.35.47.47,0,0,0,0-.36L109,49.1a3.37,3.37,0,0,0-.06-.46,3.65,3.65,0,0,1-.07-.53l-.14-.06-.21-1.27-.15-.06c0-.09,0-.35-.11-.78s-.15-.63-.25-.63q-.2-1.05-.51-2.14a9.78,9.78,0,0,1-.37-2.15l0-.57a3.19,3.19,0,0,1-.34-1l.05-.29a.87.87,0,0,1-.09-.39c0-.16,0-.29,0-.39l-.16-.28a5.93,5.93,0,0,1,0-.68,2.26,2.26,0,0,0-.07-.67c-.09,0-.12,0-.08-.1a.35.35,0,0,0,.06-.18l-.1-.49.05-.36c-.09,0-.12,0-.08-.1a.35.35,0,0,0,.06-.18,1.91,1.91,0,0,0,0-.68,1.31,1.31,0,0,0-.1-.6l-.05-1a.68.68,0,0,0,.19-.51v-.07l-.35.16a1.25,1.25,0,0,1,0,.29.17.17,0,0,1-.17.15h-.07v-.14a3.14,3.14,0,0,1,0-.68,3.14,3.14,0,0,0,0-.68l.21-.08-.09-.28.27-.23a.72.72,0,0,1-.22-.13.89.89,0,0,0-.22-.13l-.32-.62a2.25,2.25,0,0,0-.84-.42,3.7,3.7,0,0,0-1-.05l-.46,0c-.17,0-.27.11-.3.3a1.91,1.91,0,0,0-.85.12.89.89,0,0,1,0,.5.38.38,0,0,0-.26.44v.14c-.1,0-.13,0-.1.11s0,.13-.1.18a1,1,0,0,1,0,.6,1.56,1.56,0,0,0-.07.61c0,.24,0,.64.07,1.2s.08,1.16.13,1.77.11,1.18.16,1.7a4.8,4.8,0,0,0,.16,1c0,.05,0,.23,0,.53s.14.64.23,1,.17.74.24,1.09.1.58.11.67,0,.27.07.53.09.52.15.77.15.59.27,1a5,5,0,0,1,.21,1.2,2.22,2.22,0,0,0,.42,1.18,4.28,4.28,0,0,0,.06.46c0,.21.08.43.14.67s.12.45.18.66.14.34.23.38a5.07,5.07,0,0,1,.18.77c.07.38.15.58.25.62l0,.5.07.07c0,.19.09.28.23.27h.07l-.13.29a.84.84,0,0,1,.4.76l.23.27.09.28a.17.17,0,0,1,.16.28q.23.34.5.68c.18.23.34.45.5.68a1.75,1.75,0,0,1,.7.49.56.56,0,0,0,.69.21.4.4,0,0,0,.29.13,19.35,19.35,0,0,0,2.22-.27,10.37,10.37,0,0,0,2.07-.54l.06-.15.42-.09.33-.52.28-.09a.23.23,0,0,1,0-.25c0-.07.11-.09.21,0a3.45,3.45,0,0,1,.5-1.27,3.42,3.42,0,0,0,.49-1.41L115,50c.08-.24.15-.47.21-.69a2.09,2.09,0,0,1,.29-.62,2.77,2.77,0,0,1,.33.76,1.72,1.72,0,0,0,.32.69l.09.42.22.06.1.49.22.06a1.13,1.13,0,0,0,.53.61l.09.35.22.13.31.48c.24,0,.36.05.36.19l.73.39.28,0a.62.62,0,0,0,.36.16,2,2,0,0,0,.36,0l2.33-.2.27-.3h.14a.57.57,0,0,1,.36.05.69.69,0,0,1,.41-.31,2.13,2.13,0,0,1,.49-.1c-.06-.28,0-.44.15-.47a.81.81,0,0,0,.45-.27l-.29-.05a.42.42,0,0,0-.31.12.7.7,0,0,1-.45.13.25.25,0,0,1,.3.27v.07l-.21.08s-.09,0-.11-.1-.11-.07-.25,0,0,.09,0,.11a.11.11,0,0,1,.08.1.06.06,0,0,1-.07.07l-.15-.13.13-.15a2.77,2.77,0,0,0,.12-.36.46.46,0,0,0,0-.35l.14-.08,0-.28.37.33.06-.15s-.05-.11-.15-.2l.26-.51a.7.7,0,0,1-.09-.32.73.73,0,0,0-.09-.31.31.31,0,0,1,.37.34v.07l0-.43.27-.3v-.21l.2-.15h-.14a.23.23,0,0,0-.2.15c0,.1-.09.15-.13.15v-.07l.47-.52-.13.22c.19,0,.28-.09.27-.23a.42.42,0,0,0-.16-.28l.15.14.13-.22a.18.18,0,0,1,0-.28.41.41,0,0,0,.13-.29v-.07c.19,0,.32-.24.4-.51a5.5,5.5,0,0,1,.91.52,3.36,3.36,0,0,0,1.27.48l.19.22.49,0,.1.15h.32c.16,0,.25,0,.25.09a1.91,1.91,0,0,1,.36,0,1.85,1.85,0,0,0,.36,0c.37,0,.73-.11,1.07-.18s.7-.13,1.07-.18a2.68,2.68,0,0,0,1.23.16,7.36,7.36,0,0,0,.9-.2,2.09,2.09,0,0,0,.8-.35h-.65a1.39,1.39,0,0,1,.4-.34,1.35,1.35,0,0,1,.5-.19l.33-.53.24,0,.21-.27,1-.61.1-.5.86-.84-.17-.06c-.16,0-.27.17-.35.45a2.28,2.28,0,0,0-.64.33,6.3,6.3,0,0,0-.7.5l-.32,0A6.15,6.15,0,0,1,136.6,45a4.44,4.44,0,0,0,.85-1.24.62.62,0,0,1-.06-.44,1.18,1.18,0,0,0,0-.45l0-.16.5-.47v-.57l0,0c.06.39.15.84.26,1.37a9.11,9.11,0,0,1,.21,1.48,2.83,2.83,0,0,1-.05.8l.17.4a5.73,5.73,0,0,0,.34,1.75,5.81,5.81,0,0,1,.34,1.75l-.07.24.09.24.32.07V50a3.74,3.74,0,0,1-.06.72.59.59,0,0,0,.26.63l.15-.33v.32a1.39,1.39,0,0,1-.06.56c.1-.06.17,0,.2.07a1.32,1.32,0,0,1,.05.32l.17.24a.26.26,0,0,0-.07.32.51.51,0,0,0,.25.23,2.09,2.09,0,0,0,.2,1.16,3.94,3.94,0,0,1,.36,1.15,1.4,1.4,0,0,1,.17.39.46.46,0,0,1-.15.33l-.33-.31a.23.23,0,0,0,.07-.16l-.08-.08-.1-.56-.24-.07a2.92,2.92,0,0,1,.23.79,8.09,8.09,0,0,0,.15.8h.08a.38.38,0,0,0,.28-.13c.08-.08.17-.07.28,0q0,1,1.16,1.25c0-.27.05-.38.19-.33a1,1,0,0,0,.36.07v-.08q.17.32.44.11a2,2,0,0,1,.51-.3q.33.31.57.14l.07-.32q0,.48.57.3t.72,0a1.06,1.06,0,0,0,.21-.81l.24-.17-.17-.23h-.16a.23.23,0,0,0,.09.16c.05.05,0,.11-.08.16l-.49-.23.07-.4a1,1,0,0,1-.26-.51,2.79,2.79,0,0,1-.1-.6l.23-.41a.39.39,0,0,0-.09-.2c-.06-.08,0-.12.08-.12l.07-.32-.08-.08.07-.4L145.4,53l-.17-.48a.59.59,0,0,0,.15-.44,1.64,1.64,0,0,1,.06-.52,1,1,0,0,1-.42-.63l.06-.56h-.32l-.25-.31,0-.64-.33-.23.14-.49.26.55-.08.16c.16.16.25.26.25.31v.16l.32.07a1.43,1.43,0,0,1,.29.43,1.31,1.31,0,0,1,.14.52l.41.31.1.56.42.55c.1-.11.17-.09.2.07a2.39,2.39,0,0,1,.05.32,1.23,1.23,0,0,1,.54.5l.38.67.16.08v.32H148l.17.48.16.07a1.55,1.55,0,0,1,.29.39,1.53,1.53,0,0,0,.29.39c-.05.11,0,.17,0,.2s.1.09,0,.2a1.76,1.76,0,0,1,.57.42,5.88,5.88,0,0,1,.42.51v.32l.4.07v.4l.49.39.17.31.33.23.17.32a.26.26,0,0,0,.24.15h.08a1,1,0,0,0,.34.51,5.19,5.19,0,0,0,.49.35,1.69,1.69,0,0,0,.83,1,1.41,1.41,0,0,1,.75.78.86.86,0,0,1,.53.38,1.54,1.54,0,0,0,.45.47l.24.07.82.77h.24a3,3,0,0,0,1.56,1.27,3.89,3.89,0,0,1,1.64,1.11h.32l.17.24a2.13,2.13,0,0,1,.44,0,3.54,3.54,0,0,1,.44.11l.09.16a2.39,2.39,0,0,1,.72.06l.32-.09.48.07.23-.25v.32h.16c.11,0,.21-.11.31-.33l.32-.09.23-.25a4.75,4.75,0,0,0,.71-.22,4.4,4.4,0,0,1,.71-.22c-.06-.26,0-.43.19-.49l.52-.18q-.17-.32,0-.44a.4.4,0,0,0,.19-.37v-.08A1.44,1.44,0,0,1,165.53,63.54Zm-9.6-30v.08c-.05,0-.08-.1-.09-.32Zm-.4-1.54a.14.14,0,0,0,0,.12c0,.11,0,.11-.2,0A.39.39,0,0,0,155.53,32Zm-.59-.67a.56.56,0,0,0,0-.24.47.47,0,0,1,.17.32c0,.05-.05.08-.16.08h-.08A.36.36,0,0,1,154.94,31.34Zm-.55-1c.05,0,.13.05.24.15l-.4.09C154.23,30.4,154.28,30.32,154.38,30.31Zm-1.23-.84c.05,0,.13,0,.24.15a.07.07,0,0,1-.08.08.45.45,0,0,1-.32-.07A.14.14,0,0,1,153.16,29.47Zm-.94.59v.24h-.32v-.24Zm-3.35-17.28a.16.16,0,0,1,0,.32h-.08v-.32Zm-5.63,6.91.16-.17-.16-.07a2.5,2.5,0,0,0,.37-1,6,6,0,0,1,.21-1l.23-.17a.64.64,0,0,1-.05-.4.38.38,0,0,1,.27-.33,1.78,1.78,0,0,1,.17-1.09,1.93,1.93,0,0,0,.33-.85,1.56,1.56,0,0,1,.7-.74l.23-.41.63-.46a1.31,1.31,0,0,1,.71-.3,1.56,1.56,0,0,1,.79-.35H148a2,2,0,0,1,.18.72q0,.32,0,.72a1.43,1.43,0,0,0-.13,1q.1.56-.06.72a1.65,1.65,0,0,0-.3.65l-.23.25v.4l-.15.25-.23.17-.22.65-.54.58v.32l-.62.66c.06.11,0,.19,0,.24s-.09.14,0,.24l-.39.33v.24c-.32.12-.47.31-.46.57v.08c-.11-.1-.19-.1-.24,0a.71.71,0,0,0-.07.32h-.24l-.07.32-.24.09a1.75,1.75,0,0,0-.22.57.38.38,0,0,1-.39.33l0-.88v-.4h.24v-.24l.22-.65a2.31,2.31,0,0,1,.4-1.42,3.54,3.54,0,0,0,.56-1.34l-.08-.08c-.05,0-.08.06-.07.16s0,.16-.07.16a.07.07,0,0,1-.08-.08V18l-.06.56a.34.34,0,0,0-.4.13.69.69,0,0,0-.15.45,4.27,4.27,0,0,1-.25,1c-.17.54-.36.81-.58.82ZM105.85,33.15h.07s.07,0,.08.14v.21Zm1.73,20.93v-.21h.14v.21Zm7.6-5.08a2.59,2.59,0,0,0-.24.83c0,.19,0,.24-.14.15l0,.5h-.21l0,.5-.2.29c.05.09,0,.15,0,.18s-.08.09,0,.18l-.2.23-.06.29-.73.89a.25.25,0,0,1-.27.3,1.17,1.17,0,0,1-.2.29.41.41,0,0,1-.28.16h-.07l-.08-.14a.3.3,0,0,1,.16-.26l.31-.2a.69.69,0,0,1,.26-.44,2.34,2.34,0,0,0,.34-.3l.05-.36.2-.23.11-.64a.54.54,0,0,0,.3-.3,1,1,0,0,0,.08-.43l.07-.07a4.38,4.38,0,0,0,.46-1.34,7.83,7.83,0,0,1,.38-1.41l.24.48A1.68,1.68,0,0,1,115.19,49Zm2.68,3.44v-.21H118v.21Zm7.53-5.11h0Zm12.76-7.14h0Zm-.06,1.35h0a2.39,2.39,0,0,0,.07-.39l0,0v.4Zm5.74,6.58a2.39,2.39,0,0,1-.05-.4c.16,0,.24.13.25.39v.32A.4.4,0,0,1,143.85,48.11Zm.6-12.76a.14.14,0,0,0-.16.17l-.08-.08c0-.05.05-.11.16-.17a.64.64,0,0,1,.24-.09A.14.14,0,0,1,144.45,35.35Zm2.44,6.17h-.24a.88.88,0,0,0-.3.57l-.4.09-.23.25v-.24a1.38,1.38,0,0,1,.06-.56c.27,0,.42-.11.47-.46a5.12,5.12,0,0,1,.14-.77c.11.05.19,0,.24,0a.27.27,0,0,0,0-.28l.23-.17a.18.18,0,0,1,0-.2.18.18,0,0,1,.2-.12l.14-.49.16-.09.14-.56a1.35,1.35,0,0,1,.54-.58v-.16a2,2,0,0,0,.45-.89l.24-.17V36.5c.26-.11.39-.28.38-.49v-.16a4.22,4.22,0,0,1,.35-.33,2,2,0,0,1,.35-.25,1.83,1.83,0,0,1,.5-.78,5.33,5.33,0,0,0,.58-.7l.32-.09a.28.28,0,0,1,.31-.33h.16a.47.47,0,0,1-.23.41A3.66,3.66,0,0,1,151,34a4.44,4.44,0,0,0-.7.74q-.46.57-.92,1.23l-.84,1.23a1.76,1.76,0,0,0-.37.81l-.16.17c0,.16-.11.35-.18.57a1,1,0,0,1-.35.49v.16l-.24.17a.66.66,0,0,1,.05.4.39.39,0,0,1-.27.33l.25.31-.07.48A1.69,1.69,0,0,1,146.88,41.53Zm2.1-2a.73.73,0,0,1-.47.5,1.08,1.08,0,0,1-.45,1,2.07,2.07,0,0,0-.69.82l-.16-.08v-.08a.54.54,0,0,1,.15-.4V41l.37-1,.39-.25v-.4l.24-.09.15-.49c.11,0,.16-.11.15-.33h.16l.22-.57.24-.17a.54.54,0,0,1,.11-.32.29.29,0,0,0,0-.32.9.9,0,0,0,.31-.33,3.9,3.9,0,0,1,.23-.41,1,1,0,0,0,.27-.21l.27-.29.07-.32.24-.17.07-.32h.32a1.35,1.35,0,0,1-.25.85,1.22,1.22,0,0,0-.26.77l.09.24-.3.65-.24.17a1,1,0,0,1-.54.66l-.22.73A.71.71,0,0,0,149,39.54Zm16.47,24.4c-.05,0-.14,0-.24-.15a.07.07,0,0,1,.08-.08.46.46,0,0,1,.32.07A.14.14,0,0,1,165.46,63.94Z"/><path class="cls-1" d="M15.54,32.29a6,6,0,0,0,2-1.37c1.81-1.87,2.25-4,2.25-6.81,0-4.23-.66-6.21-2.47-8-1.59-1.65-4-2.42-7.58-2.42H0V52.78H9.72c3.68,0,6-.82,7.69-2.47,1.87-1.92,2.53-4.12,2.53-8.73,0-3.62-.44-6-2.25-7.85A7.69,7.69,0,0,0,15.54,32.29ZM6.15,19.22H9.23c3.19,0,4.45,1.43,4.45,5.27s-1.26,5.33-4.45,5.33H6.15Zm3,28h-3V35h3c3.29,0,4.67,1.76,4.67,6.1C13.79,45.69,12.41,47.23,9.12,47.23Z"/><path class="cls-1" d="M33.67,13.23a9.28,9.28,0,0,0-7.58,3.35c-2.58,3.13-2.86,7.36-2.86,16.64s.28,13.51,2.86,16.64a9.28,9.28,0,0,0,7.58,3.35,9.28,9.28,0,0,0,7.58-3.35c2.64-3.08,2.86-7.36,2.86-16.64s-.22-13.57-2.86-16.64A9.28,9.28,0,0,0,33.67,13.23Zm3,33a3.25,3.25,0,0,1-3,1.48,3.15,3.15,0,0,1-2.91-1.48c-1.15-1.87-1.37-5.82-1.37-13s.22-11.1,1.37-13a3.15,3.15,0,0,1,2.91-1.48,3.24,3.24,0,0,1,3,1.48c1.15,1.87,1.32,5.82,1.32,13S37.79,44.32,36.63,46.18Z"/><polygon class="cls-1" points="55.08 29.16 51.24 13.67 44.43 13.67 52.01 37.45 52.01 52.77 58.16 52.77 58.16 37.45 65.74 13.67 58.98 13.67 55.08 29.16"/></g></g></svg>