<svg xmlns="http://www.w3.org/2000/svg" width="194" height="40"><g fill="#94004B"><path d="M40.253 9.793c-1.363 0-2.468-1.105-2.468-2.468s1.105-2.468 2.468-2.468h18.349c2.871 0 5.2 2.328 5.2 5.2v11.645c0 2.871-2.329 5.2-5.2 5.2l-18.349-.008c-1.363 0-2.468-1.105-2.468-2.468s1.105-2.469 2.468-2.469h11.262c1.363 0 2.468-1.104 2.468-2.468v-7.227c0-1.363-1.105-2.468-2.468-2.468H40.253zM108.361 9.793c-1.362 0-2.468-1.105-2.468-2.468s1.105-2.468 2.468-2.468h18.35c2.87 0 5.199 2.328 5.199 5.2v11.645c0 2.871-2.329 5.2-5.199 5.2l-18.35-.008c-1.362 0-2.468-1.105-2.468-2.468s1.105-2.469 2.468-2.469h11.263c1.362 0 2.468-1.104 2.468-2.468v-7.227c0-1.363-1.105-2.468-2.468-2.468h-11.263zM35.707 6.818C35.707 3.053 32.654 0 28.889 0c-3.765 0-6.818 3.053-6.818 6.818 0 .675.1 1.326.282 1.941h-3.165c-1.305 0-2.182 1.042-1.958 2.328l2.344 13.485c.224 1.286 1.463 2.329 2.768 2.329h5.15c1.306 0 2.183-1.043 1.959-2.329L27.526 13.5c.44.089.896.137 1.362.137 3.766 0 6.819-3.053 6.819-6.819zm-6.818-3.509c1.938 0 3.51 1.571 3.51 3.509s-1.571 3.509-3.51 3.509c-1.938 0-3.509-1.571-3.509-3.509s1.571-3.509 3.509-3.509zM11.162 4.857h-5.15c-1.305 0-2.554 1.041-2.789 2.325L.039 24.577c-.235 1.284.632 2.325 1.938 2.325h5.15c1.305 0 2.554-1.041 2.789-2.325L13.1 7.182c.235-1.284-.632-2.325-1.938-2.325zM104.025 6.818c0-3.765-3.054-6.818-6.818-6.818-3.766 0-6.818 3.053-6.818 6.818 0 .675.099 1.326.282 1.941h-3.164c-1.306 0-2.183 1.042-1.959 2.328l2.344 13.485c.224 1.286 1.463 2.329 2.768 2.329h5.15c1.306 0 2.182-1.043 1.958-2.329L95.844 13.5c.441.089.896.137 1.363.137 3.765 0 6.818-3.053 6.818-6.819zm-6.818-3.509c1.938 0 3.509 1.571 3.509 3.509s-1.571 3.509-3.509 3.509-3.509-1.571-3.509-3.509 1.571-3.509 3.509-3.509zM79.48 4.857h-5.15c-1.306 0-2.555 1.041-2.789 2.325l-3.185 17.395c-.235 1.284.632 2.325 1.938 2.325h5.15c1.306 0 2.554-1.041 2.789-2.325l3.185-17.395c.235-1.284-.633-2.325-1.938-2.325zM162.774 10.093c1.205-2.892-.293-5.235-3.348-5.235h-21.977c-1.363 0-2.469 1.105-2.469 2.468s1.105 2.468 2.469 2.468h13.208c1.307 0 2.016.836 1.586 1.867l-2.022 4.852c-.334.801-1.058.8-1.31.076l-.573-1.598c-.436-1.231-1.846-2.228-3.151-2.228h-4.547c-1.306 0-2.012.997-1.576 2.228l3.422 9.683c.435 1.231 1.846 2.229 3.15 2.229h4.548c1.305 0 2.011-.998 1.576-2.229l-.78-2.206c-.261-.737.192-1.334 1.234-1.334h3.013c1.638 0 3.183-.571 4.277-3.197l3.27-7.844zM193.583 10.093c1.206-2.892-.293-5.235-3.347-5.235H168.257c-1.362 0-2.468 1.105-2.468 2.468s1.105 2.468 2.468 2.468h13.21c1.305 0 2.016.836 1.585 1.867l-2.023 4.852c-.334.801-1.057.8-1.309.076l-.573-1.598c-.435-1.231-1.846-2.228-3.151-2.228h-4.547c-1.306 0-2.011.997-1.575 2.228l3.421 9.683c.435 1.231 1.846 2.229 3.15 2.229h4.548c1.306 0 2.011-.998 1.575-2.229l-.779-2.206c-.26-.737.192-1.334 1.234-1.334h3.014c1.637 0 3.182-.571 4.277-3.197l3.269-7.844z"/></g><g fill="#333"><path d="M3.292 39.913H2.248v-6.632h1.697c1.823 0 2.828 1.004 2.828 2.535 0 1.521-1.015 2.526-2.828 2.526h-.653v1.571zm.614-2.497c1.277 0 1.794-.605 1.794-1.6 0-1.004-.526-1.609-1.794-1.609h-.614v3.208h.614zM13.482 39.913h-1.053l2.906-6.769h.059l2.916 6.769h-1.102l-.38-.927h-2.964l-.382.927zm1.873-4.476l-1.102 2.623h2.184c.01 0-1.082-2.623-1.082-2.623zM24.277 36.597c0-1.96 1.492-3.403 3.384-3.403 1.229 0 2.077.478 2.652 1.287l-.799.565c-.439-.595-1.004-.907-1.882-.907-1.316 0-2.272 1.054-2.272 2.458 0 1.434.975 2.457 2.312 2.457.858 0 1.491-.322 1.989-.965l.81.556c-.684.907-1.552 1.355-2.839 1.355-1.892 0-3.355-1.442-3.355-3.403zM36.857 36.597c0-1.96 1.521-3.403 3.423-3.403 1.901 0 3.422 1.443 3.422 3.403S42.182 40 40.28 40c-1.902 0-3.423-1.442-3.423-3.403zm5.763 0c0-1.404-.966-2.458-2.34-2.458-1.375 0-2.341 1.054-2.341 2.458 0 1.404.965 2.457 2.341 2.457 1.374 0 2.34-1.053 2.34-2.457zM51.719 39.913h-1.043v-6.632h1.697c1.823 0 2.828 1.004 2.828 2.535 0 1.521-1.014 2.526-2.828 2.526h-.654v1.571zm.614-2.497c1.278 0 1.794-.605 1.794-1.6 0-1.004-.526-1.609-1.794-1.609h-.614v3.208h.614zM61.909 39.913h-1.053l2.906-6.769h.058l2.917 6.769h-1.102l-.38-.927h-2.964l-.382.927zm1.873-4.476L62.68 38.06h2.185c.009 0-1.083-2.623-1.083-2.623zM72.705 36.597c0-1.96 1.492-3.403 3.384-3.403 1.228 0 2.077.478 2.653 1.287l-.8.565c-.439-.595-1.004-.907-1.882-.907-1.316 0-2.272 1.054-2.272 2.458 0 1.434.976 2.457 2.312 2.457.857 0 1.492-.322 1.989-.965l.809.556c-.684.907-1.552 1.355-2.839 1.355-1.892 0-3.354-1.442-3.354-3.403zM85.284 36.597c0-1.96 1.521-3.403 3.422-3.403 1.902 0 3.423 1.443 3.423 3.403S90.608 40 88.707 40c-1.902 0-3.423-1.442-3.423-3.403zm5.763 0c0-1.404-.965-2.458-2.341-2.458-1.375 0-2.34 1.054-2.34 2.458 0 1.404.966 2.457 2.34 2.457 1.376 0 2.341-1.053 2.341-2.457zM99.102 33.145h.05l3.236 3.735 3.199-3.735h.05v6.769h-.985v-4.301l-2.264 2.701h-.048l-2.253-2.701v4.301h-.985v-6.769zM113.466 39.913h-1.052l2.905-6.769h.059l2.916 6.769h-1.102l-.381-.927h-2.966l-.379.927zm1.873-4.476l-1.103 2.623h2.185c.011 0-1.082-2.623-1.082-2.623zM125.071 33.145h.048l3.237 3.735 3.199-3.735h.05v6.769h-.985v-4.301l-2.264 2.701h-.048l-2.253-2.701v4.301h-.984v-6.769zM139.435 39.913h-1.054l2.906-6.769h.059l2.915 6.769h-1.101l-.38-.927h-2.966l-.379.927zm1.873-4.476l-1.103 2.623h2.185c.009 0-1.082-2.623-1.082-2.623zM150.767 39.289c0-.4.321-.683.683-.683.36 0 .683.283.683.683s-.322.682-.683.682c-.362 0-.683-.283-.683-.682zM158.246 36.597c0-1.96 1.491-3.403 3.384-3.403 1.229 0 2.076.478 2.652 1.287l-.8.565c-.438-.595-1.004-.907-1.881-.907-1.317 0-2.273 1.054-2.273 2.458 0 1.434.976 2.457 2.312 2.457.858 0 1.492-.322 1.989-.965l.81.556c-.683.907-1.55 1.355-2.837 1.355-1.893 0-3.356-1.442-3.356-3.403zM170.825 36.597c0-1.96 1.521-3.403 3.423-3.403 1.902 0 3.423 1.443 3.423 3.403S176.15 40 174.248 40c-1.901 0-3.423-1.442-3.423-3.403zm5.764 0c0-1.404-.965-2.458-2.341-2.458-1.374 0-2.34 1.054-2.34 2.458 0 1.404.966 2.457 2.34 2.457 1.376 0 2.341-1.053 2.341-2.457zM184.644 33.145h.049l3.237 3.735 3.199-3.735h.049v6.769h-.985v-4.301l-2.263 2.701h-.049l-2.253-2.701v4.301h-.984v-6.769z"/></g></svg>