<svg xmlns="http://www.w3.org/2000/svg" viewBox="0 0 323.31 58.29" class="svg img-fluid replaced-svg"><defs><style>.cls-1{fill:#fff;}</style></defs><g id="Layer_2" data-name="Layer 2"><g id="Vrstva_1" data-name="Vrstva 1"><path class="cls-1" d="M111.31,17a2.39,2.39,0,0,1-.69-1.74,2.33,2.33,0,0,1,.69-1.75,2.58,2.58,0,0,1,3.47,0,2.33,2.33,0,0,1,.69,1.75,2.39,2.39,0,0,1-.69,1.74,2.53,2.53,0,0,1-3.47,0Zm.09,26.11V22.08a.38.38,0,0,1,.43-.43H114a.38.38,0,0,1,.44.43V43.13a.38.38,0,0,1-.44.43h-2.21A.38.38,0,0,1,111.4,43.13Z"></path><path class="cls-1" d="M136.63,23.42a7.35,7.35,0,0,1,2.05,5.46V43.17a.38.38,0,0,1-.43.43H136a.38.38,0,0,1-.43-.43V29.49a5.44,5.44,0,0,0-1.45-3.9,5,5,0,0,0-3.75-1.52,5.08,5.08,0,0,0-5.33,5.33V43.17a.38.38,0,0,1-.43.43h-2.21a.38.38,0,0,1-.43-.43v-21a.38.38,0,0,1,.43-.43h2.21a.38.38,0,0,1,.43.43V24a.17.17,0,0,0,.07.13s.08,0,.11-.05a6.68,6.68,0,0,1,5.84-2.68A7.56,7.56,0,0,1,136.63,23.42Z"></path><path class="cls-1" d="M27.8,13.88c-7.77,0-18.18,3.29-18.18,3.75-.13,1.19,24.43,5.07,23.51,20-.72,12.18-8.89,14.82-18,14.82S.14,43,.47,37.85a34.59,34.59,0,0,1,1.38-8.43,61.16,61.16,0,0,0-.19,6.45,52.69,52.69,0,0,1,.79-7.18l1-1.18.33.79C2.64,48.64,27.4,40.94,27.6,37.78c.33-5.73-28.25-7.57-27.59-19,.33-5.73,1.05-5.47,1.05-5.47.4-7.18,22.33-8.82,24.5-8.82A6.51,6.51,0,0,1,27.8,13.88Z"></path><path class="cls-1" d="M71.45,35.54c-.07.46-1.25,1.64-1.25,1.64l-.33.8-2.5,1.25,1.84.2A15,15,0,0,0,66.31,41c-1,.92-1.38,1.84-2.17,2.17a126.55,126.55,0,0,0-27.72,9.94c-2,1.05-5.92-7.44-2.76-9.22.46-.2.92-.39,1.44-.59C34.91,32.05,34.84,12.23,33.59,8a13.42,13.42,0,0,1,5.27-.86c6.91-1,22-1,26.27-1a13.51,13.51,0,0,0,0,1.72,6.94,6.94,0,0,0-2,1.44c-.2.2-1.52,1.19-1.52,1.19h1.32l-2.11,1.19-.06.79s-2.64,1.18-3,1.31-7,1.25-12.77,2.24c0,.53-.07,1.05-.07,1.58-.07,1.71-.13,3.29-.26,4.87a149.36,149.36,0,0,1,16.59-1.31,9.41,9.41,0,0,1-.53,1.38l-.26,1.58-2,1.18h.85L57,26.78l.13.66-2.37.66-.39.79S52,30,51.1,30.4c-.39,0-4.08,1.12-7.3,2-.27,3.49-.6,6.19-.86,7.83C51.76,37.12,63.81,34.22,71.45,35.54Z"></path><path class="cls-1" d="M102.2,10.26c-.14,2.24-7.25,8.09-15.61,18.3a68.35,68.35,0,0,0,13.89,18,7.68,7.68,0,0,1-.19,1.51c-.07.2.52.86.39,1.06s-1-.4-1.05-.33.33.59.2.66-.73.26-.93.39c-2.23,1.52-5.59,2.11-7.83.73-3.75-2.7-7.7-7.57-11.33-13a120,120,0,0,0-8.95,15.34,1,1,0,0,1-.2-.52c-.2.19-1,1.12-1,1.12s0-.4-.26-.47-.93-.52-.93-.52a1.37,1.37,0,0,1-1.44-.46,6.45,6.45,0,0,1-.47-3.1c1.58-6,5-12.38,9-18.37-6-10.34-10.34-20.41-10.34-20.94,0,0,3.82-4.21,8-4.21,4.34,0,6,6.32,9.74,15.08,7-8.82,13.57-15.21,14-15.41C96.8,5.12,102.46,6.17,102.2,10.26Z"></path><path class="cls-1" d="M213,17.1c-.05-.17-.11-.25-.2-.23a.32.32,0,0,0-.2.23L206.8,36.66c-.05.26,0,.39.26.39h11.59c.26,0,.35-.13.26-.39Z"></path><path class="cls-1" d="M301.52,50.91,295.85,5a5.67,5.67,0,0,0-5.63-5h-132a5.66,5.66,0,0,0-5.62,5l-5.67,45.93a5.66,5.66,0,0,0,5.62,6.36H295.89a5.66,5.66,0,0,0,5.63-6.36Zm-121-37.36a.29.29,0,0,0-.33.33V50.82a.76.76,0,0,1-.23.55.75.75,0,0,1-.56.23H171.7a.75.75,0,0,1-.56-.23.76.76,0,0,1-.23-.55V13.88a.29.29,0,0,0-.33-.33H159.13a.77.77,0,0,1-.56-.23.75.75,0,0,1-.23-.56V6.31a.79.79,0,0,1,.79-.79h33.18a.73.73,0,0,1,.56.23.77.77,0,0,1,.23.56v6.45a.79.79,0,0,1-.23.56.77.77,0,0,1-.56.23ZM232.48,51.6h-8.37a.81.81,0,0,1-.85-.65l-2-6.46c-.09-.17-.2-.26-.33-.26H204.76a.37.37,0,0,0-.33.26L202.52,51a.82.82,0,0,1-.86.65H193.3a.71.71,0,0,1-.59-.23.69.69,0,0,1-.07-.69L206.86,6.17a.83.83,0,0,1,.86-.65h10.34a.83.83,0,0,1,.85.65l14.22,44.51a.67.67,0,0,1,.07.33C233.2,51.41,233,51.6,232.48,51.6Zm29.16-22.84,12.78,21.92.13.4c0,.35-.24.52-.73.52h-8.29a1.09,1.09,0,0,1-1-.52l-8.56-15c-.13-.27-.26-.27-.4,0l-8.62,15a1.09,1.09,0,0,1-1,.52h-8.29a.75.75,0,0,1-.66-.26q-.2-.26.06-.66l12.78-21.92a.36.36,0,0,0,0-.4L237.08,6.44,237,6c0-.35.24-.52.73-.52H246A1.06,1.06,0,0,1,247,6l8.56,15.08c.14.26.27.26.4,0L264.54,6a1.09,1.09,0,0,1,1-.52h8.29a.75.75,0,0,1,.66.26c.13.18.11.39-.06.66L261.64,28.36A.68.68,0,0,0,261.64,28.76Zm28.18,22.06a.76.76,0,0,1-.23.55.73.73,0,0,1-.56.23h-7.7a.79.79,0,0,1-.79-.78V6.31a.79.79,0,0,1,.79-.79H289a.73.73,0,0,1,.56.23.77.77,0,0,1,.23.56Z"></path><path class="cls-1" d="M322.57,57.73a1.91,1.91,0,0,1-1.42.56,1.94,1.94,0,0,1-1.43-.55,2,2,0,0,1,1.43-3.41,1.92,1.92,0,0,1,1.42.57,1.88,1.88,0,0,1,.57,1.41A1.92,1.92,0,0,1,322.57,57.73Z"></path><path class="cls-1" d="M322.47,48.54a5.54,5.54,0,0,1-2.14,2.28,6.3,6.3,0,0,1-3.19.8h-5.8a6.26,6.26,0,0,1-3.18-.8A5.46,5.46,0,0,1,306,48.54a7.42,7.42,0,0,1-.76-3.44,7.63,7.63,0,0,1,.72-3.4,5.3,5.3,0,0,1,2-2.28,5.61,5.61,0,0,1,3.05-.82q.23,0,.27.3l.18,2.94v0c0,.17-.09.25-.28.25a2.88,2.88,0,0,0-2.13.81,3.32,3.32,0,0,0,0,4.32,2.88,2.88,0,0,0,2.13.81h6.05a2.85,2.85,0,0,0,2.11-.81,3.32,3.32,0,0,0,0-4.32,2.85,2.85,0,0,0-2.11-.81c-.18,0-.28-.1-.28-.3l.13-2.94a.31.31,0,0,1,.07-.21.23.23,0,0,1,.18-.09,5.7,5.7,0,0,1,3.06.82,5.43,5.43,0,0,1,2.06,2.28,7.63,7.63,0,0,1,.73,3.4A7.42,7.42,0,0,1,322.47,48.54Z"></path><path class="cls-1" d="M322.51,33.22a5.78,5.78,0,0,1-2.25,2.32,6.57,6.57,0,0,1-3.32.83h-5.37a6.48,6.48,0,0,1-3.29-.83,5.71,5.71,0,0,1-2.22-2.32,8,8,0,0,1,0-6.92A5.71,5.71,0,0,1,308.28,24a6.39,6.39,0,0,1,3.29-.83h5.37a6.51,6.51,0,0,1,3.33.83,5.59,5.59,0,0,1,2.25,2.32,7.25,7.25,0,0,1,.79,3.47A7.2,7.2,0,0,1,322.51,33.22Zm-3.11-5.68a3.23,3.23,0,0,0-2.34-.86h-5.52a3.26,3.26,0,0,0-2.34.85,3.24,3.24,0,0,0,0,4.46,3.26,3.26,0,0,0,2.34.84h5.52A3.26,3.26,0,0,0,319.4,32a2.94,2.94,0,0,0,.87-2.22A3,3,0,0,0,319.4,27.54Z"></path><path class="cls-1" d="M305.47,8.8V5.86a.31.31,0,0,1,.3-.3h17a.29.29,0,0,1,.22.09.28.28,0,0,1,.08.21V8.8A.28.28,0,0,1,323,9a.29.29,0,0,1-.22.09H311.67c-.07,0-.1,0-.1.05a.15.15,0,0,0,.07.1l4.17,2.66a.39.39,0,0,1,.2.35v1.48a.39.39,0,0,1-.2.35l-4.17,2.66s-.07.07-.06.1.05,0,.11,0h11A.29.29,0,0,1,323,17a.28.28,0,0,1,.08.21v2.94a.28.28,0,0,1-.08.21.29.29,0,0,1-.22.09h-17a.31.31,0,0,1-.3-.3V17.2a.41.41,0,0,1,.2-.35l5.85-3.76q.15-.08,0-.15l-5.85-3.79A.39.39,0,0,1,305.47,8.8Z"></path></g></g></svg>