<svg id="Naked_yoga_life_singleline" data-name="Naked yoga life singleline" xmlns="http://www.w3.org/2000/svg" width="2637.815" height="297.504" viewBox="0 0 2637.815 297.504">
  <defs>
    <style>
      .cls-1 {
        fill: #a8a2a9;
        fill-rule: evenodd;
      }
    </style>
  </defs>
  <path id="naked" class="cls-1" d="M635.976,987.6a29.652,29.652,0,0,0-12.2-9.388q-7.407-3.129-19.3-3.129h-14.6v6.258h1.043a24.6,24.6,0,0,1,9.074,1.461,15,15,0,0,1,5.841,3.963,13.816,13.816,0,0,1,3.025,5.946,31.492,31.492,0,0,1,.835,7.4v112.65h10.43V1009.5l88.452,103.89h9.6V975.079H707.738v95.961Zm201.516-12.517H828.1l-61.54,137.681h10.43l17.2-37.96h55.791l4.824,11.68a48.7,48.7,0,0,0,8.657,14.29,37.232,37.232,0,0,0,10.431,8.13,38.4,38.4,0,0,0,11.265,3.76,67.4,67.4,0,0,0,10.743.94,52.3,52.3,0,0,0,5.32-.32,34.012,34.012,0,0,0,4.694-.73v-5.21a20.777,20.777,0,0,1-12.517-6.26,43.722,43.722,0,0,1-9.179-14.6Zm-14.564,35.881L846,1065.41H798.6Zm128.255,101.8H978.3v-57.99l33.587,35.05a102.7,102.7,0,0,0,14.18,12.72,75.551,75.551,0,0,0,12.94,7.62,48.571,48.571,0,0,0,12.1,3.75,73,73,0,0,0,11.68.94,58.193,58.193,0,0,0,8.87-.63,34.111,34.111,0,0,0,6.36-1.46v-5a25.837,25.837,0,0,1-7.2-2.3,56.714,56.714,0,0,1-8.45-4.9q-4.38-3.03-8.97-6.78a78.344,78.344,0,0,1-8.55-8.14l-48.189-50.06,31.079-38.388a34.793,34.793,0,0,1,16.69-11.787,71.4,71.4,0,0,1,21.49-3.025v-7.3h-14.6a35.532,35.532,0,0,0-11.48,1.773,43,43,0,0,0-9.8,4.8,50.735,50.735,0,0,0-8.45,6.989,90.873,90.873,0,0,0-7.2,8.344L978.3,1041.83V1002.2a74.726,74.726,0,0,0-.939-12.935,20.962,20.962,0,0,0-3.129-8.345,12.122,12.122,0,0,0-5.841-4.485,26.306,26.306,0,0,0-9.075-1.356H934.286v6.258h2.086q9.387,0,12,5.737t2.608,15.126ZM1110.14,975.079v6.258h2.09q9.39,0,12,5.737,2.6,5.74,2.6,15.126v110.56h77.19q8.55,0,12.2-3.96a29.7,29.7,0,0,0,5.95-10.64l6.05-16.48-5.63-2.09q-5.43,13.575-13.46,18.67-8.025,5.115-19.5,5.12h-35.68v-57.37h54.24v-9.39h-54.24V984.466h33.59q12.51,0,19.3,5.842,6.765,5.842,6.78,19.192h6.25V991.768a25.969,25.969,0,0,0-.73-6.154,12.46,12.46,0,0,0-2.71-5.32,14.527,14.527,0,0,0-5.42-3.755,22.988,22.988,0,0,0-8.87-1.46h-92Zm217.58,8.344a48.534,48.534,0,0,1,20.55,4.277,45.578,45.578,0,0,1,15.96,12.2,56.676,56.676,0,0,1,10.33,19.086,86.777,86.777,0,0,1-.11,50.17,56.505,56.505,0,0,1-10.43,19.09,45.159,45.159,0,0,1-15.85,12,47.868,47.868,0,0,1-20.03,4.17h-2.08a79.95,79.95,0,0,1-11.06-.63c-1.67-.27-3.2-0.55-4.59-0.83V984.884q2.085-.206,4.59-0.626a49.4,49.4,0,0,1,5.11-.626q2.82-.205,5.95-0.209h1.66Zm-61.12-8.344v6.258h2.09q9.39,0,11.99,5.737t2.61,15.126v110.56h45.48q19.605,0,34.73-5.11a71.736,71.736,0,0,0,25.35-14.29,59.151,59.151,0,0,0,15.44-22.01,74.477,74.477,0,0,0,5.21-28.26,71.6,71.6,0,0,0-5.42-28.48,55.167,55.167,0,0,0-16.27-21.382q-10.86-8.761-26.92-13.455t-37.55-4.694H1266.6Z" transform="translate(-589.875 -881.406)"/>
  <path id="naked_copy" data-name="naked copy" class="cls-1" d="M2767.49,1103.38V1002.2a84.775,84.775,0,0,0-.83-12.935,20.013,20.013,0,0,0-3.03-8.345,12.124,12.124,0,0,0-5.84-4.485,26.337,26.337,0,0,0-9.08-1.356h-25.03v6.258h2.09q9.39,0,11.99,5.737t2.61,15.126v110.56h99.09v-9.38h-71.97Zm117.03-17.74a85.1,85.1,0,0,0,.84,13.15,19.9,19.9,0,0,0,3.02,8.34,11.47,11.47,0,0,0,5.84,4.38,28.177,28.177,0,0,0,9.08,1.25h25.03v-6.26h-2.08q-9.39,0-12-5.73t-2.61-15.13V975.079h-27.12V1085.64Zm81.36-110.561v6.258h2.08q9.39,0,12,5.737t2.61,15.126v110.56h27.12v-65.71h45.89v-9.39h-45.89V984.466h28.99q12.525,0,19.3,5.737t6.78,19.3h6.26V991.768a26.5,26.5,0,0,0-.73-6.154,12.572,12.572,0,0,0-2.71-5.32,14.569,14.569,0,0,0-5.43-3.755,22.933,22.933,0,0,0-8.86-1.46h-87.41Zm143.73,0v6.258h2.09q9.375,0,11.99,5.737t2.61,15.126v110.56h77.19q8.55,0,12.2-3.96a29.842,29.842,0,0,0,5.94-10.64l6.05-16.48-5.63-2.09q-5.43,13.575-13.45,18.67-8.04,5.115-19.51,5.12h-35.67v-57.37h54.24v-9.39h-54.24V984.466H3187q12.525,0,19.3,5.842t6.78,19.192h6.26V991.768a25.969,25.969,0,0,0-.73-6.154,12.572,12.572,0,0,0-2.71-5.32,14.569,14.569,0,0,0-5.43-3.755,22.933,22.933,0,0,0-8.86-1.46h-92Z" transform="translate(-589.875 -881.406)"/>
  <path id="yoga_copy_3" data-name="yoga copy 3" class="cls-1" d="M1510.17,925.065a136.4,136.4,0,0,0-11.31-15.286,99.382,99.382,0,0,0-14.69-14.094,75.267,75.267,0,0,0-17.87-10.323,54.734,54.734,0,0,0-20.84-3.97h-43.28v7.94a37.942,37.942,0,0,1,13.9,4.765,80.053,80.053,0,0,1,14.09,10.124,131.187,131.187,0,0,1,13.3,13.7q6.345,7.546,11.52,15.087l80.08,119.875V1157.7h51.61V1042.16l90.13-146.5H1651l-77.02,125.059Zm413.19,191.145q-19.86,31.56-55.98,31.56-36.135,0-55.78-31.56t-19.65-89.53q0-57.963,19.65-89.53t55.78-31.564q36.12,0,55.98,31.564t19.85,89.53Q1943.21,1084.655,1923.36,1116.21Zm-177.67-34.74a130.11,130.11,0,0,0,26.6,44.07,125.108,125.108,0,0,0,41.29,29.38q24.03,10.725,53.8,10.72t53.8-10.72a122.87,122.87,0,0,0,41.09-29.38,131.763,131.763,0,0,0,26.4-44.07,165.541,165.541,0,0,0,0-109.58,131.842,131.842,0,0,0-26.4-44.07,122.842,122.842,0,0,0-41.09-29.38q-24.03-10.719-53.8-10.72t-53.8,10.72a125.079,125.079,0,0,0-41.29,29.38,130.188,130.188,0,0,0-26.6,44.07A165.541,165.541,0,0,0,1745.69,1081.47Zm588.59-13.5q0-17.865,5.95-27.79t19.46-9.93v-9.92q-25.41,0-40.5,4.56t-23.22,11.52q-8.145,6.945-10.72,15.48a57.831,57.831,0,0,0-2.58,16.87v70.68a112.3,112.3,0,0,1-23.03,7.54q-12.72,2.775-30.57,2.78a91.2,91.2,0,0,1-34.15-6.35q-15.885-6.36-27.79-21.05t-18.66-39.1q-6.75-24.42-6.75-60.55a199.628,199.628,0,0,1,4.77-43.872,114.527,114.527,0,0,1,15.28-37.519,80.472,80.472,0,0,1,27-26q16.47-9.724,40.3-9.728,34.53,0,54.79,16.477t27.79,53h11.91q0-6.746-.2-14.293a140.841,140.841,0,0,0-1.19-14.888,95.335,95.335,0,0,0-2.98-14.1,36.261,36.261,0,0,0-5.95-11.911q-11.13-12.7-34.94-22.432t-61.14-9.727q-29.79,0-53.8,10.323a122.9,122.9,0,0,0-41.29,28.586,127.12,127.12,0,0,0-26.6,42.879,148.885,148.885,0,0,0-9.33,53.2,145.859,145.859,0,0,0,10.72,56.18,137.417,137.417,0,0,0,75.04,75.63q26.19,11.115,57.17,11.12a235.963,235.963,0,0,0,56.38-6.35,174.65,174.65,0,0,0,48.83-20.25v-71.07ZM2559,895.661h-17.87L2424.01,1157.7h19.85l32.73-72.26h106.18l9.18,22.23c4.76,11.39,23.63,40.07,29.85,46.82a70.907,70.907,0,0,0,19.86,15.48,72.638,72.638,0,0,0,21.43,7.15,127.221,127.221,0,0,0,20.45,1.79,99.265,99.265,0,0,0,10.13-.6,68.291,68.291,0,0,0,8.93-1.39V1167a39.558,39.558,0,0,1-23.82-11.91c-6.89-6.88-26.09-35.77-30.85-47.42Zm-27.72,68.289,43.91,103.62h-90.21Z" transform="translate(-589.875 -881.406)"/>
</svg>
