<svg xmlns="http://www.w3.org/2000/svg" width="209" height="38" fill-rule="evenodd" clip-rule="evenodd" image-rendering="optimizeQuality" shape-rendering="geometricPrecision" text-rendering="geometricPrecision" viewBox="0 0 7.65 1.39"><defs><clipPath id="id0" clip-rule="nonzero"><path d="M7.39 1.01c0-.13-.2-.2-.3-.23-.18-.08-.3-.19-.3-.39 0-.27.2-.38.44-.38.12 0 .28.02.39.08l-.08.22a.65.65 0 00-.3-.07c-.1 0-.2.03-.2.13 0 .12.21.2.3.23.17.07.3.18.3.38 0 .3-.2.41-.48.41a.99.99 0 01-.4-.08l.08-.22c.08.05.21.08.31.08s.24-.03.24-.16zM5.89.24v.93c.39.03.5-.16.5-.46 0-.31-.1-.5-.5-.47zM5.63.01C6.2-.03 6.66-.02 6.67.7c0 .73-.52.72-1.04.7V0zm-.48 0h.26V1.4h-.26V.01zm-.69.92l.3-.92h.27L4.57 1.4h-.22L3.85.01h.3l.31.92z"/></clipPath><style>.fil5{fill:#ff2f2f;fill-rule:nonzero}</style></defs><g id="Layer_x0020_1"><g id="_1147272832"><path d="M3.67.01v.06h-.24v.08h.2v.06h-.2v.07h.24v.06h-.3V.01zm-.82.14l.12-.14h.07v.33h-.06V.1l-.13.15L2.73.1v.24h-.06V.01h.07zm-.77.13h.2v-.2h-.2v.2zm0-.27h.2c.02 0 .03 0 .04.02.02.01.02.03.02.05v.2c0 .01 0 .03-.02.04a.06.06 0 01-.04.02h-.2c-.02 0-.04 0-.05-.02a.06.06 0 01-.02-.04v-.2A.06.06 0 012.08 0zm-.46 0h.06v.33h-.06V.21h-.21v.13h-.06V.01h.06v.14h.21z" fill="#fff" fill-rule="nonzero"/><path fill="#0cf" fill-rule="nonzero" d="M7.39 1.01c0-.13-.2-.2-.3-.23-.18-.08-.3-.19-.3-.39 0-.27.2-.38.44-.38.12 0 .28.02.39.08l-.08.22a.65.65 0 00-.3-.07c-.1 0-.2.03-.2.13 0 .12.21.2.3.23.17.07.3.18.3.38 0 .3-.2.41-.48.41a.99.99 0 01-.4-.08l.08-.22c.08.05.21.08.31.08s.24-.03.24-.16zM5.89.24v.93c.39.03.5-.16.5-.46 0-.31-.1-.5-.5-.47zM5.63.01C6.2-.03 6.66-.02 6.67.7c0 .73-.52.72-1.04.7V0zm-.48 0h.26V1.4h-.26V.01zm-.69.92l.3-.92h.27L4.57 1.4h-.22L3.85.01h.3l.31.92z"/><g clip-path="url(#id0)"><path fill="#fff" d="M3.67.01h4.16v.33H3.67z"/><path fill="#006edb" d="M.72.34h6.94v.09H.72z"/></g><path fill="none" fill-rule="nonzero" d="M7.39 1.01c0-.13-.2-.2-.3-.23-.18-.08-.3-.19-.3-.39 0-.27.2-.38.44-.38.12 0 .28.02.39.08l-.08.22a.65.65 0 00-.3-.07c-.1 0-.2.03-.2.13 0 .12.21.2.3.23.17.07.3.18.3.38 0 .3-.2.41-.48.41a.99.99 0 01-.4-.08l.08-.22c.08.05.21.08.31.08s.24-.03.24-.16zM5.89.24v.93c.39.03.5-.16.5-.46 0-.31-.1-.5-.5-.47zM5.63.01C6.2-.03 6.66-.02 6.67.7c0 .73-.52.72-1.04.7V0zm-.48 0h.26V1.4h-.26V.01zm-.69.92l.3-.92h.27L4.57 1.4h-.22L3.85.01h.3l.31.92z"/><path d="M3.12.44l.01.1A.31.31 0 013.4.43c.1 0 .16.03.21.09a.4.4 0 01.08.26v.62h-.3V.78c0-.05 0-.08-.02-.1a.153.153 0 00-.1-.04c-.06 0-.1.03-.13.07v.68h-.3V.44h.28zm-.84.21c-.09 0-.14.05-.15.17h.29V.79a.15.15 0 00-.04-.1c-.02-.03-.06-.04-.1-.04zm.03.74a.45.45 0 01-.48-.46V.91c0-.1.02-.18.06-.26a.38.38 0 01.15-.17.46.46 0 01.24-.06.4.4 0 01.3.12c.08.09.12.2.12.35V1h-.57c0 .05.03.1.06.12a.2.2 0 00.14.05c.1 0 .16-.03.21-.1l.14.16a.37.37 0 01-.16.12.52.52 0 01-.2.04zM1.32.65c-.08 0-.13.05-.15.17h.3V.79c0-.04-.02-.08-.04-.1a.128.128 0 00-.1-.04zm.03.74A.45.45 0 01.87.93V.91C.88.8.9.73.94.65a.38.38 0 01.15-.17.46.46 0 01.24-.06.4.4 0 01.31.12c.08.09.12.2.12.35V1h-.58c.01.05.03.1.07.12a.2.2 0 00.13.05c.1 0 .17-.03.22-.1l.13.16a.37.37 0 01-.15.12.52.52 0 01-.22.04z" class="fil5"/><path d="M1.13.34H.72l.01 1.05H.4V.34H0V.01h1.13z" class="fil5"/></g></g></svg>