<?xml version="1.0" encoding="utf-8"?>
<!-- Generator: Adobe Illustrator 25.2.1, SVG Export Plug-In . SVG Version: 6.00 Build 0)  -->
<svg version="1.1" id="Layer_1" xmlns="http://www.w3.org/2000/svg" xmlns:xlink="http://www.w3.org/1999/xlink" x="0px" y="0px"
	 viewBox="0 0 300 65" style="enable-background:new 0 0 300 65;" xml:space="preserve">
<style type="text/css">
	.st0{enable-background:new    ;}
	.st1{fill:#FFFFFF;}
</style>
<g class="st0">
	<path class="st1" d="M26.1,37c0,5.4-3.6,8.3-9.2,8.3H5.2V19.5H17c5,0,8.2,2.4,8.2,6.8c0,2.2-1,4-2.7,5C24.5,32.3,26.1,34.1,26.1,37
		z M19.9,26.7c0-1.6-0.9-2.5-3.2-2.5h-6.5v4.9H17C19.2,29.2,19.9,28.2,19.9,26.7z M20.8,37c0-2.2-1.2-3.3-3.7-3.3h-6.8v6.7h6.8
		C19.6,40.4,20.8,39.1,20.8,37z"/>
	<path class="st1" d="M52.3,32.4c0,8.3-4.7,13.3-11.4,13.3c-6.7,0-11.3-4.9-11.3-13.2c0-8.3,4.7-13.3,11.4-13.3
		C47.7,19.1,52.3,24.1,52.3,32.4z M47,32.4c0-5.2-2.5-8.2-6.1-8.2c-3.6,0-6,2.9-6,8.1s2.5,8.2,6.1,8.2C44.6,40.6,47,37.7,47,32.4z"
		/>
	<path class="st1" d="M74.5,24.6h-7.4v20.7H62V24.6h-7.4v-5.1h19.9V24.6z"/>
	<path class="st1" d="M97.7,24.6h-7.4v20.7h-5.1V24.6h-7.4v-5.1h19.9V24.6z"/>
	<path class="st1" d="M122.7,32.4c0,8.3-4.7,13.3-11.4,13.3c-6.7,0-11.3-4.9-11.3-13.2c0-8.3,4.7-13.3,11.4-13.3
		C118.1,19.1,122.7,24.1,122.7,32.4z M117.4,32.4c0-5.2-2.5-8.2-6.1-8.2c-3.6,0-6,2.9-6,8.1s2.5,8.2,6.1,8.2
		C115,40.6,117.4,37.7,117.4,32.4z"/>
	<path class="st1" d="M151.9,45.3h-5.1v-9.4c0-1.4,0.1-4.7,0.1-5.7c-0.4,1-1.1,2.8-1.8,4.3l-5.2,11.4l-5.2-11.4
		c-0.7-1.5-1.4-3.3-1.8-4.3c0,1,0.1,4.3,0.1,5.7v9.4h-5V19.5h5l5.4,11.7c0.7,1.4,1.4,3.4,1.8,4.3c0.3-1,1.1-2.8,1.7-4.3l5.2-11.7
		h5.1V45.3z"/>
	<path class="st1" d="M189.4,35.3c0,6.6-4.4,10.4-10.3,10.4c-6.7,0-11.2-5.1-11.2-13.3c0-7.8,4.7-13.3,11.4-13.3
		c5.3,0,8,2.5,9.7,6.4l-4.9,2c-1-1.9-2.1-3.3-4.9-3.3c-3.9,0-6.1,3.4-6.1,8.2c0,4.7,2.2,8.2,6.1,8.2c3.5,0,4.7-1.7,5-3.9h-4.1v-4.8
		h9.2V35.3z"/>
	<path class="st1" d="M217.1,45.3h-5.7l-2-5.7H200l-2,5.7h-5.5l9.9-25.7h5L217.1,45.3z M207.7,34.7L206,30c-0.5-1.5-1-3.1-1.3-4
		c-0.3,1-0.8,2.5-1.3,4l-1.7,4.7H207.7z"/>
	<path class="st1" d="M246,45.3h-5.1v-9.4c0-1.4,0.1-4.7,0.1-5.7c-0.4,1-1.1,2.8-1.8,4.3l-5.2,11.4l-5.2-11.4
		c-0.7-1.5-1.4-3.3-1.8-4.3c0,1,0.1,4.3,0.1,5.7v9.4h-5V19.5h5l5.4,11.7c0.7,1.4,1.4,3.4,1.8,4.3c0.3-1,1.1-2.8,1.7-4.3l5.2-11.7
		h5.1V45.3z"/>
	<path class="st1" d="M271,45.3h-18.4V19.5h17.9v5h-12.7V29h7.4v5h-7.4v6.2H271V45.3z"/>
	<path class="st1" d="M294.8,37.5c0,4.9-3.1,8.2-10.1,8.2c-4.3,0-8-1.8-10-4.7l3.7-3.3c1.8,2.1,4.1,2.9,6.6,2.9
		c3.1,0,4.5-0.8,4.5-2.8c0-1.7-0.9-2.4-5.7-3.5c-4.7-1.1-8-2.6-8-7.7c0-4.7,4.1-7.5,9.2-7.5c4,0,6.9,1.5,9.4,4l-3.7,3.6
		c-1.7-1.7-3.5-2.6-5.8-2.6c-2.8,0-3.7,1.2-3.7,2.3c0,1.6,1.1,2.1,5.2,3.1C290.3,30.5,294.8,31.9,294.8,37.5z"/>
</g>
</svg>
