<?xml version="1.0" encoding="utf-8"?>
<!-- Generator: Adobe Illustrator 22.1.0, SVG Export Plug-In . SVG Version: 6.00 Build 0)  -->
<svg version="1.1" id="Vrstva_1" xmlns="http://www.w3.org/2000/svg" xmlns:xlink="http://www.w3.org/1999/xlink" x="0px" y="0px"
	 viewBox="0 0 1077 100.8" style="enable-background:new 0 0 1077 100.8;" xml:space="preserve">
<style type="text/css">
	.st0{fill:#FFFFFF;}
	.st1{fill:#F29100;}
</style>
<title>site-logo-watermark</title>
<g>
	<path class="st0" d="M50.1,83.8c11.6,0,20-3.5,26.1-7.6l8.3,11.5c-8.1,7-18.9,10.7-34.4,10.7C18.4,98.4,1,78.1,1,50.2
		C1,22.4,18.4,2.1,50.1,2.1c15.5,0,26.4,3.7,34.4,10.7l-8.3,11.5c-6.1-4.1-14.5-7.6-26.1-7.6c-21.3,0-31.5,14.2-31.5,33.6
		C18.7,69.6,28.8,83.8,50.1,83.8z"/>
	<path class="st0" d="M170.7,81.9v14.6H96.2v-8.6l50.1-69.2H98.9V4h71.9v8.6l-50.1,69.2H170.7z"/>
	<path class="st0" d="M252.7,42.1v14.6h-46v25.3h48.8v14.6h-66.2V4h65.6v14.6h-48.1v23.5H252.7z"/>
	<path class="st0" d="M314.5,83.8c11.6,0,20-3.5,26.1-7.6l8.3,11.5c-8.1,7-18.9,10.7-34.4,10.7c-31.7,0-49.1-20.3-49.1-48.2
		c0-27.8,17.4-48.1,49.1-48.1c15.5,0,26.4,3.7,34.4,10.7l-8.3,11.5c-6.1-4.1-14.5-7.6-26.1-7.6c-21.3,0-31.5,14.2-31.5,33.6
		C283,69.6,293.1,83.8,314.5,83.8z"/>
	<path class="st0" d="M426.3,4h17.4v92.4h-17.4V56.6h-44v39.8h-17.4V4h17.4v38h44V4z"/>
	<path class="st1" d="M545.5,4v22.7h-30.2v69.7H488V26.7h-30.2V4H545.5z"/>
	<path class="st1" d="M561.4,96.5h-28.7L570.5,4h27.6l37.8,92.4h-28.8l-5.8-15h-34.2L561.4,96.5z M575.3,60.8h18l-9-23.3L575.3,60.8
		z"/>
	<path class="st1" d="M735.9,96.5h-30.1l-19.3-29.2l-19.2,29.2h-30.1l31.7-48L639.8,4h30.1l16.6,25.8L703.3,4h30.1l-29.1,44.4
		L735.9,96.5z"/>
	<path class="st1" d="M743,4h27.3v92.4H743V4z"/>
	<path class="st0" d="M793.4,78c5.3,0,9.6,4.3,9.6,9.6c0,5.3-4.3,9.5-9.6,9.5c-5.3,0-9.5-4.3-9.5-9.5C783.9,82.3,788.1,78,793.4,78z
		"/>
	<path class="st0" d="M848.9,84.3c7,0,13.2-1.9,18.9-6.4l8.3,10.4c-7.2,7.2-16.6,9.5-27.2,9.5c-22.4,0-36.7-14.8-36.7-34.2
		s14.3-34.2,36.7-34.2c10.6,0,20,2.3,27.2,9.5L867.7,49c-5.7-4.5-11.9-6.3-18.8-6.3c-14.1,0-20.2,9.9-20.2,20.8
		S834.8,84.3,848.9,84.3z"/>
	<path class="st0" d="M921.2,97.8c-22.4,0-36.7-14.8-36.7-34.2s14.3-34.2,36.7-34.2c22.4,0,36.7,14.6,36.7,34.2
		C957.9,83.1,943.5,97.8,921.2,97.8z M921.2,42.8c-14.1,0-20.2,9.9-20.2,20.8s6.1,20.8,20.2,20.8s20.2-9.9,20.2-20.8
		S935.3,42.8,921.2,42.8z"/>
	<path class="st0" d="M972.1,30.6h16.2v6.1c2.2-3.9,8.8-7.4,15.3-7.4c10.4,0,17.7,3.6,21.6,9.1c3.5-4.7,11.3-9.1,20.2-9.1
		c15.8,0,26.6,8.4,26.6,28.8v38.4h-16.2V58.1c0-9.1-3.9-15.3-12.8-15.3c-9,0-12.8,6.2-12.8,15.3v38.4H1014V58.1
		c0-9.1-3.9-15.3-12.8-15.3c-9,0-12.8,6.2-12.8,15.3v38.4h-16.2V30.6z"/>
</g>
</svg>
