<svg xmlns="http://www.w3.org/2000/svg" width="159" height="28" fill-rule="evenodd" clip-rule="evenodd" image-rendering="optimizeQuality" shape-rendering="geometricPrecision" text-rendering="geometricPrecision" viewBox="0 0 14.93 2.59"><defs><style>.fil0{fill:#c03ab8;fill-rule:nonzero}</style></defs><g id="Layer-214"><g id="_1067035872"><path d="M3.95 2.27a.13.13 0 01-.09-.04c-.03-.02-.04-.05-.04-.09l.02-.05.7-1.66A.16.16 0 014.6.35a.17.17 0 01.1-.03h.02c.04 0 .07.01.1.03.03.02.05.05.06.08l.7 1.66.02.05c0 .04-.01.07-.04.09a.13.13 0 01-.09.04l-.07-.02-.04-.06-.18-.43h-.94l-.18.43a.2.2 0 01-.04.06.19.19 0 01-.07.02zm.39-.74h.74L4.71.64l-.37.89z" class="fil0"/><path id="1" d="M6.13 2.27a.13.13 0 01-.09-.04C6.01 2.21 6 2.18 6 2.14V.5c0-.05.02-.09.05-.13a.21.21 0 01.13-.05h.04a.2.2 0 01.15.08l1.06 1.53V.45c0-.04.01-.07.03-.09.03-.03.05-.04.09-.04.03 0 .06.01.09.04.02.02.04.05.04.09v1.64c0 .05-.02.09-.06.12a.16.16 0 01-.13.06h-.03a.19.19 0 01-.08-.02.17.17 0 01-.06-.06L6.25.66v1.48c0 .04-.01.07-.04.09-.02.02-.05.04-.08.04z" class="fil0"/><path id="2" d="M9.06 2.28a.97.97 0 01-.85-.47 1.07 1.07 0 01-.12-.51c0-.2.05-.37.13-.52.08-.15.2-.27.34-.35.15-.08.31-.12.49-.12.14 0 .27.01.37.05.11.03.22.08.31.14l.04.04.02.06c0 .03-.01.06-.03.08-.02.03-.05.04-.09.04A.08.08 0 019.62.7a1.12 1.12 0 00-.54-.15.79.79 0 00-.38.09.63.63 0 00-.26.25.78.78 0 00-.1.41c0 .14.03.27.09.38.06.11.15.2.26.27a1 1 0 00.88-.03v-.49h-.45c-.03 0-.06-.02-.08-.04a.11.11 0 01-.03-.08c0-.03.01-.06.03-.08a.11.11 0 01.08-.03h.54c.04 0 .07.01.09.04.03.02.04.06.04.09v.63a.2.2 0 01-.03.1.23.23 0 01-.07.07c-.21.1-.42.15-.63.15z" class="fil0"/><path id="3" d="M10.41 2.25a.16.16 0 01-.09-.03.16.16 0 01-.03-.09V.46l.03-.09c.03-.02.06-.04.09-.04h1.1c.04 0 .07.02.09.04.02.02.03.05.03.08 0 .04-.01.06-.03.08-.02.03-.05.04-.09.04h-.97v.61h.88c.03 0 .06.01.08.03.02.02.03.05.03.08 0 .04-.01.06-.03.09a.11.11 0 01-.08.03h-.88v.61h.97c.04 0 .07.01.09.03.02.03.03.05.03.09 0 .03-.01.06-.03.08-.02.02-.05.03-.09.03h-1.1z" class="fil0"/><path id="4" d="M12.22 2.25a.17.17 0 01-.13-.05.17.17 0 01-.05-.12V.45c0-.04.01-.07.04-.09.02-.03.05-.04.09-.04.03 0 .06.01.09.04.02.02.03.05.03.09V2h.9c.04 0 .07.01.09.04.03.02.04.05.04.09 0 .03-.01.06-.04.09-.02.02-.05.03-.09.03h-.97z" class="fil0"/><path id="5" d="M14.23 2.28c-.23 0-.45-.04-.65-.13-.03-.01-.04-.03-.06-.05l-.02-.06c0-.04.01-.06.03-.09a.11.11 0 01.08-.03l.05.01c.17.08.35.11.55.11.32 0 .48-.1.48-.31 0-.06-.02-.1-.07-.14a.38.38 0 00-.15-.09l-.26-.07-.36-.11a.63.63 0 01-.23-.16.41.41 0 01-.1-.29c0-.1.03-.2.08-.28a.61.61 0 01.24-.21.94.94 0 01.39-.07c.2 0 .38.03.55.09.05.02.07.05.07.11 0 .03-.01.05-.03.08-.02.02-.04.03-.08.03L14.7.61a1.3 1.3 0 00-.44-.07.74.74 0 00-.36.08.25.25 0 00-.13.23c0 .07.02.12.06.16l.16.1.27.07c.14.04.26.07.35.11.09.03.17.08.23.16.06.07.09.17.09.29 0 .11-.03.2-.08.28a.6.6 0 01-.25.19.87.87 0 01-.37.07z" class="fil0"/><path fill="#ffb800" fill-rule="nonzero" d="M1.62 1.07l.71 1.06c.12.17.21.28.26.32.05.04.11.06.18.07v.07H1.5v-.07c.1-.01.17-.02.2-.05a.1.1 0 00.04-.08l-.01-.06a1.62 1.62 0 00-.14-.22l-.37-.55-.4.48c-.11.14-.17.24-.17.3 0 .03.01.07.04.1s.08.05.14.07l.16.01v.07H0v-.07c.11-.02.2-.05.27-.09.08-.06.2-.18.35-.37l.52-.62L.48.47A2.41 2.41 0 00.29.2C.26.15.23.12.19.11.16.09.11.08.06.07V0h1.28v.07h-.07c-.07 0-.12.01-.15.03-.03.03-.05.06-.05.09l.02.07.13.2.32.48.27-.32c.14-.17.21-.29.21-.36a.17.17 0 00-.03-.1.22.22 0 00-.09-.07C1.87.07 1.81.07 1.73.07V0h.95v.07a.9.9 0 00-.18.02.53.53 0 00-.14.1c-.04.03-.12.13-.25.29l-.49.59z"/><path fill="#fff" d="M2.61 1.12h.76v.27h-.76z"/></g></g></svg>