<svg xmlns="http://www.w3.org/2000/svg" viewBox="0 0 361.98 38.8">
  <defs>
    <style>
      .a {
        fill: #fff;
      }
    </style>
  </defs>
  <title>HelixStudios-logo2</title>
  <g>
    <polygon class="a" points="159.57 0.72 144.68 0.72 140.48 9.33 136.04 0.72 121.15 0.72 132.11 18.5 119.77 38.47 134.83 38.47 140.48 29.43 146.2 38.47 161.25 38.47 147.91 18.5 159.57 0.72"/>
    <path class="a" d="M179.24,16.66l-2.49-1.09c-2.54-1.14-5.87-2.64-5.87-5.87a6,6,0,0,1,6.22-5.82c3.18,0,5,1.49,6.46,4.08l3.34-2.14A10.76,10.76,0,0,0,177.2,0c-5.57,0-10.5,3.73-10.5,9.55,0,5.37,3.78,7.61,8.16,9.6l2.29,1c3.48,1.59,6.91,3.08,6.91,7.46a7.54,7.54,0,0,1-7.71,7.31c-4,0-7-3.13-7.51-7l-4.08,1.14a11.84,11.84,0,0,0,23.48-1.89C188.24,21.24,184.11,18.8,179.24,16.66Z"/>
    <polygon class="a" points="191.49 4.53 200.54 4.53 200.54 38.15 204.72 38.15 204.72 4.53 213.88 4.53 213.88 0.65 191.49 0.65 191.49 4.53"/>
    <polygon class="a" points="84.3 26.85 84.3 26.5 84.3 0.8 71.05 0.8 71.05 38.47 96 38.47 96 26.85 84.65 26.85 84.3 26.85"/>
    <polygon class="a" points="21.98 13.38 21.98 13.72 21.64 13.72 13.09 13.72 12.74 13.72 12.74 13.38 12.74 0.8 0 0.8 0 38.47 12.74 38.47 12.74 25.48 12.74 25.14 13.09 25.14 21.64 25.14 21.98 25.14 21.98 25.48 21.98 38.47 34.72 38.47 34.72 0.8 21.98 0.8 21.98 13.38"/>
    <path class="a" d="M242.25,23c0,2.94.14,6.22-1.84,8.61A9.94,9.94,0,0,1,233,34.92a9.67,9.67,0,0,1-7.56-3.58c-1.74-2.39-1.64-5.57-1.64-8.36V.65h-4.18V24.13c0,4.27.4,7.71,3.68,10.84A14,14,0,0,0,233,38.8a13.79,13.79,0,0,0,10.1-4.28c3-3.08,3.28-6.32,3.28-10.39V.65h-4.17Z"/>
    <polygon class="a" points="53.6 28.68 53.6 28.33 53.6 24.57 53.6 24.22 53.95 24.22 64.34 24.22 64.34 14.94 53.95 14.94 53.6 14.94 53.6 14.6 53.6 10.93 53.6 10.58 53.95 10.58 65.36 10.58 65.36 0.8 40.25 0.8 40.25 38.47 65.76 38.47 65.76 28.68 53.95 28.68 53.6 28.68"/>
    <rect class="a" x="101.77" y="0.8" width="13.25" height="37.67"/>
    <path class="a" d="M316.33,0a19.56,19.56,0,0,0-19.55,19.45,19.55,19.55,0,0,0,39.1,0A19.57,19.57,0,0,0,316.33,0Zm0,34.92A15.52,15.52,0,1,1,331.69,19.4,15.5,15.5,0,0,1,316.33,34.92Z"/>
    <path class="a" d="M353,16.66l-2.49-1.09c-2.54-1.14-5.87-2.64-5.87-5.87a6,6,0,0,1,6.22-5.82c3.18,0,5,1.49,6.46,4.08l3.34-2.14A10.77,10.77,0,0,0,350.93,0c-5.56,0-10.49,3.73-10.49,9.55,0,5.37,3.78,7.61,8.16,9.6l2.29,1c3.48,1.59,6.91,3.08,6.91,7.46a7.54,7.54,0,0,1-7.71,7.31c-4,0-7-3.13-7.51-7L338.5,29.1A11.84,11.84,0,0,0,362,27.21C362,21.24,357.85,18.8,353,16.66Z"/>
    <path class="a" d="M273.91,5.17c-4.43-3.78-9-4.52-14.62-4.52h-7.07v37.5h7c5.87,0,10.34-.74,14.82-4.72a18.09,18.09,0,0,0,6.12-14A18.16,18.16,0,0,0,273.91,5.17Zm-2.64,25.22c-3.43,3.24-7.26,3.88-11.83,3.88h-3V4.53h3c4.42,0,8.2.59,11.64,3.63A14.79,14.79,0,0,1,276,19.4,14.82,14.82,0,0,1,271.27,30.39Z"/>
    <rect class="a" x="286.88" y="0.65" width="4.18" height="37.51"/>
  </g>
</svg>
