<?xml version="1.0" encoding="utf-8"?>
<!-- Generator: Adobe Illustrator 24.3.0, SVG Export Plug-In . SVG Version: 6.00 Build 0)  -->
<svg version="1.1" id="Layer_5" xmlns="http://www.w3.org/2000/svg" xmlns:xlink="http://www.w3.org/1999/xlink" x="0px" y="0px"
	 viewBox="0 0 1416.6 327" style="enable-background:new 0 0 1416.6 327;" xml:space="preserve">
<style type="text/css">
	.st0{fill:#FFFFFF;}
	.st1{fill:#D12628;}
	.st2{fill:#B72327;}
</style>
<g>
	<path class="st0" d="M1054.3,44c-0.2-0.1-0.3-0.1-0.4-0.2c-0.1,0-0.2,0-0.3,0c-0.5,0.1-0.6,0.3-0.4,0.6c0.1,0.2,0.3,0.3,0.6,0.5
		c0.3,0.2,0.7,0.4,0.9,0.5l0,0l0,0c0.1-0.1,0.2-0.3,0.2-0.4c0.1-0.4,0-0.6-0.2-0.8C1054.6,44.1,1054.5,44,1054.3,44z"/>
	<path class="st0" d="M1061.3,48.7c-0.5,1.4-0.2,0.8-0.8,1.6c0.1,0.5,0.1,0.8,0.2,1.1c0.1,0.7,0.3,1.1,0.5,1.7
		c0,0.1,0.1,0.3,0.1,0.4c0.5,0.3,1.1,0.5,1.6,0.8l0,0l0,0c0.5-0.5,0.3-0.4,0.4-0.5c0,0,0,0,0.1,0s0.2-0.1,0.4-0.3c0-0.7,0-1.2,0-1.7
		C1063.7,49.8,1063.5,49.5,1061.3,48.7z"/>
	<path class="st0" d="M364.3,76.4c0,0.1,0.1,0.1,0.2,0.2c0,0.2,0,0.5,0,0.7c0.4-0.2,0.6-0.3,0.8-0.4s0.3-0.1,0.4-0.1c0,0,0,0,0.1,0
		c0,0,0,0,0.1-0.1c0-0.2,0-0.5,0.3-1.6c-0.7,0-1.5,0-2.2,0C364.1,76.3,363.9,76,364.3,76.4z"/>
	<path class="st0" d="M962.1,59.7c0-0.5,0-1,0-1.5c-0.7,0-1.5,0-2.2,0c0.1,1.9,0.1,2.8,0.7,3.7c0,0.5,0,1,0,1.5l0,0
		c0.7,0,1.5,0,2.2,0l0,0l0,0C962.8,61.5,962.8,60.6,962.1,59.7z"/>
	<path class="st0" d="M1123.8,66.5c-0.1-0.3-0.3-0.5-0.3-0.6c-0.1-0.2-0.1-0.3-0.2-0.4c-0.2-0.5,0-0.2-1.1-0.4
		c-0.2,0-0.5-0.1-0.8-0.2c-0.5,1.5-0.9,3.2-1.4,4.8s-1,3-1.9,4.2c0,1.4,0,2.7,0,4.1c0.3,0,0.5,0,0.8,0c0.2-0.4,0.3-0.8,0.5-1.3
		s0.3-1,0.5-1.5s0.3-1.1,0.5-1.6c0.8-2.5,1.6-5,2.9-6.5C1123.5,66.8,1123.7,66.7,1123.8,66.5z"/>
	<path class="st0" d="M1036.9,74.7c0-0.3,0-0.5,0-0.8c0.4-0.5,0.4-0.5,0.5-0.7c0-0.1,0.1-0.4,0.3-0.9l0,0l0,0
		c-0.3-0.1-0.5-0.2-0.8-0.3c-0.6-0.2-1.1-0.4-2.5-0.5c0.3,1.7,0.2,1.6,0.8,2.4C1036.1,74.5,1035.5,74.1,1036.9,74.7z"/>
	<path class="st0" d="M1073.5,80.3L1073.5,80.3c0.3,0,0.5,0,0.8,0c0-1.6,0-3.3,0-4.9c-0.5,0-1.1,0-1.6,0l0,0
		c0.1,0.8,0.3,1.6,0.4,2.4C1073.2,78.7,1073.3,79.5,1073.5,80.3z"/>
	<path class="st0" d="M864.6,80.7c-0.2-2.6-0.3-3.2-1.5-4.5c0,0.2-0.1,0.4-0.1,0.5c-0.2,1-0.2,1-0.7,1.7c0.5,1.3,0.1,0.7,0.7,1.5
		c0,0.2,0,0.5,0,0.7C863.6,80.7,864.1,80.7,864.6,80.7z"/>
	<path class="st0" d="M869.9,76.9c0,0.5,0,1,0,1.5c0.2,0,0.5,0,0.7,0C870.1,77.1,870.5,77.7,869.9,76.9z"/>
	<path class="st0" d="M250.8,106.4c0.1,0.1,0.3,0.2,0.8,0.3c0.1,0,0.3,0.1,0.5,0.2c-0.6-1-0.4-1.1-0.6-1.1c-0.1,0-0.2,0-0.5-0.1
		c-0.1,0-0.2,0-0.2,0c-0.2,0-0.4-0.1-0.7-0.2C250.5,106.1,250.6,106.3,250.8,106.4z"/>
	<path class="st0" d="M1162.8,82c0-0.5,0-1.1,0-1.6c-0.5,0-1.1,0-1.6,0l0,0c0,0.5,0,1.1,0,1.6l0,0C1161.7,82,1162.3,82,1162.8,82z"
		/>
	<path class="st0" d="M1184,81.2c-0.8-0.3-1.6-0.5-2.4-0.8c-0.8,1.4-2.3,3.8-2.6,6.2c-0.1,0.5-0.1,1,0,1.5c0.1,1,0.4,2,1,2.9
		c0,0.5,0,1.1,0,1.6l0,0l0,0c1.3-0.3,2.2-0.9,2.9-1.6c1.4-1.5,1.7-3.8,1.6-6.2C1184.3,83.6,1184.1,82.3,1184,81.2z"/>
	<path class="st0" d="M1104.6,85c-0.1-0.7-0.2-1.4-0.3-2.2c-0.8-0.3-1.6-0.5-2.4-0.8l0,0l0,0c-0.3,0.5-0.6,1-0.9,1.4
		c-0.1,0.1-0.2,0.3-0.2,0.4c-0.5,0.8-0.8,1.6-1,2.6c0,0.1,0,0.1,0,0.2c-0.1,0.3-0.1,0.7-0.2,1.1c0,0.2,0,0.4-0.1,0.7
		c0,0.7-0.1,1.5,0,2.5c0.4,0.1,0.6,0.2,0.7,0.3c0.2,0.1,0.3,0.1,0.4,0.2s0.2,0.2,0.5,0.4c0.4-0.1,0.8-0.1,1-0.2
		c0.2,0,0.4-0.1,0.6-0.1s0.4-0.1,0.6-0.2s0.4-0.1,0.7-0.2c0.1,0,0.3-0.1,0.4-0.1c0.2-0.8,0.3-1.5,0.3-2.1c0-0.3,0.1-0.6,0.1-0.9
		c0-0.6,0-1.2,0-1.8C1104.7,85.7,1104.6,85.4,1104.6,85z"/>
	<path class="st0" d="M1147,86.1C1147.1,86.1,1147.1,86.1,1147,86.1c0.2,0,0.3-0.1,0.4-0.1c0.3-0.1,0.4-0.2,0.6-0.4
		c0.1-0.1,0.2-0.2,0.2-0.3c0-0.1,0-0.1,0-0.2c0-0.2-0.1-0.3-0.3-0.5l0,0c-0.1-0.1-0.2-0.2-0.3-0.3c-0.1-0.1-0.2-0.1-0.3-0.2
		c-0.3-0.2-0.6-0.4-0.7-0.6l0,0l0,0l0,0c-0.1,0.1-0.1,0.2-0.1,0.2l0,0c0,0.1-0.1,0.2-0.1,0.3c0,0,0,0,0,0.1s-0.1,0.2-0.1,0.4
		c0,0,0,0,0,0.1s0,0.3,0,0.4l0,0c0,0.1,0,0.3,0,0.4c0,0,0,0,0,0.1s0.1,0.2,0.1,0.3l0,0c0.1,0.1,0.1,0.2,0.2,0.2l0,0
		c0.1,0,0.2,0.1,0.3,0.1l0,0l0,0C1146.9,86.2,1147,86.2,1147,86.1z"/>
	<path class="st0" d="M1071.4,99.9c0.4-0.7,0.7-1.2,1.2-1.7c-0.2-1-0.2-1.4-0.4-1.7c0-0.1-0.1-0.1-0.1-0.2c-0.1-0.1-0.2-0.3-0.3-0.5
		c-0.5-1.3-0.5-1.6-0.8-1.8c-0.2-0.2-0.6-0.2-1.7-0.6c-0.3,0.5-0.5,0.9-0.7,1.3c-0.1,0.3-0.3,0.5-0.4,0.8c-0.2,0.5-0.3,1-0.3,1.5
		s0.1,1,0.4,1.6c0.2,0.4,0.5,0.8,1,1.3c0.6,0.5,0.4,0.4,0.9,0.6c0.2,0,0.4,0.1,0.7,0.3C1071.2,100.4,1071.3,100.2,1071.4,99.9z"/>
	<path class="st0" d="M355.5,95.9L355.5,95.9v0.2v0.1l0,0c0,0.1,0,0.2,0,0.3v0.1c0,0.1,0,0.2,0,0.3l0,0c0,0.1,0,0.2,0.1,0.2
		c0,0,0,0,0,0.1s0.1,0.2,0.1,0.2l0,0c0,0.1,0.1,0.1,0.1,0.1l0,0c0.1,0,0.1,0.1,0.2,0.1l0,0h0.1c0,0,0,0,0.1,0h0.1h0.1l0.1-0.1
		c0,0,0.1,0,0.1-0.1c0.1-0.1,0.2-0.1,0.3-0.2c0.2,0,0.5,0,0.7,0c0-0.2,0-0.5,0-0.7C356.9,96.3,356.1,96,355.5,95.9
		C355.5,95.7,355.5,95.8,355.5,95.9z"/>
	<path class="st0" d="M360.5,97.5c0-0.1,0-0.1,0-0.2c0-0.4,0-0.3-0.5-0.5c-0.2-0.1-0.4-0.2-0.8-0.4c0.5,1.3,0.1,0.7,0.7,1.5
		c0,0.2,0,0.5,0,0.7c0.2,0,0.5,0,0.7,0l0,0l0,0C360.5,98.1,360.5,97.7,360.5,97.5z"/>
	<path class="st0" d="M1101.9,99.8c0,0.5,0,1.1,0,1.6l0,0c0.5,0,1.1,0,1.6,0c0-0.5,0-1.1,0-1.6C1103,99.8,1102.4,99.8,1101.9,99.8
		L1101.9,99.8z"/>
	<path class="st0" d="M870.6,100.2c0-0.7,0-1.5,0-2.2c-0.2,0-0.5,0-0.7,0c-0.1-0.1-0.2-0.1-0.3-0.2c-0.2-0.2-0.4-0.2-0.6-0.3
		c-0.1,0-0.1,0-0.2-0.1c-0.2,0-0.4-0.1-0.7-0.1c-0.1,0-0.3-0.1-0.5-0.1c0,0.7,0,1.5,0,2.2c0.2,0,0.5,0,0.7,0
		C869.2,100,869.1,99.9,870.6,100.2z"/>
	<path class="st0" d="M1253,103.1c0.3,0,0.5,0,0.8,0c-0.3-0.8-0.4-1.2-0.5-1.4c-0.1-0.2-0.2-0.3-0.4-0.4l-0.1-0.1
		c-0.1-0.1-0.2-0.2-0.4-0.3c-0.1-0.1-0.1-0.1-0.2-0.2c-0.4,1.1-0.5,1.3-0.7,2.6c0,0.2-0.1,0.4-0.1,0.6c0.2-0.1,0.3-0.1,0.4-0.2
		c0.4-0.1,0.5-0.2,0.6-0.2C1252.6,103.5,1252.7,103.4,1253,103.1z"/>
	<path class="st0" d="M1166.9,107.2c0.2-0.2,0.3-0.3,0.3-0.4s0-0.1,0-0.1s0,0,0.2-0.1c0.1-0.1,0.1-0.1,0.3-0.2c0-1.6,0-3.3,0-4.9
		c-0.8,0-1.6,0-2.4,0c-0.1,0.1-0.2,0.2-0.2,0.3c-0.1,0.1-0.1,0.2-0.1,0.2s0.1,0-0.2,0.2c-0.1,0.1-0.1,0.1-0.3,0.2c0,1.6,0,3.3,0,4.9
		l0,0C1165.3,107.2,1166.1,107.2,1166.9,107.2L1166.9,107.2z"/>
	<path class="st0" d="M391.2,99c-0.2-0.1-0.5-0.2-0.5-0.3c-0.5,0.1-0.7,0.2-0.7,0.3c0,0.2,0.3,0.4,0.6,0.7c0.3,0.2,0.6,0.4,0.9,0.5
		l0,0l0,0c0.4-0.6,0.3-0.9,0-1.1C391.4,99,391.3,99,391.2,99z"/>
	<path class="st0" d="M825.6,98.7L825.6,98.7c0,0.2,0,0.4,0.1,0.6c0.1,1.2,0.2,1.6,0.7,2.4c0.8,0.6,0.2,0.3,1.5,0.7
		c0.7-0.8-0.1-0.1,0.7-0.7c0-1,0-2,0-3l0,0C827.6,98.7,826.6,98.7,825.6,98.7L825.6,98.7z"/>
	<path class="st0" d="M1182.3,102.3c-0.1,0.2-0.1,0.4-0.2,0.6s-0.1,0.3-0.2,0.4c-0.1,0.4-0.2,0.6-0.2,1c0,0.1,0,0.2,0.1,0.3
		c0.1,0.2,0.2,0.5,0.5,0.9c0,0.3,0,0.5,0,0.8l0,0c0.5,0,1.1,0,1.6,0c0-1.4,0-2.7,0-4.1C1183.4,102.3,1182.9,102.3,1182.3,102.3
		L1182.3,102.3z"/>
	<path class="st0" d="M1031.1,103.2c0.2,0,0.5,0,0.8,0c0-1.2,0-2.5,0-3.7c-0.5,0-1,0-1.5,0c0.2,1.7,0.1,2.1,0.7,3
		C1031.1,102.7,1031.1,102.9,1031.1,103.2z"/>
	<path class="st0" d="M1098.6,103.9L1098.6,103.9L1098.6,103.9c0,0.5,0,1.1,0,1.6l0,0l0,0C1100.1,104.8,1099.6,105.2,1098.6,103.9z"
		/>
	<path class="st0" d="M271.3,126.8L271.3,126.8c-0.7-0.2-1.4-0.5-2.1-0.7c0.2,0.7,0.5,1.4,0.7,2.1c0.5,0,0.9,0,1.4,0
		C271.3,127.7,271.3,127.2,271.3,126.8z"/>
	<path class="st0" d="M479.9,100.9c0,0.5,0,1,0,1.5l0,0c0.5,0,1,0,1.5,0c0-0.5,0-1,0-1.5C480.9,100.9,480.4,100.9,479.9,100.9
		L479.9,100.9z"/>
	<path class="st0" d="M1005.6,105.4c0-0.7-0.1-1.3-0.1-1.8c-0.1-0.8-0.2-1.4-0.7-2c0-0.2,0-0.5,0-0.7c-0.5,0-1,0-1.5,0
		c-0.3,2.5-0.2,1.6,0,4.5C1004.1,105.4,1004.9,105.4,1005.6,105.4z"/>
	<path class="st0" d="M1043.6,101.7c-0.1-0.2-0.1-0.3-0.1-0.4c-0.1-0.1-0.1-0.2-0.4-0.5c0,0.5,0,1,0,1.5c0.2,0,0.5,0,0.7,0
		C1043.7,102.1,1043.7,101.9,1043.6,101.7z"/>
	<path class="st0" d="M1078.3,105.5C1078.3,105.4,1078.3,105.4,1078.3,105.5c-0.2-0.2-0.4-0.4-0.8-0.7l0,0l0,0l0,0
		c0,0.1,0,0.2,0,0.3l0,0c0,0.1,0,0.2,0,0.3c0,0,0,0,0,0.1s0,0.3,0,0.4s0,0.2,0,0.4l0,0c0,0.1,0,0.2,0,0.4l0,0c0,0.1,0,0.2,0.1,0.3
		l0,0c0,0.1,0.1,0.1,0.1,0.2l0,0c0.1,0,0.1,0.1,0.2,0.1l0,0l0,0c0.1,0,0.2,0,0.3-0.1c-0.4-1,0.1-1.1,0.1-1.4v-0.1
		C1078.4,105.6,1078.4,105.5,1078.3,105.5z"/>
	<path class="st0" d="M1106.3,110.3c0.1,0.2,0.1,0.3,0.2,0.5c0.1,0.1,0.1,0.3,0.2,0.4c0,0.1,0.1,0.1,0.1,0.2
		c0.1,0.1,0.1,0.2,0.2,0.3c0.1,0.1,0.2,0.3,0.3,0.5c0.1,0.2,0.3,0.5,0.4,0.8l0,0l0,0c0.5,0,1.1,0,1.6,0l0,0l0,0
		c0.1-0.3,0.2-0.6,0.3-1c0.2-0.5,0.3-1,0.5-1.5c0.2-0.2,0.3-0.3,0.3-0.4l0.1-0.1c0-0.1,0.1-0.1,0.1-0.2s0.1-0.4,0.3-0.9l0,0l0,0
		c-0.5-0.5-0.8-0.8-1.1-1.1c-0.1-0.1-0.2-0.3-0.4-0.4c-0.3-0.3-0.8-0.6-1.8-0.9l0,0l0,0c-0.1,0.3-0.3,0.5-0.4,0.7
		c-0.2,0.4-0.5,0.8-0.8,1.2c-0.1,0.2-0.3,0.4-0.5,0.6l0,0l0,0C1106.1,109.4,1106.2,109.9,1106.3,110.3z"/>
	<path class="st0" d="M1049.9,111.2c0.1-1.2,0.2-1.5,0.3-1.6c0,0,0,0,0-0.1s0-0.1,0-0.2s-0.1-0.1-0.1-0.2s-0.1-0.2-0.1-0.3
		c0-0.5,0-1.1,0-1.6l0,0c-0.8,0-1.6,0-2.4,0c0,1.4,0,2.7,0,4.1C1048.3,111.2,1049.1,111.2,1049.9,111.2L1049.9,111.2z"/>
	<path class="st0" d="M1127.5,110.7c0,0,0.1-0.1,0.2-0.1c0.1-0.1,0.1-0.1,0.3-0.2c0.3,0,0.5,0,0.8,0c-0.2-0.4-0.3-0.6-0.4-0.8
		c0-0.1-0.1-0.2-0.1-0.2c0-0.1,0-0.1-0.1-0.1s-0.4-0.1-1.1-0.5c-0.3,0.8-0.5,1.6-0.8,2.4c0.2-0.1,0.3-0.1,0.4-0.2
		C1127.3,110.8,1127.3,110.9,1127.5,110.7z"/>
	<path class="st0" d="M950.1,109.2c-1.1-1.1-1.6-2.1-3-3c-1.9,3.2-4.9,12.9-1.5,16.5c0.2,0.7,0.5,1.5,0.7,2.2c0.4,0,0.7-0.1,0.9-0.1
		c1-0.1,1.5-0.3,1.9-0.5s0.9-0.5,1.6-0.9C950.8,117,950,115.2,950.1,109.2z"/>
	<path class="st0" d="M268.5,134.3c0.2,0,0.5,0,0.7,0c0-0.5,0-0.9,0-1.4c-1-0.4-1.1-0.5-2.7-0.7
		C267.1,133.2,267.8,133.5,268.5,134.3z"/>
	<path class="st0" d="M1062.1,112L1062.1,112L1062.1,112c-0.2,0.5-0.3,0.9-0.4,1.3c-0.2,0.7-0.3,1.4-0.4,2.8c0.3,0,0.5,0,0.8,0l0,0
		c0.3-0.9,0.5-1.5,0.6-2.1c0-0.1,0-0.3,0-0.4C1062.7,113.1,1062.5,112.6,1062.1,112z"/>
	<path class="st0" d="M1174.2,115.3c-0.3-0.8-0.5-1.6-0.8-2.4c-1.1,0-2.2,0-3.2,0c-0.5,1.3-0.7,2.5-0.7,3.6c0,0.4,0,0.8,0.1,1.1
		c0.1,1,0.4,2,0.8,2.9c0.2,0.4,0.4,0.9,0.6,1.3c1.1-0.3,2-0.9,2.8-1.7c0.3-0.3,0.5-0.6,0.7-1c0.1-0.1,0.1-0.2,0.2-0.4
		C1175.1,117.7,1175,116.5,1174.2,115.3z"/>
	<path class="st0" d="M1088.9,119.3L1088.9,119.3c0-1.4,0-2.2-0.2-2.8c-0.1-0.4-0.2-0.6-0.4-0.9s-0.4-0.5-0.8-0.9
		c-0.1-0.1-0.2-0.2-0.3-0.3c-0.3,0.9-0.5,1.5-0.6,2.1c0,0.3,0,0.6,0.1,0.9s0.3,0.7,0.5,1.1c0,0.3,0,0.5,0,0.8
		C1087.8,119.3,1088.4,119.3,1088.9,119.3z"/>
	<path class="st0" d="M1134.3,120.7c0-0.3,0-0.5-0.1-0.8c0-0.4-0.1-0.7-0.2-0.9c0-0.1-0.1-0.2-0.2-0.3c-0.1-0.2-0.4-0.3-0.7-0.5
		c-0.1-0.1-0.3-0.1-0.4-0.2c-0.2-0.1-0.5-0.2-0.8-0.3c-0.3,1.1-0.7,1.8-0.6,2.5c0,0.4,0.2,0.9,0.6,1.6c0.1,0,0.1,0.1,0.1,0.1
		c0.1,0.1,0.1,0.1,0.2,0.1c0.1,0.1,0.1,0.1,0.2,0.1h0.1c0.1,0.1,0.3,0.1,1,0.4l0,0l0,0c0.7-0.9-0.1-0.1,0.8-0.8l0,0l0,0
		C1134.4,121.3,1134.3,121,1134.3,120.7z"/>
	<path class="st0" d="M1012.4,118.2c0.1-2.1,0.5-1.1,0-2.2c0-0.5,0-1,0-1.5c-0.7,0-1.5,0-2.2,0c0.2,1.7,0.1,2.1,0.7,3
		c0,0.2,0,0.5,0,0.7C1011.4,118.2,1011.9,118.2,1012.4,118.2z"/>
	<path class="st0" d="M362.2,115.2c0,0.5,0,1,0,1.5c0.5,0,1,0,1.5,0l0,0c0-0.5,0-1,0-1.5C363.2,115.2,362.7,115.2,362.2,115.2
		L362.2,115.2z"/>
	<path class="st0" d="M869.9,115.2c-0.5,0-1,0-1.5,0c0.5,0.4,0.4,0.4,0.7,0.5c0.1,0,0.2,0.1,0.4,0.1c0.1,0,0.2,0.1,0.4,0.1
		C869.9,115.7,869.9,115.4,869.9,115.2z"/>
	<path class="st0" d="M422.2,117.4c0,0.2,0,0.5,0,0.7l0,0l0,0c0.4-0.2,0.6-0.4,0.8-0.4c0.1-0.1,0.2-0.1,0.3-0.1
		c0.1,0,0.1-0.1,0.1-0.1s0,0,0-0.1c0-0.2,0-0.5,0.2-1.1c0-0.1,0.1-0.3,0.1-0.4c-0.7,0-1.5,0-2.2,0c0.2,0.6,0.3,0.8,0.3,0.9
		C421.8,117,421.9,117,422.2,117.4z"/>
	<path class="st0" d="M1128.1,129.5c-0.1-0.5-0.2-1-0.3-1.6c-0.2-1-0.4-2.1-0.5-3.1c-0.1-0.5-0.1-1-0.2-1.5c0-0.3,0-0.5,0-0.7
		c-0.5,0-1.1,0-1.6,0l0,0c0,0.6,0,1.2,0.1,1.9c0,0.4,0,0.9,0,1.4c0,1.6,0,3.3-0.3,4.6c0,0.2-0.1,0.4-0.1,0.5c-0.1,0.5-0.3,1-0.5,1.3
		c0,2.2,0,4.5,0.2,6.6c0.1,0.8,0.2,1.6,0.4,2.2c0.1,0.3,0.2,0.7,0.3,0.9l0,0l0,0c1.9-0.4,3-1.5,3.4-3.1c0-0.2,0.1-0.3,0.1-0.5
		c0.1-0.4,0.1-0.7,0.1-1.2c0-0.2,0-0.4,0-0.6c0-0.4,0-0.9-0.1-1.3C1128.9,133.6,1128.5,131.6,1128.1,129.5z"/>
	<path class="st0" d="M1117.8,132c0.2-0.6,0.3-1.3,0.3-1.9c0.1-1.3-0.1-2.5-0.8-3.4c-0.4-0.9-0.6-1.5-1-2c-0.1-0.1-0.1-0.1-0.2-0.2
		c-0.2-0.2-0.4-0.3-0.7-0.4c-0.5-0.2-1.2-0.4-2.2-0.7c-0.4,0.7-0.7,1.4-1,2.1c-0.6,1.1-1.2,2-2.2,2.8c0.2,2.3,0.8,3.7,1.4,4.9
		c0.2,0.3,0.3,0.5,0.5,0.8c0.4,0.7,0.8,1.3,1.2,2.1c0.4,0.8,0.7,1.7,1,2.8c0.1,0,0.1-0.1,0.2-0.2
		C1115.2,137.8,1117,134.9,1117.8,132z"/>
	<path class="st0" d="M493.4,118.9L493.4,118.9c0,0.1-0.1,0.1-0.1,0.2l0,0c0,0.1-0.1,0.2-0.1,0.3c0,0,0,0,0,0.1s-0.1,0.2-0.1,0.3
		c0,0,0,0,0,0.1s0,0.2,0,0.4l0,0c0,0.1,0,0.2,0,0.3c0,0,0,0,0,0.1s0.1,0.2,0.1,0.3l0,0c0,0.1,0.1,0.1,0.2,0.2l0,0
		c0.1,0,0.2,0.1,0.3,0.1l0,0l0,0h0.1c0,0,0,0,0.1,0s0.2-0.1,0.3-0.1c0.9-0.5,0.8-0.9,0.5-1.3S493.6,119.2,493.4,118.9z"/>
	<path class="st0" d="M1200.1,127.2c0.1,0.1,0.4,0,1.8,0.3c0-0.8,0-1.6,0-2.4c-0.5,0-1.1,0-1.6,0l0,0c-0.6,0.7-0.2,0.4-0.4,0.5
		c-0.1,0-0.2,0.1-0.4,0.3l0,0l0,0C1200,126.8,1199.9,127.1,1200.1,127.2z"/>
	<path class="st0" d="M776.1,127.9c0.8-0.1,1.3-0.1,1.7-0.1c0.7,0,0.6-0.1,1.3-1.4c1.1-2.1-1.1-5.2-3.7-6c-1.3,2.5-1.3,3.8-0.4,5.5
		C775.3,126.5,775.7,127.1,776.1,127.9z"/>
	<path class="st0" d="M1162,131c0-0.4-0.1-0.7-0.1-1.1c-0.1-0.6-0.3-1.1-0.6-1.7c0-0.5,0-1.1,0-1.6l0,0c-0.8,0-1.6,0-2.4,0l0,0
		c-0.2,0.5-0.5,1-0.7,1.4c-0.1,0.2-0.2,0.5-0.3,0.7c-0.1,0.3-0.2,0.6-0.3,0.9c-0.1,0.2-0.1,0.5-0.1,0.8c0,0.1,0,0.2,0,0.4
		s0.1,0.5,0.2,0.7c0.1,0.3,0.2,0.5,0.4,0.8c0,0.5,0,1.1,0,1.6c1-0.2,1.5-0.3,2-0.5c0.1-0.1,0.3-0.1,0.4-0.2c0.3-0.1,0.6-0.3,0.9-0.5
		c0.2-0.1,0.5-0.3,0.8-0.4C1162,131.8,1162,131.4,1162,131z"/>
	<path class="st0" d="M869.9,123.4c0.1,1,0.1,1.7,0.2,2.2c0.1,0.4,0.2,0.7,0.3,1s0.3,0.6,0.6,0.9c0.1,0.1,0.3,0.3,0.4,0.5
		c0.1,0.1,0.1,0.2,0.2,0.2l0,0l0.1,0.1c0,0,0,0,0.1,0c0,0,0.1,0,0.1,0.1c0,0,0,0,0.1,0h0.1l0,0l0,0h0.1l0,0c0,0,0.1,0,0.1-0.1l0,0
		l0.1-0.1l0,0c0.1-0.1,0.1-0.1,0.2-0.2l0.1-0.1c0,0,0,0,0.1-0.1s0.1-0.1,0.2-0.2l0,0c0.1,0,0.1-0.1,0.2-0.1c0,0,0,0,0.1,0
		c0.1-0.1,0.2-0.1,0.3-0.2c0-2,0-3.4-0.7-4.5c-0.8-0.6-0.7-0.5-2.2-0.7C870.1,123.2,870.5,122.7,869.9,123.4z"/>
	<path class="st0" d="M956.9,124.2c0.4,0.5,0.3,0.4,0.3,0.4s0.1,0.1,0.4,0.3c0.4-1.1,0.5-1.3,0.8-3c-0.7,0-1.5,0-2.2,0
		C956.4,123.5,956.3,123.4,956.9,124.2z"/>
	<path class="st0" d="M401.2,123.4c0,0.5,0,1,0,1.5c0.5,0,1,0,1.5,0l0,0c0-0.5,0-1,0-1.5l0,0C402.2,123.4,401.7,123.4,401.2,123.4z"
		/>
	<path class="st0" d="M1031.1,128.7c-0.1-1.7-0.1-2.7-0.4-3.4c-0.3-0.6-0.7-1-1.5-1.6c-0.1-0.1-0.2-0.2-0.4-0.3
		c-0.4,0.7-0.7,1.2-1,1.6c-0.2,0.3-0.3,0.6-0.3,1c0,0.2,0,0.4,0,0.5c0.1,0.4,0.2,0.8,0.6,1.3c0,0.5,0,1,0,1.5
		C1029.8,129.2,1030,129.1,1031.1,128.7z"/>
	<path class="st0" d="M999.6,127.2c0.5,0,1,0,1.5,0c0-0.5,0-1,0-1.5c-0.5,0-1,0-1.5,0C999.6,126.2,999.6,126.7,999.6,127.2z"/>
	<path class="st0" d="M369.7,126.4c-0.1,0.1-0.2,0.2-0.3,0.4c0,0,0,0.1-0.1,0.1c0,0.1-0.1,0.2-0.1,0.2v0.1c0,0.1,0,0.2,0,0.2v0.1
		c0,0.1,0,0.2,0.1,0.3l0,0c0.1,0.1,0.1,0.1,0.2,0.2h0.1c0.1,0,0.2,0.1,0.3,0.1h0.1h0.1c0.1,0,0.2,0,0.3,0c0.1,0,0.1,0,0.2,0
		c0.2,0,0.4-0.1,0.6-0.2l0,0l0,0l0,0L369.7,126.4z"/>
	<path class="st0" d="M184.3,150.1c0,1.9-0.9,1,1.4,2.1c-0.4-1-0.4-1.2-0.6-1.4C184.9,150.6,184.7,150.4,184.3,150.1z"/>
	<path class="st0" d="M1088.9,133.1L1088.9,133.1L1088.9,133.1c-0.2,0.8-0.3,1.1-0.4,1.3v0.1c0,0.1,0.1,0.3,0.3,0.8
		c0,0.1,0.1,0.2,0.1,0.3c0.5,0.5,0.3,0.4,0.4,0.5c0,0,0,0,0.1,0s0.2,0.1,0.4,0.3c0.1-0.2,0.2-0.3,0.3-0.3c0.1-0.1,0.1-0.1,0.1-0.1
		l0,0c0,0,0.1,0,0.2-0.1s0.1-0.1,0.3-0.2c-0.4-1.3-0.2-1.6-0.3-1.8C1090.2,133.7,1089.9,133.7,1088.9,133.1z"/>
	<path class="st0" d="M477.7,127.9L477.7,127.9L477.7,127.9c0.2,0.4,0.1,0.7,0,0.9c0,0.1-0.1,0.1-0.1,0.1c0,0.1-0.1,0.1-0.1,0.2
		s-0.1,0.1-0.1,0.2c0,0.2,0.2,0.4,1,0.9c0.3-0.6,0.6-1,0.7-1.2C479.2,128.5,478.9,128.4,477.7,127.9z"/>
	<path class="st0" d="M289.1,151.4L289.1,151.4c0.4,1.2,0.1,0.7,0.7,1.4c0,0.2,0,0.5,0,0.7c0.5,0,0.9,0,1.4,0c0-0.5,0-0.9,0-1.4
		C290.4,151.9,289.7,151.7,289.1,151.4L289.1,151.4z"/>
	<path class="st0" d="M783.6,130.2c0.2,0,0.5,0,0.7,0c-0.5-1.3-0.1-0.7-0.7-1.5C783.6,129.2,783.6,129.7,783.6,130.2z"/>
	<path class="st0" d="M1045.4,131.7L1045.4,131.7c0-0.2,0-0.5,0-0.7c0.2-0.3,0.3-0.4,0.4-0.5s0.1-0.1,0.1-0.4c0-0.1,0.1-0.4,0.2-0.7
		c-0.7-0.2-1.5-0.5-2.2-0.7c0,0.1,0,0.2-0.1,0.3c-0.1,0.3-0.2,0.6-0.2,0.7v0.1c0,0.1,0,0.1,0,0.1v0.1c0,0,0,0.1,0.1,0.2
		c0,0.1,0.1,0.3,0.2,0.5c0,0.1,0.1,0.2,0.1,0.2c0.1,0.1,0.2,0.1,0.2,0.2c0.2,0.2,0.2,0.2,0.4,0.3c0,0,0.1,0,0.2,0.1
		C1044.8,131.5,1045,131.5,1045.4,131.7L1045.4,131.7z"/>
	<path class="st0" d="M263,154.9c0,0.2,0,0.5,0,0.7c1.7-1,0.8,0.2,1.4-2.1c-0.7,0-1.4,0-2.1,0l0,0c0.1,0.1,0.1,0.3,0.1,0.4
		C262.7,154.6,262.6,154.3,263,154.9z"/>
	<path class="st0" d="M1084,138c0.5,0.4,0.5,0.4,0.7,0.5c0.1,0,0.4,0.1,0.9,0.3l0,0l0,0c0-0.3,0-0.5,0-0.8l0,0
		C1085.1,138,1084.6,138,1084,138z"/>
	<path class="st0" d="M1093,138c-0.1,0.6-0.2,0.9-0.3,1.1c-0.1,0.2-0.1,0.2-0.1,0.3c0,0.2,0.1,0.4,0.4,1c0,0.3,0,0.5,0,0.8
		c0.5,0,1.1,0,1.6,0l0,0c0-1.1,0-2.2,0-3.2l0,0C1094,138,1093.5,138,1093,138z"/>
	<path class="st0" d="M1171.5,139.1c-0.1-0.2-0.1-0.4-0.2-0.4s0-0.1,0-0.1s-0.2,0.1-1.2-0.5l0,0l0,0c0,0.8,0,1.6,0,2.4l0,0
		c0.3,0,0.5,0,0.8,0c0.1-0.1,0.2-0.2,0.2-0.3c0.2-0.2,0.1-0.2,0.1-0.2s0,0,0.2-0.1c0.1-0.1,0.1-0.1,0.3-0.2
		c-0.1-0.1-0.1-0.2-0.2-0.3C1171.5,139.2,1171.5,139.1,1171.5,139.1z"/>
	<path class="st0" d="M1138.1,139.4L1138.1,139.4c-0.1-0.2-0.2-0.3-0.5-0.6l0,0l0,0c0,0.5,0,1.1,0,1.6l0,0c0.3,0,0.5,0,0.8,0l0,0
		C1138.2,139.8,1138.2,139.6,1138.1,139.4z"/>
	<path class="st0" d="M414.7,136.2c0-0.2,0-0.5,0-0.8c0.2,0,0.5,0,0.7,0c0-0.2,0-0.5,0-0.7c-0.5,0-1,0-1.5,0l0,0
		c0.3,0.8,0.3,0.9,0.4,1C414.4,135.8,414.5,135.9,414.7,136.2z"/>
	<path class="st0" d="M276.7,159c0,0.5,0,0.9,0,1.4c0.2,0,0.5,0,0.7,0C277,159.2,277.3,159.7,276.7,159z"/>
	<path class="st0" d="M1065.9,144.1c0.1-0.1,0.2-0.3,0.3-0.4c-0.5,0-1.1,0-1.6,0l0,0l0,0c0.2,0.1,0.3,0.2,0.4,0.3l0.1,0.1
		c0.1,0.1,0.1,0.1,0.2,0.2c0.1,0.1,0.1,0.1,0.1,0.2l0,0c0,0,0,0,0.1,0l0,0l0,0l0,0c0,0,0-0.1,0.1-0.1c0,0,0,0,0-0.1
		C1065.7,144.3,1065.8,144.2,1065.9,144.1z"/>
	<path class="st0" d="M361.8,140.1c0.1,0.1,0.1,0.2,0.4,0.6c0,0.2,0,0.5,0,0.7l0,0l0,0c0.4-0.2,0.6-0.3,0.8-0.4
		c0.1-0.1,0.2-0.1,0.3-0.1c0.1-0.1,0.2-0.1,0.2-0.2c0-0.2,0-0.5,0.3-1.6c-0.7,0-1.5,0-2.2,0C361.7,139.8,361.7,140,361.8,140.1z"/>
	<path class="st0" d="M1122.2,146.1L1122.2,146.1L1122.2,146.1c0,0.5,0,1.1,0,1.6l0,0c0.3,0,0.5,0,0.8,0l0,0c-0.3-0.9-0.3-1-0.4-1.1
		c0-0.1-0.1-0.1-0.2-0.3C1122.4,146.3,1122.3,146.3,1122.2,146.1z"/>
	<path class="st0" d="M1175.8,149.4c0-0.2,0.1-0.4,0.1-0.6c0-0.2,0.1-0.3,0.1-0.4c0.2-0.4,0.2-0.4,0-0.9c-0.1-0.1-0.2-0.3-0.3-0.6
		c-0.3,0.8-0.5,1.6-0.8,2.4l0,0C1175.3,149.4,1175.6,149.4,1175.8,149.4z"/>
	<path class="st0" d="M1253.5,148c0,0.1-0.1,0.1-0.1,0.2c0,0-0.1,0.1-0.1,0.2s-0.1,0.1-0.2,0.3c0,0.5,0.1,1,0.1,1.3
		c0,0.2,0,0.4,0.1,0.5c0.1,0.3,0.1,0.6,0.2,0.9c0,0.1,0.1,0.3,0.1,0.4c0.1,0.3,0.2,0.6,0.3,0.9c1.4-0.2,1.8-0.3,2.5-0.5
		c0.2-0.1,0.5-0.2,0.8-0.3l0,0c0-1.6,0-3.3,0-4.9c-1.1,0-2.2,0-3.2,0C1253.6,147.7,1253.5,147.9,1253.5,148z"/>
	<path class="st0" d="M392.9,142.9c0.7,0,1.5,0,2.2,0c0-0.2,0-0.5,0-0.7c-0.7-0.2-1.5-0.5-2.2-0.7
		C392.9,141.9,392.9,142.4,392.9,142.9z"/>
	<path class="st0" d="M870.3,142.1V142c0-0.1-0.1-0.1-0.1-0.2s-0.2-0.2-0.3-0.4c0,0.5,0,1,0,1.5c0.2,0,0.5,0,0.7,0
		C870.5,142.4,870.4,142.2,870.3,142.1z"/>
	<path class="st0" d="M330.1,143.2c-0.1-0.1-0.3,0-1.7-0.3c0,0.5,0,1,0,1.5c0.7,0,1.5,0,2.2,0c-0.3-0.5-0.4-0.8-0.5-0.9
		C330.2,143.3,330.1,143.3,330.1,143.2z"/>
	<path class="st0" d="M1061.8,152.1c0-0.1,0-0.1,0-0.2c0-0.1,0-0.2,0-0.2s0,0,0-0.1c0,0,0-0.1-0.1-0.1s-0.3-0.1-0.6-0.3
		c-0.2-0.1-0.4-0.2-0.6-0.3l0,0l0,0c-0.1,0.3-0.1,0.6-0.2,0.8s-0.1,0.4-0.2,0.5c0,0.1,0,0.1,0,0.1c0,0.1,0.1,0.3,0.3,0.8
		c0,0.1,0.1,0.2,0.1,0.3c0.5,0.5,0.3,0.4,0.4,0.5c0,0,0,0,0.1,0s0.2,0.1,0.4,0.3c0.1-0.1,0.2-0.2,0.2-0.3c0.3-0.4,0,0,0.3-0.3
		c0.1-0.1,0.1-0.1,0.3-0.2C1061.9,152.8,1061.8,152.4,1061.8,152.1z"/>
	<path class="st0" d="M271.9,168.6c0.9-0.2,1.2-0.2,1.5-0.3c0.2-0.1,0.3-0.2,0.6-0.4c0.2,0,0.5,0,0.7,0l0,0l0,0c0-0.5,0-0.9,0-1.4
		c-1.1-0.2-2.3-0.5-3.4-0.7C270.9,168,270.8,166.7,271.9,168.6z"/>
	<path class="st0" d="M450.7,145.2L450.7,145.2L450.7,145.2c0.1,0.2,0.2,0.4,0.2,0.5v0.1c0,0.1,0,0.1-0.1,0.1
		c-0.2,0.3-0.6,0.5,0.7,1.5l0,0l0,0C452.2,146.2,450.9,145.4,450.7,145.2z"/>
	<path class="st0" d="M241.8,167.9c0-0.2,0-0.5,0-0.7c-0.5,0-0.9,0-1.4,0c0.4,0.3,0.4,0.3,0.5,0.4
		C241,167.6,241.2,167.7,241.8,167.9L241.8,167.9z"/>
	<path class="st0" d="M1166.9,154.3c0.5,0.4,0.5,0.4,0.7,0.5c0.1,0,0.4,0.1,0.9,0.3c0-0.3,0-0.5,0-0.8
		C1168,154.3,1167.4,154.3,1166.9,154.3L1166.9,154.3z"/>
	<path class="st0" d="M256.2,168.6c-0.5,0-0.9,0-1.4,0c0,0.5,0,0.9,0,1.4c0.5,0,0.9,0,1.4,0C256.2,169.5,256.2,169,256.2,168.6z"/>
	<path class="st0" d="M406.4,148.9c-0.5-0.6-0.6-0.8-0.8-1c-0.2-0.1-0.5-0.2-1.4-0.5l0,0l0,0c0.2,0.7,0.5,1.5,0.7,2.2
		c0.5,0.2,1,0.5,1.5,0.7c0-0.2,0-0.5,0-0.7c0,0,1.5,0,0.7-0.7C406.9,148.9,406.7,148.9,406.4,148.9z"/>
	<path class="st0" d="M1037.1,148.2c0-0.2,0-0.5,0-0.7l0,0c-0.5,0-1,0-1.5,0l0,0c0,1,0,2,0,3c0.7,0,1.5,0,2.2,0
		c-0.1-0.6-0.2-0.9-0.2-1.2C1037.6,148.8,1037.5,148.7,1037.1,148.2z"/>
	<path class="st0" d="M1009.9,150.1c-0.1-0.3-0.2-0.6-0.3-0.9c-0.1-0.1-0.1-0.2-0.2-0.3c-0.3-0.2-0.5-0.3-0.7-0.4
		c-0.1-0.1-0.2-0.1-0.4-0.1c-0.1,0-0.2,0-0.3-0.1c-0.2,0-0.5-0.1-0.9-0.2l0,0l0,0c0.1,0.9,0.1,1.4,0.2,1.8c0.1,0.4,0.2,0.7,0.5,1.2
		c0.8,0.6,0.7,0.5,2.2,0.7c0-0.4-0.1-0.8-0.1-1.1C1010,150.5,1009.9,150.3,1009.9,150.1z"/>
	<path class="st0" d="M446.2,148.9L446.2,148.9L446.2,148.9c0,0.5,0,1,0,1.5l0,0c0.2,0,0.5,0,0.7,0c-0.2-0.5-0.2-0.7-0.3-0.8
		C446.6,149.4,446.6,149.4,446.2,148.9z"/>
	<path class="st0" d="M423.5,156.1c-0.1,0-0.1,0.1-0.2,0.1s-0.2,0.1-0.2,0.2c-0.1,0-0.1,0.1-0.2,0.1l0,0c-0.4,0-0.8,0-1.1,0
		c-0.1,0-0.2,0-0.3,0c-0.2,0-0.5,0-0.7,0s-0.3,0-0.4,0c-0.2,0-0.4,0-0.6,0c-0.1,0-0.3,0-0.4,0c-0.2,0-0.4,0-0.5-0.1
		c-0.1,0-0.2,0-0.4,0c-0.2,0-0.3-0.1-0.5-0.1c-0.1,0-0.2,0-0.3-0.1c-0.2,0-0.3-0.1-0.5-0.1c-0.1,0-0.1,0-0.2-0.1
		c-0.2-0.1-0.4-0.2-0.6-0.3c0,0-0.1,0-0.1-0.1c-0.2-0.1-0.3-0.2-0.4-0.3c-0.1,0-0.1-0.1-0.2-0.1c-0.1-0.1-0.2-0.2-0.3-0.3
		c-0.1-0.1-0.1-0.1-0.2-0.2c-0.1-0.1-0.2-0.2-0.2-0.3c-0.1-0.1-0.1-0.1-0.2-0.2c-0.1-0.1-0.1-0.2-0.2-0.3c0-0.1-0.1-0.2-0.1-0.3
		c-0.1-0.1-0.1-0.2-0.2-0.4c0-0.1-0.1-0.2-0.1-0.3c-0.1-0.1-0.1-0.3-0.2-0.4c0-0.1-0.1-0.2-0.1-0.3c0-0.2-0.1-0.3-0.1-0.5
		c0-0.1-0.1-0.2-0.1-0.3c0-0.2-0.1-0.4-0.1-0.6c0-0.1,0-0.2-0.1-0.3c-0.1-0.3-0.1-0.6-0.2-1c-0.7,0.2-1.1,0.3-1.5,0.5
		c-0.2,0.1-0.3,0.2-0.4,0.2c-0.2,0.1-0.3,0.2-0.3,0.3s-0.1,0.1-0.1,0.2c0,0.5,0.6,1,0.6,1.7c0,0.1,0,0.1,0,0.2
		c-0.1,0.2-0.2,0.5-0.5,0.7c-0.2,0.2-0.5,0.4-0.8,0.7c0.1,0.3,0.1,0.7,0.2,1c0,0.1,0.1,0.2,0.1,0.3c0.1,0.2,0.1,0.4,0.2,0.6
		c0,0.1,0.1,0.2,0.2,0.3c0.1,0.2,0.2,0.3,0.3,0.5c0.1,0.1,0.1,0.2,0.2,0.3s0.2,0.3,0.3,0.4c0.1,0.1,0.2,0.2,0.2,0.3
		c0.1,0.1,0.2,0.2,0.3,0.4c0.1,0.1,0.2,0.2,0.3,0.3c0.1,0.1,0.3,0.2,0.4,0.3s0.2,0.2,0.3,0.2c0.1,0.1,0.3,0.2,0.4,0.3
		s0.2,0.1,0.3,0.2c0.2,0.1,0.3,0.2,0.5,0.2c0.1,0.1,0.2,0.1,0.4,0.2c0.2,0.1,0.4,0.1,0.5,0.2c0.1,0,0.2,0.1,0.4,0.1
		c0.2,0.1,0.4,0.1,0.6,0.2c0.1,0,0.2,0.1,0.4,0.1c0.2,0.1,0.5,0.1,0.7,0.2c0.1,0,0.2,0,0.3,0.1c0.3,0.1,0.7,0.1,1.1,0.2
		c0,0,0,0,0.1,0c0.3,0,0.7,0.1,1,0.1c0.1,0,0.3,0,0.4,0c0.3,0,0.5,0,0.8,0c0.2,0,0.3,0,0.5,0s0.4,0,0.5,0h0.1c0.5,0,0.9,0,1.4,0
		c0.1-1,0.1-1.6,0.2-2c0.1-0.7,0.4-0.9,1.3-1.7c0-0.5,0-1,0-1.5c-0.2,0-0.4,0.1-0.5,0.1C424,155.9,423.8,155.9,423.5,156.1z"/>
	<path class="st0" d="M768.4,152.2c0-0.2-0.1-0.3-0.1-0.4c-0.1-0.2-0.2-0.4-0.4-0.7c0-0.2,0-0.5,0-0.7c-0.5,0-1,0-1.5,0c0,1,0,2,0,3
		c0.7,0,1.5,0,2.2,0C768.5,152.8,768.5,152.5,768.4,152.2z"/>
	<path class="st0" d="M1043.4,163.2c-0.2-1.9-0.4-2.6-0.8-3.3c-0.1-0.2-0.2-0.4-0.3-0.6c-0.2-0.3-0.3-0.6-0.6-1l0,0l0,0
		c-0.8,0-1.6,0-2.4,0c-0.8,1.5-1.3,2.6-1.3,3.7c0,1.1,0.4,2.1,1.3,3.7c0.2,0,0.4-0.1,0.6-0.1c0.6-0.1,0.9-0.2,1.2-0.2
		c0.4-0.1,0.8-0.3,1.4-0.5C1043.1,163.4,1042.7,164,1043.4,163.2z"/>
	<path class="st0" d="M455.3,151.5c0-0.1-0.1-0.1-0.3-0.1c-0.2,0-0.6-0.1-1.4-0.2c0,0.5,0,1,0,1.5c0.7,0,1.5,0,2.2,0
		c-0.1-0.2-0.2-0.4-0.3-0.6C455.4,151.7,455.4,151.5,455.3,151.5z"/>
	<path class="st0" d="M793.4,156.4c0.3-0.3,0.3-0.4,0.3-0.4s-0.1,0.1,0.4-0.3c-0.1-1.4-0.1-2.1-0.2-2.5c0-0.1-0.1-0.2-0.2-0.3
		c-0.3-0.3-0.8-0.5-1.8-0.9c-0.5,1.9-0.5,1.9,0,3.7C792.4,155.9,792.9,156.2,793.4,156.4z"/>
	<path class="st0" d="M798.4,152.6c-0.1-0.1-0.3-0.4-0.5-0.7c0,0.5,0,1,0,1.5c0.5-0.3,0.7-0.4,0.8-0.5v-0.1
		C798.7,152.8,798.6,152.7,798.4,152.6z"/>
	<path class="st0" d="M851.9,153.4c0-0.2,0-0.5,0-0.7c0.2,0,0.5,0,0.7,0c0-0.2,0-0.5,0-0.7c-0.5,0-1,0-1.5,0
		C851.6,153.2,851.3,152.6,851.9,153.4z"/>
	<path class="st0" d="M966.6,152.7c0-0.2,0-0.5,0-0.7c-0.5,0-1,0-1.5,0c0,1,0,2,0,3c0.7,0,1.5,0,2.2,0
		C967.1,153.4,967.2,153.5,966.6,152.7z"/>
	<path class="st0" d="M293.9,173.4c0,0.7,0,1.4,0,2.1c0.9,0,1.8,0,2.7,0l0,0c0-0.5,0-0.9,0-1.4c-0.1,0-0.2-0.1-0.4-0.1
		C295.5,173.6,295.3,173.5,293.9,173.4z"/>
	<path class="st0" d="M1073.5,160.8L1073.5,160.8c-0.1,0.1-0.2,0.2-0.2,0.3c-0.3,0.4,0,0-0.3,0.3c-0.1,0.1-0.1,0.1-0.3,0.2
		c0.4,1.1,0.3,1,0.5,1.2c0,0,0.1,0.1,0.1,0.2c0.1,0.1,0.1,0.1,0.2,0.3c0.9,0.6,0.8,0.5,2.4,0.8l0,0l0,0c0-1.1,0-2.2,0-3.2l0,0
		C1075.1,160.8,1074.3,160.8,1073.5,160.8z"/>
	<path class="st0" d="M1162,161.6L1162,161.6c0,0.5,0,1.1,0,1.6l0,0c0.5,0,1.1,0,1.6,0l0,0c0-0.5,0-1.1,0-1.6l0,0
		C1163.1,161.6,1162.6,161.6,1162,161.6z"/>
	<path class="st0" d="M1007.1,154.2c1,1.2,0.5,0.9,2.2,1.5C1008.3,153.8,1009.5,154.8,1007.1,154.2z"/>
	<path class="st0" d="M1196.7,163.8c-0.2-1.2,0.3-0.4-1.4-1.4l0,0l0,0c0,0.8,0,1.6,0,2.4l0,0c0.5,0,1.1,0,1.6,0
		c0-0.2-0.1-0.3-0.1-0.4C1196.8,164.1,1196.8,164,1196.7,163.8z"/>
	<path class="st0" d="M1249.8,164.8c0-0.5,0-1.1,0-1.6c-0.8-0.3-1.6-0.5-2.4-0.8l0,0l0,0c-0.3,0.8-0.5,1.6-0.8,2.4
		C1247.6,164.8,1248.7,164.8,1249.8,164.8L1249.8,164.8z"/>
	<path class="st0" d="M1031.8,164.5L1031.8,164.5c0.1,0,0.2-0.1,0.2-0.1h0.1c0.1,0,0.1-0.1,0.2-0.1c0,0,0.1,0,0.1-0.1
		c0.1-0.1,0.2-0.1,0.4-0.2c-1-1-0.7-0.4-2.4-0.8c0.1,0.1,0.2,0.2,0.3,0.2c0,0,0,0,0.1,0.1s0.1,0.1,0.1,0.2c0,0,0,0,0.1,0.1
		s0.1,0.1,0.1,0.2l0,0c0,0.1,0.1,0.1,0.1,0.2l0.1,0.1c0,0,0,0,0,0.1c0,0,0,0.1,0.1,0.1l0,0l0.1,0.1l0,0h0.1l0,0l0,0
		C1031.7,164.6,1031.7,164.6,1031.8,164.5z"/>
	<path class="st0" d="M1031,157.6c-0.1,0.5-0.1,0.2,1.6,1c-0.4-1.4-0.2-1.6-0.3-1.7c0,0-0.1,0-0.1-0.1c-0.1,0-0.2-0.1-0.3-0.1
		c-0.2-0.1-0.4-0.2-0.8-0.4C1031.1,157.1,1031,157.4,1031,157.6z"/>
	<path class="st0" d="M1182.8,166.4c-0.1-0.2-0.2-0.4-0.4-0.7c-0.4-0.4-0.4-0.5-0.4-0.5s0,0-0.1,0s-0.2-0.1-0.4-0.3
		c-0.1,0.2-0.1,0.3-0.2,0.4c-0.1,0.4-0.2,0.6-0.3,1c-0.1,0.4-0.2,0.9-0.3,1.9c0.8,0,1.6,0,2.4,0l0,0c-0.2-0.8-0.2-1.2-0.3-1.5
		C1182.8,166.5,1182.8,166.4,1182.8,166.4z"/>
	<path class="st0" d="M468.7,157.2c0,0.5,0,1,0,1.5l0,0c0.5,0,1,0,1.5,0c0-0.5,0-1,0-1.5C469.7,157.2,469.2,157.2,468.7,157.2
		L468.7,157.2z"/>
	<path class="st0" d="M970.4,157.2c-0.5,0-1,0-1.5,0c0.8,0.6,0.2,0.3,1.5,0.7C970.4,157.7,970.4,157.4,970.4,157.2z"/>
	<path class="st0" d="M1077.7,169.5c0.2-0.3,0.1-0.2,0.2-0.2c0,0,0,0,0.1,0s0.2-0.1,0.4-0.3c-0.2-1.3-0.3-1.8-0.4-2.1
		c-0.1-0.1-0.1-0.2-0.2-0.3s-0.2-0.2-0.3-0.3c-0.2-0.1-0.4-0.3-0.7-0.6c-0.1,0.2-0.1,0.4-0.2,0.6c-0.4,1.2-0.6,1.3,0.2,2.7
		c0.7,0.8,0.1,0.2,0.6,0.6c0.1,0.1,0.1,0.1,0.3,0.2C1077.6,169.6,1077.7,169.5,1077.7,169.5z"/>
	<path class="st0" d="M429.8,158.3c-0.3-0.1-0.6-0.2-0.9-0.3l0,0l0,0c-0.5,1.9-0.5,1.9,0,3.7l0,0l0,0c1.9-0.1,2.8-0.1,3.7-0.7
		C432.7,159.6,431.8,159,429.8,158.3z"/>
	<path class="st0" d="M836.9,158.7c0.7,1.1-1.1,0.8,0.7,2.2c0.2-0.3,0.2-0.6,0.2-0.8C837.8,159.3,837,158.9,836.9,158.7z"/>
	<path class="st0" d="M939.3,159.3c0-0.1,0-0.1-0.1-0.2s-0.1-0.1-0.2-0.2c0-0.1-0.1-0.1-0.2-0.2c0,0.5,0,1,0,1.5c0.2,0,0.5,0,0.7,0
		c-0.1-0.2-0.1-0.3-0.1-0.4C939.4,159.5,939.4,159.4,939.3,159.3z"/>
	<path class="st0" d="M1294,168.3c0-0.1-0.1-0.1-0.1-0.3s-0.1-0.4-0.3-0.7c-0.8,0-1.6,0-2.4,0c-0.5,1.4-0.2,0.8-0.8,1.6
		c0.2,1.9,0.2,2.3,0.8,3.2c0.4,0.3,0.5,0.4,0.6,0.5c0.1,0,0.1,0.1,0.3,0.1c0.2,0,0.4,0.1,0.7,0.3c0.3-0.8,0.5-1.6,0.8-2.4
		c0.2-0.2,0.3-0.3,0.3-0.4c0.2-0.2,0.1-0.2,0.5-1.2c-0.1-0.1-0.1-0.2-0.2-0.3C1294.1,168.5,1294,168.4,1294,168.3z"/>
	<path class="st0" d="M1043.9,169.5c-0.1-0.5-0.3-0.6-0.8-1c-0.1-0.1-0.3-0.2-0.5-0.4c-0.6,1.3-0.8,1.5-0.9,1.8c0,0.1,0,0.2,0,0.3
		s0,0.2,0,0.4c0,0.3,0.1,0.8,0.1,1.6l0,0c0.5,0,1.1,0,1.6,0c0.2-0.2,0.3-0.3,0.3-0.4c0.1-0.2-0.2,0.1,0.5-0.4
		c-0.2-0.8-0.2-1.3-0.3-1.6C1043.9,169.6,1043.9,169.6,1043.9,169.5z"/>
	<path class="st0" d="M968.4,160.8L968.4,160.8c0.1-0.1,0.1-0.2,0.2-0.3c0.1-0.1,0.2-0.2,0.3-0.4c-0.5,0-1,0-1.5,0
		c0.2,0.1,0.3,0.2,0.4,0.3l0.1,0.1c0.1,0.1,0.1,0.1,0.1,0.2c0.1,0.1,0.1,0.1,0.1,0.1l0,0c0,0,0,0,0.1,0l0,0l0,0
		C968.3,160.9,968.3,160.9,968.4,160.8C968.3,160.9,968.4,160.9,968.4,160.8z"/>
	<path class="st0" d="M214.4,180.9L214.4,180.9c0,0.1,0,0.2,0,0.3c0,0.2,0,0.4,0,0.5c-0.1,0.9-0.2,0.7,2.1,1.2c0-0.5,0-0.9,0-1.4
		C215.8,181.4,215.1,181.1,214.4,180.9L214.4,180.9z"/>
	<path class="st0" d="M1022.9,165.4c0.2,0,0.5,0,0.7,0l0,0l0,0c-0.1-0.8-0.2-1.5-0.3-2c-0.2-1-0.5-1.7-1.2-2.5
		c0.1,1.9,0.1,2.8,0.7,3.7C1022.9,164.9,1022.9,165.2,1022.9,165.4L1022.9,165.4z"/>
	<path class="st0" d="M1037.1,160.9c-0.7,0-1.5,0-2.2,0c-0.2,0.7-0.5,1.5-0.7,2.2c-0.2,0.5-0.3,0.9-0.3,1.4c0,0.3,0.1,0.6,0.2,0.9
		c0.2,0.5,0.5,0.9,0.9,1.5c0,0.2,0,0.5,0,0.7c1.7-0.6,1.7-0.8,3-1.5c-0.1-1.9-0.1-2.8-0.7-3.7
		C1037.1,161.9,1037.1,161.4,1037.1,160.9z"/>
	<path class="st0" d="M254.6,182l0.1,0.1c0,0.1,0.1,0.1,0.1,0.1l0,0c0,0,0,0,0.1,0l0,0l0,0l0,0c0,0,0,0,0.1-0.1c0,0,0,0,0-0.1
		s0.1-0.1,0.1-0.2c0.1-0.1,0.1-0.2,0.2-0.3c-0.5,0-0.9,0-1.4,0c0.1,0.1,0.3,0.2,0.3,0.3C254.5,181.9,254.5,181.9,254.6,182z"/>
	<path class="st0" d="M1035,172.3c0-0.1,0.1-0.4,0.3-0.9l0,0l0,0c-0.3,0-0.5,0-0.8,0c-0.1-0.1-0.2-0.1-0.3-0.2
		c-0.1-0.1-0.1-0.1-0.2-0.1c-0.2-0.2-0.2-0.1-1.2-0.5c-0.4,1.2-0.6,1.4-0.8,3.2c1.7-0.3,1.6-0.2,2.4-0.8
		C1034.9,172.4,1034.9,172.5,1035,172.3z"/>
	<path class="st0" d="M1004.1,164.7c0.7,0,1.5,0,2.2,0c-0.2-0.4-0.3-0.7-0.3-1c0-0.1-0.1-0.2-0.1-0.3c-0.1-0.1-0.1-0.2-0.2-0.3
		c-0.1-0.1-0.4-0.3-0.8-0.7C1004.6,163.2,1004.4,163.9,1004.1,164.7z"/>
	<path class="st0" d="M834.6,164.7c0.2,0,0.5,0,0.7,0c-0.5-1.3-0.1-0.7-0.7-1.5C834.6,163.7,834.6,164.2,834.6,164.7z"/>
	<path class="st0" d="M1045.4,163.2L1045.4,163.2c0,0.1,0,0.2-0.1,0.3c-0.1,0.3-0.1,0.4-0.2,0.6c-0.1,0.3-0.2,0.3-0.1,0.5
		c0,0.1,0.1,0.3,0.2,0.5c0,0.1,0.1,0.2,0.2,0.3l0,0l0,0l0,0c0.1,0.1,0.2,0.2,0.3,0.2c0.2,0.1,0.2,0.2,0.4,0.2c0.1,0,0.4,0.1,0.8,0.3
		c0-0.2,0-0.5,0-0.7c0.5-0.6,0.4-0.4,0.5-0.8c0-0.1,0.1-0.4,0.2-0.7C1046.9,163.7,1046.1,163.4,1045.4,163.2L1045.4,163.2z"/>
	<path class="st0" d="M872.9,163.9c-1.6,2.8-2.3,5.5,0.7,7.5c0.8,0.6,0.2,0.3,1.5,0.8c0.7-0.9,1.5-2.2,2.2-3
		C876.8,166,875.7,164.8,872.9,163.9z"/>
	<path class="st0" d="M887.8,165.2c0,0.1,0.1,0.3,0.3,0.5c0.1,0.1,0.3,0.3,0.5,0.5c0.8-1.2-0.5-2-0.7-2.2c0.2,0.4,0.2,0.6,0.1,0.7
		c0,0.1-0.1,0.1-0.1,0.2s-0.1,0.1-0.1,0.2V165.2C887.8,165.2,887.7,165.2,887.8,165.2z"/>
	<path class="st0" d="M882.8,165.8c0,0.1,0.1,0.2,0.1,0.3s0.1,0.2,0.1,0.3c0.1,0.1,0.1,0.2,0.4,0.6c0-0.2,0-0.5,0-0.7
		c0.2,0,0.5,0,0.7,0c0-0.2,0-0.5,0-0.7l0,0c-0.5,0-1,0-1.5,0l0,0l0,0C882.7,165.6,882.7,165.7,882.8,165.8z"/>
	<path class="st0" d="M280.8,185.7c-0.5,0-0.9,0-1.4,0c0.7,0.6,0.2,0.3,1.4,0.7C280.8,186.1,280.8,185.9,280.8,185.7z"/>
	<path class="st0" d="M1075.7,177.4c-0.1-0.5-0.2-0.6-0.6-1.2l0,0l0,0c-0.3,0.8-0.5,1.6-0.8,2.4c0.5,0,1.1,0,1.6,0l0,0
		c0-0.2-0.1-0.4-0.1-0.5C1075.7,177.8,1075.7,177.6,1075.7,177.4z"/>
	<path class="st0" d="M1023.6,171.4c0.9-1.3,0.9-2.4,0-3.7C1023.6,168.9,1023.6,170.2,1023.6,171.4z"/>
	<path class="st0" d="M247,190.8c0.3,0.2,0.6,0.2,1.6,0.4l0,0l0,0c-0.1-0.8-0.2-1.2-0.3-1.6c0-0.2-0.1-0.3-0.2-0.5
		c-0.1-0.2-0.1-0.4-0.2-0.6c-0.5-0.2-0.9-0.5-1.4-0.7c-0.6,0.7,0.1,0.1-0.7,0.7c0.3,1.4,0.2,1.3,0.7,2.1
		C246.8,190.6,246.9,190.7,247,190.8z"/>
	<path class="st0" d="M1152.9,181.8C1152.9,181.8,1152.9,181.9,1152.9,181.8c0.1,0.1,0.2,0.2,0.2,0.2c0.1,0.1,0.2,0.2,0.4,0.3
		c0.1,0.1,0.3,0.2,0.4,0.3s0.2,0.2,0.2,0.3c0.1,0.1,0.1,0.2,0.1,0.2l0,0c0,0,0.1,0,0.2,0.1s0.1,0.1,0.3,0.2c0.2-0.2,0.3-0.4,0.4-0.6
		c0.1-0.1,0.2-0.2,0.3-0.3c0,0,0.1-0.1,0.2-0.1c0.2-0.1,0.4-0.3,0.8-0.6c-0.1-1.2-0.2-2-0.4-2.4c-0.1-0.5-0.4-0.7-0.8-0.9
		c-0.3-0.2-0.7-0.4-1.3-0.7l0,0l0,0c-0.3,0.8-0.5,1.6-0.8,2.4c-0.3,0-0.5,0-0.8,0c0.1,0.4,0.2,0.6,0.3,0.8
		C1152.7,181.5,1152.8,181.7,1152.9,181.8z"/>
	<path class="st0" d="M260.3,191.2c0.9,0,1.8,0,2.7,0c-0.5-1.6-0.7-1.5-1.4-2.7c-0.9,0-1.8,0-2.7,0
		C258.9,190.5,258.8,189.3,260.3,191.2z"/>
	<path class="st0" d="M757.4,169.2c1,1.2,0.5,0.9,2.2,1.5C758.5,168.8,759.8,169.8,757.4,169.2z"/>
	<path class="st0" d="M1071,178.6c0.3,1.7,0.2,1.6,0.8,2.4c0.1,0.1,0.2,0.1,0.3,0.2c0,0,0,0,0.1,0s0.1,0.1,0.1,0.1l0,0
		c0,0,0.1,0,0.1,0.1l0,0c0,0,0,0,0.1,0l0,0l0,0l0,0l0,0l0,0l0,0l0,0l0,0l0,0c0,0,0,0,0.1-0.1l0,0c0,0,0.1,0,0.1-0.1c0,0,0,0,0.1,0
		c0,0,0.1,0,0.2,0c0,0,0,0,0.1,0s0.2,0,0.3,0l0,0c0.3-0.5,0.5-1.1,0.8-1.6c-0.6-0.2-1-0.4-1.4-0.5S1072,178.8,1071,178.6z"/>
	<path class="st0" d="M990.6,169.9c-0.6,2.2-1,2.2,0.7,3.7c0,0.2,0,0.5,0,0.7l0,0c0.2,0,0.5,0,0.7,0l0,0c0-0.2,0-0.5,0-0.7
		c0.5,0,1,0,1.5,0C993.1,170.8,993.1,170.8,990.6,169.9z"/>
	<path class="st0" d="M1053.2,180.9c-0.1-0.2-0.2-0.4-0.4-0.6c-0.1-0.2-0.3-0.5-0.5-0.8l0,0c-0.5,0-1.1,0-1.6,0
		c-0.1,0.2-0.1,0.3-0.2,0.4c-0.3,0.8-0.4,1.1-0.6,2.2c0,0.2-0.1,0.4-0.1,0.6c0.5,0.1,0.8,0.1,1.1,0.2c0.9,0.2,1.2,0.3,2.1,0.6
		c0.1-0.2,0.2-0.3,0.3-0.3c0.1-0.1,0.1-0.1,0.1-0.1s0,0,0.1,0s0.2-0.1,0.4-0.3c-0.1-0.2-0.1-0.4-0.2-0.6
		C1053.6,181.5,1053.4,181.2,1053.2,180.9z"/>
	<path class="st0" d="M1080.3,179.9c-0.1-0.1-0.2-0.2-0.3-0.4c0,0.5,0,1.1,0,1.6c0.3,0,0.5,0,0.8,0l0,0c-0.1-0.2-0.1-0.3-0.2-0.4
		C1080.4,180.1,1080.5,180.1,1080.3,179.9z"/>
	<path class="st0" d="M969.6,172.2c0.2,0,0.5,0,0.8,0c0-0.2,0-0.5,0-0.8c-0.5,0-1,0-1.5,0c0.5,1.3,0.1,0.7,0.7,1.5
		C969.6,172.7,969.6,172.4,969.6,172.2z"/>
	<path class="st0" d="M1004.3,173.3c0.1,0.1,0.3,0.2,0.6,0.4c0.9-1.6,1.2-1.5-0.7-2.2c0.2,0.6,0,0.9-0.1,1.1
		c-0.1,0.1-0.1,0.2-0.1,0.3C1003.9,172.9,1004,173,1004.3,173.3z"/>
	<path class="st0" d="M1077.5,183.5c0,0.5,0,1.1,0,1.6C1079,184.4,1078.4,184.9,1077.5,183.5z"/>
	<path class="st0" d="M271.3,193.2c0,0.5,0,0.9,0,1.4l0,0c0.5,0,0.9,0,1.4,0l0,0c0-0.5,0-0.9,0-1.4l0,0
		C272.2,193.2,271.7,193.2,271.3,193.2L271.3,193.2z"/>
	<path class="st0" d="M767.9,178.2c1.3-0.5,0.7-0.1,1.5-0.7c0.2,0,0.5,0,0.7,0c0-0.2,0-0.5,0-0.7l0,0c-0.7-0.2-1.5-0.5-2.2-0.7
		C767.9,176.7,767.9,177.4,767.9,178.2z"/>
	<path class="st0" d="M281.1,198.7c-0.3-0.5-0.6-0.9-0.9-1.3c-0.7-0.9-1.3-1.2-2.1-2.1c-1.4,0.3-1.3,0.2-2.1,0.7c-0.2,0-0.5,0-0.7,0
		c0,0.2,0,0.5,0,0.7c0.8,0.7,1.3,1.3,1.5,1.8c0.2,0.3,0.2,0.6,0.3,0.9c0.1,0.4,0.1,0.8,0.3,1.2c0.1,0.2,0.1,0.5,0.2,0.7
		c0.1,0.3,0.2,0.5,0.4,0.8c0.3,0.3,0.6,0.5,1,0.6c0.2,0.1,0.3,0.2,0.5,0.2c0.9,0.3,1.9,0.4,3.3,0.5l0,0l0,0
		C282.6,201.8,281.9,200.1,281.1,198.7z"/>
	<path class="st0" d="M828.4,178.5c0.1-0.1,0.2-0.2,0.3-0.4c-0.5,0-1,0-1.5,0c0.2,0.1,0.3,0.2,0.4,0.3l0.1,0.1
		c0.1,0.1,0.1,0.1,0.1,0.2c0.1,0.1,0.1,0.1,0.1,0.1l0,0c0,0,0,0,0.1,0l0,0l0,0l0,0c0,0,0-0.1,0.1-0.1c0,0,0,0,0-0.1
		C828.3,178.7,828.3,178.6,828.4,178.5z"/>
	<path class="st0" d="M794.9,181.2c0.2,0,0.5,0,0.7,0c-0.5-1.3-0.1-0.7-0.7-1.5C794.9,180.2,794.9,180.7,794.9,181.2z"/>
	<path class="st0" d="M263,198.7c0,0.5,0,0.9,0,1.4c0.5-0.2,0.7-0.3,0.7-0.4c0-0.1,0-0.1-0.1-0.2c0,0-0.1-0.1-0.2-0.2
		C263.4,199.2,263.2,199,263,198.7z"/>
	<path class="st0" d="M906.6,184.2c0.7,0,1.5,0,2.2,0c-0.2-0.7-0.5-1.5-0.7-2.2C906.3,183,907.2,181.7,906.6,184.2z"/>
	<path class="st0" d="M969.6,184.2c0.5,0,1,0,1.5,0c-0.3-1.5-0.2-1.4-0.7-2.2C970.1,182.7,969.9,183.4,969.6,184.2z"/>
	<path class="st0" d="M1186.4,192.5c-0.1,0.2-0.1,0.4-0.2,0.6c-0.1,0.3-0.2,0.6-0.3,0.8c-0.2,0.5-0.1,0.9,0.5,1.9
		c0.1,0.1,0.2,0.1,0.3,0.2c0.3,0.2,0.3,0.2,0.5,0.3c0,0,0.1,0,0.2,0.1c0.2,0,0.4,0.1,0.7,0.3l0,0l0,0c0.5-0.5,0.3-0.4,0.4-0.5
		c0,0,0,0,0.1,0s0.2-0.1,0.4-0.3C1188.2,192.8,1188.9,193.5,1186.4,192.5z"/>
	<path class="st0" d="M1192.1,199c0.1,0.1,0.2,0.2,0.2,0.3c0.1,0.1,0.1,0.1,0.1,0.2l0,0l0,0c0,0,0,0,0.5,0.4l0,0l0,0
		c0.1-0.2,0.1-0.3,0.2-0.5s0.1-0.3,0.1-0.4c0.1-0.3,0.2-0.5,0.2-0.8c0.1-0.6,0.2-1.3,0.3-2.3c-0.8,0-1.6,0-2.4,0
		C1191.5,197.6,1191.4,198,1192.1,199z"/>
	<path class="st0" d="M832.4,186.4c-0.7-0.2-1.5-0.5-2.2-0.7l0,0l0,0c0.1,0.2,0.1,0.3,0.1,0.4s0.1,0.2,0.1,0.3s0.1,0.2,0.1,0.3
		c0.1,0.1,0.1,0.2,0.4,0.6c0.7,0.8-0.1,0.1,0.7,0.7c0-0.2,0-0.5,0-0.7c0.2,0,0.5,0,0.7,0C832.4,186.9,832.4,186.7,832.4,186.4z"/>
	<path class="st0" d="M1008.6,187.9c0.5,0,1,0,1.5,0c0-0.5,0-1,0-1.5c-0.5,0-1,0-1.5,0C1008.6,186.9,1008.6,187.4,1008.6,187.9z"/>
	<path class="st0" d="M1207,197.7c-0.1-0.1-0.1-0.2-0.3-0.3l0,0l0,0l0,0c0,0.5,0,1.1,0,1.6l0,0c0.3,0,0.5,0,0.8,0
		c-0.3-0.9-0.3-1-0.4-1.1C1207.1,197.8,1207.1,197.8,1207,197.7z"/>
	<path class="st0" d="M1182.3,200.6c0-0.5,0-1.1,0-1.6c-1.4-0.3-2.7-0.5-4.1-0.8c-0.1,0.3-0.3,0.5-0.4,0.7c-0.4,0.7-0.7,1.2-1.2,1.7
		c0,2,0.1,3.7,0.4,5.2c0.1,0.5,0.2,0.9,0.4,1.3l0,0l0,0c0.3,0,0.6,0,0.8,0c1-0.1,1.8-0.2,2.5-0.3c0.5-0.1,1-0.3,1.5-0.4
		c0.1-0.3,0.1-0.5,0.2-0.8c0.1-0.5,0.3-1,0.4-1.5c0.1-0.7,0.2-1.4,0.1-2C1182.8,201.5,1182.6,201.1,1182.3,200.6z"/>
	<path class="st0" d="M865.4,190.2c0.2,0.2,0.3,0.3,0.3,0.4c0.1,0.2-0.2-0.1,0.5,0.4c0.2-0.7,0.5-1.5,0.7-2.2
		c-0.7-0.2-1.5-0.5-2.2-0.7C864.9,189.5,864.8,189.4,865.4,190.2z"/>
	<path class="st0" d="M1032.6,190.9c-0.7,1.4-0.2,1.4,0,3.7c0.5,0,1,0,1.5,0c0.7-2.2,1.5-4.5,2.2-6.7
		C1033.1,188.3,1033.4,188.2,1032.6,190.9z"/>
	<path class="st0" d="M992.1,189.4c0,0.5,0,1,0,1.5c0.2,0,0.5,0,0.7,0C992.4,189.6,992.7,190.2,992.1,189.4z"/>
	<path class="st0" d="M1012.4,189.8c-0.2-0.1-0.4-0.2-0.8-0.4c0.5,1.3,0.1,0.7,0.7,1.5c0,0.2,0,0.5,0,0.7c0.2,0,0.5,0,0.7,0
		c-0.3-1.1-0.2-1.4-0.3-1.6C1012.8,190,1012.8,190,1012.4,189.8z"/>
	<path class="st0" d="M1020.6,190.2c0.1,0.6,0.2,1,0.2,1.3c0.1,0.4,0.1,0.6,0.2,0.8c0.1,0.3,0.4,0.5,1.1,0.9
		C1022.6,191.1,1022.4,191.6,1020.6,190.2z"/>
	<path class="st0" d="M899.9,191.7c-0.4,1.1-0.5,1.3-0.7,3c0.7,0,1.5,0,2.2,0c-0.3-1.5-0.2-1.4-0.7-2.2
		C899.9,191.6,900.7,192.3,899.9,191.7z"/>
	<path class="st0" d="M1149.8,203c0,0.5,0,1.1,0,1.6c0.3,0,0.5,0,0.8,0l0,0c-0.1-0.2-0.1-0.3-0.2-0.4
		C1150.2,203.4,1150.4,203.7,1149.8,203z"/>
	<path class="st0" d="M246.6,209.7c-0.5,0-0.9,0-1.4,0c0,0.5,0,0.9,0,1.4c0.5,0,0.9,0,1.4,0C246.6,210.6,246.6,210.1,246.6,209.7z"
		/>
	<path class="st0" d="M1000,197.5c0-0.1-0.1-0.1-0.1-0.2s-0.2-0.2-0.3-0.4c0,0.5,0,1,0,1.5c0.2,0,0.5,0,0.7,0
		c-0.2-0.5-0.2-0.7-0.3-0.8C1000.1,197.5,1000,197.5,1000,197.5z"/>
	<path class="st0" d="M247.5,215.7c0.3-0.2,0.5-0.2,0.5-0.3c0.1-0.1-0.3-0.2-0.7-1l0,0l0,0c0,0.5,0,0.9,0,1.4l0,0l0,0
		C247.4,215.8,247.4,215.8,247.5,215.7z"/>
	<path class="st0" d="M771.3,198c0.2,0.2,0.2,0.1,0.7,0.3c0.1,0,0.2,0.1,0.4,0.1c0-0.2,0-0.5,0-0.7c-0.5,0-1,0-1.5,0
		C771.1,197.8,771.2,197.9,771.3,198z"/>
	<path class="st0" d="M980.5,198.3c0.1,0,0.2,0.1,0.4,0.1c0-0.2,0-0.5,0-0.7c-0.5,0-1,0-1.5,0c0.2,0.2,0.3,0.2,0.4,0.3
		C979.9,198.1,979.9,198.1,980.5,198.3z"/>
	<path class="st0" d="M823.4,198.4c0,0.5,0,1,0,1.5c0.2,0,0.5,0,0.7,0C823.7,198.6,824,199.2,823.4,198.4z"/>
	<path class="st0" d="M1218.3,215c0.2-0.3,0.1-0.2,0.2-0.2c0,0,0.1,0,0.2-0.1s0.1-0.1,0.3-0.2c-0.1-0.5-0.1-1-0.1-1.3
		c-0.1-0.6-0.1-1-0.2-1.3c0-0.1-0.1-0.2-0.2-0.3c0-0.1-0.1-0.1-0.1-0.2c-0.1-0.1-0.2-0.2-0.3-0.3c-0.2-0.2-0.4-0.4-0.7-0.6
		c-0.1,0.1-0.1,0.2-0.2,0.3s-0.1,0.2-0.2,0.3s-0.2,0.2-0.2,0.4c-0.1,0.2-0.2,0.3-0.3,0.5c-0.1,0.2-0.2,0.4-0.3,0.7
		c-0.1,0.3-0.2,0.6-0.4,1.1c0.3,0.4,0.4,0.5,0.5,0.6s0.1,0.3,0.4,1l0,0c0.5,0,1.1,0,1.6,0C1218.2,215.1,1218.2,215,1218.3,215z"/>
	<path class="st0" d="M1002.6,199.2c0,1.7,0.2,3.1,0.4,4.4c0.1,0.7,0.2,1.3,0.3,1.9c0.1,0.6,0.3,1.2,0.4,1.8
		c0.3,1.2,0.5,2.3,0.7,3.6c0.2,1.2,0.4,2.6,0.4,4.1c0.5,0,1,0,1.5,0c0.7-0.8-0.1-0.1,0.7-0.7c0.2-6-1.4-9.3-3-15
		C1003.6,199.2,1003.1,199.2,1002.6,199.2z"/>
	<path class="st0" d="M1019.9,201.4c0.2,0,0.5,0,0.7,0c-0.5-1.3-0.1-0.7-0.7-1.5C1019.9,200.4,1019.9,200.9,1019.9,201.4z"/>
	<path class="st0" d="M992.9,206.7c0-0.2,0-0.4,0-0.6c-0.1-0.9-0.1-1.5-0.3-2c-0.1-0.5-0.3-0.9-0.5-1.3c-0.1-0.2-0.2-0.3-0.3-0.5
		c-0.1-0.3-0.3-0.5-0.5-0.9c-0.7,0-1.5,0-2.2,0c-0.4,1.1-0.5,2-0.5,2.8c0,1.4,0.5,2.5,1.3,3.9c0.7,0,1.5,0,2.2,0
		C992.6,206.9,992.3,207.4,992.9,206.7z"/>
	<path class="st0" d="M1242.8,215.6c-0.2-0.6-0.6-1-1.3-1.5c-0.2-0.2-0.5-0.3-0.7-0.5c-0.1,0.3-0.3,0.5-0.4,0.7
		c-0.4,0.7-0.7,1.2-1.2,1.7c0,0.8,0.1,1.4,0.1,1.9c0,0.2,0,0.3,0.1,0.5c0.1,0.6,0.3,1.1,0.6,1.7c0,0.3,0,0.5,0,0.8
		c0.2-0.1,0.4-0.1,0.6-0.2c1.3-0.5,1.4-0.7,2.6-1.4C1243.2,217.4,1243.1,216.4,1242.8,215.6z"/>
	<path class="st0" d="M1228.1,214.9c0,0-0.1,0-0.2,0s-0.2-0.1-0.3-0.1s-0.4-0.2-0.6-0.3l0,0l0,0c0,0.8,0,1.6,0,2.4l0,0
		c0.3,0,0.5,0,0.8,0c0.2-0.2,0.3-0.3,0.3-0.4c0-0.1,0-0.1,0-0.1s0,0,0.1,0s0.2-0.1,0.4-0.3C1228,214.8,1228.3,214.9,1228.1,214.9z"
		/>
	<path class="st0" d="M245.9,224c-0.5,0-0.9,0-1.4,0c0,0.5,0,0.9,0,1.4c0.5,0,0.9,0,1.4,0C245.9,225,245.9,224.5,245.9,224z"/>
	<path class="st0" d="M903.6,208.9c0-0.2,0-0.5,0-0.7c-0.5,0-1,0-1.5,0C902.9,208.8,902.3,208.4,903.6,208.9z"/>
	<path class="st0" d="M728.1,211.2c0.5,0,1,0,1.5,0c0-0.5,0-1,0-1.5c-0.5,0-1,0-1.5,0C728.1,210.2,728.1,210.7,728.1,211.2z"/>
	<path class="st0" d="M700.4,211.9c-0.2-0.1-0.3-0.2-0.5-0.3c-0.4-0.2-0.6-0.2-1.8-0.4c-0.5,1.6-1,2.2,0,3.7c0,0.5,0,1,0,1.5
		c2.7-0.3,1.9,0.4,3-1.5c0.6-0.8,0.3-0.2,0.7-1.5c-0.2-0.1-0.3-0.3-0.4-0.4C701.1,212.6,700.9,212.3,700.4,211.9z"/>
	<path class="st0" d="M833.1,212.7c0-0.2,0-0.5,0-0.7c0.2,0,0.5,0,0.7,0l0,0c0-0.2,0-0.5,0-0.7c-0.5,0-1,0-1.5,0
		C832.9,212.5,832.5,211.9,833.1,212.7z"/>
	<path class="st0" d="M244.5,228.2c0.2,0,0.5,0,0.7,0c0-0.2,0-0.5,0-0.7c-0.5,0-0.9,0-1.4,0c0.4,1.2,0.1,0.7,0.7,1.4
		C244.5,228.6,244.5,228.4,244.5,228.2z"/>
	<path class="st0" d="M254,232.9c0.1,0,0.2,0,0.2,0c0.3,0,0.6,0,0.9-0.1c0,0,0,0,0.1,0c0.3,0,0.6-0.1,0.8-0.2c0.1,0,0.1,0,0.2-0.1
		c0.3-0.1,0.5-0.2,0.7-0.3c0.6-0.7,0.3-0.2,0.7-1.4c-0.8-0.7-1.2-1.1-1.6-1.8c-0.1-0.3-0.3-0.6-0.4-0.9c-1.4-0.2-2.7-0.5-4.1-0.7
		c-0.3,0.5-0.5,1-0.6,1.4c-0.4,1.2-0.2,2,0.6,4.1c0.5,0,1,0,1.5,0h0.1l0,0C253.3,233,253.6,233,254,232.9z"/>
	<path class="st0" d="M825.6,211.9L825.6,211.9c-0.5,0-1,0-1.5,0l0,0c0,1,0,2,0,3c0.7,0,1.5,0,2.2,0c-0.3-1.5-0.2-1.4-0.7-2.2
		C825.6,212.4,825.6,212.2,825.6,211.9z"/>
	<path class="st0" d="M860.5,213.2c-0.1-0.1-0.4-0.1-1.1-0.6c0.5,1.3,0.1,0.7,0.7,1.5c0,0.2,0,0.5,0,0.7c0.2,0,0.5,0,0.7,0
		c-0.1-0.5-0.2-0.8-0.2-1C860.6,213.3,860.7,213.3,860.5,213.2z"/>
	<path class="st0" d="M987.3,213.2c-0.1-0.1-0.4-0.1-1.1-0.6c0,0.9-0.2,1.2-0.2,1.4c0,0.1,0.1,0.2,0.4,0.3c0.1,0,0.1,0.1,0.2,0.1
		c0.2,0.1,0.4,0.1,0.6,0.3c0.1,0.1,0.3,0.1,0.4,0.2c-0.1-0.5-0.2-0.8-0.2-1C987.3,213.3,987.4,213.3,987.3,213.2z"/>
	<path class="st0" d="M775.4,214.9c-1.3,3.6-0.5,5.8,2.2,7.5c0,0.2,0,0.5,0,0.7l0,0c0.7-0.2,1.1-0.4,1.4-0.5
		c0.1-0.1,0.2-0.1,0.3-0.2c0.3-0.2,0.5-0.3,0.9-0.6c0.1-0.1,0.3-0.2,0.4-0.2c-0.2-3.9-0.9-4.5-2.2-6.7
		C777.4,214.9,776.4,214.9,775.4,214.9z"/>
	<path class="st0" d="M1143.3,229.4C1143.4,229.4,1143.4,229.4,1143.3,229.4c0.1-0.1,0.2-0.1,0.3-0.2c0,0,0.1,0,0.1-0.1
		c0.1-0.1,0.2-0.1,0.4-0.2c-0.2-0.2-0.4-0.4-0.5-0.5c-0.3-0.2-0.5-0.1-1.3-0.2c-0.2,0-0.3-0.1-0.6-0.1c0.1,0.1,0.2,0.2,0.3,0.2
		c0,0,0,0,0.1,0.1s0.1,0.1,0.1,0.2c0,0,0,0,0.1,0.1c0,0.1,0.1,0.1,0.1,0.2l0,0c0,0.1,0.1,0.1,0.1,0.2l0.1,0.1c0,0,0,0,0,0.1
		c0,0,0,0.1,0.1,0.1l0,0l0.1,0.1l0,0h0.1l0,0l0,0h0.1l0,0C1143.2,229.5,1143.3,229.5,1143.3,229.4z"/>
	<path class="st0" d="M801.6,216.4c-0.7,0.8,0.1,0.1-0.7,0.7c0,0.5,0,1,0,1.5c0.6,0.8,0.3,0.2,0.7,1.5c0.7,0,1.5,0,2.2,0
		c-0.2-1.7-0.1-2.1-0.7-3C802.4,216.6,803,216.9,801.6,216.4z"/>
	<path class="st0" d="M685.4,220.9c0.7,0,1.5,0,2.2,0c-0.2-0.7-0.5-1.5-0.7-2.2C685,219.8,686,218.5,685.4,220.9z"/>
	<path class="st0" d="M971.9,218.7c-0.7,0.7-1.3,1-2.2,1.5c-0.1,6.4,0.9,6.8,3.7,9.7c2.7-0.5,5.5-1,8.2-1.5c0.7-0.8-0.1-0.1,0.8-0.7
		C982,224.3,974.8,219.4,971.9,218.7z"/>
	<path class="st0" d="M1260.3,238c0.1-0.4,0.3-0.8,0.4-1.2s0.3-0.8,0.4-1.2c0.3-0.7,0.4-1.1,0.3-1.5c-0.1-0.6-0.8-0.9-1.9-1.8
		c-0.6,1.2-1.2,1.7-1.3,2.4c-0.1,0.4,0.1,0.9,0.5,1.7c0,0.5,0,1.1,0,1.6l0,0C1259.2,238,1259.8,238,1260.3,238L1260.3,238z"/>
	<path class="st0" d="M1156.6,238.7v-0.1c0.1-0.1,0.1-0.2,0.5-0.6c-0.2-2.1-0.4-2.7-0.9-3.5c0-0.1-0.1-0.1-0.1-0.2
		c-0.1-0.2-0.2-0.3-0.3-0.5c-0.1-0.2-0.2-0.4-0.3-0.6c-1.1,0-2.2,0-3.2,0c-0.3,0.7-0.3,0.9-0.4,1c0,0.1-0.1,0.1-0.1,0.2
		c0,0-0.1,0.1-0.1,0.2s-0.1,0.1-0.2,0.3c0,0.8,0.1,1.5,0.2,2c0,0.3,0.1,0.5,0.1,0.7c0,0.1,0.1,0.2,0.1,0.3c0.1,0.4,0.3,0.7,0.4,1.1
		c0,0.1,0.1,0.2,0.1,0.3c0.1,0.3,0.3,0.6,0.5,0.9c0.1,0.1,0.1,0.2,0.2,0.4c0.2,0,0.4-0.1,0.6-0.1c1.3-0.2,1.5-0.3,2.6-0.7
		C1156.5,239.1,1156.6,238.8,1156.6,238.7z"/>
	<path class="st0" d="M743.9,220.9c0.2,1.7,0.1,2.1,0.8,3c0.8,0.6,0.2,0.3,1.5,0.7c0-0.2,0-0.5,0-0.7c0.2,0,0.5,0,0.7,0
		c-0.3-1.5-0.2-1.4-0.7-2.2C745.3,221.1,745.5,221.2,743.9,220.9z"/>
	<path class="st0" d="M252,236.6c-0.2,0-0.6,0-1.3-0.2l0,0l0,0c0.1,0.3,0.2,0.5,0.2,0.6c0.1,0.4,0.1,0.2,0.5,0.8c0,0.2,0,0.5,0,0.7
		c0.2,0,0.5,0,0.7,0c0-0.2,0-0.5,0-0.7c0.2,0,0.5,0,0.7,0C252.1,236.6,252.4,236.6,252,236.6z"/>
	<path class="st0" d="M1267,237.3c-0.5-0.5-0.6-0.8-1.1-1.1c-0.1-0.1-0.3-0.2-0.4-0.3s-0.4-0.2-0.6-0.3c-0.1,0-0.2-0.1-0.4-0.1
		c-0.2,0.3-0.3,0.6-0.5,0.9c-0.4,0.9-0.7,1.7-0.9,2.5c-0.1,0.8-0.1,1.7,0.2,2.8c0.1,0.4,0.2,0.7,0.3,1.1l0,0l0,0
		c1.2-0.3,2-0.6,2.5-1.1c0.4-0.3,0.6-0.7,0.8-1.1c0.1-0.2,0.2-0.5,0.3-0.7c0.2-0.5,0.3-1.2,0.5-1.9
		C1267.4,237.7,1267.2,237.5,1267,237.3z"/>
	<path class="st0" d="M992.1,223.9c0.5,0,1,0,1.5,0c0-0.5,0-1,0-1.5c-0.5,0-1,0-1.5,0C992.1,222.9,992.1,223.4,992.1,223.9z"/>
	<path class="st0" d="M1200.8,239.3c0-0.2,0-0.3,0-0.4c0-0.1,0-0.2,0-0.3c0,0,0-0.1-0.1-0.1c-0.1-0.1-0.5-0.2-1.2-0.6
		c0,0.8,0,1.6,0,2.4l0,0c0.5,0,1.1,0,1.6,0C1200.9,239.9,1200.8,239.6,1200.8,239.3z"/>
	<path class="st0" d="M249.3,239.8c-2.1,0-4.1,0-6.2,0c-0.3,0.2-0.4,0.3-0.4,0.3c-0.1,0.1-0.2,0.1-0.6,0.2c-0.1,0-0.2,0.1-0.4,0.1
		c0,0.2,0,0.5,0,0.7c0.3,0,0.7,0,1,0c0.1,0,0.2,0,0.4,0c0.3,0,0.6,0,0.9,0c0.1,0,0.2,0,0.3,0s0.1,0,0.2,0c0.1,0,0.1,0,0.2,0
		c0.3,0,0.6,0,0.8,0l0,0c0.3,0,0.5,0,0.8-0.1c0.1,0,0.1,0,0.2,0c0.3,0,0.5-0.1,0.7-0.1l0,0c0.2,0,0.4-0.1,0.6-0.2c0,0,0.1,0,0.1-0.1
		c0.2-0.1,0.4-0.2,0.5-0.3c0.2,0,0.5,0,0.7,0C249.3,240.3,249.3,240,249.3,239.8z"/>
	<path class="st0" d="M870.6,225.4L870.6,225.4L870.6,225.4c0.1,0.2,0.1,0.3,0.1,0.4s0.1,0.2,0.1,0.3s0.1,0.2,0.1,0.3
		c0.1,0.1,0.1,0.2,0.4,0.6c0,0.2,0,0.5,0,0.7c0.2,0,0.5,0,0.7,0c-0.4-1.1-0.4-1.3-0.7-1.6C871.3,225.9,871.1,225.8,870.6,225.4z"/>
	<path class="st0" d="M879.6,226.2c-0.2,0.8-0.3,1.5-0.3,2.1c0,0.3,0,0.7-0.1,1c0,0.3,0,0.6,0,1s0,0.6,0,1c0.1,1,0.2,2,0.3,3.2
		c3.8-0.4,3.1-1.3,5.2-3c-0.1-3.4-0.5-4.1-1.5-6C881.4,225.6,880.8,225.7,879.6,226.2z"/>
	<path class="st0" d="M1221.5,241.3c-0.2-0.2-0.4-0.4-0.6-0.6c-0.1-0.1-0.2-0.2-0.4-0.3c-0.8,1.4-1.6,2.7-2.4,4.1
		c0.7,0.5,0.9,0.6,1.2,1.1c0.1,0.1,0.2,0.3,0.4,0.6l0,0l0,0c1-0.3,1.4-0.3,1.6-0.3c0.3,0,0.1,0,0.6-1c0.1-0.1,0.1-0.2,0.2-0.4
		c0.1-0.1,0.1-0.2,0.2-0.3c0.2-0.2,0.2-0.2,0.3-0.3c0-0.1,0.1-0.1,0.1-0.3s0.1-0.4,0.3-0.7C1222.3,242.3,1222,241.8,1221.5,241.3z"
		/>
	<path class="st0" d="M521.2,226.9c-0.2,0.7-0.5,1.5-0.7,2.2c0.3-0.1,0.5-0.2,0.7-0.3c0.3-0.1,0.5-0.2,0.7-0.3
		c0.1,0,0.1-0.1,0.2-0.1c0.1-0.1,0.1-0.1,0.1-0.2c0-0.1,0-0.1,0-0.2C522,227.9,521.7,227.6,521.2,226.9z"/>
	<path class="st0" d="M994.4,228.4c-1,3.2,0,7,0.7,10.5c0.7,0.2,1.5,0.5,2.2,0.7c0.3-1.1,0.3-2.4,0.3-3.6c0-1.2,0-2.4,0.4-3.1
		c-0.3-2.8-0.6-2.8-1.5-4.5C995.9,228.4,995.1,228.4,994.4,228.4z"/>
	<path class="st0" d="M1237.7,244.2c0.2,0,0.4,0.1,0.7,0.3c0-0.3,0-0.5,0-0.8c-0.5,0-1.1,0-1.6,0
		C1237.4,244.1,1237.2,244.1,1237.7,244.2z"/>
	<path class="st0" d="M1250.9,244.5c-0.1-0.1-0.2-0.2-0.4-0.3c-0.1-0.1-0.3-0.1-0.5-0.2c-0.3-0.1-0.6-0.2-1.1-0.4
		c-0.1,0.2-0.2,0.3-0.3,0.5c-0.5,0.9-0.8,1.1-1.2,2.4c0,0.1-0.1,0.3-0.1,0.4c-0.3,0-0.5,0-0.8,0l0,0l0,0c0.8,2.2,1.7,2.8,3.2,4.1
		c0,0.3,0,0.5,0,0.8l0,0l0,0c0.2-0.3,0.3-0.6,0.3-0.9c0-0.2,0.1-0.4,0.1-0.6c0-0.3,0.1-0.6,0.1-0.8c0.1-0.8,0.3-1.6,1.1-2.6l0,0l0,0
		C1251.1,245.4,1251.1,244.9,1250.9,244.5z"/>
	<path class="st0" d="M965.1,230.3v0.1c0,0.1,0,0.1,0,0.2v0.1c0,0.1,0,0.1,0,0.1v0.1v0.1v0.1l0,0c0,0,0,0,0,0.1l0,0l0,0l0,0l0,0l0,0
		l0,0l0,0h0.1c0,0,0,0,0.1,0h0.1h0.1h0.1h0.1c0.1,0,0.1,0,0.2,0h0.1c0.1,0,0.2,0.1,0.4,0.1c0-0.5,0-1,0-1.5c-0.5,0-1,0-1.5,0
		C965.1,230,965.1,230.2,965.1,230.3z"/>
	<path class="st0" d="M873.6,230.7c0.2,1.7,0.1,2.1,0.7,3c0.7,0.8-0.1,0.1,0.7,0.7c0.7-0.8-0.1-0.1,0.8-0.7
		C875.3,230.9,876,231.6,873.6,230.7z"/>
	<path class="st0" d="M911.1,232.2L911.1,232.2c0-0.3,0-0.5,0-0.7c-0.5,0-1,0-1.5,0c0.6,0.5,0.4,0.4,0.8,0.5
		C910.6,232,910.8,232,911.1,232.2z"/>
	<path class="st0" d="M246.6,248.7c1.2-0.4,0.7-0.1,1.4-0.7c0.2,0,0.5,0,0.7,0l0,0c0-0.2,0-0.5,0-0.7c-0.7-0.2-1.4-0.5-2.1-0.7
		C246.6,247.3,246.6,248,246.6,248.7z"/>
	<path class="st0" d="M230.2,247.3c0,0.5,0,0.9,0,1.4c0.5,0,0.9,0,1.4,0c0-0.5,0-0.9,0-1.4l0,0C231.1,247.3,230.6,247.3,230.2,247.3
		L230.2,247.3z"/>
	<path class="st0" d="M1177.5,252.6c-0.2-0.4-0.3-0.6-0.4-0.8c0-0.1-0.1-0.2-0.1-0.2c0-0.1,0-0.1,0-0.1l0,0c-0.1,0-0.4-0.1-1.1-0.5
		c-0.3,0.8-0.5,1.6-0.8,2.4l0,0l0,0c0.4-0.1,0.6-0.2,0.7-0.3c0.2-0.1,0.3-0.1,0.4-0.2c0.1-0.1,0.2-0.2,0.5-0.4
		C1176.9,252.6,1177.2,252.6,1177.5,252.6L1177.5,252.6z"/>
	<path class="st0" d="M1275.4,217.2c0,0.5,0,1.1,0,1.6l0,0c0.5,0,1.1,0,1.6,0c0-0.5,0-1.1,0-1.6
		C1276.4,217.2,1275.9,217.2,1275.4,217.2L1275.4,217.2z"/>
	<path class="st0" d="M258,253.7c0.2,0,0.4,0,0.6-0.1c0.1,0,0.1,0,0.2,0c0.2-0.1,0.4-0.1,0.7-0.3l0,0c0.2-0.1,0.5-0.3,0.7-0.4
		c0.1,0,0.1-0.1,0.2-0.1c0.2-0.2,0.5-0.4,0.7-0.6l0,0c0.2,0,0.5,0,0.7,0c-1-1.9-2-2-4.8-2.1c-0.1,0.3-0.2,0.5-0.3,0.7
		c0,0.1,0,0.1-0.1,0.2c0,0.2-0.1,0.3-0.1,0.5c0,0.1,0,0.1,0,0.2c0,0.1,0,0.3,0,0.4c0,0.1,0,0.1,0,0.2c0,0.2,0.1,0.3,0.1,0.5l0,0
		c0.1,0.1,0.1,0.3,0.2,0.4l0.1,0.1c0.1,0.1,0.1,0.1,0.2,0.2l0.1,0.1c0.1,0,0.2,0.1,0.3,0.1h0.1C257.6,253.7,257.8,253.7,258,253.7
		L258,253.7L258,253.7z"/>
	<path class="st0" d="M1108.7,252.6c-0.3-0.2-0.7-0.5-1.1-0.8l0,0l0,0c-0.2,0.2-0.4,0.3-0.5,0.3s-0.1,0.1-0.2,0.1s-0.2,0.1-0.3,0.1
		c-0.1,0-0.3,0.1-0.4,0.1s-0.3,0.1-0.5,0.1s-0.3,0.1-0.6,0.1c0.1,0.5,0.2,0.9,0.4,1.2c0.2,0.5,0.4,1,0.6,1.4
		c0.1,0.1,0.1,0.3,0.2,0.4c0.1,0.3,0.3,0.6,0.5,1l0,0l0,0c2.1-0.6,1.6,0.1,2-0.8c0-0.1,0.1-0.1,0.1-0.2c0.1-0.2,0.2-0.4,0.3-0.6
		c0.4-0.9,0.5-1.4,0.2-1.8C1109.2,253,1109,252.8,1108.7,252.6z"/>
	<path class="st0" d="M1147.8,252.3c-0.1-0.1-0.2-0.2-0.4-0.5c0,0.5,0,1.1,0,1.6c0.3,0,0.5,0,0.8,0l0,0
		C1147.9,252.5,1147.9,252.4,1147.8,252.3z"/>
	<path class="st0" d="M1314.1,222.1c0-0.1,0.1-0.1,0.2-0.2c0,0,0,0,0.1-0.1s0.1-0.1,0.2-0.2l0,0c0.1-0.1,0.1-0.1,0.2-0.2
		c0,0,0.1,0,0.1-0.1c0.1-0.1,0.2-0.1,0.3-0.2c-0.1-0.3-0.1-0.6-0.2-0.8c0-0.2-0.1-0.4-0.1-0.5s0-0.1,0-0.2c0-0.1,0-0.2,0-0.3l0,0
		c-0.1-0.1-0.3-0.1-0.9-0.4c-0.1-0.1-0.2-0.1-0.4-0.2c-0.1,0.1-0.1,0.2-0.2,0.3c-0.2,0.4-0.4,0.7-0.6,0.9c-0.1,0.1-0.1,0.2-0.2,0.3
		s-0.1,0.2-0.1,0.2c-0.1,0.3,0,0.6,0.2,1.4c0.1,0.1,0.1,0.2,0.2,0.2c0,0,0,0,0.1,0.1l0.1,0.1c0,0,0,0,0.1,0c0,0,0.1,0,0.1,0.1
		c0,0,0,0,0.1,0h0.1l0,0l0,0h0.1l0,0l0.1-0.1l0,0l0.1-0.1l0,0C1314,222.3,1314,222.2,1314.1,222.1z"/>
	<path class="st0" d="M890.9,242.7c0,0.2,0,0.5,0,0.8c0.7-0.4,1.3-0.9,1.6-1.4c0.2-0.4,0.4-0.7,0.4-1.1c0.1-0.6-0.1-1.3-0.5-1.9
		c-1,0.9-1.3,1.1-3,1.5c0,0.2,0,0.5,0,0.7C890,241.7,890.2,242.1,890.9,242.7z"/>
	<path class="st0" d="M249.3,254.9c0.4,0,0.7-0.1,1-0.1s0.5-0.1,0.7-0.1s0.4-0.1,0.5-0.2c0.2-0.1,0.3-0.2,0.5-0.3c0.2,0,0.5,0,0.7,0
		c0-0.5,0-0.9,0-1.4c-0.9,0-1.8,0-2.7,0C249.8,253.5,249.6,254.2,249.3,254.9z"/>
	<path class="st0" d="M770.1,241.9c0.7,0,1.5,0,2.2,0c0-0.7,0-1.5,0-2.2c-0.7,0-1.5,0-2.2,0C770.1,240.4,770.1,241.2,770.1,241.9z"
		/>
	<path class="st0" d="M896.9,239.7c0.3,1.5,0.2,1.4,0.7,2.2c0.3,0.3,0.3,0.4,0.3,0.4l0,0c0,0,0.1,0.1,0.4,0.3
		c0.2-0.7,0.5-1.5,0.8-2.2l0,0l0,0C898.4,240.2,897.6,239.9,896.9,239.7z"/>
	<path class="st0" d="M1124.6,257.5c0-0.8,0-1.6,0-2.4l0,0c-0.8,0-1.6,0-2.4,0l0,0c0,0.8,0,1.6,0,2.4l0,0
		C1123,257.5,1123.8,257.5,1124.6,257.5L1124.6,257.5z"/>
	<path class="st0" d="M906.6,240.4L906.6,240.4L906.6,240.4c0.1,0.2,0.1,0.3,0.1,0.4s0.1,0.2,0.1,0.3s0.1,0.2,0.1,0.3
		c0.1,0.1,0.1,0.2,0.4,0.6c0,0.2,0,0.5,0,0.7c0.2,0,0.5,0,0.7,0c-0.1-0.2-0.1-0.4-0.2-0.6C907.5,241,907.7,241.3,906.6,240.4z"/>
	<path class="st0" d="M1202.5,258.3c-0.1-0.7-0.2-1-0.6-1.6c0-0.3,0-0.5,0-0.8c-0.9,0.3-1.4,0.5-1.8,0.7c-0.2,0.1-0.4,0.2-0.6,0.4
		c-0.1,0.1-0.2,0.1-0.4,0.2c-0.1,0.1-0.3,0.2-0.5,0.3c-0.1,0.7-0.3,1.4-0.4,2c-0.1,0.7-0.3,1.4-0.4,2l0,0l0,0c0.4,0,0.7-0.1,1-0.1
		c0.4-0.1,0.8-0.1,1.1-0.2c0.6-0.1,1-0.3,1.4-0.6c0.4-0.2,0.8-0.4,1.3-0.8l0,0l0,0C1202.6,259.2,1202.5,258.7,1202.5,258.3z"/>
	<path class="st0" d="M791.6,244.5c0.1,0.3,0.2,0.6,0.3,1.1c0.7,0,1.5,0,2.2,0c0.2-0.7,0.5-1.5,0.7-2.2c-1.3-0.7-1.2-1-3-1.5
		C791.5,243.3,791.4,243.7,791.6,244.5z"/>
	<path class="st0" d="M839.1,244.2c0.2,0,0.5,0,0.8,0c-0.5-1.3-0.1-0.7-0.8-1.5C839.1,243.2,839.1,243.7,839.1,244.2z"/>
	<path class="st0" d="M932.9,244.2c0.7,0,1.5,0,2.2,0c0-0.2,0-0.5,0-0.7c-0.7-0.2-1.5-0.5-2.2-0.8
		C932.9,243.2,932.9,243.7,932.9,244.2z"/>
	<path class="st0" d="M1298.9,224.6c-0.1,0.3-0.2,0.5-0.3,0.8c-0.2,0.4-0.3,0.8-0.4,1.4c-0.1,0.3-0.1,0.7-0.2,1.1l0,0
		c0.8,0,1.6,0,2.4,0c0-1.1,0-2.2,0-3.2C1300,224.6,1299.5,224.6,1298.9,224.6L1298.9,224.6z"/>
	<path class="st0" d="M528.1,243.7c-0.1-0.1-0.1-0.2-0.2-0.3c-0.2,0.7-0.5,1.5-0.7,2.2c0.5,0,1,0,1.5,0l0,0
		C528.4,244.3,528.5,244.2,528.1,243.7z"/>
	<circle class="st0" cx="1116.9" cy="261.9" r="1.7"/>
	<path class="st0" d="M1156.3,261.5L1156.3,261.5L1156.3,261.5c0-0.3,0-0.5,0-0.8l0,0c-0.5,0-1.1,0-1.6,0c0.5,0.4,0.5,0.4,0.7,0.5
		C1155.6,261.3,1155.8,261.3,1156.3,261.5z"/>
	<path class="st0" d="M264.4,259c-1.1-0.2-2.3-0.5-3.4-0.7l0,0l0,0c-0.1,0.1-0.1,0.3-0.2,0.4c-0.2,0.4-0.4,0.6-0.5,0.9
		c-0.1,0.2-0.2,0.3-0.3,0.4c-0.3,0.6-0.1,0.9,1.7,1.7c0.7,0.6,0.2,0.3,1.4,0.7c0.6-0.8,0.6-0.8,1.4-1.4
		C264.4,260.3,264.4,259.7,264.4,259z"/>
	<path class="st0" d="M716.2,250.2c0,0.2,0,0.5,0,0.7c0.9-0.3,1.2-0.4,1.4-0.5s0.3-0.4,0.8-1c0.3-0.4,0.4-0.4,0.4-0.5
		c0.1-0.1,0.1-0.3,0.3-1c-1.1-0.9-1.6-1.5-3-2.2C715,247.9,714.3,247.9,716.2,250.2z"/>
	<path class="st0" d="M265.8,261c2-0.9,1.9-0.5,0.7-2.1C266.2,259.7,266,260.3,265.8,261z"/>
	<path class="st0" d="M910.4,246.4c0.2,1.1,0.3,1.5,0.4,2c0.1,0.3,0.2,0.6,0.3,1c0.2,0,0.5,0,0.7,0c0,0.2,0,0.5,0,0.7
		c0.2,0,0.5,0,0.7,0C912.4,247.1,912.8,247.4,910.4,246.4z"/>
	<path class="st0" d="M769.3,248.1c0,0-0.1,0-0.2,0c-0.1,0-0.3,0-0.5-0.1c-0.2,0-0.4-0.1-0.8-0.2c0.4,1,0.3,0.9,0.4,1.1
		c0.1,0.1,0.2,0.2,0.3,0.4c0.7,0.8-0.1,0.1,0.7,0.7c0.7-0.8-0.1-0.1,0.7-0.7C769.5,248.6,769.4,248.3,769.3,248.1
		C769.5,248.2,769.5,248.2,769.3,248.1z"/>
	<path class="st0" d="M1158.5,265.3c-0.1-0.1-0.2-0.2-0.3-0.3c-0.2-0.2-0.4-0.3-0.7-0.5c-0.1-0.1-0.3-0.2-0.5-0.3
		c-0.2-0.1-0.4-0.2-0.7-0.3l0,0l0,0c-0.8,1.5-1.3,2.5-1.4,3.7c0,0.8,0.1,1.6,0.5,2.8c0.4-0.1,0.7-0.1,0.9-0.2c0.3,0,0.5-0.1,0.7-0.1
		c0.4-0.1,0.6-0.1,0.7-0.2c0.3-0.2,0.4-0.7,0.9-1.9c0.1-0.1,0.1-0.2,0.2-0.3s0.1-0.1,0.1-0.2c0.1-0.1,0.1-0.1,0.1-0.2
		s0.1-0.2,0.2-0.6c0-0.1,0.1-0.3,0.2-0.4C1159,265.9,1158.8,265.6,1158.5,265.3z"/>
	<path class="st0" d="M1261,266.5c-0.5-0.3-1-0.6-1.5-0.9c-0.1,0.6-0.1,1-0.1,1.3c0,0.1,0,0.2,0,0.3c0,0.2,0.1,0.3,0.1,0.4
		c0.1,0.3,0.4,0.5,0.7,0.9c0.1,0.2,0.2,0.3,0.4,0.6c0.1,0.1,0.1,0.2,0.2,0.4c0.1,0.3,0.3,0.6,0.4,1l0,0l0,0
		C1264,269.1,1263,267.8,1261,266.5z"/>
	<path class="st0" d="M891.2,250.7c-0.4-0.1-0.7-0.3-1.1-0.5c-1.7,0.2-2.1,0.1-3,0.7c-0.1,0.1-0.1,0.2-0.2,0.3
		c-0.4,0.5-0.3,0.6-0.6,2c2.5,0,5,0,7.5,0c0-0.7,0-1.5,0-2.2c-0.5,0-0.9,0-1.3-0.1C892.1,250.8,891.6,250.8,891.2,250.7z"/>
	<path class="st0" d="M1124.6,267.1c-0.1-0.2-0.4-0.4-0.7-0.7l0,0l0,0l0,0c0,0.1,0,0.2,0,0.3l0,0c0,0.1,0,0.2,0,0.3c0,0,0,0,0,0.1
		s0,0.3,0,0.4s0,0.2,0,0.4l0,0c0,0.1,0,0.2,0,0.3l0,0c0,0.1,0,0.2,0.1,0.3l0,0c0,0.1,0.1,0.1,0.1,0.2l0,0c0.1,0,0.1,0.1,0.2,0.1l0,0
		l0,0c0.1,0,0.2,0,0.3-0.1l0,0c-0.1-0.2-0.1-0.4-0.1-0.5c0-0.4,0.1-0.6,0.2-0.7C1124.7,267.4,1124.8,267.4,1124.6,267.1
		C1124.7,267.3,1124.7,267.2,1124.6,267.1z"/>
	<path class="st0" d="M1107.6,268.8L1107.6,268.8c0.2,0.2,0.3,0.3,0.4,0.3c0.1,0.1,0.2,0.1,0.3,0.2c0.1,0,0.4,0.1,0.9,0.3l0,0l0,0
		c0-0.3,0-0.5,0-0.8l0,0C1108.7,268.8,1108.1,268.8,1107.6,268.8z"/>
	<path class="st0" d="M785.1,254.7c0.5,0,1,0,1.5,0c0-0.5,0-1,0-1.5c-0.5,0-1,0-1.5,0C785.1,253.7,785.1,254.2,785.1,254.7z"/>
	<path class="st0" d="M766.4,259.2c0.5,0,1,0,1.5,0c0.1-2.8,0.8-2-1.5-3.7c-0.4,1.6-0.8,1.5,0,3
		C766.4,258.7,766.4,258.9,766.4,259.2z"/>
	<path class="st0" d="M290.1,268.2c0.2,0.1,0.1,0.1,0.7,0.3c0.1,0,0.2,0.1,0.4,0.1c0-0.2,0-0.5,0-0.7c-0.5,0-0.9,0-1.4,0
		C289.9,268,290,268.1,290.1,268.2z"/>
	<path class="st0" d="M802.4,259.2c0.2,0,0.5,0,0.7,0c-0.5-1.3-0.1-0.7-0.7-1.5C802.4,258.2,802.4,258.7,802.4,259.2z"/>
	<path class="st0" d="M1188.6,276.5c-0.1-0.5-0.2-0.6-0.6-1.2c-0.9-0.6-0.8-0.5-2.4-0.8l0,0l0,0c-0.3,1.1-0.7,1.8-0.6,2.5
		c0,0.1,0,0.3,0.1,0.5c0.1,0.3,0.3,0.7,0.5,1.1c0,0.3,0,0.5,0,0.8l0,0l0,0c1.4-0.5,1.7-0.7,2.4-1.1c0.2-0.1,0.5-0.3,0.8-0.5
		c-0.1-0.4-0.1-0.7-0.2-1C1188.6,276.7,1188.6,276.6,1188.6,276.5z"/>
	<path class="st0" d="M1102.5,278.1c-0.1-0.5-0.2-0.6-0.6-1.2l0,0l0,0c-0.1,0.4-0.3,0.8-0.4,1.2c-0.1,0.4-0.3,0.8-0.4,1.2l0,0
		c0.5,0,1.1,0,1.6,0c-0.1-0.4-0.1-0.7-0.2-1C1102.5,278.3,1102.5,278.2,1102.5,278.1z"/>
	<path class="st0" d="M846.6,261.8C846.7,261.8,846.7,261.8,846.6,261.8c0.1-0.1,0.2-0.1,0.3-0.1h0.1c0.1-0.1,0.2-0.1,0.4-0.2
		c-0.6-0.6-0.7-0.5-1.1-0.6c-0.2,0-0.6,0-1.2-0.2l0,0l0,0l0,0c0.1,0.1,0.2,0.2,0.3,0.2c0,0,0,0,0.1,0.1c0,0.1,0.1,0.1,0.1,0.2
		c0,0,0,0,0.1,0.1c0,0.1,0.1,0.1,0.1,0.2l0,0c0,0.1,0.1,0.1,0.1,0.2c0,0,0,0.1,0.1,0.1l0,0c0,0,0,0.1,0.1,0.1l0,0c0,0,0.1,0,0.1,0.1
		l0,0h0.1l0,0l0,0h0.1l0,0C846.5,261.9,846.6,261.8,846.6,261.8z"/>
	<path class="st0" d="M1177.5,277.8c0.2,0.2,0.3,0.3,0.4,0.3c0.2,0.2,0.2,0.1,1.2,0.5c0-0.3,0-0.5,0-0.8
		C1178.5,277.8,1178,277.8,1177.5,277.8L1177.5,277.8z"/>
	<path class="st0" d="M264.8,275.8c0.1,0.1,0.2,0.1,0.6,0.2c0.1,0,0.2,0.1,0.4,0.1c0-0.2,0-0.5,0-0.7c-0.5,0-0.9,0-1.4,0
		C264.7,275.6,264.8,275.7,264.8,275.8z"/>
	<path class="st0" d="M765.6,264.4c-0.3,1.4,0,2.2,0.5,2.8c0.1,0.2,0.3,0.4,0.5,0.5c0.1,0.1,0.2,0.2,0.3,0.3
		c0.4,0.4,0.8,0.8,1.2,1.4c0.2,0.3,0.4,0.6,0.6,1c0.5,0,1,0,1.5,0C769.3,267.9,767.7,265.8,765.6,264.4z"/>
	<path class="st0" d="M1246.1,271.4c-0.1-0.1-0.1-0.2-0.2-0.4c0-0.5,0-1.1,0-1.6c-1.1,0-2.2,0-3.2,0c-0.3,0.7-0.3,0.9-0.4,1
		c0,0.1-0.1,0.1-0.1,0.2c0,0-0.1,0.1-0.1,0.2c-0.1,0.1-0.1,0.1-0.2,0.3c0.1,0.9,0.1,1.5,0.2,2s0.3,0.8,0.6,1.3c0,0.3,0,0.5,0,0.8
		c2.5-0.9,2.4-0.7,3.2-3.2c0.3-0.3,0.4-0.3,0.3-0.3C1246.2,271.5,1246.2,271.5,1246.1,271.4z"/>
	<path class="st0" d="M1287.5,253c-0.4,0.4-0.4,0.5-0.4,0.5s0,0-0.1,0s-0.2,0.1-0.4,0.3c0.3,0.5,0.4,0.8,0.5,1
		c0.2,0.5,0,0.2,1.1,0.4c0.2,0,0.5,0.1,0.8,0.2c0-0.8,0-1.6,0-2.4C1288.6,253,1288.1,253,1287.5,253L1287.5,253z"/>
	<path class="st0" d="M1272.6,257.6c0-0.1-0.1-0.2-0.3-0.3c-0.1-0.1-0.1-0.1-0.2-0.3l0,0l0,0c0,0.5,0,1.1,0,1.6l0,0
		c0.3,0,0.5,0,0.8,0l0,0C1272.7,258,1272.6,257.8,1272.6,257.6z"/>
	<path class="st0" d="M713.7,270.6c-0.5,0.2-0.1-0.1-0.6,1.8c0.7,0,1.5,0,2.2,0c-0.2-0.7-0.5-1.5-0.7-2.2
		C714.2,270.4,713.9,270.5,713.7,270.6z"/>
</g>
<g>
	<path class="st0" d="M365.8,186.1c-3.6-3.1-7.9-5.8-12.9-8.2c-5.1-2.3-10.7-4.4-17-6.3c-4-1.3-7.5-2.4-10.6-3.3
		c-3.1-0.9-5.8-1.8-8-2.8s-3.8-2-5-3.2s-1.7-2.6-1.7-4.4c0-2.4,1-4.2,3-5.2s4.6-1.5,8-1.5c4.1,0,8.3,0.7,12.6,2
		c4.3,1.3,8.2,2.8,11.6,4.3c4.1,1.8,8.1,3.8,11.9,6.1l16.1-30.9c-3.1-1.5-6.5-3.2-10.4-4.9s-8-3.3-12.4-4.8s-9-2.7-13.7-3.6
		c-4.7-1-9.6-1.4-14.6-1.4c-6.8,0-13.2,1-19.3,3c-6.1,2-11.5,4.9-16.2,8.7s-8.5,8.6-11.2,14.4c-2.8,5.8-4.1,12.4-4.1,19.9
		c0,5,0.7,9.4,2,13.2s3.4,7.3,6.2,10.3c2.8,3,6.4,5.7,10.7,8.1c4.3,2.4,9.5,4.6,15.5,6.6c0.6,0.2,1.3,0.4,1.9,0.6
		c0.2-0.7,0.6-0.8,0.6-0.8c1.3-4.3-1.6-5.8,4.5-6c1.2,2.1,1.9,1.3,2.2,4.5c-1.7,1.4-2.1,2.7-4.1,3.4c2.2,0.7,4.4,1.4,6.4,1.9
		c3.6,1,6.9,2,9.7,3.1c2.8,1,5,2.2,6.6,3.5s2.4,3,2.4,4.9c0,1.8-0.8,3.2-2.4,4.3s-4.4,1.6-8.5,1.6c-5.4,0-10.6-0.8-15.8-2.3
		s-9.8-3.3-13.9-5.2c-4.9-2.2-9.5-4.7-14-7.5l-14.3,29.1c0.2,0.9,0.5,1.9,0.7,2.8c-0.2,0-0.5,0-0.7,0c-0.6,0.9-0.6,1-1.1,1.2
		c3.9,2.3,8.2,4.4,12.7,6.2c4.8,1.9,9.8,3.6,15,5s10.4,2.5,15.6,3.3s10.4,1.2,15.3,1.2c6.3,0,12.5-0.7,18.7-2.2
		c6.2-1.5,11.8-3.9,16.7-7.2c4.9-3.3,8.9-7.8,11.9-13.3c3-5.6,4.5-12.4,4.5-20.6c0-6.4-1-11.8-2.9-16.3
		C372.1,193.1,369.4,189.3,365.8,186.1z M356.9,140.7c-0.5,2.1-0.2,1.7-2.2,2.2C355.2,140.8,354.8,141.2,356.9,140.7z M350.1,157.2
		c0.5,0,1,0,1.5,0c0,0.5,0,1,0,1.5c-0.5,0-1,0-1.5,0C350.1,158.2,350.1,157.7,350.1,157.2z M342.6,140.7c0,0.2,0,0.5,0,0.7
		c-1.5-0.4-0.6,0.1-1.5-0.7C341.6,140.7,342.1,140.7,342.6,140.7z M333.6,124.9c0.9,0.6,0.1-0.1,0.8,0.7c0.2,0,0.5,0,0.7,0
		c-0.2,0.7-0.5,1.5-0.7,2.2c-0.5,0-1,0-1.5,0C333.1,126.9,333.4,125.9,333.6,124.9z M332.1,132.4c0.9-0.9,0.3,0,0.7-1.5
		c2.7-0.5,3.4-1,6,0c-0.2,0.7-0.5,1.5-0.7,2.2c-1.7,1-3.5,2-5.2,3c0-0.2,0-0.5,0-0.8c-0.2,0-0.5,0-0.7,0
		C332.1,134.4,332.1,133.4,332.1,132.4z M326.1,138.4c0,0.2,0,0.5,0,0.7c-1.5-0.4-0.6,0.1-1.5-0.7
		C325.1,138.4,325.6,138.4,326.1,138.4z M283.4,182.7c0,0.2,0,0.5,0,0.7c-0.9-0.9-0.3,0-0.7-1.5c0.5,0,1,0,1.5,0
		C283.5,182.8,284.2,182,283.4,182.7z M287.1,142.9c-0.9-0.6-0.1,0.1-0.7-0.7c-0.9-0.6-0.1,0.1-0.8-0.7c0.2,0,0.5,0,0.8,0
		c0.9-0.9,0-0.3,1.5-0.7C287.6,141.4,287.4,142.2,287.1,142.9z M300.6,169.9c-1,0.6-0.9,0.5-1.5,1.5c-3-1.6-1.7-1-6-0.7
		c0.3-1.8,0.9-2.4,1.5-3.7c0.7,0,1.5,0,2.2,0c0,0.5,0,1,0,1.5c1.2-0.2,2.5-0.5,3.7-0.7C300.6,168.4,300.6,169.2,300.6,169.9z
		 M305.9,137.7c-0.9,0.6-0.1-0.1-0.7,0.7c-0.7,0-1.5,0-2.2,0c0-1,0-2,0-3c1.6-0.8,1.3-1.2,3.7-1.5
		C306.4,135.2,306.1,136.4,305.9,137.7z M310.4,148.2c0.5,0,1,0,1.5,0c0,0.5,0,1,0,1.5c-0.5,0-1,0-1.5,0
		C310.4,149.2,310.4,148.7,310.4,148.2z M311.1,166.9c-0.5,0-1,0-1.5,0c0-0.5,0-1,0-1.5c0.5,0,1,0,1.5,0
		C311.1,165.9,311.1,166.4,311.1,166.9z M317.9,175.9c-0.5,0-1,0-1.5,0c0-0.5,0-1,0-1.5c0.5,0,1,0,1.5,0
		C317.9,174.9,317.9,175.4,317.9,175.9z M276.6,242.7c0.2-0.7,0.5-1.5,0.7-2.2c0.9,0.6,0.1-0.1,0.7,0.7c0.9,0.9,0.3,0,0.7,1.5
		C278.1,242.7,277.4,242.7,276.6,242.7z M278.9,232.2c-1.8,0.7-1,0.7-2.2-0.7C277.2,231.5,279.5,230.9,278.9,232.2z M287.1,229.2
		c0-0.7,0-1.5,0-2.2c0.7,0,1.5,0,2.2,0c0,0.2,0,0.5,0,0.7c0.9,0.9,0.3,0,0.7,1.5C289.1,229.2,288.1,229.2,287.1,229.2z M292.4,221.7
		c-0.5,0-1,0-1.5,0c0-0.7,0-1.5,0-2.2c0.5,0,1,0,1.5,0C292.4,220.2,292.4,220.9,292.4,221.7z M302.1,223.2c-1.5-0.4-0.6,0.1-1.5-0.7
		c0.5,0,1,0,1.5,0C302.1,222.7,302.1,222.9,302.1,223.2z M317.1,252.4c-1,0-2,0-3,0c0.2-1.8,0.3-1.9,0.7-3c1.5,0.4,0.6-0.1,1.5,0.7
		c0.2,0,0.5,0,0.7,0C317.1,250.9,317.1,251.7,317.1,252.4z M328.4,254.7c-1.1,0.4-1.2,0.6-3,0.8c-0.8-2.2-0.8-1.5,0-3.7
		c0.7,0,1.5,0,2.2,0c0,0.2,0,0.5,0,0.7c0.2,0,0.5,0,0.7,0C328.4,253.2,328.4,253.9,328.4,254.7z M356.9,184.2
		c-0.4,0.3-0.1,1.2-1.5,0.7c0-0.2,0-0.5,0-0.7c-0.9-0.9-0.3,0-0.7-1.5c1.8,0.2,1.9,0.3,3,0.7C357,184.3,357.7,183.5,356.9,184.2z"/>
	<path class="st0" d="M430.8,201.4h49.5v-30.3h-49.5v-19.2h57.9v-32.6h-95.3v136.2h97v-32.6h-59.6L430.8,201.4L430.8,201.4z
		 M461.9,121.9c0.5,0,1,0,1.5,0c0,0.5,0,1,0,1.5c-0.5,0-1,0-1.5,0C461.9,122.9,461.9,122.4,461.9,121.9z M442.4,130.2
		c0.9-0.6,0.1,0.1,0.7-0.7c1.5,0.4,0.6-0.1,1.5,0.7c0.2,0,0.5,0,0.7,0c0,0.7,0,1.5,0,2.2c-0.9,0.6-0.1-0.1-0.7,0.7
		c-0.7,0-1.5,0-2.2,0C442.4,132.2,442.4,131.2,442.4,130.2z M434.1,136.9c0.7,0,1.5,0,2.2,0c0,1,0,2,0,3c-0.9,0.6-0.1-0.1-0.7,0.7
		c-0.7,0-1.5,0-2.2,0C433.6,139.4,433.9,138.2,434.1,136.9z M441.6,242.7c0.9,0.6,0.1-0.1,0.7,0.8c0.9,0.9,0.3,0,0.7,1.5
		c-0.7,0-1.5,0-2.2,0C441.1,244.2,441.4,243.4,441.6,242.7z M431.9,234.4c0.7,0,1.5,0,2.2,0c0,0.2,0,0.5,0,0.7c0.2,0,0.5,0,0.7,0
		c0,0.7,0,1.5,0,2.2c-1.1,0.4-1.2,0.6-3,0.7C431.1,235.9,431.1,236.6,431.9,234.4z M396.6,232.2c-0.5,0-1,0-1.5,0c0-0.5,0-1,0-1.5
		c0.5,0,1,0,1.5,0C396.6,231.2,396.6,231.7,396.6,232.2z M396.6,120.4c-0.2,0-0.5,0-0.7,0c-0.9,0.9,0,0.3-1.5,0.7c0-0.5,0-1,0-1.5
		c0.7,0,1.5,0,2.2,0C396.6,119.9,396.6,120.2,396.6,120.4z M398.9,244.9c-0.2,0-0.5,0-0.7,0c0-0.7,0-1.5,0-2.2c0.5,0,1,0,1.5,0
		C399.4,243.4,399.1,244.2,398.9,244.9z M404.1,255.4c-0.5,0-1,0-1.5,0c0-0.5,0-1,0-1.5c0.5,0,1,0,1.5,0
		C404.1,254.4,404.1,254.9,404.1,255.4z M407.1,122.7c-0.5,0-1,0-1.5,0c0-0.5,0-1,0-1.5c0.5,0,1,0,1.5,0
		C407.1,121.7,407.1,122.2,407.1,122.7z M408.6,133.2c-0.9-0.6-0.1,0.1-0.7-0.7c0.2,0,0.5,0,0.7,0c0.9-0.9,0-0.3,1.5-0.7
		c-0.2,0.7-0.5,1.5-0.7,2.2C408.5,133.3,409.3,134,408.6,133.2z M411.6,172.9c-0.7,0-1.5,0-2.2,0c0-0.2,0-0.5,0-0.7
		c0.9-0.9,0.3,0,0.7-1.5c0.7,0,1.5,0,2.2,0C412.1,171.4,411.9,172.2,411.6,172.9z M416.1,193.9c-0.7,0-1.5,0-2.2,0
		c0.2-4.3,2.2-5.4,3-9c0.7,0.2,1.5,0.5,2.2,0.7C418.1,188.4,417.1,191.2,416.1,193.9z"/>
	<polygon class="st0" points="583.9,119.3 559.1,162.2 534.4,119.3 493.9,119.3 539.4,188.3 495.5,255.5 535.9,255.5 559.1,214.4 
		582.3,255.5 622.6,255.5 578.7,188.3 623.8,119.9 623.8,119.3 	"/>
	<path class="st0" d="M701.8,123.4c0-0.2,0-0.5,0-0.7c-0.2,0-0.5,0-0.7,0c-0.1-1.8-0.2-1.9-0.7-3c0.2,0,0.5,0,0.7,0
		c0-0.1,0-0.3,0-0.4h-76.9l-0.4,0.6v32h32.3c-0.2-3.7-0.5-7.5-0.7-11.2c0.2,0,0.5,0,0.7,0c0.2-1.2,0.5-2.5,0.7-3.7
		c2.7-1.6,2.6-3,7.5-3c0.4,0.7,1.4,1.2,1.5,1.5c0,0.5,0,1,0,1.5c0.2,0,0.5,0,0.8,0c1.7,4.6-3.4,11.4-5.2,12.7c-0.5,0-1,0-1.5,0
		c0,0.2,0,0.5,0,0.7c-1.3,1-1.5,1.2-3.6,1.5h6.8v103.6h37.4V151.9h39.1v-32.6H707C706.5,122.2,705.4,123.3,701.8,123.4z
		 M683.8,128.7c0,0.7,0,1.5,0,2.2c-0.7,0-1.5,0-2.2,0C682.1,128.8,681.8,129.2,683.8,128.7z M668.1,129.4c0-0.5,0-1,0-1.5
		c0.9,0.9,0.3,0,0.7,1.5C668.6,129.4,668.3,129.4,668.1,129.4z M674.1,121.2c-0.7,0-1.5,0-2.2,0c0-0.5,0-1,0-1.5c0.7,0,1.5,0,2.2,0
		C674.1,120.2,674.1,120.7,674.1,121.2z M685.3,155.7c-1-0.5-2-1-3-1.5c0.1,5.8,0.2,12-1.5,15.7c-1.5-0.4-0.6,0.1-1.5-0.7
		c-0.2,0-0.5,0-0.7,0c0-1.5,0-3,0-4.5c1.2-1.4,1.3-11.6,2.2-14.2c1.1,0.7,1.3,1.5,2.2,2.2c0.9-1.4,0.8-1.2,3-1.5
		c0.4,1.1,0.6,1.2,0.7,3C685.8,154.8,685.9,154.7,685.3,155.7z"/>
	<polygon class="st0" points="623.8,119.3 623.8,119.9 624.2,119.3 	"/>
	<path class="st0" d="M856.4,188.6c3.5-6.8,5.2-14.2,5.2-22.2c0-5.8-1.2-11.5-3.5-17.2s-5.5-10.7-9.5-15.2c-4-4.4-8.9-8-14.5-10.7
		s-11.8-4.1-18.4-4.1h-62.5v136.2h37.4v-41.8h14l25.9,41.8h42.2l-30.7-50C848.2,201.1,853,195.5,856.4,188.6z M790.6,181v-29.2h22.6
		c2.3,0,4.6,1.2,6.9,3.7c2.3,2.5,3.5,6.1,3.5,10.8c0,4.6-1,8.2-3,10.7c-2,2.6-4.1,3.8-6.4,3.8"/>
	<polygon class="st0" points="922.2,201.4 971.7,201.4 971.7,171.1 922.2,171.1 922.2,151.9 980.1,151.9 980.1,119.3 884.8,119.3 
		884.8,255.5 981.8,255.5 981.8,222.9 922.2,222.9 	"/>
	<path class="st0" d="M1069.5,183.3l-29.3-64.1h-40.9v136.2h37.4v-71.7l22.8,50.4h19.9l22.8-50.4v71.7h37.4V119.3H1099L1069.5,183.3
		z M1132.3,243.4c0,0.5,0,1,0,1.5c-1.8-0.5-1.4-0.2-2.2-1.5C1130.8,243.4,1131.5,243.4,1132.3,243.4z M1121,254.7c0.7,0,1.5,0,2.2,0
		c0,0.2,0,0.5,0,0.8c-0.7,0-1.5,0-2.2,0C1121,255.2,1121,254.9,1121,254.7z"/>
	<path class="st0" d="M1258.2,222.9c-0.2,1.1-0.4,2.2-0.7,3.3c-1.6,0.8-1.3,1.2-3.7,1.5c-0.5-1.2-0.7-1.8-0.7-3.7
		c1-0.5,1.3-0.8,1.8-1.1h-54.3v-21.5h49.5v-30.3h-49.5v-19.2h57.9v-32.6h-95.3v10.1c0.2,0,0.5,0,0.7,0c0,0.5,0,1,0,1.5
		c-0.2,0-0.5,0-0.7,0v124.5h97v-32.6h-2V222.9z M1225.3,191.7c1.6-0.8,1.3-1.2,3.7-1.5c0.4,1.1,0.6,1.2,0.7,3
		c-0.7,0.2-1.5,0.5-2.2,0.7c0,0.2,0,0.5,0,0.7c-0.8-0.2-1.5-0.5-2.2-0.7C1225.3,193.2,1225.3,192.4,1225.3,191.7z M1253.8,144.4
		c0.5-0.2,1-0.5,1.5-0.7c0-0.2,0-0.5,0-0.7c1-0.2-0.2,0.3,0.7,0.7c0.2,0,0.5,0,0.8,0c0,0.7,0,1.5,0,2.2c-0.7,0-1.5,0-2.2,0
		c0-0.2,0-0.5,0-0.7c-0.2,0-0.5,0-0.8,0C1253.8,144.9,1253.8,144.7,1253.8,144.4z M1251.5,133.9c0.2,0,0.5,0,0.7,0
		c0-0.2,0-0.5,0-0.7c0.5,0.5,1.2,0.8,0.8,2.2c-0.8,0.7-0.7-0.6-0.8-0.7c-0.2,0-0.5,0-0.7,0C1251.5,134.4,1251.5,134.2,1251.5,133.9z
		 M1238.8,119.7c0.5,0,1,0,1.5,0c0,0.5,0,1,0,1.5c-0.5,0-1,0-1.5,0C1238.8,120.7,1238.8,120.2,1238.8,119.7z M1231.3,128.7
		c0.2,0,0.5,0,0.7,0c0,0.2,0,0.5,0,0.7c0.2,0,0.5,0,0.8,0c-0.6,0.9,0.1,0.1-0.8,0.7c-0.9,0.9,0,0.3-1.5,0.7
		C1230.8,130.2,1231,129.4,1231.3,128.7z M1207.3,145.9c-0.5,0-1,0-1.5,0c0-0.7,0-1.5,0-2.2c0.5,0,1,0,1.5,0
		C1207.3,144.4,1207.3,145.2,1207.3,145.9z M1200.5,137.7c2.3-1.2,1.3-1.4,5.2-1.5c0.5,1.3,0.7,2.4,0.7,4.5
		c-0.7,0.2-1.5,0.5-2.2,0.7c0,0.2,0,0.5,0,0.7c-0.8,0-1.5,0-2.2,0c-0.9-0.9,0-0.3-1.5-0.7C1200.5,140.2,1200.5,138.9,1200.5,137.7z
		 M1166,134.7c-0.2,0-0.5,0-0.8,0c0-0.7,0-1.5,0-2.2c1.8,0.2,1.9,0.3,3,0.7c-0.4,1.5,0.1,0.6-0.7,1.5c0,0.2,0,0.5,0,0.7
		C1166,135,1166.9,135.5,1166,134.7z M1169,163.9c0,0.2,0,0.5,0,0.7c-0.8,0-1.5,0-2.2,0c0-0.7,0-1.5,0-2.2c1.8,0.2,1.9,0.3,3,0.7
		C1169.1,164,1169.9,163.3,1169,163.9z M1176.5,176.7c0,0.2,0,0.5,0,0.7c-0.2,0-0.5,0-0.7,0c0-0.2,0-0.5,0-0.7c-0.2,0-0.5,0-0.7,0
		c0-0.2,0-0.5,0-0.7c0.2-0.5,0.5-1,0.7-1.5c1.3,0.8,1,0.5,1.5,2.2C1177,176.7,1176.8,176.7,1176.5,176.7z M1184,235.2
		c0-0.7,0-1.5,0-2.2c0.2,0,0.5,0,0.7,0c0,0.2,0,0.5,0,0.7c0.9,0.9,0.3,0,0.7,1.5C1185,235.2,1184.5,235.2,1184,235.2z M1195.3,204.4
		c-1.5-0.4-0.6,0.1-1.5-0.7c-0.9-0.9-0.3,0-0.7-1.5c0.2,0,0.5,0,0.7,0c0-0.2,0-0.5,0-0.7c0.7,0.2,1.5,0.5,2.2,0.7
		C1195.8,202.9,1195.5,203.7,1195.3,204.4z M1192.3,132.4c-1.5-0.2-3-0.5-4.5-0.7c0-0.2,0-0.5,0-0.7c-0.2,0-0.5,0-0.8,0
		c0-0.7,0-1.5,0-2.2c0.2,0,0.5,0,0.8,0c0.2-1.2,0.5-2.5,0.7-3.7c1-0.4,1.6-0.7,2.2-1.5c1.5,0,3,0,4.5,0c1.2,2.3,1.4,1.3,1.5,5.2
		C1195.3,129.9,1193.8,131.2,1192.3,132.4z M1201.3,253.2c-1.5-0.4-0.6,0.1-1.5-0.7c0.5,0,1,0,1.5,0
		C1201.3,252.7,1201.3,252.9,1201.3,253.2z M1211,241.9c-0.2,0-0.5,0-0.7,0c0,0.2,0,0.5,0,0.7c-1.5-0.4-0.6,0.1-1.5-0.7
		c-0.9-0.9-0.3,0-0.7-1.5c1.4-0.7,1.2-1,3-1.5C1211,239.9,1211,240.9,1211,241.9z M1242.5,232.2c-1.5-0.4-0.6,0.1-1.5-0.7
		c-0.2,0-0.5,0-0.8,0c0-0.7,0-1.5,0-2.2c1,0,2,0,3,0C1243.1,230.9,1242.9,231,1242.5,232.2z"/>
</g>
<g>
	<path class="st1" d="M177.6,178.7c5.4-10.1,8.4-21.8,7.9-33.4c-0.5-13.9-10.1-30.2-27.2-32.9c-1.2-0.2-2.5-0.5-3.5-0.5
		c-3.2-0.2-6.4-0.2-9.6,0l-2.5,0.5c-19.1,3.5-32.9,25.2-28,44.5h20.8c-0.2-2.2-0.7-3.2-0.7-4.9c0-8.2,1.7-10.6,3.7-13.9
		c4.9-8.7,17.1-9.4,21.8-1c1.7,3,2.5,6.4,3,9.6c0.7,7.9-1.2,15.6-4.7,22.8c-8.2,16.8-16.6,33.7-25.2,50.2l30.9-15.3L177.6,178.7z"/>
	<path class="st1" d="M230.8,111.7h-4.5c-0.7,1-1.5,2.2-2.5,3l-29.9,20c-1,0.7-2.7,1.5-3,2.5c-0.2,5.9-0.2,11.9-0.2,19.1l19.3-11.9
		v37.1l20.8-10.4C231.1,151.3,231.1,131.5,230.8,111.7z"/>
	<path class="st2" d="M112.1,261.6h71.3v-19.1h-39.6l2.5-4.7l17.8-33.2l-30.9,15.3l-11.9,23.5C118.2,249.5,115.3,255.4,112.1,261.6z
		"/>
	<path class="st2" d="M230.8,261.6c0-1.2,0.2-2.5,0.2-3.5c0-28,0-55.7,0-83.6c0-1.2,0-2.5,0-3.5l-20.8,10.4v80.2L230.8,261.6
		L230.8,261.6z"/>
</g>
</svg>
