<svg width="1819" height="210" viewBox="0 0 1819 210" fill="none" xmlns="http://www.w3.org/2000/svg">
<g clip-path="url(#clip0)">
<path d="M309.37 51.31V168.36C309.398 168.555 309.381 168.753 309.319 168.94C309.257 169.127 309.153 169.297 309.014 169.437C308.876 169.576 308.706 169.682 308.52 169.745C308.334 169.808 308.135 169.827 307.94 169.8H280.94C280.745 169.827 280.547 169.808 280.36 169.745C280.174 169.682 280.004 169.576 279.866 169.437C279.727 169.297 279.623 169.127 279.561 168.94C279.499 168.753 279.482 168.555 279.51 168.36V122.95L264.64 125.95V168.33C264.64 169.33 264.21 169.77 263.36 169.77H236.14C235.944 169.799 235.745 169.781 235.557 169.719C235.369 169.656 235.199 169.551 235.059 169.411C234.919 169.271 234.814 169.101 234.751 168.913C234.689 168.725 234.672 168.526 234.7 168.33V51.31C234.672 51.1143 234.689 50.9146 234.751 50.7268C234.814 50.5391 234.919 50.3685 235.059 50.2286C235.199 50.0888 235.369 49.9835 235.557 49.9213C235.745 49.859 235.944 49.8414 236.14 49.87H263.32C264.17 49.87 264.6 50.35 264.6 51.31V96.24L279.47 93.36V51.31C279.442 51.1152 279.459 50.9165 279.521 50.7297C279.583 50.5428 279.687 50.3729 279.826 50.2332C279.965 50.0936 280.134 49.9881 280.32 49.9251C280.507 49.862 280.705 49.8431 280.9 49.87H307.9C308.098 49.8361 308.301 49.8497 308.493 49.9096C308.685 49.9695 308.859 50.074 309.003 50.2146C309.146 50.3551 309.254 50.5277 309.318 50.7181C309.382 50.9085 309.4 51.1114 309.37 51.31V51.31Z" fill="white"/>
<path d="M366.62 79.77V91.83L391.24 96.83C391.571 96.8948 391.867 97.0777 392.073 97.3444C392.279 97.6111 392.381 97.9436 392.36 98.28V125.28C392.361 125.49 392.319 125.697 392.236 125.89C392.154 126.083 392.032 126.256 391.88 126.4C391.575 126.58 391.233 126.689 390.88 126.72H390.56L366.56 121.72V139.89H410.05C411.05 139.89 411.49 140.31 411.49 141.16V168.16C411.517 168.355 411.498 168.554 411.435 168.74C411.372 168.926 411.266 169.096 411.127 169.234C410.987 169.373 410.817 169.477 410.63 169.539C410.443 169.601 410.245 169.618 410.05 169.59H338.05C337.854 169.619 337.655 169.601 337.467 169.539C337.279 169.476 337.109 169.371 336.969 169.231C336.829 169.091 336.724 168.921 336.661 168.733C336.599 168.545 336.581 168.346 336.61 168.15V51.31C336.61 50.46 337.09 50.03 338.05 50.03H410.05C411.05 50.03 411.49 50.45 411.49 51.3V78.3C411.517 78.495 411.498 78.6935 411.435 78.8799C411.372 79.0664 411.266 79.2356 411.127 79.3743C410.987 79.5129 410.817 79.6172 410.63 79.679C410.443 79.7407 410.245 79.7582 410.05 79.73L366.62 79.77Z" fill="white"/>
<path d="M509.25 168.36C509.279 168.556 509.261 168.755 509.199 168.943C509.136 169.131 509.031 169.301 508.891 169.441C508.751 169.581 508.581 169.686 508.393 169.749C508.205 169.811 508.006 169.829 507.81 169.8H480.81C480.614 169.829 480.415 169.811 480.227 169.749C480.039 169.686 479.868 169.581 479.729 169.441C479.589 169.301 479.484 169.131 479.421 168.943C479.359 168.755 479.341 168.556 479.37 168.36V85.03L464.37 88.03V168.3C464.399 168.496 464.381 168.695 464.319 168.883C464.256 169.071 464.151 169.241 464.011 169.381C463.871 169.521 463.701 169.626 463.513 169.689C463.325 169.751 463.126 169.769 462.93 169.74H435.93C435.734 169.769 435.535 169.751 435.347 169.689C435.159 169.626 434.988 169.521 434.849 169.381C434.709 169.241 434.604 169.071 434.541 168.883C434.479 168.695 434.461 168.496 434.49 168.3V51.47C434.461 51.2743 434.479 51.0746 434.541 50.8869C434.604 50.6992 434.709 50.5286 434.849 50.3887C434.988 50.2488 435.159 50.1436 435.347 50.0813C435.535 50.019 435.734 50.0015 435.93 50.03H462.93C463.126 50.0015 463.325 50.019 463.513 50.0813C463.701 50.1436 463.871 50.2488 464.011 50.3887C464.151 50.5286 464.256 50.6992 464.319 50.8869C464.381 51.0746 464.399 51.2743 464.37 51.47V58.34L507.47 50.03C507.915 50.0376 508.353 50.1471 508.75 50.35C508.902 50.4939 509.024 50.6675 509.106 50.8602C509.189 51.0528 509.231 51.2604 509.23 51.47L509.25 168.36Z" fill="white"/>
<path d="M609.18 51.46V78.34C609.207 78.535 609.188 78.7335 609.125 78.9199C609.062 79.1063 608.956 79.2756 608.817 79.4142C608.677 79.5529 608.507 79.6572 608.32 79.719C608.133 79.7807 607.935 79.7982 607.74 79.77H586.64V168.36C586.64 169.21 586.16 169.64 585.19 169.64H558.02C557.846 169.665 557.669 169.649 557.502 169.594C557.335 169.538 557.184 169.445 557.059 169.321C556.935 169.196 556.841 169.045 556.786 168.878C556.731 168.711 556.715 168.534 556.74 168.36V79.77H535.47C535.275 79.7982 535.077 79.7807 534.89 79.719C534.703 79.6572 534.533 79.5529 534.393 79.4142C534.254 79.2756 534.148 79.1063 534.085 78.9199C534.022 78.7335 534.003 78.535 534.03 78.34V51.46C534.003 51.265 534.022 51.0665 534.085 50.8801C534.148 50.6937 534.254 50.5244 534.393 50.3858C534.533 50.2471 534.703 50.1428 534.89 50.081C535.077 50.0193 535.275 50.0018 535.47 50.03H607.74C607.935 50.0018 608.133 50.0193 608.32 50.081C608.507 50.1428 608.677 50.2471 608.817 50.3858C608.956 50.5244 609.062 50.6937 609.125 50.8801C609.188 51.0665 609.207 51.265 609.18 51.46Z" fill="white"/>
<path d="M712.16 50.03C712.356 50.0015 712.555 50.019 712.743 50.0813C712.931 50.1436 713.101 50.2488 713.241 50.3887C713.381 50.5286 713.486 50.6992 713.549 50.8869C713.611 51.0746 713.629 51.2743 713.6 51.47V168.36C713.629 168.556 713.611 168.755 713.549 168.943C713.486 169.131 713.381 169.301 713.241 169.441C713.101 169.581 712.931 169.686 712.743 169.749C712.555 169.811 712.356 169.829 712.16 169.8H685.16C684.964 169.829 684.765 169.811 684.577 169.749C684.389 169.686 684.219 169.581 684.079 169.441C683.939 169.301 683.834 169.131 683.771 168.943C683.709 168.755 683.691 168.556 683.72 168.36V128.22L668.72 125.34V168.34C668.72 169.19 668.23 169.62 667.27 169.62H640.27C639.27 169.62 638.82 169.19 638.82 168.34V51.31C638.82 50.46 639.3 50.03 640.26 50.03H712.16ZM668.67 95.44L683.67 98.44V79.77H668.67V95.44Z" fill="white"/>
<path d="M780.76 51.47V168.36C780.787 168.556 780.768 168.756 780.704 168.944C780.64 169.131 780.534 169.302 780.394 169.441C780.253 169.581 780.082 169.686 779.894 169.748C779.706 169.81 779.506 169.828 779.31 169.8H752.14C751.28 169.8 750.85 169.32 750.85 168.36V51.47C750.85 50.51 751.28 50.03 752.14 50.03H779.31C779.506 50.0019 779.706 50.0196 779.894 50.0819C780.082 50.1442 780.253 50.2492 780.394 50.3888C780.534 50.5284 780.64 50.6987 780.704 50.8863C780.768 51.0739 780.787 51.2737 780.76 51.47V51.47Z" fill="white"/>
<path d="M889.19 100.67C899.28 102.47 907.25 105.19 913.07 108.74C918.89 112.29 923.26 116.09 926.17 120.09C928.824 123.519 930.654 127.511 931.52 131.76C932.11 134.776 932.372 137.847 932.3 140.92C932.081 145.434 930.811 149.834 928.59 153.77C926.406 157.639 923.444 161.014 919.89 163.68C916.116 166.485 911.878 168.604 907.37 169.94C902.375 171.427 897.166 172.063 891.96 171.82C886.748 171.683 881.571 170.92 876.54 169.55C872.315 168.367 868.236 166.714 864.38 164.62C864.38 166.69 864.3 167.73 864.25 169.8C854.77 169.57 850.03 169.49 840.54 169.37C840.71 155.37 840.8 148.32 840.98 134.29C850.63 134.41 855.45 134.5 865.1 134.73C866.956 136.841 868.962 138.816 871.1 140.64C872.966 142.247 874.997 143.651 877.16 144.83C879.368 145.993 881.722 146.855 884.16 147.39C887.048 148.011 889.987 148.365 892.94 148.45C896.692 148.729 900.45 147.983 903.81 146.29C906.737 144.69 908.263 142.5 908.39 139.72C908.518 137.479 907.805 135.272 906.39 133.53C904.84 131.632 902.943 130.047 900.8 128.86C898.382 127.49 895.811 126.41 893.14 125.64C890.35 124.81 887.57 124.13 884.82 123.59C875.06 121.82 867.27 119.4 861.43 116.26C855.59 113.12 851.09 109.76 847.94 106.15C845.059 103.014 842.952 99.2469 841.79 95.15C840.911 91.8883 840.451 88.528 840.42 85.15C840.438 80.5103 841.559 75.9415 843.69 71.82C845.835 67.698 848.827 64.0756 852.47 61.19C856.352 58.1202 860.756 55.776 865.47 54.27C870.637 52.6265 876.052 51.8956 881.47 52.11C886.824 52.1977 892.146 52.9399 897.32 54.32C901.544 55.5006 905.612 57.1791 909.44 59.32C909.53 57.32 909.57 56.32 909.66 54.32C919.66 54.76 924.66 55 934.66 55.55C933.89 69.55 933.51 76.55 932.74 90.55C922.84 90.01 917.89 89.76 907.98 89.33C906.226 87.291 904.367 85.345 902.41 83.5C900.648 81.848 898.686 80.4235 896.57 79.26C894.393 78.0845 892.079 77.1843 889.68 76.58C886.759 75.8848 883.772 75.5092 880.77 75.46C875.817 75.3133 871.983 76.3133 869.27 78.46C866.57 80.62 865.19 82.99 865.13 85.55C864.87 92.83 872.96 97.77 889.19 100.67Z" fill="white"/>
<path d="M1027.47 57.84L1027.67 92.92C1017.85 92.97 1012.94 93.03 1003.11 93.19L1002.91 81.5C993.03 81.67 988.09 81.78 978.21 82.06C978.47 91.41 978.61 96.06 978.87 105.44C988.65 105.16 993.54 105.05 1003.31 104.89L1003.71 128.27C994.04 128.44 989.2 128.55 979.54 128.82C979.8 138.17 979.93 142.82 980.2 152.2C989.76 151.93 994.54 151.82 1004.1 151.66L1003.9 139.96C1013.52 139.8 1018.32 139.75 1027.9 139.69C1027.97 153.69 1028.01 160.74 1028.09 174.77C1000.49 175.05 972.913 175.757 945.36 176.89C944.93 167.54 944.72 162.89 944.3 153.52C949.08 153.31 951.47 153.2 956.3 153.01L953.47 82.9C948.53 83.1 946.06 83.21 941.12 83.43C940.7 74.09 940.48 69.43 940.06 60.07C969.167 58.71 998.303 57.9666 1027.47 57.84Z" fill="white"/>
<path d="M1109.14 110.03C1118.47 121.53 1127.69 133.143 1136.78 144.87L1146.66 145.11C1146.41 154.47 1146.29 159.11 1146.04 168.49C1130.32 168.05 1114.59 167.807 1098.85 167.76L1098.95 144.38H1106.28C1101.21 138.06 1098.66 134.91 1093.52 128.62C1088.35 134.89 1085.79 138.03 1080.7 144.34H1088.21C1088.21 153.69 1088.21 158.34 1088.21 167.73C1072.47 167.73 1056.73 167.923 1040.98 168.31L1040.43 144.93C1044.32 144.83 1046.26 144.79 1050.15 144.72C1059.33 133.033 1068.66 121.447 1078.15 109.96C1068.24 98.0534 1058.18 86.26 1047.98 74.58C1044.32 74.65 1042.48 74.69 1038.82 74.78C1038.6 65.43 1038.49 60.78 1038.26 51.4C1054.93 51.0734 1071.56 50.8667 1088.15 50.78C1088.15 60.14 1088.15 64.78 1088.15 74.17H1079.51C1085.19 80.89 1088 84.26 1093.58 91.02C1099.26 84.28 1102.12 80.92 1107.88 74.21L1099.25 74.16C1099.25 64.81 1099.31 60.16 1099.34 50.77C1115.97 50.91 1132.59 51.1667 1149.18 51.54C1148.93 60.9 1148.81 65.54 1148.56 74.92L1139.4 74.7C1129.17 86.3334 1119.09 98.11 1109.14 110.03Z" fill="white"/>
<path d="M1248.98 98.72C1259.12 99.8 1267.21 101.913 1273.25 105.06C1279.25 108.19 1283.89 111.67 1287.07 115.45C1289.95 118.68 1292.05 122.529 1293.21 126.7C1294.01 129.666 1294.49 132.711 1294.64 135.78C1294.74 140.296 1293.79 144.773 1291.87 148.86C1289.98 152.875 1287.28 156.454 1283.94 159.37C1280.4 162.444 1276.33 164.862 1271.94 166.51C1267.1 168.362 1261.97 169.376 1256.79 169.51C1251.61 169.746 1246.42 169.354 1241.33 168.34C1237.05 167.484 1232.89 166.142 1228.92 164.34C1229.02 166.41 1229.07 167.45 1229.16 169.52C1219.75 169.97 1215.04 170.22 1205.63 170.77C1204.8 156.77 1204.38 149.77 1203.56 135.77C1213.13 135.21 1217.92 134.95 1227.49 134.49C1229.47 136.464 1231.58 138.296 1233.82 139.97C1235.79 141.434 1237.9 142.688 1240.13 143.71C1242.38 144.714 1244.76 145.407 1247.2 145.77C1250.11 146.186 1253.05 146.33 1255.99 146.2C1259.74 146.212 1263.42 145.199 1266.63 143.27C1269.41 141.46 1270.78 139.17 1270.7 136.39C1270.67 134.164 1269.82 132.028 1268.31 130.39C1266.66 128.577 1264.68 127.097 1262.47 126.03C1259.97 124.84 1257.34 123.944 1254.64 123.36C1251.81 122.733 1249.01 122.25 1246.24 121.91C1236.44 120.84 1228.53 118.98 1222.52 116.27C1216.51 113.56 1211.81 110.52 1208.43 107.14C1205.34 104.207 1202.98 100.59 1201.55 96.58C1200.44 93.4012 1199.75 90.0946 1199.48 86.74C1199.17 82.1159 1199.95 77.4835 1201.77 73.22C1203.62 68.9526 1206.34 65.1226 1209.77 61.98C1213.39 58.6412 1217.59 55.9881 1222.16 54.15C1227.16 52.1434 1232.47 51.0298 1237.85 50.86C1243.17 50.5594 1248.5 50.9188 1253.73 51.93C1258.01 52.8048 1262.17 54.1914 1266.12 56.06L1265.98 51.06C1275.98 50.78 1280.91 50.67 1290.86 50.5L1291.46 85.57C1281.59 85.74 1276.66 85.85 1266.8 86.13C1264.89 84.2215 1262.89 82.4124 1260.8 80.71C1258.93 79.1941 1256.89 77.9144 1254.71 76.9C1252.48 75.886 1250.12 75.1538 1247.71 74.72C1244.77 74.237 1241.78 74.076 1238.8 74.24C1233.87 74.44 1230.13 75.73 1227.61 78.07C1225.09 80.41 1223.88 82.88 1224 85.43C1224.3 92.64 1232.67 97.03 1248.98 98.72Z" fill="white"/>
<path d="M30.8201 38.22C25.0418 38.3124 19.3052 37.227 13.9601 35.03C11.7557 43.9834 10.5847 53.1599 10.4701 62.38C10.2839 73.95 10.7915 85.5208 11.9901 97.03H77.3501V20.38C72.8501 24.44 63.8801 30.92 48.7801 35.44C42.9603 37.2341 36.91 38.1706 30.8201 38.22V38.22Z" fill="#DD2A07"/>
<path d="M157.16 112.79H91.74V195.55C106.199 189.828 119.514 181.557 131.05 171.13C148.12 155.37 155.47 121.87 157.16 112.79Z" fill="#8E2F8C"/>
<path d="M1374.1 90.33C1373.9 88 1373.8 86.84 1373.59 84.51C1373.47 82.9594 1373.03 81.4509 1372.29 80.084C1371.55 78.717 1370.53 77.5228 1369.29 76.58C1368.04 75.5681 1366.6 74.8153 1365.05 74.3655C1363.51 73.9157 1361.89 73.7779 1360.29 73.96C1350.48 74.87 1345.58 75.35 1335.78 76.38C1334.18 76.5127 1332.62 76.9631 1331.2 77.7049C1329.78 78.4466 1328.52 79.4649 1327.49 80.7C1326.46 81.8652 1325.69 83.2349 1325.23 84.7189C1324.77 86.203 1324.63 87.7677 1324.82 89.31L1329.93 135.81C1330.08 137.349 1330.54 138.84 1331.3 140.189C1332.05 141.539 1333.08 142.717 1334.31 143.65C1335.53 144.634 1336.93 145.363 1338.43 145.794C1339.93 146.225 1341.51 146.35 1343.06 146.16C1352.54 145.16 1357.28 144.71 1366.77 143.82C1368.33 143.703 1369.85 143.274 1371.24 142.558C1372.63 141.841 1373.86 140.852 1374.86 139.65C1375.89 138.495 1376.66 137.14 1377.14 135.67C1377.62 134.2 1377.78 132.648 1377.63 131.11C1377.42 128.78 1377.32 127.61 1377.12 125.28C1386.69 124.45 1391.48 124.06 1401.12 123.28C1401.3 125.61 1401.38 126.78 1401.56 129.11C1401.95 133.806 1401.35 138.531 1399.8 142.98C1396.78 151.657 1390.56 158.851 1382.41 163.09C1378.25 165.314 1373.69 166.674 1368.99 167.09C1359.6 167.96 1354.91 168.43 1345.53 169.4C1340.83 169.935 1336.06 169.507 1331.53 168.14C1327.18 166.836 1323.11 164.734 1319.53 161.94C1315.96 159.152 1312.95 155.715 1310.65 151.81C1308.25 147.749 1306.74 143.227 1306.21 138.54L1300.57 92.11C1299.98 87.4513 1300.4 82.7201 1301.81 78.24C1303.18 73.8447 1305.42 69.7659 1308.38 66.24C1311.41 62.6437 1315.1 59.6543 1319.24 57.43C1323.64 55.0722 1328.46 53.6107 1333.43 53.13C1343.33 52.13 1348.29 51.61 1358.2 50.69C1363.14 50.2081 1368.12 50.7042 1372.87 52.15C1377.4 53.4971 1381.63 55.7039 1385.33 58.65C1388.93 61.5399 1391.93 65.1198 1394.13 69.18C1396.39 73.2983 1397.73 77.8556 1398.06 82.54C1398.23 84.87 1398.32 86.03 1398.5 88.37C1388.71 89.09 1383.84 89.48 1374.1 90.33Z" fill="white"/>
<path d="M1499.52 148.16C1504.27 148.55 1506.65 148.76 1511.4 149.16C1510.57 158.48 1510.15 163.16 1509.32 172.46C1493.67 171.04 1478.01 169.82 1462.32 168.8L1463.87 145.46C1468.63 145.78 1471.01 145.94 1475.76 146.29C1476.44 136.95 1476.76 132.29 1477.45 122.96C1463.45 121.96 1456.52 121.51 1442.56 120.73L1441.26 144.08L1453.16 144.78C1452.59 154.12 1452.3 158.78 1451.73 168.12C1436.05 167.14 1420.36 166.357 1404.65 165.77L1405.55 142.4C1410.31 142.58 1412.69 142.68 1417.46 142.89C1418.49 119.557 1419.52 96.1934 1420.56 72.8C1415.64 72.58 1413.18 72.48 1408.25 72.29L1409.15 48.92C1425.74 49.62 1442.32 50.4467 1458.89 51.4C1458.31 60.74 1458.03 65.4 1457.46 74.74C1452.54 74.44 1450.08 74.3 1445.16 74.03L1443.86 97.38C1457.97 98.16 1465.03 98.61 1479.13 99.63C1479.8 90.3 1480.13 85.63 1480.81 76.3C1475.89 75.95 1473.44 75.78 1468.52 75.45L1470.07 52.11C1486.64 53.2767 1503.2 54.5667 1519.74 55.98C1518.9 65.3 1518.49 69.98 1517.66 79.27C1512.75 78.84 1510.29 78.62 1505.38 78.21C1503.44 101.537 1501.49 124.853 1499.52 148.16Z" fill="white"/>
<path d="M1596.47 57.83C1601.32 58.8995 1605.92 60.9108 1610 63.75C1613.89 66.4233 1617.24 69.8178 1619.86 73.75C1622.4 77.6121 1624.15 81.9434 1625 86.49C1625.88 91.1005 1625.74 95.8458 1624.61 100.4L1613.61 145.86C1612.52 150.45 1610.47 154.759 1607.61 158.51C1602.05 165.833 1593.89 170.749 1584.82 172.25C1580.18 173.059 1575.42 172.933 1570.82 171.88C1561.61 169.8 1557 168.79 1547.76 166.82C1543.1 165.871 1538.68 163.99 1534.76 161.29C1531.02 158.699 1527.8 155.441 1525.24 151.68C1522.7 147.922 1520.89 143.718 1519.91 139.29C1518.89 134.683 1518.85 129.914 1519.79 125.29L1528.79 79.38C1529.67 74.7696 1531.53 70.4032 1534.25 66.58C1536.92 62.8041 1540.32 59.5985 1544.25 57.15C1552.58 52.0042 1562.6 50.3109 1572.16 52.43C1581.83 54.57 1586.7 55.64 1596.47 57.83ZM1600.73 94.78C1601.09 93.2697 1601.14 91.6993 1600.85 90.1722C1600.56 88.645 1599.96 87.1958 1599.07 85.92C1598.19 84.5714 1597.06 83.4108 1595.73 82.506C1594.4 81.6011 1592.91 80.9702 1591.33 80.65C1581.71 78.48 1576.89 77.42 1567.24 75.37C1565.68 75.0048 1564.05 74.9537 1562.47 75.2198C1560.89 75.4859 1559.37 76.0638 1558.01 76.92C1556.67 77.7061 1555.51 78.7691 1554.61 80.0382C1553.71 81.3074 1553.1 82.7534 1552.8 84.28C1549.63 99.5467 1546.46 114.813 1543.31 130.08C1542.97 131.589 1542.96 133.151 1543.26 134.668C1543.56 136.184 1544.17 137.622 1545.05 138.89C1545.9 140.204 1547.01 141.332 1548.31 142.208C1549.61 143.084 1551.07 143.69 1552.61 143.99C1561.95 145.99 1566.61 146.99 1575.93 149.1C1577.45 149.469 1579.03 149.529 1580.58 149.276C1582.12 149.024 1583.6 148.464 1584.93 147.63C1586.27 146.85 1587.43 145.801 1588.33 144.55C1589.24 143.298 1589.88 141.872 1590.21 140.36L1600.73 94.78Z" fill="white"/>
<path d="M1692.52 50.29C1697.5 50.2926 1702.43 51.271 1707.03 53.17C1711.42 54.9615 1715.43 57.575 1718.84 60.87C1722.16 64.0941 1724.8 67.9499 1726.6 72.21C1728.45 76.5265 1729.34 81.1946 1729.21 85.89L1728.21 132.65C1728.14 137.366 1727.07 142.014 1725.08 146.29C1723.17 150.422 1720.5 154.154 1717.2 157.29C1713.87 160.441 1709.98 162.935 1705.73 164.64C1701.35 166.433 1696.66 167.331 1691.93 167.28C1682.47 167.23 1677.74 167.23 1668.28 167.28C1663.52 167.349 1658.8 166.455 1654.4 164.65C1650.19 162.93 1646.33 160.441 1643.03 157.31C1639.74 154.174 1637.06 150.441 1635.16 146.31C1633.17 142.038 1632.1 137.393 1632.03 132.68C1631.67 117.093 1631.31 101.507 1630.96 85.92C1630.83 81.2258 1631.72 76.5587 1633.56 72.24C1635.36 67.9772 1637.99 64.1178 1641.3 60.89C1644.68 57.6109 1648.65 55.0016 1653 53.2C1657.62 51.2773 1662.58 50.2915 1667.59 50.3C1677.53 50.24 1682.52 50.23 1692.52 50.29ZM1704.62 85.47C1704.65 83.9164 1704.36 82.3734 1703.75 80.9428C1703.14 79.5122 1702.24 78.2264 1701.1 77.17C1699.95 76.0413 1698.59 75.1516 1697.09 74.5526C1695.6 73.9535 1694 73.6569 1692.39 73.68C1682.5 73.62 1677.56 73.62 1667.68 73.68C1666.07 73.6579 1664.47 73.956 1662.98 74.5568C1661.49 75.1577 1660.13 76.0493 1658.98 77.18C1657.84 78.234 1656.93 79.5193 1656.33 80.9505C1655.72 82.3817 1655.42 83.9259 1655.46 85.48L1656 132.26C1656 133.807 1656.32 135.337 1656.94 136.754C1657.56 138.17 1658.47 139.443 1659.61 140.49C1660.73 141.59 1662.05 142.454 1663.51 143.031C1664.97 143.608 1666.52 143.887 1668.09 143.85C1677.66 143.79 1682.44 143.79 1692.01 143.85C1693.58 143.885 1695.14 143.605 1696.59 143.028C1698.05 142.451 1699.38 141.588 1700.5 140.49C1701.64 139.442 1702.54 138.17 1703.16 136.753C1703.78 135.336 1704.1 133.806 1704.1 132.26C1704.27 116.653 1704.44 101.057 1704.62 85.47V85.47Z" fill="white"/>
<path d="M1818.75 157.31C1814.16 170.57 1811.87 177.21 1807.29 190.47C1781.1 181.55 1754.79 173.043 1728.36 164.95L1735.11 142.56C1739.69 143.94 1741.98 144.64 1746.56 146.05C1753.44 123.69 1760.32 101.333 1767.19 78.98C1762.46 77.53 1760.09 76.81 1755.36 75.38C1758.05 66.38 1759.36 61.94 1762.1 52.99C1778.06 57.87 1793.98 62.87 1809.85 67.99L1802.6 90.23C1797.89 88.69 1795.53 87.93 1790.81 86.42L1769.47 153.22C1778.6 156.14 1783.16 157.63 1792.26 160.66C1793.74 156.22 1794.47 154 1795.95 149.56C1805.05 152.61 1809.62 154.16 1818.75 157.31Z" fill="white"/>
<path d="M47.08 55.1C42.4998 55.3946 38.1811 57.3372 34.922 60.5688C31.6628 63.8004 29.6836 68.1025 29.35 72.68C29.351 73.335 29.2497 73.9862 29.05 74.61C28.7996 75.4032 28.3603 76.1239 27.77 76.71C27.3688 77.0541 26.8682 77.261 26.3411 77.3006C25.814 77.3402 25.2881 77.2103 24.84 76.93C24.1464 76.3704 23.5862 75.6632 23.2 74.86C22.7051 73.9034 22.5399 72.8101 22.73 71.75C22.8674 70.7465 23.3522 69.823 24.1 69.14C24.4549 68.7861 24.8674 68.4953 25.32 68.28C25.9096 67.9789 26.5509 67.7923 27.21 67.73C27.61 67.73 27.75 67.57 27.74 67.23C27.7439 67.1446 27.7221 67.0599 27.6776 66.9868C27.6331 66.9138 27.5677 66.8557 27.49 66.82C27.41 66.82 27.34 66.82 27.11 66.82C26.5282 66.8965 25.9507 67.0033 25.38 67.14C25.07 67.21 25.06 67.2 25.11 66.77C25.2446 65.7028 25.7855 64.7286 26.62 64.05C27.2884 63.2785 28.2106 62.7714 29.22 62.62C29.4455 62.6101 29.6637 62.5374 29.85 62.41C30.0084 62.2951 30.1378 62.1449 30.2281 61.9714C30.3183 61.7978 30.3669 61.6056 30.37 61.41C30.4356 60.9593 30.6145 60.5327 30.89 60.17C31.6153 59.1722 32.6837 58.4777 33.89 58.22C34.5006 58.1478 35.1164 58.1311 35.73 58.17C36.09 58.17 36.12 58.17 36.28 58.11C36.4971 57.9991 36.7074 57.8755 36.91 57.74C37.8648 57.1202 38.8681 56.5784 39.91 56.12C40.087 56.0573 40.2525 55.9661 40.4 55.85C40.432 55.7991 40.4489 55.7401 40.4489 55.68C40.4489 55.6199 40.432 55.561 40.4 55.51C40.31 55.38 40.22 55.37 39.69 55.4C32.84 55.77 27.69 58.11 24.4 62.33C23.1973 63.9136 22.2771 65.6931 21.68 67.59C21.0637 69.6232 20.747 71.7354 20.74 73.86C20.7168 74.1945 20.737 74.5306 20.8 74.86C20.908 75.3825 21.1182 75.8786 21.4186 76.3196C21.7189 76.7607 22.1034 77.138 22.55 77.43C23.1854 77.8467 23.921 78.085 24.68 78.12C24.97 78.12 31.16 78.12 44.52 78.12C63.12 78.12 63.96 78.12 64.21 78.06C64.7677 77.9561 65.2947 77.7276 65.7518 77.3918C66.2089 77.0559 66.5843 76.6211 66.85 76.12C67.2429 75.31 67.3723 74.3973 67.22 73.51C67.1879 72.0074 66.9628 70.5152 66.55 69.07C65.2512 64.9728 62.6757 61.3986 59.2 58.87C56.3807 56.6812 52.9868 55.3577 49.43 55.06C48.97 55.03 47.58 55.03 47.08 55.1Z" fill="#F4A031"/>
<path d="M131.47 136.86C131.365 136.922 131.246 136.954 131.125 136.954C131.004 136.954 130.884 136.922 130.78 136.86C130.669 136.807 130.575 136.725 130.506 136.623C130.438 136.521 130.397 136.403 130.39 136.28C130.28 134.72 130.13 133.16 129.98 131.65C129.208 131.791 128.424 131.848 127.64 131.82C127.21 131.82 126.73 131.82 126.25 131.82C122.47 137.52 117.62 141.47 110.62 144.56L109.19 145.19C106.91 146.13 104.58 147.12 103.02 148.92C101.938 150.346 101.32 152.07 101.25 153.859C101.18 155.647 101.662 157.414 102.63 158.92C103.678 160.422 105.068 161.653 106.684 162.514C108.301 163.374 110.099 163.839 111.93 163.87C115.684 163.906 119.351 162.735 122.39 160.53C125.471 158.312 128.172 155.611 130.39 152.53C134.58 147.11 136.77 141.09 136.31 136.38C135.962 135.829 135.574 135.305 135.15 134.81C133.847 135.347 132.612 136.035 131.47 136.86V136.86Z" fill="#F4A031"/>
<path d="M134.27 129.27C134.693 128.533 135.218 127.86 135.83 127.27C136.353 126.848 136.923 126.489 137.53 126.2C137.854 126.028 138.188 125.874 138.53 125.74C137.917 125.02 137.356 124.258 136.85 123.46C135.981 124.126 135.252 124.957 134.706 125.906C134.16 126.856 133.808 127.904 133.67 128.99C133.82 129.03 134.19 129.37 134.27 129.27Z" fill="#F4A031"/>
<path d="M135.65 128.44C135.519 128.617 135.415 128.813 135.34 129.02C135.364 129.062 135.384 129.105 135.4 129.15V129.41C135.4 129.76 135.32 130.07 134.98 130.22C134.794 130.311 134.584 130.343 134.38 130.31C134.139 130.272 133.902 130.216 133.67 130.14C133.386 130.073 133.115 129.958 132.87 129.8C132.584 129.626 132.355 129.372 132.21 129.07C132.15 128.873 132.133 128.665 132.16 128.46C132.212 128.258 132.321 128.076 132.473 127.934C132.625 127.793 132.815 127.697 133.02 127.66C133.02 127.66 133.32 127.56 133.37 127.66C133.37 127.44 133.43 127.26 133.45 127.05C132.889 126.824 132.288 126.717 131.683 126.736C131.079 126.755 130.485 126.899 129.94 127.16C128.983 127.678 128.121 128.355 127.39 129.16L127.02 129.53C126.601 129.935 126.146 130.3 125.66 130.62C125.863 130.605 126.067 130.605 126.27 130.62C126.75 130.62 127.27 130.62 127.66 130.62C128.487 130.615 129.313 130.545 130.13 130.41C130.366 130.364 130.61 130.392 130.83 130.49C130.987 130.575 131.116 130.703 131.203 130.859C131.289 131.015 131.33 131.192 131.32 131.37C131.46 132.66 131.59 133.96 131.68 135.25C132.641 134.673 133.644 134.168 134.68 133.74C134.828 133.671 134.987 133.63 135.15 133.62C135.235 133.6 135.324 133.6 135.41 133.62C135.685 133.673 135.931 133.826 136.1 134.05C136.377 134.343 136.631 134.658 136.86 134.99C137.35 135.674 137.778 136.4 138.14 137.16C138.633 135.326 138.514 133.38 137.8 131.62C137.372 130.391 136.631 129.295 135.65 128.44Z" fill="#F4A031"/>
<path d="M38.89 171.13C50.4216 181.563 63.7373 189.835 78.2 195.55V112.79H12.78C14.47 121.87 21.82 155.37 38.89 171.13ZM51.75 136.62C57.75 131.62 51.4 119.46 51.4 119.46C56.3348 121.904 60.1383 126.155 62.02 131.33C66.87 143.77 58.02 146.58 64.12 151.39C65.23 152.04 68.31 149.56 66.4 144.79C69.19 147.32 73.19 153.58 68.09 160.19C63.95 165.55 56.8 166.01 56.8 166.01C63.98 155.01 54.6 158.25 54.19 150.62C53.91 145.62 59.99 144.62 56.95 137C56.95 139.63 55.95 140.47 52.78 142.8C37.96 153.61 48.5 165.86 48.5 165.86C48.5 165.86 42.35 164.98 39.5 157.46C35 145.81 48 139.72 51.75 136.62Z" fill="#390D3A"/>
<path d="M167.95 40.77C167.3 32.64 167.17 24.68 165.77 17.06C164.88 17.5 163.91 17.83 163 18.34C125.06 39.41 92.6801 6.34 83.4101 0C74.4101 6.92 42.9501 38.07 5.25007 18.34C4.44007 17.93 3.65007 17.55 2.89007 17.13C1.50007 24.73 1.13007 32.64 0.720073 40.77C-1.95993 95.21 0.720081 159.22 45.9301 190.6C57.2101 198.42 84.3401 209.49 84.3401 209.49C84.3401 209.49 108.75 198.43 119.68 192.49C172.54 160.39 171.97 90.86 167.95 40.77ZM8.47007 62.35C8.54569 52.1496 9.97483 42.0043 12.7201 32.18C12.7201 32.18 19.1401 36.23 30.8601 36.23C36.7579 36.1796 42.6166 35.2666 48.2501 33.52C70.8901 26.74 79.3901 15.43 79.3901 15.43V99.03H10.2001C8.83109 86.8536 8.25321 74.6012 8.47007 62.35V62.35ZM80.2401 198.4C64.4738 192.664 49.9817 183.899 37.5801 172.6C17.0601 153.67 10.4301 110.79 10.4301 110.79H80.2401V198.4ZM132.44 172.6C120.038 183.899 105.546 192.664 89.7801 198.4V110.79H159.59C159.59 110.79 152.92 153.67 132.4 172.6H132.44ZM159.74 99.03H90.5901V15.43C90.5901 15.43 99.0901 26.74 121.73 33.52C127.364 35.2666 133.222 36.1796 139.12 36.23C150.84 36.23 157.26 32.18 157.26 32.18C159.992 42.0062 161.407 52.1514 161.47 62.35C161.687 74.6012 161.109 86.8536 159.74 99.03V99.03Z" fill="#F4A031"/>
<path d="M155.98 35.03C150.634 37.2212 144.897 38.2999 139.12 38.2C133.016 38.1509 126.952 37.211 121.12 35.41C106.02 30.89 97.05 24.41 92.55 20.35V97.03H157.91C159.121 85.5215 159.642 73.9508 159.47 62.38C159.359 53.1597 158.188 43.9828 155.98 35.03V35.03ZM139.98 56.63C143.52 61.56 136.23 67.37 132.61 62.15C130.17 58.62 133.31 55.33 129 52C131.53 52.41 138.41 54.43 140.01 56.66L139.98 56.63ZM104.07 69.11C102.54 59.81 112.36 56.11 106.76 45.46C111.58 48.52 123.82 58.88 124.91 64.82C127.35 77.95 106.37 82.92 104.1 69.14L104.07 69.11ZM129.15 82.72C126.22 78.54 127.24 65 128.26 60.28C131.34 69.97 139.42 66.28 144.12 72.7C151.12 82.28 135.66 92.03 129.18 82.75L129.15 82.72Z" fill="#0E3877"/>
<path d="M139.97 56.62C143.5 61.54 136.21 67.36 132.6 62.13C130.16 58.61 133.29 55.31 128.99 51.98C131.47 52.36 138.36 54.39 139.97 56.62Z" fill="#F4A031"/>
<path d="M104.06 69.1C102.53 59.79 112.35 56.1 106.74 45.45C111.56 48.51 123.81 58.87 124.9 64.8C127.3 77.91 106.33 82.88 104.06 69.1Z" fill="#F4A031"/>
<path d="M129.14 82.71C126.21 78.53 127.23 64.99 128.25 60.26C131.33 69.95 139.4 66.26 144.11 72.69C151.07 82.24 135.62 91.94 129.14 82.71Z" fill="#F4A031"/>
<path d="M51.6999 136.53C57.6999 131.53 51.3599 119.38 51.3599 119.38C56.2978 121.82 60.1026 126.072 61.9799 131.25C66.8199 143.68 57.9799 146.49 64.0699 151.25C65.1899 151.91 68.2699 149.42 66.3599 144.66C69.1499 147.18 73.1499 153.45 68.0399 160.06C63.9099 165.41 56.7599 165.87 56.7599 165.87C63.9299 154.87 54.5599 158.11 54.1399 150.48C53.8699 145.48 59.9399 144.48 56.8999 136.86C56.8999 139.49 55.8999 140.34 52.7399 142.66C37.9099 153.47 48.4499 165.72 48.4499 165.72C48.4499 165.72 42.2999 164.84 39.4499 157.33C34.9599 145.73 47.9499 139.63 51.6999 136.53Z" fill="#F4A031"/>
</g>
<defs>
<clipPath id="clip0">
<rect width="1818.74" height="209.49" fill="white"/>
</clipPath>
</defs>
</svg>
