<?xml version="1.0" encoding="utf-8"?>
<!-- Generator: Adobe Illustrator 22.1.0, SVG Export Plug-In . SVG Version: 6.00 Build 0)  -->
<svg version="1.1" id="Vrstva_1" xmlns="http://www.w3.org/2000/svg" xmlns:xlink="http://www.w3.org/1999/xlink" x="0px" y="0px"
	 viewBox="0 0 1460 100.8" style="enable-background:new 0 0 1460 100.8;" xml:space="preserve">
<style type="text/css">
	.st0{fill:#FFFFFF;}
	.st1{fill:#D68912;}
</style>
<title>site-logo-watermark</title>
<g>
	<path class="st0" d="M51.2,83.2c11.6,0,20-3.5,26.1-7.6L85.6,87c-8.1,7-18.9,10.7-34.4,10.7C19.4,97.8,2,77.4,2,49.6
		C2,21.7,19.4,1.4,51.2,1.4c15.5,0,26.4,3.7,34.4,10.7l-8.3,11.5C71.2,19.4,62.8,16,51.2,16c-21.4,0-31.5,14.3-31.5,33.6
		C19.7,68.9,29.8,83.2,51.2,83.2z"/>
	<path class="st0" d="M171.9,81.2v14.6H97.2v-8.6l50.1-69.3H99.9V3.3h71.9V12l-50.1,69.3H171.9z"/>
	<path class="st0" d="M253.9,41.4V56h-46v25.3h48.8v14.6h-66.2V3.3h65.6v14.6h-48.2v23.5H253.9z"/>
	<path class="st0" d="M315.7,83.2c11.6,0,20-3.5,26.1-7.6l8.3,11.5c-8.1,7-18.9,10.7-34.4,10.7c-31.7,0-49.2-20.3-49.2-48.2
		c0-27.9,17.4-48.2,49.2-48.2c15.5,0,26.4,3.7,34.4,10.7l-8.3,11.5c-6.1-4.1-14.5-7.6-26.1-7.6c-21.4,0-31.5,14.3-31.5,33.6
		C284.2,68.9,294.4,83.2,315.7,83.2z"/>
	<path class="st0" d="M427.7,3.3h17.4v92.5h-17.4V56h-44.1v39.9h-17.4V3.3h17.4v38.1h44.1V3.3z"/>
	<path class="st1" d="M503.3,95.8H463V3.3h40.3c35.7,0,48.4,20.3,48.4,46.3C551.7,75.6,538.9,95.8,503.3,95.8z M490.3,73.1h13
		c14.6,0,21-7.9,21-23.5c0-15.7-6.4-23.5-21-23.5h-13V73.1z"/>
	<path class="st1" d="M562.1,53.2V3.3h27.3v49.9c0,14,2.3,22.5,16.6,22.5c14.3,0,16.6-8.5,16.6-22.5V3.3h27.3v49.9
		c0,27.4-12.1,45.2-43.9,45.2C574.2,98.4,562.1,80.6,562.1,53.2z"/>
	<path class="st1" d="M665.9,3.3h31.9l30.6,52.1V3.3h27.3v92.5h-31.9l-30.6-52.1v52.1h-27.3V3.3z"/>
	<path class="st1" d="M857.6,12.7l-13,17.3c-8.4-4.5-16.9-6.6-27.8-6.6c-16.7,0-23.2,13-23.2,26.1c0,13.1,6.5,26.1,23.2,26.1
		c6.4,0,11.2-1,14.8-2.8V59.8h-16.1V39.6h40.4v47.9c-12.4,9-24.8,10.9-39.1,10.9c-34.6,0-50.7-21.8-50.7-48.8
		c0-27,16.1-48.8,50.7-48.8C835.8,0.7,847.6,5.5,857.6,12.7z"/>
	<path class="st1" d="M939.7,38v22.1h-43.2v13h46.9v22.7h-74.2V3.3h73.5V26h-46.3V38H939.7z"/>
	<path class="st1" d="M1053.9,49.6c0,27-16.1,48.8-50.7,48.8c-34.6,0-50.7-21.8-50.7-48.8c0-27,16.1-48.8,50.7-48.8
		C1037.8,0.7,1053.9,22.5,1053.9,49.6z M980.1,49.6c0,13.1,6.5,26.1,23.2,26.1c16.7,0,23.2-13,23.2-26.1c0-13.1-6.4-26.1-23.2-26.1
		C986.5,23.4,980.1,36.5,980.1,49.6z"/>
	<path class="st1" d="M1064.3,3.3h31.9l30.6,52.1V3.3h27.3v92.5h-31.9l-30.6-52.1v52.1h-27.3V3.3z"/>
	<path class="st0" d="M1177.2,77.3c5.3,0,9.6,4.3,9.6,9.6c0,5.3-4.3,9.5-9.6,9.5c-5.3,0-9.5-4.3-9.5-9.5
		C1167.7,81.6,1172,77.3,1177.2,77.3z"/>
	<path class="st0" d="M1232.7,83.6c7,0,13.2-1.9,19-6.4l8.3,10.4c-7.2,7.2-16.6,9.5-27.2,9.5c-22.4,0-36.8-14.8-36.8-34.3
		s14.3-34.3,36.8-34.3c10.6,0,20,2.3,27.2,9.5l-8.4,10.3c-5.7-4.5-11.9-6.3-18.8-6.3c-14.1,0-20.2,9.9-20.2,20.8
		S1218.6,83.6,1232.7,83.6z"/>
	<path class="st0" d="M1305.1,97.1c-22.4,0-36.8-14.8-36.8-34.3s14.3-34.3,36.8-34.3c22.4,0,36.8,14.6,36.8,34.3
		C1341.9,82.5,1327.5,97.1,1305.1,97.1z M1305.1,42.1c-14.1,0-20.2,9.9-20.2,20.8s6.1,20.8,20.2,20.8c14.1,0,20.2-9.9,20.2-20.8
		S1319.2,42.1,1305.1,42.1z"/>
	<path class="st0" d="M1356.1,29.9h16.2V36c2.2-3.9,8.8-7.4,15.3-7.4c10.4,0,17.7,3.6,21.6,9.1c3.5-4.7,11.3-9.1,20.3-9.1
		c15.8,0,26.6,8.5,26.6,28.8v38.4h-16.2V57.4c0-9.1-3.9-15.3-12.8-15.3c-9,0-12.8,6.2-12.8,15.3v38.4h-16.2V57.4
		c0-9.1-3.9-15.3-12.8-15.3c-9,0-12.8,6.2-12.8,15.3v38.4h-16.2V29.9z"/>
</g>
</svg>
