<svg xmlns="http://www.w3.org/2000/svg" xmlns:xlink="http://www.w3.org/1999/xlink" id="Layer_1" x="0" y="0" enable-background="new 0 0 1012 324" version="1.1" viewBox="0 0 1012 324" xml:space="preserve"><g><g><path fill="#FFF" d="M917.396,69.956l-0.336-1.145l-5.269,0.6l-1.137-0.11l-0.057,0.246l-27.456,3.131l0.041-0.162 l-26.326-3.561c-4.883-0.66-10.095-1.021-15.491-1.074c-4.776-0.037-9.403,0.301-13.762,1.028l0.032-3.355l-97.649,7.709 l0.004,6.501c-15.078-9.556-32.576-14.506-52.108-14.697c-13.198-0.131-25.718,2.09-37.445,6.586 c-1.896,0.727-3.746,1.531-5.576,2.37l-85.423-7.792l3.206-56.139l-104.716,7.283l-0.172,49.472 c-10.046-3.559-21.29-5.446-33.564-5.564c-14.375-0.16-27.893,1.966-40.442,6.25c-9.616,3.286-18.409,7.781-26.261,13.393 l0.479-16.65l-1.58,0.112l4.638-59.516L245.614,8.452l-0.817,53.843c-2.873,0.155-5.676,0.441-8.371,0.891l0.032-3.353 l-54.9,4.333l7.48-62.825L6.191,15.135L2.05,123.679l32.592-2.893l-5.079,141.229l109.346-12.403l0.005,9.662l98.887-7.512 l0.822-85.015c0.021-2.195,0.254-3.522,0.427-4.209c0.286-0.116,0.624-0.157,1.311-0.167l3.883,0.038l-0.957,98.861l99.23-7.457 l0.496-17.242c7.626,6.224,16.229,11.341,25.685,15.225c12.146,5.002,25.481,7.608,39.633,7.745 c0.454,0.005,0.909,0.007,1.366,0.007c5.198,0,10.599-0.285,16.065-0.849c6.473-0.665,12.94-1.923,19.218-3.741 c0.711-0.206,1.416-0.447,2.125-0.668l-0.031,8.981l88.094-6.763l6.785,13.42l67.992-32.852 c8.153,7.444,17.657,13.522,28.32,18.076c12.084,5.162,25.433,7.849,39.666,7.984c0.626,0.007,1.249,0.011,1.871,0.011 c15.165,0,29.046-1.823,41.285-5.422c3.015-0.887,6.015-1.921,8.999-3.072l0.006,10.346l98.889-7.512l0.822-85.015 c0.021-2.195,0.254-3.522,0.427-4.211c0.285-0.114,0.623-0.16,1.309-0.165l4.885,0.046c0.292,0.004,0.431,0.021,0.431,0.021 l9.664,1.452l19.53,52.633l-30.981,97.823l105.99,2.588l69.441-243.66L917.396,69.956z M148.729,85.597l-29.58,3.162 l-1.342,138.624l-70.012,7.941L52.85,94.765l-32.533,2.887l2.31-60.555l133.072-10.039L148.729,85.597z M242.771,138.959 c-1.148-0.173-2.379-0.269-3.691-0.282c-1.151-0.011-2.794-0.027-4.925-0.048c-6.895-0.067-12.868,2.134-17.917,6.599 c-5.053,4.468-7.622,11.542-7.716,21.225l-0.613,63.28l-51.751,3.932l-0.08-144.302l50.026-3.948l-0.265,27.331l0.492,0.005 c4.443-18.179,16.843-27.171,37.199-26.974c4.432,0.043,8.615,0.33,12.55,0.86L242.771,138.959z M313.038,231.736l-52.242,3.927 l1.376-142.072l54.951-3.901L313.038,231.736z M315.564,72.685l-53.715,3.419l0.68-44.811l56.409-1.916L315.564,72.685z M446.43,226.502c-4.701,2.336-9.521,4.217-14.46,5.647c-4.939,1.43-9.958,2.408-15.05,2.932 c-5.095,0.524-10.023,0.765-14.782,0.718c-11.165-0.108-21.445-2.092-30.846-5.962c-9.405-3.865-17.56-9.158-24.471-15.874 c-6.915-6.716-12.295-14.563-16.147-23.55c-3.853-8.983-5.73-18.647-5.63-28.989c0.116-11.98,2.271-22.755,6.47-32.318 c4.194-9.563,9.978-17.633,17.348-24.211c7.367-6.577,16.077-11.58,26.125-15.014c10.045-3.431,20.896-5.092,32.553-4.979 c11.653,0.113,21.772,2.1,30.353,5.957c8.582,3.862,15.808,7.787,21.679,11.784l-32.914,42.282 c-2.283-1.827-4.935-3.33-7.959-4.51c-3.028-1.176-6.098-2.029-9.21-2.552c-3.115-0.522-6.111-0.713-8.982-0.579 c-2.875,0.138-5.22,0.688-7.034,1.655c-3.136,1.613-5.821,3.515-8.058,5.709c-2.238,2.195-3.985,4.601-5.241,7.214 c-1.256,2.616-1.861,5.442-1.806,8.478c0.051,3.04,0.884,6.126,2.496,9.258c3.219,6.599,7.858,10.665,13.918,12.201 c6.056,1.536,12.467,0.698,19.231-2.522l12.619-6.28l33.058,44.644C455.551,221.216,451.132,224.17,446.43,226.502z M546.169,238.426l-31.411-62.112l-0.492-0.005l1.414,57.389l-51.258,3.936l0.688-198.223l55.936-3.891l-5.931,103.859 l0.492,0.005l23.875-49.757l54.373,4.959l-32.611,61.739l36.384,57.235L546.169,238.426z M673.432,192.132 c2.951,0.359,5.658,0.547,8.12,0.571c7.549,0.073,13.926-1.219,19.123-3.877c5.197-2.658,9.944-5.853,14.252-9.589l23.988,40.371 c-10.085,7.128-20.396,12.238-30.931,15.337c-10.537,3.099-22.617,4.583-36.241,4.451c-11.163-0.108-21.363-2.139-30.598-6.083 c-9.238-3.945-17.19-9.236-23.855-15.868c-6.669-6.628-11.847-14.354-15.537-23.175c-3.687-8.816-5.488-18.152-5.392-28.001 c0.119-12.311,2.196-23.287,6.23-32.937c4.032-9.645,9.445-17.8,16.243-24.467c6.794-6.664,14.68-11.716,23.663-15.161 c8.979-3.442,18.556-5.115,28.736-5.016c16.412,0.159,30.614,4.482,42.599,12.97c11.985,8.489,20.864,19.741,26.638,33.748 l-74.157,54.687C668.105,191.096,670.48,191.777,673.432,192.132z M917.402,297.28l-55.604,1.917l23.113-76.945l-41.94-113.028 l-9.021,35.459c-1.149-0.173-2.378-0.269-3.691-0.282c-1.151-0.011-2.794-0.027-4.923-0.048 c-6.895-0.067-12.869,2.134-17.917,6.599c-5.055,4.468-7.622,11.542-7.716,21.225l-0.613,63.28l-51.752,3.932l-0.08-144.302 l50.027-3.948l-0.265,27.331l0.492,0.005c4.444-18.179,16.843-27.171,37.2-26.974c4.431,0.043,8.614,0.33,12.548,0.86 l-1.952,7.672l48.227-5.5l15.972,54.329l0.492,0.005l12.591-54.052l50.679,4.923L917.402,297.28z"/><path fill="#FFF" d="M679.55,132.6c-2.7-1.012-5.774-1.534-9.22-1.567c-3.286-0.032-6.286,0.639-9.007,2.006 c-2.723,1.371-5.08,3.237-7.072,5.595c-1.992,2.362-3.539,5.014-4.634,7.958c-1.098,2.945-1.657,5.979-1.687,9.095 c-0.029,2.955,0.155,5.05,0.554,6.284c0.396,1.235,0.92,2.514,1.564,3.832l36.958-27.468 C684.73,135.524,682.248,133.61,679.55,132.6z"/></g><path fill="#FFF" d="M182.059,319.559v-43.701h21.161l26.512,33.242l-0.324-33.242h12.567v43.701h-21.404l-26.107-32.917 l0.405,32.917H182.059z"/><path fill="#FFF" d="M304.243,290.615h-13.053c-0.081-1.459-0.324-2.513-0.811-3.162 c-0.892-1.054-2.432-1.622-4.702-1.622h-3.324l-4.702-0.081l-4.865,0.081c-3.162,0-5.108,0-5.757,0.081 c-0.649,0-1.378,0.162-2.108,0.324c-1.54,0.324-2.594,1.135-3.243,2.27c-0.649,1.135-0.892,4.621-0.892,10.459 c0,3.486,0.243,5.838,0.73,7.054c0.73,1.865,2.108,3,4.297,3.486c1.216,0.243,3.973,0.405,8.351,0.405h5.513 c3.405,0,5.594-0.081,6.648-0.162c2.919-0.243,4.54-1.459,4.946-3.486c0.081-0.486,0.081-1.216,0.081-2.351v-0.73h-16.864v-8.189 h29.836v6.081c0,6.081-0.405,10.135-1.135,12.081c-0.811,2.189-2.108,3.73-3.73,4.702c-2.189,1.297-4.946,1.946-8.108,2.027 c-1.865,0.081-7.54,0.081-17.188,0.081c-8.27,0-13.702-0.243-16.134-0.811c-3.324-0.73-5.757-2.027-7.378-3.892 c-1.459-1.784-2.513-4.297-2.919-7.459c-0.243-1.784-0.405-4.946-0.405-9.486c0-4.946,0.162-8.351,0.486-10.297 c0.568-3.73,1.865-6.486,3.648-8.27c2.189-2.108,6.243-3.405,12.081-3.811c3.243-0.243,7.621-0.324,13.216-0.324 c10.054,0,16.297,0.324,18.567,0.892c3.973,0.973,6.567,2.919,7.783,5.838C303.918,284.047,304.243,286.885,304.243,290.615z"/><rect width="12.729" height="11.999" x="309.837" y="307.56" fill="#C0392B"/><polygon fill="#FFF" points="138.277 275.615 110.954 319.559 126.846 319.559 144.115 291.75 161.385 319.559 177.276 319.559 149.953 275.615"/><rect width="12.486" height="25.864" x="309.999" y="275.858" fill="#C0392B"/><path fill="#FFF" d="M106.414,299.371c-1.378-0.973-3.73-1.622-7.216-1.946c2.676-0.405,4.621-1.054,5.756-1.946 c1.865-1.54,2.838-4.216,2.838-8.108c0-2.351-0.324-4.216-0.892-5.675c-0.73-1.865-2.108-3.243-4.135-4.297 c-2.027-1.054-5.432-1.54-10.054-1.54H54.768v9.567v0.162v7.702l0,0v26.269h39.728c4.784,0,8.108-0.486,9.973-1.54 c3.324-1.784,5.027-5.27,5.027-10.459C109.495,303.587,108.522,300.83,106.414,299.371z M66.2,285.588h21.972 c2.027,0,3.405,0.081,4.054,0.324c1.54,0.486,2.351,1.703,2.351,3.567c0,1.622-0.568,2.676-1.703,3.243 c-0.73,0.324-2.108,0.568-4.297,0.568H72.929H66.2V285.588z M94.09,309.425c-0.649,0.243-1.946,0.324-4.054,0.324H66.2v-7.946 h23.431c2.27,0,3.648,0.081,4.297,0.324c1.459,0.568,2.27,1.784,2.27,3.73C96.198,307.803,95.469,309.019,94.09,309.425z"/><g><path fill="#FFF" d="M34.904,319.883l-5.432-13.864H11.959l-5.351,13.864H1.5l17.269-43.782h4.297l17.188,43.782H34.904 z M27.931,301.479l-5.108-13.54c-0.649-1.703-1.297-3.811-2.027-6.324c-0.405,1.946-1.054,3.973-1.865,6.324l-5.108,13.54H27.931z"/></g><g><path fill="#FFF" d="M383.78,298.074c0,6.973-1.784,12.486-5.27,16.459c-3.567,3.973-8.432,6-14.756,6 c-6.405,0-11.351-1.946-14.837-5.919c-3.486-3.892-5.27-9.486-5.27-16.621s1.784-12.567,5.27-16.54 c3.486-3.892,8.513-5.838,14.918-5.838c6.243,0,11.189,2.027,14.675,6C381.996,285.588,383.78,291.02,383.78,298.074z M348.997,298.074c0,5.919,1.297,10.378,3.811,13.459c2.513,3.081,6.162,4.54,10.945,4.54c4.865,0,8.513-1.54,10.945-4.54 c2.432-3.081,3.73-7.54,3.73-13.459c0-5.838-1.216-10.297-3.648-13.378c-2.432-3-6.081-4.54-10.945-4.54 c-4.865,0-8.513,1.54-11.027,4.54C350.295,287.777,348.997,292.236,348.997,298.074z"/><path fill="#FFF" d="M398.617,301.803v18.161h-5.108v-43.62h11.999c5.351,0,9.324,1.054,11.837,3.081 c2.594,2.027,3.811,5.108,3.811,9.243c0,5.757-2.919,9.648-8.756,11.675l11.837,19.621h-6l-10.54-18.161H398.617z M398.617,297.425h6.973c3.567,0,6.243-0.73,7.865-2.108c1.703-1.459,2.513-3.567,2.513-6.405c0-2.919-0.811-4.946-2.513-6.243 s-4.459-1.946-8.189-1.946h-6.567v16.702H398.617z"/><path fill="#FFF" d="M431.291,319.883v-43.62h5.108v43.62H431.291z"/><path fill="#FFF" d="M467.533,297.101h14.837v21.242c-2.27,0.73-4.621,1.297-7.054,1.703 c-2.432,0.405-5.189,0.568-8.27,0.568c-6.567,0-11.756-1.946-15.405-5.919c-3.648-3.892-5.513-9.405-5.513-16.54 c0-4.54,0.892-8.513,2.757-11.918c1.784-3.405,4.459-6,7.865-7.783c3.405-1.784,7.459-2.676,11.999-2.676 c4.621,0,9,0.892,12.972,2.595l-1.946,4.459c-3.973-1.703-7.702-2.513-11.351-2.513c-5.351,0-9.486,1.622-12.405,4.784 c-3,3.162-4.459,7.54-4.459,13.135c0,5.919,1.459,10.378,4.297,13.378s7.135,4.54,12.648,4.54c3,0,6-0.324,8.837-1.054v-13.459 h-9.729v-4.54H467.533z"/><path fill="#FFF" d="M492.829,319.883v-43.62h5.108v43.62H492.829z"/><path fill="#FFF" d="M543.907,319.883h-5.756l-23.837-36.566h-0.243c0.324,4.297,0.486,8.27,0.486,11.837v24.81h-4.702 v-43.62h5.757l23.756,36.485h0.243c0-0.568-0.162-2.27-0.243-5.189s-0.162-5.027-0.162-6.243v-25.053h4.784v43.539H543.907z"/><path fill="#FFF" d="M583.311,319.883l-5.432-13.864h-17.513l-5.351,13.864h-5.108l17.269-43.782h4.297l17.188,43.782 H583.311z M576.338,301.479l-5.108-13.54c-0.649-1.703-1.297-3.811-2.027-6.324c-0.405,1.946-1.054,3.973-1.865,6.324 l-5.108,13.54H576.338z"/><path fill="#FFF" d="M594.581,319.883v-43.62h5.108v38.998h19.215v4.621L594.581,319.883L594.581,319.883z"/><path fill="#FFF" d="M666.821,308.289c0,3.811-1.378,6.81-4.216,9c-2.838,2.189-6.567,3.243-11.351,3.243 c-5.189,0-9.162-0.649-11.918-2.027v-4.865c1.784,0.73,3.729,1.378,5.838,1.784c2.108,0.405,4.216,0.649,6.243,0.649 c3.405,0,5.919-0.649,7.621-1.946s2.594-3.081,2.594-5.351c0-1.54-0.324-2.757-0.892-3.73c-0.568-0.973-1.622-1.865-3.081-2.676 c-1.459-0.811-3.567-1.703-6.486-2.757c-4.054-1.459-6.973-3.162-8.675-5.189c-1.703-2.027-2.594-4.621-2.594-7.783 c0-3.324,1.297-6,3.811-8.027c2.513-2.027,5.838-3,10.054-3c4.297,0,8.351,0.811,11.999,2.351l-1.622,4.378 c-3.567-1.54-7.135-2.27-10.54-2.27c-2.676,0-4.784,0.568-6.324,1.703c-1.54,1.135-2.27,2.757-2.27,4.784 c0,1.54,0.243,2.757,0.811,3.73c0.568,0.973,1.459,1.865,2.838,2.676c1.297,0.811,3.324,1.703,6.081,2.676 c4.54,1.622,7.702,3.405,9.405,5.27C665.929,302.938,666.821,305.29,666.821,308.289z"/><path fill="#FFF" d="M700.062,319.883h-24.323v-43.62h24.323v4.54h-19.215v14.026h18.08v4.459h-18.08v16.053h19.215 V319.883z"/><path fill="#FFF" d="M714.737,301.803v18.161h-5.108v-43.62h11.999c5.351,0,9.324,1.054,11.837,3.081 c2.594,2.027,3.811,5.108,3.811,9.243c0,5.757-2.919,9.648-8.756,11.675l11.837,19.621h-6l-10.54-18.161H714.737z M714.737,297.425h6.973c3.567,0,6.243-0.73,7.865-2.108c1.703-1.459,2.513-3.567,2.513-6.405c0-2.919-0.811-4.946-2.513-6.243 c-1.703-1.297-4.459-1.946-8.189-1.946h-6.567v16.702H714.737z"/><path fill="#FFF" d="M747.493,319.883v-43.62h5.108v43.62H747.493z"/><path fill="#FFF" d="M788.842,319.883h-24.323v-43.62h24.323v4.54h-19.215v14.026h18.08v4.459h-18.08v16.053h19.215 V319.883z"/><path fill="#FFF" d="M823.138,308.289c0,3.811-1.378,6.81-4.216,9c-2.757,2.108-6.567,3.243-11.351,3.243 c-5.189,0-9.162-0.649-11.918-2.027v-4.865c1.784,0.73,3.73,1.378,5.838,1.784c2.108,0.405,4.216,0.649,6.243,0.649 c3.405,0,5.919-0.649,7.621-1.946c1.703-1.297,2.594-3.081,2.594-5.351c0-1.54-0.324-2.757-0.892-3.73 c-0.568-0.973-1.622-1.865-3.081-2.676c-1.459-0.811-3.567-1.703-6.486-2.757c-4.054-1.459-6.973-3.162-8.675-5.189 c-1.703-2.027-2.595-4.621-2.595-7.783c0-3.324,1.297-6,3.811-8.027c2.513-2.027,5.838-3,10.054-3 c4.297,0,8.351,0.811,11.999,2.351l-1.622,4.378c-3.567-1.54-7.135-2.27-10.54-2.27c-2.676,0-4.784,0.568-6.324,1.703 c-1.541,1.135-2.27,2.757-2.27,4.784c0,1.54,0.243,2.757,0.811,3.73c0.568,0.973,1.459,1.865,2.838,2.676 c1.297,0.811,3.324,1.703,6.081,2.676c4.54,1.622,7.702,3.405,9.405,5.27C822.246,302.938,823.138,305.29,823.138,308.289z"/></g></g></svg>