<?xml version="1.0" encoding="utf-8"?>
<!-- Generator: Adobe Illustrator 25.0.0, SVG Export Plug-In . SVG Version: 6.00 Build 0)  -->
<svg version="1.1" id="Bush_Logo" xmlns="http://www.w3.org/2000/svg" xmlns:xlink="http://www.w3.org/1999/xlink" x="0px" y="0px"
	 viewBox="0 0 156.91 46.76" style="enable-background:new 0 0 156.91 46.76;" xml:space="preserve">
<style type="text/css">
	.st0{fill:#3B59A8;}
	.st1{fill:#FFFFFF;}
</style>
<g id="Bush_Series">
	<path class="st0" d="M150.68,45.58H6.48c-2.69,0-4.87-2.18-4.87-4.87V6.07c0-2.69,2.18-4.87,4.87-4.87h144.2
		c2.69,0,4.87,2.18,4.87,4.87v34.64C155.55,43.4,153.37,45.58,150.68,45.58z"/>
	<path class="st1" d="M42.31,28.54v0.14c0,1.3-0.26,2.57-0.79,3.76c-0.5,1.15-1.23,2.18-2.14,3.07c-0.92,0.88-1.99,1.58-3.18,2.07
		c-1.24,0.5-2.55,0.76-3.9,0.76H17.14c-0.1,0-0.2,0-0.29-0.01l-5.57,0.01L11.25,8.18l4.95,0c0.06,0,0.13,0,0.19,0h3.45h0.45h10.6
		c1.35,0,2.66,0.26,3.89,0.76c1.19,0.49,2.26,1.18,3.17,2.06s1.64,1.91,2.14,3.06c0.52,1.19,0.79,2.45,0.79,3.75v0.17
		c0,1.3-0.26,2.56-0.79,3.75c-0.07,0.17-0.15,0.33-0.24,0.5c0.69,0.76,1.24,1.62,1.65,2.55C42.04,25.97,42.31,27.24,42.31,28.54z
		 M20.34,18.88H30.9c0.52,0,0.94-0.41,0.94-0.91V17.8c0-0.5-0.42-0.91-0.94-0.91H20.34V18.88z M33.26,28.54
		c0-0.51-0.43-0.93-0.96-0.93H20.34v1.99H32.3c0.53,0,0.96-0.42,0.96-0.92V28.54z M75.69,8.16v15.89c0,1.93-0.39,3.8-1.17,5.56
		c-0.75,1.7-1.81,3.23-3.17,4.54c-1.36,1.31-2.94,2.34-4.71,3.06c-1.83,0.75-3.77,1.12-5.77,1.12h-1.56c-2,0-3.94-0.38-5.77-1.12
		c-1.77-0.72-3.35-1.75-4.71-3.06s-2.43-2.84-3.17-4.54c-0.77-1.77-1.17-3.64-1.17-5.56V8.16h9.05v15.89c0,3.07,2.59,5.56,5.77,5.56
		h1.56c3.18,0,5.77-2.5,5.77-5.56V8.16H75.69z M112.19,28.92c0,1.33-0.3,2.61-0.9,3.82c-0.56,1.12-1.34,2.12-2.33,2.97
		c-1.93,1.64-4.46,2.55-7.12,2.55c0,0,0,0,0,0l-13.39,0c-1.44,0-2.83-0.26-4.14-0.78c-1.3-0.51-2.45-1.25-3.42-2.18
		c-1.8-1.74-2.78-4-2.78-6.38l0-0.42l9.05,0.01l0,0.42c0,0.04,0.05,0.13,0.13,0.2c0.1,0.09,0.47,0.4,1.17,0.4l13.39,0h0
		c0.63,0,1-0.25,1.12-0.36c0.12-0.1,0.18-0.2,0.18-0.24v-0.16c0-0.1-0.34-0.53-1.11-0.59l-14.62-1.32
		c-2.47-0.22-4.76-1.23-6.47-2.85c-1.84-1.74-2.85-4.03-2.85-6.43c0-1.33,0.3-2.61,0.9-3.82c0.56-1.12,1.34-2.12,2.33-2.96
		c1.93-1.64,4.46-2.55,7.12-2.55l13.38,0c1.44,0,2.84,0.26,4.15,0.78c1.3,0.51,2.46,1.25,3.43,2.19c1.8,1.74,2.78,4.01,2.77,6.39
		l0,0.41l-9.05-0.03l0-0.41c0-0.04-0.05-0.12-0.13-0.2c-0.1-0.09-0.47-0.4-1.17-0.4l-13.38,0c-0.88,0-1.3,0.48-1.3,0.6
		c0,0.1,0.34,0.53,1.11,0.59l14.62,1.32c2.46,0.22,4.76,1.23,6.46,2.85c1.84,1.74,2.85,4.02,2.85,6.43V28.92z M146.47,8.16v30.17
		h-9.05V27.61h-13.06v10.72h-9.05V8.16h9.05v10.72h13.06V8.16H146.47z"/>
</g>
</svg>
