<?xml version="1.0" encoding="utf-8"?>
<!-- Generator: Adobe Illustrator 25.3.1, SVG Export Plug-In . SVG Version: 6.00 Build 0)  -->
<svg version="1.1" id="Layer_1" xmlns="http://www.w3.org/2000/svg" xmlns:xlink="http://www.w3.org/1999/xlink" x="0px" y="0px"
	 viewBox="0 0 250 162" style="enable-background:new 0 0 250 162;" xml:space="preserve">
<style type="text/css">
	.st0{fill:#B19CD9;}
	.st1{fill:#FFEF5C;}
	.st2{fill:#FFFFFF;}
	.st3{fill:#FFD1DC;}
	.st4{fill:#E0FFFF;}
</style>
<g>
	<path id="border" class="st0" d="M241.4,71.9c-1.7-6.1-7.1-11.3-16.7-16c-1.5-0.8-7.7-3.9-14.6-3.9c-6.9,0-12.7,3-16.4,8.5
		l-0.1,0.2c-0.2,0.2-1.8,2.8-3.9,6.6c-0.6-0.3-1.2-0.5-1.9-0.7c1-5.9,1.2-12.6-1.7-18c-2.3-4.3-6.3-7.3-11.3-8.3
		c-0.8-0.2-2.1-0.4-3.7-0.4c-3.4,0-6.7,1-9.5,2.8c-2-2.2-4.9-4.1-8.7-5.2l-0.2-0.1c-0.3-0.1-8.6-2.1-18.7-2.1
		c-3.4,0-6.6,0.2-9.7,0.7c-2.7,0.2-5.9,1.3-8.7,3.2c-2.2-1.5-5-2.6-8.5-3l-0.2,0c-0.2,0-2-0.2-4.9-0.2C97.5,36,90.9,36.4,84,38
		c-0.2-1-0.4-1.9-0.7-2.9c-0.8-2.5-2.2-4.8-3.8-7c0.1-4.1-0.9-9.1-4.7-14.5c-1.6-2.3-4.3-3.7-7.1-3.7c-1.7,0-3.3,0.5-4.8,1.4
		c-2.6,1.7-4.8,3.8-6.7,6.3c-2.7,0.1-5.4,0.6-8,1.4c-2.6,0.9-5,2.1-7.2,3.6c-2.4-0.7-4.8-1-7.3-1c-0.6,0-1.2,0-1.7,0.1
		c-4.7,0.3-8.3,4.2-8.1,8.9c0.2,6.6,2.5,11.2,5,14.4c-0.1,2.7,0.3,5.4,1.1,7.9c0.4,1.1,0.8,2.2,1.4,3.2c-1.8-0.7-3.7-1.1-5.9-1.1
		c-2.3,0-4.6,0.5-6.8,1.5c-5.1,2-13.2,9.1-10.1,22.7c0.4,1.5,3.7,15.2,10.7,23c1.5,1.8,6.7,7.5,15.5,8.8c0,0.1,0,0.2-0.1,0.3
		c-2,8.5-1.6,16.5,1.3,24.5c2,6.4,7.5,12.8,15.4,12.8c0.2,0,0.4,0,0.7,0c1.4-0.1,8.5-0.7,13-6.6c0,0,0,0,0,0c0,0,0.1,0,0.1,0
		c0.8,0.1,1.5,0.2,2.3,0.2c6.2,0,10.8-3.7,11.6-4.4c0.1-0.1,0.1-0.1,0.2-0.2c1.4,0.3,3,0.5,4.7,0.5c2.6,0,5.4-0.4,8.5-1.2
		c2.8-0.6,6-1.9,8.9-4c2.3,1.4,5,2.3,8.2,2.3c0.5,0,1,0,1.6-0.1c2.5-0.2,5-0.9,7.3-2.3c1.1,0.4,3.6,1.2,6.7,1.2
		c2.7,0,5.2-0.6,7.5-1.8c0,0,0,0,0,0c0,0,0,0,0.1,0c2.7,1.8,5.9,2.7,9.4,2.7c2.5,0,4.5-0.5,5-0.7c0.2-0.1,0.4-0.1,0.6-0.2
		c1.4,1.1,3.1,1.9,5.1,2.4c1,0.3,2.6,0.7,4.5,0.7c1.3,0,3.3-0.2,5.4-1c2.2,2.3,5,4.1,8.6,5.1c1.1,0.4,2.7,0.7,4.7,0.7
		c0.7,0,1.7-0.1,2.8-0.3c2.4,3.1,6.1,5.8,10.8,8c1.3,0.7,5.5,2.5,10.6,2.5c7.3,0,13.4-3.7,17.1-10.3c1.4-2.3,2.5-5.9,2-10.1
		c1.3-0.9,2.5-2.1,3.5-3.5c2.4-3.5,3.1-7.5,2.1-11.5c-0.4-1.5-1-2.8-1.8-4.2c2.4-1.3,4.4-3.3,5.7-5.7c0.8-1.5,2.6-5.7,0.8-11.1
		c-0.5-1.5-1.2-3-2.2-4.4c0,0,0-0.1,0.1-0.1c0.2-0.3,0.3-0.7,0.5-1c5.6-0.7,10-3.9,12.3-9C241.5,79.5,242.6,76.2,241.4,71.9z"/>
	<g id="cat">
		<path class="st0" d="M59,50.8c-4.3,1.4-7.9,2.2-10.7,2.2c-4.2,0-5.6-1.5-6.3-3.1c1.7-1.3,2.7-3.3,2.5-5.5c-0.4-3.8,0.6-7.8,2.6-11
			c1.5-1.3,3.3-2.3,5.1-2.9c1.6-0.5,3.3-0.8,5.1-0.8c0.3,0,0.6,0,0.9,0.1c3.5,1.3,6.7,3.9,8.6,7.2c1.1,1.8,3.1,2.9,5.2,2.9l0.1,0
			C72.5,42,72,46.5,59,50.8z"/>
		<path class="st1" d="M59.3,42.3c1.5,1.3,4.3,2.5,6.3,2.7c2,0.2,2.5,1.5,1.2,3c-1.3,1.5-2.5,4.3-2.7,6.3c-0.2,2-1.5,2.5-3,1.2
			c-1.5-1.3-4.3-2.5-6.3-2.7c-2-0.2-2.5-1.5-1.2-3c1.3-1.5,2.5-4.3,2.7-6.3C56.5,41.5,57.8,41,59.3,42.3z"/>
		<g id="XMLID_372_">
			<path class="st2" d="M59.4,23.7c1.3-2.4,3.5-5.1,6.8-7.4c1.2-0.8,2.7-0.5,3.5,0.7c2.2,3.1,5.6,9.7,2.1,16.7
				C69.2,29.1,64.7,25.4,59.4,23.7z"/>
		</g>
		<path class="st0" d="M72.2,34.3c0,0-0.1,0-0.1,0c-0.2,0-0.4-0.1-0.5-0.3c-2.8-4.6-7.2-8.1-12.2-9.8c-0.2,0-0.3-0.2-0.3-0.3
			c-0.1-0.2,0-0.3,0-0.5c1.8-3.1,4.1-5.6,7-7.5c1.4-0.9,3.3-0.6,4.3,0.8c5.5,7.8,3.7,14.2,2.2,17.3C72.4,34.1,72.3,34.2,72.2,34.3z
			 M60.3,23.4c4.7,1.7,8.8,5,11.6,9.2c2.6-6.4-0.4-12.2-2.5-15.3c-0.6-0.9-1.9-1.1-2.8-0.5C64,18.5,61.9,20.7,60.3,23.4z"/>
		<g id="XMLID_370_">
			<g>
				<path class="st3" d="M60.5,24.1c1-1.6,2.5-3.4,4.7-4.9c0.9-0.6,2-0.3,2.6,0.5c1.5,2.1,3.7,6.3,2,11
					C67.3,27.8,64.1,25.5,60.5,24.1z"/>
			</g>
		</g>
		<g id="XMLID_369_">
			<path class="st2" d="M42.3,29.4c-2.5-1.1-5.9-2-9.9-1.7C31.1,27.8,30,29,30,30.4c0.1,3.8,1.3,11.1,8.4,14.6
				C37.8,39.6,39.2,34,42.3,29.4z"/>
		</g>
		<path class="st0" d="M38.6,45.5c-0.1,0-0.3,0-0.4,0c-3.1-1.6-8.3-5.6-8.7-15.1c-0.1-1.7,1.2-3.1,2.9-3.2c3.5-0.2,6.9,0.4,10.1,1.8
			c0.2,0.1,0.3,0.2,0.3,0.3c0.1,0.2,0,0.3-0.1,0.5c-3,4.3-4.4,9.9-3.9,15.2c0,0.2-0.1,0.4-0.2,0.5C38.7,45.5,38.6,45.5,38.6,45.5z
			 M32,28.3c-0.8,0.3-1.4,1.1-1.4,2c0.1,3.7,1.3,10.1,7.2,13.7c-0.3-5,1.1-10.2,3.8-14.3c-2.9-1.2-6-1.6-9-1.4
			C32.3,28.3,32.1,28.3,32,28.3z"/>
		<g id="XMLID_367_">
			<g>
				<path class="st3" d="M41.7,30.4c-1.8-0.7-4-1.3-6.7-1.1c-1,0.1-1.8,0.9-1.8,1.9c0.1,2.5,0.9,7.3,5,10
					C38.6,37.4,39.7,33.6,41.7,30.4z"/>
			</g>
		</g>
		<g id="XMLID_365_">
			<g>
				<path class="st2" d="M77.6,37c3.2,9.6-5.1,15.7-16.6,19.6c-11.5,3.9-21.8,4-25.1-5.6c-3.2-9.6,2.9-22.4,14.4-26.2
					C61.8,20.9,74.3,27.4,77.6,37z"/>
			</g>
		</g>
		<g id="XMLID_354_">
			<g id="XMLID_364_">
				<path class="st3" d="M53.3,25.4C53.1,25,53,24.5,52.8,24c-0.9,0.2-1.7,0.4-2.6,0.7c-0.8,0.3-1.6,0.6-2.3,0.9
					c0.1,0.5,0.3,0.9,0.5,1.4c2,6,4.7,10.5,6.1,10.1C55.8,36.7,55.3,31.4,53.3,25.4z"/>
			</g>
			<g id="XMLID_363_">
				<path class="st3" d="M46.6,26.3c-1.6,0.9-3.1,2-4.4,3.2c1.9,5.1,4.3,8.7,5.5,8.3C49.1,37.4,48.6,32.2,46.6,26.3z"/>
			</g>
			<g id="XMLID_362_">
				<path class="st3" d="M59.5,23.7c-1.8-0.2-3.6-0.2-5.4,0.1c2,5.9,4.7,10.3,6,9.8C61.4,33.3,61.1,29,59.5,23.7z"/>
			</g>
		</g>
		<path class="st0" d="M61.1,57.1c-14.2,4.8-22.9,2.8-25.8-5.9c-1.6-4.8-1-10.6,1.7-15.7c2.8-5.4,7.4-9.3,13-11.2
			c5.6-1.9,11.7-1.5,17.2,1.1c5.3,2.5,9.2,6.7,10.8,11.5C81,45.5,75.3,52.3,61.1,57.1z M50.4,25.2C45.1,27,40.7,30.8,38,35.9
			c-2.6,4.9-3.2,10.3-1.6,14.8c2.7,8,10.9,9.8,24.4,5.3c13.5-4.5,19-10.9,16.3-18.9c-1.5-4.6-5.3-8.5-10.3-10.9
			C61.6,23.8,55.7,23.5,50.4,25.2z"/>
		<path class="st3" d="M44.9,51c0.4,1.1-0.2,2.3-1.3,2.7c-1.1,0.4-2.3-0.2-2.7-1.3c-0.4-1.1,0.2-2.3,1.3-2.7
			C43.3,49.2,44.5,49.9,44.9,51z"/>
		<path class="st3" d="M74.4,41.1c0.4,1.1-0.2,2.3-1.3,2.7c-1.1,0.4-2.3-0.2-2.7-1.3c-0.4-1.1,0.2-2.3,1.3-2.7
			C72.8,39.4,74,40,74.4,41.1z"/>
		<path class="st0" d="M50.4,43.4c0.8,2.3-0.5,4.8-2.8,5.6c-2.3,0.8-4.8-0.5-5.6-2.8c-0.8-2.3,0.5-4.8,2.8-5.6
			C47.1,39.9,49.6,41.1,50.4,43.4z"/>
		<path class="st2" d="M47.9,43c-0.1,0.5-0.5,0.5-1.1,0.5c-0.5-0.1-1-0.2-0.9-0.8c0.1-0.5,0.6-0.9,1.1-0.8
			C47.6,41.9,48,42.4,47.9,43z"/>
		<path class="st0" d="M69.7,37c0.8,2.3-0.5,4.8-2.8,5.6c-2.3,0.8-4.8-0.5-5.6-2.8c-0.8-2.3,0.5-4.8,2.8-5.6
			C66.4,33.4,68.9,34.7,69.7,37z"/>
		<path class="st2" d="M67.2,36.5c-0.1,0.5-0.5,0.5-1.1,0.5c-0.5-0.1-1-0.2-0.9-0.8c0.1-0.5,0.6-0.9,1.1-0.8
			C66.9,35.4,67.3,35.9,67.2,36.5z"/>
		<path class="st0" d="M56.4,44.2c0.6-0.2,1-0.8,0.8-1.3c-0.2-0.5-0.7-0.4-1.3-0.2c-0.6,0.2-1.1,0.4-0.9,1
			C55.2,44.1,55.8,44.4,56.4,44.2z"/>
		<path class="st0" d="M60.5,45.3c0-0.5-0.8-0.5-0.8,0c0,0.5-0.9,0.9-1.3,0.8c-0.5-0.1-0.8-0.4-1-0.8c-0.1-0.2-0.3-0.2-0.5-0.1
			c-0.2,0-0.3,0.2-0.3,0.4c0.1,0.5,0,0.8-0.3,1.2C56,47.2,55,47.3,54.7,47c-0.3-0.4-1,0-0.7,0.5c0.6,0.7,1.5,0.6,2.3,0.3
			c0.5-0.2,0.9-0.6,1-1.2c0.4,0.3,1,0.5,1.5,0.3C59.7,46.7,60.5,46.2,60.5,45.3z"/>
	</g>
	<path class="st4" d="M101.1,112.3c2.1,11.1-9.9,13.5-9.9,13.5c-13.6,3.6-14.8-4.1-14.8-4.1c-1.6-8,9.2-8.2,9.2-8.2
		c-11.1-0.5-11.2-9.5-11.2-9.5c-0.4-9.4,8.8-10.5,8.8-10.5c11.4-2.6,13.3,1.5,13.5,4.2c0.5,6.2-10.7,6.9-10.7,6.9
		C100.1,103.8,101.1,112.3,101.1,112.3z"/>
	<path class="st4" d="M167.2,94c9.4,2,7.5,12.8,7.2,14.4c3.1-12.2,10.2-9.6,10.2-9.6c5.8,1.3,5.1,6.8,5.1,6.8
		c-0.7,11-5.6,20.1-5.6,20.1c-3.6,7.3-9,4.9-9,4.9c-9.4-2.2-7.9-14.8-7.7-16.3c-3.1,14.9-10.8,11.5-10.8,11.5
		c-5.2-1.2-4.9-6.7-4.9-6.7c0.2-10.1,5.2-20.1,5.2-20.1S160,92.4,167.2,94z"/>
	<path class="st4" d="M210.2,134.9c-5.4,9.9-16.2,4.2-16.2,4.2c-12.8-5.8-8.9-12.6-8.9-12.6c3.8-7.2,12.4-0.6,12.4-0.6
		c-8.3-7.4-2.7-14.5-2.7-14.5c5.6-7.6,13.5-2.6,13.5-2.6c10.5,5.1,9.4,9.6,7.8,11.8c-3.5,5.1-12.6-1.4-12.6-1.4
		C214.8,127.7,210.2,134.9,210.2,134.9z"/>
	<g>
		<g>
			<path class="st4" d="M61,103.9c-6-4-10.7-1.9-11-1.8c-0.3,0.1-5.1,1.9-6.6,8.9c-1.1,4.7-1.9,11.4,1.1,19.7c0,0,2,6.9,7.2,6.6
				c0,0,4.1-0.2,6.4-3.1c2.5-3.3,1.8-7.3,1.6-8.3c0.4,0.8,2.7,4.2,6.9,4.8c3.7,0.5,6.7-2.2,6.7-2.2c4-3.5,0.6-9.8,0.6-9.8
				C70.2,110.8,64.9,106.5,61,103.9z M57.9,123.1c-1.1,0.4-2.9-0.1-4.2-1.6c-0.2-0.3-0.4-0.6-0.5-0.9c-0.3-1-0.1-2.2,1.2-2.7
				c0,0,1.2-0.6,2,0.4c0.3-1.4,1.5-1.5,1.5-1.5c1.2-0.2,2,0.5,2.3,1.4c0.1,0.4,0.2,0.8,0.2,1.2C60.4,121.2,59.2,122.7,57.9,123.1z"
				/>
			<path class="st4" d="M150.7,114.8c0.2-8.9-2.7-15-5.2-19.1c-3.8-6.2-8.9-6.3-9.2-6.4c-0.3,0-5.4-0.5-9.8,5.2
				c-3,3.8-6.6,9.5-7.4,18.3c0,0-1.1,7.1,3.7,9.1c0,0,3.8,1.6,7.1-0.1c3.7-1.9,4.8-5.9,5-6.8c0,0.9,0.7,5,4.2,7.3
				c3.1,2.1,7,0.9,7,0.9C151.1,121.9,150.7,114.8,150.7,114.8z M138.9,108c-0.6,1.7-2.2,2.8-3.5,2.8c-1.2,0-2.8-1-3.5-2.8
				c-0.1-0.3-0.2-0.7-0.2-1.1c0-1.1,0.6-2.1,2-2.2c0,0,1.3-0.1,1.8,1c0.7-1.2,1.9-1,1.9-1c1.2,0.2,1.7,1.1,1.7,2.1
				C139.1,107.2,139,107.6,138.9,108z"/>
		</g>
	</g>
	<path class="st4" d="M101.9,100.4c0,0-0.3-10.4,7.2-11c0,0,6.1-0.4,7.7,8.7c1.5,8.7,0.9,16.2,0.9,16.2s-0.2,8.2-6.7,8.6
		c-7.2,0.4-8.2-9.4-8.2-9.4C101.8,108.4,101.9,100.4,101.9,100.4z"/>
	<path class="st2" d="M56.5,80.1c1.3,1.8,4.8,11.4-9.6,18c-13.3,6.1-20.7-3.9-20.7-3.9c-5.7-6.3-8.8-19.3-8.8-19.3
		c-2.3-10,4.8-12.5,4.8-12.5c12.1-5.5,17.9,19.7,17.9,19.7C49.9,70,56.5,80.1,56.5,80.1z"/>
	<path class="st2" d="M76,55.2c-0.8-7.8,6.8-9.5,6.8-9.5c12.2-3.9,25.1-2.9,25.1-2.9c7.3,0.8,7.6,6.8,7.6,6.8
		c0.7,10-10.1,9.7-10.1,9.7c3.3,11.6,2,18.5,2,18.5c-0.7,7.5-7.2,7.7-7.2,7.7s-7.1,1.5-9.5-5.9c-2.5-7.7-1.9-18.1-1.9-18.1
		S77,64.2,76,55.2z"/>
	<path class="st2" d="M117.2,50.9c0.4-7.8,8.3-8.3,8.3-8.3c12.6-1.9,25.2,1.2,25.2,1.2c7.1,1.9,6.4,8,6.4,8c-0.9,10-11.5,8-11.5,8
		c1.3,12-1,18.6-1,18.6c-1.9,7.3-8.4,6.4-8.4,6.4s-7.2,0.4-8.5-7.4c-1.3-8,1-18.1,1-18.1S116.7,60,117.2,50.9z"/>
	<path class="st2" d="M188.7,81.1c0,2.2-2.7,12-18.3,9c-14.4-2.8-14.5-15.2-14.5-15.2c-1-8.5,4.1-20.8,4.1-20.8
		c3.9-9.5,11.1-7.3,11.1-7.3c13,2.5,3.1,26.4,3.1,26.4C189.3,69,188.7,81.1,188.7,81.1z"/>
	<path class="st2" d="M232.6,75.2c-3.7,8.6-17.5,0.7-17.5,0.7c7.6,5.1,4.8,9,4.8,9c-1.9,4.1-7.4,3.2-8.2,3
		c13.4,5.9,9.6,12.6,9.6,12.6c-3.4,6.6-17.2,0.1-17.2,0.1C188.3,94,191,85.4,191,85.4c2.4-10.2,10.1-22.1,10.1-22.1
		c6.2-9.2,19.5-1.7,19.5-1.7C236.5,69.3,232.6,75.2,232.6,75.2z"/>
	<path class="st2" d="M74.3,89.4c-6.3,2.2-9.5-2.4-9.5-2.4c-5.6-7.2-6-18.2-6-18.2c-0.3-7.4,5.7-9.1,5.7-9.1c6.8-2.6,10.4,4,10.4,4
		s3.6,5.5,5.2,16.6C81.1,87.5,74.3,89.4,74.3,89.4z"/>
</g>
</svg>
