<?xml version="1.0" encoding="utf-8"?>
<!-- Generator: Adobe Illustrator 25.2.3, SVG Export Plug-In . SVG Version: 6.00 Build 0)  -->
<svg version="1.1" id="Layer_1" xmlns="http://www.w3.org/2000/svg" xmlns:xlink="http://www.w3.org/1999/xlink" x="0px" y="0px"
	 viewBox="0 0 300 65" style="enable-background:new 0 0 300 65;" xml:space="preserve">
<style type="text/css">
	.st0{fill:#FFAB00;}
</style>
<g>
	<path class="st0" d="M188.3,50.2l-0.1,0.4c0,0.3,0.1,0.5,0.2,0.5h0.1l0-0.3v-0.5c0-0.1,0-0.1-0.1-0.1H188.3z"/>
	<path class="st0" d="M189.2,52.5l0,0.2c0.2,0.5,0.4,0.8,0.7,0.8c0-0.1,0.1-0.1,0.1-0.2c0-0.2-0.2-0.5-0.6-0.8L189.2,52.5z"/>
	<g>
		<path class="st0" d="M9.4,7.7c0.6,0.3,0.9,0.4,1,0.4c0.2,0,0.4,0.1,0.5,0.1h0.1c2,0,4.1-0.1,6.2-0.3L17.5,8c0.8,0,1.2-0.1,1.2-0.1
			c0.2,0,0.3,0.1,0.5,0.1h0.5c0.3,0,0.6,0,0.9,0.1c0.2,0,0.4-0.1,0.7-0.1c0.2,0,0.3,0,0.5,0.1c0.2,0,0.3-0.1,0.5-0.1
			C23.1,8,23.7,8,24,8h0.6c0.1,0,0.1,0,0.2,0.1L25,8c1.2,0,1.9,0.1,2.1,0.1l0.3-0.1l1.3,0.1L31.1,8c0.2,0,0.7,0.1,1.3,0.2
			c0.3-0.1,0.6-0.1,0.6-0.1c0.3,0,0.8,0.6,1.5,1.9c1.5,1.9,2.4,3.2,2.9,3.7c0,0.1,0.6,0.8,1.7,2.1c1.1,1.4,1.7,2.2,1.7,2.2v0.2
			c0,0.1-0.1,0.3-0.2,0.6c0.1,0.6,0.1,1.5,0.2,2.8c-0.1,2.7-0.2,4-0.3,4l0.1,0.5c-0.1,2.3-0.2,3.5-0.4,3.6c-0.8,0.6-1.2,1-1.2,1.3
			v0.2c0.3,0.4,0.7,0.8,1.1,1.1c0.3,0.4,0.4,1,0.4,1.7v0.1c-0.2,1.1-0.3,2-0.3,2.7c0,0.5,0.1,1.6,0.3,3.2c0,0.3-0.1,1.2-0.1,2.8
			c0,0.4,0.1,0.7,0.1,0.7c-0.1,1.8-0.2,2.8-0.2,3.2c0.1,0.2,0.1,0.4,0.1,0.5c-0.1,0.5-1.5,2.1-4.1,4.6c-0.7,1.1-1.4,1.9-2,2.5
			c-1,0.6-1.7,1.2-2.1,1.8l-0.3,0.1c-1.4-0.1-5.7-0.3-12.9-0.6c-2.7-0.2-5.2-0.3-7.5-0.4l-0.6,0.1c-0.8,0-1.2-0.2-1.2-0.6
			c0-0.4-0.2-0.9-0.6-1.6c-0.8-5-1.2-8.6-1.2-10.6c0-0.7,0-1.5-0.1-2.4c0-0.2,0.1-0.5,0.3-0.8c0-0.2-0.1-0.3-0.1-0.4
			c0.1-0.1,0.3-0.2,0.4-0.2h0.1c0.2,0,0.4,0,0.6,0.1c0.3-0.1,0.6-0.1,0.8-0.1h0.1l0.3,0.1c0.2,0,0.3-0.2,0.3-0.5
			c-0.1-0.6-0.1-0.9-0.1-1c0-0.8,0-2.6-0.1-5.5c0-0.8,0.1-2.5,0.3-5V26c0-0.3-0.6-0.5-1.7-0.5C8.3,25.4,8,25.2,8,24.9
			c0.1-0.7,0.2-1.1,0.2-1.4c-0.1-0.1-0.1-0.2-0.1-0.3v-0.1c0.4-2.2,0.7-4.3,0.7-6.2c0-3-0.1-5-0.3-6.2c0.1-0.2,0.1-0.4,0.1-0.5V10
			C8.4,9.6,8.4,9.3,8.4,9.3V9.2c0-0.8,0.3-1.3,0.9-1.5H9.4z M11.5,11.1L11.5,11.1c0.1,0.4,0.3,2.1,0.4,4.9v0.2
			c0,1.1-0.2,2.9-0.6,5.3c0,0.3,0.3,0.4,0.8,0.4c0.4,0.2,0.6,0.5,0.6,0.7c0,0.4-0.1,1.3-0.2,2.8c0,0.6,0.1,0.9,0.1,1
			c0,0.2-0.1,0.4-0.1,0.4c0.1,0.4,0.1,0.8,0.1,1.2v0.3c0,0.2,0,0.5-0.1,0.8l0.1,0.2c0,0.3-0.1,0.5-0.1,0.8c0.1,1.1,0.2,1.8,0.2,2.1
			c0,0-0.1,0.2-0.2,0.6v0.4c0,0.3,0.2,2.6,0.5,6.9v0.4l0.2,1.3c-0.1,0.3-0.3,0.4-0.5,0.4h-0.1c-0.6-0.1-0.9-0.1-0.9-0.1
			c-0.7,0-1.1,0.1-1.2,0.4v3c0.4,4.7,0.6,7,0.8,7c0,0.1,1.7,0.2,5,0.3c1.7,0.1,3.2,0.2,4.6,0.3c1.1-0.1,2.5-0.2,4.3-0.2
			c1.1,0,1.8,0.1,2.2,0.1c0.1,0,0.2,0,0.4-0.1c0.3,0,0.6,0.1,0.9,0.1h1.5c0.5,0,1.1,0.1,1.6,0.2c0.4-0.1,0.9-0.9,1.5-2.4
			c0.7-1.2,2-2.8,3.8-4.8c0.7-0.3,1-0.8,1-1.5c0-2.8-0.1-5.6-0.3-8.4v-1c0-0.3,0.1-0.8,0.2-1.7c0-0.2-0.4-0.5-1.3-0.8
			c-0.3-0.3-0.4-0.7-0.4-1v-0.2c0-0.3,0.4-1,1.1-2.1c0.1-0.2,0.2-0.4,0.2-0.5c0-0.9,0-2.1-0.1-3.6c0-3.6,0.2-5.9,0.5-7
			c0-0.1-0.4-0.6-1.2-1.2c-1-1.1-1.9-2.3-2.8-3.4c-0.9-0.8-1.4-1.5-1.5-2.1c-0.6-0.2-1.2-0.3-1.7-0.3c-2.7,0.1-4.1,0.1-4.3,0.2
			c-0.3,0-1.5-0.1-3.6-0.1l-0.5-0.2c0,0-0.1,0-0.3,0.1c-0.2,0-0.3,0-0.5-0.1c-0.4,0-1.4,0.1-3,0.1c-0.8-0.1-1.5-0.2-2-0.3
			c-0.6-0.1-1.3-0.1-2.3-0.1c-1.5,0.2-2.4,0.3-2.6,0.4L11.5,11.1z M14.7,13.1h0.1c0.5,0.2,0.9,0.3,1.3,0.3c0.3,0,0.9,0.1,1.9,0.2
			l0.3-0.1c1.1,0.1,2,0.2,2.6,0.2h0.1l8.3-0.5h0.9l0.3-0.1c0.2,0,0.4,0.3,0.5,0.9c0.6,0.6,1.7,1.9,3.2,3.7c0.6,0.5,0.9,0.9,0.9,1.2
			c0,0,0.1,0,0.1,0.1c0,0.4-0.1,0.7-0.1,1v0.5c0,0.1,0,0.1-0.1,0.2c0.1,0.5,0.2,2.2,0.3,5v0.1c0,0.1,0,0.3-0.1,0.6
			c0.1,0.3,0.2,0.7,0.2,1c0,0.2-0.5,0.8-1.5,1.7c-1.1,1.3-1.6,2-1.6,2.2c0,0.1,0.6,0.8,1.9,2c0.4,0.6,0.8,1.1,1.4,1.5
			c0,0.1,0.1,0.3,0.1,0.4c-0.1,0.7-0.2,1.4-0.2,2.1v0.8c0.3,2.4,0.4,4,0.4,4.8c0,0.7-0.2,1.1-0.6,1.2c-1.1,1.4-2.3,2.6-3.5,3.8
			c-1.2,0.9-1.8,1.7-1.8,2.3c0,0.3-0.1,0.5-0.4,0.5c-0.5-0.1-1-0.2-1.3-0.2c-0.3,0-1.2,0-2.5,0.1l-0.1-0.1c-0.1,0-0.1,0.1-0.2,0.1
			c-0.2,0-0.4,0-0.5-0.1c-1.3,0-2,0.1-2,0.4l-0.4,0.1h-0.4c-0.3-0.2-0.8-0.3-1.3-0.3c-0.1,0-0.7,0-1.6-0.1c-1.3,0-2.1,0.1-2.2,0.1
			c-1.1-0.1-1.8-0.1-2-0.2c-0.3,0.1-0.5,0.1-0.6,0.1c-0.7,0-1-0.4-1-1.3c-0.1-0.4-0.2-1.2-0.3-2.5c-0.2-0.3-0.3-0.5-0.3-0.6
			c0-0.1,0.1-0.2,0.2-0.5c-0.1-0.7-0.3-1.3-0.7-1.8v-0.2c0.1-0.3,0.5-0.5,1-0.5c0.5,0.1,0.8,0.2,1,0.2h0.1c0.3,0,0.4-0.2,0.4-0.5
			c0-0.6,0-1.9-0.1-4c0-0.4,0-1.1,0.1-1.9c-0.1-0.3-0.1-0.7-0.1-1.2v-0.2c0-0.2,0.1-1.3,0.3-3.4c0-0.6-0.1-1-0.1-1.1l0.1-0.3
			l-0.1-0.4c0-1.9,0.1-3.3,0.2-4.2c0-1.3-0.1-2.3-0.1-3.2c0-0.5,0.1-1.2,0.2-2.1v-0.1c0-0.2-0.2-0.4-0.5-0.4h-1.1
			c-0.4-0.1-0.6-0.2-0.6-0.5c0.4-1.5,0.7-3,0.7-4.5c0.3-1.5,0.4-2.4,0.5-2.5L14.7,13.1z M14.9,45.2c0,0.3,0.1,0.4,0.2,0.4h0.1
			c0.1,0,0.1-0.1,0.2-0.2c0-0.3-0.1-0.4-0.2-0.4H15C15,45,14.9,45,14.9,45.2z M15.2,15.3L15.2,15.3l0.1,0.1v-0.1H15.2z M15.9,42.8
			c0.1,0.2,0.1,0.4,0.1,0.4h0.2l0.1-0.4v-0.1l-0.1-0.3H16C16,42.5,15.9,42.6,15.9,42.8z M16.4,26.1v0.5c0,0.2,0.1,0.3,0.2,0.3
			c0.1,0,0.2-0.2,0.2-0.5c0-0.4-0.1-0.6-0.2-0.6C16.5,25.8,16.4,25.9,16.4,26.1z M17.4,43.3c0,0.1,0,0.3,0.1,0.6
			c0,0.2-0.1,0.4-0.1,0.7l0.1,0.1h0.2l0.2-0.9c-0.1-0.3-0.1-0.5-0.2-0.5h-0.1C17.5,43.2,17.4,43.2,17.4,43.3z M17.4,45.8v0.5
			c0,0.2,0.1,0.3,0.2,0.4c0.1-0.1,0.2-0.2,0.2-0.4c0-0.3-0.1-0.5-0.3-0.6C17.5,45.7,17.5,45.7,17.4,45.8z M17.6,40
			c0,0.1,0.1,0.3,0.2,0.7h0.1c0.1,0,0.1-0.2,0.2-0.5c0-0.2-0.1-0.4-0.2-0.5C17.7,39.7,17.6,39.8,17.6,40z M18.1,22v0.2
			C18,22.5,18,22.6,18,22.6v0.2c0,0.1,0,0.1,0.1,0.1h0.1c0.1,0,0.1-0.1,0.2-0.2v-0.1c0,0,0-0.2-0.1-0.4l0.1-0.3L18.2,22H18.1z
			 M18,24.9v0.6c0,0.3,0.1,0.4,0.2,0.5h0.1c0.1,0,0.2-0.2,0.2-0.4v-0.1c0-0.5-0.1-0.7-0.3-0.7C18.1,24.8,18,24.8,18,24.9z
			 M18.1,27.3v0.1h0.1v-0.1H18.1z M18.9,16.8L18.9,16.8c0,0.1,0,0.2,0.1,0.2c0.1,0,0.1,0,0.1-0.1v-0.1H18.9z M19.8,32.7l-0.1,0.2
			c0.2,0.1,0.3,0.2,0.4,0.2c0.1,0,0.1-0.1,0.2-0.1v-0.2c0-0.1-0.1-0.2-0.3-0.2H19.8z M19.9,15.5v0.1h0.2v-0.1H19.9z M20.9,36.4v1.7
			c0,0.6-0.1,1.6-0.3,2.8c0.1,1.9,0.2,2.9,0.4,2.9c0,0.1,1.6,0.2,4.8,0.3c1.3-0.1,2-0.3,2-0.6c0.4-1,0.8-2.4,1.2-4.5v-0.2
			c-0.1-0.3-0.6-1.3-1.6-3.1c-0.2-0.3-0.5-0.5-0.9-0.5c-3.8,0-5.7,0.3-5.7,0.8C20.9,36.1,20.9,36.2,20.9,36.4z M20.9,23.7v3.2
			c0,1,0.1,1.5,0.4,1.5l2.1-0.1l3.3,0.4c0.3,0,0.8-0.8,1.5-2.3l1.1-2.6v-0.2c-0.1-0.2-0.6-1.1-1.6-2.6c0-0.3-0.9-0.5-2.6-0.6
			c-1.5-0.1-2.6-0.2-3.2-0.2c-0.5,0-0.7,0.3-0.7,0.9C21,22.1,20.9,23,20.9,23.7z M21,46.9c0.1,0.1,0.3,0.2,0.5,0.2
			c0.2-0.1,0.2-0.1,0.3-0.2v-0.1c-0.1-0.1-0.2-0.2-0.4-0.2h-0.1C21.1,46.6,21,46.7,21,46.9z M22.1,33c0,0.1,0,0.1,0.1,0.1
			c0.9,0,1.3-0.1,1.3-0.2c0-0.1,0-0.1-0.1-0.1H23c-0.1,0-0.4-0.1-0.6-0.2C22.2,32.7,22.1,32.8,22.1,33z M22.4,16.9V17
			c0,0,0.1,0.1,0.4,0.3c0.1,0,0.1-0.1,0.2-0.1V17c0-0.1-0.1-0.1-0.3-0.2C22.6,16.9,22.5,16.9,22.4,16.9z M23,36.9h0.6
			c0.2,0,0.7,0.1,1.6,0.2c0.3-0.1,0.5-0.2,0.6-0.2c0.4,0,0.7,0.4,1,1.3c0,1.5-0.2,2.5-0.5,2.9c-0.2,0.6-0.5,0.9-0.8,0.9h-0.2
			c-0.1,0-0.1,0-0.2-0.1c-0.1,0-0.1,0.1-0.3,0.1c-0.1,0-0.3,0-0.6-0.1C23.8,42,23.6,42,23.5,42c-0.3,0-0.5-0.2-0.5-0.5l0.1-0.3
			c0,0-0.1-0.3-0.3-0.8c0-0.1,0-0.3,0.1-0.6c0-0.4-0.1-1.2-0.4-2.5C22.6,37,22.7,36.9,23,36.9z M25.1,21.6c0.5,0,0.8,0.2,1,0.6
			c0.2,0.3,0.5,0.7,0.8,1.3c0,1.6-0.4,2.3-1.2,2.3h-0.5c-0.8,0.1-1.2,0.2-1.3,0.2c-0.4,0-0.7-1-0.8-2.9v-0.1c0.1-1,0.2-1.5,0.5-1.5
			H25.1z M23.1,29.3v0.1c0,0.1,0.1,0.1,0.3,0.2c0.3,0,0.6-0.1,0.9-0.2v-0.1c0-0.1-0.3-0.2-0.9-0.2C23.3,29.1,23.2,29.2,23.1,29.3z
			 M23.4,45.4c-0.1,0.1-0.1,0.2-0.1,0.2c0,0.1,0.1,0.2,0.4,0.3c0.2,0,0.4-0.1,0.4-0.2v-0.1C23.7,45.5,23.5,45.4,23.4,45.4z M24,47
			c0.1,0.1,0.3,0.1,0.6,0.2c0.2-0.1,0.3-0.1,0.4-0.1v-0.2c0-0.1-0.2-0.2-0.7-0.2C24.1,46.7,24,46.8,24,47z M25.8,15.7L25.8,15.7
			c0,0.1,0.1,0.2,0.2,0.3h0.2l0.2-0.2c-0.1-0.2-0.2-0.3-0.4-0.3h-0.1C25.9,15.5,25.8,15.6,25.8,15.7z M25.9,34.1v0.2
			c0,0.1,0,0.1,0.1,0.1h0.2c0.1,0,0.1-0.1,0.2-0.2c0-0.1-0.1-0.1-0.2-0.2L25.9,34.1z M29.6,28.8V29h0.3c0.2-0.4,0.4-0.7,0.4-0.8V28
			c-0.1,0-0.1,0-0.1-0.1C30,28,29.8,28.3,29.6,28.8z M29.9,40.2c0.1,0.2,0.1,0.2,0.2,0.3h0.2c0.1,0,0.1-0.1,0.2-0.2v-0.2
			c0-0.2-0.1-0.3-0.2-0.3h-0.2C30.1,39.9,30,40,29.9,40.2z M30.5,21.6c0,0.1,0,0.1-0.1,0.1c0.1,0.1,0.1,0.2,0.2,0.2
			c0.1,0,0.1,0,0.1-0.1v-0.1C30.7,21.8,30.6,21.7,30.5,21.6z M31.5,25.5c-0.1,0.1-0.2,0.3-0.2,0.4c0,0.1,0.1,0.1,0.2,0.1
			c0.1,0,0.2-0.1,0.3-0.3v-0.2L31.5,25.5z M31.8,20.9V21c0,0.1,0.1,0.1,0.2,0.2c0.1-0.1,0.2-0.1,0.2-0.2v-0.1c0-0.1,0-0.1-0.1-0.1
			h-0.2C31.8,20.8,31.8,20.8,31.8,20.9z M32.8,44.3l0.1,0.1c0.2,0,0.4-0.1,0.4-0.3l-0.2-0.1h-0.1C32.9,44,32.8,44.1,32.8,44.3z
			 M33.1,23.4l0.1,0.3h0.1c0.1,0,0.2-0.3,0.2-1v-0.4c0-0.1,0-0.1-0.1-0.1h-0.1C33.2,22.2,33.1,22.6,33.1,23.4z M33.3,19.2v0.2h0.1
			c0.1,0,0.1,0,0.1-0.1L33.3,19.2L33.3,19.2z M33.5,41.9v0.2l0.6,0.6h0.1l0.2-1.1c0-0.3-0.2-0.4-0.4-0.4
			C33.8,41.2,33.7,41.4,33.5,41.9z M33.7,39.5c0.1,0.1,0.1,0.2,0.2,0.2s0.1-0.1,0.2-0.2v-0.1l-0.1-0.3h-0.1
			C33.7,39.2,33.7,39.3,33.7,39.5z M34,24.8c0,0.1,0.1,0.1,0.1,0.2h0.1c0,0,0.1-0.1,0.2-0.2c0-0.2-0.1-0.3-0.2-0.3
			C34.1,24.4,34.1,24.6,34,24.8z"/>
		<path class="st0" d="M56,9.2c1,0.1,1.5,0.3,1.5,0.6c0.2,0.2,0.4,0.3,0.6,0.3h0.1c0.2,0,0.5-0.2,1-0.5c0.3-0.1,0.5-0.1,0.7-0.1
			c1.1,0,3.3,0.2,6.6,0.7h0.3c0.8-0.1,2.7-0.2,5.6-0.3c0.9,0,2,0.1,3.2,0.4c0.3-0.1,0.5-0.1,0.6-0.1c0.5,0,0.8,0.8,0.9,2.5
			c0.1,1,0.2,2.6,0.2,4.8c0.1,0.3,0.2,0.7,0.2,1.2v0.7c0,0.3,0,0.6-0.1,1l0.3,1.9c0,0.1,0,0.2-0.1,0.4c0,0.2,0.1,0.4,0.1,0.5
			c0,0.2-0.4,0.4-1.2,0.6c0,0-0.1,0-0.1-0.1c-0.2,0-0.4,0.1-0.4,0.1L75.2,24c-0.2,0-0.3,1.3-0.4,3.8l-0.5,6.4c0,0.2,0,0.3,0.1,0.5
			l-0.1,3.4l0.1,2.4c0,0.2-0.1,0.4-0.1,0.5c0.2,0.7,0.4,1.5,0.4,2.3c0,0.3,0,1.1-0.1,2.2l0.2,0.7c0,0.3-0.5,1-1.5,2.3
			c0,0.2-0.4,0.8-1.3,1.9c-0.3,1.2-1,2.3-1.9,3.3c-0.8,1.2-1.4,1.9-1.7,2.1c-0.7,0.1-1.4,0.2-2.1,0.3c-0.9-0.1-1.8-0.1-2.8-0.1
			c-0.5,0-1.3,0-2.2,0.1c-1.7-0.1-3.1-0.2-4.3-0.3C55.4,56,54.7,56,54.5,56c-1.4,0-2.8-0.2-4-0.6c-0.9-0.2-1.7-0.8-2.4-1.8
			c-0.4-0.4-0.9-1-1.2-1.7c-0.1-0.1-0.5-0.6-1.1-1.7c-0.3-0.4-0.8-1-1.3-1.8c-0.3-0.2-0.6-0.8-0.9-1.8c-0.4-0.3-0.6-0.6-0.6-0.9
			l0.2-0.9c0-0.9-0.1-1.5-0.1-1.8l0.2-2.4c0-0.4,0-1,0.1-2l0.1-0.1c0-0.1-0.1-0.1-0.1-0.2c0-0.1,0-0.5,0.1-1.3
			c-0.1-0.4-0.1-0.7-0.1-0.9c0.1-0.4,0.1-0.7,0.1-0.8v-1.3l0.1-0.3l-0.1-0.1c0-0.4,0.1-0.7,0.1-0.9c0-0.3,0-0.6-0.1-0.8l0.1-0.4
			c0-0.1,0-0.4-0.1-0.9c0-0.6,0-1.6,0.1-3.2c-0.1-0.4-0.1-0.8-0.1-1.2V26c0-0.3-0.3-0.4-0.9-0.5c-1-0.2-1.5-0.4-1.5-0.6V24
			c0-0.2,0.1-0.7,0.2-1.6v-0.7c0-0.1,0.1-0.4,0.2-1l-0.1-0.3c0.1-0.3,0.1-0.6,0.1-0.9v-1.5l0.5-6.2c0.2-1.3,0.4-2,0.7-2
			c0.1,0,0.3-0.1,0.6-0.2c0.9,0.1,1.4,0.1,1.6,0.1c0.2,0,1.5-0.2,4.1-0.5h0.3c0.1,0,0.1,0,0.2,0.1c0.6-0.1,1.2-0.2,2-0.2
			c0.4,0,1.2,0,2.4,0.1L56,9.2z M44.9,12.4c0,0.2,0.1,0.3,0.1,0.3c-0.1,1.4-0.3,2.9-0.5,4.6c-0.1,0.8-0.3,2.5-0.4,4.9
			c0,0.3,0.2,0.5,0.5,0.6l0.3-0.1h0.3c0.8,0,1.2,0.3,1.2,0.9c0,0,0.1,0.1,0.1,0.3c-0.1,0.3-0.2,0.6-0.2,0.8c0,0,0.1,0.3,0.3,0.7
			c-0.2,1-0.4,1.8-0.4,2.3c0,0.2,0,0.4,0.1,0.7l-0.1,0.2c0,0.9,0.1,1.6,0.2,2.2c0,0.1,0,0.2-0.1,0.4c0,0.4,0.1,0.6,0.1,0.8
			c0,1.6-0.1,3.3-0.4,4.9l0.1,0.3v0.2c0,0.9-0.1,1.9-0.2,3c0.2,1.8,0.4,3.1,0.4,3.7c0,0.2,0,0.8-0.1,1.7c0,0.3,0.5,1.1,1.5,2.4
			c0.6,0.4,1.1,1,1.6,1.9l1.7,2.4c0.3,0.4,0.8,0.7,1.5,0.7c0.3,0,1.6,0.1,3.8,0.2c0.7-0.1,1.1-0.2,1.2-0.2h0.2
			c1.4,0.1,2.1,0.1,2.2,0.1H62c1.1,0,2-0.1,2.5-0.3l0.3-0.1c0,0,0.2,0,0.7,0.1c1.2,0,1.9-0.1,1.9-0.3c0-0.3,0.6-1.2,1.9-2.8
			c1.7-1.9,2.6-3.2,2.6-3.9c0.1-0.5,0.1-1.2,0.2-2c-0.2-1.2-0.4-2.9-0.4-5.2v-0.1c0-1.1,0.1-2.8,0.4-5c-0.1-0.6-0.1-1-0.1-1.3v-0.2
			c0-0.5,0-0.9,0.1-1.1c0-0.2-0.1-0.4-0.1-0.6V30c0-0.2,0-0.3,0.1-0.5c-0.2-1.6-0.3-2.6-0.3-3.1v-1.1c0-0.3,0-0.6,0.1-1.1
			c0-0.1-0.1-0.1-0.1-0.3c0.1-0.2,0.3-0.6,0.3-1c0.2-0.3,0.9-0.5,1.9-0.5c0.3-0.1,0.4-0.2,0.4-0.4c-0.2,0-0.4-2.8-0.6-8.4l0.1-0.9
			c-0.1-0.2-0.2-0.3-0.4-0.3c-0.6,0-1,0.1-1.2,0.1c-1-0.2-1.5-0.3-1.7-0.3h-0.7c-0.7,0-2.1,0-4.1,0.1c-0.2,0-1.4,0-3.5-0.1
			C62,12,61.6,12,61.4,12H61c-0.5,0-0.8,0.1-0.8,0.3c-0.1,1.5-0.1,2.4-0.1,2.7l0.2,2.2c0,1.2-0.1,2.3-0.3,3.4v0.8c0,0.7,0.2,1,0.7,1
			c0.8,0.2,1.2,0.4,1.2,0.7c-0.1,1.2-0.2,1.9-0.2,2.1c0,0.7,0.1,1.8,0.3,3.2c-0.1,1.2-0.2,2.2-0.3,3.1c0.1,1.4,0.1,2.4,0.1,2.9
			c0,0.5-0.1,0.9-0.2,1.3l0.1,0.4c0,0.2-0.1,0.9-0.2,2.1v1.9c0,0.3,0,0.8,0.1,1.2c-0.1,0.8-0.3,1.1-0.6,1.1c-0.1,0-0.1,0.1-0.2,0.1
			h-0.9c-0.1,0-0.1,0-0.2-0.1c-0.4,0.1-0.7,0.2-0.9,0.2h-0.7c-0.7,0-1-0.2-1-0.7v-0.4c0-0.2-0.1-0.5-0.2-0.9c0-2.7,0.1-4.1,0.2-4.1
			v-0.3L57,34.6c0-0.7,0.1-1.3,0.1-1.8c-0.1-0.8-0.2-1.6-0.3-2.4c0.1-1,0.1-1.7,0.2-2.1c0-0.1,0-0.3-0.1-0.6
			c0.1-0.5,0.1-0.9,0.1-1.3v-0.2c0-0.4,0-0.9-0.1-1.4l0.1-0.8c-0.1-0.2-0.1-0.4-0.1-0.7c0.1-0.3,0.4-0.5,1-0.5
			c0.5,0,0.8-0.3,0.8-0.9c-0.1,0-0.2-2.3-0.3-7v-1.7c0-0.3-0.5-0.6-1.5-0.6c-0.1,0-0.3-0.1-0.8-0.2c-0.2,0-0.4,0.1-0.7,0.1
			c-0.8-0.2-1.3-0.3-1.6-0.3h-0.7c-0.6,0-2.3-0.1-5.2-0.3h-1.2c-0.3,0-0.8,0-1.3-0.1C45.1,11.9,45,12.1,44.9,12.4z M51.4,13.6h0.2
			l3.5,0.2l0.3-0.1c1,0.1,1.5,0.4,1.5,1V15c0,0.3,0,0.6-0.1,0.9c0,1.5,0.1,2.6,0.2,3.2v1.3c0,0.3-0.3,0.5-0.9,0.6
			C56,21,55.6,21.2,55,21.5l-0.1,0.2l0.1,3c-0.2,1.1-0.3,2.9-0.3,5.5c0,0.5,0.1,0.9,0.1,1.1c0,0.2-0.1,0.3-0.1,0.5
			c0.1,0.3,0.1,0.6,0.1,1V34c0,0.3,0,0.8-0.1,1.3c0.1,0.3,0.1,1.2,0.3,2.8c0.1,0.2,0.2,0.5,0.2,0.9v0.6c0.1,0.4,0.2,0.8,0.2,1.2v1.1
			c0.2,0.6,0.3,1.3,0.4,2.2v0.4c0.1,0.1,0.2,0.2,0.3,0.2c0.9-0.2,2.4-0.3,4.3-0.4l0.3,0.1c0.3-0.1,0.6-0.1,0.8-0.1
			c0.2,0,0.7,0,1.3,0.1c0.5,0,0.7-0.2,0.7-0.7v-0.2c0-0.6,0.1-1.1,0.2-1.5l-0.1-0.5c0.1-3.3,0.3-5.1,0.4-5.6L64,35.3
			c0.2-2.1,0.3-3.7,0.3-4.8c0,0,0-0.2,0.1-0.6v-0.1c0,0,0-0.2-0.1-0.4v-1.1c0-0.1,0-0.3-0.1-0.5c0.1-0.9,0.2-1.4,0.2-1.7v-0.7
			c0-0.2,0-0.4-0.1-0.7c0.1-0.1,0.1-0.4,0.1-0.8v-1.3c0-0.1,0-0.1,0.1-0.2c0-0.1-0.1-0.1-0.1-0.2v-0.6c0-0.4-0.3-0.7-0.8-0.7
			c-0.1,0-0.4,0-1.1,0.1c-0.3-0.1-0.5-0.4-0.7-0.7c0.1-1.9,0.2-3.6,0.2-5.1V15c0.1-0.7,0.4-1,1-1c1.2-0.2,1.8-0.3,2-0.3
			c0.1,0,0.3,0,0.6,0.1c0.4,0,0.7-0.1,0.9-0.1c0.3,0,0.4,0,0.6,0.1c0.5,0,1-0.1,1.5-0.1h2.8c0.5,0,0.7,0.3,0.7,1
			c0.2,1.1,0.3,2.5,0.4,4.4l0.4,1.3c-0.1,0.2-0.3,0.4-0.5,0.4c-0.4,0-0.7-0.1-0.8-0.1c-0.5,0.1-0.8,0.3-0.9,0.4
			c0,0.2-0.1,0.6-0.1,1.2c0,0,0,0.1,0.1,0.2L70,27.9c0,0.1,0,0.1,0.1,0.2l-0.2,3.2c0.1,0.1,0.1,0.4,0.1,0.8v0.7c0,1,0,1.6-0.1,1.6
			l0.1,0.3v0.9c0,0.2,0,0.4,0.1,0.8c0,0.3,0,0.8-0.1,1.7C70,39,70,39.7,70,40c0,0.1,0,0.2-0.1,0.4c0,1,0.1,2.3,0.2,4l-0.1,0.1
			c0,0,0.1,0.3,0.1,1c0,0.1-0.5,0.6-1.5,1.3c-0.5,0.5-0.9,1.1-1.3,1.7c-1,1.7-1.6,2.6-1.8,2.6c-1.2,0-2.2-0.1-3.1-0.2h-0.3
			c-0.4,0-1,0.1-1.8,0.2c-0.6,0-1.3,0-2.1-0.1c-2,0.1-3.4,0.2-4.2,0.3h-0.6c-0.8-0.1-1.6-0.5-2.4-1.3c-1.4-1.4-2.3-2.4-2.7-3.1
			c-0.7-0.8-1-1.2-1-1.5l0.1-0.3l-0.1-1.6c0.2-2.2,0.3-3.3,0.3-3.5c-0.1-0.3-0.1-0.6-0.1-0.9v-0.3c0-0.7,0-1.3,0.1-1.8l-0.1-2.8
			c0-0.1,0.1-0.1,0.1-0.2c-0.1-0.3-0.1-0.5-0.1-0.7v-0.1c0-0.4,0.1-1,0.2-1.9c-0.1-0.9-0.1-1.4-0.1-1.6c0.1-0.6,0.1-1,0.1-1.3v-1.5
			c0-0.3,0-0.8,0.1-1.2c0-0.1-0.1-0.1-0.1-0.2l0.1-0.1c-0.1-0.5-0.1-1-0.1-1.3c0.1-1.1,0.2-1.9,0.3-2.3c0-0.3-0.1-0.5-0.4-0.5
			c-0.4,0.1-0.6,0.2-0.7,0.2h-0.5c-0.6-0.1-0.9-0.4-0.9-0.8c0.3-2,0.5-3.4,0.5-4.4c0.1-0.4,0.2-1.1,0.3-2c0.4-0.2,1.1-0.3,2.3-0.5
			c0.4,0,0.6,0.1,0.6,0.1C49.9,13.7,50.6,13.6,51.4,13.6z M47.7,17.6v0.2c0,0.1,0.1,0.1,0.2,0.2H48c0.1,0,0.1,0,0.1-0.1v-0.2
			c0-0.3-0.1-0.5-0.2-0.5h-0.1C47.8,17.2,47.7,17.4,47.7,17.6z M48.3,20v0.2c0,0,0.1,0.1,0.2,0.2c0.1,0,0.1-0.1,0.2-0.1v-0.3
			c0-0.1-0.1-0.2-0.2-0.4C48.4,19.8,48.3,19.9,48.3,20z M48.6,34.5c0,0.1,0.1,0.4,0.2,0.9h0.1c0.1,0,0.1,0,0.1-0.1V35
			c0-0.4-0.1-0.6-0.2-0.6h-0.1C48.6,34.4,48.6,34.4,48.6,34.5z M48.6,43.3c0,0.3,0.1,0.5,0.2,0.5c0.1,0,0.1-0.1,0.2-0.3
			c-0.1-0.3-0.1-0.4-0.2-0.4C48.7,43.1,48.7,43.2,48.6,43.3z M49.6,23.4c0,0.1,0,0.2-0.1,0.3c0,0.4,0.1,0.6,0.1,0.8v0.2
			c0,0.2-0.1,0.4-0.3,0.4c-0.1,0-0.2-0.4-0.3-1.2l-0.1-0.1c-0.1,0-0.2,0.3-0.2,1c0,0.6,0.2,0.8,0.7,0.8c0.2,0.2,0.3,0.3,0.4,0.3
			c0.1-0.2,0.2-0.4,0.2-0.6c-0.1-0.3-0.1-0.5-0.1-0.7v-0.7c0-0.1,0-0.2-0.1-0.5H49.6z M48.7,37.7c0.1,0.1,0.1,0.2,0.2,0.2h0.1
			c0.1,0,0.1-0.1,0.2-0.3C49,37.4,49,37.3,49,37.3h-0.1C48.8,37.3,48.7,37.4,48.7,37.7z M48.7,38.8V39l0.1,0.3h0.1
			c0.1,0,0.1-0.1,0.2-0.2V39L49,38.7h-0.2C48.7,38.7,48.7,38.8,48.7,38.8z M48.8,30.7v0.3h0.2l-0.1-0.3H48.8z M49.3,27.3L49.3,27.3
			c0,0.3,0,0.5-0.1,0.7c0.1,0.7,0.2,1,0.3,1h0.1c0.1-0.7,0.2-1.1,0.2-1.2c0-0.4-0.1-0.6-0.2-0.6C49.4,27.2,49.3,27.2,49.3,27.3z
			 M49.5,29.8L49.4,30c0,0.3,0.1,0.4,0.2,0.4l0.1-0.1V30C49.6,29.9,49.6,29.8,49.5,29.8z M50.2,45.4L50,45.6v0.1
			c0,0.1,0.1,0.1,0.2,0.2h0.1c0.1,0,0.1-0.1,0.2-0.2v-0.3L50.2,45.4z M50.1,47.1c0,0.1,0,0.1,0.1,0.1c0.1,0,0.1,0,0.1-0.1
			c0-0.1,0-0.1-0.1-0.1C50.1,47,50.1,47.1,50.1,47.1z M51,33.2c0.1,0.1,0.1,0.2,0.2,0.2h0.1c0,0,0.2-0.2,0.4-0.5v-0.3h-0.1
			C51.2,32.7,51,32.9,51,33.2z M51.5,28c0.1,0.1,0.1,0.2,0.2,0.2c0.1,0,0.1-0.1,0.2-0.3c0-0.2-0.1-0.3-0.2-0.3
			C51.6,27.6,51.6,27.7,51.5,28z M51.9,23v0.3l0.2,0.1l0.1-0.2V23c0-0.1-0.1-0.1-0.2-0.2C52,22.8,52,22.9,51.9,23z M52.1,47.5
			L52,47.6v0.2c0,0,0.1,0.1,0.2,0.2c0.1-0.1,0.2-0.1,0.2-0.2C52.4,47.6,52.3,47.5,52.1,47.5z M53,30.2c-0.2,0.3-0.4,0.7-0.4,1v0.2
			c0,0.1,0.1,0.1,0.2,0.2h0.1c0.3,0,0.4-0.2,0.4-0.7C53.2,30.4,53.1,30.2,53,30.2z M52.7,26.2c0,0.2,0.2,0.4,0.4,0.4
			c0.2-0.3,0.3-0.5,0.3-0.6v-0.1c0-0.2-0.1-0.3-0.2-0.3H53C52.9,25.6,52.8,25.8,52.7,26.2z M53,23.4v0.2c0,0.1,0,0.1,0.1,0.1h0.1
			c0.1,0,0.2-0.2,0.2-0.6v-0.2c0-0.1,0-0.2-0.1-0.3C53.1,22.6,53,22.9,53,23.4z M53,33.4L53,33.4c0,0.1,0.1,0.2,0.2,0.2
			c0.1,0,0.1,0,0.1-0.1v-0.1c0-0.1-0.1-0.1-0.2-0.2C53,33.3,53,33.4,53,33.4z M53.1,14.8c0,0.1,0.1,0.1,0.2,0.2h0.4v-0.2
			c0-0.1-0.1-0.2-0.3-0.2h-0.1C53.2,14.6,53.2,14.7,53.1,14.8z M53.3,41.5c-0.1,0.2-0.1,0.4-0.1,0.4c0,0.1,0,0.2,0.1,0.3
			c0,0.4-0.1,0.8-0.1,1.1v0.6c0,0.1,0,0.1-0.1,0.2c0,0.1,0.1,0.1,0.1,0.2v0.5l0.1,0.3h0.1c0.1,0,0.2-0.2,0.2-0.5v-0.3
			c0-0.2,0-0.4-0.1-0.7l0.1-0.1c-0.1-0.5-0.1-0.9-0.1-1.2c0-0.2,0.1-0.3,0.1-0.3C53.4,41.6,53.4,41.5,53.3,41.5z M53.3,45.3
			l-0.1,0.2l0.1,0.1h0.1v-0.2C53.4,45.3,53.4,45.3,53.3,45.3L53.3,45.3z M53.5,19.5v0.4c-0.1,0.3-0.1,0.5-0.1,0.6v0.1h0.2v-0.2
			c0.1-0.5,0.1-0.8,0.1-0.8v-0.1h-0.1C53.5,19.4,53.5,19.4,53.5,19.5z M53.5,50.2c0,0.1,0.1,0.2,0.4,0.3l0.3-0.2
			c-0.1-0.2-0.2-0.3-0.5-0.3C53.6,50,53.6,50.1,53.5,50.2z M56,47v0.2c0,0,0.1,0.1,0.2,0.2c0.1,0,0.2-0.1,0.3-0.3
			c-0.1-0.2-0.1-0.2-0.2-0.3h-0.1C56.1,46.9,56.1,46.9,56,47z M63.6,15.5l-0.1,0.1v0.1c0,0.1,0,0.1,0.1,0.1l0.1-0.1v-0.1
			C63.7,15.5,63.7,15.5,63.6,15.5z M63.7,47.1L63.7,47.1c0,0.1,0,0.2,0.1,0.2h0.1c0.1,0,0.1,0,0.1-0.1c0-0.1,0-0.1-0.1-0.1
			C63.7,47.1,63.7,47.1,63.7,47.1z M64.6,49v0.1h0.3V49H64.6z M65.3,41.9l-0.2,0.3c0.1,0.2,0.1,0.4,0.2,0.4h0.1c0.1,0,0.1,0,0.1-0.1
			v-0.1C65.6,42,65.5,41.9,65.3,41.9z M65.2,15.8L65.2,15.8c0,0.1,0.1,0.2,0.2,0.2c0.1,0,0.1-0.1,0.2-0.2v-0.1c0-0.1,0-0.1-0.1-0.1
			h-0.1C65.2,15.7,65.2,15.7,65.2,15.8z M65.3,20c0,0.2,0.1,0.3,0.2,0.3h0.1c0-0.1,0-0.1,0.1-0.2c-0.1-0.1-0.1-0.2-0.2-0.2
			C65.4,19.8,65.3,19.9,65.3,20z M65.4,28.1c0,0.2,0.1,0.3,0.2,0.3c0.1,0,0.2-0.1,0.2-0.3c0-0.3-0.1-0.4-0.2-0.4
			C65.4,27.7,65.4,27.9,65.4,28.1z M65.4,39.2v0.1c0,0.1,0.1,0.1,0.2,0.2c0.1,0,0.1-0.1,0.2-0.2v-0.2c0-0.1,0-0.1-0.1-0.1h-0.1
			C65.5,39.1,65.4,39.1,65.4,39.2z M66.6,37.9c0,0.1-0.1,0.2-0.1,0.2c0,0.1,0.1,0.2,0.1,0.5h0.1l0.1-0.3v-0.4
			C66.7,37.9,66.7,37.9,66.6,37.9z M67.3,8.9h1.3V9c-0.4,0.1-0.7,0.2-0.8,0.2h-0.1C67.4,9.2,67.3,9.1,67.3,8.9L67.3,8.9z M67.7,29.8
			l-0.1,0.1V30c0,0.1,0,0.1,0.1,0.1c0.1,0,0.1,0,0.1-0.1C67.9,29.9,67.8,29.8,67.7,29.8z M67.7,29v0.3h0.1V29H67.7z"/>
		<path class="st0" d="M89.8,10.2c0.1,0,0.3,0.1,0.4,0.1c0.1,0,0.2,0,0.3-0.1c0.4,0,0.7,0.1,0.9,0.1c1.1,0,2,0,2.9-0.1
			c0.6,0,1.4,0.1,2.3,0.1c0.7,0.3,1.1,0.5,1.1,0.5c0.1,0,0.3,0.7,0.5,2.1v0.1c-0.2,0.3-0.3,1-0.4,2.1c0,0.2,0,0.5,0.1,0.9
			c0,0.3-0.1,0.6-0.1,0.8c0.2,2.5,0.3,3.9,0.3,4.2c0.2,0.6,0.3,1.5,0.4,2.8c0.1,0.5,0.2,0.9,0.2,1.1v0.4c-0.1,0.4-0.3,0.6-0.6,0.6
			h-0.1l-1.6-0.4c-0.5,0-0.7,0.7-0.7,2c0,0-0.1,0.6-0.3,1.8c0.1,1.3,0.3,3.1,0.5,5.5v0.8c0,0.3,0,0.8,0.1,1.3
			c-0.1,0.1-0.1,0.3-0.1,0.4c0,0.1,0,0.3,0.1,0.5c0,0.2-0.1,0.5-0.1,0.7v0.1c0,0.3,0.1,0.5,0.4,0.5h0.2c0.7-0.2,1.2-0.4,1.3-0.4
			l0.6-0.1c0.6,0,1,0.1,1.1,0.1l0.8-0.1c1.3,0,2.2,0.1,2.5,0.1c0.5-0.1,1.3-0.1,2.5-0.1h0.3c2,0,3,0.2,3,0.5
			c0.1,0.1,0.3,0.6,0.4,1.3v0.1c0,0.1-0.1,0.4-0.2,0.7l0.1,0.3c0,3-0.4,6.1-1.2,9.2c-0.2,1.4-0.3,2.3-0.5,2.6c0,0.8-0.1,1.3-0.2,1.3
			c0,0.4,0.1,0.6,0.1,0.8c-0.2,0.4-0.9,0.6-2.1,0.7h-0.2c-5.1-0.3-8.6-0.6-10.6-0.8c-0.3,0-1.5-0.1-3.5-0.4c-0.4,0-0.7,0.1-0.9,0.2
			c-1,0-1.7-0.1-2.2-0.2C87,55,86.7,55,86.5,55c-0.1,0-0.3,0-0.8-0.1L85.4,55L85.1,55l-4,0.3H81c-0.6,0-1-0.9-1.1-2.6
			c-0.2-1.1-0.5-3.1-0.8-5.9L78.6,44c0-0.1,0-0.3,0.1-0.6c-0.2-0.5-0.3-0.9-0.3-1c0.1-0.3,0.3-0.4,0.6-0.4c0.5,0.1,0.9,0.2,1.1,0.2
			c0.3,0,0.5-0.7,0.6-2c0.3-1,0.4-1.6,0.4-1.8v-0.1c0-1,0-1.7,0.1-2l-0.1-0.1c0-0.2,0-0.5,0.1-0.9c0-1.7-0.1-3.4-0.4-5
			c0-0.4,0.1-0.7,0.1-0.7c-0.1-0.8-0.2-1.6-0.2-2.4c0.1-0.1,0.1-0.3,0.1-0.4v-0.1c-0.1-0.4-0.6-0.8-1.5-1.2h-0.4
			c-0.4-0.5-0.6-0.8-0.8-0.9L78,24v-0.4c0.2-2.9,0.5-4.7,0.7-5.5c0.3-1.3,0.5-2.1,0.5-2.6c-0.1-1-0.2-1.5-0.2-1.6v-0.6
			c0-1.2,0.2-2.1,0.6-2.9c0.2-0.1,0.3-0.2,0.3-0.2c0.6,0,1.1,0.1,1.4,0.1h1c0.2,0,0.4,0,0.7,0.1c0.1,0,0.3-0.1,0.6-0.1h0.3
			c0.2,0,0.3,0,0.5,0.1C86.2,10.3,88,10.2,89.8,10.2z M81.1,19.4c0,0.5,0.1,0.8,0.1,0.8C81,21,81,21.6,80.9,22.1
			c0,0.3,0.1,0.5,0.1,0.6c-0.1,0.4-0.1,0.6-0.1,0.8c0,0.1,0.1,0.2,0.2,0.3h0.9c0.3-0.2,0.6-0.4,0.9-0.4c0.3,0,0.5,0.8,0.6,2.3
			l0.1,1.5l-0.2,4.3c0,0.8,0.1,1.3,0.1,1.3c0,0.2,0,0.6-0.1,1l0.1,3.2c-0.1,0.9-0.1,1.8-0.1,2.8c0.1,0.5,0.1,0.8,0.1,1v0.2
			c0,0.9,0,1.5-0.1,2c0.1,0.4,0.1,0.6,0.1,0.8L83.2,44h-0.5c-0.1,0-0.4,0.1-0.8,0.3c-0.5,0-0.7,0.1-0.7,0.3c0.5,3,0.8,5.2,0.8,6.5
			l-0.1,0.3c0,0.3,0.1,0.6,0.1,0.8v0.5c0,0.3,0.2,0.5,0.5,0.5c2.3-0.2,3.5-0.3,3.6-0.3c3.3,0.2,5.5,0.4,6.5,0.5
			c0.2,0,0.3-0.1,0.4-0.1c0.5,0.1,2.4,0.2,5.7,0.4c0,0,0.1,0.1,0.2,0.1l0.5-0.1c0.3,0,0.4,0.1,0.5,0.1c0-0.1,1.7-0.2,5.2-0.2
			c0.3,0,0.5-0.2,0.5-0.5c-0.1-0.4-0.1-0.6-0.1-0.6c0-0.7,0.3-4.4,0.9-11.2c0-0.3-0.6-0.5-1.7-0.5c-2.5,0-4.7-0.1-6.7-0.3
			c-0.5,0-0.8,1.1-1,3.2c-0.2,0.1-0.3,0.2-0.4,0.2l-0.6-0.1c-0.7,0-1.1,0.1-1.3,0.1c-0.9-0.1-1.4-0.4-1.4-0.7V43
			c0-0.6,0-0.9-0.1-0.9c0,0,0-0.1,0.1-0.2c0-0.6-0.1-0.9-0.1-1c0-0.5,0.1-1.4,0.2-2.8c0-0.2-0.1-0.3-0.1-0.5c0-0.4,0.1-0.7,0.1-0.7
			c-0.1-0.8-0.1-1.9-0.1-3.5V28c-0.1-2.1-0.3-3.1-0.5-3.1c0-0.5-0.1-1-0.2-1.6c0.1-0.4,0.3-0.6,0.6-0.6c0.1,0,0.2,0.1,0.5,0.2
			l0.5-0.1l0.6,0.1c0.3,0,0.4-0.2,0.5-0.5c-0.1-0.7-0.3-3.4-0.5-8.2v-1c-0.1-0.6-0.3-0.8-0.7-0.8h-0.1c-0.1,0-0.3,0-0.8,0.1h-0.8
			c-0.8-0.1-1.2-0.1-1.2-0.1H91c-1,0.2-1.6,0.3-1.7,0.3c-1.8-0.1-3.5-0.2-5.1-0.3h-0.3l-1.2,0.3c-0.7,0-1,0.1-1,0.3
			C81.5,16,81.2,18.2,81.1,19.4z M93.1,14.2c0.1,0,0.3,0.1,0.4,0.3c-0.1,0.4-0.1,0.7-0.1,0.8v0.3c0,0.6,0,1.3-0.1,2
			c0,0.6,0.2,1.7,0.4,3.2c0,0.3-0.2,0.5-0.5,0.6c-0.5-0.2-0.8-0.3-0.9-0.3c-0.4,0-0.6,0.2-0.6,0.6v0.5c0.2,2.8,0.3,4.4,0.3,4.6
			c0,1.5-0.1,2.8-0.3,3.7l0.1,0.3v0.1c0,0.2,0,0.3-0.1,0.5c0.1,0.4,0.2,0.9,0.2,1.6c0,0.3-0.1,1.4-0.3,3.3c0,0.1,0,0.6,0.1,1.5
			c0,0.3,0,0.7-0.1,1.2c0.1,1.8,0.2,2.9,0.2,3.4v0.4c0,0.5,0,1.1-0.1,1.8c0,0.5,0.3,0.7,0.8,0.7c0.9,0.1,1.7,0.2,2.3,0.2
			c2.9-0.2,4.4-0.4,4.4-0.5l0.1-0.2v-0.1l-0.3-2v-0.1c0-0.3,0.2-0.5,0.6-0.7c0.5,0.2,1.8,0.3,3.8,0.3h0.7c0.4,0.1,0.6,0.3,0.6,0.6
			v0.6c-0.3,1.3-0.5,2.7-0.6,4.3c-0.2,1-0.3,1.7-0.3,2.1c0,0.1,0,0.3,0.1,0.8c-0.1,0.4-0.4,0.6-0.8,0.6c-0.3,0-0.5,0.1-0.6,0.1
			c-0.8,0-1.7-0.1-2.7-0.3c-0.1,0-0.4,0-0.7,0.1l-0.7-0.1c-0.2,0-0.4,0.1-0.6,0.1c-0.5,0-0.8-0.1-1.1-0.2l-0.3,0.1
			c-0.5,0-1-0.1-1.3-0.1c0,0-0.1,0-0.1-0.1l-0.3,0.1h-0.2c-0.5,0-1.2,0-2.1,0.1l-0.3-0.1l-0.2,0.1c-0.7-0.1-1.4-0.1-2-0.1
			c-0.3,0-0.9,0-1.9,0.1c0,0-0.1,0-0.3-0.1c-1.3,0-2.5,0.2-3.6,0.5c-0.3,0-0.5-0.3-0.6-0.9c0-0.2-0.3-1.6-0.9-4.4
			c0-0.1-0.1-0.3-0.1-0.4c0-0.3,0.4-0.4,1.2-0.5l0.3,0.1c0.2-0.1,0.4-0.2,0.4-0.3c0-0.1,0-1,0.1-2.8v-0.5c0-0.5,0.1-0.9,0.2-1.1
			l-0.1-1.9c0-0.9,0.1-1.7,0.2-2.2v-2.8c0.3-4.5,0.5-7.4,0.5-8.7c0-1.1-0.1-1.7-0.4-1.7C85,23.4,85,23.3,85,23.2
			c0-1,0.1-1.6,0.1-1.9l-0.2-0.1h-0.1c-0.4,0.2-0.6,0.3-0.7,0.3c-1.1-0.1-1.6-0.2-1.6-0.4v-0.1c0.6-2.2,0.9-3.9,0.9-4.9
			c0.2-1,0.5-1.5,1-1.5l1.8-0.2c1.1,0.1,1.8,0.2,2.1,0.2h0.6C90.2,14.5,91.6,14.4,93.1,14.2z M84.7,48.4v0.3c0,0.1,0.1,0.1,0.2,0.2
			c0.1,0,0.1-0.1,0.2-0.2v-0.2c0-0.1-0.1-0.1-0.2-0.2C84.8,48.4,84.7,48.4,84.7,48.4z M85,50L85,50c0,0.1,0,0.2,0.1,0.2l0.1-0.1
			L85,50L85,50z M85.1,18.9l-0.1,0.4v0.2c0,0.1,0,0.1,0.1,0.1c0.1-0.1,0.2-0.3,0.2-0.4v-0.2c0-0.1,0-0.1-0.1-0.1H85.1z M85.3,46.4
			L85.3,46.4c0,0.1,0,0.2,0.1,0.2h0.1c0.1,0,0.1,0,0.1-0.1c0-0.1,0-0.1-0.1-0.1C85.4,46.3,85.4,46.4,85.3,46.4z M85.8,45
			c0,0.1,0,0.1-0.1,0.2c0,0.2,0.1,0.3,0.2,0.3h0.1v-0.2C86.1,45.1,86,45,85.8,45L85.8,45z M87.5,23v0.5c0,0.1,0,0.1,0.1,0.1h0.1
			c0.1,0,0.2-0.2,0.2-0.6v-0.1l-0.1-0.4h-0.1C87.6,22.6,87.5,22.7,87.5,23z M87.6,47v0.3c0,0.3,0.2,0.4,0.6,0.5c0.1,0,0.1,0,0.1-0.1
			c-0.4-0.4-0.6-0.6-0.6-0.7H87.6z M87.9,33v0.2c0,0.1,0,0.1,0.1,0.1c0.1,0,0.1-0.1,0.2-0.2v-0.1c0-0.1,0-0.1-0.1-0.1H87.9z
			 M88.9,44.2L88.9,44.2c0,0.1,0,0.2,0.1,0.2h0.1c0-0.1,0-0.1,0.1-0.1c0-0.1-0.1-0.1-0.1-0.2H89C88.9,44.1,88.9,44.1,88.9,44.2z
			 M89.2,34.1v0.4c0,0.1,0,0.1,0.1,0.1c0.1-0.1,0.1-0.2,0.1-0.3v-0.2c0-0.1,0-0.1-0.1-0.1C89.2,34,89.2,34,89.2,34.1z M89.5,25.9
			c0,0.1,0,0.1-0.1,0.2c0,0.6,0.1,0.9,0.3,0.9l0.1-0.2c0-0.1-0.1-0.4-0.2-0.9H89.5z M91.9,49.3L91.9,49.3c0,0.1,0,0.2,0.1,0.2
			l0.1-0.1v-0.1H91.9z M92,47.1v0.2c0,0.1,0.1,0.1,0.3,0.2c0.1-0.1,0.2-0.1,0.2-0.2v-0.1c0-0.1-0.1-0.2-0.3-0.2h-0.1
			C92,47,92,47.1,92,47.1z M97,47.2c0,0.1,0,0.1,0.1,0.1h0.3c0.1,0,0.1-0.1,0.2-0.2l-0.3-0.1C97.1,47.1,97,47.2,97,47.2z M97.4,49.1
			l-0.1,0.1c0,0.3,0.2,0.4,0.4,0.4c0.2-0.1,0.3-0.1,0.3-0.2C98,49.2,97.7,49.1,97.4,49.1z M100,43.8v0.1l0.1,0.3h0.1
			c0.1,0,0.1-0.1,0.1-0.2c-0.1-0.1-0.1-0.2-0.2-0.2H100z M102.2,49.8c0,0.1,0.1,0.2,0.4,0.3c0.2,0,0.3-0.1,0.3-0.2v-0.1
			c0-0.2-0.1-0.4-0.4-0.4C102.3,49.5,102.2,49.6,102.2,49.8z M102.5,45.5l0.2,0.1h0.1c0.1,0,0.1-0.1,0.2-0.2v-0.1
			c0-0.1-0.1-0.1-0.2-0.2C102.5,45.2,102.5,45.3,102.5,45.5z M102.9,48v0.1c0,0.1,0,0.1,0.1,0.1h0.1c0.1,0,0.1,0,0.1-0.1V48
			c0-0.1,0-0.1-0.1-0.1H103C103,47.9,102.9,47.9,102.9,48z M103.2,45.8V46h0.1c0.1,0,0.1,0,0.1-0.1v-0.2
			C103.3,45.8,103.3,45.8,103.2,45.8z"/>
		<path class="st0" d="M120.9,10.2c0.1,0,0.3,0.1,0.4,0.1c0.1,0,0.2,0,0.3-0.1c0.4,0,0.7,0.1,0.9,0.1c1.1,0,2,0,2.9-0.1
			c0.6,0,1.4,0.1,2.3,0.1c0.7,0.3,1.1,0.5,1.1,0.5c0.1,0,0.3,0.7,0.5,2.1v0.1c-0.2,0.3-0.3,1-0.4,2.1c0,0.2,0,0.5,0.1,0.9
			c0,0.3-0.1,0.6-0.1,0.8c0.2,2.5,0.3,3.9,0.3,4.2c0.2,0.6,0.3,1.5,0.4,2.8c0.1,0.5,0.2,0.9,0.2,1.1v0.4c-0.1,0.4-0.3,0.6-0.6,0.6
			H129l-1.6-0.4c-0.5,0-0.7,0.7-0.7,2c0,0-0.1,0.6-0.3,1.8c0.1,1.3,0.3,3.1,0.5,5.5v0.8c0,0.3,0,0.8,0.1,1.3
			c-0.1,0.1-0.1,0.3-0.1,0.4c0,0.1,0,0.3,0.1,0.5c0,0.2-0.1,0.5-0.1,0.7v0.1c0,0.3,0.1,0.5,0.4,0.5h0.2c0.7-0.2,1.2-0.4,1.3-0.4
			l0.6-0.1c0.6,0,1,0.1,1.1,0.1l0.8-0.1c1.3,0,2.2,0.1,2.5,0.1c0.5-0.1,1.3-0.1,2.5-0.1h0.3c2,0,3,0.2,3,0.5
			c0.1,0.1,0.3,0.6,0.4,1.3v0.1c0,0.1-0.1,0.4-0.2,0.7l0.1,0.3c0,3-0.4,6.1-1.2,9.2c-0.2,1.4-0.3,2.3-0.5,2.6c0,0.8-0.1,1.3-0.2,1.3
			c0,0.4,0.1,0.6,0.1,0.8c-0.2,0.4-0.9,0.6-2.1,0.7h-0.2c-5.1-0.3-8.6-0.6-10.6-0.8c-0.3,0-1.5-0.1-3.5-0.4c-0.4,0-0.7,0.1-0.9,0.2
			c-1,0-1.7-0.1-2.2-0.2c-0.4,0-0.7,0.1-0.9,0.1c-0.1,0-0.3,0-0.8-0.1l-0.4,0.1l-0.3-0.1l-4,0.3h-0.1c-0.6,0-1-0.9-1.1-2.6
			c-0.2-1.1-0.5-3.1-0.8-5.9l-0.5-2.8c0-0.1,0-0.3,0.1-0.6c-0.2-0.5-0.3-0.9-0.3-1c0.1-0.3,0.3-0.4,0.6-0.4c0.5,0.1,0.9,0.2,1.1,0.2
			c0.3,0,0.5-0.7,0.6-2c0.3-1,0.4-1.6,0.4-1.8v-0.1c0-1,0-1.7,0.1-2l-0.1-0.1c0-0.2,0-0.5,0.1-0.9c0-1.7-0.1-3.4-0.4-5
			c0-0.4,0.1-0.7,0.1-0.7c-0.1-0.8-0.2-1.6-0.2-2.4c0.1-0.1,0.1-0.3,0.1-0.4v-0.1c-0.1-0.4-0.6-0.8-1.5-1.2H110
			c-0.4-0.5-0.6-0.8-0.8-0.9l-0.1-0.5v-0.4c0.2-2.9,0.5-4.7,0.7-5.5c0.3-1.3,0.5-2.1,0.5-2.6c-0.1-1-0.2-1.5-0.2-1.6v-0.6
			c0-1.2,0.2-2.1,0.6-2.9c0.2-0.1,0.3-0.2,0.3-0.2c0.6,0,1.1,0.1,1.4,0.1h1c0.2,0,0.4,0,0.7,0.1c0.1,0,0.3-0.1,0.6-0.1h0.3
			c0.2,0,0.3,0,0.5,0.1C117.3,10.3,119.1,10.2,120.9,10.2z M112.2,19.4c0,0.5,0.1,0.8,0.1,0.8c-0.1,0.7-0.2,1.3-0.3,1.8
			c0,0.3,0.1,0.5,0.1,0.6c-0.1,0.4-0.1,0.6-0.1,0.8c0,0.1,0.1,0.2,0.2,0.3h0.9c0.3-0.2,0.6-0.4,0.9-0.4c0.3,0,0.5,0.8,0.6,2.3
			l0.1,1.5l-0.2,4.3c0,0.8,0.1,1.3,0.1,1.3c0,0.2,0,0.6-0.1,1l0.1,3.2c-0.1,0.9-0.1,1.8-0.1,2.8c0.1,0.5,0.1,0.8,0.1,1v0.2
			c0,0.9,0,1.5-0.1,2c0.1,0.4,0.1,0.6,0.1,0.8l-0.2,0.2h-0.5c-0.1,0-0.4,0.1-0.8,0.3c-0.5,0-0.7,0.1-0.7,0.3c0.5,3,0.8,5.2,0.8,6.5
			l-0.1,0.3c0,0.3,0.1,0.6,0.1,0.8v0.5c0,0.3,0.2,0.5,0.5,0.5c2.3-0.2,3.5-0.3,3.6-0.3c3.3,0.2,5.5,0.4,6.5,0.5
			c0.2,0,0.3-0.1,0.4-0.1c0.5,0.1,2.4,0.2,5.7,0.4c0,0,0.1,0.1,0.2,0.1l0.5-0.1c0.3,0,0.4,0.1,0.5,0.1c0-0.1,1.7-0.2,5.2-0.2
			c0.3,0,0.5-0.2,0.5-0.5c-0.1-0.4-0.1-0.6-0.1-0.6c0-0.7,0.3-4.4,0.9-11.2c0-0.3-0.6-0.5-1.7-0.5c-2.5,0-4.7-0.1-6.7-0.3
			c-0.5,0-0.8,1.1-1,3.2c-0.2,0.1-0.3,0.2-0.4,0.2l-0.6-0.1c-0.7,0-1.1,0.1-1.3,0.1c-0.9-0.1-1.4-0.4-1.4-0.7V43
			c0-0.6,0-0.9-0.1-0.9c0,0,0-0.1,0.1-0.2c0-0.6-0.1-0.9-0.1-1c0-0.5,0.1-1.4,0.2-2.8c0-0.2-0.1-0.3-0.1-0.5c0-0.4,0.1-0.7,0.1-0.7
			c-0.1-0.8-0.1-1.9-0.1-3.5V28c-0.1-2.1-0.3-3.1-0.5-3.1c0-0.5-0.1-1-0.2-1.6c0.1-0.4,0.3-0.6,0.6-0.6c0.1,0,0.2,0.1,0.5,0.2
			l0.5-0.1l0.6,0.1c0.3,0,0.4-0.2,0.5-0.5c-0.1-0.7-0.3-3.4-0.5-8.2v-1c-0.1-0.6-0.3-0.8-0.7-0.8h-0.1c-0.1,0-0.3,0-0.8,0.1h-0.8
			c-0.8-0.1-1.2-0.1-1.2-0.1h-0.4c-1,0.2-1.6,0.3-1.7,0.3c-1.8-0.1-3.5-0.2-5.1-0.3H115l-1.2,0.3c-0.7,0-1,0.1-1,0.3
			C112.6,16,112.4,18.2,112.2,19.4z M124.2,14.2c0.1,0,0.3,0.1,0.4,0.3c-0.1,0.4-0.1,0.7-0.1,0.8v0.3c0,0.6,0,1.3-0.1,2
			c0,0.6,0.2,1.7,0.4,3.2c0,0.3-0.2,0.5-0.5,0.6c-0.5-0.2-0.8-0.3-0.9-0.3c-0.4,0-0.6,0.2-0.6,0.6v0.5c0.2,2.8,0.3,4.4,0.3,4.6
			c0,1.5-0.1,2.8-0.3,3.7l0.1,0.3v0.1c0,0.2,0,0.3-0.1,0.5c0.1,0.4,0.2,0.9,0.2,1.6c0,0.3-0.1,1.4-0.3,3.3c0,0.1,0,0.6,0.1,1.5
			c0,0.3,0,0.7-0.1,1.2c0.1,1.8,0.2,2.9,0.2,3.4v0.4c0,0.5,0,1.1-0.1,1.8c0,0.5,0.3,0.7,0.8,0.7c0.9,0.1,1.7,0.2,2.3,0.2
			c2.9-0.2,4.4-0.4,4.4-0.5l0.1-0.2v-0.1l-0.3-2v-0.1c0-0.3,0.2-0.5,0.6-0.7c0.5,0.2,1.8,0.3,3.8,0.3h0.7c0.4,0.1,0.6,0.3,0.6,0.6
			v0.6c-0.3,1.3-0.5,2.7-0.6,4.3c-0.2,1-0.3,1.7-0.3,2.1c0,0.1,0,0.3,0.1,0.8c-0.1,0.4-0.4,0.6-0.8,0.6c-0.3,0-0.5,0.1-0.6,0.1
			c-0.8,0-1.7-0.1-2.7-0.3c-0.1,0-0.4,0-0.7,0.1l-0.7-0.1c-0.2,0-0.4,0.1-0.6,0.1c-0.5,0-0.8-0.1-1.1-0.2l-0.3,0.1
			c-0.5,0-1-0.1-1.3-0.1c0,0-0.1,0-0.1-0.1l-0.3,0.1h-0.2c-0.5,0-1.2,0-2.1,0.1l-0.3-0.1l-0.2,0.1c-0.7-0.1-1.4-0.1-2-0.1
			c-0.3,0-0.9,0-1.9,0.1c0,0-0.1,0-0.3-0.1c-1.3,0-2.5,0.2-3.6,0.5c-0.3,0-0.5-0.3-0.6-0.9c0-0.2-0.3-1.6-0.9-4.4
			c0-0.1-0.1-0.3-0.1-0.4c0-0.3,0.4-0.4,1.2-0.5l0.3,0.1c0.2-0.1,0.4-0.2,0.4-0.3c0-0.1,0-1,0.1-2.8v-0.5c0-0.5,0.1-0.9,0.2-1.1
			l-0.1-1.9c0-0.9,0.1-1.7,0.2-2.2v-2.8c0.3-4.5,0.5-7.4,0.5-8.7c0-1.1-0.1-1.7-0.4-1.7c-0.1-0.1-0.1-0.2-0.1-0.3
			c0-1,0.1-1.6,0.1-1.9l-0.2-0.1h-0.1c-0.4,0.2-0.6,0.3-0.7,0.3c-1.1-0.1-1.6-0.2-1.6-0.4v-0.1c0.6-2.2,0.9-3.9,0.9-4.9
			c0.2-1,0.5-1.5,1-1.5l1.8-0.2c1.1,0.1,1.8,0.2,2.1,0.2h0.6C121.3,14.5,122.7,14.4,124.2,14.2z M115.8,48.4v0.3
			c0,0.1,0.1,0.1,0.2,0.2c0.1,0,0.1-0.1,0.2-0.2v-0.2c0-0.1-0.1-0.1-0.2-0.2C115.9,48.4,115.9,48.4,115.8,48.4z M116.1,50L116.1,50
			c0,0.1,0,0.2,0.1,0.2l0.1-0.1L116.1,50L116.1,50z M116.2,18.9l-0.1,0.4v0.2c0,0.1,0,0.1,0.1,0.1c0.1-0.1,0.2-0.3,0.2-0.4v-0.2
			c0-0.1,0-0.1-0.1-0.1H116.2z M116.4,46.4L116.4,46.4c0,0.1,0,0.2,0.1,0.2h0.1c0.1,0,0.1,0,0.1-0.1c0-0.1,0-0.1-0.1-0.1
			C116.5,46.3,116.5,46.4,116.4,46.4z M117,45c0,0.1,0,0.1-0.1,0.2c0,0.2,0.1,0.3,0.2,0.3h0.1v-0.2C117.2,45.1,117.1,45,117,45
			L117,45z M118.6,23v0.5c0,0.1,0,0.1,0.1,0.1h0.1c0.1,0,0.2-0.2,0.2-0.6v-0.1l-0.1-0.4h-0.1C118.7,22.6,118.6,22.7,118.6,23z
			 M118.7,47v0.3c0,0.3,0.2,0.4,0.6,0.5c0.1,0,0.1,0,0.1-0.1c-0.4-0.4-0.6-0.6-0.6-0.7H118.7z M119,33v0.2c0,0.1,0,0.1,0.1,0.1
			c0.1,0,0.1-0.1,0.2-0.2v-0.1c0-0.1,0-0.1-0.1-0.1H119z M120,44.2L120,44.2c0,0.1,0,0.2,0.1,0.2h0.1c0-0.1,0-0.1,0.1-0.1
			c0-0.1-0.1-0.1-0.1-0.2h-0.1C120,44.1,120,44.1,120,44.2z M120.3,34.1v0.4c0,0.1,0,0.1,0.1,0.1c0.1-0.1,0.1-0.2,0.1-0.3v-0.2
			c0-0.1,0-0.1-0.1-0.1C120.3,34,120.3,34,120.3,34.1z M120.6,25.9c0,0.1,0,0.1-0.1,0.2c0,0.6,0.1,0.9,0.3,0.9l0.1-0.2
			c0-0.1-0.1-0.4-0.2-0.9H120.6z M123,49.3L123,49.3c0,0.1,0,0.2,0.1,0.2l0.1-0.1v-0.1H123z M123.1,47.1v0.2c0,0.1,0.1,0.1,0.3,0.2
			c0.1-0.1,0.2-0.1,0.2-0.2v-0.1c0-0.1-0.1-0.2-0.3-0.2h-0.1C123.1,47,123.1,47.1,123.1,47.1z M128.1,47.2c0,0.1,0,0.1,0.1,0.1h0.3
			c0.1,0,0.1-0.1,0.2-0.2l-0.3-0.1C128.2,47.1,128.1,47.2,128.1,47.2z M128.5,49.1l-0.1,0.1c0,0.3,0.2,0.4,0.4,0.4
			c0.2-0.1,0.3-0.1,0.3-0.2C129.1,49.2,128.9,49.1,128.5,49.1z M131.1,43.8v0.1l0.1,0.3h0.1c0.1,0,0.1-0.1,0.1-0.2
			c-0.1-0.1-0.1-0.2-0.2-0.2H131.1z M133.4,49.8c0,0.1,0.1,0.2,0.4,0.3c0.2,0,0.3-0.1,0.3-0.2v-0.1c0-0.2-0.1-0.4-0.4-0.4
			C133.4,49.5,133.4,49.6,133.4,49.8z M133.6,45.5l0.2,0.1h0.1c0.1,0,0.1-0.1,0.2-0.2v-0.1c0-0.1-0.1-0.1-0.2-0.2
			C133.6,45.2,133.6,45.3,133.6,45.5z M134,48v0.1c0,0.1,0,0.1,0.1,0.1h0.1c0.1,0,0.1,0,0.1-0.1V48c0-0.1,0-0.1-0.1-0.1h-0.1
			C134.1,47.9,134,47.9,134,48z M134.3,45.8V46h0.1c0.1,0,0.1,0,0.1-0.1v-0.2C134.4,45.8,134.4,45.8,134.3,45.8z"/>
		<path class="st0" d="M150,8.7h0.7c1.6,0,2.7,0.2,3.5,0.7c0.6,0.7,0.9,1,1.1,1c0.3,0,0.5-0.3,0.8-0.9c0.4-0.1,0.9-0.3,1.2-0.5
			c0.4-0.1,0.7-0.1,0.8-0.1c0.7,0.1,1.1,0.1,1.4,0.1h0.4c0.6,0,1,0,1.2-0.1c3.3,0.1,5.4,0.2,6.4,0.2h2.2c0.3,0,0.8,0,1.3,0.1
			c0.1,0,0.1-0.1,0.3-0.1c0.2,0,0.4,0.1,0.6,0.1c0.1,0,0.3,0,0.5-0.1c2,0.1,3.1,0.3,3.1,0.7c0.1,0.2,0.1,0.4,0.1,0.5
			c-0.1,0.2-0.1,0.4-0.1,0.5V11c0.2,0.3,0.3,1.1,0.4,2.4c1.2,4.6,1.8,7.2,1.9,7.7c0,0.4,0.1,0.9,0.4,1.4c0,0,0.1,0.3,0.2,0.7
			c-0.2,0.3-0.3,0.6-0.3,1c0,0.2-0.2,0.5-0.6,0.8h-0.4c-0.3,0-0.9-0.1-1.8-0.2c-0.8,0.3-1.4,0.5-1.9,0.5h-0.6c-0.5,0-1.6,1-3.2,2.9
			c-1.3,1.7-2.5,3.3-3.6,4.8c-1.1,1.5-2,2.6-2.8,3.4c-0.3,0.4-0.5,1.5-0.5,3.2c0,0.2,0.1,0.4,0.3,0.5c0.1,0,0.6-0.1,1.4-0.2h0.4
			c0.2,0,0.5,0.2,1,0.5c0.1,0,0.3-0.1,0.7-0.2c0.4,0.1,0.7,0.3,0.7,0.6l-0.2,0.8c0,0.2,0.1,0.4,0.1,0.6c-0.7,2.6-1,4.3-1,5.1
			c-0.6,2.4-0.9,3.8-0.9,4.3c0,0.2,0.1,0.4,0.1,0.7v0.1c0,0.2-0.1,0.9-0.2,2.1c0.1,0.3,0.1,0.6,0.1,0.8v0.3c0,0.4-0.4,0.7-1.2,0.7
			h-0.1c-1.2,0-2.8,0-4.9-0.1c-0.2,0-0.3,0.1-0.4,0.1l-0.7-0.1c-1.1,0-1.8,0.1-2.2,0.1c-0.2,0-0.7,0-1.5-0.1c0,0-0.2,0-0.5,0.1
			c-3.4-0.2-5.5-0.4-6.1-0.4c-0.1,0-0.4-0.1-1-0.1c-0.7-0.3-1-0.7-1-1.1c0-0.6-0.1-1.3-0.3-2.1v-0.7c0-0.1,0.1-0.4,0.2-0.8
			c-0.8-3.5-1.2-6-1.2-7.5c-0.3-0.8-0.5-1.5-0.5-2.1v-0.1c0-0.5,0.5-0.7,1.6-0.7c0-0.1,0.2-0.1,0.6-0.1h0.7c0.2,0,0.5,0.1,1,0.2h0.1
			c0.1-0.1,0.2-0.2,0.2-0.3c-0.1-0.7-0.2-1.8-0.3-3.4c-0.1-0.3-0.7-1.1-2-2.5c0-0.1-0.5-0.7-1.4-1.8c-0.9-1.2-1.6-2.1-2.1-2.6
			c0-0.1-0.5-0.8-1.6-2.3c-0.8-1.5-1.4-2.2-1.8-2.2c-1-0.1-2.2-0.2-3.5-0.3c-0.8,0.3-1.2,0.4-1.2,0.4h-0.1c-0.3,0-0.6-0.4-0.7-1.1
			c-0.1,0-0.1-0.1-0.2-0.4v-0.3c0-0.3,0.4-3,1.3-8.3c0.2-2.6,0.4-4.2,0.7-4.7c0.1-0.9,0.4-1.3,0.6-1.3c0.8-0.2,3.6-0.5,8.6-0.7h2.2
			L150,8.7z M161.3,11.7c-0.1,0-0.1-0.1-0.2-0.1c-0.6,0.1-1.5,0.2-2.7,0.4c-1,0.1-1.6,0.2-1.6,0.5c0.1,0.2,0.1,0.6,0.2,1.4
			c0,2.2-0.1,4.6-0.4,7.1c0.1,0.4,0.2,0.6,0.2,0.7c0,0.1-0.3,0.7-0.9,1.8c-0.1,0.5-0.3,0.8-0.6,0.8h-0.2c-0.4,0-0.7-0.6-0.9-1.7
			c-0.3-0.3-0.5-0.6-0.5-0.7c0.1-0.7,0.2-1.2,0.2-1.6v-0.2c0-0.7,0.1-3,0.2-7v-0.5c0-0.5-0.2-0.7-0.6-0.7c-0.2-0.1-0.8-0.1-1.7-0.2
			c-1.4,0-3.7,0.2-7,0.5c-0.1,0-0.2,0-0.4-0.1l-1.5,0.1c-0.5,0-1-0.1-1.5-0.1h-2.3c-0.1,0-0.4,0-1-0.1H138c-0.3,0-0.5,0.3-0.5,1
			l-0.5,3.5c-0.7,2.1-1,3.5-1,4.4c0,0.6,0,1.1-0.1,1.7c0.1,0.2,0.1,0.3,0.3,0.3c0.3,0,0.5,0,0.7-0.1c0.4,0.1,0.6,0.2,0.7,0.2h2
			c0.2,0,0.4,0,0.7-0.1c0.3,0,0.6,0.3,0.7,1l1.5,2l4,5.5c0.2,0.2,0.8,0.9,1.8,2.1c0.7,0.6,1.1,1.2,1.1,1.7c0,0.2,0.1,0.7,0.2,1.3
			v0.1c0,0.5-0.1,1.9-0.3,4.3c0.1,0.4,0.1,0.7,0.1,0.7c-0.1,0.7-0.5,1-1,1c-1,0-1.5,0.2-1.5,0.7v0.1c0.4,3.4,0.7,6.1,0.8,8.1
			c0.1,0.3,0.2,0.6,0.4,0.9c0,0.3-0.1,0.5-0.1,0.7c0,0.2,1.7,0.4,5,0.5h0.4c0.9-0.1,1.4-0.2,1.5-0.2c0.2,0,0.3,0.1,0.3,0.1l0.3-0.1
			c0.5,0,0.9,0.1,1,0.1c0.4,0,0.7,0,1.1-0.1c2.5,0.1,4,0.2,4.4,0.2c0.1,0,0.1-0.1,0.3-0.3c0,0,0-0.2-0.1-0.5c0-2.3,0.1-4.1,0.4-5.3
			c0-0.3,0.1-1.5,0.4-3.7c0.1-0.8,0.1-1.3,0.1-1.5c-0.1-0.1-0.3-0.2-0.4-0.2h-1.6c-0.5,0-0.8-0.4-1-1.1c0-0.8-0.1-1.3-0.1-1.5
			c0-0.4,0.1-1,0.2-2c-0.1-0.2-0.1-0.3-0.1-0.4c-0.3,0-0.5,0.1-0.6,0.1l-0.2-0.2v-0.1c0-0.2,0.2-0.5,0.5-1.1c0-0.5,1-1.8,2.9-3.9
			c0.9-1,1.7-1.8,2.2-2.6c0.4-0.4,1.1-1.2,2-2.5c0.1,0,0.4-0.4,0.8-1.1c0.1,0,0.3-0.4,0.6-0.9l1-1.2c0-0.3,0.7-0.5,2.1-0.7
			c0.2-0.1,0.5-0.2,0.9-0.2h1.5c0.3,0,0.5-0.3,0.5-0.9c0-0.2-0.3-2.3-1-6.3c-0.1-1.4-0.2-2.1-0.2-2.1v-1.2c0-0.3-1.3-0.4-3.9-0.5
			l-4.6-0.1l-0.2,0.1l-0.3-0.1C164,11.6,162.9,11.6,161.3,11.7z M151.1,13.5c0.4,0,0.7,0.3,1,0.9v0.1c-0.1,1-0.2,1.5-0.2,1.6
			c0.1,2.1,0.2,3.9,0.3,5.3c0,0.1-0.1,0.4-0.1,0.8v0.3c0,0.4,0.4,1.2,1.1,2.5c0.8,1.7,1.4,2.8,1.7,3.1h0.2c0.4-0.3,1.6-1.9,3.7-4.7
			c0.2-0.5,0.3-1.5,0.4-3c0-1.5-0.1-3.2-0.2-5c0-1.1,0.2-1.7,0.5-1.7c0.5,0,3.5,0.1,9,0.4h0.1c0.5,0,1.1-0.1,1.9-0.3
			c0.8,0,1.2,0.2,1.2,0.6v1c0,1.1,0.4,2.8,1.3,5.3V21c0,0.1-0.1,0.1-0.2,0.2c0,0-0.2,0-0.7-0.1c-0.4,0.1-0.6,0.2-0.8,0.2
			c-0.4,0-0.7-0.1-0.7-0.1c0,0-0.2,0-0.4,0.1l-0.5-0.1c-0.6,0-0.9,0.2-1.1,0.7c-0.3,0.5-0.6,1.1-0.9,1.7c-0.6,0.8-1.4,1.7-2.3,2.8
			c-0.8,0.7-1.3,1.2-1.6,1.5l-3.2,4.4c-0.3,0.2-0.8,0.9-1.3,2.1c-0.5,0.3-0.7,1.5-0.7,3.6c-0.1,2.4-0.3,3.8-0.4,4.3v0.2
			c0,0.2,0,0.6-0.1,1.1c0,0.1,0.6,0.2,1.7,0.3c0.6,0.3,1.2,0.4,1.7,0.4c0.1,0.1,0.2,0.3,0.2,0.4v0.1c-0.1,1.4-0.9,3.6-2.2,6.5
			c0,0.3-0.3,0.5-1,0.8c-0.1,0-0.3,0-0.8-0.1c-0.1,0-0.1,0-0.2,0.1l-2.8-0.3l-3.4,0.5c-0.4,0-0.8-0.5-1.3-1.5
			c-0.4-3-0.8-4.8-1.2-5.3c-0.3-0.5-0.4-0.9-0.4-0.9v-0.1c0-0.2,0.5-0.3,1.4-0.3c1.2-0.3,1.9-0.5,1.9-0.8c0.1-1.6,0.2-2.6,0.2-2.9
			l-0.2-3.9c0-0.4,0.1-1.4,0.2-3c0-0.4-1.6-2.3-4.9-5.7c-1.2-1.4-2.2-2.7-3-3.9c-1.2-1.4-1.8-2.1-1.9-2.1c0,0-0.1,0-0.3-0.1
			l-0.9,0.2l-0.6-0.2c-0.3,0.1-0.6,0.1-0.8,0.1c-0.7-0.3-1-0.5-1-0.8v-0.5c0.4-1.6,0.8-3.8,1-6.3c0.2-0.2,0.3-0.3,0.5-0.3
			c0.1,0,0.3,0.1,0.5,0.2c0.2,0,0.4,0,0.6-0.1l3.5,0.1c1.4,0,3.1-0.2,5-0.6H151.1z M142.5,16.4v0.1c0,0.1,0,0.1,0.1,0.1
			c0.2,0,0.3-0.3,0.3-0.9h-0.1C142.6,15.6,142.5,15.9,142.5,16.4z M143.2,18.5c0,0.2,0.1,0.3,0.3,0.4c0.1,0,0.1-0.1,0.2-0.2V18
			c0-0.3-0.1-0.4-0.2-0.4C143.4,17.6,143.3,17.9,143.2,18.5z M144.6,20.1v0.2c0,0.1,0,0.1,0.1,0.1h0.1v-0.1
			C144.9,20.2,144.8,20.2,144.6,20.1L144.6,20.1z M145.1,23.4L145.1,23.4c0,0.1,0,0.2,0.1,0.2h0.1v-0.1c0-0.1,0-0.1-0.1-0.1H145.1z
			 M149.5,24.3v0.5c0,0.2,0.1,0.3,0.2,0.4c0.1,0,0.1-0.1,0.2-0.1v-0.2c-0.1-0.4-0.1-0.6-0.3-0.6H149.5z M150.2,17.5v0.2l0.1,0.3h0.1
			c0.1,0,0.1-0.1,0.2-0.3c0-0.2-0.1-0.3-0.2-0.3h-0.1C150.2,17.5,150.2,17.5,150.2,17.5z M150.6,47l0.2,0.1c0.1,0,0.1,0,0.1-0.1
			s0-0.1-0.1-0.1h-0.1C150.7,46.9,150.6,46.9,150.6,47z M151,24.1c-0.1,0.1-0.1,0.2-0.1,0.3c0,0.1,0.1,0.1,0.2,0.2l0.1-0.1v-0.3
			C151.1,24.1,151.1,24.1,151,24.1z M151.1,29c0,0.1,0,0.1,0.1,0.1l0.1-0.1v-0.1h-0.1C151.2,28.9,151.1,29,151.1,29z M151.7,48.3
			v0.1c0,0.1,0,0.1,0.1,0.1c0.1,0,0.1-0.1,0.2-0.1v-0.2c-0.1,0-0.1,0-0.1-0.1C151.7,48.3,151.7,48.3,151.7,48.3z M151.9,47.1
			L151.9,47.1l0.1,0.1v-0.1H151.9z M152.5,26.4v0.1c0.8,1.8,1.2,2.7,1.3,2.8l0.1-0.1C153.4,27.5,152.9,26.6,152.5,26.4z M153.5,35.9
			v0.2c0,0.1,0.1,0.1,0.2,0.2h0.1c0.1,0,0.1,0,0.1-0.1V36c0-0.1-0.1-0.1-0.2-0.2C153.5,35.8,153.5,35.9,153.5,35.9z M154.4,44.3v0.2
			h0.1v-0.2H154.4z M154.5,40.7v0.2h0.1v-0.2H154.5z M154.6,34.7l-0.1,0.3l0.1,0.2c0.1,0,0.1-0.1,0.2-0.1v-0.3c0-0.1,0-0.1-0.1-0.1
			H154.6z M155.2,43.6v0.1c0,0.1,0,0.1,0.1,0.1c0.1,0,0.2-0.3,0.4-0.9v-0.2c0-0.1,0-0.1-0.1-0.1h-0.1
			C155.3,42.6,155.2,42.9,155.2,43.6z M155.3,39.1c0,0.1,0.1,0.1,0.1,0.2h0.1c0.1,0,0.1,0,0.1-0.1v-0.5h-0.1
			C155.4,38.7,155.4,38.8,155.3,39.1z M155.4,48.3L155.4,48.3c0,0.1,0.1,0.2,0.4,0.2c0.1-0.1,0.2-0.1,0.2-0.2v-0.1
			c0-0.1-0.1-0.1-0.3-0.2C155.5,48.2,155.4,48.3,155.4,48.3z M156.5,43.1l-0.1,0.1v0.4h0.2v-0.4C156.6,43.1,156.6,43.1,156.5,43.1z
			 M157.1,31.1L157.1,31.1L157.1,31.1c0.1,0.1,0.2,0,0.2-0.1V31h-0.1C157.1,31,157.1,31,157.1,31.1z M157.1,32.9
			c0,0.1,0,0.1,0.1,0.1h0.1c0.1,0,0.1-0.1,0.2-0.2v-0.2c-0.1,0-0.1,0-0.1-0.1C157.2,32.6,157.1,32.7,157.1,32.9z M158.2,44.7v0.1
			c0,0.1,0,0.1,0.1,0.1h0.2c0.1,0,0.1,0,0.1-0.1c0-0.1,0-0.1-0.1-0.1H158.2z M158.2,49.7v0.1h0.1c0.1,0,0.1,0,0.1-0.1v-0.1h-0.1
			C158.2,49.6,158.2,49.6,158.2,49.7z M158.4,28.4L158.4,28.4c0,0.1,0,0.2,0.1,0.2h0.1c0,0,0.1-0.1,0.2-0.2c0-0.1-0.1-0.1-0.1-0.2
			h-0.1C158.5,28.3,158.4,28.3,158.4,28.4z M158.6,31.1v0.2c0,0.1,0,0.1,0.1,0.1c0.2-0.1,0.3-0.2,0.3-0.5c-0.1,0-0.1-0.1-0.2-0.1
			C158.7,30.9,158.6,31,158.6,31.1z M159.5,27.1v0.2c0,0.1,0,0.1,0.1,0.1h0.1c0.1-0.1,0.2-0.2,0.3-0.3c0-0.1-0.1-0.2-0.2-0.2
			C159.6,27,159.5,27,159.5,27.1z M161.7,21.2c0.1,0.1,0.1,0.2,0.2,0.2h0.1c0.1,0,0.2-0.2,0.3-0.5c-0.1-0.1-0.2-0.2-0.3-0.2
			C161.8,20.8,161.8,20.9,161.7,21.2z M161.9,19.3v0.4c0,0.1,0.1,0.1,0.2,0.2h0.1c0.2-0.1,0.3-0.3,0.3-0.5c-0.1-0.2-0.1-0.3-0.2-0.3
			h-0.2C162,19.1,162,19.1,161.9,19.3z M162.2,18L162.2,18c0,0.1,0.1,0.2,0.2,0.2l0.1-0.2V18c0-0.1,0-0.1-0.1-0.1h-0.1
			C162.2,17.9,162.2,18,162.2,18z M164.2,20.6l-0.1,0.3c0,0.1,0,0.1,0.1,0.1c0.1,0,0.1,0,0.1-0.1v-0.2
			C164.4,20.6,164.3,20.6,164.2,20.6L164.2,20.6z M165.4,15.9V16c0,0.1,0.1,0.2,0.2,0.2c0.1,0,0.2-0.1,0.2-0.3c0-0.1,0-0.1-0.1-0.1
			h-0.2C165.5,15.7,165.5,15.8,165.4,15.9z M166.4,18.9v0.3c0,0,0.1,0,0.2,0.1c0.2,0,0.3-0.2,0.4-0.6l-0.2-0.1
			C166.5,18.5,166.4,18.6,166.4,18.9z M166.7,17.5c0,0.1,0.1,0.1,0.1,0.2h0.3c0.1,0,0.1-0.1,0.2-0.2v-0.2l-0.2-0.1
			C166.8,17.4,166.7,17.4,166.7,17.5z M166.9,15.8c0,0.1,0.1,0.1,0.3,0.2c0.3-0.1,0.5-0.2,0.5-0.3v-0.2c0-0.1-0.1-0.1-0.3-0.2
			C167.1,15.4,166.9,15.6,166.9,15.8z M169.7,20.3c0.1,0.1,0.1,0.2,0.2,0.2h0.2c0.1,0,0.1,0,0.1-0.1v-0.1c0-0.1-0.1-0.1-0.3-0.2
			L169.7,20.3z"/>
	</g>
	<path class="st0" d="M190.7,30.1L190.7,30.1l0,0.6c0,0,0,0.1,0.1,0.2c-0.1,0.8-0.2,1.8-0.2,3l0.1,0.4h0.1c0.1,0,0.2-0.2,0.3-0.7
		c-0.1-0.6-0.1-0.9-0.1-1c0-0.5,0-0.9,0-1.3c0,0,0-0.1-0.1-0.2l0.1-0.3l0-0.4l-0.1-0.3H190.7z"/>
	<path class="st0" d="M190.7,29.4l0.1,0.1v-0.2C190.8,29.3,190.7,29.3,190.7,29.4z"/>
	<path class="st0" d="M193.9,30.2l0,0.4c0,0.1,0.1,0.1,0.2,0.2h0.1c0.1,0,0.1-0.1,0.2-0.2l0-0.2c0-0.2-0.1-0.3-0.2-0.3H194
		C194,30.1,193.9,30.1,193.9,30.2z"/>
	<g>
		<path class="st0" d="M229.5,50.9h-0.1c-0.1,0-0.2,0.2-0.2,0.4c0,0.3,0.1,0.4,0.3,0.4c0.1-0.2,0.2-0.3,0.2-0.5
			C229.6,51,229.6,50.9,229.5,50.9z"/>
		<path class="st0" d="M229.5,50h0.1v-0.1C229.6,49.9,229.5,49.9,229.5,50z"/>
		<path class="st0" d="M232.1,51.7H232c-0.1,0-0.1,0-0.1,0.1v0.2c0,0.1,0.1,0.1,0.1,0.1h0.2l0.1-0.3l0-0.1
			C232.2,51.7,232.1,51.7,232.1,51.7z"/>
		<rect x="233.3" y="51.6" class="st0" width="0.1" height="0.1"/>
		<path class="st0" d="M219.8,6.8h-0.1c-0.1,0-0.3,0.1-0.8,0.4L218.3,7c0-0.3-1.9-0.6-5.8-0.8c-0.4,0-0.7,0.1-1,0.1
			c-0.5,0-1,0-1.5,0c-0.2,0-0.4,0.1-0.5,0.1l-1.4-0.1l-0.3,0.1l-0.3,0l-0.3,0.1c-0.3,0-0.6,0-0.9,0l-1.1,0.4l-1.9-0.2
			c-0.8,0.3-1.3,0.4-1.5,0.4c-0.6,0.5-1,0.8-1.1,0.8h-0.1l-1-0.4c-0.5-0.4-0.8-0.7-0.9-0.7c-0.5,0-1.2,0-2.1-0.1l-0.6,0.1
			c-5-0.3-7.9-0.5-8.8-0.4l-4.8,0.1c-0.2,0-0.4,0.1-0.6,0.2l-0.4,1.3c0.1,1.5,0.2,2.4,0.2,2.5c0,0.3-0.1,1.1-0.1,2.2l0.1,0.4
			c-0.1,1.4-0.1,2.2-0.1,2.5l0,1.1l-0.5,5c0,0.4,0.3,0.8,0.8,1.1c1,0,1.6,0.3,1.7,0.7c0,0.7,0.2,1.5,0.5,2.1l0,1.8
			c0,0.2-0.1,0.6-0.2,1.1v0.1c0,0.2,0,0.4,0.1,0.6l-0.1,0.3c0,0.4,0.1,0.6,0.1,0.7c0,0.1,0,0.3-0.1,0.7c0.1,1.9,0.1,3,0.2,3.3
			c0,0.1-0.1,0.2-0.1,0.3c0,0.1,0,0.2,0.1,0.4c0,0.3,0,0.6,0,0.9l0,0.2c0,0.1,0,0.5,0.1,1c0,0.2,0,0.5-0.1,1c0,0,0,0.1,0.1,0.2
			l-0.1,0.3l0,0.7c0,0.1,0,0.6,0.1,1.5l0,0.7c0,0.3-0.3,0.4-1.1,0.5l-0.7,0c-0.8,0-1.3,0.6-1.2,1.8l0,0.6c0.2,2.3,0.3,4.6,0.4,7
			c0,1,0,2.1,0,3.2c0,0.3,0,0.7,0.1,1.3c0,0.1-0.1,0.2-0.1,0.4c0,1,0.4,1.6,1.3,1.8c0.2,0.2,0.9,0.3,1.9,0.3c0.3-0.2,0.7-0.4,1-0.5
			l6.2-0.5l3.7-0.1c0.1,0,0.8-0.1,1.9-0.2c0,0,0.6,0,1.8,0.1h0.2c0.2,0,0.4-0.1,0.5-0.2c0.3-0.4,0.5-0.6,0.7-0.6h0.1
			c0.1,0,0.4,0.3,0.8,1c0.3,0.1,0.9,0.2,1.8,0.4c0.4,0,1.2,0,2.6,0c1.6-0.1,2.7-0.2,3.2-0.3l2.5,0.2l2.7-0.2
			c1.1,0.1,1.8,0.1,2.1,0.1c1.3-0.1,2.3-0.1,2.9-0.1c0.3,0,0.5-0.2,0.6-0.6v-0.1c-0.2-1-0.3-1.8-0.4-2.5c0-2,0.1-4.2,0.1-6.6
			c0-1.3,0.2-3.3,0.8-6c0-0.2-0.1-0.4-0.3-0.6c-0.9-0.5-1.7-0.7-2.4-0.7c-0.5,0-0.7-0.1-0.8-0.4v-0.1c0.2-2.1,0.2-3.8,0.2-5.3l0-0.9
			c0.1-1.1,0.1-3.6,0.2-7.6c-0.1-0.8-0.1-1.5-0.1-2.1v-0.3c0-0.4,0.1-0.6,0.4-0.6c0.4,0.1,0.9,0.2,1.5,0.4l0.3,0
			c0.2-0.1,0.3-0.2,0.3-0.5l0-1c0.2-0.5,0.3-1,0.4-1.5c0-0.2,0-0.6-0.1-1.3c0-0.4,0-0.6,0.1-0.6c0-1.3,0.2-4.7,0.6-10.3
			C221,7.4,220.6,7.1,219.8,6.8z M215.1,18v0.2c0,0.3-0.5,0.7-1.4,1.2c-0.8,0-1.3,0.2-1.2,0.5c0,0.6,0,1.1,0,1.5
			c0.1,1,0.1,2,0.1,2.9c0,0.6-0.1,2-0.3,4.2c0,0.3,0,0.7,0.1,1.3c-0.1,2.3-0.1,3.5-0.1,3.7c0,0.2,0.1,0.5,0.1,0.9l-0.2,1.9
			c0,0.1,0,0.2,0.1,0.2c0,0.2-0.1,0.4-0.1,0.5l0,0.6c0,0.2,0,0.5,0.1,0.9c0,0.5,0,2.4,0,5.7c0,0.6,0.3,1,0.8,1h0.7
			c0.1,0,0.3,0,0.5-0.1c0.5,0,0.8,0.5,0.8,1.4c0,0,0.1,0.1,0.1,0.3c0,2.1-0.1,3.4-0.1,3.8V51c0,0.5-0.3,1-1,1.3
			c-0.4,0-2.4-0.1-6.2-0.2l-2.4,0c-0.1,0-0.2,0-0.2-0.1c-0.1,0-0.1,0.1-0.2,0.1h-0.1c-0.5,0-0.7-0.3-0.8-0.8l0-0.7
			c0-0.2,0-0.4,0-0.6c-0.1-2.5-0.3-3.7-0.6-3.7l-0.1-0.3v-0.1c0-0.3,0.2-0.5,0.6-0.6c0.2,0,0.5,0,0.9,0.1c0.3,0,0.4-0.4,0.4-1.2
			l-0.1-0.1c0-0.7,0-1.2,0-1.4c0-0.1,0-0.4-0.1-0.9c0-0.1,0-0.3,0-0.5c0-0.5-0.1-0.8-0.1-0.9c0.1-1.6,0.1-2.8,0.1-3.7l0-0.5
			c0-0.2-1-0.3-2.9-0.3c-0.3,0-0.7,0-1,0.1c-0.3,0-0.7,0-1.2,0l-0.3,0l-0.6-0.2c-1.3,0.2-2.1,0.3-2.4,0.4c-0.1,0-0.1,0.5-0.1,1.6
			c0.1,0.5,0.1,0.8,0.1,1l-0.3,6.2v0.1c0.1,0.3,0.5,0.4,1.1,0.4c0.1,0,0.4,0,0.9-0.1c0.3,0.1,0.5,0.3,0.5,0.5
			c-0.1,0.8-0.2,2.7-0.3,5.7l-0.1,0.1c0,0.1,0.1,0.1,0.1,0.2v0.2c0,0.3-0.1,0.5-0.4,0.5h-0.1l-2.7-0.2c-0.2,0-0.4,0.1-0.5,0.1
			c-0.8,0-1.9,0-3.2,0c0,0-0.3,0-0.7,0.1c-1-0.1-2.1-0.1-3.2-0.1c-0.5-0.1-0.8-0.3-0.8-0.7c0-0.3,0-1,0-1.9
			c-0.1-0.7-0.2-1.4-0.2-2.2c0-0.1,0-0.3,0-0.6c-0.1-0.4-0.1-0.7-0.1-0.8v-0.1c0-0.4,0.3-0.6,0.9-0.8c0.4,0,0.8,0.1,1,0
			c0.3,0,0.5-0.8,0.5-2.3l0.1-0.1c-0.2-0.5-0.2-0.8-0.2-1.1c0.1-2.1,0.1-3.2,0.2-3.2l-0.1-0.3c0-0.3,0-0.7,0.1-1.3
			c-0.1-1.2-0.1-2-0.1-2.3c0.1-2,0.2-3.2,0.2-3.7c0-0.8,0-2,0-3.8c-0.1-1-0.1-1.7-0.1-2.1c0,0,0-0.1,0-0.3l-0.1-1.9l0.1-0.6
			c-0.1-1-0.1-1.7-0.1-2c0-0.4,0.1-0.8,0.3-1.4v-0.1c0-0.2-0.6-0.3-1.9-0.4c-0.6-0.2-0.9-0.5-0.9-1l-0.1-3.5c0-0.7-0.2-1.4-0.5-2.1
			v-0.1c0-0.2,0.2-0.5,0.7-0.8h0.1c1.4,0.1,2.3,0.1,2.7,0.1l1.8,0l5.8,0.1c0.4-0.2,0.7-0.2,0.8-0.2c0.4,0.2,0.6,0.5,0.6,1
			c0,0.1,0,0.4-0.1,0.7c0,0.2,0,0.4,0.1,0.7c-0.1,0.9-0.1,1.7-0.1,2.5l0,1.3c0,0.4-0.3,0.7-1,0.9c0,0.1-0.3,0.2-0.8,0.2l-0.1,2.2
			c0,0.3,0,0.5,0.1,0.7c-0.1,1.6-0.2,3.2-0.3,4.8c0,0.5,0.3,0.7,1,0.7l0.1,0c0.2,0,0.9,0,1.9-0.1l4.6,0.3l1,0c0.5,0,0.7-0.3,0.7-0.9
			l0.1-0.5c0,0,0-0.2-0.1-0.6c0-0.2,0-0.3,0.1-0.3c0-0.5-0.1-0.9-0.1-1.2l0-3.3c0.1-0.6,0.1-0.8,0.1-0.9c-0.1-0.2-0.2-0.3-0.5-0.3
			h-0.2c-0.2,0-0.5,0-0.8,0.1c-0.4,0-0.7-0.4-0.8-1.1c0-0.1-0.1-0.2-0.1-0.3c0.1-0.6,0.2-1.1,0.2-1.5v-0.2c0-0.1,0-0.2,0-0.2
			l-0.2-1.3v-0.1c0-0.1,0.1-0.3,0.2-0.6c-0.1-0.6-0.1-1.1-0.1-1.3l0-0.7c0-0.4,0.2-0.6,0.7-0.9l1.4,0.1c0.5,0,1-0.1,1.4-0.1l1.2,0
			c0.8,0,1.7,0,2.6,0c0.8-0.1,1.7-0.2,2.7-0.2c0.5,0,1.2,0.3,2,0.9l0.1,0.3l-0.3,5.2C215.1,17.5,215.1,17.7,215.1,18z"/>
		<path class="st0" d="M194.5,40.7l-0.1,0.1l0,0.4h0.1c0.1,0,0.1-0.1,0.1-0.1v-0.3C194.6,40.8,194.6,40.7,194.5,40.7z"/>
		<path class="st0" d="M195.1,27.6c-0.1,0-0.2,0.1-0.2,0.4c0,0.3,0.1,0.6,0.1,0.8v0.1c0,0.1,0,0.1,0.1,0.1h0.1l0.2-1.1
			C195.2,27.6,195.1,27.6,195.1,27.6z"/>
		<path class="st0" d="M195.3,44.8v0.3c0.1,0,0.1,0,0.1-0.1v-0.3C195.3,44.7,195.3,44.7,195.3,44.8z"/>
		<path class="st0" d="M197.3,34.7L197.3,34.7l-0.1,0.2c0.4,0.2,0.6,0.3,0.8,0.3h0.1v-0.1C197.9,34.9,197.6,34.7,197.3,34.7z"/>
		<path class="st0" d="M199.1,32.5c0.1,0.2,0.3,0.3,0.5,0.3h0.2c0-0.1,0.1-0.2,0.1-0.2c-0.2-0.2-0.4-0.2-0.6-0.2L199.1,32.5z"/>
		<path class="st0" d="M210.9,39.2c0.1,0,0.1-0.1,0.1-0.1v-0.3l-0.1,0V39.2z"/>
		<path class="st0" d="M242.1,6.7c-0.3-0.4-0.8-0.6-1.7-0.6h-0.8c-0.2,0-1.4,0.2-3.5,0.6l-1.5-0.2h-0.6c-0.4,0-0.7,0-1.1,0
			c-0.2,0-0.4,0.1-0.5,0.1c-0.2,0-0.5,0-0.9-0.1c-0.5,0-0.7,0.1-0.8,0.1l-5.7-0.2c-0.4,0-0.7,0.1-0.9,0.4c-1.6,0.2-2.4,0.4-2.4,0.6
			c0,0.2,0.1,2,0.4,5.3l0,0.5c-0.1,5.9-0.3,9.2-0.6,9.9c0,0.1,0.1,0.3,0.3,0.5c0.9,0.3,1.5,0.7,1.9,1.2l0.2,6.2l-0.1,0.3
			c0,0.3,0.1,0.5,0.1,0.6c0,0.5,0,2.6,0.1,6.1c0,0.4,0,0.6-0.1,0.6c-0.1,1.6-0.2,2.4-0.5,2.4c-1.2,0.1-1.9,0.4-2.1,0.9
			c0.1,1.4,0.2,2.2,0.2,2.3c0.4,4.6,0.7,7.5,0.7,8.7c0,1.4,0,2.3,0,2.9c0,0.1,0,0.4-0.1,0.8c0,0.1,0.1,0.3,0.2,0.4
			c0.7,0,1.1,0.1,1.1,0.3c1.7,0.4,2.8,0.6,3.3,0.6c1.5,0,2.7-0.1,3.4-0.1c1,0,2.4,0,4,0l0.3,0c0.9,0,2.1-0.1,3.7-0.4
			c0.9-0.1,1.5-0.3,1.6-0.5c1.4-0.1,2.1-0.5,2.1-1c-0.1-0.2-0.2-0.3-0.2-0.3c-0.2-1.3-0.4-2.2-0.6-2.6c0.3-1.7,0.5-5.1,0.7-10.2
			v-0.1c-0.1-0.5-0.2-0.8-0.2-1l0-0.8c0-0.3-0.1-0.6-0.4-0.8h-0.1l-2,0.4c-0.4,0-0.5-0.2-0.5-0.6c0.7-7.2,1.1-12.2,1.3-15.1
			c0-0.3,0.4-0.5,1.1-0.7c0.1,0,0.2,0,0.5,0.1h0.1c0.3-0.4,0.5-1,0.6-1.7c0-0.2,0-0.4-0.1-0.7l0.3-2.5c0.7-6.7,1.1-10.2,1.1-10.5
			c0,0,0-0.2-0.1-0.6c0-0.1,0.1-0.4,0.2-0.9C243.3,6.9,242.9,6.7,242.1,6.7z M236.8,46.4c0.1,0.4,0.2,0.5,0.2,0.6
			c-0.2,0.7-0.4,2.4-0.6,5.2c-0.1,0.4-0.4,0.5-0.9,0.5l-1.8,0.2c-1.3,0-2.9,0-4.7,0.1c-1.2,0-1.9-0.2-1.9-0.4l0-0.1
			c0-0.2,0-0.4,0.1-0.6c0-0.1-0.2-0.6-0.5-1.3c-0.2-0.8-0.3-1.5-0.3-2.2l0-0.3c0.1-0.7,0.1-1,0.1-1.1l0-0.8c0.3-0.8,0.7-1.2,1.1-1.2
			c0.5,0,0.8-0.4,0.7-1.1l0.3-4.2c0-0.2-0.1-0.4-0.1-0.5c0-0.1,0-0.3,0.1-0.6c0-0.3-0.1-0.6-0.1-0.6c0.2-3.6,0.3-8.2,0.4-13.8
			l-0.2-3.9l0.1-0.3c0-0.3-0.5-0.6-1.5-0.6c-0.1-0.1-0.2-0.6-0.4-1.2c-0.2-0.2-0.3-0.9-0.4-1.9c0,0-0.1-0.1-0.1-0.2l0.1-2.1
			c-0.1-0.7-0.1-1.8-0.2-3.3l0.2-0.2h0.2l0.5,0.5c2.6-0.2,4.1-0.3,4.6-0.3c2.7,0.1,4.1,0.4,4.1,0.8c0.3,0.3,0.4,0.6,0.4,0.9
			c0,1.7-0.1,3.2-0.3,4.6c0.1,0.3,0.1,0.5,0.1,0.6c0,1.3-0.2,2-0.6,2.2l-0.3-0.1h-0.2c-0.3,0-0.4,1.2-0.4,3.6c0,1.5,0.1,2.5,0.2,3.2
			l-0.3,4.6l0.1,0.5c0,0.4-0.1,0.6-0.1,0.7l0.1,0.1c-0.2,3.5-0.2,5.5-0.2,6.1v0.1c0,0.2,0,0.4,0,0.5c0,0.2,0.1,0.4,0.1,0.6l0,0.6
			c0,1.3-0.1,2.6-0.2,4.1c0,0.4,0.4,0.5,1.2,0.5c0,0.1,0.4,0.1,1.2,0.2c0.3,0.3,0.4,0.5,0.4,0.6c0,0.1-0.1,0.3-0.3,0.5L236.8,46.4z"
			/>
		<path class="st0" d="M229.7,48.2L229.7,48.2c-0.2,0-0.2,0.2-0.2,0.5v0.2c0,0,0.1,0,0.2,0.1c0.2,0,0.2-0.2,0.2-0.5
			C229.8,48.3,229.8,48.2,229.7,48.2z"/>
		<path class="st0" d="M230.7,41.1h-0.1l-0.1,0.3c0.1,0,0.1,0.1,0.1,0.1c0.1,0,0.1-0.1,0.2-0.1v-0.2
			C230.8,41.2,230.8,41.1,230.7,41.1z"/>
		<path class="st0" d="M293.5,41.7l0-0.1c-0.1-0.8-0.4-1.1-0.7-1.1l-0.2,0c-0.3,0-0.4,0.1-0.4,0.2c-0.5,0.2-1.3,0.3-2.5,0.6
			c-0.3,0-0.5-0.2-0.5-0.5c0.3-2.7,0.5-4.3,0.4-4.8c0-0.2-0.1-1.5-0.3-3.7l0-0.7c0.4-3.1,0.5-5.9,0.5-8.5c0-0.3,0.6-0.5,1.7-0.5
			l0.4,0c0.9-0.2,1.3-0.4,1.3-0.6c0-0.1-0.1-0.3-0.2-0.7c0.1-0.2,0.1-0.4,0.1-0.5c0-0.4-0.1-0.7-0.1-0.9l-0.7-3.5
			c0-0.4,0-0.9,0.1-1.3c0-0.1,0-0.3-0.1-0.8c-0.3-2.6-0.6-3.9-0.8-3.9c-0.2-1.6-0.3-2.5-0.6-2.5c-0.4-1-0.7-1.5-0.9-1.5
			c-0.4,0.1-2,0.2-4.7,0.4l-0.3,0.1c0,0-0.1-0.1-0.2-0.1h-0.5c-0.2,0-0.5,0.1-0.9,0.1c-0.8,0-2.8-0.1-6.2-0.3c-0.3,0-0.6,0.1-1,0.1
			l-0.3,0c-0.1,0-0.2,0-0.2,0.1c-0.1,0-0.1-0.1-0.2-0.1l-0.3,0c-1.2,0.1-1.8,0.1-1.8,0.3c-0.3,0-0.5,0.4-0.6,1.3
			c-0.4,0.2-0.7,0.5-0.7,1c0,0.1-0.4,1-1.2,2.5c-0.5,1.3-0.9,2.1-1.1,2.4c-1.2,2.9-1.9,4.4-2,4.5c0,0-0.1,0-0.2-0.1
			c-0.6-1.7-0.9-2.5-1-2.6c-0.6-1.9-1.2-3.2-1.8-4c-0.6-0.8-1-1.8-1.4-2.8c0-0.1,0.1-0.3,0.3-0.6l0-0.2l-0.1-0.3
			c-0.7-0.3-1-0.5-1-0.7c0-0.4-1.3-0.6-4-0.7l-4,0.3c-0.1,0-0.1-0.1-0.2-0.1c-1.3,0.1-3.1,0.2-5.4,0.4c-0.1,0-0.4,0-0.9,0
			c-0.3,0-0.5,0.1-0.6,0.1c-0.3,0-0.5-0.1-0.6,0c-0.8,0-1.3,0.1-1.5,0.2c-0.2,0-0.4,0-0.5,0h-0.2c-0.4,0-0.6,0.2-0.7,0.6
			c0,1,0.2,1.9,0.5,2.7c-0.2,2.3-0.3,5-0.3,8c0,0.2,0,0.6,0.1,1.1c0,0.9,0,1.7,0,2.3c0,0.9,0.2,1.3,0.7,1.3c0.8-0.4,1.5-0.6,2.1-0.6
			c0.4,0,0.6,0.1,0.6,0.4c-0.1,0.9-0.1,1.5-0.1,1.8c0.1,4,0.2,6,0.3,6c0,0.4,0,0.7,0,1l0,1.8c0,1.3,0,2.2-0.1,2.7
			c0,0.2,0.1,1.1,0.1,2.5l0,0.2c0,0.3-0.4,0.4-1.2,0.4c-0.1,0-0.2,0-0.3,0c-0.3,0-0.8-0.1-1.6-0.4h-0.1c-0.4,0-0.6,0.4-0.6,1.2
			c0,1.4,0.1,2.3,0.2,2.7c0.5,2.2,0.7,4.3,0.8,6.3c0.2,1.1,0.4,1.7,0.4,2c0.3,0.6,0.5,1.7,0.8,3.4c0,0.2-0.1,0.5-0.1,0.7l0,0.1
			l0.1,0.3c0,0-0.1,0.2-0.2,0.6c0,0.2,0.4,0.4,1.1,0.6c0.5-0.2,1.4-0.3,2.7-0.3l6,0.2l0.1-0.1c0,0,0,0.1,0.1,0.1l1.9,0
			c1,0,1.9-0.1,2.9-0.1c0.3,0,0.8,0,1.3,0c0.6,0,0.9-0.1,0.9-0.1l0.3,0.1c0.2-0.1,0.5-0.2,0.8-0.2l1.3,0c0.5-0.2,0.7-0.8,0.7-1.8
			c0-0.2,0-0.4-0.1-0.6c0-2.4,0.1-3.6,0.2-3.6c0.1,0,0.3,0.1,0.4,0.3c0.6,1.4,1.3,2,2,2h0.2c0.5,0,0.9-0.3,1.4-0.8
			c0.4,0,0.8-0.3,1.2-0.8h0.2c0.1,0,0.1,0.1,0.2,0.3c0,1.8-0.1,2.8-0.1,3.2c0,0.1,0.1,0.2,0.2,0.5c0.7,0.6,1.1,0.8,1.2,0.8h0.1
			c0.3,0,0.7,0,1,0l0.3-0.1c3.1,0.2,4.9,0.3,5.3,0.3c3.4,0.1,5.9,0.4,7.4,0.8c1.3-0.1,2-0.1,2.2-0.1c0.5,0,0.7,0.1,0.7,0.1l0.4-0.1
			c0.2,0,0.4,0.1,0.5,0.1c0.2,0,0.4-0.1,0.4-0.4c0-0.4,0-0.8-0.1-1.5l0.2-0.9c0.5-0.9,0.8-2.2,0.7-4l0-1.1c0-0.3,0.1-1.1,0.4-2.3
			C292.6,45.4,292.9,43.6,293.5,41.7z M288.6,47c-0.5,0.3-0.7,0.9-0.7,1.8c-0.1,0.5-0.3,1.4-0.4,2.6c-0.3,0.5-0.5,0.8-0.8,0.8
			c-0.9,0-1.3,0-1.4-0.1c-0.2,0-0.4,0.1-0.6,0.1l-0.2,0c-0.1,0-0.2,0-0.2-0.1c-0.2,0-0.4,0.3-0.7,0.8h-0.2c-0.1,0-0.2-0.2-0.2-0.6
			c-0.1-0.1-0.5-0.2-1.2-0.2c-0.3,0-0.5,0.1-0.6,0.1c-1.9,0-3.2,0-4.1-0.1c-0.3,0-0.6,0.1-1,0.1H276c-0.4,0-0.6-0.2-0.6-0.4
			c0.1-0.4,0.2-1,0.3-1.8c-0.2-1.1-0.3-2.4-0.5-3.9c0.2-0.2,0.4-0.2,0.6-0.2c0.4,0.1,0.7,0.2,1,0.2c1.3-0.1,1.9-0.2,1.9-0.4
			c0-0.1,0.1-0.2,0.1-0.3l0-1c0-0.5-0.1-1-0.3-1.7l0-1.3c0-0.1-0.1-0.5-0.2-1.2c0-0.3,0-0.4,0.1-0.5c0-0.2-0.1-0.5-0.1-0.6v-0.7
			c0-0.5,0-0.8,0.1-1l-0.1-0.7c0-0.6,0-1.3,0.1-2.3c-0.1-1.2-0.1-1.9-0.1-2.2c0-2,0-3.3,0-3.9c0-0.2-0.1-0.3-0.2-0.3h-0.1
			c-0.5,0.6-1.2,1.7-2.1,3.5l-4.2,7.3l-1.7,3.8c0,0.2-0.2,0.6-0.7,1.3c-0.5,0.9-0.7,1.4-0.8,1.4h-0.1c-0.1,0-0.2-0.3-0.4-0.7
			c-0.2,0-0.8-1.2-1.7-3.6c-0.5-1.7-1.1-2.9-1.9-3.6c-1-1.2-2.1-3.3-3.5-6.4c-0.1-0.4-0.7-1.7-1.9-3.9h-0.1c-0.1,0-0.2,0.3-0.3,0.9
			c0,0.1,0,0.2,0.1,0.3c-0.1,1.1-0.1,1.9-0.1,2.2c0.2,0.3,0.4,1,0.5,1.9v0.2c0,0.4,0,0.7,0,1c0,0.4,0.1,0.8,0.1,1.3v0.7l-0.2,4.1
			c-0.1,0-0.1,1.1-0.2,3.4c-0.1,0-0.1,0.6-0.2,1.7c0,0.5,0.2,0.8,0.7,0.8c0.4,0,0.8,0,1.3,0c0.2,0,0.4-0.1,0.6-0.1
			c0.7,0,1.1,0.3,1.1,0.6c0,0.2,0,0.3-0.1,0.5c0,0.3,0.1,0.4,0.1,0.5c-0.4,0.8-0.6,1.5-0.6,2.1c-0.2,0.7-0.3,1.4-0.4,2.2l0.2,0.8
			c0,0.5-0.4,0.9-1.1,1.2l-6.6-0.7l-0.6,0.1c-0.1,0-0.4,0-1,0c-0.1,0-0.4,0.1-0.9,0.4h-0.1c-0.5,0-0.9-0.7-1.1-2.2
			c-0.9-2.6-1.4-4.3-1.4-5c0-0.2,0.2-0.3,0.6-0.4c1.6,0.1,2.5,0.1,2.7,0.1l0.2-0.4c0,0,0-0.1-0.1-0.2c-0.1-2.3-0.1-3.9-0.1-4.9
			l0-0.8c-0.2-0.4-0.3-2.8-0.5-7l0.2-4.1c0-2,0-4.1,0.1-6.4c-0.1-0.4-0.2-0.7-0.2-0.9c0-0.1,0-0.5,0-1.2c0-0.3-0.5-0.4-1.4-0.4
			c0,0-0.1-0.1-0.2-0.1c-0.4,0-0.7,0.1-0.9,0.1c-0.3-0.1-0.5-0.3-0.5-0.5l0-0.7c-0.1-0.5-0.1-0.8-0.1-0.9v-0.1c0.2,0,0.3-1,0.4-3.1
			c0.1-1.7,0.2-2.5,0.4-2.5c0.1,0,0.1-0.1,0.2-0.1c0.1,0,0.4,0.2,0.9,0.5c0.6,0.1,1.2,0.2,1.9,0.2c0.5,0,1-0.1,1.4-0.1h0.4
			c0.2,0,1.1,0,2.7,0.1l1.5,0c0.3,0,0.4,0.2,0.4,0.7c0,0.3,0.3,1,1,2c1.2,2,2.5,4.4,3.8,7c1.2,1.7,2.4,3.8,3.7,6.2
			c0.3,0.6,0.6,0.9,0.8,0.8c0.1,0,0.6-0.6,1.3-1.8c0.1-0.3,0.4-0.9,1.1-1.6c0.2-0.6,0.5-1.2,0.9-1.7c0-0.2,0.4-0.8,1.1-2
			c0.4-0.7,0.9-1.9,1.5-3.7c0.7-1.7,1.5-3.4,2.4-4.9c0-0.1,0.1-0.1,0.1-0.2l-0.1-0.4c0-0.5,0.7-0.8,2.2-0.9l0.5,0c0.2,0,0.5,0,0.7,0
			c0.4-0.1,0.7-0.1,0.9-0.1c1.3,0,2,0,2.1,0c0.8,0,1.4-0.1,1.7-0.1l0.1,0.1c0.7-0.1,1.3-0.3,1.7-0.5h0.1c0.1,0,0.1,0.1,0.2,0.2
			l0,0.6c0,0.4,0.2,1.4,0.7,3.2c0,0.6,0.2,1.6,0.6,3V18c0,0.3-0.1,0.5-0.4,0.6c-0.8,0-1.8-0.1-3.2-0.3h-0.1c-0.1,0-0.2,0.4-0.3,1.1
			c0,0.5,0.1,1.4,0.2,2.8c0,0.8,0,1.3,0,1.5c0.1,1.6,0.1,2.6,0.2,3.1c0,2-0.1,3.4,0,4.2c0,2.8,0.1,7.4,0.3,13.9
			c0,0.3,0.2,0.4,0.6,0.4l0.6,0c0.6,0,1.2,0,1.9-0.1c0.4,0.1,0.6,0.2,0.6,0.4c0,0.3-0.1,0.5,0,0.6c0,0.1,0.1,0.2,0.4,0.4V47z"/>
		<path class="st0" d="M255.1,34c-0.1,0.1-0.1,0.3-0.2,0.6c0.1,0.2,0.1,0.3,0.2,0.3h0.1l0-0.4C255.2,34.1,255.2,34,255.1,34z"/>
		<path class="st0" d="M255.1,32.4C255,32.7,255,33,255,33c0,0.3,0.1,0.4,0.2,0.4c0.1-0.1,0.1-0.4,0.2-0.9c0-0.1-0.1-0.1-0.1-0.2
			H255.1z"/>
		<path class="st0" d="M255.2,27.3v-0.2c0-0.1,0-0.1-0.1-0.1c-0.1,0-0.1,0-0.1,0.1v0.2l0.1,0.1C255.2,27.3,255.2,27.3,255.2,27.3z"
			/>
		<path class="st0" d="M260.1,22.4c-0.1,0-0.1,0.1-0.2,0.1v0.2l0.4,0.1h0.1c0.1,0,0.1,0,0.1-0.1v-0.1
			C260.5,22.6,260.3,22.5,260.1,22.4z"/>
		<path class="st0" d="M260.5,48.3h0.1c0.1,0,0.1-0.1,0.2-0.2v-0.2c0-0.1-0.1-0.1-0.2-0.2h-0.2c-0.1,0-0.1,0-0.1,0.1v0.2
			C260.3,48.1,260.4,48.2,260.5,48.3z"/>
		<path class="st0" d="M262.9,24.9L262.9,24.9c0,0.3,0.1,0.5,0.4,0.5l0.1-0.1C263.2,25,263.1,24.9,262.9,24.9z"/>
		<path class="st0" d="M264.2,32.3c0,0.1-0.1,0.1-0.1,0.2c0.1,0.6,0.3,0.9,0.6,0.9l0.2-0.2v-0.1C264.8,32.8,264.6,32.6,264.2,32.3z"
			/>
		<path class="st0" d="M265,28L265,28l-0.1,0.2c0,0.1,0.1,0.2,0.3,0.2v-0.2C265.2,28.2,265.2,28.1,265,28z"/>
		<rect x="270" y="29.4" class="st0" width="0.1" height="0.1"/>
		<path class="st0" d="M270.7,32.9c-0.2,0-0.4,0.3-0.4,0.9v0.1c0,0.1,0,0.1,0.1,0.1h0.1c0.1,0,0.3-0.3,0.4-0.8V33
			C270.9,33,270.8,32.9,270.7,32.9z"/>
		<path class="st0" d="M271.7,30.5L271.7,30.5c0.1,0,0.2-0.2,0.3-0.5H272C271.9,30,271.8,30.1,271.7,30.5z"/>
		<path class="st0" d="M273.7,23.7v0.2c0,0.1,0,0.1,0.1,0.1c0.2-0.1,0.3-0.2,0.3-0.4l-0.2-0.1C273.8,23.4,273.8,23.5,273.7,23.7z"/>
		<path class="st0" d="M276.1,23.8c0,0.1,0,0.1,0.1,0.1h0.1v-0.2h-0.1C276.1,23.7,276.1,23.7,276.1,23.8z"/>
		<path class="st0" d="M278.1,48.3c-0.2,0-0.3,0.1-0.3,0.2v0.1c0,0.1,0,0.1,0.1,0.1c0.3,0,0.5-0.1,0.5-0.2
			C278.4,48.4,278.3,48.3,278.1,48.3z"/>
		<path class="st0" d="M279.6,28.4L279.6,28.4l-0.1,0.2c0,0.3,0.1,0.4,0.2,0.5c0.1,0,0.1,0,0.1-0.1
			C279.8,28.5,279.7,28.4,279.6,28.4z"/>
		<path class="st0" d="M280.2,36.7H280c-0.2,0-0.2,1-0.2,2.9c0,0.5,0.1,0.8,0.2,0.8c0.1,0,0.2-0.7,0.2-2l-0.1-0.6
			c0-0.1,0-0.4,0.1-0.9C280.2,36.9,280.2,36.8,280.2,36.7z"/>
		<path class="st0" d="M281.8,31c0,0-0.1,0.1-0.2,0.2l0.1,0.1v0.1c0,0.7,0.1,1,0.2,1c0.1-0.1,0.1-0.3,0.1-0.5v-0.1
			C282.1,31.3,282,31,281.8,31z"/>
	</g>
</g>
</svg>
