<svg xmlns="http://www.w3.org/2000/svg" width="240" height="29" fill-rule="evenodd" clip-rule="evenodd" image-rendering="optimizeQuality" shape-rendering="geometricPrecision" text-rendering="geometricPrecision" viewBox="0 0 31.06 3.74"><defs><style>.fil0,.fil1{fill:#25c098;fill-rule:nonzero}.fil1{fill:#fff}</style></defs><g id="Layer-214"><g id="_1872628208"><path d="M16.34 3.23c-.32 0-.62-.06-.91-.18a.13.13 0 01-.07-.06.17.17 0 01-.03-.1c0-.04.01-.08.04-.11a.16.16 0 01.11-.05l.08.02c.23.1.48.16.74.16.45 0 .67-.15.67-.44a.23.23 0 00-.09-.19.53.53 0 00-.21-.12l-.35-.11c-.21-.05-.38-.1-.5-.15a.83.83 0 01-.33-.22.57.57 0 01-.14-.4c0-.14.04-.27.12-.39a.76.76 0 01.33-.28c.15-.07.33-.11.54-.11.28 0 .53.05.75.13.08.03.11.08.11.15 0 .04-.01.08-.04.11-.03.04-.07.05-.11.05l-.06-.01c-.2-.07-.4-.11-.61-.11-.2 0-.37.04-.49.12a.34.34 0 00-.19.32c0 .09.03.16.09.22s.13.1.22.13.22.07.37.1c.2.05.36.1.48.15a.8.8 0 01.32.22c.09.1.13.24.13.41 0 .14-.04.27-.12.38-.08.12-.2.2-.34.27-.15.06-.32.09-.51.09z" class="fil0"/><path id="1" d="M18.49 3.21c-.05 0-.09-.01-.12-.05-.04-.03-.05-.07-.05-.12V.87h-.78a.16.16 0 01-.11-.05.16.16 0 01-.05-.11c0-.05.02-.09.05-.12a.16.16 0 01.11-.05h1.89c.05 0 .09.02.12.05.03.03.05.07.05.12 0 .04-.02.08-.05.11a.17.17 0 01-.12.05h-.77v2.17c0 .05-.01.09-.05.12-.03.04-.07.05-.12.05z" class="fil0"/><path id="2" d="M21.09 3.23c-.18 0-.36-.04-.52-.11A.96.96 0 0120 2.2V.7c0-.05.01-.09.05-.12a.14.14 0 01.12-.06c.05 0 .09.02.12.06.04.03.05.07.05.12v1.51c0 .15.04.28.11.39.07.1.16.18.27.24a.86.86 0 00.73 0 .73.73 0 00.28-.24.7.7 0 00.1-.39V.7c0-.05.02-.09.05-.12A.14.14 0 0122 .52c.05 0 .09.02.13.06.03.03.05.07.05.12v1.5c0 .22-.06.42-.16.57-.11.16-.25.27-.41.35-.17.07-.34.11-.52.11z" class="fil0"/><path id="3" d="M23.07 3.19a.2.2 0 01-.13-.04.2.2 0 01-.04-.13V.72a.2.2 0 01.04-.13.21.21 0 01.13-.05h.76c.29 0 .53.07.74.19.2.13.35.3.45.5a1.43 1.43 0 010 1.28 1.24 1.24 0 01-1.19.68h-.76zm.72-.32c.21 0 .39-.04.55-.13.15-.08.27-.2.36-.35a.98.98 0 00.13-.52.98.98 0 00-.49-.88 1.2 1.2 0 00-.55-.12h-.55v2h.55z" class="fil0"/><path id="4" d="M25.92 3.21c-.05 0-.09-.01-.12-.05a.17.17 0 01-.05-.12V.7c0-.05.02-.09.05-.12a.14.14 0 01.12-.06c.05 0 .09.02.12.06.04.03.05.07.05.12v2.34c0 .05-.01.09-.05.12-.03.04-.07.05-.12.05z" class="fil0"/><path id="5" d="M27 3.19c-.05 0-.09-.01-.12-.04a.21.21 0 01-.05-.13V.72c0-.05.02-.09.05-.13A.17.17 0 0127 .54h1.53c.04 0 .08.02.11.05.03.03.05.07.05.12 0 .04-.02.08-.05.11a.16.16 0 01-.11.05h-1.35v.84h1.21c.04 0 .08.01.11.04.04.03.05.07.05.12 0 .04-.01.08-.05.11a.16.16 0 01-.11.05h-1.21v.84h1.35c.04 0 .08.02.11.05.03.03.05.07.05.12 0 .04-.02.08-.05.11a.15.15 0 01-.11.04H27z" class="fil0"/><path id="6" d="M30.09 3.23c-.32 0-.62-.06-.9-.18a.16.16 0 01-.08-.06.17.17 0 01-.03-.1c0-.04.02-.08.04-.11a.17.17 0 01.12-.05l.07.02c.23.1.48.16.75.16.44 0 .66-.15.66-.44a.26.26 0 00-.08-.19.72.72 0 00-.21-.12l-.36-.11a3.9 3.9 0 01-.5-.15.91.91 0 01-.33-.22.57.57 0 01-.13-.4c0-.14.04-.27.11-.39a.8.8 0 01.34-.28c.15-.07.32-.11.53-.11.28 0 .53.05.76.13.07.03.1.08.1.15 0 .04-.01.08-.04.11-.03.04-.06.05-.11.05l-.06-.01c-.2-.07-.4-.11-.61-.11-.2 0-.36.04-.49.12a.36.36 0 00-.19.32c0 .09.03.16.09.22s.14.1.23.13.21.07.36.1c.2.05.36.1.49.15.12.05.23.12.31.22.09.1.13.24.13.41 0 .14-.04.27-.12.38a.77.77 0 01-.34.27c-.15.06-.32.09-.51.09z" class="fil0"/><path d="M1.36.29v1.47h.1c.16 0 .29-.03.39-.07.1-.05.18-.13.25-.24.07-.11.12-.27.14-.46h.09v1.79h-.09c-.04-.34-.13-.56-.27-.67a.9.9 0 00-.51-.16h-.1v1.1c0 .18.01.3.03.34.02.05.06.09.12.12.05.04.13.05.23.05h.12v.1H0v-.1h.12c.1 0 .18-.01.25-.05a.27.27 0 00.1-.13c.02-.04.03-.15.03-.33V.69C.5.51.49.39.47.35A.33.33 0 00.36.22.54.54 0 00.12.17H0V.08h3.01v1.03H2.9a.93.93 0 00-.19-.54.73.73 0 00-.44-.24c-.1-.03-.3-.04-.58-.04h-.33z" class="fil1"/><path id="1" d="M3.29.08h1.85v.09h-.09a.62.62 0 00-.29.05.25.25 0 00-.11.12 1.4 1.4 0 00-.03.38v1.75c0 .32.02.53.07.64.05.1.13.19.24.26a.98.98 0 00.91-.03.81.81 0 00.3-.36c.07-.15.1-.42.1-.8V.72c0-.16-.01-.27-.05-.34a.3.3 0 00-.12-.15.77.77 0 00-.34-.06V.08h1.24v.09h-.08c-.1 0-.18.02-.25.06a.4.4 0 00-.14.19 1 1 0 00-.03.3v1.36c0 .42-.03.72-.09.91a.95.95 0 01-.4.51c-.22.16-.51.24-.88.24-.31 0-.54-.04-.71-.13a1 1 0 01-.49-.43 1.54 1.54 0 01-.14-.71V.72c0-.21-.01-.33-.04-.38a.33.33 0 00-.11-.13 1.03 1.03 0 00-.32-.04V.08z" class="fil1"/><path id="2" d="M10.66 0v1.24h-.1a1.36 1.36 0 00-.43-.75 1.12 1.12 0 00-.72-.26c-.22 0-.42.07-.61.19-.18.13-.32.3-.4.51-.12.26-.17.56-.17.89 0 .32.04.61.12.87.08.26.21.46.38.6.17.13.39.2.67.2.22 0 .43-.05.61-.15.19-.1.39-.27.59-.51v.31a2 2 0 01-.62.46 2.18 2.18 0 01-1.77-.09c-.3-.15-.53-.37-.69-.66A1.86 1.86 0 017.55.96a1.96 1.96 0 012.48-.8c.16.07.26.1.3.1a.2.2 0 00.15-.06.34.34 0 00.08-.2h.1z" class="fil1"/><path id="3" d="M13.21 1.45l1.25 1.58c.18.22.33.37.46.45.09.06.19.08.29.08v.1h-1.85v-.1c.11-.01.19-.02.22-.05a.11.11 0 00.05-.1c0-.07-.08-.21-.24-.42l-.82-1.03-.13.11v.98c0 .19.01.3.03.35.02.04.06.08.12.12.06.03.16.04.29.04v.1h-1.8v-.1h.12c.1 0 .19-.01.25-.05a.27.27 0 00.1-.13c.02-.04.03-.15.03-.33V.69c0-.18-.01-.3-.03-.34a.27.27 0 00-.11-.13.54.54 0 00-.24-.05h-.12V.08h1.78v.09a.53.53 0 00-.28.06c-.05.02-.08.06-.11.12a1.1 1.1 0 00-.03.34v1.12L13.77.74c.18-.16.28-.28.28-.37 0-.07-.04-.12-.12-.16a.97.97 0 00-.28-.04V.08h1.39v.09a.73.73 0 00-.3.07c-.07.04-.23.16-.49.37l-1.04.84z" class="fil1"/></g></g></svg>