<?xml version="1.0" encoding="utf-8"?>
<!-- Generator: Adobe Illustrator 22.1.0, SVG Export Plug-In . SVG Version: 6.00 Build 0)  -->
<svg version="1.1" id="Vrstva_1" xmlns="http://www.w3.org/2000/svg" xmlns:xlink="http://www.w3.org/1999/xlink" x="0px" y="0px"
	 viewBox="0 0 1838.5 100.8" style="enable-background:new 0 0 1838.5 100.8;" xml:space="preserve">
<style type="text/css">
	.st0{fill:#FFFFFF;}
	.st1{fill:#F06292;}
</style>
<title>site-logo-watermark</title>
<g>
	<path class="st0" d="M51.1,83.2c11.6,0,20-3.5,26.1-7.6l8.3,11.5c-8.1,7-18.9,10.7-34.4,10.7C19.4,97.8,2,77.5,2,49.6
		C2,21.8,19.4,1.5,51.1,1.5c15.5,0,26.3,3.7,34.4,10.7l-8.3,11.5c-6.1-4.1-14.5-7.6-26.1-7.6c-21.3,0-31.4,14.2-31.4,33.6
		C19.7,69,29.8,83.2,51.1,83.2z"/>
	<path class="st0" d="M171.7,81.3v14.6H97.1v-8.6L147.2,18H99.8V3.4h71.8v8.6l-50.1,69.2H171.7z"/>
	<path class="st0" d="M253.6,41.5V56h-45.9v25.3h48.8v14.6h-66.2V3.4h65.5V18h-48.1v23.5H253.6z"/>
	<path class="st0" d="M315.3,83.2c11.6,0,20-3.5,26.1-7.6l8.3,11.5c-8.1,7-18.9,10.7-34.4,10.7c-31.7,0-49.1-20.3-49.1-48.1
		c0-27.8,17.4-48.1,49.1-48.1c15.5,0,26.3,3.7,34.4,10.7l-8.3,11.5c-6.1-4.1-14.5-7.6-26.1-7.6c-21.3,0-31.4,14.2-31.4,33.6
		C283.9,69,294,83.2,315.3,83.2z"/>
	<path class="st0" d="M427.1,3.4h17.4v92.4h-17.4V56h-44v39.8h-17.4V3.4h17.4v38h44V3.4z"/>
	<path class="st1" d="M532.8,38v22.1h-43.1v13h46.8v22.7h-74.1V3.4h73.4v22.7h-46.2V38H532.8z"/>
	<path class="st1" d="M613.5,28.6c-7.2-3.1-15.5-5-25-5c-6,0-11.2,1.7-11.2,6.6c0,5,5.3,6.4,13.5,8.1c23.5,4.9,37.3,12.1,37.3,30.4
		c0,22.1-18.6,29.8-41.6,29.8c-15.7,0-29.3-4.3-39.2-11.9l12.3-18.4c7.7,4.8,16.8,7.6,25.6,7.6c9.1,0,15.3-1.2,15.3-7.1
		c0-4.8-5.8-6.4-15.1-8.3c-24.7-5.2-35.8-15.3-35.8-30.2c0-16.1,10.8-29.2,37.4-29.2c15.8,0,28.2,3,38.6,9.3L613.5,28.6z"/>
	<path class="st1" d="M721,3.4v22.7h-30.2v69.7h-27.3V26.1h-30.2V3.4H721z"/>
	<path class="st1" d="M733.1,95.8V3.4h40.8c24,0,41.7,9,41.7,32.9c0,15.1-10.8,22.7-18,25.5l18.8,34h-29.3l-15.8-28.5h-11v28.5
		H733.1z M760.4,26.2v20.4h13.5c9.8,0,14.2-3,14.2-10.2c0-7.2-4.4-10.2-14.2-10.2H760.4z"/>
	<path class="st1" d="M925.5,49.6c0,27-16,48.8-50.6,48.8c-34.6,0-50.6-21.8-50.6-48.8c0-27,16-48.8,50.6-48.8
		C909.5,0.9,925.5,22.6,925.5,49.6z M851.8,49.6c0,13.1,6.4,26.1,23.1,26.1c16.7,0,23.1-13,23.1-26.1c0-13.1-6.4-26.1-23.1-26.1
		C858.2,23.5,851.8,36.6,851.8,49.6z"/>
	<path class="st1" d="M1024.6,12.8l-12.9,17.3c-8.4-4.5-16.9-6.6-27.8-6.6c-16.7,0-23.1,13-23.1,26.1c0,13.1,6.4,26.1,23.1,26.1
		c6.4,0,11.2-1,14.8-2.8V59.9h-16.1V39.7h40.3v47.8c-12.4,9-24.7,10.9-39,10.9c-34.6,0-50.6-21.8-50.6-48.8c0-27,16-48.8,50.6-48.8
		C1002.8,0.9,1014.6,5.6,1024.6,12.8z"/>
	<path class="st1" d="M1109.7,38v22.1h-43.1v13h46.8v22.7h-74.1V3.4h73.4v22.7h-46.2V38H1109.7z"/>
	<path class="st1" d="M1128.1,3.4h31.9l30.6,52v-52h27.2v92.4H1186l-30.6-52v52h-27.2V3.4z"/>
	<path class="st1" d="M1329.5,49.6c0,27-16,48.8-50.6,48.8c-34.6,0-50.6-21.8-50.6-48.8c0-27,16-48.8,50.6-48.8
		C1313.4,0.9,1329.5,22.6,1329.5,49.6z M1255.7,49.6c0,13.1,6.4,26.1,23.1,26.1c16.7,0,23.1-13,23.1-26.1c0-13.1-6.4-26.1-23.1-26.1
		C1262.1,23.5,1255.7,36.6,1255.7,49.6z"/>
	<path class="st1" d="M1367.1,73.1h44.3v22.7h-71.5V3.4h27.2V73.1z"/>
	<path class="st1" d="M1421.7,3.4h27.2v92.4h-27.2V3.4z"/>
	<path class="st1" d="M1545.6,3.4v22.7h-30.2v69.7h-27.3V26.1h-30.2V3.4H1545.6z"/>
	<path class="st0" d="M1555.6,77.3c5.3,0,9.6,4.3,9.6,9.6c0,5.3-4.3,9.5-9.6,9.5c-5.3,0-9.5-4.3-9.5-9.5
		C1546.1,81.6,1550.3,77.3,1555.6,77.3z"/>
	<path class="st0" d="M1611,83.6c7,0,13.2-1.9,18.9-6.4l8.2,10.4c-7.2,7.2-16.6,9.5-27.2,9.5c-22.4,0-36.7-14.8-36.7-34.2
		s14.3-34.2,36.7-34.2c10.6,0,20,2.3,27.2,9.5l-8.4,10.2c-5.7-4.5-11.9-6.3-18.8-6.3c-14.1,0-20.2,9.9-20.2,20.7
		S1596.9,83.6,1611,83.6z"/>
	<path class="st0" d="M1683.3,97.1c-22.4,0-36.7-14.8-36.7-34.2s14.3-34.2,36.7-34.2c22.4,0,36.7,14.6,36.7,34.2
		C1720,82.5,1705.6,97.1,1683.3,97.1z M1683.3,42.2c-14.1,0-20.2,9.9-20.2,20.7s6.1,20.7,20.2,20.7s20.2-9.9,20.2-20.7
		S1697.4,42.2,1683.3,42.2z"/>
	<path class="st0" d="M1734.2,30h16.2V36c2.2-3.9,8.8-7.3,15.3-7.3c10.4,0,17.7,3.6,21.6,9.1c3.5-4.7,11.3-9.1,20.2-9.1
		c15.8,0,26.5,8.4,26.5,28.7v38.4h-16.2V57.4c0-9.1-3.9-15.3-12.8-15.3c-9,0-12.8,6.2-12.8,15.3v38.4H1776V57.4
		c0-9.1-3.9-15.3-12.8-15.3c-9,0-12.8,6.2-12.8,15.3v38.4h-16.2V30z"/>
</g>
</svg>
