<svg xmlns="http://www.w3.org/2000/svg" width="264" height="60" fill-rule="evenodd" clip-rule="evenodd" image-rendering="optimizeQuality" shape-rendering="geometricPrecision" text-rendering="geometricPrecision" viewBox="0 0 16.74 3.79"><defs><linearGradient id="id0" x1="49.07%" x2="49.07%" y1="32.36%" y2="0%" gradientUnits="objectBoundingBox"><stop offset="0" stop-color="#f99"/><stop offset="1" stop-color="#ffc"/></linearGradient><style>.fil0{fill:url(#id0);fill-rule:nonzero}</style></defs><g id="Layer_x0020_1"><g id="_1297939728"><path d="M1.6.17c0 .14-.11.46-.32.96l-.08.18a15.08 15.08 0 00-.44 1.23c.06 0 .17 0 .3-.03l.43-.08c.05 0 .08.02.08.06 0 .08-.05.18-.15.3-.12.13-.23.2-.35.22a4.75 4.75 0 01-.87.01.71.71 0 01-.1-.05.23.23 0 01-.1-.19A15.63 15.63 0 01.72.23a.4.4 0 01.2-.17c.1-.04.24-.06.4-.06.18 0 .27.06.27.17z" class="fil0"/><path id="1" d="M4.48 1.14c0 .51-.15.96-.46 1.33a1.4 1.4 0 01-1.1.57c-.31 0-.57-.09-.79-.26a.9.9 0 01-.34-.73c0-.39.15-.78.47-1.18.32-.41.7-.68 1.12-.8.16-.05.3-.07.41-.07.17 0 .25.03.25.08 0 .02-.02.06-.08.1a.59.59 0 01-.14.12l-.2.07c-.2.07-.37.15-.49.26-.24.25-.38.42-.42.53-.04.14-.06.34-.06.61 0 .58.15.87.47.87.16 0 .32-.11.48-.33.16-.21.23-.44.23-.67 0-.2-.06-.4-.2-.63a.46.46 0 01-.08-.18c0-.08.08-.18.23-.29.15-.1.27-.16.36-.16.07 0 .13.03.18.08.04.05.08.13.11.27.04.13.05.27.05.4z" class="fil0"/><path id="2" d="M6.21.17a3.63 3.63 0 01-.39 1.14 13.11 13.11 0 00-.44 1.23c.07 0 .17 0 .3-.03l.43-.08c.05 0 .08.02.08.06 0 .08-.05.18-.15.3-.12.13-.23.2-.35.22a4.75 4.75 0 01-.87.01.68.68 0 01-.1-.05.23.23 0 01-.1-.19A15.17 15.17 0 015.34.23a.4.4 0 01.2-.17c.1-.04.24-.06.4-.06.18 0 .27.06.27.17z" class="fil0"/><path id="3" d="M7.99.17a3.63 3.63 0 01-.4 1.14 15.03 15.03 0 00-.43 1.23c.06 0 .16 0 .3-.03l.42-.08c.05 0 .08.02.08.06 0 .08-.05.18-.15.3-.11.13-.23.2-.35.22a4.75 4.75 0 01-.87.01.68.68 0 01-.1-.05.23.23 0 01-.1-.19c0-.08.03-.22.07-.44a15.17 15.17 0 01.65-2.1.4.4 0 01.21-.18c.1-.04.23-.06.4-.06s.26.06.26.17z" class="fil0"/><path id="4" d="M11.1.17a12.89 12.89 0 01-.37.89l-.44.85c-.29.56-.56.98-.8 1.28-.2.25-.41.42-.6.51-.15.06-.3.1-.5.1-.16 0-.24-.06-.24-.16 0-.06.03-.14.08-.24l.1-.21c.06-.06.14-.1.26-.1s.22 0 .3-.03c.07-.02.17-.07.3-.16a6.16 6.16 0 01-.57-1.24c-.13-.4-.2-.76-.2-1.1 0-.1.02-.18.04-.23.04-.09.13-.17.28-.23a1 1 0 01.39-.1c.05 0 .1.02.12.06.02.05.03.13.03.26l.05.52a3.95 3.95 0 00.28 1.46l.3-.73c.09-.24.21-.52.36-.84.07-.15.18-.3.34-.43.16-.13.3-.2.4-.2.05 0 .08.02.08.07z" class="fil0"/><path fill="#f06" fill-rule="nonzero" d="M12.92 1.4h-.3l.09-.55h-.46l-.1.56h-.31l.23-1.34h.32l-.1.53h.46l.1-.53h.3l-.23 1.34zm1.01-.24h-.43l-.11.25h-.35l.7-1.34h.3l.25 1.34h-.33l-.03-.25zm-.3-.25h.27l-.06-.46-.22.46zm1.34.03h-.18l-.08.47h-.31l.23-1.34h.47c.15 0 .27.04.35.1.08.08.12.18.1.3 0 .1-.03.18-.08.24a.5.5 0 01-.2.15l.18.53v.02h-.34l-.14-.47zm-.14-.25h.19c.05 0 .1-.01.13-.04a.23.23 0 00.1-.22c-.02-.07-.06-.1-.14-.1L14.9.31l-.06.37zm.76.72l.24-1.34h.39a.5.5 0 01.3.1c.09.06.15.14.18.24.04.1.04.2.03.3v.06a.8.8 0 01-.12.32.67.67 0 01-.57.32h-.45zm.5-1.09l-.14.84h.1c.1 0 .19-.04.25-.13.07-.08.1-.2.12-.38V.62c0-.1-.01-.17-.05-.22a.19.19 0 00-.15-.08h-.12z"/><path fill="#ffc" fill-rule="nonzero" d="M12.46 2.53a.56.56 0 01-.19.32.51.51 0 01-.35.12.37.37 0 01-.29-.13.53.53 0 01-.1-.34c-.01-.04 0-.1 0-.14l.02-.16a.88.88 0 01.12-.33c.05-.1.12-.17.2-.21a.5.5 0 01.28-.07.4.4 0 01.3.12c.07.08.1.18.1.32h-.1c0-.11-.04-.2-.09-.25a.29.29 0 00-.22-.1.4.4 0 00-.3.14.73.73 0 00-.18.39l-.02.18v.08c0 .08 0 .14.02.2.03.07.06.12.1.15.05.03.1.05.17.05.1 0 .2-.02.26-.08a.5.5 0 00.16-.26h.11zm.75.44a.39.39 0 01-.3-.14.54.54 0 01-.12-.33v-.15l.03-.13c.02-.18.1-.34.2-.46a.52.52 0 01.4-.17c.09 0 .16.02.22.06.06.04.11.1.15.17.03.07.05.15.05.24v.15l-.03.14a.91.91 0 01-.12.33.59.59 0 01-.2.22.52.52 0 01-.28.06zm.51-.77l.01-.12a.58.58 0 00-.03-.2.29.29 0 00-.1-.14.3.3 0 00-.18-.05.4.4 0 00-.31.13.7.7 0 00-.17.37c-.03.12-.04.22-.04.28 0 .12.03.22.09.29.05.07.13.1.22.1a.4.4 0 00.33-.13c.08-.1.14-.23.16-.4l.02-.13zm.94.19h-.38l-.1.56h-.11l.23-1.34h.4c.13 0 .23.03.3.1.08.07.1.16.1.28a.4.4 0 01-.1.23.5.5 0 01-.24.15l.23.56v.02h-.12l-.21-.56zm-.37-.1h.34c.1 0 .17-.03.24-.08.07-.06.1-.13.12-.22 0-.08-.01-.15-.06-.2-.05-.06-.12-.09-.22-.09h-.31l-.1.6zm1.86.01h-.6l-.1.55h.7l-.02.1h-.81l.23-1.34h.8v.1h-.7l-.1.5h.62l-.02.1z"/></g></g></svg>