<?xml version="1.0" encoding="utf-8"?>
<!-- Generator: Adobe Illustrator 21.1.0, SVG Export Plug-In . SVG Version: 6.00 Build 0)  -->
<svg version="1.1" id="Layer_1" xmlns="http://www.w3.org/2000/svg" xmlns:xlink="http://www.w3.org/1999/xlink" x="0px" y="0px"
	 viewBox="0 0 225.4 57" style="enable-background:new 0 0 225.4 57;" xml:space="preserve">
<style type="text/css">
	.st0{fill:#B3B3B3;}
	.st1{fill:#FFFFFF;}
	.st2{fill:#AAAAAA;}
	.st3{fill:#F2F2F2;}
	.st4{fill:#D49C6B;}
	.st5{opacity:0.5;fill:#D49C6B;enable-background:new    ;}
	.st6{opacity:0.25;}
	.st7{fill:#FF7CAE;}
	.st8{opacity:0.3;}
	.st9{opacity:0.3;fill:#FF7BAC;enable-background:new    ;}
	.st10{fill:none;}
</style>
<g>
	<g id="Layer_2">
		<g id="Final">
			<g>
				<g>
					<g>
						<g>
							<path class="st0" d="M59.8,32L59.8,32c1.3,0,2.4,1,2.4,2.3V46c0,1.3-1,2.3-2.3,2.3l0,0c-1.3,0-2.3-1-2.3-2.3V34.5
								C57.5,33.2,58.5,32,59.8,32z"/>
							<path class="st0" d="M65.7,36L65.7,36c1.3,0,2.4,1,2.4,2.3V50c0,1.3-1,2.3-2.3,2.3l0,0c-1.3,0-2.3-1-2.3-2.3V38.5
								C63.3,37.2,64.4,36,65.7,36z"/>
							<path class="st0" d="M76.5,11.1c-7.6-7.6-19.9-7.6-27.5,0c-3.3,3.3-5.3,7.6-5.6,12.2c-0.2,3.1,0.3,6.3,1.5,9.2
								c0.2,0.4,0.3,0.9,0.3,1.3c-0.1,0.3-0.7,0.9-0.7,0.9L33.9,45.5c-2.3,2.3-2.3,6,0,8.3s6,2.3,8.3,0l10.6-10.6c0,0,0.6-0.7,1-0.7
								c0.5,0,0.9,0.1,1.3,0.3C65,47,76.4,42.3,80.6,32.5C83.7,25.3,82.1,16.8,76.5,11.1z"/>
						</g>
						<path class="st0" d="M62.8,43c-0.3,0-0.6,0.3-0.6,0.6l0,0V45c0-0.3,0.3-0.6,0.6-0.6s0.6,0.3,0.6,0.6v-1.5
							C63.3,43.2,63.1,43,62.8,43L62.8,43z"/>
					</g>
					<g>
						<path class="st1" d="M0,7.3h15.9c3.9,0,6.6,1,8.5,2.8c1.3,1.3,2,3.1,2,5v0.1c0,3.6-2,5.7-4.8,6.9c3.8,1.2,6.1,3.4,6.1,7.6v0.1
							c0,5.3-4.3,8.5-11.7,8.5H0L0,7.3z M13.7,19.6c2.6,0,4.1-0.9,4.1-2.7v-0.1c0-1.7-1.3-2.7-3.9-2.7H8.3v5.5
							C8.3,19.6,13.7,19.6,13.7,19.6z M15,31.3c2.6,0,4.1-1,4.1-2.8v-0.1c0-1.7-1.3-2.8-4.2-2.8H8.3v5.7H15z"/>
						<path class="st1" d="M27.2,7.3h8.6v23.5h15v7.5H27.2V7.3z"/>
					</g>
					<g>
						<path class="st1" d="M76.7,7.3h9.1l5.5,18l6-18h7.4l6,18l5.3-18h8.9l-10.4,31.2H107l-6.3-17.9l-6.2,17.9H87L76.7,7.3z"/>
						<path class="st1" d="M123.8,7.3h13.3c7.8,0,12.9,4,12.9,10.9v0.1c0,7.3-5.6,11.2-13.3,11.2h-4.3v8.8h-8.6L123.8,7.3z
							 M136.5,22.6c3.1,0,4.9-1.6,4.9-4v-0.1c0-2.7-1.9-4.1-5-4.1h-4v8.2L136.5,22.6z"/>
						<path class="st1" d="M156.8,7.1h8.3l13.2,31.2h-9.2l-2.3-5.5h-12l-2.2,5.5h-9L156.8,7.1z M164.3,26l-3.5-8.8l-3.5,8.8H164.3z"
							/>
						<path class="st1" d="M174.1,33.7l4.8-5.7c2.8,2.4,6.4,3.7,10.1,3.7c2.3,0,3.5-0.8,3.5-2.1v-0.1c0-1.3-1-2-5.2-3
							c-6.6-1.5-11.7-3.4-11.7-9.8v-0.1c0-5.8,4.6-9.9,12-9.9c4.6-0.2,9.1,1.3,12.8,4.1l-4.3,6.1c-2.5-1.9-5.6-2.9-8.7-3.1
							c-2.1,0-3.1,0.9-3.1,2v0.1c0,1.4,1.1,2,5.4,3c7.1,1.5,11.6,3.9,11.6,9.7v0.1c0,6.3-5,10.1-12.5,10.1
							C183.3,38.8,178.1,37,174.1,33.7z"/>
						<path class="st1" d="M198.1,33.7l4.8-5.7c2.8,2.4,6.4,3.7,10.1,3.7c2.3,0,3.6-0.8,3.6-2.1v-0.1c0-1.3-1-2-5.2-3
							c-6.6-1.5-11.7-3.4-11.7-9.8v-0.1c0-5.8,4.6-9.9,12-9.9c4.6-0.2,9.1,1.3,12.8,4.1l-4.3,6.1c-2.5-1.9-5.5-2.9-8.7-3.1
							c-2.1,0-3.1,0.9-3.1,2v0.1c0,1.4,1.1,2,5.4,3c7.1,1.5,11.6,3.9,11.6,9.7v0.1c0,6.3-5,10.1-12.5,10.1
							C207.3,38.8,202.2,37,198.1,33.7z"/>
					</g>
					<path class="st2" d="M77.1,8.4l7.7,23.2c2.4-7.4,0.5-15.4-5-20.9C79,9.8,78.1,8.9,77.1,8.4z"/>
					<g>
						<g>
							<path class="st3" d="M58.2,30.3L58.2,30.3c1.4,0,2.5,1.1,2.5,2.5v12.4c0,1.4-1.1,2.5-2.5,2.5l0,0c-1.4,0-2.5-1.1-2.5-2.5
								V32.8C55.7,31.5,56.8,30.3,58.2,30.3z"/>
							<path class="st3" d="M64.4,34.5L64.4,34.5c1.4,0,2.5,1.1,2.5,2.5v12.4c0,1.4-1.1,2.5-2.5,2.5l0,0c-1.4,0-2.5-1.1-2.5-2.5V37
								C61.9,35.8,63,34.5,64.4,34.5z"/>
							<path class="st3" d="M75.8,8.3c-8.1-8-21.1-8-29.1,0c-5.9,6-7.7,14.9-4.3,22.7c0.2,0.4,0.3,0.9,0.3,1.4c0,0.4-0.7,1-0.7,1
								L30.7,44.5C28.4,47,28.5,51,31,53.3c2.4,2.2,6.1,2.2,8.5,0l11.2-11.2c0,0,0.6-0.7,1-0.7c0.5,0,1,0.1,1.4,0.3
								c10.4,4.5,22.5-0.3,27-10.8C83.5,23.3,81.7,14.3,75.8,8.3z"/>
						</g>
						<path class="st3" d="M61.3,41.8c-0.3,0-0.6,0.3-0.6,0.6l0,0V44c0-0.3,0.3-0.6,0.6-0.6l0,0c0.3,0,0.6,0.3,0.6,0.6l0,0v-1.6
							C61.9,42.2,61.6,41.8,61.3,41.8L61.3,41.8z"/>
					</g>
					<path class="st4" d="M56.9,27L56.9,27c0.6,0.6,0.6,1.5,0,2.1L36.1,50c-0.6,0.6-1.5,0.6-2.1,0l0,0c-0.6-0.6-0.6-1.5,0-2.1
						l20.8-20.8C55.4,26.5,56.3,26.5,56.9,27z"/>
					<path class="st5" d="M61.6,22.5c-0.6-0.6-1.5-0.6-2.1,0L47.9,34c0.3,1,0.7,2,1.2,2.9l12.5-12.5C62.2,24,62.2,23,61.6,22.5
						L61.6,22.5z"/>
					<g class="st6">
						<path class="st1" d="M34.4,48.8L55.2,28c0.6-0.5,1.4-0.5,2,0l0.1,0.2c0-0.8-0.7-1.4-1.5-1.4c-0.4,0-0.7,0.2-1,0.4L34.1,47.8
							c-0.5,0.5-0.6,1.3-0.1,1.9C33.9,49.3,34.1,49,34.4,48.8z"/>
					</g>
					<g>
						
							<ellipse transform="matrix(0.2336 -0.9723 0.9723 0.2336 24.7031 76.9559)" class="st7" cx="61.2" cy="22.8" rx="15.8" ry="15.8"/>
						<g>
							<path class="st1" d="M62.2,22.5l0.4-0.1c0.3-0.1,0.7-0.2,1-0.3c0.9-0.3,1.7-0.8,2.5-1.3c1-0.7,2-1.6,2.8-2.6
								c1-1.2,1.8-2.6,2.4-4c0.4-0.9,0.7-1.8,1-2.7c-1.6-1.6-3.5-2.8-5.7-3.6c0.1,0.3,0.1,0.6,0.1,1c0.2,1.4,0.2,2.8,0.1,4.1
								c-0.1,1.2-0.3,2.4-0.7,3.6c-0.3,1-0.8,2-1.4,2.8c-0.5,0.7-1.1,1.3-1.7,1.9c-0.2,0.2-0.5,0.4-0.8,0.6
								c-0.1,0.1-0.2,0.2-0.3,0.2l-0.3,0.2l-0.4,0.5l0.6-0.1L62.2,22.5z"/>
							<path class="st1" d="M61.7,22c0.1-0.1,0.1-0.2,0.2-0.4c0.2-0.3,0.3-0.6,0.5-0.9c0.4-0.9,0.6-1.8,0.8-2.7
								c0.2-1.3,0.3-2.6,0.2-3.8c-0.2-1.5-0.5-3.1-1.1-4.5c-0.3-0.9-0.7-1.8-1.2-2.6c-2.3,0-4.5,0.5-6.5,1.5
								c0.3,0.2,0.5,0.4,0.8,0.6c1.1,0.8,2.1,1.8,3,2.8c0.8,0.9,1.5,2,2.1,3.1c0.5,0.9,0.8,2,1,3c0.1,0.8,0.2,1.7,0.1,2.6
								c0,0.4-0.1,0.7-0.1,1s0,0.3-0.1,0.4l-0.1,0.3l-0.1,0.4l0.3-0.5L61.7,22z"/>
							<path class="st1" d="M61,21.9c0-0.1-0.1-0.3-0.1-0.4c-0.1-0.3-0.2-0.7-0.3-1c-0.4-0.9-0.8-1.7-1.4-2.5
								c-0.7-1.1-1.6-2-2.6-2.8c-1.2-1-2.6-1.8-4-2.4c-0.9-0.4-1.8-0.7-2.7-1c-1.6,1.6-2.8,3.5-3.6,5.6l1-0.1
								c1.4-0.2,2.8-0.2,4.2-0.1c1.2,0.1,2.4,0.3,3.6,0.7c1,0.3,2,0.8,2.9,1.5c0.7,0.5,1.3,1.1,1.9,1.7c0.2,0.2,0.4,0.5,0.6,0.8
								l0.2,0.3l0.2,0.3l0.3,0.5l-0.1-0.7L61,21.9z"/>
							<path class="st1" d="M60.4,22.3L60,22c-0.3-0.1-0.6-0.3-0.9-0.5c-0.9-0.4-1.8-0.7-2.7-0.9c-1.3-0.2-2.6-0.3-3.8-0.1
								c-1.5,0.2-3.1,0.5-4.5,1.1c-0.9,0.3-1.8,0.7-2.6,1.2c0,2.3,0.5,4.5,1.5,6.5l0.6-0.8c0.9-1.1,1.8-2.1,2.8-3
								c0.9-0.8,1.9-1.5,3-2.1c0.9-0.5,2-0.8,3-1c0.8-0.1,1.7-0.2,2.6-0.1c0.3,0,0.7,0,1,0.1l0.4,0.1l0.3,0.1l0.6,0.1l-0.5-0.3
								L60.4,22.3z"/>
							<path class="st1" d="M60.3,23l-0.4,0.1c-0.3,0.1-0.7,0.2-1,0.3c-0.9,0.3-1.7,0.8-2.5,1.3c-1.1,0.7-2,1.6-2.8,2.6
								c-1,1.2-1.8,2.6-2.4,4c-0.4,0.9-0.7,1.8-1,2.7c1.6,1.6,3.5,2.8,5.7,3.6c0-0.3-0.1-0.6-0.1-1c-0.2-1.4-0.2-2.8-0.1-4.1
								c0.1-1.2,0.3-2.4,0.7-3.6c0.6-1.8,1.7-3.5,3.2-4.8c0.2-0.2,0.5-0.4,0.8-0.6l0.3-0.3L61,23l0.5-0.3l-0.6,0.1L60.3,23z"/>
							<path class="st1" d="M60.7,23.6c-0.1,0.1-0.1,0.2-0.2,0.4c-0.2,0.3-0.3,0.6-0.4,0.9c-0.4,0.9-0.7,1.8-0.9,2.7
								c-0.2,1.3-0.3,2.6-0.2,3.8c0.2,1.5,0.5,3.1,1.1,4.5c0.3,0.9,0.7,1.8,1.2,2.6c2.3,0,4.5-0.5,6.5-1.5L67,36.5
								c-1.1-0.9-2.1-1.8-3-2.8c-0.8-0.9-1.5-1.9-2.1-3c-0.5-0.9-0.8-2-1-3c-0.1-0.8-0.2-1.7-0.1-2.6c0-0.4,0.1-0.7,0.1-1
								s0-0.3,0-0.4l0.1-0.3l0.1-0.6l-0.3,0.5L60.7,23.6z"/>
							<path class="st1" d="M61.4,23.8c0,0.1,0.1,0.3,0.1,0.4c0.1,0.3,0.2,0.7,0.3,1c0.3,0.9,0.8,1.7,1.3,2.5c0.7,1.1,1.6,2,2.6,2.8
								c1.2,1,2.6,1.8,4,2.4c0.9,0.4,1.8,0.7,2.7,1c1.6-1.6,2.8-3.5,3.6-5.6l-1,0.1c-1.4,0.2-2.8,0.2-4.2,0.1
								c-1.2-0.1-2.4-0.3-3.6-0.7c-1-0.3-2-0.8-2.8-1.4c-0.7-0.5-1.3-1.1-1.9-1.7c-0.2-0.2-0.4-0.5-0.6-0.8l-0.2-0.3l-0.2-0.3
								l-0.3-0.5l0.1,0.6L61.4,23.8z"/>
							<path class="st1" d="M62,23.4l0.4,0.2c0.3,0.2,0.6,0.3,0.9,0.5c0.9,0.4,1.8,0.7,2.7,0.9c1.3,0.2,2.6,0.3,3.8,0.2
								c1.5-0.2,3.1-0.5,4.5-1.1c0.9-0.3,1.8-0.7,2.6-1.2c0-2.3-0.5-4.5-1.4-6.5c-0.2,0.3-0.4,0.5-0.6,0.8c-0.9,1.1-1.8,2.1-2.8,3
								c-0.9,0.8-2,1.5-3.1,2.1c-0.9,0.5-2,0.8-3,1c-0.8,0.1-1.7,0.2-2.6,0.1c-0.3,0-0.7,0-1-0.1c-0.1,0-0.3,0-0.4-0.1L61.7,23
								l-0.5-0.3l0.5,0.3L62,23.4z"/>
						</g>
						<g class="st8">
							<path class="st1" d="M48.2,23.9c-0.6,0-1-0.4-1-1c0-7.8,6.2-14.1,14-14.1c0.6,0,1,0.5,1,1s-0.5,1-1,1c-6.6,0-12,5.4-12,12
								C49.2,23.4,48.8,23.8,48.2,23.9L48.2,23.9z"/>
						</g>
					</g>
					<path class="st9" d="M77,21.4c-0.8,8.7-8.4,15.1-17.1,14.4C52.3,35,46.2,29,45.5,21.4c-0.8,8.7,5.7,16.4,14.4,17.1
						c8.6,0.8,16.3-5.6,17.1-14.3C77,23.3,77,22.3,77,21.4z"/>
					<g>
						<path class="st1" d="M30.9,44.7l11.2-11.2c0,0,0.7-0.6,0.7-1c0-0.5-0.1-1-0.3-1.4c-3.3-7.7-1.6-16.7,4.3-22.7c8-8,21-8,29-0.1
							h-0.1c-8.1-8-21.1-8-29.1,0c-5.9,6-7.7,14.9-4.3,22.7c0.2,0.4,0.3,0.9,0.3,1.4c0,0.4-0.7,1-0.7,1L30.7,44.5
							c-2.4,2.4-2.4,6.4,0,8.8l0.1,0.1C28.5,51,28.5,47,30.9,44.7z"/>
						<path class="st1" d="M62,49.7v-5.5c0-0.2-0.1-0.3-0.3-0.5c0.1,0.1,0.1,0.2,0.1,0.3v5.5c0,0.7,0.3,1.4,0.8,1.8
							C62.3,50.8,62.1,50.3,62,49.7z"/>
						<path class="st1" d="M55.9,45.5v-2.7l-0.2-0.1v2.6c0,0.7,0.3,1.4,0.8,1.8C56.1,46.7,55.9,46,55.9,45.5z"/>
					</g>
				</g>
				<rect x="-8.8" y="-2.8" class="st10" width="242.4" height="64.5"/>
			</g>
		</g>
	</g>
</g>
</svg>
