<?xml version="1.0" encoding="utf-8"?>
<!-- Generator: Adobe Illustrator 22.1.0, SVG Export Plug-In . SVG Version: 6.00 Build 0)  -->
<svg version="1.1" id="Ebene_1" xmlns="http://www.w3.org/2000/svg" xmlns:xlink="http://www.w3.org/1999/xlink" x="0px" y="0px"
	 viewBox="0 0 5200 1500" style="enable-background:new 0 0 5200 1500;" xml:space="preserve">
<style type="text/css">
	.st0{fill:#FFFFFF;}
</style>
<g>
	<path class="st0" d="M3226.5,918.3c31-80.9,91.4-127.2,164.7-160.3c5.5-2.5,11.3-4.5,17.2-5.9c53.6-13.3,85.4,15.8,70.3,68.1
		c-6.8,23.5-23.3,44.5-36.6,65.8c-3.7,5.9-11.3,10.3-18,13.2c-14,6.1-28.8,7.3-39.9-5.2c-10.2-11.6-9.5-26.9-0.4-37.3
		c11.6-13.2,27.2-23,41-34.3c8.7-7,19.3-12.7,25.4-21.4c4.2-6,5.8-18.8,2-23.9c-3.8-5.2-16.8-8.1-23.7-5.8
		c-12.6,4-25.4,10.7-35.2,19.5c-44.2,40-78.3,87.4-99.1,142.9c-5.6,15-7.2,32.2-7,48.4c0.3,26.9,14,39.5,41.2,34
		c20.9-4.2,42.4-13,59.7-25.1c56.8-39.6,97.5-93.7,132.4-151.9c54.4-90.6,107.9-181.8,161.7-272.7c2.3-3.9,4.7-7.6,6.9-11.6
		c22.1-40.3,39.7-47.4,91.8-33.8c-4.2,10.1-7,20.2-12.4,28.9c-40.2,65.1-80.9,129.9-121.3,194.9c-4.6,7.5-8.2,15.6-9.4,26.9
		c8.8-4.8,17.7-9.6,26.5-14.3c43.4-23.3,88.4,0.6,93,49.1c2.3,25.1-6.2,47.3-18.5,68.2c-18.7,31.6-39,62.3-57.7,93.8
		c-6.3,10.6-10,22.8-14.4,33.3c13.5,20.2,28.4,14.5,40.6,5.1c15.4-11.9,29.9-25.5,42.4-40.4c21.8-25.9,41.5-53.3,62.5-79.8
		c6.5-8.2,14.3-15.5,21.6-23.2c2.2,1.1,4.4,2.3,6.7,3.4c-0.7,5.1,0.3,11.5-2.4,15c-35.8,46.2-67.6,95.9-115.6,131.9
		c-32.4,24.3-56.9,28.3-78.8,12.8c-26.9-19-37.9-54.4-22.5-88.5c13.8-30.5,32.7-58.8,49.5-88c13.3-23.1,26.9-46,39.8-68
		c-16.2-20.1-30.2-12.6-42.6-3.9c-37,26.1-65,60.6-89.1,97.9c-26.9,41.6-52.5,83.9-78.2,126.2c-19.6,32.3-34.3,37.8-78,24.1
		c6.4-17.4,12.8-34.7,19.2-52.1c-0.8-1.1-1.6-2.1-2.4-3.2c-6.6,5-13,10.2-19.8,15c-19.7,13.8-38.4,29.8-59.7,40.7
		c-50.5,25.7-109.2,0.7-127.4-52.4c-2.2-6.3-3.8-12.7-6.6-22.3c-6.9,7.6-12.7,13.1-17.5,19.5c-36,47.8-85.4,67.7-144.5,66.6
		c-24.8-0.5-45.6-10.5-60.9-30.3c-5-6.4-10.3-12.5-17.3-20.9c-12.6,9.8-24.5,18.6-36,27.9c-47.7,38.7-88.3,27.5-108.2-29.8
		c-1.6-4.7-4.4-8.9-8.2-16.6c-7.6,6.9-13.1,12.6-19.4,17.4c-20.2,15.5-39.1,33.7-61.5,45.4c-36.6,19.1-79.6-4.7-81.3-45.5
		c-0.9-21.3,4.5-45.2,14.5-64.1c26.4-50.3,56.9-98.6,85.7-147.8c8-13.6,19.6-20,35.8-18.9c12,0.8,24.1,0.1,33.8,0.1
		c13.2,13.4,6.1,23,0.2,32.6c-31.2,50.3-62.9,100.4-93.5,151.1c-9.3,15.3-17.7,31.5-23.1,48.4c-2.6,8.1,0,21.7,5.8,27.3
		c4.4,4.2,18.2,1.4,26.6-1.6c8.2-2.9,15.7-9.2,22.1-15.3c64.5-62.4,113.4-135.9,157.4-212.9c1.4-2.4,1.4-5.5,2.4-9.6
		c-5.1-2.4-9.9-4.3-14.2-6.8c-4.2-2.4-8.1-5.4-11.8-13.2c8.2-1.6,16.3-4.3,24.5-4.5c14.5-0.4,24.2-6.7,31.4-18.7
		c10.7-18,23.1-35.2,32.8-53.8c8.9-17.2,21.5-23.8,40.5-21.2c10.3,1.4,20.8,1.2,33.5,1.9c2.6,35.4-31.4,54.8-35.6,87.5
		c14.4,2.8,27.6,5.4,40.8,7.9c0.2,2.4,0.5,4.8,0.7,7.1c-7.7,2.4-15.8,7.5-23.1,6.6c-29.8-3.5-45.2,11.1-58.6,35.3
		c-30.8,55.7-64.7,109.7-96.3,165c-12.5,21.9-12.6,42-1.3,47.3c18,8.4,31.8-3,44.9-13.3c22.6-17.7,37-39.8,44.5-68.1
		c11.4-42.8,36.8-74.7,83.7-85.7c8.1-1.9,16.2-8.3,21.8-14.7c18.4-20.9,36.5-42.1,53-64.4c9.2-12.5,14.4-27.7,22.2-41.2
		c10.4-18,20.5-36.4,33.1-52.8c7.3-9.5,20.6-16.3,32.1-6.9c11.5,9.5,6.3,22.1-1.5,32c-10.7,13.5-20.8,28.1-34,39
		c-23,19-24.8,41.7-16.5,66.8c7.5,22.7,17.1,44.7,25.3,67.2C3216.3,886.8,3220.6,900.8,3226.5,918.3z M3154,791.6
		c-16.8,21.4-32.8,40.7-47.4,61c-3.3,4.6-2.2,12.8-1.6,19.2c1.8,21.4-4.2,33.7-23.8,43.5c-8.7,4.4-18.8,6.1-27.3,10.8
		c-11.6,6.5-23.8,13.1-32.8,22.5c-11.7,12.2-12.9,28.4-6.1,44c6.9,15.8,20.7,19.7,37.1,20.4c28.7,1.2,48.5-13.8,66.8-32.6
		c50.4-52.1,48.3-115.7,41.2-180.4C3159.9,798,3157.6,796.3,3154,791.6z"/>
	<path class="st0" d="M982.6,762.6c7.7-2.3,15.4-6.5,23.1-6.4c17.6,0.1,28.1-8.4,36.2-22.5c8.2-14.3,17.1-28.2,26-42.1
		c19.9-31.4,39.5-36.9,79-20.6c-0.9,30-30.9,48.1-36.6,79.2c13.4,3.9,26.5,7.6,39.6,11.4c-0.2,3.1-0.4,6.2-0.6,9.3
		c-11.1,1.1-22.2,3.6-33.1,3c-17.2-0.9-28.8,5.3-37.5,19.8c-34.4,57.2-69.5,113.9-103.8,171.1c-6.1,10.2-11,21.5-14.2,32.8
		c-5.3,18.6,5.6,30.1,24.5,25.1c10.5-2.8,21.5-8.9,29.1-16.5c21.2-21.3,43.1-42.6,60.5-66.7c33.8-46.9,65.1-95.4,96.6-143.9
		c24-36.9,36.2-42.3,87.5-30.1c-2.7,9.2-3.6,19.3-8.4,27c-31.7,50.9-64.6,101.1-96.2,152.1c-9.8,15.8-18.2,32.8-24.5,50.3
		c-2.5,6.9-0.6,19.6,4.4,23.7c5.4,4.4,18.8,5.2,25,1.5c28.9-16.9,56.1-36.4,65.3-71c7.3-27.4,20.5-51.7,41.8-70.6
		c9.3-8.3,20.6-16.7,32.4-19.3c18.3-4.1,31.9-12.8,43.1-26.7c28-35,60.7-66.2,75.3-110.9c5.6-17.1,22-31.7,36.1-44.8
		c5-4.6,17.6-1.4,26.7-1.8c0.1,8.4,3.6,19.1-0.3,24.8c-12.3,17.8-26.5,34.6-41.8,50c-12.1,12.1-18.8,24.8-17.1,41.8
		c4.6,44.5,26.4,82.9,40.7,123.9c2-0.1,3.9-0.2,5.9-0.3c9.7-16.6,19.3-33.4,29.3-49.8c64.8-107.2,129.5-214.4,194.6-321.4
		c13.9-23,50.3-28.7,81.3-11.5c-4.3,8.7-7.9,18.2-13.2,26.6c-40.6,64-81.6,127.7-122.2,191.7c-5.4,8.5-9.7,17.8-11.3,29.5
		c6.8-4.1,13.7-8.2,20.5-12.4c22.7-14.1,46.2-19.8,70.5-4.1c21.6,14,35,45.2,25.8,71.4c-9.3,26.5-23.1,51.7-37,76.4
		c-14.7,26.1-32.4,50.5-47.4,76.4c-4.7,8-4.8,18.6-6.9,27.5c21.7,11.5,35.7,1.8,46.6-8.9c23.1-22.6,44.9-46.5,66.1-70.8
		c13.8-15.8,25.2-33.6,38.6-49.9c4.9-5.9,12.3-9.8,18.5-14.7c1.5,1.4,3.1,2.8,4.6,4.2c-1.6,4.5-2,10-4.8,13.4
		c-31.5,38.2-62.6,76.8-95.8,113.6c-11.7,13-29.2,21-43.5,32c-24.2,18.5-64.8,3.3-77.5-30c-9.8-25.7-5.4-50.8,7.6-73.5
		c22.4-38.9,47.5-76.4,70.6-114.9c6.2-10.3,9.3-22.3,13.5-32.8c-18.9-14.6-32.6-5-42.2,3.8c-25,22.7-51.1,45.3-70.6,72.3
		c-35.9,49.9-67.5,102.8-100.6,154.7c-15,23.5-35,32.2-61.5,23.5c-6.9-2.3-11.9-9.9-20.4-17.5c-3.1,1-9.7,2.3-15.5,5.1
		c-26.4,12.9-54,19.2-83.6,18.3c-28-0.8-50.5-11.3-65.6-34.1c-9.6-14.4-17.7-15.1-31-4.5c-14.7,11.6-30.3,22.7-47,31.1
		c-33.3,16.7-70.5-2.1-78.8-38.4c-1.8-7.8-3-15.7-5.5-28.6c-10.4,8.9-17.3,15.1-24.5,20.9c-18.2,14.6-36.2,29.4-54.8,43.3
		c-34.2,25.5-78.4-1.6-84.2-38.7c-1.5-9.4-2.3-18.9-4-33.1c-9.8,8-16.2,13.8-23.2,18.7c-25.9,18.1-50.6,38.5-78.4,53.1
		c-32.9,17.3-68.2,17.4-98.2-7.8c-31.3-26.3-39.4-60.6-28.9-99.5c7.8-28.9,22.2-54.1,44.2-74.5c50.2-46.4,107.4-80.6,176.3-92.3
		c11.5-1.9,24.5-0.9,35.8,2.2c25.4,7,36.2,30.9,26.3,55c-14.2,34.6-45.6,49.4-77.8,60.9c-30.6,10.9-62.5,18.7-94.3,25.7
		c-37.8,8.3-72.6,65.3-59.6,101c4.9,13.4,15.2,19.5,29.8,20.2c30.7,1.5,56.5-10.7,80-27.9c55-40.3,96.3-92.8,133.6-148.6
		c14-20.9,26.1-43.2,40.2-66.9c-11.4-4.4-19.5-7.5-27.6-10.6C983.7,767.4,983.1,765,982.6,762.6z M1390.8,799.9
		c-16.1,20-32.5,39.9-48.1,60.4c-2.3,3-1.5,8.6-1.4,13c1,30.6-7.3,42.9-36.5,53.5c-9.2,3.4-18.8,6.1-27.6,10.3
		c-23.4,10.8-35.4,38.8-26.2,59.7c8.3,19,31.5,26.9,56.6,18.8c7.9-2.5,15.9-5.5,22.7-10c58.2-38.5,90.2-133.9,67.5-200.1
		C1397.5,804.4,1395.6,803.7,1390.8,799.9z M786.2,873.3c1.1,2.3,2.2,4.5,3.3,6.8c9.2-3.1,18.6-5.5,27.4-9.3
		c36.2-15.7,71.8-32.3,96.5-64.7c7.4-9.6,12-19.2-2.4-32.7C857.2,791.4,820.5,830.8,786.2,873.3z"/>
	<path class="st0" d="M790.6,496.8c-20.4-25.5-222.8-62.3-258.2-47.6c-0.3,1.9-1.5,4.2-1,6.1c28.5,102-5.2,188.2-71.4,265.3
		c-42.3,49.3-91.7,89.8-158.5,103c-15.5,3.1-31.8,4.5-47.5,3.2c-50.8-4-85-40.9-85.2-90.9c-0.2-66.3,32.9-118.4,75.8-165.5
		c58.2-64,127-113.1,210.9-140.1c7.4-2.4,13.9-7.5,22.9-12.5c-30.5-34.2-67.7-39.7-107.4-38.1c-83.9,3.4-147.8,44.8-203.2,102.8
		c-7.1,7.4-15.9,13.3-24,19.9c-2.3-1.6-4.7-3.3-7-4.9c1.9-6.1,1.9-14,5.9-18c53-53.9,111.1-100.8,188.7-114.7
		c62.8-11.3,122.8-7.5,171.5,41.9c5.7,5.8,19.9,6.6,29.5,5.3c62.1-8.3,124.3-11.7,186.2,0c44,8.3,87.7,18.2,131.2,28.8
		c25.2,6.2,48.7,6.1,73.6-2.4c74.1-25.3,150.5-36.7,228.9-26.6c17.8,2.3,36,7.2,52.1,14.9c31.3,14.9,33.2,44.7,3.4,62.6
		c-18.4,11.1-39.7,19.1-60.8,24.2c-63.8,15.5-128.3,11.7-192.6,2.8c-30.8-4.3-61.7-8.8-92.3-14c-19-3.2-35.2,0.2-51.8,10.5
		c-59.2,36.9-102.2,88.6-140.4,144.8c-14.3,21.1-27.8,42.8-41.1,64.5c-3.6,5.9-4.8,13.1-7.1,19.9c17.6,11.8,28.4,7.2,38-7.2
		c19-28.7,44.1-48.6,81.1-42.9c11.3,1.7,25.1,9,30.9,18c8.1,12.5,2.8,27.6-8.1,38.9c-16.6,17.2-38.1,24.7-61.2,26.4
		c-18.2,1.3-28.7,9.4-36.2,25.5c-12,25.7-30.4,46.7-56.2,59.9c-9,4.6-20.3,5-30.6,7.3c-1.1-1.9-2.1-3.8-3.2-5.7
		c20.5-26.4,40.9-52.7,61.1-78.7c-20.6-18.8-33.1-17.8-45,0.7c-18.6,29-36.3,58.6-55.3,87.4c-52.2,79.3-129.6,126.2-216.8,160
		c-52.5,20.3-107.3,26.9-163.4,23.1c-39.5-2.6-76.3-13.4-108.3-36.9C15,993.2,1.3,953.7,13.3,916.8c6.4-19.7,19.2-33.8,40.1-39.4
		c16.6-4.5,32.1-2,43.1,12.2c11.6,15,9.6,30.9-0.2,45.9c-9.9,15-23.7,22.8-42.6,19.1c-5-1-9.8-2.8-15.5-4.4
		c-7.9,17.6,3.7,28.1,12.4,38.3c25.6,30,61.2,41.3,98.9,44.7c68.6,6.1,131.7-12.3,187-51.5c77.8-55.1,131.5-131.6,184.2-208.6
		c1.1-1.7,0.9-4.2,1.7-8.5c-35.5-12.9-47.1,26.9-71.9,35.4c-2.2-2-4.3-4-6.5-6.1c4.6-8.8,6.9-21.4,14.3-25.8
		c19.7-11.8,40.8-23.3,62.9-28.6c18.6-4.4,30.8-12.5,42.4-26.4c35.7-42.6,70.1-86.6,109.8-125.4c32-31.2,71-55.6,106.9-83
		C783.8,502.1,787.2,499.4,790.6,496.8z M509.6,502.9c-0.4-4.3-0.8-12.5-2.1-20.6c-5.4-32.5-9.5-36.5-41.5-28.2
		c-113,29.5-196.6,97.1-254.6,195.8c-15.7,26.8-23.4,56.6-21.5,88.1c2.6,42.7,35.1,72.1,77.8,65.2c26.3-4.2,53.5-13,76.1-26.5
		c61.3-36.7,102.7-91.9,135.1-153.9C498,586.5,507.7,547.7,509.6,502.9z M949.7,463.9c29,5.5,54.7,13,80.8,14.8
		c43.6,3.1,87.6,3.5,131.4,3.2c15.6-0.1,31.5-5.1,40.1-20.4C1181.6,421,984.1,420.5,949.7,463.9z M753.2,720.1
		c-23.4-17.3-51.6-2.7-57.8,28.5C720.9,757.8,744.1,746.8,753.2,720.1z"/>
	<path class="st0" d="M1847.1,957.4c-3.5,18.7,6.9,29.8,17.8,39.9c26.3,24.5,59.6,32.7,94.2,34.2c66.8,3,127.7-15.2,181.8-54.2
		c55.1-39.8,99.3-89.4,137.1-145.4c59.6-88.3,120.9-175.4,181.5-263c1.2-1.7,1.5-4.1-0.1-9.3c-5.8,4.4-11.3,9.4-17.6,13.1
		c-15.5,9.2-30.5,20.3-47.3,26c-47.6,16.2-95.7-16-95.2-65.5c0.2-22.2,10-44.6,17.3-66.3c6.4-19.1,16.5-36.9,23.1-55.9
		c8.4-24.1,1.5-40.1-21.6-52.2c-33.8-17.7-70.3-14.3-104.8-6c-106.6,25.6-184.8,88.1-232.3,185.3c-17.4,35.5-23.4,74.1-11.3,113.5
		c15,48.6,58.1,76.3,109.9,71.1c54.7-5.5,99.6-29.5,137.3-68.1c7.3-7.4,12.8-19.7,30.8-12.1c-3.1,6.9-4.5,14.4-9,19.1
		c-47.9,50.7-104,84.6-177.7,81c-69.3-3.3-118.5-54.2-119.4-122.4c-1.2-91.2,47.5-156.7,113.9-212.2c64-53.5,137.4-84.6,223.3-81.7
		c79.2,2.6,117.4,54.7,93.2,129.1c-8.1,24.8-20,48.3-30.2,72.4c-6,14.2-11.1,29.2,0.3,42.3c12.1,14,29,11,44.7,7.1
		c29.6-7.2,49.6-27.6,68.8-49.2c7.4-8.3,15.8-15.8,23.7-23.7c2.4,1.3,4.7,2.7,7.1,4c-1.2,8.7-2.4,17.3-4.2,30.2
		c9.6-7,18.4-11.9,25.2-18.7c33.8-34.2,73.5-60.1,117-80.5c8.6-4,18.8-4.9,28.3-7.3c1.3,2.3,2.6,4.5,4,6.8
		c-4.3,5-7.7,12.1-13.2,14.6c-54.2,25.2-93.1,66.3-124.9,114.7c-18.9,28.8-36.4,58.6-54.3,88.1c-3,4.9-4.6,10.7-7.8,18.2
		c31,8.4,59.3,14.5,89.6,2c59.2-24.4,101.8-69.3,147.9-110.5c49.4-44.1,98.5-88.9,151.1-129.1c47.5-36.3,103.6-56.9,164.5-59.6
		c20.8-0.9,43.1,1,62.7,7.3c84.5,27.3,90.8,103,59.5,156.8c-28.6,49.2-76.6,75.3-129.2,93.8c-5.5,1.9-12.8-1.3-19.3-2.1
		c-0.6-2.6-1.1-5.1-1.7-7.7c9.5-4.8,18.7-10.1,28.4-14.2c41-17.4,74.8-43.1,95.5-82.6c33.9-64.7-1.9-124.9-76-127.2
		c-46.2-1.5-89.8,10.5-126.1,38.5c-36.4,28-71,58.5-103.9,90.4c-54.2,52.5-106.7,106.7-175.3,141.7c-17.5,8.9-36.2,15.4-54.3,23
		c-8.1,3.4-16,7.1-26.7,11.8c30.6,39.5,32.6,81.4,22,125.3c-8.1,33.4-16,66.9-23.6,100.4c-2.6,11.6-5.2,23.5-5.7,35.3
		c-2.8,60.1,50.6,95.1,106.9,70.5c19-8.3,19-8.3,33.3-3.9c-14,22.8-36.7,28.9-59.3,31.9c-52.6,7-102.8-25.8-126.9-79.9
		c-16.1-36-15.7-72.8-5.9-109.7c7.3-27.4,18.4-53.9,25-81.4c5-20.8,7.4-42.5,7.9-63.8c0.4-16.6-11-22.5-28.3-25.3
		c-40.4-6.5-62.1,8.4-79.6,45c-30.4,63.6-68.4,123.5-122.8,170.9c-75.3,65.7-160.9,112.3-261.3,129c-53.7,8.9-106.3,4.5-155-22
		c-41.5-22.5-60.6-62.7-50.1-103c6.8-26.3,27.8-44.3,52.7-45.2c25.7-0.9,40.2,11.3,41,34.4c0.8,24.6-17,45.4-39.9,45.7
		C1865.7,961,1857.5,958.8,1847.1,957.4z"/>
	<path class="st0" d="M4720.3,763.8c-9.1,7.5-19.7,13.8-27.1,22.6c-21.8,25.8-41.7,53.1-63.6,78.9c-26.7,31.6-53.5,63.5-95.4,77.1
		c-5,1.6-10.6,4.3-15.4,3.5c-28.5-4.6-43.4,12.6-60.4,31c-16.6,17.9-36.4,34.3-57.8,46.2c-44.7,24.9-97.5,2.7-114-45.3
		c-4.4-13-8.2-26.1-13.9-44c-9.5,9.1-15.3,14.3-20.8,20c-26.2,27.2-53.1,53.3-88.3,69.5c-33.1,15.3-65.2,14.9-94.6-7
		c-29.4-21.8-42.6-51.8-38.8-88.2c3.1-30,16.7-55.6,35.4-78.8c34.2-42.6,77.8-72.9,128-94.5c5.5-2.4,11.5-3.8,17.4-5.2
		c52-12.6,82,15.7,70.8,67.2c-5.9,27-20.3,49.7-39.9,69.1c-4.7,4.7-10.7,8.4-16.7,11.4c-13.5,6.9-26.6,6.1-37.4-5.3
		c-10.2-10.7-11.5-24.8-3-35c11.2-13.5,26.5-23.6,39.9-35.4c10.5-9.3,22-17.9,30.6-28.7c3.3-4.2,2.6-16-1.2-19.9
		c-4.7-4.8-16.2-8.9-21.4-6.4c-16.2,7.6-33.1,16.2-45.5,28.5c-37.6,37.4-69.2,79.5-88.3,129.1c-6.3,16.4-9.4,34.8-9.6,52.4
		c-0.3,28,16,42.5,43.8,37.1c19.4-3.7,39.1-12.2,55.8-22.8c45.3-29,77.9-70.7,108.4-113.6c39.5-55.5,92.7-94.1,154.6-121.5
		c15.4-6.8,33.8-9.3,50.9-9.9c30.2-1.1,46.6,14.8,48.7,44.5c2.8,38.9-11.5,73.2-31.4,105.7c-5.3,8.7-10.2,17.7-15.3,26.6
		c0.8,2.1,1.6,4.1,2.4,6.2c9.6-0.8,20.1,0.7,28.5-2.9c26.7-11.5,49.3-28.3,66.5-52.5c21.8-30.5,45.4-59.8,69.1-88.9
		c8.5-10.4,18.7-19.8,29.6-27.7c32.1-23.5,66.6-9.2,73.9,30c1.4,7.8,2.4,15.6,4.4,29.4c9.4-9.2,14.7-14.7,20.3-19.9
		c13.6-12.9,26.2-27.3,41.3-38.2c38.3-27.6,78.6-11.3,89,34.8c1.7,7.5,3.5,15,6.5,27.4c10.3-10.7,16.6-18,23.6-24.4
		c15.1-13.6,29.3-28.6,46.2-39.7c41.6-27.4,89.1-2.8,93.1,46.5c2.2,27.3-5.6,51.9-19.4,74.6c-18.6,30.8-39.4,60.3-57.4,91.3
		c-6.2,10.6-7,24.3-9.9,35.4c17.3,10.9,30,9.2,39.7-0.7c25.2-25.6,49.9-51.8,73.6-78.8c12.8-14.6,23-31.5,34.8-47.1
		c4.8-6.4,11-11.8,21.1-16.3c0,5.1,2.1,11.7-0.3,14.9c-35.9,48-68.1,99.2-117.7,135.6c-32.3,23.8-50.7,25.4-74.4,8.8
		c-25.5-17.9-38.8-51.9-25.1-81.6c16.2-35,38.4-67.3,57.9-100.8c8.7-14.9,18.3-29.3,25.6-44.8c3.7-7.9,3.2-17.7,4.6-26.4
		c-25.2-10.8-41.7,0.6-54.2,13.8c-27.7,29.5-55.1,59.7-78.7,92.3c-29.4,40.7-55.3,83.9-82.1,126.3c-19.2,30.4-42.7,37.6-82.5,21.1
		c2.5-7.4,3.8-15.9,7.9-22.9c34.1-58.2,68.8-116,103-174.1c4.5-7.7,7.8-16.2,10.9-24.6c4.1-11.1,10.8-23.7-2.1-32.6
		c-13.2-9.2-24.1,1.8-31.8,9.6c-23.2,23.5-47.6,46.7-66.2,73.5c-34.6,49.9-65.8,102-97.7,153.6c-14.2,22.9-47.9,34.9-72.5,23.6
		c-14.3-6.6-9.1-16.8-3.4-26.2c16.1-26.2,33.2-51.8,48.7-78.3c24.6-42,48.5-84.4,71.7-127.1c4.3-7.9,3.6-18.4,5.2-27.8
		C4726.1,766.3,4723.2,765.1,4720.3,763.8z M4372.2,1012.2c3.4-0.8,12.1-1.4,19.4-4.8c30.4-14.1,53.2-37,71.3-64.1
		c3.7-5.5,2.9-15.9,0.6-22.9c-13.4-40.5,9.9-85.9,51.3-100.2c6.7-2.3,14.9-8.8,16.8-15.1c8.4-26.7-14.1-48.9-41.2-40.5
		c-12,3.7-23.5,10.6-33.4,18.4c-43.4,34.2-74.5,78.5-99.5,126.4c-11.2,21.4-17.4,46-21.6,69.9
		C4331.7,1002.1,4343.9,1012.5,4372.2,1012.2z"/>
	<path class="st0" d="M3932.3,964c-0.1,27.1-34.7,63.1-62.6,65c-22,1.5-37.4-16.3-32.4-37.5c6.1-25.6,36.1-52.3,62.3-55.4
		C3918.8,933.8,3932.4,945.4,3932.3,964z"/>
	<path class="st0" d="M2899.1,667.6c-0.2,25.2-26,50.3-51.8,50.4c-19.9,0.1-32.4-14.3-29.3-33.8c3.3-21.1,29-43.9,50.8-45.1
		C2887,638.1,2899.3,649.7,2899.1,667.6z"/>
	<path class="st0" d="M1258.5,724.3c-18,0.2-30.5-11.9-30-29c0.6-23.1,26.6-48.2,50.6-49c19.8-0.6,30.5,9,30.5,27.3
		C1309.5,698.4,1283.7,724.1,1258.5,724.3z"/>
</g>
</svg>
