<svg xmlns="http://www.w3.org/2000/svg" viewBox="0 0 204.22 90.06"><defs><style>.cls-1{fill:#fff;}</style></defs><title>logo-horny-doctor</title><g id="Layer_2" data-name="Layer 2"><g id="Layer_1-2" data-name="Layer 1"><path class="cls-1" d="M42,43.36c0-.08-.05-.15-.07-.23-.06-.39-.11-.76-.14-1.13a4.42,4.42,0,0,0-.23-1.11l-.57.79-.13-.78c-.2,0-.33.09-.39.36a1.89,1.89,0,0,0-.05.61l-.31.55q-.74-3.27-1.22-6.48t-1.13-6.5l.5,0a.84.84,0,0,1,.11-.57.85.85,0,0,0,.11-.57l.76-.23a3.43,3.43,0,0,1,.15-.92,2,2,0,0,0,.05-.91,1.3,1.3,0,0,1-.36-.39.38.38,0,0,1,0-.45l-.34-.24-.19,0-.45-.32c-.05.08-.17.06-.36,0s-.25-.19-.19-.27l-.63-.19a60.39,60.39,0,0,1-.75-7.26A59.2,59.2,0,0,0,35.46,10a11.23,11.23,0,0,1-.15-2.12,11.32,11.32,0,0,0-.15-2.12,10.51,10.51,0,0,0-.34-1.44,10.5,10.5,0,0,1-.34-1.44l-.34-.24-.61-1.3A6.44,6.44,0,0,1,31.81,0l-.92.15A4.68,4.68,0,0,1,30,.21l-.16.23a3.21,3.21,0,0,1-.94.35l-.29,0q0,5.08.41,10.31t1.2,10.28l.11.68.17,1a4.56,4.56,0,0,1,.06,1,.76.76,0,0,1-.2.58l-.93.15a4.81,4.81,0,0,1-.94.06c.15.11.08.22-.2.33a4,4,0,0,1-.52.19,8.43,8.43,0,0,1-.94.1q-.45,0-1,0l-.49.08c-.65.11-1.37.21-2.16.31a9.26,9.26,0,0,0-2.12.5l-.44.37a2.42,2.42,0,0,0-1.41.28q-.79.38-1.15,0l-1.66.57-1.19.4-.67.21-.11-.08a.78.78,0,0,1-.47.18,1.12,1.12,0,0,1-.5,0l-.26-1q-.51-3.11-1-6.38a51.41,51.41,0,0,1-.47-6.46q0-1.2,0-2.49a16.22,16.22,0,0,0-.21-2.46l-.26-1-.11-.08L11,7.94l-.34-.24c0-.14,0-.29-.28-.45a2.09,2.09,0,0,1-.47-.42l-.4,0-.24-.26-.38.06a.84.84,0,0,0-.62-.2l-.09,0A.17.17,0,0,1,8,6.64a1.06,1.06,0,0,0-.54-.31l-.83.59a4.47,4.47,0,0,1-.76.47l-.22-.16q.07,4.58.16,9a62.11,62.11,0,0,0,.84,8.94l.11.08-.15.32.84,5.05a19,19,0,0,1-2,1q-1,.41-2,.88l-.16.23a2.74,2.74,0,0,1-1,.36,2.76,2.76,0,0,0-1,.36l-.42-.13-.45.28a3,3,0,0,0-.28,1.34A5.48,5.48,0,0,1,0,36.3a3.67,3.67,0,0,0,.24.86A3.67,3.67,0,0,1,.48,38l.34.24.5,0a.32.32,0,0,0,.06.34c.08.09.18.09.3,0l.28.45a3.47,3.47,0,0,0,.52.11,1.59,1.59,0,0,0,.5,0,5.7,5.7,0,0,0,1-.27l1-.36.52.11a.89.89,0,0,1,.6-.3l.73-.12L7.07,38l.68-.11.73-.42a6.5,6.5,0,0,1,.6,1.85q.35,1.49.69,3.28t.62,3.44l.37,2.23a2.12,2.12,0,0,1,0,.49.4.4,0,0,0,.21.36q0,.29.26,1.26l.43,2q.22,1.06.42,2t.41,1A11.47,11.47,0,0,0,13,57.2,11.65,11.65,0,0,1,13.43,59a2.61,2.61,0,0,1,.78,1.17,1.25,1.25,0,0,1,1.12.81,1.31,1.31,0,0,1,1.48.05.66.66,0,0,1,.3,0,.68.68,0,0,0,.3,0,1.55,1.55,0,0,0,.64-.3l.29,0a7.1,7.1,0,0,0,.92-1,3,3,0,0,0,.6-1.15.74.74,0,0,1-.16-.67,1.52,1.52,0,0,0,0-.7.84.84,0,0,0-.09-.24.22.22,0,0,1,0-.25l-.06-.39.16-.23.16-2a4,4,0,0,1-.69-2.68,14.2,14.2,0,0,0-.11-2.78.58.58,0,0,0-.16-.37,1.56,1.56,0,0,1-.34.36,1.53,1.53,0,0,0-.34.36l-.13-.18a1.58,1.58,0,0,1,0-.5.45.45,0,0,0-.18-.47,3.65,3.65,0,0,0-.11.52c0,.2-.11.32-.24.34s-.2,0-.21-.07a33.92,33.92,0,0,0-1.14-5.95,52.77,52.77,0,0,1-1.33-5.92,4.43,4.43,0,0,1,0-1.6l.78-.13q.68-.11.33-.45l.57-.19c.19,0,.55-.11,1.07-.23s1.08-.26,1.68-.43,1.16-.34,1.67-.53a9.26,9.26,0,0,0,1-.42l7.41-1.33c.32-.05.67-.13,1-.22a2.79,2.79,0,0,1,1.15,0l.22,1.36q.72,4.37,1.67,8.6c.1.44.19.9.28,1.34H25.81V87.25H37.19a10.76,10.76,0,0,0,8.68-3.71c3-3.33,3.27-8.43,3.27-18.75s-.25-15.29-3.27-18.62A10.47,10.47,0,0,0,42,43.36ZM40.59,79.07A4.07,4.07,0,0,1,37,80.9H32.85V48.82h2.24c.05.3.11.6.16.91a4,4,0,0,0,.86,1.9A4.69,4.69,0,0,1,37,53.32a1.25,1.25,0,0,0,.86.36c.18-.1.29,0,.33.19s.15.32.35.29l.11.08c.06,0,.12-.08.16-.23s.14-.16.29,0a.36.36,0,0,0,.48.17.61.61,0,0,1,.56.06,2.19,2.19,0,0,1,.4.63.88.88,0,0,0,.68.49,3.46,3.46,0,0,1-.26-.66.57.57,0,0,1,.15-.62.52.52,0,0,0,.44-.07l.07,0a80.15,80.15,0,0,1,.43,10.86C42.1,72.59,42,77,40.59,79.07Z"/><path class="cls-1" d="M64.68,42A10.63,10.63,0,0,0,56,45.8c-3,3.59-3.27,8.43-3.27,19.06S53,80.33,56,83.92a10.63,10.63,0,0,0,8.68,3.84,10.63,10.63,0,0,0,8.68-3.84c3-3.52,3.27-8.43,3.27-19.06s-.25-15.54-3.27-19.06A10.63,10.63,0,0,0,64.68,42Zm3.4,37.74a3.72,3.72,0,0,1-3.4,1.7,3.61,3.61,0,0,1-3.33-1.7C60,77.56,59.77,73,59.77,64.86S60,52.15,61.34,50a3.61,3.61,0,0,1,3.33-1.7,3.72,3.72,0,0,1,3.4,1.7c1.32,2.14,1.51,6.67,1.51,14.85S69.39,77.56,68.07,79.7Z"/><path class="cls-1" d="M92.48,48.31a3.57,3.57,0,0,1,3.33,1.64,8.38,8.38,0,0,1,1.07,4.34h7c-.13-4-1.32-7.36-3.59-9.44A10.8,10.8,0,0,0,92.48,42a10.63,10.63,0,0,0-8.68,3.84c-3,3.52-3.27,8.43-3.27,19.06s.32,15.54,3.27,19.06a10.63,10.63,0,0,0,8.68,3.84,10.46,10.46,0,0,0,7.74-2.83c2.26-2.08,3.59-5.54,3.71-9.56h-7a8.78,8.78,0,0,1-1.07,4.4,3.57,3.57,0,0,1-3.33,1.64,3.61,3.61,0,0,1-3.33-1.7c-1.38-2.14-1.57-6.67-1.57-14.85S87.76,52.15,89.14,50A3.61,3.61,0,0,1,92.48,48.31Z"/><path class="cls-1" d="M140.91,42a10.63,10.63,0,0,0-8.68,3.84l-.16.21a1.37,1.37,0,0,0,.12-.82l0-.29q-.49.07-.36-.1c.08-.11.05-.22-.1-.33l.36-.25c-.14,0-.2-.12-.18-.22a.61.61,0,0,1,.11-.26l-.14-.28-.32-.15a.39.39,0,0,0,.24-.43l0-.19a.35.35,0,0,1-.44-.33v-.1l.4,0c-.34-.08-.43-.22-.26-.41a.7.7,0,0,0,.22-.58q-.43-3-.91-6t-1-6l-.39.05.42-.56-.15-.37-.33-.25.25-.33-.2,0a11.85,11.85,0,0,0-.1-2.12l-.3-2.1.07-.21-.14-.28a3,3,0,0,0,.26-1.63.62.62,0,0,1-.27.19c-.13.05-.2,0-.22-.12l-.26-1.85a7.68,7.68,0,0,1-.07-1.88,1.31,1.31,0,0,1,0-.3.29.29,0,0,0-.09-.28,9.79,9.79,0,0,1-.09-1c0-.33,0-.66,0-1l.08-.11a1,1,0,0,1-.16-.42.35.35,0,0,1,.15-.37.39.39,0,0,1-.12-.48,1.16,1.16,0,0,0,.08-.51.57.57,0,0,0-.25-.36l.68-.1-.36-.45c.08.12.15.11.2,0s0-.24,0-.29l-.29,0v-.1a.63.63,0,0,1,.3-.64l0-.89a2.81,2.81,0,0,0-.13-.53,4.78,4.78,0,0,0-.22-.52l.15-.32-.4,0a1.94,1.94,0,0,0,0-.95,1.91,1.91,0,0,1,0-.95l-.39-.64a2.47,2.47,0,0,0-.63-.21c-.2,0-.33-.22-.38-.54-.25.1-.52,0-.82-.28l-.67.1.06-.31a1.08,1.08,0,0,0-.78,0,1.94,1.94,0,0,1-.86.12,2.29,2.29,0,0,0-.7.6l-.59,0a1.19,1.19,0,0,1,0,.45c0,.17-.12.27-.25.29h-.1l.12.88c-.17-.3-.38-.38-.62-.21.17.24.18.44,0,.59a1,1,0,0,0-.26.54,5.92,5.92,0,0,1,.33,2,17,17,0,0,0,.16,2.12l-.08.11.19.67a2.5,2.5,0,0,0,0,1.14q.14.63.22,1.21a1.56,1.56,0,0,0-.1.71A8.26,8.26,0,0,0,122,18l-.12.51q.11.78.17,1.57t.17,1.57a3.09,3.09,0,0,0-.21,1.32l-.28.14-.33,1.14c.07.06,0,.21-.08.46s-.26.39-.39.4v.7l-.28.14,0,.4-.26.24,0,.4a2.09,2.09,0,0,0-.88.82,1.82,1.82,0,0,0-.7-.7l-.39.06a3.42,3.42,0,0,0-.1-.38c-.06-.19-.16-.28-.29-.26a14.4,14.4,0,0,1-2.51-3.27,33.5,33.5,0,0,1-1.77-3.68l-.11-.08q0-.1-.21-.77c-.13-.44-.27-.92-.4-1.43s-.26-.95-.39-1.38,0-.64.05-1l-.15-.07.12-.12-.1-.05.08,0,.67-.89-.21-.07q-.39.06-.52.57c-.15-.11-.23-.12-.25,0a.2.2,0,0,1-.12.14,8.92,8.92,0,0,1,0-1.56l-.67-.5.17-.22a.75.75,0,0,1-.57-.17l-.5-.38a4.82,4.82,0,0,1-.85,0,4.43,4.43,0,0,1-.86-.13l-.24.43-.14-.28a3.16,3.16,0,0,1-1.31.59l-.32-.15-.46.26c.2,0,.23.23.08.58l-.39.06c.23.23.17.51-.18.82l.25.36-.18.12v.1a.8.8,0,0,0,.28.56,12,12,0,0,0,.62,2.94c.3.92.6,1.76.89,2.55a.31.31,0,0,0-.09.27l.14.28-.56.28A.83.83,0,0,1,107,22a1,1,0,0,0-.34.74l-.56.28.15.38L106,24a1.49,1.49,0,0,0-.57.88,8.63,8.63,0,0,1-1.05,1.34,2.56,2.56,0,0,0-.73,1.5,2.72,2.72,0,0,0-.72.9,2.7,2.7,0,0,1-.72.9l-.29-.65.06-.31a4.33,4.33,0,0,1-.45-1.73l-.22-.17.18-.12-.26-.46a.6.6,0,0,1-.1-.38.36.36,0,0,0-.09-.29l.06-.31a7.28,7.28,0,0,1-.29-1.35l.07-.21a4.06,4.06,0,0,1-.2-1.07q0-.49,0-1.09l-.14-.28,0-.5a1.29,1.29,0,0,1-.28-1.25,3.26,3.26,0,0,1-.19-1c0-.33,0-.65-.09-1l-.26-.46.22-.53c-.28-.09-.44-.37-.47-.83s-.06-.79-.09-1l-.4-.74.36-.25a.9.9,0,0,1-.37-.84,1.59,1.59,0,0,0-.08-.88l-.24-.26L98.56,11a1.6,1.6,0,0,1-.43-.93L97.92,10l-.17-.47c-.2,0-.32-.18-.36-.45l0-.2-.56-.42-.19,0-.43-.24-.13-.18-.39.06-.19,0h-.1L95.44,8a1.8,1.8,0,0,0-1.1,0A4.44,4.44,0,0,1,93.16,8a2.89,2.89,0,0,1-.57.53A3,3,0,0,0,92,9L91.7,8.9l-.08.81-.22-.17a1,1,0,0,0-.11.61,1.88,1.88,0,0,1,0,.6.77.77,0,0,0-.71.6,1.18,1.18,0,0,1-.59.78l-.29.74,0,.29a4.2,4.2,0,0,0-.82,1.91l-.28.14,0,.4a.62.62,0,0,0-.24.38c0,.17-.09.33-.13.47a.09.09,0,0,1-.08.11.09.09,0,0,0-.08.11l-.22.53a1,1,0,0,1-.1.66.84.84,0,0,0-.12.56,1.75,1.75,0,0,0-.42.86,4.33,4.33,0,0,1-.13.82l-.08.11a3.07,3.07,0,0,0-.1.71c0,.33-.09.51-.22.53a4.64,4.64,0,0,0-.29,1.09,3.88,3.88,0,0,0-.1,1.06l-.22.53.11.08-.14.42a3.32,3.32,0,0,1,0,.49c0,.2-.07.31-.2.33h-.1l-.12-.88h-.1a.28.28,0,0,1,.07-.21l-.21-.07.08-.81a7.89,7.89,0,0,1-.63-3,12.7,12.7,0,0,0-.45-3.12l.26-.24a.53.53,0,0,1-.22-.47,1.79,1.79,0,0,1,.08-.51l-.15-.37v-1.3l-.13-.18.14-.42a3.57,3.57,0,0,1-.24-.61.88.88,0,0,1,.05-.65A1.9,1.9,0,0,1,83.6,12l-.07-.49L82.75,11l-.15-.38a1.77,1.77,0,0,0-.59-.26,1.64,1.64,0,0,0-.65-.06l-.19,0-.67-.5c-.09.28-.24.4-.45.36a.41.41,0,0,0-.41-.09.4.4,0,0,1-.41-.09q-.11.61-.6.68a.4.4,0,0,1-.31-.06l.18.57-.29,0,.08.59-.27.93.27.46a7.73,7.73,0,0,0,0,2A9.79,9.79,0,0,0,78.64,17c-.14,0-.22,0-.24.08s0,.18.18.22a12.72,12.72,0,0,0,.29,2.74,13,13,0,0,1,.29,2.74l.13.18a3.11,3.11,0,0,1,0,.49.77.77,0,0,0,.12.48l.11.08a6.23,6.23,0,0,1,.06.79,1.33,1.33,0,0,0,.26.76l-.08.81c0,.13.07.42.17.87l.31,1.45a10.76,10.76,0,0,1,.21,1.46,3,3,0,0,1,0,.9,5.86,5.86,0,0,1,.63,1.65q.24,1,.35,1.79l.11.78a1.91,1.91,0,0,1,.41.44,1.31,1.31,0,0,1,.23.56l0,.5.35.35a1,1,0,0,1,.45.38c.09.15.26.21.52.17l.06.39c.45-.07.7,0,.74.29l.54.32a5.25,5.25,0,0,0,1.07.15,2.77,2.77,0,0,0,1-.15.17.17,0,0,0,.22.17,1,1,0,0,0,.52-.22,2.33,2.33,0,0,0,.39-.4l.15-.32c.21.1.34.1.4,0a.33.33,0,0,1,.27-.19l.29,0a4.53,4.53,0,0,1,.61-1.28,1.07,1.07,0,0,1,.15-.32,1.19,1.19,0,0,0,.15-.32l.18-.13a1.92,1.92,0,0,0,0-.6.58.58,0,0,1,.22-.53l-.15-.38.19,0,0-.19h.1c0-.2.07-.44.1-.71a1.25,1.25,0,0,1,.21-.63v-.7l.18-.13L91,31.67l.25-.34-.11-.08c0-.34.08-.86.17-1.57s.22-1.46.38-2.24.28-1.5.39-2.14A5.44,5.44,0,0,0,92.17,24l.25-.33-.24-.26h.1a11.55,11.55,0,0,0,.66-2,14,14,0,0,0,.35-2.09l.18-.12,0-.5.39-.06q.21,1.46.32,2.94a13.71,13.71,0,0,0,.5,2.81l-.06.31a8.66,8.66,0,0,1,.44,2,9.47,9.47,0,0,0,.45,2.12l.11.08A7.45,7.45,0,0,1,96,30.36c.14.77.23,1.23.24,1.36a2.5,2.5,0,0,1,.7,1.39c.22.17.3.29.25.36a.49.49,0,0,1,.15.33c0,.16.1.23.23.22l.28.56a6.5,6.5,0,0,1,.92.86,2,2,0,0,1,.86.42,4.23,4.23,0,0,0,.77.54l.29,0,.24.26.42.14.46-.26h.6a.87.87,0,0,0,.6.41.94.94,0,0,1,.59.31l.19,0a.28.28,0,0,0,.18-.12.09.09,0,0,0-.11-.08l-.11-.08.26-.24.63.21.47-.17a2.79,2.79,0,0,1,.52-.57V36c0-.13-.08-.19-.17-.17s-.16,0-.17-.17l0-.19a2.55,2.55,0,0,1,.54-.38,1.23,1.23,0,0,0,.45-.36l-.17-.47.52-.57a.63.63,0,0,0,.24-.43c0-.2.12-.32.25-.33h.1a.64.64,0,0,1-.07-.49,1.09,1.09,0,0,0,0-.5.9.9,0,0,0,.59-.73,1.19,1.19,0,0,1,.58-.83l.07-.21c0-.13-.14-.28-.36-.45l.33-.45a.41.41,0,0,0,.39-.06.19.19,0,0,0,.06-.31l-.22-.17.25-.33-.18-.57c.41.08.59-.08.53-.47a1.11,1.11,0,0,0-.17-.47l.58-.08q.07-.21.18-.47c.07-.17.14-.33.18-.47l-.28-.56a1.26,1.26,0,0,0,.43-.61,3.17,3.17,0,0,1,.56,1.26l.32.15.28.56.21.07.46.43a1.88,1.88,0,0,1,.22.52.5.5,0,0,0,.4.39,6.21,6.21,0,0,0,.49.63,2.52,2.52,0,0,0,.67.5,3,3,0,0,0,.66.8c.26.23.51.46.74.69a.23.23,0,0,1,.25.36l.5,0,.24.27h.66s0,0,0-.08a.29.29,0,0,1,.07-.21l.4.74.93.22.93.21.12.18a2.07,2.07,0,0,0,.79-.06,1.37,1.37,0,0,1,.8,0l.61-.58q.14.28.5,0a2.56,2.56,0,0,1,.82-.17,2.47,2.47,0,0,0,.82-.17l.43.24q-.33.45.14,1l.09.63.16,1.12.22,1.56a3.58,3.58,0,0,1,.17,1.17,2.41,2.41,0,0,0,.27,1.16v.6l.17.47-.12,1.21a1.4,1.4,0,0,1,.36.79c.07.32.13.68.19,1H105.18v6.35h7.49V87.25h7V48.82h7.06a3.53,3.53,0,0,0,.46,1.35l0,.4a1.26,1.26,0,0,1,.17.52l.08.54.24.26.17,1.17c0,.13.08.2.18.22a.22.22,0,0,0,.23-.08v.1a.45.45,0,0,1-.22.53.67.67,0,0,1,.37.55.81.81,0,0,0,.28.56.77.77,0,0,0,.08.54A3.29,3.29,0,0,0,129,56h.11c-.16,2.43-.2,5.32-.2,8.88,0,10.63.32,15.47,3.27,19.06a11.74,11.74,0,0,0,17.36,0c3-3.52,3.27-8.43,3.27-19.06s-.25-15.54-3.27-19.06A10.63,10.63,0,0,0,140.91,42ZM128.15,52.42a.23.23,0,0,1-.27-.16,1.61,1.61,0,0,1-.1-.38,1.11,1.11,0,0,0,.24.26,1.15,1.15,0,0,1,.24.26Zm3-9.48V43a.35.35,0,0,1-.44-.33Q131.13,42.65,131.17,42.94Zm-2.06,12.72c0-.19,0-.3.06-.31l0,0c0,.13,0,.27,0,.41A.72.72,0,0,1,129.11,55.66Zm15.19,24a3.72,3.72,0,0,1-3.4,1.7,3.61,3.61,0,0,1-3.33-1.7C136.25,77.56,136,73,136,64.86s.25-12.71,1.57-14.85a3.61,3.61,0,0,1,3.33-1.7,3.72,3.72,0,0,1,3.4,1.7c1.32,2.14,1.51,6.67,1.51,14.85S145.62,77.56,144.3,79.7Z"/><path class="cls-1" d="M180.41,55.67c0-9.25-3.27-13.21-11.45-13.21H157.64V87.25h7V68.88h4l5.85,18.37h7.36l-6.67-19.88C179.28,65.17,180.41,61.21,180.41,55.67ZM169,62.53h-4.34V48.82H169c3.77,0,4.34,3.15,4.34,6.86S172.8,62.53,169,62.53Z"/><path class="cls-1" d="M54,43.15a4.67,4.67,0,0,1,1.91-.89.9.9,0,0,1,.42-.36,1.75,1.75,0,0,0,.44-.26l.52-.74.38-.1a4.75,4.75,0,0,0,.52-.74l.31,0,.29-.48a1.79,1.79,0,0,1,.69-1.29,1.36,1.36,0,0,1,.26-1,6,6,0,0,0,.07-1.74c0-.06,0-.11.17-.14L59.82,35l.14-.24q0-1.43.15-3.24a10.75,10.75,0,0,0-.26-3.23l-.36-1.43a6.09,6.09,0,0,1-.17-1.48L59.12,25l.07-.53a1.45,1.45,0,0,1-.35-.78,2.42,2.42,0,0,1,0-.87l-.45-.19.26-.17c-.19,0-.28,0-.25-.19s.05-.33.08-.48a1.65,1.65,0,0,1-.37-.67,2,2,0,0,0-.25-.6l0-.21a1.23,1.23,0,0,1-.32-.68,5.18,5.18,0,0,0-.13-.73l-.24-.14L57,18l-.1,0-.07-.29-.09,0-.07-.29-.1,0-.26-.64a2.48,2.48,0,0,1-.86-1l-.31,0a1.93,1.93,0,0,0-.62-.86l-.57-.26a3.06,3.06,0,0,1-.38-.45c-.07-.1-.14-.19-.22-.31l.07-.06c-.49-1-3.85-2.85-3.85-2.85l-.8-.15A1.87,1.87,0,0,0,48,11l-.29.07L47,10.6l-.53.34-.36-.21a2.9,2.9,0,0,0-1.1.07,7,7,0,0,1-1.17.19l-.41.41L43,11.2l-.62.77-.19,0-.31.38c.13,0,.12,0,0,.11a1.21,1.21,0,0,1-.41.2.2.2,0,0,1-.15,0,.21.21,0,0,0-.16,0l0,.31-.21,0-.45.22.17.67-.36.6c0,.19,0,.29,0,.31l.17.67a2.1,2.1,0,0,0-.2.81q-.06.57-.09,1.24c0,.45,0,.86,0,1.23s0,.67,0,.87l-.12-.07,0,1-.07.12a5.87,5.87,0,0,0,.06,1.66q.16,1.23,0,1.37a43.22,43.22,0,0,0,.47,4.3q.35,2.2.88,4.3.36,1.43.82,2.84a15.27,15.27,0,0,0,1.2,2.74l.24.14.1.38.26.24c0,.15,0,.24.12.28s.15.13.12.27a8.32,8.32,0,0,0,.92,1,12.62,12.62,0,0,1,.9.94l.43.1c0,.14.08.33.35.57a7.45,7.45,0,0,1,.54.52,2.66,2.66,0,0,1,1,.36,2.59,2.59,0,0,0,1,.36l.26.24a5.26,5.26,0,0,1,.88.28l.62,0,.24.14.33-.29.19.36.19,0c.06,0,.17-.14.31-.38l.48.29a1.13,1.13,0,0,1,.57-.35Zm-1.8-4.32-.24.26-.69.07a3.55,3.55,0,0,1-1.6-1.12l-.07-.29-.36-.21-.07-.29L48.64,37a.79.79,0,0,1-.17-.47.8.8,0,0,0-.17-.47l-.09,0-.07-.29-.1,0a8.78,8.78,0,0,0-.42-1.26,8.75,8.75,0,0,1-.42-1.27c-.16-.09-.21-.15-.14-.17a.09.09,0,0,0,.07-.12l-.39-1.53q-.24-1-.45-2t-.35-2a5.67,5.67,0,0,1-.08-1.5c.13,0,.15-.26.08-.68s-.12-.7-.16-.82a.4.4,0,0,1-.17-.26c0-.13,0-.17.17-.14a7.77,7.77,0,0,1-.15-1c-.05-.46-.09-.91-.14-1.34s-.09-1-.14-1.74l.17-.14-.1-.79.14-.24.09-.84.14-.24c.06-.29.34-.44.85-.47a6.32,6.32,0,0,0,1-.11l.31-.38a3.46,3.46,0,0,0,1-.14.7.7,0,0,0,.77.21l.09,0q-.12.33.26.44a.57.57,0,0,1,.45.39l0,.1q.33.52.69,1.14a12.09,12.09,0,0,1,.6,1.17c.06,0,.12.07.17.26.18.7.38,1.43.6,2.18s.43,1.52.63,2.28a8.63,8.63,0,0,1,.12.88q.07.69.19.76l.12.88-.09.43.12.07.07.69c-.15,0-.18,0-.12.13a1.41,1.41,0,0,1,.12.27.09.09,0,0,0-.07.12.39.39,0,0,0,.17.26l0,2.13c.14,0,.21.1.2.2s-.08.14-.23.11v1.62l-.17.14a3,3,0,0,1,0,1.42,7.07,7.07,0,0,0-.16,1.56l-.24.26c-.1.16-.29.55-.57,1.16S52.3,38.87,52.16,38.83Z"/><path class="cls-1" d="M116.89,31.35h-.14a0,0,0,0,0,0,0Z"/><path class="cls-1" d="M78.72,8.75l.18-.09c.4.21.64.17.71-.11l.19.15.66-.45-.59-.07.3-.27.14.05a4.06,4.06,0,0,0,.55-.33.5.5,0,0,1,.61,0q.4-.07.34-.65l.67,0a2.48,2.48,0,0,0,.46-.29,2.55,2.55,0,0,1,.46-.29l.41,0a.56.56,0,0,0,.36-.06c.06,0,.06-.11,0-.24l0-.1A1.55,1.55,0,0,0,83.38,6c-.21,0-.39-.13-.55-.45l0-.1a.25.25,0,0,1-.33.1.45.45,0,0,0-.38,0l-.18.09-.33-.44h-.76A3.08,3.08,0,0,0,80,5a3,3,0,0,1-.82-.21,6.9,6.9,0,0,0-.94.1,3.39,3.39,0,0,0-.84.29l-.26.13a1,1,0,0,1-1-.33,2.16,2.16,0,0,0-.85.18,3.9,3.9,0,0,1-.8.27l-.18-.15a4.77,4.77,0,0,0-1.11.43q-.08.28-.62.31a2.11,2.11,0,0,0-.71.11c-.35.17-.69.36-1,.55s-.62.41-.94.65l-.51.19q-.42.15-.24.3L68.76,8l0,0L68.64,8l0,0,0,.06-.73.78a2.89,2.89,0,0,0-.58.62l-.05.05L67,9.82c-.12,0-.3.25-.53.62l-.16.2,0,0,0,0-.1.19a.39.39,0,0,1-.14,0v.28q-.24.44-.48.92a2.1,2.1,0,0,0-.31.45c-.14.29-.27.55-.36.77l-.53.4-.47-2.52-.17-.92a2.5,2.5,0,0,1,0-1c-.26,0-.44-.18-.53-.7L63,7.45l-.05-.29a4.23,4.23,0,0,0-.65-.28l-.22-.66-.33-.14A.09.09,0,0,0,61.63,6a.4.4,0,0,0-.23.09s-.08,0-.17-.12l-.75-.26a1,1,0,0,1-.87.16L59.52,6l-.83.1c-.43,0-.63.1-.62.17l.17.37-.48.09c-.07,0-.09.08-.06.21s.05.19.08.19,0,0-.13.12l-.1,0-.27.15.14.77a1,1,0,0,1-.16.73c.25-.11.4,0,.46.31-.25.11-.28.32-.09.62l-.1,0A5,5,0,0,1,58,11.54a5.61,5.61,0,0,0,.43,1.77c-.13,0-.15.08-.07.16a.49.49,0,0,1,.14.22A3,3,0,0,1,58.8,15a5.11,5.11,0,0,0,.26,1.4L59,17a1.73,1.73,0,0,1,.19.77c0,.39.1.62.18.67a3.51,3.51,0,0,0,.16.57,4.35,4.35,0,0,1,.18.67,1.37,1.37,0,0,1,0,.6l.24.76.1,0,.07.89q.46.32.22.66l.1,0q.07.39.12.93a1.27,1.27,0,0,0,.3.79l0,.41.12.08a4.78,4.78,0,0,1,.3,1l.12.08v.6a3,3,0,0,1,.33,1c0,.17,0,.49-.07,1A4.53,4.53,0,0,1,62,29.81a3.69,3.69,0,0,0,.39,1.28l0,.41.23.16q.31,1.14.58,2.3a18.87,18.87,0,0,0,.67,2.28,2.44,2.44,0,0,1,.53,1,9.38,9.38,0,0,0,.34,1l.48-.09c.06.32.19.46.38.43l.27-.15.11.58c.18-.1.4,0,.65.28l.57.39q.77-.14,1.94-.31a4.9,4.9,0,0,1,2,.07.35.35,0,0,1,.31-.46l.1,0-.19-.47a.39.39,0,0,0,.33-.36.65.65,0,0,0-.09-.48l.08-.12V37c0-.26,0-.43.1-.52l-.17-.37c.13,0,.11-.14-.06-.34s-.12-.26.17-.18a1.08,1.08,0,0,1,0-.35,1.1,1.1,0,0,0,0-.35c0-.13-.11-.48-.25-1.06a3.87,3.87,0,0,0-.34-1v-.5a.83.83,0,0,1-.22-.66,1.11,1.11,0,0,0-.24-.76l0-.31a1.45,1.45,0,0,1-.23-1,.84.84,0,0,0-.41-.82l.15-.83a.91.91,0,0,1-.34-.49.6.6,0,0,1,0-.56c0-.14,0-.23-.1-.28s-.11-.15,0-.3a5.51,5.51,0,0,1-.08-1.24,5.43,5.43,0,0,0-.08-1.24L69.5,23c0-.14.12-.52.24-1.15s.21-.94.27-1a3,3,0,0,0-.07-.89,1.35,1.35,0,0,0,.32-1l0-.1a.19.19,0,0,0,.27-.15.88.88,0,0,0,0-.4l.1,0L70.59,18l.26-.25a13,13,0,0,1,.79-1.74l.14.06a3.65,3.65,0,0,1,.2-.69l.09-.16s0,0,0,0l0-.1c0-.06,0-.12.07-.18l.23,0,0-.19.24-.35,0-.39.39-.1,0-.15a.82.82,0,0,0,.23-.34,3,3,0,0,1,.37-.72h0L74,12.4l0-.08-.1-.08.27-.31a3.41,3.41,0,0,1,1-.72l.08-.28q.92-.58,1.72-1l1.76-.87C78.56,9,78.54,8.84,78.72,8.75Z"/><path class="cls-1" d="M202.81,79.91a7.64,7.64,0,0,0-.58-2.92,8.79,8.79,0,0,0-.64-1.21H198.4a6.82,6.82,0,0,1,.56.5,5.13,5.13,0,1,1-7.25,7.25,5.13,5.13,0,0,1-.36-6.87h-2.76c0,.1-.1.22-.14.32a7.28,7.28,0,0,0-.58,2.92A7.49,7.49,0,0,0,190,85.19a7.39,7.39,0,0,0,5.3,2.2,7.47,7.47,0,0,0,7.47-7.47Z"/><path class="cls-1" d="M198.24,59.72a7.46,7.46,0,0,0-2.9-.58,7.64,7.64,0,0,0-2.92.58,7.36,7.36,0,0,0-4,4,7.64,7.64,0,0,0-.58,2.92,7.47,7.47,0,0,0,.58,2.9A7.36,7.36,0,0,0,190,71.89a7.89,7.89,0,0,0,2.38,1.61,7.64,7.64,0,0,0,2.92.58,7.47,7.47,0,0,0,7.47-7.47,7.64,7.64,0,0,0-.58-2.92,7.88,7.88,0,0,0-1.61-2.38A7.36,7.36,0,0,0,198.24,59.72ZM199,70.24a5.11,5.11,0,1,1,1.51-3.63A5.11,5.11,0,0,1,199,70.24Z"/><polygon class="cls-1" points="202.81 56.49 202.81 54.16 194.87 54.16 201.84 49.46 194.87 44.79 202.81 44.79 202.81 42.43 187.18 42.43 197.65 49.46 187.18 56.49 202.81 56.49"/><path class="cls-1" d="M202.81,87.24a1.41,1.41,0,1,0,0,2.82,1.41,1.41,0,0,0,0-2.82Z"/></g></g></svg>