<svg id="Layer_1" data-name="Layer 1" xmlns="http://www.w3.org/2000/svg" viewBox="0 0 713.98 133.93"><defs><style>.cls-1{fill:#fbde00;}</style></defs><title>CVR Network (v1)</title><path class="cls-1" d="M287.85,0l-58,33.48v67l58,33.48,58-33.48v-67ZM271.44,93.56H257.92c-5.05-13.2-11.32-34.37-15.8-52.46H253C256.21,54.46,261.1,72.22,264.6,84h.33c3.58-11.73,8.55-29.65,11.81-42.85h10.5C282.76,59.19,276.49,80.36,271.44,93.56Zm62.06,0H321.45C317.78,87,314,79.63,311.1,73.44a47.37,47.37,0,0,1-6.43-.41V93.56H294.41V41.84a121.06,121.06,0,0,1,16.69-1.47c11.73,0,20.28,3.91,20.28,16.29,0,8.47-4,13-9.69,15.15,3.1,6.43,7.66,14.42,11.89,21.58Z"/><path class="cls-1" d="M310.94,49.25c-1.95,0-4.48.16-6.27.32V65.13a56.64,56.64,0,0,0,6.11.33c6.51,0,10.18-1.71,10.18-8.15S317.29,49.25,310.94,49.25Z"/><path class="cls-1" d="M0,66.88C0,50.46,6.25,40.37,23.31,40.37A67.77,67.77,0,0,1,35.8,41.73l-1.36,8.65a70.78,70.78,0,0,0-11-1.2c-10.66,0-13.14,6.57-13.14,18.18C10.25,77,12.09,84.59,23,84.59A34.42,34.42,0,0,0,35,82.1l2.89,8.25a37.45,37.45,0,0,1-15.22,3.21C6.41,93.56,0,84,0,66.88Z"/><path class="cls-1" d="M41.81,85.39,64.64,50H42.53V41.17H77.46v7.37L54.63,84H77.94v8.81H41.81Z"/><path class="cls-1" d="M86.18,41.17h31.4V50H96.28V62h18.1v8.65H96.28V84h21.3v8.81H86.18Z"/><path class="cls-1" d="M124.31,66.88c0-16.42,6.25-26.51,23.31-26.51a68,68,0,0,1,12.5,1.36l-1.37,8.65a70.78,70.78,0,0,0-11.05-1.2c-10.65,0-13.14,6.57-13.14,18.18,0,9.62,1.85,17.23,12.74,17.23a34.52,34.52,0,0,0,12-2.49l2.88,8.25A37.45,37.45,0,0,1,147,93.56C130.72,93.56,124.31,84,124.31,66.88Z"/><path class="cls-1" d="M169.57,41.17h10.09V61.92h20.1V41.17h10.1V92.76h-10.1v-22h-20.1v22H169.57Z"/><path class="cls-1" d="M365.84,41.91h13.72l18.6,36.89h.33V41.91h9.94V93.55H394.72L376.11,56.66h-.32V93.55h-10Z"/><path class="cls-1" d="M420.46,41.91H451.9v8.82H430.56v12h18.13v8.66H430.56V84.73H451.9v8.82H420.46Z"/><path class="cls-1" d="M470.82,50.73H456.38V41.91h39v8.82H480.93V93.55H470.82Z"/><path class="cls-1" d="M498.49,41.91h10.34c2.33,13.15,6,30.63,8.75,42.18h.32c2.32-11.55,5.53-29,7.46-42.18h14.83c1.93,13.15,5.13,30.63,7.46,42.18H548c2.73-11.55,6.42-29,8.74-42.18h10c-3.29,17.8-8.18,38.65-12.43,51.64H540.43c-2.32-11.38-5.53-28-7.62-41h-.32c-2.08,13-5.29,29.6-7.62,41H510.92C506.67,80.56,501.78,59.71,498.49,41.91Z"/><path class="cls-1" d="M593.92,41.1c16.52,0,22.54,9.55,22.54,26.63s-6,26.63-22.54,26.63-22.53-9.55-22.53-26.63S577.4,41.1,593.92,41.1Zm0,44.43c10,0,12.27-6.25,12.27-17.8s-2.32-17.8-12.27-17.8-12.27,6.25-12.27,17.8S584,85.53,593.92,85.53Z"/><path class="cls-1" d="M626.08,42.63a120.83,120.83,0,0,1,16.44-1.45c11.55,0,20,3.85,20,16,0,8.34-3.93,12.84-9.54,14.92,3,6.34,7.54,14.2,11.71,21.25l-.08.16H652.71c-3.61-6.49-7.3-13.71-10.19-19.81a47.7,47.7,0,0,1-6.33-.4V93.55H626.08ZM642.2,65.89c6.42,0,10-1.69,10-8s-3.61-7.94-9.87-7.94c-1.92,0-4.41.16-6.17.32V65.56A54.92,54.92,0,0,0,642.2,65.89Z"/><path class="cls-1" d="M672.51,41.91h10.11V64.76l.24.08c6.18-7.3,12.59-15.32,18.29-22.93h12.11l.16.24c-6,7.78-12.83,16-19.33,23.33,6,9.07,12.83,18.61,19.89,27.83l-.16.24H701.15c-5.54-7.61-10.91-15.47-15.88-23.17h-2.65V93.55H672.51Z"/></svg>