<svg xmlns="http://www.w3.org/2000/svg" width="179" height="32" fill-rule="evenodd" clip-rule="evenodd" image-rendering="optimizeQuality" shape-rendering="geometricPrecision" text-rendering="geometricPrecision" viewBox="0 0 21.39 3.83"><defs><linearGradient id="c" x1="14.22" x2="5.75" y1=".88" y2="-.91" gradientUnits="userSpaceOnUse"><stop offset="0" stop-color="#bf2dde"/><stop offset="1" stop-color="#612ce8"/></linearGradient><linearGradient id="a" x1="13.86" x2="8.32" y1="1.97" y2="2.8" gradientUnits="userSpaceOnUse"><stop offset="0" stop-color="#90c"/><stop offset="1" stop-color="#612ce8"/></linearGradient><clipPath id="b"><path d="M8.4.5c.56-.38 1.8-.52 3.02-.5 1.23-.02 2.47.13 3.03.5.23.14.2.27.22.53l.12 1.64c.01.22-.04.4-.26.57-1.38 1.06-2.09.39-3.1.35-1.03.04-1.73.7-3.11-.35a.61.61 0 01-.27-.57l.13-1.64c.01-.26-.02-.38.21-.54z"/></clipPath></defs><path fill="url(#a)" d="M8.4.5c.56-.38 1.8-.52 3.02-.5 1.23-.02 2.47.13 3.03.5.23.14.2.27.22.53l.12 1.64c.01.22-.04.4-.26.57-1.38 1.06-2.09.39-3.1.35-1.03.04-1.73.7-3.11-.35a.61.61 0 01-.27-.57l.13-1.64c.01-.26-.02-.38.21-.54z"/><g clip-path="url(#b)"><ellipse cx="11.55" cy="-9.39" fill="url(#c)" rx="10.62" ry="11.03"/></g><path fill="none" d="M8.4.5c.56-.38 1.8-.52 3.02-.5 1.23-.02 2.47.13 3.03.5.23.14.2.27.22.53l.12 1.64c.01.22-.04.4-.26.57-1.38 1.06-2.09.39-3.1.35-1.03.04-1.73.7-3.11-.35a.61.61 0 01-.27-.57l.13-1.64c.01-.26-.02-.38.21-.54z"/><path fill="#fff" d="M10.03 3.04L8.53.74h.92l1.04 1.54L11.53.75h.82l-1.48 2.33c-.11.18-.67.2-.84-.05zm2.6-2.3h1c.79.01 1.18 1.68-.1 1.81l.59.67h-.9l-.57-.67h-.46v-.64h1.11c.37 0 .32-.49.05-.49h-1.14l.41-.67z"/><path fill="#612ce8" d="M7.33 1.64l.43-.73c.07-.11.07.01.07.03v1.67c0 .02-.02.12-.07.03l-.43-.81a.19.19 0 010-.19z"/><path fill="#90c" d="M15.52 1.64l-.44-.73c-.07-.11-.07.01-.07.03v1.67c0 .02.03.12.08.03l.43-.81a.19.19 0 000-.19z"/><path d="M6.97.97l-.3 1.9h-.85c-.07-.3-.14-.47-.2-.85-.03.16-.1.34-.2.85h-.84l-.3-1.9h.66l.14.97c.03-.33.09-.44.19-.97h.7c.07.44.1.57.15 1.02.04-.47.1-.58.2-1.02h.65zm-2.81 0v1.9h-.68V1.9l-.27.97h-.47l-.28-.94v.94h-.68V.97h1l.2.88.18-.88h1zM1.6.97v.48h-.44v1.42H.44V1.45H0V.97zm19.79 0v.48h-.44v1.42h-.75V1.45h-.44V.97zm-3.22 0h1.43v.49h-.73v.27h.64v.36h-.64v.27h.78v.51h-1.48zm-.29 0v1.9h-.84l-.38-1.1v1.1h-.65V.97h.86l.41 1.05V.97z" fill="gray" fill-rule="nonzero"/></svg>