<svg xmlns="http://www.w3.org/2000/svg" width="262" height="29" fill-rule="evenodd" clip-rule="evenodd" image-rendering="optimizeQuality" shape-rendering="geometricPrecision" text-rendering="geometricPrecision" viewBox="0 0 37.46 4.12"><defs><style>.fil0{fill:#0cf}.fil0,.fil1,.fil2{fill-rule:nonzero}.fil2{fill:#f47}.fil1{fill:#fff}</style></defs><g id="Layer-214"><g id="_1073565792"><path d="M1.22 3.54a.24.24 0 01-.14-.05.22.22 0 01-.05-.14V.95H.18C.13.95.08.94.05.9A.17.17 0 010 .78C0 .73.02.69.05.65A.19.19 0 01.18.6h2.08c.05 0 .09.02.13.05.03.04.05.08.05.13s-.02.09-.05.12a.17.17 0 01-.13.05h-.85v2.4c0 .06-.02.1-.06.14a.19.19 0 01-.13.05z" class="fil0"/><path id="1" d="M3.09 3.52a.19.19 0 01-.13-.05.18.18 0 01-.06-.14V.79c0-.05.02-.1.06-.14A.19.19 0 013.09.6h1.68c.05 0 .09.02.13.05.03.04.05.08.05.13S4.93.87 4.9.9a.17.17 0 01-.13.05H3.28v.93h1.34c.05 0 .09.02.13.05.03.04.05.08.05.13s-.02.09-.05.13a.21.21 0 01-.13.05H3.28v.93h1.49c.05 0 .09.01.13.05.03.03.05.08.05.13s-.02.09-.05.12a.21.21 0 01-.13.05H3.09z" class="fil0"/><path id="2" d="M5.76 3.52a.19.19 0 01-.13-.05.18.18 0 01-.06-.14V.79c0-.05.02-.1.06-.14A.19.19 0 015.76.6h1.68c.05 0 .09.02.13.05.03.04.05.08.05.13S7.6.87 7.57.9a.17.17 0 01-.13.05H5.95v.93h1.34c.05 0 .09.02.13.05.03.04.05.08.05.13s-.02.09-.05.13a.21.21 0 01-.13.05H5.95v.93h1.49c.05 0 .09.01.13.05.03.03.05.08.05.13s-.02.09-.05.12a.21.21 0 01-.13.05H5.76z" class="fil0"/><path id="3" d="M8.43 3.54a.21.21 0 01-.13-.05c-.04-.04-.05-.08-.05-.14V.85a.26.26 0 01.27-.27h.05c.09 0 .17.04.23.12l1.61 2.33V.77c0-.05.02-.1.06-.14a.21.21 0 01.13-.05c.06 0 .1.02.14.05a.2.2 0 01.06.14v2.5c0 .08-.03.14-.09.19a.24.24 0 01-.19.08h-.05a.28.28 0 01-.13-.03.24.24 0 01-.09-.08L8.63 1.09v2.26c0 .06-.02.1-.06.14a.22.22 0 01-.14.05z" class="fil0"/><path d="M14.06 0l.03 1.31h-.11c-.06-.33-.2-.59-.42-.79-.22-.2-.46-.3-.71-.3-.2 0-.36.05-.47.16a.47.47 0 00-.18.36c0 .09.02.17.06.23.06.1.15.19.28.27.09.07.3.18.63.34.46.23.77.44.93.65a1.1 1.1 0 01-.15 1.53c-.25.24-.58.36-.98.36a1.99 1.99 0 01-.76-.18.65.65 0 00-.23-.06.27.27 0 00-.16.06c-.06.04-.1.1-.14.18h-.1V2.63h.1c.09.42.25.74.49.96.25.22.51.33.79.33.22 0 .39-.06.52-.18a.54.54 0 00.12-.68.89.89 0 00-.23-.25c-.1-.08-.28-.18-.53-.31a4.05 4.05 0 01-.78-.45 1.34 1.34 0 01-.35-.41.97.97 0 01-.13-.51c0-.31.11-.58.35-.8.23-.22.52-.33.87-.33a1.7 1.7 0 01.7.17c.13.07.22.1.27.1.06 0 .1-.02.12-.05.03-.03.06-.1.09-.22h.08z" class="fil1"/><path id="1" d="M16.19.32v1.6h.08c.25 0 .43-.08.55-.23.11-.16.18-.39.21-.7h.11v2.07h-.11a1.64 1.64 0 00-.14-.56.7.7 0 00-.27-.29.96.96 0 00-.43-.07v1.11c0 .21.01.35.03.4.02.04.05.08.1.11s.14.05.25.05h.23c.37 0 .67-.08.89-.25.22-.17.38-.43.48-.78h.1l-.17 1.25h-3.4v-.1h.13c.11 0 .2-.02.27-.06a.33.33 0 00.12-.14c.02-.05.03-.17.03-.37V.76c0-.18-.01-.29-.02-.33a.3.3 0 00-.1-.16.56.56 0 00-.3-.08h-.13v-.1h3.29v1.16h-.11a1.48 1.48 0 00-.24-.61.89.89 0 00-.43-.27 2.15 2.15 0 00-.61-.05h-.41z" class="fil1"/><path id="2" d="M21.06 1.71l1.08 1.62c.18.27.31.44.39.49.08.06.17.1.27.11v.1h-1.92v-.1a.62.62 0 00.29-.07c.05-.04.07-.08.07-.13a.2.2 0 00-.02-.09l-.2-.33-.58-.85-.6.73c-.18.23-.27.38-.27.46 0 .05.03.11.07.16.05.05.12.08.21.1.04.01.12.02.25.02v.1h-1.51v-.1c.17-.03.3-.07.4-.14.13-.09.31-.28.55-.57l.78-.94-1-1.48-.28-.41a.64.64 0 00-.16-.14.53.53 0 00-.21-.06v-.1h1.95v.1h-.09c-.12 0-.2.02-.24.05-.04.04-.07.09-.07.14l.02.11.2.31.5.73.4-.5c.22-.26.32-.44.32-.55 0-.05-.01-.1-.04-.15a.32.32 0 00-.13-.1.59.59 0 00-.26-.04v-.1h1.45v.1a.98.98 0 00-.28.04.86.86 0 00-.22.15c-.05.05-.18.19-.38.44l-.74.89z" class="fil1"/><path d="M23.42 3.54a.22.22 0 01-.14-.05.22.22 0 01-.05-.14V.85c0-.07.02-.14.08-.19.05-.06.11-.08.19-.08h.14c.05 0 .11.01.15.05.05.03.08.07.1.12l.95 2.37.96-2.37a.23.23 0 01.1-.12c.04-.04.09-.05.15-.05h.14c.07 0 .14.02.19.08.05.05.08.12.08.19v2.5c0 .06-.02.1-.05.14a.22.22 0 01-.14.05.19.19 0 01-.13-.05.18.18 0 01-.06-.14V.98l-.97 2.39a.3.3 0 01-.1.12.26.26 0 01-.17.05.25.25 0 01-.16-.05.23.23 0 01-.1-.12L23.61.98v2.37c0 .06-.02.1-.06.14a.21.21 0 01-.13.05z" class="fil2"/><path id="1" d="M27.26 3.54a.19.19 0 01-.13-.05c-.04-.04-.05-.08-.05-.14 0-.02 0-.05.02-.08L28.17.75a.27.27 0 01.09-.12c.04-.04.09-.05.15-.05h.04c.06 0 .11.01.15.05.04.03.07.07.09.12l1.07 2.52a.3.3 0 01.02.08c0 .06-.02.1-.05.14a.22.22 0 01-.14.05.17.17 0 01-.1-.03c-.04-.02-.06-.05-.08-.09l-.27-.65h-1.42l-.28.65a.16.16 0 01-.07.09.2.2 0 01-.11.03zm.6-1.12h1.13l-.56-1.36-.57 1.36z" class="fil2"/><path id="2" d="M30.59 3.54a.22.22 0 01-.14-.05.22.22 0 01-.05-.14V.85c0-.07.02-.14.08-.19.05-.06.11-.08.19-.08h.05c.09 0 .17.04.23.12l1.62 2.33V.77c0-.05.01-.1.05-.14a.21.21 0 01.13-.05c.06 0 .1.02.14.05a.2.2 0 01.06.14v2.5c0 .08-.03.14-.08.19a.26.26 0 01-.2.08h-.05a.24.24 0 01-.12-.03.27.27 0 01-.1-.08l-1.62-2.34v2.26c0 .06-.02.1-.06.14a.21.21 0 01-.13.05z" class="fil2"/><path id="3" d="M33.95 3.54a.24.24 0 01-.14-.05.22.22 0 01-.05-.14V.77c0-.05.02-.1.05-.14a.24.24 0 01.14-.05c.05 0 .1.02.13.05a.2.2 0 01.06.14v2.58c0 .06-.02.1-.06.14a.19.19 0 01-.13.05z" class="fil2"/><path id="4" d="M34.94 3.54a.19.19 0 01-.13-.05c-.04-.04-.05-.08-.05-.14 0-.02 0-.05.02-.08L35.85.75a.27.27 0 01.09-.12c.04-.04.09-.05.15-.05h.04c.06 0 .11.01.15.05.04.03.07.07.09.12l1.07 2.52a.3.3 0 01.02.08c0 .06-.02.1-.05.14a.22.22 0 01-.14.05.17.17 0 01-.1-.03c-.04-.02-.06-.05-.08-.09l-.27-.65H35.4l-.28.65a.16.16 0 01-.07.09.2.2 0 01-.11.03zm.6-1.12h1.13l-.56-1.36-.57 1.36z" class="fil2"/></g></g></svg>