<?xml version="1.0" encoding="utf-8"?>
<!-- Generator: Adobe Illustrator 25.2.3, SVG Export Plug-In . SVG Version: 6.00 Build 0)  -->
<svg version="1.1" id="Layer_1" xmlns="http://www.w3.org/2000/svg" xmlns:xlink="http://www.w3.org/1999/xlink" x="0px" y="0px"
	 viewBox="0 0 940 105" style="enable-background:new 0 0 940 105;" xml:space="preserve">
<style type="text/css">
	.st0{fill:#DC3645;}
	.st1{display:none;}
	.st2{display:inline;fill:#DC3645;}
	.st3{display:none;fill:#DC3645;}
	.st4{fill:#FFFFFF;}
</style>
<g>
	<g>
		<path class="st0" d="M465.2,75.5c3.1-1.2,6-6.3,6-7.3c0-0.9,0.8-2,0.8-2.6s-0.9-3.4-0.6-5.3s0-5.4,0.2-6.6
			c0.1-1.2,0.1-5.6-0.2-6.2c-0.3-0.6,0.6-1.5,0.8-2c0.2-0.5-0.9-1.4-1.1-1.9c-0.1-0.5,0.3-3.2,0.3-4.2c0-0.9,0.2-8.2-0.3-8.8
			s-0.9-1.5-1.1-2.3s-6.3-3.9-6.3-3.9s11.1-0.2,11.6,0c0.5,0.1,0.2,0.8,0.8,0.9c0.6,0.2,0.8-0.6,1.2-0.8c0.5-0.1,9.4-0.1,10.7,0
			c1.2,0.2,4.6,0,5.4-0.1c0.8-0.2,0.9-0.2,2,0.1s4.2-1.1,4.5-0.3s0,17.5,0,17.5s-4.6-7.1-6.3-8.8c-1.7-1.7-1.9-2.6-2.6-2.9
			c-0.8-0.3-0.9,0.2-2.5-0.3c-1.5-0.5-2.2-0.6-2.2-0.6s1.7-1.7,2.2-2.2s-2.9,0.9-3.2,2.3c-0.3,1.4-1.2,1.7-1.2,2.3
			s-0.3,10.7-0.5,12.4s0.3,2.8,0.3,2.8s7.1-2.5,8.2-3.2c1.1-0.8,0.9-1.4,1.5-1.2s0.8-0.3,0.8,1.5c0,1.9,0.5,3.2,0.3,4.3
			s-0.5,1.5-0.2,2.5c0.3,0.9-0.2,5.6-0.2,5.6s-4.5-2.8-4.8-3.4s-5.4-3.1-6-2.3l0.5,7.1c0,0-0.3,1.4-0.3,2.2s-0.2,9.6-0.2,9.6v1.4
			c0,0,0.9,0.3,1.5,0.2c0.6-0.2,2.2-0.3,2.9-0.6c0.8-0.3,3.2-3.2,3.6-3.7c0.3-0.5,0.3-1.1,1.1-1.2c0.8-0.2,6.5-6.8,6.8-11
			c0,0-0.8,13.1-0.2,14.1c0.6,0.9,0.2,2.3,0.2,3.1c0,0.8,0.2,4,0.2,4s-7-0.3-9.3,0.2s-3.4-0.6-4-0.6s-2.2,0.6-2.9,0.6
			c-0.8,0-10.8-0.3-11.9,0C470.3,76,465.2,75.5,465.2,75.5z"/>
		<path class="st0" d="M508.5,24.7c1.7,0.3,7.6-0.1,8.2,0.3c0.6,0.5,2.5,0.2,3.7-0.2c1.2-0.3,2.3-0.3,4.5-0.2
			c2.2,0.2,11-0.1,14.4,1.9s4.3,5.9,4.6,7.7c0.3,1.9,0.5,3.6-0.2,4.5c-0.6,0.9-2.6,0.9-2.6,0.9c0.9,0.8,1.7,0.8,1.9,1.4
			s-0.9,2.3-2,3.9c-1.1,1.5-1.5,2-3.2,3.1s-4.2,1.4-4.2,1.4c1.1,0,3.9,0.9,4.6,1.7c0.8,0.8,0.9,1.1,1.9,4.6c0.9,3.6,3.7,7.9,4.8,9.6
			c1.1,1.7,2.9,1.5,3.9,1.4c0.9-0.2,3.4-2.9,3.4-2.9c-2,11.3-10.7,12.1-13.2,11.9s0.2,0-1.9-0.9c-2-0.9-6-5.4-6.6-7.1
			s-4.3-11.6-5.7-16.7s-1.1-4.6-0.5-5.1s1.9,0.6,2.9,0.5c1.1-0.2,2.2-1.4,2.9-2.2c0.8-0.8,0.8-1.7,0.8-2.6s1.1-1.7,0.9-3.7
			c-0.2-2-1.2-4-2.3-5.7s-0.9-2.3-2.5-2.9c-1.5-0.6-2.8,0-4,0.8s-0.9,1.7-1.1,2.5c-0.2,0.8,0.2,8.3,0.3,9.9c0.2,1.5-0.2,3.6,0.2,4.8
			c0.3,1.2-0.3,0.6-0.5,1.4s0.5,3.7,0.5,4.5s-0.6,1.5-0.8,2.3s0.5,1.2,0.5,1.2s0.2,5.4,0.2,6s0.2,2,0.3,2.8c0.2,0.8-1.1,1.5-0.3,4.5
			c0.8,2.9,3.4,3.7,4.3,4.5c0.9,0.8,0.6,1.4,0.6,1.4s-4.3,0-6.6-0.5s-0.8,0.6-4,0.5c-3.2-0.2-1.9-0.5-2.6-0.6
			c-0.8-0.2-1.1,0.6-1.7,0.6c-0.6,0-7.1,0-7.1,0c0.8-0.8,2.3-2.3,2.6-2.9s1.1-0.8,1.1-0.8c0.5-0.3,0.9-1.2,0.9-1.2s0-1.2,0.2-2.6
			s0.3-2.3,0.2-8c-0.2-5.7,0.6-7.4,0.6-8.2s2,0,1.4-0.9c-0.6-0.9-2.2-1.5-2.2-1.5s-0.3-4.9-0.2-5.9c0.2-0.9,0.5-2.9,0.3-4.3
			c-0.2-1.4-0.3-6.8,0-8.6c0.3-1.9-5.6-6-5.6-6C505.2,24.9,506.8,24.4,508.5,24.7z"/>
		<path class="st0" d="M567.8,24.9c0.5,0.3,1.2-0.6,2.3-0.5c2,0.3,5.7,0,5.7,0l1.6,1.4c0,0-0.3-1.5,1.2-1.1c1.5,0.5,10,0.2,10,0.2
			c-1.4,0.2-3.7,6.2-3.4,7.1s0.6,2,0.5,2.8c-0.2,0.8,2.3,8,2.5,9.3c0.2,1.2,1.4,4.3,1.4,4.3c2.3-0.2,6.5,2.3,6.5,2.3
			c-1.7-0.5-5.1,2.5-5.1,2.5s-0.2,0.9,0,1.4s2.6,11.4,2.9,13.1c0.3,1.7,1.1,1.7,1.9,3.1c0.8,1.4,1.9,2.6,3.4,3.7
			c1.6,1.1,0.9,1.4,0.9,1.4s-8.3,0-9-0.2c-0.6-0.2-0.3-0.6-1.1-0.9s-0.8-1.5-0.8-1.5s-0.5,1.1-0.6,2c-0.2,0.9-1.1,0.3-2,0.3
			s-8.8,0.3-8.8,0.3c5.3-2.9,4.3-9.1,4-10.4c-0.3-1.2-3.2-10.2-3.2-10.2c-2.3,0-4.2,2.5-5,3.1s-1.1,1.4-1.1,1.4
			c-1.4-2.2-6.5-4.9-6.5-4.9l-0.2,0.9c-0.3,1.1-2.8,8.3-3.1,10s-0.2,1.5,0.2,3.2c0.3,1.7,0.8,1.4,2.2,3.6s2.8,3.1,2.2,3.1
			s-3.1,0-4.3,0s-5.4,0-6.3-0.2c-0.9-0.2-1.4-0.3-1.9,0s-4.8,0.3-4.8,0.3c2.3-0.9,5.4-6.9,5.7-7.7c0.3-0.8,2.2-5.4,2.5-7.3
			s2.5-6.6,2.6-7.7c0.2-1.1-3.1-1.4-4.2-2c-1.1-0.6-3.1-0.6-3.1-0.6c2.5-1.9,8.5-2.9,8.5-2.9l0.3-1.2c0,0,0.9-2.2,1.2-3.2
			c0.3-1.1,0.6-2,0.9-2.8c0.3-0.8-0.2-1.4-0.2-1.4s1.4-3.6,2-6.5s0.3-2.6-0.2-4s-4.3-3.7-4.3-3.7C564.9,24.4,567.4,24.5,567.8,24.9z
			 M567.7,47.3c0,0,6,0,9.6,0.5c0,0-3.7-14.7-4.9-17c0,0-3.6,13.6-4.5,17"/>
		<path class="st0" d="M613.9,24.5c0.5,0.1,0.9,1.4,0.9,1.4s1.4-1.1,2-1.2s12.4,0,12.4,0l-0.9,0.6c-1.4,0.8-1.7,2.8-1.7,3.6
			s2.8,7.6,2.9,8.2c0.2,0.6,1.1,1.5,1.1,1.5s2.2,6.8,2.5,8s0.2,1.4-0.3,2.2s1.2,0.2,1.6,0.8c0.3,0.6,4,9.4,5.1,12.1
			c1.1,2.6,2.8,4.6,2.9,3.2c0.2-1.4-0.2-22.7-0.2-23.5s0.6-1.1,0.8-1.5c0.2-0.5-0.3-1.4-0.6-3.4s0-6,0-7.3c0-1.2-0.8-2-1.4-2.5
			c-0.6-0.5-2.9-2.2-2.9-2.2s5.4,0,5.9,0.3s1.9,0.2,2.6-0.2c0.8-0.3,3.9,0,4.9,0c1.1,0,5.4,0.2,5.4,0.2c-5.6,1.9-6.5,8.5-6.5,8.5
			s0.2,2.3,0.2,3.7s0.2,1.4,0.6,2.2c0.5,0.8-0.6,2.8-0.6,2.8s-0.2,11,0,11.7c0.2,0.8-0.6,1.4-0.6,1.9s0.5,0.8,0.8,1.7
			s-0.3,13.9-0.3,15s2.8,1.7,3.2,2.3c0.5,0.6,0.6,0.9-0.8,1.1c-1.4,0.2-11.4,0-12.2-0.2s-0.6-0.9-0.9-1.4c-0.3-0.5-0.6-1.2-0.6-1.2
			v1.7c0,0-0.3,0.6-0.8,0.9s-7.9,0.3-7.9,0.3s0.5-0.6,1.2-1.5c0.8-0.9-0.5-1.7-0.8-2.3c-0.3-0.6-3.1-7.6-3.7-9.1
			c-0.6-1.5-2.6-3.1-2.6-3.1s0.6-1.7,0.8-0.8s-8.5-22.9-8.5-22.9s-0.2,8.8-0.2,9.4s-0.8,0.9-0.9,1.7c-0.2,0.8,1.1,1.1,1.2,2
			c0.2,0.9,0,18.2-0.2,19.5c-0.2,1.2,1.5,1.2,2.6,3.2s3.1,3.6,3.1,3.6s-0.6,0.2-1.5-0.2c-0.9-0.3-1.1,0.3-3.1,0.2
			c-2-0.2-12.1,0.2-12.1,0.2c1.5-0.9,2.6-5.3,2.5-6c-0.2-0.8,0.5-3.4,0.3-5.3s0.5-11,0.6-11.9c0.2-0.9,2.8-0.2,2.8-0.2
			s-2.8-1.9-3.2-2.3c-0.5-0.5-0.2-4.5,0-5.9s0.3-1.9-0.3-2.6c-0.6-0.8,0.2-6.2,0.2-9.7c0-3.6-0.9-2.6-1.7-4.8s-2.6-2.5-2.6-2.5
			S613.4,24.4,613.9,24.5z"/>
		<path class="st0" d="M688.9,48.2c0-1.5,0.5-6.6-1.2-10.8s-1.1-3.7-1.8-4.6c-0.8-0.9-1.7-2.2-3.6-2.2c-1.9,0-4,1.2-4,1.2
			s-1.4-0.5-1.9-0.2s-2,1.2-2.8,2.8c-0.8,1.5-12.7,12.1,1.9,30.4c0,0,0.5,0.6,1.2,1.1c0.6,0.5,5,0.6,6.6,0.5
			c1.5-0.2,11.1-1.5,15.8-11.4c0,0-0.2,1.7-0.2,2.2s-0.6,0.9-0.8,2s0.9,0.5-1.1,3.4c-2,2.9-8.9,9.8-12,11s-4.2,2-5.3,1.9
			c-1.1-0.2-2,0.2-2.6,0.2s0.6,0.6-1.6,0c-2.2-0.6-1.8,0-4.4-0.5c-2.6-0.5-7.2-4.3-10.6-10.4c-3.4-6-2.6-6.2-2.9-7.1
			c-0.3-0.9-1.2-1.4-1.1-1.9c0.2-0.5,1.4-1.5,1.4-1.5s0.2,0.5-0.6-0.9s-2.9,0.9-1.7-8.7s7.3-17.9,16.7-19.6c0,0,0.9-1.1,2.2-0.9
			c1.2,0.1,6.6,0.5,8,0.3s4.6,1.5,5.6,1.9c0.9,0.3,2.2,0.5,3.7,0.3c1.5-0.1,1.4,0.3,3.1-0.9c1.7-1.2,1.9-1.7,2-0.9
			C696.9,25.6,697.9,38.1,688.9,48.2z"/>
		<path class="st0" d="M418.7,24.7c0,0,4.1,2,4.7,2.7c0.7,0.7,0.5,1,1.3,2c0.8,0.9,0.9,1.4,0.9,2.3c0,0.9,0,10.7,0.2,11.6
			s0.7,1.5,0.6,2s-0.3,2.5-0.3,3.1s0.1,5.1,0.1,6.5s-0.3,4.9-0.3,4.9s-0.2,1.7,0.1,2.7c0.3,0.9,0.7,3.4,0.3,3.9
			c-0.3,0.6-0.5,0.5-0.6,1.2c0,0.6-2.5,6.1-5.1,7.6c0,0-0.3,0.5,0,0.5c0.4,0,10.6,0.3,11.7,0.2c1.2-0.1,2.1-0.2,3.4-0.2s2.8,0,4.9,0
			s16.6,0.2,17.3,0c0.7-0.2,0.6-0.5,0.7-1.4s0.1-8.5,0-12c-0.1-3.6-0.7-2.7-0.6-4.4s0.1-3.1,0.1-3.1s-0.4,1.9-2.9,6.5
			c-2.6,4.6-2.9,5.6-4.6,6.5s-1.3,1.6-3.7,2.4c-2.4,0.8-8.1,0.6-8.7,0.8c-0.6,0.2-0.2-12.1-0.1-12.9s0.5-0.2,0.2-2.4
			c-0.2-2.2-0.6-8.5-0.5-10.1s0.7-7.4,0.6-9.1c-0.1-1.7-0.3-1.4-0.2-2.7c0.1-1.3,1.4-3.7,1.5-4.5c0-0.7,0.5-1.8,1.2-2.5
			s2.9-1.2,3.9-1.7c0,0,1-0.8-2-0.7S432,24.5,432,24.5s-0.1,0.6-0.7,0.5s-1.6-0.5-1.6-0.5L418.7,24.7z"/>
		<path class="st0" d="M152.6,24.5c1.7,0.3,7.6-0.2,8.2,0.3c0.6,0.5,2.5,0.2,3.7-0.2c1.2-0.3,2.3-0.3,4.5-0.1
			c2.2,0.1,11-0.2,14.4,1.9c3.4,2,4.3,5.9,4.6,7.7c0.3,1.9,0.5,3.6-0.2,4.5c-0.6,0.9-2.6,0.9-2.6,0.9c0.9,0.8,1.7,0.8,1.9,1.4
			s-0.9,2.3-2,3.9c-1.1,1.5-1.5,2-3.2,3.1s-4.2,1.4-4.2,1.4c1.1,0,3.9,0.9,4.6,1.7c0.8,0.8,0.9,1.1,1.9,4.6c0.9,3.6,3.7,7.9,4.8,9.6
			c1.1,1.7,2.9,1.5,3.9,1.4c0.9-0.2,3.4-2.9,3.4-2.9c-2,11.3-10.7,12.1-13.2,11.9s0.2,0-1.9-0.9c-2-0.9-5.9-5.4-6.6-7.1
			c-0.6-1.7-4.3-11.6-5.7-16.7s-1.1-4.6-0.5-5.1s1.9,0.6,2.9,0.5c1.1-0.2,2.2-1.4,2.9-2.2c0.8-0.8,0.8-1.7,0.8-2.6s1.1-1.7,0.9-3.7
			c-0.2-2-1.2-4-2.3-5.7s-0.9-2.3-2.5-2.9c-1.5-0.6-2.8,0-4,0.8s-0.9,1.7-1.1,2.5c-0.2,0.8,0.2,8.3,0.3,9.9c0.1,1.5-0.2,3.6,0.2,4.8
			c0.3,1.2-0.3,0.6-0.5,1.4s0.5,3.7,0.5,4.5s-0.6,1.6-0.8,2.3c-0.2,0.8,0.5,1.2,0.5,1.2s0.2,5.4,0.2,6s0.2,2,0.3,2.8
			c0.2,0.8-1.1,1.5-0.3,4.5c0.8,2.9,3.4,3.7,4.3,4.5c0.9,0.8,0.6,1.4,0.6,1.4s-4.3,0-6.6-0.5s-0.8,0.6-4,0.5
			c-3.2-0.2-1.9-0.5-2.6-0.6c-0.8-0.2-1.1,0.6-1.7,0.6c-0.6,0-7.1,0-7.1,0c0.8-0.8,2.3-2.3,2.6-2.9s1.1-0.8,1.1-0.8
			c0.5-0.3,0.9-1.2,0.9-1.2s0-1.2,0.2-2.6s0.3-2.3,0.2-8c-0.2-5.7,0.6-7.4,0.6-8.2s2,0,1.4-0.9s-2.2-1.6-2.2-1.6s-0.3-4.9-0.2-5.9
			c0.2-0.9,0.5-2.9,0.3-4.3c-0.2-1.4-0.3-6.8,0-8.7c0.3-1.9-5.6-6-5.6-6C149.4,24.7,150.9,24.2,152.6,24.5z"/>
		<g>
			<path class="st0" d="M232.2,75.3l3.5-0.6c2.2-2.1,6.5,0.2,8.5-2.2c2.7-0.7,4-4.6,6.7-5.3c2.5-0.5,2.7-3.7,4.3-5.7
				c1.7-4.9,3.1-10,1.2-16l-0.1,0.9c-0.6-0.9-0.8-2.1-1.1-3.2c0,0.2-0.2,0.4-0.3,0.5c0-0.7-1-1.4-0.4-2.2c0.1,0.1,0.3,0.2,0.4,0.1
				c0.5-0.2-0.1-1.4-0.7-1.7c-2-4.9-5.1-5.1-8.9-8.4c-1.6-2.6-5.5-3.7-7.7-5c-2.6-0.8-5.1-0.5-7.7-1.3c-2.2-0.5-4.6-0.5-6.8-1
				c-1.8-0.4-2.4,0.3-2.4,0.3c-1.5-0.4-1.4,0.4-2.8,0.5c0.4,1.3,1.1-0.1,1.9,0.2c0.7,0.3,1.6-0.1,1.9,0.8c-2.9,0.7-6.5-0.7-8.8,1.9
				l0.2,0.2l-0.3,0.5c-0.4,0-0.8,0.3-1.3-0.1c-0.1,0.4-0.5,0.8-0.5,1.4c-4.3,0.5-7.5,3.1-9.8,6.5c-5.1,6.7-4.4,18.1-0.3,27
				c7.9,8,2.4,5.5,11.7,9.7c4.3,0.9,2.5,4.4,12.2,2.5c1.8,0.2,3.8,1,5.4,0.4C231.3,76,232.2,75.3,232.2,75.3 M232.6,73.1
				c-0.8,0.2-1.6,0.3-3.2,0.5c-4.7,1-9.4-1.7-14-2.5c-1.1-0.3-2.1-1.3-3.1-1.9c1.3,0.3,2.4,1.4,3.7,1.4l-0.2-0.6c0-0.6,1.6,1,2-0.2
				c-1.3-1-3.1-1.4-4.6-2.1c1.1-0.1,2.5,1.3,3.7,1.2l-0.1-0.4c-2.2-2-3.2-1.5-3.7-5.2c-0.6-1.5-3.6-4.9-3-6.5
				c-0.4-5.5,0-9.6-0.1-15.2c1.1-3.8,0.8-5.1,2.3-7.1c2.7-0.6,3.1-4.2,6.4-3.3c0.9-0.3,1.2-1.4,2.4-1.2l0.7-0.9c1-0.4,2.6-0.7,2.1,0
				c0.4,0,0.6-0.2,0.6-0.2c3.6,1,7.4-0.8,10.7,2.2c2.6,0.9,3.2,1.8,5.1,4.1c2.6,4.8,4.4,8.4,3.7,13.1c0.6,3.6-0.8,15-4.9,19.5
				c-1.7,1.8-4.5,3.9-6.7,4.8C232.2,72.6,233.4,72.9,232.6,73.1z"/>
			<path class="st0" d="M230.1,46.5c-0.1-0.6-0.3-2.5-0.6-3.2c0,0.4,0,1.8,0,2.2c0,0.2,0,0.3,0.1,0.5c0-0.2-0.1-0.3-0.1-0.5
				c-0.8-6-1.6-12.1-1.6-17.9c0,0-0.7-2.7-0.5-4.6c0.4-1.7,0.2-3.8,0.2-5.3v0.1c0.1-1.3,0.1-3.5-0.1-7.2c0,0-0.1,0.8-0.2,1.2
				c-0.1,0.4-0.6-4.8-0.6-4.8c0.1,2.8,0.4,8.5,0.2,11.3l-0.2-0.2c-0.4-3.1-0.4-12.3-0.6-15.7l-0.2,7.2c0.5,4.7-1.4,8-0.4,12.9
				c0,0,0.3,1.9,0.2,3.1s-0.3,3.7-0.3,3.7l-0.3-1.5l0.3,8.5c-1.6,5.2-1.1,11.4-5.3,15.5c0.6,1.4,2.3,2.1,2.1,3.8
				c1.3,4,3.7,7.6,2.9,12.4c0.5,0.9,0.2,2.1-0.1,2.9c-0.5,1.8,0.2,3.7,0.2,3.7l0.2-1.4c0.7,2-0.4,3.5,0.2,5.4c0,1.7,0.3,3.5-0.4,4.9
				c-0.7,1.8-0.3,1.8-0.3,1.8s-0.2,7.8,0.8,9.7c0.8,1.4,1.1,3,1.2,4.8c0-1.2,0.3-2.4,0-3.7c0.2-0.3,0.7-0.3,0.5-0.8
				c0.5-2,0-9.8-0.1-11.2c-0.1-1.3,0.5,0.1,0.5,0.1c-0.3-3.7-1.2-8.2-0.1-11.7c0.4-0.6,1-3.8,1-3.8s-0.2,0.8-0.5,1.3
				c-0.3-0.7-0.1-4.6,0.4-6.7c-0.5-1.2,0.4-1.8,1.1-2.4c-0.2-3.3,1.2-6.2,2.4-8.9C231.5,50.1,231.5,48.2,230.1,46.5 M222.7,51.1
				l-0.5-0.5c0,0,0.5-1.1,0.7-1.6C222.7,50.1,222.7,51.1,222.7,51.1z"/>
		</g>
		<path class="st0" d="M99.9,10.2l-0.2,1.5c0,0,0.7-1.4,3,3.7s2.9,6.1,2.9,6.1s1.9,1,2,1.4s0.6,1.3,0.6,1.3l10.9-0.1
			c0,0,0.9,0.8,1.4,0.9s0.9-0.5,0.9-0.5s9.9-0.2,10.7,0s5.4,0,6-0.1s1.4,0.2,2.3,0.3c0.9,0.1,3.6-0.6,3.6-0.6s0,11.6-0.1,12.3
			s0,4.6,0,4.6c-0.4-0.9-3.7-4.5-4.4-6.5s-3.7-3.5-4.4-4.4s-1.3-0.5-1.6-0.5s-1.5-0.4-2.3-0.6s-0.8-0.2-0.5-0.6
			c0.3-0.3,1.9-2.1,1.9-2.1c-1-0.1-3.4,2.2-3.6,3.1c-0.2,0.9-1,1-1.2,1.5c-0.1,0.5-0.2,13.6-0.4,14.4c-0.1,0.8,0.4,0.8,0.4,0.8
			s2.7-0.7,5.2-1.6s4.6-2.6,4.6-2.6s0.8-0.1,0.8,0.4s0.1,3.6,0.1,4.1s0,2-0.2,2.5c-0.2,0.6,0.4,1,0.2,1.4c-0.1,0.3-0.2,5.6-0.2,5.6
			c-0.4-0.5-4.5-3-4.8-3.4s-0.4-0.3-0.5-0.6s-4.5-1.8-4.9-2c-0.4-0.1-0.7,0.3-0.7,0.3c0.3,6.5,0.7,7.4,0.7,7.4s-0.7,1-0.6,1.6
			s-0.1,2.9-0.2,3.4s0.2,7.3,0.2,7.9c-0.1,0.6,1.2,0.4,1.5,0.2c0.3-0.2,1.5,0,2.9-0.6s3.6-3.6,3.6-3.7s1.1-1.2,1.1-1.2
			c4-1.9,6.6-10.4,6.6-10.4c0,0.9-0.3,12.8-0.3,12.8s0.3,1.2,0.6,1.7s-0.2,0.9-0.5,1.5s0.5,4.5,0.5,4.5h-8.4l-2.6,0.3l-2.3-0.8
			c0,0-1.7,0.5-2.2,0.5s-7.9,0.2-8.7,0s-3.6,0.5-5.1,0.5s-4.8-0.6-4.8-0.6c2.3-1.4,5.1-5.4,5.6-6.2c0.5-0.8,0-1.9,0-1.9
			s-0.8,0-1.3,0.3c-0.6,0.3-3.9,0.8-4.6,0.8s-1.5,0.9-2,1.2c-0.5,0.3-10.7,1.5-11.1,1.4c-0.5-0.2-1.4,0.5-1.9,0.8s-1-0.5-1-0.5
			c-0.3-0.1-2.3-0.1-4.3,0.2c-2,0.3-8,1.5-7.6,1.5c0.5,0,5.4,0.2,4.5,0.1c-0.9,0-17.5,4.5-18.4,4.8s-0.9-0.3-0.9-0.3l-1.1,0.9
			l-0.8,0.1c0,0-2.1,1-3.1,1c-0.9,0-0.3,0.5-2,1c-1.7,0.6-18.1,5.2-18.5,5.9c-0.5,0.7-9.7,5.8-9.7,5.8s-0.5-0.3-1.3,0.1
			c-0.8,0.5-2.6,1.4-3.1,1.3c-0.4-0.1-1.7,0.6-1.3,0.1c0.4-0.4,0.7-0.6,0.7-0.6H25l2-1.2c0,0-1.1-0.5-1.6-0.6
			c-0.5-0.2-2.1,1.1-2.1,1.1s0.8,1.9-1,4.6c-1.9,2.8-7.4-5.1-8.5-7.6s-3.2-4-3.7-4.8s-1.8-3.3-1.8-3.3S7.6,81.7,7,81.8
			c-0.6,0.1-0.3-0.3-0.3-0.3l-1,0.5c-0.2-1.3,0.2-2.6,0.3-3.3c0.2-0.8,2.9-3.9,5.6-6.6c2.8-2.8,5.2-7.3,6.5-7.9
			c1.3-0.6,0.6-1.3,2.3-2.2c1.7-0.9,6.6-5.1,7.1-5.8s0.4-0.4,1.2-0.7c0.8-0.3,11.7-9.3,11.7-9.3c2.4,0.2,0,0,3.5-2
			s17.2-9.3,17.2-9.3l0.6-0.7l0.8,0.1c1.3-1.4,6.7-2.7,6.7-2.7s-1.2,1.1,0.1,0.3c1.4-0.7,3.7-1.2,3.7-1.2c6.7-2.9,24.2-7.1,24.2-7.1
			c-0.1-0.3-1.5-0.3-2.2-0.2s0.2-0.3-1.3-1.1c-1.6-0.8-1.4-0.3-3.4,0s-5.6-1.3-6-1.2s-3.2-0.2-4.7-0.3S66,22.4,64.9,22.7
			c-1.2,0.2-1,0-1,0L61,22.6c0.2-0.6-0.8-0.2-1.3-0.5c-0.6-0.2-3.4,0.5-3.8,0.9c-0.5,0.5,1.4,0.6,1.4,0.6s-1.6,0-2.4,0
			c-0.8,0-0.5-0.4-0.5-0.4l-0.5-0.8c0,0-3,0.3-3.6,0.2s-1.1,0.3-1.1,0.3c-6.1,1.1-19.5,8.4-19.5,8.4c0.9-0.7,2.3-2.7,2.8-3
			c0.5-0.4,3.2-1.5,3.2-1.5c-0.4-0.2-2.9,0.5-3.2,0.6s-1-0.1-1.3-0.6c-0.2-0.5,0.5-2.3,0.5-2.3c0.8-0.1,0.6-0.9,0.8-1.2
			c0.2-0.4-1,0.4-1,0.4l1-1.4l0.1-0.5L31,22.4c4.2-2.6,11.7-6.5,17.9-8.7s14.8-2.9,15.9-3.4c1.1-0.5,4.3,0.5,5.3,0.5
			c0.9,0,7.1-0.3,8.5-0.6s0.8,0,0.8,0s1.1,0,2.3-0.1c0.7,0,1.5-0.1,2.2-0.2c1.7-0.3,0.5-0.5,1-0.4c0.6,0,10-0.3,10-0.3l0.8,0.5
			c0,0,0.3,0,1.2,0c0.9,0,0,0,0.5,0s0.5-1.2,0.5-1.2L99.9,10.2z M109.7,25.3l0.8,0.9c0,0,0,1.4,0.6,2.3s2.8,3.7,2.8,3.7l-2.8-0.2
			c0,0-0.6,0.5-1.4,0.6c-0.8,0.2-6.2,1.1-7.3,2c-1.1,0.9-1.5,1.1-1.9,1.1c-0.3,0-8.4,3.2-15.2,4.8c-6.8,1.5-13.5,5.3-13.9,5.6
			c-0.4,0.4,0.9-0.4-0.4,0.4c-1.2,0.8-28.4,13.6-34.9,18.1s-11,9.1-12.1,9.7s-6.4,5.9-7,7.3c-0.6,1.3,0,1.1,0.8,0.5s1.9-2.6,4.8-3.9
			c2.9-1.2,2.8-2,7.7-3.4s14.6-4.4,17-6.4c0,0,21.8-7.8,30.3-8.1c0,0-0.3,1.1,1.1,0.5s1.1-0.9,2.5-0.9s3.6-0.6,4-0.8
			c0.5-0.2,3.1,0,3.6-0.3s8.3,0,12.7-1.1c0,0,2,0,2.6,0s9.6-0.9,11.3-1.5c0,0,0-2,0.2-2.6s-0.2-5.7-0.2-5.7l-0.5-0.9
			c0,0,1.7-1.2,1.2-1.5s-0.6-0.9-0.8-1.7c-0.2-0.8,0-2.9,0-4.3s0-7.3,0-7.3l-0.3-1.5c0,0-0.9-1.5-1.1-2.3
			C114,27.5,111.4,25.5,109.7,25.3z M46.9,21.6c0,0-2.9,0.1-3.2,0.7c-0.4,0.6,0.6,0.5,0.6,0.5s-4.3,1.8-6.1,3c0,0,3.1-0.9,3.7-1.2
			c0.6-0.4,2.9-0.9,3.1-1.1c0.3-0.2,4.2-1.4,4.2-1.4S46.4,22.3,46.9,21.6z M101.9,22.8c-0.3,0.1-1.7,0.2-1.5-0.2
			c0.2-0.5,0.9-0.6,0.9-0.6C101.6,22.9,102.3,22.7,101.9,22.8z M115.8,64.1c0,0-2.8,0.3-3.9,0c-1.1-0.3-0.7-0.1-1.4,0.2
			c-0.7,0.2-8.2,2.3-11.7,2c-3.6-0.3-9.2,2.6-10.4,1.9l-1.7,0.6c0,0-0.3,0.6-0.7,0.5c-0.4,0-1.9,0.1-1.9,0.1l-0.6,1
			c0,0,11-2.5,13.7-3.2c2.8-0.6,8.5-0.3,10.4-0.5s4.3-0.9,4.3-0.9l-0.5,0.8c0,0,3.1-0.5,3.7-0.5s0.8-1.2,0.8-1.2L115.8,64.1z
			 M62.5,77.1c2.5-0.6,15-5.1,14.4-5.1s-4.2,2.2-8.5,2.8c-4.3,0.6-2.6-0.3-5.6,0.5c-2.9,0.8-3.2,2.5-5.6,3.6
			c-2.3,1.1-7.3,2.9-6.8,2.8C56.3,80.5,60,77.7,62.5,77.1z M45.3,52.7c0,0-3,1.3-3.5,1.5s-1.2,1.1-1.9,1.1c-0.6,0-0.3-0.8-1.4,0.2
			c-1.1,0.9-10.7,6.9-12.6,8.5c-1.8,1.6-1.8,1.7-2.3,1.9c-0.5,0.2-0.8,1.2-1.2,1.5c-0.5,0.3,1.1-1.4,4.5-3.4s5.4-3.1,7.7-4.8
			s5.3-2.9,6.3-3.6C42.1,55,45.3,52.7,45.3,52.7z"/>
		<path class="st0" d="M271.5,39.7c0,0,2.8,1.2,4.6,1.5c1.9,0.3,4-0.3,4.9-0.9s-0.3-0.6,5.9-4.5c11.1-6.9,15.6-6.8,20.9-8.3
			s9.7-4.3,10.7-4.7c0.9-0.4,33.7-9.9,35.9-10c2.2,0-0.3,0.2,2.2,0c2.5-0.3,3.4-1.5,4.3-0.6s3.1,1.2,3.1,1.2s-0.3-1.5,2-2
			s4.7-1.1,6.3-1.1c1.5,0,11.1,0.2,13-0.5c1.9-0.6,1.6-0.8,5.3-0.5c3.7,0.3,19.5-3.4,22-3.4l1,0.1c0,0,1,0.5,1.7-0.1l0.6,0.3
			l0.9-0.4c0,0,1.2,0.6,2.4-0.4c1.3-0.9,7.1,0.8,13.7-0.4L426,6.2c0,0,9,0.6,11.2,0.2c0,0-0.5,0.5-0.8,0.6s4.5,0.5,5.3,0.1
			c0,0-4.9,2.3-6.6,2.4c0,0,2.1,0.5,2.5,0.3c0,0-1.2,1.2-1.7,1.3c0,0,3.4,0.5,3.7,0.5c0.3,0,3.5-0.3,6.1,0c2.7,0.3,4.1,0,4.6-0.3
			c0,0-5.1,1-5.8,1.3c-0.7,0.4-7.7,0.2-9.3,0.5c0,0,5.4,0.3,5.9,0.3s-7.4,0.8-13.9,0.9c-6.5,0.1-16.6,0.7-19.6,2.2
			c0,0-4.6,0.9-5.9,1c-1.3,0.2-2-0.8-3.5-0.4c-1.5,0.3-5.4,1.3-7.5,1.7c-2.1,0.5-7.2,0.5-8,0.6c-0.8,0.2,0,0.5-2.3,0.8
			c-2.3,0.2-2.3,0.2-2.3,0.2s-7.1,1.1-7.8,1.5c-0.7,0.4-1.7,0.6-2.2,0.7s0.2,0.5-0.6,0.7c-0.8,0.2-3.6,1-3.1,1s0.6,0.3,3.9-0.6
			c3.4-0.9,12.4-2.7,12.7-2.7c0.3,0,10.1,0,19-2.1c0,0-0.8,0.7-1.2,0.9c-0.3,0.2,9.4-0.9,10.2-1c0,0-3.1,0.6-3.5,0.9s-2,0.6-2.7,0.9
			s0.2,0-0.9,0.5c-1.2,0.5-2.8,0.7-2.8,0.7s-0.6-0.6-1.4-0.2c-0.8,0.3-4.1,1.2-4.8,1.6c-0.7,0.5-11.1,1.6-14.3,2.6l-1.4,0.2
			c0,0-0.1-1-1.6-0.3s-2.7,0.1-3.5,0.4c-0.8,0.2-4.6,0.6-7.1,2c0,0,1.2-0.3,2-0.1c0,0-5.7,1.8-5.9,2.2c-0.2,0.4-4.9,9.1-5.5,10.6
			s-0.7,2.4-1,3.1s-8.7,23.3-11.5,29S338.9,83,338,84.1c-0.8,1.1-2,2.2-2.4,3.2c-0.3,0.9-1.6,4.3-1.8,4.7c-0.2,0.4-0.5,2.4-0.8,2.4
			s-1.7,0-1.7,0s-2.1,3.6-2.3,4.2c-0.2,0.6,0.5-4.1,0.5-4.1s-4.7,5.7-5.6,7.5c0,0-0.5-3.4-0.3-4.9c0.1-1.5-0.3-1.9-0.5-2.8
			c0,0-1.7,0.3-2,0.8c-0.2,0.5,0.2-1.5,0.2-1.9s-1.3,1.1-2,2.6s3.7-10.2,4.2-11.7c0.4-1.5,0.3-1.7,0.7-2.4
			c0.3-0.7,4.9-13.2,5.4-14.5c0.6-1.3,9.6-24.9,9.9-25.7c0.2-0.8,0.3-1.4,0.6-1.8c0.2-0.5,2-3.1,2.1-3.7c0.1-0.6-0.3-0.5,0-0.9
			c0.3-0.5,0.4-0.8,0.4-0.8l-0.9-0.2c0,0,0.1,0.5-0.4,0.6s-1,0.1-1,0.1s0.5,0-0.6,0.6c-1,0.6-2.5,1.3-3.9,1.7
			c-1.4,0.5-2.2,0-3.1,0.6s-20.1,6.4-21.6,7.3c-1.9,1.2-3.1,1.9-12.8,7.3c0,0-1.8,0.7-2.2,0.8c-0.4,0.1-1.4,0.9-2.4,1
			s-1.2-0.5-1.9-0.1l-0.7,0.2l0.6-1.3l-2,1.2c0,0,2.4-1.9,3-2.5c0.6-0.7-1-0.8-1.5-0.6s-1.5,0.7-2.2,0.9s-0.4-0.3-0.7,0.5
			c-0.2,0.9,0.3,4.9-0.7,5.5s-2.5,1.9-5.1-1s-1.6-1.7-5.5-7.5c-3.8-5.8-5.7-8.1-6.4-9c-0.7-0.9-2.8-2.9-1.6-2.2
			C270.1,39.2,271.5,39.7,271.5,39.7z M279.1,43.4c0.5,0,1.9-1.6,1-1.2c-0.8,0.5-3.2,0.3-3.2,0.3C277.5,42.9,278.7,43.4,279.1,43.4z
			 M344.6,29.2l-0.8,0.2c0,0,0.6-0.7-0.7,0.2c-1.3,0.9-6,1.9-6.7,2.2c-0.7,0.3-5,2.1-7.1,3.6s-6.7,4.2-9.2,5.1c0,0,8.7-2.7,10.3-3.2
			c1.6-0.6,9.4-2.4,10.7-3.5c1.3-1,0.9-1.5,0.9-1.5s1.1,0,1.4-0.2s1.1-1.3,1.2-1.7C344.8,30,344.6,29.2,344.6,29.2z M326.5,39
			l-0.1,0.5l-1.3,0.5c0,0,0.2-0.3,0.3-0.5c0.1-0.2,1-0.3,1-0.3l-6.8,2.1c0.4-0.2,1-0.2,0.6,0.2c-0.4,0.5-1.8,0.5-1.5,0.3
			c0.2-0.2,0.9-0.4,0.9-0.4"/>
		<path class="st0" d="M701.9,74.4c3.1-1.2,6-6.2,6-7.1s0.8-2,0.8-2.6s-0.9-3.3-0.6-5.1c0.3-1.8,0-5.3,0.2-6.5
			c0.1-1.2,0.1-5.4-0.2-6.1c-0.3-0.6,0.6-1.5,0.8-2s-0.9-1.4-1.1-1.8c-0.2-0.5,0.3-3.2,0.3-4.1c0-0.9,0.2-8-0.3-8.6
			s-0.9-1.5-1.1-2.3c-0.2-0.8-6.3-3.8-6.3-3.8s11.1-0.1,11.6,0s0.2,0.8,0.8,0.9c0.6,0.2,0.8-0.6,1.2-0.8c0.5-0.1,9.4-0.1,10.7,0
			c1.2,0.2,4.6,0,5.4-0.1c0.8-0.1,0.9-0.1,2,0.1c1.1,0.3,4.2-1.1,4.5-0.3s0,17.1,0,17.1s-4.6-7-6.3-8.6c-1.7-1.7-1.9-2.6-2.6-2.9
			c-0.8-0.3-0.9,0.1-2.5-0.3c-1.6-0.5-2.2-0.6-2.2-0.6s1.7-1.7,2.2-2.1s-2.9,0.9-3.3,2.3c-0.3,1.4-1.2,1.7-1.2,2.3
			c0,0.6-0.3,10.4-0.5,12.1s0.3,2.7,0.3,2.7s7.1-2.4,8.2-3.2c1.1-0.8,0.9-1.4,1.5-1.2s0.8-0.3,0.8,1.5s0.5,3.2,0.3,4.2
			c-0.2,1.1-0.5,1.5-0.2,2.4s-0.2,5.4-0.2,5.4s-4.5-2.7-4.8-3.3s-5.4-3-6-2.3l0.5,7c0,0-0.3,1.4-0.3,2.1c0,0.8-0.2,9.4-0.2,9.4v1.4
			c0,0,0.9,0.3,1.5,0.2c0.6-0.2,2.2-0.3,2.9-0.6c0.8-0.3,3.2-3.2,3.6-3.6c0.3-0.4,0.3-1.1,1.1-1.2s6.5-6.7,6.8-10.7
			c0,0-0.8,12.9-0.1,13.8c0.6,0.9,0.1,2.3,0.1,3c0,0.8,0.2,3.9,0.2,3.9s-7-0.3-9.3,0.2s-3.4-0.6-4-0.6s-2.2,0.6-2.9,0.6
			c-0.8,0-10.8-0.3-11.9,0C707,74.9,701.9,74.4,701.9,74.4z"/>
		<g>
			<path class="st0" d="M395.6,76.7l3.5-0.6c2.2-2.1,6.5,0.2,8.5-2.2c2.7-0.7,4-4.6,6.7-5.3c2.5-0.5,2.7-3.7,4.3-5.7
				c1.7-4.9,3.1-10,1.2-16l-0.1,0.9c-0.6-0.9-0.8-2.1-1.1-3.2c0,0.2-0.2,0.4-0.3,0.5c0-0.7-1-1.4-0.4-2.2c0.1,0.1,0.3,0.2,0.4,0.1
				c0.5-0.2-0.1-1.4-0.7-1.7c-2-4.9-5.1-5.1-8.9-8.4c-1.6-2.6-5.5-3.7-7.7-5c-2.7-0.8-5.1-0.5-7.7-1.3c-2.2-0.5-4.6-0.5-6.8-1
				c-1.8-0.4-2.4,0.3-2.4,0.3c-1.5-0.4-1.4,0.4-2.8,0.5c0.4,1.3,1.1-0.1,1.9,0.2c0.7,0.3,1.7-0.1,1.9,0.8c-2.9,0.7-6.5-0.7-8.8,1.9
				l0.2,0.2l-0.3,0.5c-0.4,0-0.8,0.3-1.3-0.1c-0.1,0.4-0.5,0.8-0.5,1.4c-4.3,0.5-7.5,3.1-9.8,6.5c-5.1,6.7-4.4,18.1-0.3,27
				c7.9,8,2.4,5.5,11.8,9.7c4.3,0.9,2.5,4.4,12.2,2.5c1.8,0.2,3.8,1,5.4,0.3C394.7,77.3,395.6,76.7,395.6,76.7 M396,74.4
				c-0.8,0.2-1.6,0.3-3.2,0.5c-4.7,1-9.4-1.7-14-2.5c-1.1-0.3-2.1-1.3-3.1-1.9c1.3,0.3,2.4,1.4,3.7,1.4l-0.2-0.6c0-0.6,1.6,1,2-0.3
				c-1.3-1-3.1-1.4-4.6-2.1c1.1-0.1,2.5,1.3,3.7,1.2l-0.1-0.4c-2.2-2-3.2-1.5-3.7-5.2c-0.6-1.5-3.6-4.9-3-6.5
				c-0.4-5.5,0-9.6-0.1-15.2c1.1-3.8,0.8-5.1,2.3-7.1c2.7-0.6,3.1-4.2,6.4-3.3c0.9-0.3,1.2-1.4,2.4-1.2l0.7-0.9c1-0.4,2.6-0.7,2.1,0
				c0.3,0,0.6-0.2,0.6-0.2c3.6,1,7.4-0.8,10.7,2.2c2.6,0.9,3.2,1.8,5.1,4.1c2.6,4.8,4.4,8.4,3.7,13.1c0.6,3.6-0.8,15-4.9,19.5
				c-1.7,1.8-4.5,3.9-6.7,4.8C395.6,74,396.8,74.3,396,74.4z"/>
			<path class="st0" d="M393.5,47.9c-0.1-0.6-0.3-2.5-0.6-3.2c0,0.4,0,1.8,0,2.2c0,0.2,0,0.3,0.1,0.5c0-0.2-0.1-0.3-0.1-0.5
				c-0.8-6-1.6-12.1-1.6-17.9c0,0-0.7-2.7-0.5-4.6c0.4-1.7,0.2-3.8,0.2-5.3l0,0c0.1-1.3,0.1-3.5-0.1-7.2c0,0-0.1,0.8-0.2,1.2
				s-0.6-4.8-0.6-4.8c0.1,2.8,0.5,8.5,0.2,11.3l-0.2-0.2c-0.4-3.1-0.4-12.3-0.6-15.7l-0.2,7.2c0.5,4.7-1.4,8-0.4,12.9
				c0,0,0.3,1.9,0.2,3.1c-0.1,1.2-0.3,3.7-0.3,3.7l-0.3-1.5l0.3,8.5c-1.6,5.2-1.1,11.4-5.3,15.5c0.6,1.4,2.3,2.1,2.1,3.8
				c1.3,4,3.7,7.6,2.9,12.4c0.5,0.9,0.2,2.1-0.1,2.9c-0.5,1.8,0.2,3.7,0.2,3.7l0.2-1.4c0.7,2-0.4,3.5,0.2,5.4c0,1.7,0.3,3.5-0.4,4.9
				c-0.7,1.8-0.3,1.8-0.3,1.8s-0.2,7.8,0.8,9.7c0.8,1.4,1.1,3,1.2,4.8c0-1.2,0.3-2.4,0-3.7c0.2-0.3,0.7-0.3,0.5-0.8
				c0.5-2,0-9.8-0.1-11.2c-0.1-1.3,0.5,0.1,0.5,0.1c-0.3-3.7-1.2-8.2-0.1-11.7c0.4-0.6,1-3.8,1-3.8s-0.2,0.8-0.5,1.3
				c-0.3-0.7-0.1-4.6,0.4-6.7c-0.5-1.2,0.4-1.7,1.1-2.4c-0.3-3.3,1.2-6.2,2.4-8.9C394.9,51.4,394.9,49.6,393.5,47.9 M386.1,52.5
				l-0.5-0.5c0,0,0.5-1.1,0.7-1.6C386.1,51.5,386.1,52.5,386.1,52.5z"/>
		</g>
	</g>
	<g class="st1">
		<path class="st2" d="M715.8,22.8c0-4.9,3.7-8.5,8.7-8.5s8.7,3.6,8.7,8.5c0,4.7-3.7,8.4-8.7,8.4C719.4,31.2,715.8,27.6,715.8,22.8z
			 M731.4,22.7c0-4.2-2.8-6.8-6.9-6.8c-4.1,0-6.9,2.6-6.9,6.8c0,4.1,2.8,6.9,7,6.9C728.5,29.6,731.4,26.8,731.4,22.7z M720.9,21.4
			V19c0-0.6-0.4-0.7-1.1-0.7c-0.1,0-0.2-0.1-0.2-0.3c0-0.3,0.2-0.4,0.5-0.4h0.4c0.2,0,0.9,0.1,1.6,0.1c0.9,0,1.2-0.1,2.2-0.1
			c1.6,0,4.2,0.3,4.2,2.6c0,1-0.4,1.7-2,2.9l1.7,2c1.2,1.5,1.4,1.5,1.6,1.5c0.2,0,0.3,0.1,0.3,0.3c0,0.3-0.1,0.4-0.9,0.4
			c-1.2,0-2.3,0.1-3.7-1.8l-1.3-1.8h-1.1v0.8c0,1.7,0.1,1.9,0.2,2c0.2,0.1,0.7,0.1,0.9,0.1s0.3,0,0.3,0.3s-0.2,0.4-0.4,0.4h-0.4
			c-0.2,0-1-0.1-1.5-0.1c-0.3,0-1.2,0.1-1.4,0.1h-0.5c-0.2,0-0.7-0.1-0.7-0.4c0-0.2,0.1-0.3,0.3-0.3c0.9,0,0.9,0,1-0.6
			c0.1-0.5,0-1.2,0-2.5L720.9,21.4L720.9,21.4z M722.9,22.3c0.3,0.2,0.9,0.3,1.3,0.3c0.3,0,0.6,0,0.9-0.2c0.5-0.3,0.9-0.9,0.9-1.6
			c0-1.2-0.9-2.1-2.2-2.1c-0.1,0-0.7,0-0.9,0.2V22.3z"/>
	</g>
</g>
<path class="st3" d="M752.5,46c-0.2,0.2-0.8,1.4-0.9,1.5s-1.5,2.7-1.7,3.2s-0.2,0.7-0.3,0.9s-2.6,7-3.5,8.7s-1.3,3-1.5,3.4
	c-0.2,0.3-0.6,0.7-0.7,1c-0.1,0.3-0.5,1.3-0.5,1.4c-0.1,0.1-0.2,0.7-0.2,0.7h-0.5c0,0-0.6,1.1-0.7,1.3c-0.1,0.2,0.2-1.2,0.2-1.2
	s-1.4,1.7-1.7,2.3c0,0-0.2-1-0.1-1.5c0-0.5-0.1-0.6-0.2-0.8c0,0-0.5,0.1-0.6,0.2c-0.1,0.2,0.1-0.5,0.1-0.6s-0.4,0.3-0.6,0.8
	c-0.2,0.5,1.1-3.1,1.3-3.5c0.1-0.5,0.1-0.5,0.2-0.7c0.1-0.2,8.9-20.5,8.9-20.5c0.7,0,0-0.2,0.7-0.2c0.8-0.1,1.1-0.3,1.4,0
	c0.3,0.3,0.9,0.1,0.9,0.1s-0.1-0.5,0.6-0.6c0.7-0.2,1.4-0.3,1.9-0.3s2.2-0.5,2.8-0.7s1.4-0.5,2.6-0.4"/>
<path class="st3" d="M748.3,55.3c0-0.1,0.3-0.2,0.5-0.2s-0.1-0.1,0.2-0.4c0.3-0.3,0.3-0.2,0.8-0.2c0.5-0.1,1.2-0.8,1.3-0.8
	s0.7-0.3,1.1-0.4c0.3-0.1,3.3-0.4,3.6-0.4s0.2-0.1,0.2-0.1l0.7-0.2c-0.1-0.2,0.2-0.1,0.3-0.2c0.1-0.1,0.8-0.1,1,0s-0.3,0.3-0.3,0.3
	s0.4-0.1,0.6-0.2c0.2-0.1,0.1-0.2,0.1-0.2l0.1-0.3c0,0,0.7-0.1,0.9-0.2c0.1-0.1,0.3,0,0.3,0c1.5-0.1,5.5,0.3,5.5,0.3
	c-0.3-0.2-1.1-0.7-1.2-0.7c-0.2-0.1-0.9-0.2-0.9-0.2c0.1-0.1,0.7,0,0.8,0s0.7,0,0.8-0.2c-0.5-0.6-0.8-0.7-0.8-0.7
	c-0.2,0-0.2-0.2-0.3-0.3s0.3,0.1,0.3,0.1l-0.3-0.3l-0.1-0.2h0.5c-1.2-0.5-3.2-0.2-4.9-0.5c-1.6-0.2-3.7,0.4-4,0.3
	c-0.3-0.1-1,0.1-1.2,0.2s-1.7,0.4-2,0.4s-0.2,0.1-0.2,0.1s-0.2,0.1-0.5,0.1c-0.2,0-0.4,0.1-0.5,0.1c-0.4,0-0.2-0.1-0.3-0.1
	s-2.3,0.5-2.3,0.5l-0.2,0.2c0,0-0.1,0-0.3,0.1s0,0-0.1,0s-0.2-0.3-0.2-0.3l-0.4,0.7l0.2,0.4c0,0-0.3-0.4-0.4,1.3
	c-0.1,1.6-0.2,2-0.2,2s-0.4,0.4-0.4,0.5"/>
<path class="st3" d="M750.9,47.4c0-0.1,0.5-0.2,0.8-0.2s-0.1-0.1,0.4-0.5s0.5-0.8,1.3-0.9c0.8-0.1,1.9-0.6,2.1-0.6
	c0.2,0,1.2-0.1,1.7-0.3s3.6-0.7,4.1-0.7s1.4-0.3,1.4-0.3l1.2-0.2c0.2,0,0.6,0,0.7-0.1c0.2-0.2,1.2-0.2,1.4-0.3
	c0.3-0.1,0.8-0.1,0.8-0.1s1.1-0.2,1.4-0.2s0.5,0,0.5,0c2.3-0.1,8.5,0.4,8.5,0.4c-0.4-0.2-1.6-0.8-1.8-0.9s-1.3-0.3-1.3-0.3
	c0.1-0.1,1.1,0,1.2,0c0.2,0,1.1,0,1.2-0.2c-0.6-0.8-1.1-0.9-1.1-0.9c-0.3,0-0.3-0.3-0.4-0.4c-0.1-0.1,0.4,0.1,0.4,0.1l-0.5-0.4
	l-0.1-0.2h0.7c-1.8-0.6-5-0.3-7.5-0.5c-2.5-0.3-5.8,0.5-6.2,0.5c-0.5-0.1-1.5,0.2-1.9,0.2c-0.3,0.1-2.6,0.5-3.2,0.5
	s-0.3,0.1-0.3,0.1s-0.4,0.1-0.8,0.2c-0.3,0-0.6,0.1-0.8,0.1c-0.7,0-0.2-0.1-0.4-0.1c-0.2,0.1-3.7,0.7-3.7,0.7l-0.2,0.2
	c0,0-0.1,0-0.5,0.1c-0.3,0.1,0,0-0.2,0s-0.3-0.4-0.3-0.4l-0.7,0.9L749,43c0,0-0.4-0.5-0.8,1.6c-0.4,2.1-0.5,2.5-0.5,2.5
	s-0.6,0.5-0.6,0.7"/>
<path class="st0" d="M780,31.7"/>
<path class="st3" d="M759.1,40.3c-1.2,0.5-7.1,0.8-8,1l-0.3,0.2c0,0-0.3,0.3-0.6,0.2l-0.2,0.2l-0.4-0.1c0,0-0.3,0.4-0.9,0.1
	c-0.5-0.2-2.3,1.1-4.8,1.3l2.5-0.2c0,0-3,1.2-3.8,1.3c0,0,0.2,0.2,0.3,0.2s-1.5,0.7-1.8,0.6c0,0,2,0.4,2.6,0.3c0,0-0.7,0.5-0.8,0.4
	c0,0,0.6,0.4,0.8,0.3c0,0-1.1,0.6-1.2,0.6c-0.1,0.1-1.2,0.2-2.1,0.7c-0.9,0.4-1.4,0.5-1.6,0.4c0,0,1.9-0.2,2.2-0.1s2.6-0.8,3.2-0.8
	c0,0-1.8,0.7-2,0.8s2.6-0.5,4.9-1.1c2.3-0.7,6.5-1.2,7.8-1.5"/>
<rect x="753.2" y="11.4" class="st0" width="179.9" height="75.7"/>
<g>
	<path class="st4" d="M792.5,35.3v-0.2c0-0.1-0.6-0.2-0.6-0.8v-0.2c0,0,0.2,0.1-2.6-2.7c-0.7-0.8-1.1-0.9-1.6-1.1
		c0,0-0.1,0.1-0.2,0.1c0,0-0.6-0.5-1.6-0.5c-0.2,0-0.2,0.2-0.3,0.2c-0.5-0.2-0.6-0.2-0.8-0.3c-0.1,0-0.2,0.1-0.2,0.1
		c-0.1,0-0.2-0.1-0.3-0.1s-0.2,0.1-0.2,0.1c-0.1,0-0.2-0.2-0.3-0.2c0,0-0.2,0.1-0.3,0.1c0,0-0.1-0.2-0.2-0.2c-0.3,0-0.3,0.2-0.6,0.2
		c-0.1-0.1-0.4-0.2-0.6-0.2c-0.1,0-0.3,0.2-0.5,0.2c-0.1,0-0.2-0.2-0.2-0.2c-0.4,0-0.5,0.2-0.6,0.2s-0.2-0.2-0.2-0.2
		c0.1,0-0.8,0.3-1.1,0.3H779c-0.2,0-0.5,0.2-0.7,0.2l-0.2-0.1c0.2,0-1,0-1,0.9c0,0.2,0.1,0.6,0.2,0.8v0.5c0,0.2,0.2,0.5,0.2,0.6
		c0,0.2-0.1,0.2-0.1,0.3c0,0.2,0.2,0.3,0.2,0.5c0,0.1-0.1,0.2-0.1,0.3c0,0.2,0.2,0.3,0.2,0.5c0,0.4-0.2,0.4-0.2,0.7
		c0,0.2,0.1,0.3,0.1,0.6c0,0.1-0.2,0.3-0.2,0.5s0.2,0.7,0.2,0.8c0,0.2-0.2,0.2-0.2,0.3s0.1,0.2,0.1,0.2c0,0.2-0.2,0.2-0.2,0.3
		c0,0.6,0.2,0.8,0.2,1.1c0,0.1-0.1,0.2-0.1,0.3s0.1,0.2,0.1,0.2c-0.1,0.1-0.2,0.2-0.2,0.3s0.2,0.1,0.2,0.2c0,0.2-0.2,0.2-0.2,0.5
		c0,0.5,0.2,0.7,0.2,0.9s-0.2,0.5-0.2,0.5c0,0.1,0.2,0.3,0.2,0.3c0,0.1-0.1,0.2-0.1,0.2c0,0.7,0.2,0.7,0.2,1V44
		c0-0.2,0.2,0.7,0.5,0.7c0.2,0,0.2-0.1,0.3-0.1s0.2,0.1,0.2,0.1c0.5,0,0.4-0.2,0.8-0.2h0.3c0.3,0,0.4-0.4,0.4-0.4s0.6,0,1.1-0.8
		c-0.2,0.1,0.8-0.9,0.8-1.1c0-0.3,1.1-1.1,1.1-1.1c0.1,0,0.2,0.1,0.2,0.1c0.2,0,0.2-0.2,0.3-0.2c0,0.2-0.2,0.3-0.2,0.6
		c0,0.1,0.1,0.2,0.1,0.2c0,0.1-0.1,0.4-0.1,0.5c0,0.4,0.2,0.7,0.2,0.9c0,0.4-0.2,0.7-0.2,1.1c0,0.4,0.2,0.7,0.2,1
		c0,0.1-0.2,0.2-0.2,0.2c0,0.1,0.1,0.2,0.1,0.2c0,0.1-0.1,0.2-0.1,0.3s0.2,0.1,0.2,0.2c0,0.1-0.1,0.3-0.1,0.4c0,0.1,0.1,0.1,0.1,0.2
		c0,0.1-0.1,0.2-0.1,0.2c0,0.1,0.1,0.2,0.1,0.3c0,0.2-0.1,0.2-0.1,0.2c0,0.2,0.2,0.4,0.2,0.6v0.6c0,0.1-0.2,0.2-0.2,0.2
		c0,0.2,0.2,0.7,0.3,0.9c0,0.1-0.2,0.3-0.2,0.6c0,0.5,0.2,0.7,0.2,1.1c0,0.1-0.2,0.2-0.2,0.2c0.1,0.2,0.2,0.2,0.2,0.3
		c0,0.4-0.2,0.7-0.2,1.1c0,0.2,0.3,0.7,0.3,1.4c0,0.1-0.2,0.2-0.2,0.3s0.1,0.2,0.1,0.2v0.3c0,0.1,0.1,0.1,0.1,0.3
		c0,0-0.1,0.2-0.1,0.3c0,0,0.1,0.1,0.1,0.2c0,0.4-0.1,0.4-0.1,0.6c0,0.2,0.1,0.2,0.1,0.2c0,0.2-0.1,0.4-0.1,0.6
		c0,0.2,0.1,0.2,0.1,0.3c-0.4,1.1-0.4,1.1-0.6,1.2c-0.2-0.1-0.6-1.1-0.6-1.2l0.1-0.2c-0.2-0.2-0.2-0.3-0.2-0.5v-0.2
		c0-0.2-0.2-0.2-0.2-0.2c0-0.2,0.1-0.2,0.1-0.3c-0.2-0.6-0.2-0.6-0.3-0.8c0-0.1,0.2-0.2,0.2-0.3s-0.2-0.3-0.3-0.5
		c0-0.1,0.1-0.2,0.1-0.3c0,0-0.6-0.2-0.6-1.3c-0.1,0-0.2-0.7-0.8-1.1c0,0.1-0.5-0.6-0.6-0.6H780c-0.1,0-0.2-0.1-0.3-0.1
		c-0.2-0.1,0-0.2-0.2-0.2l-0.2,0.1c-0.1-0.1-0.5-0.2-0.6-0.2c0,0.1-0.2,0.1-0.4,0.3c0.1-0.2-0.6,0-0.6,1.2v0.2
		c0,0.1-0.1,0.2-0.1,0.2c0,0.1,0.1,0.3,0.1,0.3c0,0.1-0.2,0.2-0.2,0.2c0,0.1,0.1,0.2,0.1,0.3s-0.1,0.1-0.1,0.2
		c0,0.1,0.1,0.2,0.1,0.3c0,0.4-0.2,0.7-0.2,1.1c0,0.2,0.2,0.4,0.2,0.6c0,0.1-0.2,0.2-0.2,0.2c0,0.3,0.1,0.6,0.2,0.8
		c0,0.1-0.2,0.2-0.2,0.3s0.2,0.2,0.2,0.2c0,0.2-0.1,0.2-0.1,0.3s0.2,0.1,0.2,0.2c0,0.1-0.1,0.2-0.1,0.2c0,0.1,0.1,0.2,0.2,0.2
		c0,0.1-0.1,0.2-0.1,0.2c0,0.2,0.2,0.3,0.2,0.4v0.2c0,0.3,0.2,0.7,0.2,0.9s-0.2,0.2-0.2,0.6c0.1,0.1,0.2,0.5,0.2,0.5
		c0,0.6-0.1,0.9-0.1,1.1c0,0.3,0.2,0.5,0.2,0.8c0,0.2-0.2,0.4-0.2,0.6c0,0.1,0.1,0.2,0.1,0.3c0,0-0.1,0.1-0.2,0.2
		c0,0.2,0.1,0.3,0.1,0.6c0,0.1-0.2,0.2-0.2,0.5c0,0.2,0.2,0.2,0.2,0.3c-0.1,0.2-0.3,0.2-0.3,0.3c0,0.1,0.2,0.2,0.2,0.2
		c0,0.4-0.2,0.4-0.2,0.6c0,0.3,0.1,0.6,0.1,0.9c0,0.2-0.1,0.2-0.1,0.3c0.1,0.2,0.2,0.3,0.2,0.6l-0.2,0.2c0,0.2,0.3,0.4,0.3,0.5
		c0,0.2-0.1,0.2-0.1,0.2v0.1c0,0.1-0.1,0.2-0.1,0.4c0,0.2,0.2,0.3,0.2,0.5v0.2c0,0.2,0.1,0.2,0.1,0.2c0,0.2-0.1,0.2-0.1,0.3
		c0,0.1,0,0.7,0.2,0.8c0,0.2,0,0.7,0.7,1.5c0.1,0.1,0.1,0.3,0.9,1.1c0.3,0.3-0.3,0,1.4,1.6l-0.7,0.3c-0.1,0-0.2-0.1-0.2-0.1
		c-0.1,0-0.2,0.2-0.3,0.2c0,0-0.1-0.2-0.2-0.2c-0.2,0-0.2,0.1-0.2,0.1h-0.7c-0.2-0.1-1-0.2-1.4-0.2c-0.1,0-0.1,0.1-0.2,0.1
		c-0.2,0-0.3-0.1-0.7-0.2c-0.1,0-0.2,0.2-0.3,0.2c0,0-0.1-0.1-0.2-0.1c-0.1,0-0.1,0.1-0.2,0.1c-0.2,0-0.4-0.2-0.5-0.2
		c-0.4,0-0.4,0.2-0.7,0.2c0,0-0.1-0.2-0.2-0.2c-0.2,0-0.4,0.1-0.5,0.2c-0.2,0-0.2-0.1-0.2-0.1c-0.4,0.2-0.4,0.2-0.6,0.2
		c-0.1,0-0.2-0.2-0.3-0.2s-0.7,0.2-0.8,0.4c-0.1,0-0.2-0.2-0.3-0.2c-0.3,0-0.5,0.2-0.8,0.2c-0.1-0.1-0.2-0.2-0.2-0.2
		c-0.2,0-0.2,0.2-0.3,0.2s-0.5-0.2-0.5-0.2c-0.2,0-0.2,0.2-0.3,0.2c-0.2,0-0.4-0.2-0.6-0.2h-0.8c-0.3,0-0.6,0.1-0.8,0.1
		c-0.3,0-0.4-0.1-0.6-0.1c-0.2,0.2-0.2,0.2-0.2,0.2h-0.3c-0.2,0-0.2,0.2-0.5,0.2h-0.8c-0.1,0-0.4,0.1-0.5,0.1s-0.2-0.1-0.3-0.1
		s-0.2,0.1-0.2,0.1s-0.1-0.1-0.2-0.1c-0.2,0.1,0.2-0.6,0.7-0.6h0.2c0.3,0,0.5-0.6,0.6-0.7c0.2,0,1.1-0.3,1.1-1.1v-0.2
		c0,0.1,0.2-0.7,0.5-1.1c0-0.1-0.1-0.1-0.1-0.2c0,0,0.1,0,0.1-0.1s-0.2-0.2-0.2-0.3c0.2-0.1,0.4-0.3,0.4-0.5c0-0.1-0.1-0.2-0.1-0.3
		l-0.1-0.2c0-0.2,0.2-0.2,0.2-0.2c0-0.3-0.2-0.5-0.2-0.6c0-0.2,0.2-0.7,0.2-0.9c0,0-0.2-0.2-0.2-0.3c0-0.3,0.2-0.3,0.2-0.6
		c0-0.1-0.1-0.1-0.1-0.2c0-0.2,0.1-0.3,0.1-0.6c0-0.3-0.2-0.7-0.2-0.8s0.2-0.2,0.2-0.3c0-0.1-0.2-0.1-0.2-0.2s0.2-0.2,0.2-0.3
		c0-0.1-0.1-0.2-0.1-0.4c0-0.9,0.2-0.9,0.2-1.2c0-0.1-0.1-0.2-0.1-0.3c0.1-0.2,0.2-0.4,0.2-0.7c0-0.2-0.1-0.2-0.1-0.3
		c0-0.7,0.2-0.7,0.2-0.9c0-0.1-0.1-0.2-0.1-0.2c0-0.1,0.2-0.2,0.2-0.2c0-0.1-0.1-0.2-0.1-0.2h0.1c0-0.2-0.2-0.2-0.2-0.2
		c0.1-0.2,0.2-0.6,0.2-0.7c0-0.1-0.2-0.2-0.2-0.3s0.2-0.2,0.2-0.2c0-0.1-0.1-0.2-0.1-0.2c0-0.1,0.1-0.2,0.1-0.3V60
		c0-0.2,0.1-0.4,0.1-0.7c0-0.1-0.1-0.2-0.1-0.2c0-0.2,0.1-0.6,0.1-0.7c0-0.2-0.1-0.2-0.1-0.3c0-0.3,0.2-0.5,0.2-0.9
		s-0.2-0.3-0.2-0.5s0.2-0.6,0.2-0.9c0-0.2-0.2-0.2-0.2-0.6c0-0.2,0.1-0.3,0.1-0.6s-0.2-1-0.2-1.3c0-0.1,0.1-0.2,0.1-0.3l-0.2-0.5
		v-0.2c0,0-0.7-0.7-0.7-1V51c-1.2-1.2-1.4-0.9-1.6-1.1c-0.2,0-0.9-0.1-1.2-0.6c-0.2,0.1,0.9-0.7,0.9-0.9v-0.1c0-0.2,0.2-0.2,0.6-0.7
		c0.2-0.4,0.3-0.2,0.5-0.5c0.2-0.1,0.7-0.8,0.7-1.1v-0.2c0-0.3,0.2-0.5,0.5-0.8c0-0.1-0.1-0.2-0.1-0.3c0.1,0,0.2-0.4,0.2-0.6
		c0,0-0.2-0.1-0.2-0.2c0.1-0.1,0.2-0.2,0.2-0.2c0-0.6-0.2-1.1-0.2-1.4c0-0.1,0.1-0.2,0.1-0.2c0-0.4-0.2-0.7-0.2-0.8
		c0-0.2,0.1-0.6,0.1-0.9c0-0.1-0.1-0.2-0.1-0.3c0-0.2,0.2-0.5,0.2-0.7S767,39,767,38.8c0-0.1,0.2-0.2,0.2-0.2c0-0.1-0.1-0.2-0.1-0.3
		s0.2-0.2,0.2-0.2c0-0.2-0.2-0.3-0.2-0.6c0-0.1,0.1-0.2,0.2-0.2c0-0.1-0.2-0.2-0.2-0.3c0.2-0.2,0.2-0.3,0.2-0.5
		c0-0.1-0.1-0.2-0.1-0.4s0.1-0.6,0.1-0.7c0-0.2-0.1-0.2-0.1-0.2c0-0.3,0.1-0.4,0.1-0.6c0-0.1-0.2-0.2-0.2-0.3s0.1-0.2,0.1-0.3
		l-0.1-0.2v-0.2c0-0.2,0-0.3-0.2-0.6c0-0.2,0.2-0.2,0.2-0.6c0-0.2-0.2-0.6-0.2-1.7l0.1-0.2c0-0.6-0.3-0.8-0.3-1.7v-0.2
		c0-0.1-0.2-0.3-0.2-0.7l0.1-0.2c-0.2-0.2-0.2-0.4-0.2-0.7v-0.2c0,0-0.6-0.4-0.6-1.5c0-0.1,0.1-0.2,0.1-0.2V25c0,0.2-0.3-0.7-1-0.7
		c-0.5,0-0.9-1-1-1.1c-0.1,0,0.2-0.6,0.2-0.6h0.2c0,0,0.3-0.3,0.5-0.4c0,0,0.2,0.1,0.3,0.1s0-0.2,0.2-0.3h0.2c0,0,0.6-0.2,0.9-0.2
		c0.1,0,0.2,0.2,0.3,0.2s0.2-0.2,0.2-0.2h1.1c0.1,0,0.1,0.2,0.2,0.2c0.3,0,0.2-0.2,0.7-0.2l0.2,0.2c0.2,0,0.2-0.3,0.5-0.3
		c0.1,0,0.2,0.1,0.2,0.1h0.1c0.1,0,0.2,0.1,0.2,0.1c0.2,0,0.4-0.2,0.6-0.2c0.4,0,0.6,0.2,0.9,0.2c0.1,0,0.2-0.1,0.2-0.1
		s0.2,0.1,0.3,0.1c0,0,0.1-0.2,0.2-0.2c0.3,0,0.7,0.2,0.9,0.2c0,0,0.1-0.1,0.2-0.1c0.1,0,0.1,0.1,0.2,0.1c0.1,0,0.2-0.1,0.2-0.1
		c0.1,0.1,0.2,0.1,0.2,0.1c0.2,0,0.2-0.1,0.2-0.1c0.2,0,0.2,0.1,0.3,0.1s0.2,0,0.3-0.1c0.1,0,0.2,0.1,0.2,0.1c0.1,0,0.2-0.2,0.3-0.2
		l0.2,0.2h0.8c0.1,0,0.1-0.2,0.2-0.2c0.1,0,0.2,0.2,0.3,0.2c0.4,0,0.7-0.1,1.1-0.1c0.2,0,0.3,0.1,0.6,0.1c0.2,0,0.6-0.1,0.6-0.1
		c0.3,0,0.4,0.1,0.6,0.1h0.6c0.4,0,0.6-0.2,1.1-0.2c0.1,0,0.2,0.2,0.2,0.2c0.2,0,0.4-0.2,0.5-0.2c0.2,0,0.2,0.2,0.3,0.2
		s0.3-0.2,0.6-0.2h0.3c0.2,0,0.4,0.1,0.6,0.1c0,0,0.1,0,0.2-0.1c0.1,0,0.2,0.1,0.2,0.1s0.2-0.1,0.3-0.1c0,0,0.1,0.1,0.2,0.1
		c0.1,0,0.1-0.2,0.3-0.2s0.2,0.1,0.5,0.1h0.8c0.1,0,0.2-0.2,0.2-0.2c0.3,0,0.6,0.2,0.9,0.2c0.1,0,0.2-0.2,0.3-0.2h0.2
		c0.1,0,0.2,0.1,0.3,0.1c0,0,0.1-0.2,0.2-0.2c0.1,0,0.2,0.1,0.2,0.1c0.2,0,0.2-0.2,0.6-0.2c0.2,0,0.2,0.2,0.2,0.2
		c0.5,0,0.8-0.4,1.1-0.4l0.2,0.2c0,0,0.2-0.2,0.3-0.2s0.2,0.1,0.3,0.1c0,0,0.1-0.1,0.2-0.1h0.6c0.1,0,0.1,0.2,0.2,0.2
		c0.1,0,0.2-0.2,0.2-0.2c0.4,0,0.4,0.2,0.6,0.2c0.1,0,0.2-0.1,0.2-0.1c0.2,0,0.3,0.1,0.4,0.1h0.2c0.2,0,0.2,0.2,0.3,0.3
		c0,0,0.3,0,0.3,0.1v0.2c0,0.2,0.6,0.2,0.6,1c0,0.2-0.1,0.5-0.1,0.6s0.2,0.2,0.2,0.3c0,0.1-0.2,0.1-0.2,0.3c0,0,0.2,0.1,0.2,0.2
		s-0.2,0.2-0.2,0.2c0,0.2,0.2,0.5,0.2,0.5c0,0.2-0.2,0.2-0.2,0.3c0,0.1,0.1,0.2,0.1,0.2c0,0.1,0,0.2-0.1,0.3c0,0.1,0.1,0.3,0.1,0.3
		c0,0.2-0.1,0.6-0.1,0.9c0,0,0.1,0.1,0.1,0.2V28c0,0.2-0.1,0.2-0.1,0.4c0,0,0.1,0.1,0.1,0.2c0,0.3-0.2,0.3-0.2,0.5
		c0,0.1,0.2,0.2,0.2,0.2c0,0.2-0.2,0.2-0.2,0.3c0,0.6,0.2,1,0.2,1.1s-0.2,0.2-0.2,0.2c0,0.2,0.2,0.4,0.2,0.6s-0.2,0.3-0.2,0.6
		c0,0.2,0.1,0.2,0.1,0.3c0,0-0.1,0.2-0.1,0.3v1c0,0.2,0.1,0.2,0.1,0.2c0,0.2-0.1,0.2-0.1,0.4c0,0.1,0.2,0.2,0.2,0.2
		c0,0.4-0.2,0.5-0.2,0.8c0,0.1,0.1,0.2,0.1,0.2c0,0.2-0.1,0.5-0.1,0.9l0.2,0.2c0,0.2-0.2,0.4-0.2,0.5c0,0.2,0.1,0.4,0.1,0.6
		c0,0.2-0.1,0.5-0.1,0.7v0.5c0,0.1,0.1,0.2,0.1,0.2c0,0.3-0.1,0.6-0.1,0.8c-0.8,0-1-0.9-1.2-1.2V39c0-0.3-0.2-0.1-0.2-0.3v-0.3
		c-0.1-0.2-0.2-0.1-0.2-0.2l0.1-0.2c0-0.1-0.2-0.1-0.2-0.2c-0.6-1,0.5,0.5-0.7-1.9C792.8,35.7,792.5,35.6,792.5,35.3z M764.6,76.6
		L764.6,76.6L764.6,76.6z M765,47.6C765,47.6,765.1,47.6,765,47.6C765,47.6,765,47.7,765,47.6z M778,73L778,73L778,73z"/>
	<path class="st4" d="M795.8,48.4c0.2-0.4-0.3,0.2,1.1-1.3c0.4-0.8-0.5,0.2,1.1-1.4c0.1,0,1-1.6,1-1.7c0-0.2-0.2-0.7-0.2-0.8
		c0-0.4,0.2-0.4,0.2-0.6v-0.8c0-0.2-0.2-0.2-0.2-0.3c0-0.9,0.2-1.1,0.2-1.4V39c0-0.1-0.3-0.2-0.3-0.3c0,0,0.3-0.1,0.3-0.2
		c0-0.2-0.2-0.4-0.2-0.7c0-0.2,0.1-0.6,0.1-0.9c0-0.1-0.1-0.2-0.1-0.2c0-0.2,0.1-0.2,0.1-0.3s-0.2-0.2-0.2-0.3
		c0-0.2,0.3-0.4,0.3-0.5c0-0.2-0.3-0.2-0.3-0.4c0,0,0.1-0.1,0.1-0.2l-0.1-0.2c0-0.4,0.3-0.4,0.3-0.8c0-0.1-0.3-0.2-0.3-0.2
		c0-0.1,0.3-0.2,0.3-0.3c0-0.2-0.2-0.4-0.2-0.6c0.1-0.1,0.1-0.2,0.1-0.2c0-0.1-0.2-0.2-0.2-0.2c0-0.4,0.3-0.4,0.3-0.6v-0.6l-0.2-0.2
		c0.2-0.2,0.2-0.3,0.2-0.6c0-0.1-0.1-0.3-0.1-0.6c0-0.1,0.2-0.1,0.2-0.2s-0.2-0.2-0.2-0.3c0-0.1,0.2-0.2,0.2-0.5
		c0-0.2-0.2-0.2-0.2-0.2v-1.5c-0.2-0.2,0-0.4-0.3-0.8v-0.5c0-0.2-0.1-0.2-0.1-0.3c0-0.1,0.1-0.2,0.1-0.2c0-0.2-0.2-0.3-0.2-0.6
		c0-0.2,0.1-0.2,0.1-0.2c0-0.1-0.1-0.4-0.1-0.5c-0.2-0.2-0.7-0.8-0.7-1.1v-0.2c0-0.3-0.4,0-0.4-0.6h0.2c0.2,0,0.2,0.1,0.2,0.1
		c0.3-0.1,0.4-0.2,0.9-0.4h0.1c0.2,0,0.6,0,0.7-0.2c0.1,0,0.2,0.2,0.3,0.2h0.2c0.9-0.4,2-0.3,2-0.3c0.2,0,0.4,0.1,0.6,0.2
		c0.1,0,0.2-0.1,0.3-0.1l0.2-0.1c0.3,0.1,0.3,0.2,0.6,0.2l-0.1,0.1c0.2,0,0.2-0.1,0.3-0.1s0.4,0.2,0.6,0.2c0.1,0,0.1-0.1,0.2-0.1
		c0,0,0.1,0.2,0.2,0.2L805,22c0.2,0,0.4,0.1,0.6,0.1c0.6,0,0.6-0.2,1.1-0.2c0.1,0,0.2,0.2,0.2,0.2c0.2,0,0.3-0.2,0.4-0.2h0.2
		c0.3-0.2,0.7-0.2,0.8-0.2h0.2c0.2,0,0.3-0.2,0.5-0.2h0.3c0.2,0,0.2-0.2,0.2-0.2c0.1,0,0.2,0.1,0.3,0.1c0.2,0,0.2-0.2,0.3-0.2
		s0.2,0.1,0.2,0.1c0.1,0,0.2-0.1,0.3-0.1l0.2,0.2c0.1,0,0.2-0.1,0.3-0.1c0.4,0,0.9,0.2,1.4,0.2c0.1,0,0.2-0.2,0.4-0.2
		c-0.1,0.2-0.2,0.2-0.2,0.3c0.2-0.2-0.5,0.6-0.5,0.7v0.2c0,0.2-0.4,0.5-0.6,0.8c-0.1,0.1-0.5,0.6-0.5,1v0.2c0,0.2-0.6,0.6-0.6,1.1
		c0,0.2,0.1,0.2,0.1,0.2c-0.1,0.2-0.2,0.3-0.3,0.5c0,0.1,0.1,0.2,0.1,0.2s-0.2,1-0.4,1.1c0,0.1,0.1,0.2,0.1,0.3l-0.3,0.2l0.1,0.2
		c0,0.1,0,0.2-0.1,0.2c0,0.8-0.4,0-0.4,1.8V30c0,0.1-0.2,0.2-0.2,0.2c0,0.1,0.2,0.2,0.2,0.2c0,0.1-0.2,0.2-0.2,0.2
		c0,0.1,0.2,0.2,0.2,0.3c0,0.5-0.2,0.6-0.2,0.9l0.2,0.2c0,0.2-0.2,0.5-0.2,0.7s0.1,0.3,0.1,0.4c0,0.1-0.3,0.4-0.3,0.4v0.6
		c0-0.2-0.2,0.3-0.2,0.6l0.1,0.2c0,0.8-0.2,1.2-0.2,2c0,0.1,0.1,0.2,0.1,0.3c0,0.2-0.1,0.4-0.1,0.5h0.1c0,0.2-0.1,0.2-0.1,0.3
		s0.2,0.2,0.2,0.2c0,0.1-0.2,0.2-0.2,0.3l0.2,0.2c0,0.1-0.2,0.2-0.2,0.2c0,0.1,0.2,0.3,0.2,0.4c0,0.1-0.2,0.2-0.2,0.2
		c0,0.1,0.2,0.2,0.2,0.3s-0.2,0.3-0.2,0.5c0.1,0.1,0.2,0.8,0.2,0.8v0.7c0,0.1,0.2,0.2,0.2,0.5c0,0.1-0.1,0.2-0.1,0.2
		s0.1,0.5,0.4,0.9c0,0.1-0.1,0.2-0.1,0.3l0.2,0.5c0,1.4,0.7,0.5,2,2.9c0,0.1,0,0.2-0.1,0.2c0.2-0.2-0.8,0.5-0.8,1v0.2
		c0,0.5-0.7,1-0.7,1.2c0.1-0.1-0.7,0.4-0.7,1.3c0,0.1,0.2,0.2,0.2,0.2c0,0.1-0.2,0.2-0.2,0.2v2.2c0,0.2,0.2,0.6,0.2,0.7
		c0,0.1-0.2,0.2-0.2,0.2c0,0.3,0.3,0.4,0.3,0.6c0,0.1-0.3,0.2-0.3,0.3c0,0.2,0.3,0.7,0.3,1.2c0,0.1-0.1,0.2-0.1,0.3
		c0,0.3,0.1,0.6,0.1,0.7v0.8c0,0.2,0.2,0.4,0.2,0.6c0,0.2-0.1,0.2-0.1,0.3c0,0.3,0.2,0.6,0.2,0.8c0,0.3-0.2,0.4-0.2,0.6
		c0,0.1,0.2,0.3,0.2,0.5V62c0,0.2-0.1,0.3-0.1,0.4c0,0.2,0.1,0.3,0.1,0.4c0,0.4-0.1,0.4-0.1,0.6c0,0.3,0.1,0.6,0.1,0.9
		c0,0-0.1,0.1-0.1,0.2c0,0.4,0.2,0.5,0.2,0.7s-0.2,0.2-0.2,0.2c0,0.2,0.1,0.2,0.1,0.3s-0.1,0.2-0.1,0.2s0.3,0.8,0.3,1.1
		c0,0.1-0.1,0.2-0.1,0.2c0,0.1,0.1,0.2,0.1,0.3c0,0.1-0.2,0.1-0.2,0.2c0.1,0.1,0.3,0.1,0.3,0.2c0,0.2-0.2,0.3-0.2,0.6
		c0.1,0.2,0.2,0.7,0.3,1.1c0,0.1-0.1,0.2-0.1,0.3c0,0,0.2,0.1,0.2,0.2c0,0-0.1,0.2-0.1,0.3c0,1.1,0.7,0.2,0.7,2.2
		c0,0.5,0.2-0.1,0.9,1.3c-0.2-0.2,0.5,0.7,0.5,1.1c0,0.5,0.2,0.5,0.2,0.7c-0.1,0-0.2-0.2-0.2-0.2c-0.2,0-0.2,0.1-0.2,0.1
		c-0.3,0-0.6-0.2-0.9-0.4c-0.1,0-0.2,0.1-0.3,0.1c0-0.1-0.1-0.2-0.2-0.2c-0.1,0-0.2,0.1-0.2,0.1c-0.2-0.1-0.2-0.2-0.5-0.3
		c-0.1,0-0.2,0.2-0.2,0.2l-0.9-0.2h-1.2c-0.2,0-0.6,0.1-0.7,0.2c-0.2,0-0.2-0.1-0.3-0.1s-0.2,0-0.2,0.1c-0.1,0-0.2-0.1-0.2-0.1
		c-0.8,0-0.9,0.2-1.1,0.2c-0.2,0-0.2-0.1-0.4-0.2c0.1,0-0.7-0.1-1.3,0.2c-0.1,0-0.2-0.1-0.2-0.1c-0.2,0-0.3,0.1-0.4,0.1h-0.2
		c-0.2,0-0.6,0.2-1.1,0.2l-0.2-0.1c-0.3,0-0.3,0.1-0.8,0.3c-0.2,0-0.2-0.2-0.2-0.2h-0.1c-0.2,0-0.2-0.1-0.3-0.1s-0.6,0.2-1.1,0.5
		h-0.2c-0.1,0-0.3,0.3-1.1,0.3c-0.1,0-0.2-0.1-0.2-0.1s-0.8,0.4-1.3,0.4c-0.2,0-0.2-0.2-0.2-0.2c0.1,0,0.2-0.2,0.3-0.3
		c-0.1,0.2,0.9-0.3,0.9-1.1c0-0.7,0.2,0.3,0.8-1.4c0.7-0.7,0,0,0.8-1.8V73c0-0.2,0.5-0.4,0.5-0.9l-0.2-0.2c0,0,0.1-0.3,0.3-0.8v-0.3
		c0-0.1,0.2-0.1,0.2-0.2s-0.1-0.2-0.1-0.2v-0.3c0-0.1,0.2-0.1,0.2-0.2c0,0-0.1-0.1-0.1-0.2c0.1-0.1,0-0.2,0.1-0.2
		c0-0.2-0.1-0.4-0.1-0.5c0-0.2,0.2-0.3,0.2-0.7c0-0.8-0.2-1.1-0.2-1.5c0-0.1,0.1-0.3,0.1-0.5s-0.2-0.3-0.2-0.6
		c0-0.2,0.2-0.2,0.2-0.3c-0.2-0.1-0.2-0.3-0.2-0.6c0-0.2,0.1-0.3,0.1-0.6c0-0.2-0.2-0.7-0.2-1.1c0-0.3,0.2-0.5,0.2-0.7
		c0-0.1-0.2-0.2-0.2-0.2c0-0.1,0.1-0.2,0.1-0.2c0-0.1-0.1-0.2-0.1-0.3c0-0.2,0.1-0.5,0.1-0.9v-0.2c0-0.4,0.2-0.7,0.2-1.1
		c0-0.2-0.2-0.2-0.2-0.2c0-0.5,0.2-0.5,0.2-0.7v-0.8c0-0.1,0.1-0.2,0.2-0.2c0-0.1-0.2-0.2-0.2-0.3l0.2-0.2c0-0.1-0.2-0.2-0.2-0.3
		s0.2-0.2,0.2-0.2c0-0.1-0.2-0.2-0.2-0.3s0.2-0.2,0.2-0.2c0-0.1-0.2-0.2-0.2-0.2c0-0.2,0.2-0.4,0.2-0.6c0-0.2-0.2-0.2-0.2-0.6
		c0-0.2,0.2-0.2,0.2-0.6c0-0.2-0.2-0.4-0.2-0.6c0-0.3,0.1-0.7,0.1-1.1c0-1-0.7-0.2-0.7-1.6v-0.3c0-0.2-0.2-0.2-0.2-0.2l-0.7-0.8
		c-0.2-0.1,0-0.2-0.2-0.2l-0.2,0.1c0.1,0-0.3-0.4-0.7-0.4c-0.2,0-0.2,0.2-0.6,0.2C796,48.4,796,48.4,795.8,48.4z"/>
	<path class="st4" d="M845.8,76c0,0.1,0.2,0.2,0.2,0.3c0,0.2-0.6,0.7-1,0.7c-0.1,0-0.1-0.2-0.2-0.2c0,0.1-0.4,0.2-0.7,0.4
		c-0.3,0-0.7-0.2-1.1-0.2c-0.3,0-0.3,0.2-0.6,0.2h-0.2c-0.2-0.1-0.5-0.2-0.6-0.2s-0.2,0.1-0.2,0.1c-0.2-0.1-0.2-0.3-0.2-0.3h-0.6
		c-0.2,0-0.6-0.2-0.7-0.2c-0.1,0-0.2,0.1-0.2,0.1c-0.1,0-0.2-0.2-0.2-0.2c-0.1,0-0.2,0.1-0.2,0.1c-0.4,0-0.6-0.1-0.9-0.2l-0.2,0.1
		c-0.2,0-0.4-0.1-0.6-0.1c-0.1,0-0.2,0.1-0.3,0.1c-0.2,0-0.3-0.1-0.5-0.1s-0.3,0.2-0.6,0.2H836c-0.1,0-0.2-0.1-0.2-0.1
		c-0.4,0-0.5,0.1-0.6,0.1s-0.2-0.2-0.2-0.2c-0.2,0-0.2,0.2-0.3,0.2c-0.2,0-0.3-0.2-0.5-0.2c-0.1,0-0.2,0.2-0.3,0.2h-0.2
		c-0.6,0-1-0.2-1.5-0.2c-0.2,0-0.6,0.2-0.8,0.2s-0.3-0.2-0.5-0.2c0.1,0-0.9,0-1.1,0.2H828c-0.3,0-0.6,0.2-0.9,0.2h-0.2
		c-0.2,0-0.2,0.2-0.3,0.3c-0.1,0-0.2-0.2-0.2-0.2c-1.7,0,0.3,0.5-2,0.5c-0.1,0-0.2-0.1-0.2-0.1c-0.1,0.1-0.2,0.2-0.3,0.2
		c-0.2,0-0.3-0.2-0.4-0.2c-0.1,0-0.2,0.2-0.3,0.2h-0.5c-0.3,0-0.5-0.1-0.7-0.1c-0.3,0-0.4,0.2-0.5,0.2c-0.2,0-0.2-0.2-0.3-0.2
		c-0.2,0-0.3,0.2-0.5,0.2c-0.1,0-0.2-0.1-0.2-0.1c-0.2,0-0.2,0.1-0.3,0.1c-0.4,0-0.4-0.2-0.6-0.2c-0.2,0-0.7,0.2-0.8,0.2
		c-0.2,0-0.3-0.2-0.5-0.2s-0.2,0.1-0.3,0.1c-0.2,0-0.3-0.2-0.5-0.2s-0.3,0.2-0.3,0.2c-0.2,0-0.2-0.2-0.7-0.2c0,0-0.1,0.2-0.2,0.2
		c-0.2,0-0.4-0.2-0.6-0.2c-0.4,0-0.9,0.1-1.4,0.1c0-0.6,0.6-0.5,0.6-0.8v-0.1c0.1,0,0.5-0.2,1.5-1.2c0.7-0.6-0.2,0.4,1.9-1.7
		c-0.1,0.2,0.6-1.1,0.6-2c0-0.1-0.1-0.2-0.1-0.2c0-0.1,0.1-0.2,0.1-0.2c0-0.7-0.2-1.1-0.2-1.3c0-0.2,0.2-0.4,0.2-0.6
		c0-0.3-0.2-0.4-0.2-0.6c0-0.1,0.2-0.2,0.2-0.2c0-0.3-0.2-0.4-0.2-0.6s0.2-0.5,0.2-0.8c0-0.1-0.2-0.2-0.2-0.2c0-0.3,0.2-0.5,0.2-0.6
		V66c0-0.2,0.1-0.3,0.1-0.5c0-0.3-0.1-0.6-0.1-0.8c0-0.1,0.2-0.2,0.2-0.2c0-0.1-0.2-0.2-0.2-0.2c0-0.2,0.1-0.2,0.1-0.4
		c0-0.2-0.1-0.3-0.1-0.6c0-0.7,0.2-0.8,0.2-1c0-0.1-0.2-0.2-0.2-0.2c0-0.2,0.1-0.2,0.1-0.3c0-0.6-0.2-0.7-0.2-1.1
		c0-0.3,0.2-0.3,0.2-0.5c0-0.1-0.1-0.2-0.1-0.2c0-0.2,0.1-0.2,0.1-0.3c0-0.2-0.1-0.3-0.1-0.5c0-0.3,0.1-0.5,0.1-0.7
		c0-0.1-0.2-0.2-0.2-0.2c0-0.1,0.2-0.2,0.2-0.2c0-0.1-0.2-0.2-0.2-0.2c0-0.2,0.2-0.2,0.2-0.3s-0.1-0.2-0.1-0.2
		c0-0.1,0.1-0.2,0.2-0.2c0-0.3-0.2-0.4-0.2-0.7c0.1-0.1,0.1-0.2,0.1-0.2c0-0.2-0.1-0.5-0.1-0.8c0-0.1,0.1-0.2,0.1-0.2
		c0-0.9-0.2-0.8-0.2-1.1c0-0.2,0.1-0.2,0.1-0.4c0-0.1-0.1-0.2-0.1-0.3s0.1-0.1,0.1-0.2c0-0.2-0.7-1.5-1.1-2
		c-1.4-1.2-1.4-1.2-1.5-1.2c0.1,0.2-0.4-0.5-1.1-0.5H815v-0.2c0-0.2,1.6-2,1.7-2c0,0.1,0.9-0.3,0.9-0.8v-0.2c0,0,0.4-0.5,0.4-0.6V45
		c-0.1,0.1,0.2-0.5,0.2-0.5c0-0.3-0.2-0.4-0.2-0.5c0-0.2,0.2-0.4,0.2-0.7c0-0.5-0.2-0.6-0.2-0.8s0.2-0.2,0.2-0.3
		c0-0.2-0.2-0.3-0.2-0.5s0.1-0.4,0.1-0.6c0-0.1-0.1-0.2-0.1-0.2c0-0.1,0.2-0.2,0.2-0.2c0-0.2-0.1-0.2-0.1-0.4v-0.7
		c0-0.1-0.1-0.2-0.1-0.3s0.1-0.2,0.1-0.3c0-0.2-0.3-0.2-0.3-2c0-0.1,0.1-0.2,0.1-0.2s0-0.2-0.1-0.2c0-0.2,0.1-0.2,0.1-0.3
		c0-0.2-0.1-0.3-0.1-0.6l0.1-0.2c0-0.2-0.1-0.3-0.1-0.4c0-0.1,0.1-0.2,0.1-0.2c0-0.1-0.2-0.4-0.2-0.6c0-0.1,0.2-0.2,0.2-0.2
		c0-0.1-0.2-0.2-0.2-0.2c0-0.2,0.2-0.3,0.2-0.6c0-0.1-0.2-0.2-0.2-0.2c0-0.3,0.2-0.6,0.2-0.9c0-0.1-0.2-0.2-0.2-0.2v-1
		c0-0.2-0.1-0.2-0.1-0.3c0-0.1,0.1-0.2,0.1-0.2V30c0-0.2-0.2-0.2-0.2-0.3c0-0.2,0.2-0.2,0.2-0.3l-0.1-0.1c0-0.1,0.1-0.1,0.1-0.2
		c0-0.4-0.5-1.1-0.5-1.7l0.2-0.2c0-1.1,0.7-0.2-1.5-2.6c-0.2,0-0.2-0.4-0.6-0.4c-0.8,0-1.6-1.1-1.6-1.1c0.1,0,0-0.1,0.2-0.2
		c0,0,0.1,0.1,0.2,0.1c0.2,0,0.2-0.6,1.2-0.6c0.2,0,0.2,0.1,0.4,0.1c0.7,0,0.7-0.2,0.8-0.2c0.2,0,0.2,0.2,0.3,0.2s0.2-0.2,0.2-0.2
		c0.4,0,0.5,0.2,0.7,0.2c0.1,0,0.2-0.1,0.2-0.1c0.2,0,0.2,0.1,0.3,0.1c0.2,0,0.5-0.1,0.7-0.1s0.2,0.1,0.3,0.1h0.5
		c0.2,0,0.7-0.1,1-0.1c0.1,0,0.2,0.1,0.2,0.1c0.5,0,0.4-0.3,0.6-0.3c0.1,0,0.2,0.2,0.2,0.2c0.2,0,0.2-0.3,0.6-0.3
		c0.2,0,0.4,0.2,0.6,0.2c0.2,0,0.4-0.1,0.6-0.1c0.2,0,0.5,0.2,0.8,0.2c0.1,0,0.2-0.2,0.3-0.2c0,0,0.1,0.2,0.2,0.2
		c0.1,0,0.2-0.2,0.2-0.2c0.1,0,0.3,0.2,0.4,0.2v0.2c0.1,0,0.2-0.1,0.3-0.1c0.2,0,0.3,0.1,0.5,0.2c0.1,0,0.2-0.2,0.2-0.2
		c0.2,0,0.2,0.2,0.3,0.2l0.2-0.2l0.2,0.1h0.1c0.1,0,0.1,0.1,0.2,0.1c0.7,0,0.7-0.4,1.1-0.4c0.1,0,0.2,0.2,0.2,0.2l0.2-0.2h0.2
		c0.2,0,0.7-0.1,0.8-0.2c0.2,0,0.2,0.1,0.3,0.1c0,0,0.3-0.2,0.6-0.2l0.2,0.1c0.2,0,0.2-0.2,0.2-0.2c0.2,0,0.2,0.1,0.3,0.1
		s0.2-0.2,0.3-0.2c-0.2,0.5-0.7,0.8-0.7,0.9s0.1,0.2,0.1,0.2c-0.6,0.6-0.7,0.7-1,1c0,0-1,0.4-1,1.1v0c0,0.4-0.7-0.7-0.7,1.9V27
		c0,0-0.1,0.4-0.2,0.6c0,0.1,0.1,0.2,0.1,0.3c-0.1,0-0.2,0.1-0.2,0.2v0.2c0,0.2-0.2,0.4-0.2,0.5s0.1,0.2,0.1,0.2
		c0,0.2-0.2,0.7-0.2,1.2c0,0.1,0.1,0.2,0.1,0.2c-0.1,0.2-0.2,0.2-0.3,0.2c0,0.2,0.2,0.4,0.2,0.6c0,0,0.1,0.7-0.4,1.1
		c0,0.1,0.1,0.2,0.1,0.3l-0.1,0.1c0,0.1,0.1,0.2,0.1,0.2l-0.1,0.1c0,0,0.1,0.1,0.1,0.2c-0.1,0.1-0.2,0.2-0.2,0.2
		c0,0.1,0.1,0.2,0.1,0.2c0,0.2-0.1,0.2-0.1,0.3s0.1,0.2,0.1,0.2c0,0.3-0.2,0.6-0.3,0.9c0,0.1,0.1,0.2,0.1,0.2c0,0.3-0.2,0.5-0.2,0.8
		c0,0.1,0.2,0.2,0.2,0.2c0,0.2-0.2,0.3-0.2,0.5s0.2,0.3,0.2,0.7l-0.2,0.6c0,0.2,0.2,0.5,0.2,0.8c0,0.4-0.2,0.8-0.2,1.4
		c0,0.2,0.1,0.2,0.1,0.4s-0.1,0.4-0.1,0.6c0,0.1,0.2,0.2,0.2,0.3s-0.1,0.2-0.1,0.2c0,0.1,0.2,0.2,0.2,0.2c0,0.1-0.1,0.2-0.1,0.2
		c0,0.2,0.2,0.2,0.2,0.3c0,0.2-0.2,0.2-0.2,0.3s0.1,0.2,0.1,0.2v0.6c0,0.1,0.2,0.8,0.2,1.1c-0.3-0.2,0.5,0.7,0.5,0.8v0.2h0.2
		c0.2,0,0.3,0.3,0.5,0.4c0.1,0,0.1,0.2,0.1,0.2c0.4,0.5,0.5-0.2,1.8,1c-3.1,3-0.8,0.3-2.7,2.5v0.2c0,0.2-0.4,0.2-0.4,0.6
		c0,0.2,0.1,0.2,0.1,0.3c-0.1,0-0.1,0.2-0.1,0.2c0,0.4,0.2,0.7,0.2,0.8c0,0.2-0.2,0.5-0.2,0.8c0,0.1,0.1,0.2,0.1,0.3
		s-0.1,0.2-0.1,0.2c0,0.1,0.1,0.2,0.1,0.2c0,0.2-0.1,0.2-0.1,0.3s0.1,0.2,0.1,0.3l-0.1,0.2c0,0.2,0.2,0.4,0.2,0.6
		c0,0.2-0.2,0.4-0.2,0.5c0,0.2,0.2,0.3,0.2,0.4c0,0.2-0.1,0.4-0.1,0.6c0,0.2,0.1,0.4,0.1,0.6c0,0.1-0.2,0.1-0.2,0.2
		c0,0.2,0.2,0.6,0.2,1.1c0,0.2-0.1,0.4-0.1,0.5c0,0.4,0.2,0.4,0.2,0.6c0,0.2-0.2,0.6-0.2,0.8s0.2,0.3,0.2,0.6v0.3
		c0,0.2-0.1,0.3,0,0.5v0.7c0,0-0.1,0.1-0.1,0.2c0,0.2,0.1,0.3,0.1,0.6c0,0.4-0.1,0.8-0.1,1.1c0,0.2,0.2,0.4,0.2,0.5
		c0,0.2-0.1,0.4-0.1,0.5c0,0.3,0.2,0.6,0.2,0.9c0,0.1-0.1,0.2-0.1,0.2c0,0.4,0.1,0.7,0.3,0.7c0,0.2-0.2,0.2-0.2,0.3
		c0.2,0.2,0.2,0.2,0.2,0.3v0.2c0.1,0,0.2,0.1,0.2,0.1h0.3c0.2,0,0.3-0.1,0.6-0.1s0.7,0.3,0.9,0.3c0,0,0.1-0.2,0.2-0.2
		c0.1,0,0.3,0.2,0.5,0.2s0.6-0.2,0.8-0.2s0.2,0.2,0.5,0.2c0.1,0,0.2-0.1,0.4-0.1c0,0,0.1,0.1,0.2,0.1c0.2,0,0.3-0.1,0.5-0.1
		c0.5,0,0.6,0.2,0.8,0.2c0.2-0.2,0.6-0.2,0.9-0.2h0.2c0.1,0,0.2-0.1,0.3-0.1s0.2,0.1,0.2,0.1c0.2-0.2,0.4-0.2,0.8-0.3h0.2
		c0.3-0.2,0.3-0.1,0.9-0.3c0.1,0,0.2,0.1,0.2,0.1h0.2c0.2,0,0.2-0.2,0.3-0.2s0.2,0.1,0.2,0.1c0.1,0,0.2-0.1,0.3-0.2
		c0.2,0,0.4,0.1,0.5,0.1c0.1-0.1,0.2-0.1,0.2-0.1c0.1-0.1,0.1-0.3,0.3-0.3h0.1c0,0,0.7-0.4,0.7-0.7v-0.2c0.2-0.3,0.5-0.5,0.5-0.7
		c-0.1,0,0.5-0.2,0.5-1.4v-0.3c0-1.1,0.4-0.7,0.4-1.8c0-0.1-0.1-0.2-0.1-0.2c0.2-0.2,0.4-0.7,0.4-0.8v-0.3c0-0.2,0.2-0.5,0.2-0.8
		l-0.1-0.2c0-0.1,0.2-0.2,0.2-0.2c0-0.2-0.2-0.4-0.2-0.6c0-0.6,0.1-0.7,0.1-0.9s-0.2-0.4-0.2-0.7c0-0.2,0.2-0.4,0.2-0.6
		c0-0.2-0.1-0.5-0.1-0.8v-0.3c0-0.1,0.1-0.2,0.1-0.2c0-0.1-0.1-0.2-0.1-0.2c0-0.7,0.4-0.7,0.4-1.3c0-0.2-0.1-0.2-0.1-0.3v-0.3
		c0-0.2,0.1-0.2,0.1-0.7c0.2,0.2,1,0.6,1,1V54c0,0.1,0.1,0.2,0.1,0.2v0.6c0,0.9,0.2,0.8,0.2,1.1c0,0.4-0.1,0.7-0.1,0.9
		c0,0.1,0.1,0.2,0.1,0.2c0,0.2-0.1,0.2-0.1,0.3c0,0.2,0.1,0.3,0.1,0.5s-0.1,0.4-0.1,0.6c0,0.1,0.1,0.2,0.1,0.4l-0.1,0.2
		c0,0.2,0.1,0.2,0.1,0.3s-0.1,0.2-0.1,0.3l0.2,0.2c0,0.1-0.1,0.2-0.1,0.2c0,0.6,0.1,0.6,0.1,0.8c0,0.1-0.2,0.2-0.2,0.2
		c0,0.2,0.1,0.6,0.2,0.7c0,0.1-0.2,0.2-0.2,0.2c0,0.3,0.2,0.8,0.2,1.1c0,0.2-0.1,0.2-0.1,0.2v0.1c0,0.1-0.1,0.2-0.1,0.3
		c0,0.5,0.2,1,0.2,1.3c0,0.2-0.1,0.2-0.1,0.3c0,0.3,0.2,0.5,0.2,0.8c0,0.1-0.2,0.2-0.2,0.3c0,0.2,0.2,0.3,0.2,0.6
		c0,0.2-0.1,0.3-0.1,0.5c0,0.6,0.2,0.8,0.2,1.5c0,0-0.1,0.1-0.1,0.2c0,0.2,0.2,0.6,0.2,0.9l-0.2,0.2c0.1,0.2,0.2,0.7,0.2,0.9
		l-0.1,0.2c0,1,0.2,1.1,0.2,1.5c0,0.2-0.2,0.2-0.2,0.3c0,0.2,0.2,0.7,0.2,0.8c0,0.1-0.2,0.1-0.2,0.2c0,0.2,0.2,0.3,0.2,0.4
		s-0.2,0.2-0.2,0.2c0,0.2,0.2,0.2,0.2,0.3c0,0.1-0.2,0.2-0.2,0.2c0,0.1,0.2,0.2,0.2,0.2C846.1,75.8,845.8,75.9,845.8,76z"/>
	<path class="st4" d="M870.1,75.2c-0.2,0-0.2,0.2-1-0.6c0-0.2-1.1-0.2-1.1-1.7c0-0.1,0.1-0.2,0.1-0.2s-0.7-0.2-0.7-1.4
		c0-0.1,0.1-0.2,0.1-0.2c-0.1-0.1-0.3-0.5-0.3-0.5v-0.2c0-0.2-0.2-0.2-0.4-0.6c0,0,0.2-0.1,0.2-0.2v-0.2c0-0.2-0.3-0.4-0.3-0.7
		c0-1.1-0.7-0.4-0.7-2.7c0-0.1,0.1-0.2,0.1-0.2c0-0.2-0.2-0.2-0.2-0.2v-0.2c0-0.2-0.2-0.2-0.2-0.4c0-0.8-0.3-0.8-0.4-0.8
		c0-0.2,0.1-0.2,0.1-0.5c-0.1,0-0.1-0.1-0.2-0.2c0-0.2-0.4-0.3-0.4-0.7v-0.2c0,0-0.2-0.7-0.6-1.1c0-0.1,0.5-0.4-0.8-1.7
		c0.1,0.3-0.9-0.8-0.9-1.1v-0.3c0-0.1-0.2-0.3-0.5-0.7c-1.6-1.5-0.2-0.7-1.5-2c0,0.3-0.1,0.7-0.1,0.9c0,0.8,0.2,0.9,0.2,1.1
		c0,0.4-0.2,0.6-0.2,1c0,0.2,0.1,0.2,0.2,0.5c0,0.1-0.2,0.2-0.2,0.2v0.3c0,0.1,0.1,0.2,0.1,0.2c0,0.1-0.1,0.2-0.1,0.2
		c0,0.2,0.2,0.3,0.2,0.6c0,0.1-0.1,0.2-0.1,0.2v0.4c0,0.1-0.1,0.2-0.1,0.2c0,0.1,0.1,0.2,0.1,0.2c0,0.2-0.2,0.6-0.2,0.8
		c0,0.1,0.2,0.2,0.2,0.2c0,0.5-0.2,0.7-0.2,0.9v0.2c0,0.3-0.1,0.5-0.1,0.7c0,0.1,0.1,0.2,0.1,0.2c0,0.2-0.2,0.5-0.2,0.7
		c0,0.1,0.1,0.2,0.1,0.2l-0.1,0.2c0,0.2,0.2,0.3,0.2,0.7l-0.2,0.2c0,0.1,0.1,0.2,0.1,0.2c0,0.3-0.1,0.4-0.1,0.6v0.2
		c0,0.1-0.1,0.2-0.1,0.3v0.2c0,0.1,0.1,0.2,0.1,0.2c0,0.2-0.2,0.2-0.2,0.3c0,0.1,0.2,0.2,0.2,0.2c0,0.2-0.2,0.4-0.2,0.7
		c0,0.2,0.2,0.3,0.2,0.5c0,0.1-0.2,0.2-0.2,0.2c0,0.2,0.2,0.3,0.2,0.7v0.6c0.1,0.2,0.1,0.3,0.2,0.5c0,0.1-0.1,0.2-0.1,0.2
		c0.1,0.2,0.2,0.3,0.3,0.5c0,0.1-0.1,0.2-0.1,0.3c0,0.1,0.2,0.1,0.3,0.2c0,0.5,1.5,0.2,1.5,1.9c0,0.6,0.5,0.1,1.4,1.9h-0.2
		c-0.5,0-0.7-0.2-0.8-0.2s-0.2,0.1-0.2,0.1c-0.7,0-0.9-0.2-1.1-0.2c-0.1,0-0.2,0.1-0.2,0.1s-0.3-0.4-1.3-0.4c-0.1,0-0.2,0.2-0.3,0.2
		s-0.2-0.3-0.2-0.4c-0.1,0-0.2,0.3-0.3,0.3c-0.2,0-0.2-0.1-0.3-0.2l-0.2,0.2c-0.1,0-0.2-0.2-0.2-0.2c-0.5,0-0.9,0.3-1.1,0.3
		c-0.1,0-0.2-0.1-0.3-0.1l-0.3,0.2h-0.5c-0.2,0-0.2,0.1-0.3,0.1h-0.2c-0.2,0-0.7,0.2-0.8,0.2h-0.2c-0.1,0-0.2,0.1-0.2,0.1
		c-0.1,0-0.2-0.1-0.3-0.1c-0.2,0-0.2,0.2-0.3,0.2s-0.2-0.1-0.2-0.1c-0.1,0-0.2,0.1-0.2,0.1c-0.1,0-0.2-0.2-0.3-0.2
		c-0.2,0-0.4,0.2-0.6,0.2c-0.2,0-0.3-0.2-0.5-0.2s-0.4,0.1-0.7,0.1h-0.2c-0.3,0-0.7-0.1-0.8-0.3c-0.1,0-0.1,0.1-0.2,0.1
		c-0.2,0-0.3-0.1-0.5-0.1h-0.2c-0.2,0-0.4-0.2-1.2-0.2l-0.2,0.1c-0.2,0-0.3-0.1-0.5-0.1c0.1-0.1,0.2-0.1,0.2-0.3
		c0.1-0.1-0.2-0.4,0.8-1.3c0,0,0.8-0.6,0.8-1v-0.2c0-0.2,0.4-0.1,0.4-0.6s0.2-0.6,0.5-0.8c0-0.1-0.1-0.2-0.1-0.2
		c0-0.4,0.4-0.6,0.4-0.8c0-0.2-0.1-0.2-0.1-0.3c0-0.2,0.3-0.8,0.3-1.1s-0.1-0.6-0.1-0.7s0.1-0.1,0.1-0.1c0-0.1-0.1-0.2-0.1-0.3
		c0-0.2,0.2-0.7,0.2-0.9c0-0.1-0.1-0.2-0.1-0.2c0.1-0.2,0.2-0.4,0.2-0.6c0-0.1-0.1-0.2-0.1-0.2c0-0.2,0.2-0.6,0.2-0.8
		c0-0.2-0.1-0.4-0.1-0.6s0.2-0.2,0.2-0.3c0-0.1-0.2-0.2-0.2-0.2c0-0.1,0.2-0.2,0.2-0.3c0,0-0.1-0.1-0.1-0.2c0-0.6,0.1-0.9,0.1-1.1
		c0-0.2-0.2-0.2-0.2-0.3c0-0.2,0.2-0.3,0.2-0.6s-0.2-0.4-0.2-0.7c0-0.2,0.2-0.3,0.2-0.5s-0.2-0.2-0.2-0.4s0.2-0.3,0.2-0.6
		c0-0.5-0.2-1.1-0.2-1.5c0-0.3,0.1-0.3,0.1-0.7c0-0.2-0.1-0.3-0.1-0.5s0.2-0.3,0.2-0.6l-0.2-0.2c0-0.2,0.2-0.3,0.2-0.5
		c0-0.3-0.2-0.4-0.2-0.7c0-0.2,0.2-0.6,0.2-1.1c0-0.1-0.2-0.2-0.2-0.2c0-0.2,0.1-0.2,0.1-0.3s-0.1-0.2-0.1-0.2
		c0-0.3,0.1-0.4,0.1-0.6c0-0.8-0.2-0.8-0.2-1.1c0-0.1,0.1-0.2,0.1-0.3s-0.2-0.1-0.2-0.2v-0.3c0-0.1-0.2-0.2-0.2-0.2
		c0-0.1,0.1-0.2,0.1-0.3c0,0-0.1-0.5-1.6-1.9c-0.2,0-0.2-0.4-1-0.4h-0.2c0.1,0-0.3,0-0.6-0.2l-0.2,0.1c-0.1,0-0.2-0.2-0.7-0.2
		c0.2-0.2,0.5-0.3,0.7-0.4c0,0,0.3-0.7,0.6-0.7h0.2c0.2,0,0.3-0.2,1.2-1.1c0-0.4,0.5-0.4,0.5-0.7v-0.2c0,0,0.6-0.2,0.6-1.1V44
		c0-0.2,0.1,0,0.2-0.2l-0.2-0.2c0.1-0.1,0.5-0.6,0.5-1.1c0,0-0.1-0.1-0.1-0.2c0-0.3,0.1-0.2,0.3-0.5c0-0.2-0.1-0.4-0.1-0.5
		c0-0.2,0.2-0.2,0.2-0.3c0-0.2-0.1-0.2-0.1-0.3s0.1-0.5,0.1-0.7l-0.2-0.2c0.1-0.1,0.2-0.5,0.2-0.6c0-0.2-0.1-0.3-0.1-0.6
		c0-0.1,0.2-0.2,0.2-0.2c0-0.1-0.1-0.2-0.1-0.3c0,0,0.1-0.2,0.1-0.3s-0.1-0.2-0.1-0.2c0-0.1,0.1-0.2,0.1-0.2c0-0.2-0.1-0.2-0.1-0.3
		c0-0.3,0.2-0.3,0.2-0.5c0-0.3-0.2-0.6-0.2-1.1c0-0.3,0.2-0.5,0.2-0.7s-0.2-0.3-0.2-0.6c0-0.2,0.1-0.3,0.1-0.5
		c0-0.1-0.1-0.2-0.2-0.2c0-0.1,0.1-0.2,0.1-0.2V33c0-0.2-0.2-0.4-0.2-0.6c0-0.2,0.1-0.2,0.1-0.3c0-0.2-0.2-0.3-0.2-0.6
		c0-0.1,0.2-0.2,0.2-0.2c0-0.1-0.2-0.2-0.2-0.2c0-0.2,0.1-0.7,0.1-1.2c0-0.2-0.1-0.6-0.1-1.1c0-0.1,0.2-0.2,0.2-0.2
		c-0.2-0.1-0.3-0.6-0.3-1c0-0.1,0.1-0.2,0.1-0.2v-0.1c0-0.1,0.1-0.2,0.1-0.2c-0.2-0.1-0.4-0.7-0.4-0.7V26c0,0.2-1-1.8-1-1.8
		s0.1-0.1,0.1-0.2c0,0-0.9-1.3-1.1-1.8c0.1-0.2,0.3-0.3,0.6-0.3h0.3c0.1,0,0.2-0.2,0.2-0.2c0.2,0,0.2,0.1,0.3,0.1s0.2-0.1,0.2-0.2
		c0.2,0,0.3,0.1,0.6,0.1c-0.1,0.1,0.6-0.2,1.1-0.2c0.1,0,0.2,0.1,0.2,0.1c0.2,0,0.2-0.1,0.3-0.1l0.2,0.1c0.1,0,0.2-0.1,0.2-0.1
		l0.2,0.1c0.2,0,0.2-0.1,0.3-0.1s0.2,0.2,0.2,0.2c0.2,0,0.3-0.1,0.7-0.1c0.1,0,0.2,0.2,0.2,0.2l0.2-0.2l0.2,0.2
		c0.2,0,0.2-0.2,0.3-0.2s0.2,0.2,0.2,0.2l0.2-0.1c0.2,0,0.2,0.2,0.2,0.2c0.2,0,0.2-0.1,0.3-0.1c0.6,0,1,0.2,1.5,0.2l0.2-0.2
		c0.2,0,0.2,0.2,0.3,0.2s0.2-0.2,0.3-0.2c0,0,0.1,0.2,0.2,0.2c0.2,0,0.4-0.2,0.6-0.2c0,0.2-0.1,0.2-0.1,0.3c0,0.3,0.1,0.3,0.1,0.5
		v0.2c0.3,0.3,0.2,1,0.5,1.2v0.2c0,0.2,0.2,0.5,0.2,0.6v0.3c0,0.2,0.2,0.2,0.2,0.7c0,0-0.1,0.1-0.1,0.2s0.2,0.2,0.2,0.2l-0.1,0.2
		c0,0,0.2,0.8,0.4,1.1c0,0.2-0.2,0.3-0.2,0.5c0.2,0.2,0.2,0.5,0.4,0.7v0.2c0,0.1,0.1,0.2,0.1,0.3c0,0.1-0.1,0.1-0.1,0.2
		s0.3,0.5,0.3,0.9c0,0.1-0.1,0.2-0.1,0.2c0.2,0.2,0.2,0.2,0.2,0.3V31c0,0.1,0.3,0.4,0.3,0.8V32c0.1,0.1,0.3,1,0.5,1.1
		c0,0.1,0.2,0.1,0.2,0.2v0.5c0,0.1,0.2,0.4,0.2,0.6v0.2c0.2,0.4,0.4,0.6,0.5,0.8c0-0.4,0.2,1.1,0.7,1.7c0,1-0.2-0.3,0.8,1.6v0.1
		c0,0.2,0.2,0.2,0.2,0.3l-0.1,0.2c0,0.2,0.4,0.6,0.3,0.5c0-0.1-0.3,0.7,0.7,1.5c0,0,0.3,0.3,0.3,0.5V42c0,0.2,0.3,0.4,0.5,0.7
		c0,0.1-0.1,0.2-0.1,0.3c0,0,0.1,0.5,0.3,0.9c1.2,1.1,0.5,1.1,1.2,2.4c0,0.1-0.1,0.2-0.1,0.2c0,0.7,0.5,1,0.6,1.1
		c0,0.1-0.1,0.2-0.1,0.2c0,0.5,0.3,0.5,0.3,0.7v0.2c0.1-0.2,0.6-0.3,0.6-1.4v-0.2c0-0.1,0.5-0.5,0.5-0.9c0-1.6,0.7-1.5,0.7-1.8v-0.2
		c0,0,0.4-0.4,0.4-0.5v-0.2c0-0.5,0.8-0.2,0.8-1.6v-0.2c0,0,0-0.6,0.7-1.2c0-0.1-0.1-0.2-0.1-0.2c0-0.1,0.2-0.6,0.4-0.8
		c-0.1,0-0.2-0.8,0.6-1.5c0-0.5,0.4,0,0.4-1.1c0,0.1,0.1-0.8,0.5-1.2c0-0.1-0.1-0.2-0.1-0.2c0.2-0.5,0.1-0.6,1-2.1v-0.3
		c0.2-0.2,0.2,0,0.2-0.5c0.9-0.9-1-0.2,0.9-2c0-0.2-0.1-0.2-0.1-0.4c0,0,0.5-0.4,0.5-1.1v-0.2c0,0,0.3-0.3,0.3-0.5v-0.2
		c0-0.1,0.2-0.2,0.2-0.2c0.4-0.7,0.2-0.9,0.4-1c-0.1-0.2-0.1-0.9,1.1-1.9c0-0.1-0.1-0.3-0.1-0.3c0,0.2-0.2-0.2,0.6-1.1
		c1.2-1.1,0.4-0.2,1.5-1.3c0.1,0,0.2,0.1,0.2,0.1c0.3,0,0.4-0.3,0.6-0.3c0.1,0,0.2,0.2,0.2,0.2c0.2,0,0.2-0.2,0.3-0.2
		s0.2,0.1,0.3,0.1h0.3c0.1,0,0.1-0.2,0.2-0.2c0.1,0,0.2,0.1,0.2,0.1c0.3,0,0.7-0.1,1.1-0.1c0.2,0,0.3,0.2,0.6,0.2
		c0.2,0,0.6-0.2,0.9-0.2c0.2,0,0.6,0.2,1.1,0.2c0.3,0,0.6-0.1,0.7-0.1c0.2,0.1,0.2,0.2,0.4,0.2l0.2-0.2l0.2,0.2
		c0.2-0.2,1.3-0.4,1.3-0.4c0.1,0,0.2,0.1,0.3,0.1s0.2-0.2,0.6-0.2h0.2c0.2-0.1,0.2-0.1,0.3-0.1s0.2,0.2,0.2,0.2
		c0.3,0,0.5-0.2,0.8-0.2c0.1,0,0.2,0.2,0.2,0.2c-0.6,0.6,0.2,0-1,1.3c-0.2,0-1.4,0.5-1.4,1.7c0,0.9-0.3,0.7-0.4,1l0.1,0.2
		c-0.1,0.2-0.1,0.2-0.2,0.2c0,0.2,0.1,0.2,0.1,0.3c0,0.2-0.2,0.2-0.2,0.3c0,0.1,0.1,0.2,0.1,0.2c-0.2,0.2-0.2,0.3-0.3,0.6
		c0,0.1,0.1,0.2,0.1,0.3c-0.1,0.1-0.2,0.4-0.2,0.6v0.2c0,0.2-0.2,0.5-0.2,0.8v0.2c0,1.1-0.2,0.9-0.2,1.4v0.2c0,0-0.2,0.6-0.2,0.8
		c0,0.1,0.2,0.2,0.2,0.3s-0.2,0.2-0.2,0.3s0.1,0.2,0.1,0.2c0,0.1-0.1,0.2-0.1,0.2c0,0.2,0.1,0.2,0.1,0.3s-0.2,0.1-0.2,0.2
		c0,0.2,0.2,0.4,0.2,0.5c0,0.2-0.2,0.2-0.2,0.4c0,0.3,0.2,0.7,0.2,1.1c0,0.2-0.2,0.3-0.2,0.5v0.2c0,0.2,0.1,0.6,0,0.8v0.2
		c0,0.2-0.2,0.4-0.2,0.7c0,0.2,0.2,0.2,0.2,0.5c0,0.2-0.2,0.2-0.2,0.3s0.2,0.2,0.2,0.2l-0.1,0.1c0,0.1,0.1,0.2,0.1,0.2
		c0,0.2-0.2,0.5-0.2,0.8c0,0.5,0.2,0.8,0.2,1.1c0,0.1-0.2,0.2-0.2,0.2c0,0.2,0.2,0.6,0.2,0.8c0,0.1-0.1,0.2-0.1,0.2
		c0,1.2,0.7,2,0.9,2.3c0,0.2-0.1,0.2-0.1,0.3c0-0.2-0.4,0.9,1.5,1.8h0.2c0.2,0,0.1,0.2,0.2,0.2h0.3c0,0,0.4,0.2,0.4,0.3
		c-1,1.1-0.7,1.1-0.9,1.4c-1.5,1.4-0.2,0.3-1.7,1.9c-0.1,0.1-0.7,0.2-0.7,1.5c0,0.1,0.1,0.2,0.1,0.2L888,53l0.1,0.2
		c-0.1,0.3-0.5,0.6-0.5,0.9l0.2,0.2c0,0.2-0.2,0.4-0.2,0.5V55c0,0.4-0.2,0.4-0.2,0.6V56c0,0.4,0,0.5-0.2,0.8c0,0.2,0.2,0.3,0.2,0.6
		c0,0.1-0.2,0.2-0.2,0.2c0,0.1,0.1,0.2,0.1,0.2c0,0.2-0.1,0.3-0.1,0.6s0.1,0.5,0.1,0.7c0,0.8-0.1,0.9-0.1,1.4c0,0.3,0.2,0.7,0.2,1.1
		l-0.1,0.2v0.9c0,0.1,0.1,0.2,0.1,0.2c0,0.4-0.1,0.6-0.1,0.8v0.2c0,0.2-0.1,0.3-0.1,0.5c0.1,0.1,0.2,0.6,0.2,0.7s-0.1,0.2-0.1,0.2
		c0,0.2,0.2,0.2,0.2,0.4c0,0.1-0.2,0.2-0.2,0.2c0,1.5,0.6,0.8,0.6,2.4c0,0.2-0.2,0.4-0.2,0.6s0.3,0.8,0.5,1.1c0,0.1-0.1,0.2-0.1,0.2
		c0,0.4,0.3,0.4,0.3,0.6c0,0.1-0.2,0.2-0.2,0.2c-0.1-0.1,0.6,0.4,0.6,1.3v0.2c0,0.2,0.4,0.6,0.6,0.7c0,1.1-0.2-0.3,1,1.6
		c0,0.4,0.4,0.4,0.5,0.5c0.2,0.2-0.1,0.4,0.5,1h-0.2c-0.3,0-0.6,0.1-0.9,0.1c-0.2,0-0.4-0.1-0.5-0.1c-0.2,0-0.2,0.1-0.3,0.1
		l-0.2-0.1c-0.1,0-0.2,0.1-0.2,0.1c-0.2,0-0.8-0.1-1.1-0.2c-0.3,0-0.5,0.1-0.7,0.1c-0.1,0-0.2-0.1-0.2-0.1l-0.2,0.2
		c-0.2,0-0.2-0.2-0.2-0.2c-0.2,0-0.2,0.2-0.3,0.2c-0.7-0.3-0.5,0-0.7-0.3c-0.1,0-0.2,0.1-0.2,0.1l-0.2-0.1c-0.1,0-0.3,0.2-0.5,0.2
		s-0.2-0.1-0.3-0.1c-0.2,0-0.4,0.2-0.5,0.2c-0.2,0-0.2-0.2-0.5-0.2c-1.1,0-0.9,0.5-2,0.5h-0.3c-0.1,0-0.2-0.1-0.2-0.1
		c-0.2,0-0.3,0.4-0.5,0.4c-0.1,0-0.3-0.2-0.4-0.2l-0.6,0.4h-0.7c0,0-0.5,0.2-0.6,0.3c-0.1,0-0.2-0.2-0.2-0.2c-0.2,0-0.2,0.2-0.2,0.2
		h-0.6c-0.3,0-0.7,0.2-0.8,0.2s-0.2-0.2-0.2-0.2l-0.2,0.2c-0.4,0-0.9-0.1-1.2-0.1c1.5-1.5-0.5,0.2,2.2-2.4c0.1-0.2,0.6-0.3,0.6-1.3
		c0-0.1-0.1-0.2-0.1-0.3c0-0.1,0.2-0.1,0.2-0.2s-0.1-0.2-0.1-0.2c0-0.1,0.5-0.4,0.5-1.2v-0.2c0-0.3,0.2-0.6,0.2-0.8
		c0-0.1-0.1-0.2-0.1-0.2c0-0.2,0.3-0.6,0.3-0.8c0-0.2-0.1-0.4-0.1-0.6c0-0.1,0.2-0.5,0.2-0.8c0-0.1-0.1-0.2-0.1-0.3
		c0-0.4,0.2-0.6,0.2-1.1v-1.6c0-0.2,0.2-0.6,0.2-0.8c0-0.2-0.2-0.7-0.2-0.9c0-0.1,0.2-0.2,0.2-0.2c0-0.4-0.2-0.7-0.2-0.8
		c0-0.2,0.1-0.2,0.1-0.3c-0.1-0.1-0.1-0.2-0.1-0.2c0-0.1,0.1-0.2,0.1-0.3c0-0.2-0.2-0.2-0.2-0.3s0.1-0.1,0.1-0.2
		c0-0.6-0.2-0.6-0.2-1.1c0-0.1,0.1-0.2,0.1-0.2V59c0-0.1-0.2-0.2-0.2-0.2c0-0.6,0.2-0.4,0.2-0.7c0-0.1-0.2-0.3-0.2-0.5
		c0-0.1,0.2-0.2,0.2-0.3c0,0-0.2-0.5-0.2-0.6c0-0.2,0.2-0.3,0.2-0.5c0-0.3-0.2-0.5-0.2-0.9c0-0.1,0.2-0.2,0.2-0.2
		c0-0.2-0.2-0.4-0.2-0.6c0-0.1,0.1-0.2,0.1-0.2c-0.2,0.1-0.6,0.4-0.6,0.7c0,0.1-0.8,1.5-0.8,2l0.1,0.2c-0.1,0.2-0.1,0.6-0.2,0.7v0.2
		c0,0.2-0.4,0.5-0.4,1.3v0.2c0,0.1-0.2,0.1-0.2,0.2V60c0,0.2-0.2,0.1-0.2,0.3v0.2c0,0.5-0.2,0.3-0.2,0.6c0,0,0.1,0.2,0.1,0.3
		l-0.5,0.4c0,0.1,0.2,0.2,0.2,0.2c0,0.2-0.4,0.5-0.4,0.8V63c0,0.2-0.2,0.4-0.2,0.7V64c0,0-0.1,0.1-0.2,0.2l0.1,0.2
		c-0.2,0.2-0.2,0.2-0.3,0.5c0,0.1,0.1,0.2,0.1,0.3c-0.1,0-0.2,0.1-0.2,0.2c0,0,0.1,1.1-0.4,1.6v0.2c0,0.5-0.5-0.3-0.5,1.6
		c-0.1,0.2-0.1,0.7-0.9,2V71c0,0.5,0.7,0.2-0.8,1.8V73c0,0.2-0.3,0.3-0.3,0.7c0,0.1,0.1,0.2,0.1,0.2c-0.2,0.2-0.3,0.6-0.5,0.7
		C870.3,75.1,870.1,75,870.1,75.2z"/>
	<path class="st4" d="M924.2,63.8L924.2,63.8c0,0.1,0.2-0.1-0.9,1.1c0,0-0.8-0.3-1.1,1.2c-0.1,0-0.3,0-0.3,0.2v0.2
		c0,0.7,0-0.5-1.5,2.1c0.2-0.1-0.4,0.2-0.4,1.4v0.2c0,0.1-0.2,0.1-0.2,0.3v0.2c-0.1,0.2-0.3,0.5-0.3,0.7l0.2,0.1
		c-0.2,0.2-0.2,0.2-0.2,0.3c0.2-0.1-0.6,0.7-0.6,1.5c0,0.9-0.6,0.6-1.9,1.9c-0.4,0.2-0.6,0.3-0.7,0.3l-1.5,0.8c0,0-0.2-0.1-0.3-0.1
		c-0.1,0.1-0.2,0.1-0.5,0.2c-0.2,0.2-1.2,0.7-2.1,0.7h-0.2c-0.4,0.3-0.7,0.3-1.1,0.4c-0.1,0-0.2-0.1-0.2-0.1c-0.6,0-0.6,0.3-0.7,0.3
		s-0.2-0.2-0.3-0.2c-0.1,0.2-0.3,0.2-0.6,0.3h-0.1c0,0-0.3,0-0.7,0.2c-0.1,0-0.2-0.2-0.3-0.2c-0.2,0-0.5,0.3-0.8,0.3
		c-0.1,0-0.2-0.1-0.4-0.1c-0.1,0-0.4,0.1-0.7,0.1c0,0-0.1-0.2-0.2-0.2c-0.1,0-0.2,0.2-0.3,0.2s-0.2-0.2-0.5-0.2c0,0-0.1,0.2-0.2,0.2
		c-0.2,0-0.4-0.2-0.7-0.2h-0.2c-1.4,0-1.8-0.5-2-0.5h-0.2c-0.2,0-0.2-0.2-0.3-0.2c-0.2,0-0.2,0.1-0.3,0.1c-0.2-0.1-0.2-0.1-0.2-0.1
		c-0.3,0,0-1-1.5-1H899c-0.2,0,0-0.2-0.3-0.2c-0.5,0-0.7-0.8-1.7-1.4c-0.5-1.2-0.7-0.9-0.8-1.2c-0.2-0.2-0.4-1.1-0.8-1.3v-0.3
		c0-0.2,0.1-0.3,0.1-0.3c-0.1-0.2-0.4-0.4-0.4-0.6c0-0.1,0.1-0.2,0.1-0.3v-0.3c-0.1-0.1-0.3-0.1-0.3-0.2c0-0.2,0.1-0.6,0.1-0.7
		c0-0.2-0.2-0.2-0.2-0.7v-1.1c0-0.3-0.2-0.6-0.2-0.7c0-0.2,0.2-0.2,0.2-0.3c0-0.2-0.2-0.2-0.2-0.3c0-0.2,0.2-0.2,0.2-0.2
		c0-0.2-0.2-0.5-0.2-0.7s0.2-0.7,0.2-1.1c0-0.1-0.1-0.2-0.1-0.2c0-0.2,0.1-0.3,0.1-0.7c0-0.2-0.1-0.6-0.1-0.7c0-0.3,0.1-0.5,0.1-0.6
		s-0.1-0.1-0.2-0.2v-0.2c-0.1-0.1-0.3-1.1-0.7-1.1c-0.5,0,0-0.4-0.4-0.4c-0.7,0,0.3-0.1-1.5-1.1c0.1-0.1,0.4-0.6,1.3-0.6
		c-0.1,0.2,0.8-0.4,0.8-0.4h0.2c0.1,0,0.3-0.1,0.4-0.1h0.2c0.1-0.1,0.1-0.2,0.4-0.3c0.2,0,0.3,0.1,0.7,0.1c0,0,0.4-0.3,1.4-0.3
		c0.1,0,0.1,0.2,0.2,0.2h0.3c0.3,0,0.6,0.2,0.9,0.2c0.2,0,0.6-0.2,0.8-0.2c0.1,0,0.2,0.2,0.3,0.2h0.5c0.2,0,0.2-0.1,0.3-0.1
		c0.3,0,0.6,0.1,0.9,0.1h0.3c0.2,0,0.5,0.2,0.8,0.2h0.2c0.2,0,0.5,0.1,0.8,0.2h0.3c0,0,0.1,0.2,0.2,0.2c0.2,0,0.2-0.2,0.3-0.2
		c0.2,0.2,0.6,0.3,0.6,0.3h0.2c0.2,0,1.3,0.4,1.3,0.8c0,0.2,0.1,0.2,0.2,0.2c-0.2,0.1-0.2,0.3-0.5,0.3c-0.1,0-0.1-0.1-0.2-0.1
		c-0.2,0-0.5,0.2-0.6,0.3c-0.1,0-0.2-0.2-0.3-0.2s-0.1,0.2-0.1,0.2s-0.1-0.2-0.2-0.2c-0.1,0.2-0.1,0.2-0.2,0.2
		c-0.2,0-0.2-0.1-0.3-0.1c-0.7,0,0-0.3-1.7,1.5c0,0.1,0.1,0.2,0.1,0.3s-0.2,0.5-0.2,0.7c0,0.1,0.1,0.2,0.1,0.3
		c0,0.4-0.1,0.5-0.1,0.8c0,0.2,0.1,0.3,0.1,0.6c0,0.1-0.1,0.2-0.1,0.2l0.2,0.2c0,0-0.1,0.2-0.1,0.3c0,0,0.3,0.3,0.3,0.5
		s-0.1,0.2-0.1,0.2c0,0.1,0.1,0.2,0.2,0.3c0,0.1-0.1,0.2-0.1,0.2c0.2,0.6,0.1,0.3,0.3,0.6c0.4,0.7-0.7,0.4,1.5,1.5h0.2
		c0.1,0,0.2,0.2,0.5,0.3h0.3c0.1,0,0.3,0.2,0.5,0.3c0.2,0,0.2-0.1,0.2-0.1c0.1,0.1,0.2,0,0.3,0.1h0.5c0.2-0.1,0.5-0.1,0.7-0.1
		c0.1,0,0.1,0.1,0.2,0.1c0.8,0,1.1-0.2,1.7-0.2c0.1,0,0.2,0.2,0.2,0.2c0.2,0,0.6-0.2,0.6-0.2h0.2c1.1-0.5,0.7-0.8,1.1-1.1
		c-0.1,0.2,0.7-0.6,0.7-1.3V66c0-0.2,0.2-0.6,0.2-0.6c0-0.1-0.2-0.1-0.2-0.2c0-0.5,0.3-0.7,0.3-1.1c0-0.7-0.2-0.7-0.2-0.8
		c0-0.2,0.1-0.2,0.1-0.3c0-0.2-0.2-0.2-0.2-0.2c0-0.3,0.2-0.4,0.2-0.5c0-0.2-0.2-0.2-0.2-0.3c0-0.2,0.1-0.2,0.1-0.3
		c0-0.2-0.2-0.7-0.2-0.7c0-0.2,0.2-0.2,0.2-0.3c0-0.2-0.1-0.2-0.1-0.2v-1.4c0-0.5-0.2-0.4-0.2-0.6l0.2-0.2c0-0.1-0.2-0.4-0.3-0.6
		c0-0.1,0.1-0.2,0.1-0.2v-0.2c0-0.2-0.3-0.4-0.3-0.7v-0.5c0.3,0.3-0.7-1.5-0.7-2c-0.1-0.2-0.5-0.8-0.5-1.1c-0.3-0.3,0.2-0.7-1.7-1.5
		c-0.2,0-0.2,0.1-0.2,0.1c-0.5-0.2-1.1-0.3-2.1-1c-0.1,0-0.2,0.2-0.2,0.2c-0.5,0-0.9-0.2-1.7-0.7c0,0-0.1,0.1-0.2,0.1
		c-0.7,0-0.3-0.4-0.8-0.4h-0.3c-0.1-0.1,0-0.3-0.3-0.3c-0.5,0-1-0.4-1.1-0.6c-0.1-0.1-0.6-0.7-1.1-0.7h-0.2c-0.1,0-0.1-0.2-0.2-0.2
		c0,0-0.6-0.7-1-0.7h-0.2c-0.2,0-0.3-0.4-0.6-0.4c-0.5-0.6-0.8-0.6-1.5-1.3c-1.9-1.9,0.2,0.5-2.2-2.1c0,0.2-0.7-0.6-0.7-0.9v-0.2
		c0-0.1-0.2-0.2-0.2-0.4c0,0-0.8-0.8-0.8-1.4v-0.2c0,0-0.8-0.5-0.8-1c0,0.2-0.3-0.8-0.8-0.8h-0.2c-0.1,0-0.2-0.2-0.4-0.4
		c0-0.1-0.6-0.1-0.7-0.4h-0.2c-0.3,0-0.4-0.4-1.1-0.8l0.1-0.2v-0.3c0.1-0.1,0-0.3,0.2-0.3h0.1c0.2,0-0.1-0.7,0.8-0.9
		c0,0,0.2,0,0.2-0.2c0.6-0.4,0.4-0.5,0.7-0.7c0,0.2,1.1-0.3,1.1-1.1V33c0-0.5,0.5-0.3,0.5-0.7v-0.2c0-0.3,0.5-0.7,0.5-0.7v-0.3
		c0-0.2,0.4-0.7,0.4-1.1v-0.2c0-0.2,0.7-0.2,0.7-1.4l-0.1-0.2c0-0.2,0.2-0.2,0.2-0.2c0-0.1-0.1-0.3-0.1-0.3
		c-0.1,0.1,0.7-0.5,0.7-1.1v-0.2c0-0.2,0.3-0.5,0.7-1c0.4-0.9,0.7-0.7,0.8-0.7c0.6-0.7,0.2-0.4,1.1-1l0.2,0.1c0.2,0,0.1-0.3,0.3-0.3
		h0.2c0.1,0,0.2-0.1,0.2-0.1h0.2c0.2,0,0.3,0,0.8-0.3h0.3c0.7,0,0.7-0.3,1.1-0.3V23c0.2-0.2,0.2-0.3,0.6-0.3h0.2
		c0.2,0,0.2-0.2,0.3-0.2c0.2,0,0.2,0.1,0.3,0.1c0.1-0.1,0.3-0.2,0.6-0.2c0.1,0,0.2,0.1,0.2,0.1c0.2-0.1,0.9-0.6,1.2-0.6l0.1,0.2
		c0.7,0,0.7-0.5,1.5-0.5c0.1,0,0.1,0.2,0.2,0.2c0.3,0,0.3-0.2,0.6-0.2c0.2,0,0.2,0.2,0.3,0.2c0.2-0.2,0.2-0.2,0.2-0.2
		s0.2,0.1,0.3,0.1s0.2-0.2,0.2-0.2c0.2,0,0.2,0.1,0.3,0.1c0.2,0,0.2-0.1,0.3-0.1s0.1,0.2,0.2,0.2c0.2,0,0.3-0.1,0.7-0.1
		c-0.2,0,0.7-0.1,1.1,0.3c0.1,0,0.2-0.2,0.2-0.2c0.2,0,0.2,0.2,0.3,0.2c0.2,0,0.2-0.1,0.2-0.1l0.5,0.3c0.2,0,0.2-0.2,0.3-0.2
		c0.2,0,0.2,0.2,0.3,0.2h0.2c0.1,0,0.7,0,1.5,0.4c0.1,0,0.2-0.1,0.3-0.1c0.1,0.1,0.2,0.2,0.6,0.2l0.2-0.1c0.1,0.1,0.1,0.2,0.2,0.3
		l0.2-0.1c0.1,0,0.6,0.3,0.7,0.3h0.2c0.1,0,0.4,0.3,0.7,0.5c-0.2-0.1,0.5,0.6,0.7,0.6c0.4,0,0.5,0.5,1.1,0.8
		c-0.4-0.4,0.7,0.7,0.7,0.8v0.2c0,0.1,0.2,0.1,0.2,0.3v0.2l0.2,0.5c0,0.2-0.1,0.3-0.1,0.5s0.2,0.2,0.2,0.3c0,0.2-0.1,0.2-0.1,0.2
		c0,0.7,0.2,0.7,0.2,0.8c0,0.2-0.2,0.5-0.2,0.6s0.2,0.4,0.2,0.6c0,0-0.1,0.1-0.1,0.2c0,0.4,0.2,0.7,0.2,1.2c0,0.2-0.1,0.7-0.1,0.7
		c0,0.1,0.1,0.2,0.1,0.3s-0.1,0.2-0.1,0.2s0.1,0.2,0.1,0.3c0,0.2-0.1,0.6-0.1,0.9c0,0,0.1,0.1,0.1,0.2v0.3c0,0.1,0.1,0.2,0.1,0.3
		s-0.1,0.1-0.1,0.2c0.1,0.1,0.2,0.2,0.2,0.2c0,0.2-0.2,0.2-0.2,0.3s0.2,0.2,0.2,0.4V36c0,0.9,0.4,1.2,0.8,1.4c0,0.2,0,0.3,0.1,0.3
		c0.2,0,0.2-0.1,0.2-0.1c0.1,0,0.2,0.1,0.3,0.2c-0.1-0.2,1,0.5,1.1,1.1c-0.1,0-0.1-0.2-0.2-0.2c-0.3,0-0.3,0.2-0.6,0.2H922
		c-0.3,0-0.7-0.1-0.9-0.1c-0.1,0.1-0.2,0.2-0.3,0.2s-0.2-0.1-0.2-0.1c-0.2,0-0.2,0.1-0.3,0.1h-0.6c-0.1,0-0.2,0.1-0.2,0.1
		c-0.2,0-0.2-0.2-0.3-0.2c-0.5,0-0.5,0.2-0.6,0.2c-0.2,0-0.3-0.2-0.7-0.2c-0.1,0-0.2,0.1-0.3,0.1c0,0-0.1-0.1-0.2-0.1
		c-0.3,0-0.7,0.2-0.9,0.2s-0.5-0.2-0.8-0.2c-0.1,0-0.2,0.1-0.2,0.1c-0.1,0-0.2-0.1-0.2-0.1c-0.2,0-0.2,0.1-0.3,0.1
		c-0.2,0-0.2-0.1-0.3-0.1h-0.2c-0.1,0-0.2-0.1-0.3-0.1c-0.2,0-0.4,0.1-0.5,0.1c-0.3,0-0.4-0.1-0.7-0.1c-0.1,0-0.2,0.1-0.3,0.1
		s-0.3-0.1-0.5-0.1s-0.5,0.1-0.6,0.1s-0.1-0.3-0.2-0.3c-0.3,0-0.6,0.1-0.7,0.1h-0.6c-0.3,0-0.5-0.1-0.8-0.1c-0.1,0-0.2,0.1-0.3,0.1
		c-0.2,0-0.7-0.2-0.7-0.2c0-0.2,0.7-1.1,1.5-1.5c1.5-1.5-0.4,0.9,2.3-1.6c0.3-0.3,0.2-0.7,0.6-1.6c0-0.1-0.1-0.2-0.1-0.3
		s0.2-0.1,0.2-0.3V33c0-0.2,0.1-0.2,0.1-0.3c0-0.4-0.2-0.7-0.2-1.1v-0.3c0,0-0.1-0.1-0.1-0.2s0.2-0.2,0.2-0.2c0-0.2-0.3-0.2-0.3-0.3
		c0-0.2,0.1-0.2,0.1-0.5c0-0.4-0.4-0.4-0.4-1.1c0-0.1,0.1-0.2,0.1-0.3h-0.4c-0.2-0.1-0.3-0.2-0.5-0.2h-0.2c-0.2,0-0.6,0-0.8-0.2
		c-0.2,0-0.5,0.1-0.6,0.1c-0.2,0-0.2-0.1-0.6-0.1c-0.1,0-0.2,0-0.3,0.1c-0.1,0-0.2-0.1-0.3-0.1c-0.5,0-0.4,0.2-0.8,0.2h-0.2
		c-0.6,0-0.5,0.3-0.9,0.3h-0.4c-0.2,0-0.2,0.2-0.2,0.2s-0.3,0-1,0.7c-0.6,0.7-0.3,0.3-0.5,0.7c0.1-0.2-0.7,0.7-0.7,0.8
		c0,0.7-0.7-0.4-0.7,2.4c0,0.1,0.1,0.3,0.1,0.5c0,0.1-0.2,0.7-0.2,0.9c0,0.6,0.1,0.8,0.1,1.1c0,0.1-0.1,0.2-0.1,0.2v0.6
		c0,0.2,0.1,0.6,0.1,1.1v0.1c0,0.2,0.1,0.2,0.1,0.3v0.2c0,0.2,0.4,0.5,0.4,1.1c0,0.1-0.1,0.2-0.1,0.2c0.1,0.2,0.7,0.6,0.7,0.8v0.2
		c0,0.5,0.7,0.6,1.4,1.3c0.3,0.2,0.1,0.5,1.9,1.2c-0.1-0.2,0.4,0.6,1,0.6h0.2c0,0,0.6,0.8,1.1,0.8c0.7,0,1.1,0.6,1.1,0.6
		c0.9,0.4-0.2,0.4,2,1.4c-0.3-0.3,0.7,0.6,0.9,0.6h0.2c0.1,0,0.6,0.3,1.1,1c0.7,0.3,0.6,0.4,0.7,0.6c0.9,0.9,0.9,0.2,1.1,0.8
		c-0.1-0.1,0.8,0.3,1,0.7c2.4,2.5,0,0.4,2,2.3c0.2,0.6,0.2,0.2,0.7,1.3v0.2c0,0.2,0.3,0.5,0.3,0.9v0.2c0,0,0,1,0.3,1.4v0.3
		c0,0.2,0.2,0.4,0.2,0.9c0,0.1-0.1,0.2-0.1,0.3c0,0.2,0.1,0.5,0.1,0.7v0c0,0.2,0.2,0.3,0.2,0.4v0.2c0,0.1,0.1,0.1,0.2,0.3
		c0,0-0.1,0.1-0.1,0.2c0,0.2,0.2,0.2,0.2,0.3v0.2c0,0.1,0.9,0.2,0.9,1.3V62c0,0.4,0.5,0.6,0.5,0.7C923.6,62.8,923.9,63.4,924.2,63.8
		C924,63.8,924,63.8,924.2,63.8z"/>
</g>
</svg>
