<svg xmlns="http://www.w3.org/2000/svg" width="239" height="29" fill-rule="evenodd" clip-rule="evenodd" image-rendering="optimizeQuality" shape-rendering="geometricPrecision" text-rendering="geometricPrecision" viewBox="0 0 31.5 3.79"><defs><style>.fil0,.fil1{fill:#ffa165;fill-rule:nonzero}.fil1{fill:#fff}</style></defs><g id="Layer-214"><g id="_1872653872"><path d="M16.27 3.24a.21.21 0 01-.13-.05.21.21 0 01-.05-.13V.72c0-.05.02-.1.05-.13a.17.17 0 01.13-.05h.91c.27 0 .49.06.64.19.15.12.23.29.23.51a.62.62 0 01-.38.59c.15.05.28.13.38.24.1.11.15.24.15.41 0 .24-.08.42-.24.55-.16.14-.41.21-.76.21h-.93zm.82-1.54c.23 0 .39-.03.48-.11a.42.42 0 00.14-.33.35.35 0 00-.15-.29.71.71 0 00-.41-.1h-.71v.83h.65zm.08 1.21c.25 0 .42-.04.53-.12a.4.4 0 00.16-.33c0-.29-.23-.44-.69-.44h-.73v.89h.73z" class="fil0"/><path id="1" d="M18.95 3.24a.21.21 0 01-.13-.05.21.21 0 01-.05-.13V.72c0-.05.02-.1.05-.13a.17.17 0 01.13-.05h1.55c.04 0 .08.01.11.05.04.03.05.07.05.11 0 .05-.01.09-.05.12a.16.16 0 01-.11.05h-1.38v.85h1.24c.04 0 .08.02.11.05.04.03.05.07.05.12 0 .04-.01.08-.05.11a.16.16 0 01-.11.05h-1.24v.86h1.38c.04 0 .08.01.11.05.04.03.05.07.05.11 0 .05-.01.09-.05.12a.16.16 0 01-.11.05h-1.55z" class="fil0"/><path id="2" d="M21.23 3.25a.17.17 0 01-.13-.05c-.03-.03-.04-.07-.04-.12 0-.02 0-.05.02-.08l.98-2.32a.27.27 0 01.09-.12.21.21 0 01.14-.04h.03c.06 0 .1.01.14.04.04.03.07.07.09.12L23.53 3c.02.03.02.06.02.08 0 .05-.01.09-.04.12a.17.17 0 01-.13.05c-.04 0-.07 0-.1-.02l-.07-.08-.25-.61h-1.31l-.25.61a.27.27 0 01-.07.08c-.03.02-.06.02-.1.02zm.55-1.03h1.05L22.31.97l-.53 1.25z" class="fil0"/><path id="3" d="M25.14 3.27c-.18 0-.36-.03-.53-.11-.17-.08-.31-.2-.42-.36a.97.97 0 01-.16-.58V.7c0-.05.02-.1.05-.13a.17.17 0 01.12-.05c.05 0 .09.02.13.05.03.03.05.08.05.13v1.53c0 .16.04.29.11.4a.6.6 0 00.28.24c.11.06.24.08.37.08a.8.8 0 00.37-.08.6.6 0 00.28-.24.72.72 0 00.11-.4V.7c0-.05.01-.1.05-.13a.17.17 0 01.12-.05c.05 0 .09.02.13.05.03.03.05.08.05.13v1.52c0 .23-.06.43-.16.58-.11.16-.25.28-.42.36-.17.08-.35.11-.53.11z" class="fil0"/><path id="4" d="M27.78 3.25c-.05 0-.09-.01-.12-.05-.04-.03-.05-.07-.05-.12V.87h-.79a.17.17 0 01-.12-.05.17.17 0 01-.05-.12c0-.04.02-.08.05-.11.03-.04.07-.05.12-.05h1.92c.05 0 .09.01.12.05.03.03.05.07.05.11 0 .05-.02.09-.05.12a.17.17 0 01-.12.05h-.78v2.21c0 .05-.02.09-.06.12-.03.04-.07.05-.12.05z" class="fil0"/><path id="5" d="M30.36 3.25c-.05 0-.09-.01-.12-.05a.14.14 0 01-.06-.12V2.1L29.26.8a.19.19 0 01.02-.23.17.17 0 01.12-.05c.06 0 .12.03.15.09l.81 1.17.81-1.17c.04-.06.09-.09.15-.09.05 0 .09.02.13.05.03.03.05.08.04.13a.2.2 0 01-.03.1l-.92 1.3v.98c0 .05-.02.09-.05.12a.17.17 0 01-.13.05z" class="fil0"/><path d="M2.23 2.67H.96l-.16.36a.8.8 0 00-.07.29c0 .11.04.18.12.23.05.03.17.05.36.07v.09H0v-.09a.53.53 0 00.32-.17c.09-.09.19-.27.31-.55L1.93 0h.05l1.31 2.98c.13.28.23.46.31.54.06.06.15.09.26.1v.09H2.1v-.09h.07c.14 0 .24-.02.3-.06.04-.03.06-.07.06-.13l-.02-.1-.08-.2-.2-.46zm-.08-.19l-.54-1.24-.56 1.24h1.1z" class="fil1"/><path id="1" d="M5.28.07l1.8 2.26V.76c0-.22-.04-.37-.1-.44C6.9.21 6.75.16 6.55.16V.07h1.2v.09a.94.94 0 00-.31.08.3.3 0 00-.12.16.98.98 0 00-.05.36v3.03h-.09L4.73.76v2.32c0 .21.04.35.14.43.1.07.21.11.33.11h.09v.09h-1.3v-.09c.2-.01.34-.05.42-.13.08-.08.12-.22.12-.41V.51l-.08-.1a.57.57 0 00-.2-.19A.7.7 0 004 .16V.07h1.28z" class="fil1"/><path id="2" d="M10.16 2.67H8.89l-.16.36a.8.8 0 00-.07.29c0 .11.04.18.12.23.05.03.17.05.35.07v.09h-1.2v-.09a.56.56 0 00.32-.17c.08-.09.19-.27.31-.55L9.86 0h.05l1.31 2.98c.12.28.23.46.31.54.06.06.14.09.26.1v.09h-1.76v-.09h.07c.14 0 .24-.02.3-.06.04-.03.06-.07.06-.13l-.02-.1-.08-.2-.2-.46zm-.09-.19l-.54-1.24-.55 1.24h1.09z" class="fil1"/><path id="3" d="M15.32 2.44l-.14 1.27h-3.22v-.09h.12c.1 0 .19-.02.25-.06a.28.28 0 00.11-.13c.02-.04.03-.16.03-.34V.69c0-.19-.01-.3-.03-.35a.23.23 0 00-.12-.12.43.43 0 00-.24-.06h-.12V.07h1.93v.09h-.16c-.1 0-.19.02-.25.06a.28.28 0 00-.11.13 1.1 1.1 0 00-.03.34v2.32c0 .19.01.31.03.36.02.05.06.09.13.11.04.02.15.03.32.03h.3c.19 0 .35-.04.48-.1a.87.87 0 00.33-.33c.1-.14.19-.36.27-.64h.12z" class="fil1"/></g></g></svg>