<svg xmlns="http://www.w3.org/2000/svg" width="276" height="49" fill-rule="evenodd" clip-rule="evenodd" image-rendering="optimizeQuality" shape-rendering="geometricPrecision" text-rendering="geometricPrecision" viewBox="0 0 22.45 3.94"><defs><style>.fil0{fill:#fff;fill-rule:nonzero}</style></defs><g id="Layer_x0020_1"><g id="_1176695344"><path d="M.51 3.27h-.2l-.1.66H.1l.1-.66H0l.01-.08h.51z" class="fil0"/><path id="1" d="M1.01 3.93H.9l.05-.33h-.3l-.04.33H.5l.11-.74h.1l-.04.33h.29l.05-.33h.11z" class="fil0"/><path id="2" d="M1.56 3.59H1.3l-.03.26h.3l-.01.08h-.41l.11-.74h.41l-.02.08h-.3l-.03.24h.25z" class="fil0"/><path id="3" d="M2.41 3.93H2.3l.05-.33h-.3L2 3.93h-.1l.1-.74h.11l-.05.33h.3l.05-.33h.11z" class="fil0"/><path id="4" d="M3.1 3.65a.36.36 0 01-.1.22.3.3 0 01-.2.07c-.09 0-.15-.02-.19-.08-.04-.05-.05-.12-.04-.21l.02-.18c.02-.09.05-.16.1-.22a.29.29 0 01.21-.07c.08 0 .14.02.18.08.05.05.06.12.05.21l-.03.18zm-.08-.18c.01-.07 0-.12-.02-.16-.02-.03-.06-.05-.11-.05a.16.16 0 00-.12.05.3.3 0 00-.07.16l-.02.18c-.02.07 0 .12.01.16.03.03.06.05.11.05s.1-.02.13-.05A.3.3 0 003 3.65l.02-.18z" class="fil0"/><path id="5" d="M3.7 3.27h-.2l-.1.66h-.1l.09-.66h-.2l.01-.08h.51z" class="fil0"/><path id="6" d="M4.27 3.27h-.21l-.09.66h-.11l.1-.66h-.2l.01-.08h.51z" class="fil0"/><path id="7" d="M4.67 3.59h-.26l-.04.26h.31l-.01.08h-.41l.1-.74h.41l-.01.08h-.3l-.04.24h.26z" class="fil0"/><path id="8" d="M5.15 3.76c0-.04 0-.07-.02-.09a.3.3 0 00-.1-.07.4.4 0 01-.16-.1c-.04-.03-.05-.08-.04-.14 0-.06.03-.1.08-.13.04-.04.1-.05.16-.05.07 0 .13.02.16.06.04.04.06.1.05.16h-.1c0-.04 0-.07-.03-.1-.02-.03-.05-.04-.1-.04a.12.12 0 00-.12.1c0 .04 0 .07.03.09a.3.3 0 00.11.07c.07.02.12.06.15.1.04.03.05.08.04.14a.2.2 0 01-.08.14.27.27 0 01-.17.04.28.28 0 01-.17-.05c-.05-.04-.07-.1-.05-.17h.1c0 .05 0 .09.03.11.03.02.06.03.1.03.04 0 .07 0 .09-.02a.12.12 0 00.04-.08z" class="fil0"/><path id="9" d="M5.89 3.27h-.21l-.09.66h-.11l.1-.66h-.2l.01-.08h.51z" class="fil0"/><path id="10" d="M6.66 3.27h-.2l-.09.66h-.11l.1-.66h-.2l.01-.08h.51z" class="fil0"/><path id="11" d="M7.07 3.59h-.26l-.04.26h.31l-.02.08h-.41l.11-.74h.41l-.01.08h-.3l-.04.24h.26z" class="fil0"/><path id="12" d="M7.58 3.59h-.26l-.04.26h.31l-.01.08h-.41l.1-.74h.41l-.01.08h-.3l-.04.24h.26z" class="fil0"/><path id="13" d="M8.19 3.93h-.11l-.21-.55h-.01l-.07.55h-.11l.11-.74h.1l.22.54.08-.54h.11z" class="fil0"/><path id="14" d="M8.71 3.76c0-.04 0-.07-.02-.09a.3.3 0 00-.1-.07.4.4 0 01-.16-.1c-.04-.03-.05-.08-.04-.14 0-.06.03-.1.08-.13.04-.04.1-.05.16-.05.07 0 .13.02.17.06.04.04.05.1.04.16h-.1c0-.04 0-.07-.03-.1-.02-.03-.05-.04-.1-.04a.12.12 0 00-.12.1c0 .04 0 .07.03.09l.11.07c.07.02.12.06.16.1.03.03.04.08.03.14a.2.2 0 01-.08.14.27.27 0 01-.16.04.28.28 0 01-.18-.05c-.05-.04-.07-.1-.05-.17h.1c0 .05 0 .09.03.11.03.02.07.03.1.03.04 0 .07 0 .1-.02a.12.12 0 00.03-.08z" class="fil0"/><path id="15" d="M9.64 3.93h-.11l.05-.33h-.3l-.04.33h-.11l.11-.74h.11l-.05.33h.29l.05-.33h.11z" class="fil0"/><path id="16" d="M10.15 3.74h-.23l-.08.2h-.11l.33-.75h.1l.12.74h-.1l-.03-.19zm-.2-.08h.18l-.04-.3-.14.3z" class="fil0"/><path id="17" d="M10.52 3.76l.01.05.02-.05.24-.57h.11l-.34.74h-.1l-.12-.74h.11z" class="fil0"/><path id="18" d="M10.99 3.93h-.11l.11-.74h.11z" class="fil0"/><path id="19" d="M11.65 3.93h-.1l-.22-.55-.08.55h-.11l.11-.74h.11l.21.54.08-.54h.11z" class="fil0"/><path id="20" d="M12.3 3.83a.29.29 0 01-.1.08.34.34 0 01-.16.03.22.22 0 01-.18-.07c-.04-.06-.06-.13-.04-.22l.02-.19c.02-.09.05-.16.1-.21a.28.28 0 01.2-.07c.08 0 .13.02.17.06.04.04.05.1.04.16h-.1c0-.04 0-.08-.02-.1-.02-.03-.05-.04-.1-.04a.16.16 0 00-.12.05.29.29 0 00-.06.15l-.03.2c0 .06 0 .11.02.15.03.04.06.05.11.05l.09-.01a.15.15 0 00.05-.05l.03-.17h-.14v-.07h.25l-.04.27z" class="fil0"/><path id="21" d="M13.2 3.27H13l-.09.66h-.11l.1-.66h-.2l.01-.08h.5z" class="fil0"/><path id="22" d="M13.71 3.93h-.11l.05-.33h-.3l-.05.33h-.1l.1-.74h.11l-.05.33h.3l.05-.33h.1z" class="fil0"/><path id="23" d="M14.26 3.59H14l-.04.26h.31l-.02.08h-.4l.1-.74h.41l-.01.08h-.3l-.04.24h.26z" class="fil0"/><path id="24" d="M14.47 3.93h-.1l.11-.74h.1z" class="fil0"/><path id="25" d="M14.78 3.61l-.05.32h-.1l.1-.74h.23c.07 0 .13.02.16.05.04.04.05.1.04.16 0 .04-.02.07-.04.1a.23.23 0 01-.1.07c.04.01.07.03.08.06a.2.2 0 01.01.12v.06l-.01.07c0 .02 0 .03.02.04v.01H15l-.02-.05a.6.6 0 010-.07l.02-.06c0-.05 0-.08-.02-.1-.02-.03-.04-.04-.08-.04h-.13zm0-.08h.13c.04 0 .07-.01.1-.03a.16.16 0 00.04-.1c.01-.04 0-.08-.01-.1-.02-.02-.05-.03-.09-.03h-.12l-.04.26z" class="fil0"/><path id="26" d="M15.87 3.6h-.27l-.05.33h-.1l.11-.74h.41l-.01.08h-.31l-.04.25h.27z" class="fil0"/><path id="27" d="M16.08 3.93h-.11l.11-.74h.1z" class="fil0"/><path id="28" d="M16.38 3.61l-.05.32h-.1l.1-.74h.23c.08 0 .13.02.16.05.04.04.05.1.04.16a.22.22 0 01-.13.17c.04.01.06.03.07.06a.2.2 0 01.01.12v.13l.01.04v.01h-.11l-.02-.05a.6.6 0 010-.07l.02-.06c0-.05 0-.08-.02-.1-.01-.03-.04-.04-.08-.04h-.13zm.01-.08h.12c.04 0 .08-.01.1-.03a.17.17 0 00.05-.1c0-.04 0-.08-.02-.1-.02-.02-.05-.03-.09-.03h-.12l-.04.26z" class="fil0"/><path id="29" d="M17.2 3.76c0-.04 0-.07-.02-.09a.3.3 0 00-.1-.07.4.4 0 01-.17-.1c-.03-.03-.04-.08-.03-.14 0-.06.03-.1.08-.13.04-.04.1-.05.16-.05.07 0 .12.02.16.06.04.04.06.1.05.16h-.1c0-.04-.01-.07-.03-.1-.02-.03-.05-.04-.1-.04a.12.12 0 00-.12.1c0 .04 0 .07.02.09l.12.07c.07.02.12.06.15.1.04.03.05.08.04.14a.2.2 0 01-.08.14.27.27 0 01-.17.04.28.28 0 01-.17-.05c-.05-.04-.07-.1-.06-.17h.1c0 .05.01.09.04.11.03.02.06.03.1.03.04 0 .06 0 .09-.02a.11.11 0 00.04-.08z" class="fil0"/><path id="30" d="M17.93 3.27h-.2l-.09.66h-.11l.1-.66h-.2l.01-.08h.51z" class="fil0"/><path id="31" d="M18.71 3.65a.36.36 0 01-.1.22.3.3 0 01-.2.07c-.09 0-.15-.02-.19-.08-.04-.05-.05-.12-.04-.21l.03-.18c.01-.09.04-.16.1-.22a.29.29 0 01.2-.07c.08 0 .14.02.19.08.04.05.05.12.04.21l-.03.18zm-.08-.18c.01-.07 0-.12-.02-.16a.123.123 0 00-.1-.05.16.16 0 00-.13.05.3.3 0 00-.07.16l-.02.18c-.01.07 0 .12.02.16.02.03.05.05.1.05.06 0 .1-.02.13-.05a.3.3 0 00.07-.16l.02-.18z" class="fil0"/><path id="32" d="M18.95 3.61l-.05.32h-.1l.1-.74h.23c.07 0 .13.02.16.05.04.04.05.1.04.16 0 .04-.02.07-.04.1a.23.23 0 01-.1.07c.04.01.07.03.08.06a.2.2 0 01.01.12l-.01.06v.07c0 .02 0 .03.02.04v.01h-.11c-.02 0-.02-.03-.02-.05v-.07l.01-.06-.01-.1c-.02-.03-.04-.04-.08-.04h-.13zm0-.08h.13c.04 0 .07-.01.1-.03a.16.16 0 00.04-.1l-.01-.1c-.02-.02-.05-.03-.1-.03H19l-.03.26z" class="fil0"/><path id="33" d="M19.88 3.83a.28.28 0 01-.1.08.33.33 0 01-.16.03.22.22 0 01-.18-.07c-.04-.06-.05-.13-.04-.22l.03-.19c.01-.09.05-.16.1-.21a.28.28 0 01.2-.07c.07 0 .13.02.17.06.03.04.05.1.04.16h-.1c0-.04 0-.08-.03-.1-.01-.03-.05-.04-.1-.04a.16.16 0 00-.11.05.27.27 0 00-.06.15l-.03.2c-.01.06 0 .11.02.15.02.04.06.05.1.05a.19.19 0 00.15-.06l.02-.17h-.14l.01-.07h.25l-.04.27z" class="fil0"/><path id="34" d="M20.37 3.74h-.23l-.08.2h-.11l.33-.75h.1l.12.74h-.1l-.03-.19zm-.2-.08h.18l-.04-.3-.13.3z" class="fil0"/><path id="35" d="M20.97 3.76c0-.04 0-.07-.02-.09a.3.3 0 00-.1-.07.4.4 0 01-.16-.1c-.04-.03-.05-.08-.04-.14 0-.06.03-.1.08-.13.04-.04.1-.05.16-.05.07 0 .13.02.17.06.03.04.05.1.04.16H21c0-.04 0-.07-.03-.1a.11.11 0 00-.1-.04.12.12 0 00-.07.03.12.12 0 00-.04.07c-.01.04 0 .07.02.09.01.02.05.04.11.07.07.02.12.06.15.1.04.03.05.08.04.14a.2.2 0 01-.08.14.28.28 0 01-.17.04.28.28 0 01-.17-.05c-.05-.04-.07-.1-.05-.17h.1c0 .05 0 .09.03.11.03.02.06.03.1.03.04 0 .07 0 .09-.02a.11.11 0 00.04-.08z" class="fil0"/><path id="36" d="M21.49 3.79l.27-.6h.14l-.11.74h-.11l.08-.53-.25.53h-.08l-.09-.55h-.01l-.08.55h-.1l.11-.74h.14z" class="fil0"/><path id="37" d="M22.31 3.76c0-.04 0-.07-.02-.09a.3.3 0 00-.1-.07.4.4 0 01-.17-.1c-.03-.03-.04-.08-.03-.14 0-.06.03-.1.08-.13.04-.04.1-.05.16-.05.07 0 .13.02.16.06.04.04.06.1.05.16h-.1c0-.04-.01-.07-.03-.1a.11.11 0 00-.1-.04.12.12 0 00-.12.1c0 .04 0 .07.02.09l.12.07c.07.02.12.06.15.1.04.03.05.08.04.14-.01.06-.04.1-.08.14a.28.28 0 01-.17.04.28.28 0 01-.17-.05c-.05-.04-.07-.1-.05-.17h.1c-.01.05 0 .09.03.11.03.02.06.03.1.03.04 0 .06 0 .09-.02a.11.11 0 00.04-.08z" class="fil0"/><path d="M21.98 1.9c.02-.15-.08-.27-.3-.34l-.3-.1c-.27-.08-.4-.24-.38-.46 0-.16.08-.28.21-.38a.8.8 0 01.5-.15c.18 0 .33.06.44.16.12.1.17.24.16.4h-.2c0-.1-.03-.2-.1-.27a.45.45 0 00-.32-.1.57.57 0 00-.33.09.33.33 0 00-.15.24c-.02.16.07.26.27.32l.22.06.12.04c.26.1.38.26.37.49a.5.5 0 01-.2.37.81.81 0 01-.47.16h-.07a.83.83 0 01-.35-.07.55.55 0 01-.23-.2.47.47 0 01-.07-.3l.2.01c0 .12.05.21.13.28.08.07.19.1.33.1s.26-.02.35-.09c.1-.06.16-.15.17-.25zM18.22.51l-.06.3a.75.75 0 01.64-.34c.13 0 .24.04.33.1a.4.4 0 01.16.27c.09-.12.19-.2.3-.27.12-.07.24-.1.38-.1.18 0 .3.07.4.18.08.12.12.28.1.48v.04l-.2 1.23h-.22l.2-1.23c.02-.07.02-.14.01-.2-.02-.2-.14-.3-.35-.31a.6.6 0 00-.4.14.6.6 0 00-.22.35l-.21 1.25h-.21l.2-1.25c.04-.32-.08-.48-.35-.5a.6.6 0 00-.37.13c-.12.09-.2.2-.23.32l-.23 1.3h-.2l.33-1.9h.2zm-1.1 1.39c.02-.15-.08-.27-.3-.34l-.3-.1c-.27-.08-.4-.24-.39-.46.01-.16.08-.28.22-.38a.8.8 0 01.49-.15c.18 0 .33.06.45.16.11.1.17.24.16.4h-.2c0-.1-.03-.2-.11-.27a.45.45 0 00-.31-.1.57.57 0 00-.33.09.33.33 0 00-.16.24c-.02.16.08.26.28.32l.21.06.12.04c.26.1.39.26.37.49a.5.5 0 01-.2.37.81.81 0 01-.46.16h-.07a.83.83 0 01-.35-.07.54.54 0 01-.23-.2.47.47 0 01-.08-.3l.21.01c0 .12.04.21.12.28.08.07.2.1.33.1.14 0 .26-.02.36-.09.1-.06.15-.15.17-.25zm-2.52.35a.7.7 0 00.37-.1.81.81 0 00.3-.27l.07-.42H15c-.2 0-.38.03-.52.11a.4.4 0 00-.22.32.3.3 0 00.08.26c.07.06.16.1.27.1zm.62.15v-.13l.01-.14a.98.98 0 01-.3.23.8.8 0 01-.33.07h-.03a.54.54 0 01-.39-.15.45.45 0 01-.13-.37c0-.12.05-.23.13-.32.07-.1.18-.17.32-.22.14-.05.3-.07.48-.07h.38l.03-.22a.39.39 0 00-.08-.3c-.07-.09-.17-.13-.3-.13a.6.6 0 00-.37.1.45.45 0 00-.19.28h-.2c.02-.17.1-.3.25-.4.15-.1.32-.16.52-.16s.35.07.45.18c.1.11.15.26.13.44l-.16.95-.01.15.01.19v.02h-.22zM12.08.69a.61.61 0 00-.72.41l-.23 1.3h-.2l.32-1.9h.2l-.05.3c.06-.11.15-.2.24-.25a.59.59 0 01.47-.06l-.03.19zm-2.86.81c-.02.14 0 .26.03.38.04.12.1.2.17.27.08.07.17.1.3.1a.6.6 0 00.34-.09c.1-.06.19-.16.25-.28.07-.12.11-.25.13-.4l.01-.06a.86.86 0 00-.1-.55.45.45 0 00-.4-.22.6.6 0 00-.48.22c-.13.15-.22.35-.25.6v.03zm-.2-.06c.02-.18.07-.35.17-.5.09-.16.2-.27.33-.35a.83.83 0 01.44-.11c.16 0 .3.04.4.12.11.09.2.2.24.34.06.15.07.3.06.48v.04c-.04.3-.15.53-.32.71a.83.83 0 01-.64.26.64.64 0 01-.5-.23.9.9 0 01-.2-.6l.01-.1v-.06zm3.98.02h.68c-.03.34-.14.64-.35.81-.26.21-.77.25-1-.04a.9.9 0 01-.15-.54c0-.2.03-.41.1-.61.09-.2.19-.36.32-.46.39-.3 1.09-.18 1.15.4h-.21c-.07-.22-.23-.36-.46-.37a.53.53 0 00-.45.21c-.11.14-.2.35-.23.62v.17c-.01.19.02.33.1.44.14.22.5.2.7.05.13-.11.21-.3.25-.5h-.5l.05-.18z" fill="#00f5a3"/><path d="M5.73.1h.66v1.21l.44-.87L6.9.1h.55l.1 1.22L8.08.1h.66L7.72 2.4h-.59l-.1-1.19-.62 1.19h-.63zM4.07 1.86c.17 0 .3-.05.4-.14.1-.1.17-.25.22-.46.03-.11.04-.21.04-.3 0-.11-.03-.2-.1-.25-.05-.05-.15-.08-.3-.08-.17 0-.3.05-.4.14-.1.1-.17.26-.22.49l-.04.28c0 .12.04.2.1.25.06.05.16.07.3.07zm-.12.57c-.3 0-.55-.06-.71-.2-.17-.13-.26-.34-.26-.61 0-.1.02-.23.05-.37.09-.42.25-.72.48-.9.22-.2.54-.29.95-.29.3 0 .55.07.71.2.17.14.25.34.25.62 0 .1-.01.23-.04.37-.09.42-.25.72-.48.9-.23.19-.55.28-.95.28zM.16.1h.65l.01 1.21.44-.87.07-.34h.55l.09 1.22L2.5.1h.66L2.14 2.4h-.59l-.09-1.19L.83 2.4H.21z" fill="#f60" stroke="#fff" stroke-width=".122" stroke-linejoin="round" stroke-miterlimit="22.926"/></g></g></svg>