<?xml version="1.0" encoding="utf-8"?>
<!-- Generator: Adobe Illustrator 22.1.0, SVG Export Plug-In . SVG Version: 6.00 Build 0)  -->
<svg version="1.1" id="Vrstva_1" xmlns="http://www.w3.org/2000/svg" xmlns:xlink="http://www.w3.org/1999/xlink" x="0px" y="0px"
	 viewBox="0 0 1184 100.8" style="enable-background:new 0 0 1184 100.8;" xml:space="preserve">
<style type="text/css">
	.st0{fill:#FFFFFF;}
	.st1{fill:#394BB7;}
</style>
<title>site-logo-watermark</title>
<g>
	<path class="st0" d="M51.1,83.2c11.6,0,20-3.5,26.1-7.6l8.3,11.5c-8.1,7-18.9,10.7-34.4,10.7C19.4,97.8,2,77.4,2,49.6
		C2,21.8,19.4,1.4,51.1,1.4c15.5,0,26.4,3.7,34.4,10.7l-8.3,11.5C71.1,19.5,62.7,16,51.1,16c-21.3,0-31.5,14.2-31.5,33.6
		C19.7,68.9,29.8,83.2,51.1,83.2z"/>
	<path class="st0" d="M171.8,81.3v14.6H97.2v-8.6l50.1-69.2H99.9V3.4h71.9V12l-50.1,69.2H171.8z"/>
	<path class="st0" d="M253.7,41.4V56h-46v25.3h48.8v14.6h-66.2V3.4h65.6v14.6h-48.2v23.5H253.7z"/>
	<path class="st0" d="M315.5,83.2c11.6,0,20-3.5,26.1-7.6l8.3,11.5c-8.1,7-18.9,10.7-34.4,10.7c-31.7,0-49.1-20.3-49.1-48.2
		c0-27.8,17.4-48.2,49.1-48.2c15.5,0,26.4,3.7,34.4,10.7l-8.3,11.5c-6.1-4.1-14.5-7.6-26.1-7.6c-21.3,0-31.5,14.2-31.5,33.6
		C284.1,68.9,294.2,83.2,315.5,83.2z"/>
	<path class="st0" d="M427.4,3.4h17.4v92.4h-17.4V56h-44v39.8h-17.4V3.4h17.4v38h44V3.4z"/>
	<path class="st1" d="M462.7,95.8V3.4h47.8c29.8,0,35.4,13.9,35.4,25.5c0,6.7-5.2,15.5-14.4,18c14.2,4.8,17.5,14,17.5,21.3
		c0,12.5-7.7,27.7-37.6,27.7H462.7z M510.5,39.5c7,0,9.2-3.7,9.2-7.4c0-3.7-2.2-7.3-9.2-7.3H490v14.7H510.5z M511.5,74.5
		c7.5,0,11.2-2.7,11.2-7.8c0-5.1-3.6-7.8-11.2-7.8H490v15.6H511.5z"/>
	<path class="st1" d="M559.4,3.4h27.3v92.4h-27.3V3.4z"/>
	<path class="st1" d="M686.5,3.4v22.7h-30.2v69.8H629V26.1h-30.2V3.4H686.5z"/>
	<path class="st1" d="M740.3,75.7c14.2,0,21.3-4.6,26.6-8.1l13.2,17.5c-7.3,6.4-18.1,13.3-39.8,13.3c-34.6,0-50.7-21.8-50.7-48.8
		c0-27,16.1-48.8,50.7-48.8c21.7,0,32.5,6.9,39.8,13.3l-13.2,17.5c-5.2-3.5-12.4-8.1-26.6-8.1c-16.7,0-23.1,13-23.1,26.1
		C717.2,62.7,723.6,75.7,740.3,75.7z"/>
	<path class="st1" d="M850.7,3.4H878v92.4h-27.3V60.1h-34.3v35.7h-27.3V3.4h27.3v34h34.3V3.4z"/>
	<path class="st0" d="M901.1,77.3c5.3,0,9.6,4.3,9.6,9.6c0,5.3-4.3,9.5-9.6,9.5c-5.3,0-9.5-4.3-9.5-9.5
		C891.5,81.6,895.8,77.3,901.1,77.3z"/>
	<path class="st0" d="M956.5,83.6c7,0,13.2-1.9,19-6.4l8.3,10.4c-7.2,7.2-16.6,9.5-27.2,9.5c-22.4,0-36.7-14.8-36.7-34.2
		s14.3-34.2,36.7-34.2c10.6,0,20,2.3,27.2,9.5l-8.4,10.3c-5.7-4.5-11.9-6.3-18.8-6.3c-14.1,0-20.2,9.9-20.2,20.8
		S942.4,83.6,956.5,83.6z"/>
	<path class="st0" d="M1028.8,97.1c-22.4,0-36.7-14.8-36.7-34.2s14.3-34.2,36.7-34.2c22.4,0,36.7,14.6,36.7,34.2
		C1065.6,82.5,1051.2,97.1,1028.8,97.1z M1028.8,42.1c-14.1,0-20.2,9.9-20.2,20.8s6.1,20.8,20.2,20.8c14.1,0,20.2-9.9,20.2-20.8
		S1043,42.1,1028.8,42.1z"/>
	<path class="st0" d="M1079.8,29.9h16.2V36c2.2-3.9,8.8-7.4,15.3-7.4c10.4,0,17.7,3.6,21.6,9.1c3.5-4.7,11.3-9.1,20.2-9.1
		c15.8,0,26.6,8.4,26.6,28.8v38.4h-16.2V57.4c0-9.1-3.9-15.3-12.8-15.3c-9,0-12.8,6.2-12.8,15.3v38.4h-16.2V57.4
		c0-9.1-3.9-15.3-12.8-15.3c-9,0-12.8,6.2-12.8,15.3v38.4h-16.2V29.9z"/>
</g>
</svg>
