<svg xmlns="http://www.w3.org/2000/svg" width="236" height="27" fill-rule="evenodd" clip-rule="evenodd" image-rendering="optimizeQuality" shape-rendering="geometricPrecision" text-rendering="geometricPrecision" viewBox="0 0 30.83 3.56"><g fill-rule="nonzero"><path fill="#fff" d="M0 3.56v-.09h.12c.1 0 .18-.02.23-.05.06-.04.1-.08.13-.14.01-.03.02-.14.02-.33V.61C.5.42.49.31.47.26A.34.34 0 00.35.14.46.46 0 00.12.09H0V0h1.59c.42 0 .77.06 1.02.17.32.14.56.36.72.65.17.28.25.61.25.97A1.75 1.75 0 013.15 3c-.13.14-.28.25-.45.33a2.18 2.18 0 01-1.11.23H0zM1.35.2v2.77c0 .15.01.24.02.27.02.04.04.06.07.08a.8.8 0 00.88-.26c.21-.27.31-.69.31-1.25 0-.46-.07-.82-.21-1.1a.91.91 0 00-.44-.43A1.65 1.65 0 001.35.2zm4.41 3.27v.09H3.91v-.09h.12c.1 0 .18-.02.25-.06a.27.27 0 00.1-.13c.02-.04.03-.15.03-.33V.61c0-.19-.01-.3-.03-.35a.4.4 0 00-.11-.12.54.54 0 00-.24-.05h-.12V0h1.85v.09h-.11a.44.44 0 00-.25.06c-.05.02-.08.06-.11.12-.02.05-.03.16-.03.34v2.34c0 .18.01.3.03.34.02.05.06.09.12.12.06.04.14.06.24.06h.11zm1.56-1.53v1c0 .19.01.31.03.36a.3.3 0 00.13.12.8.8 0 00.33.05v.09H5.99v-.09c.17 0 .28-.02.34-.05.06-.03.1-.07.12-.12.03-.05.04-.17.04-.36V.62c0-.2-.01-.32-.04-.37C6.43.2 6.39.17 6.33.14a.83.83 0 00-.34-.05V0h1.66c.43 0 .74.03.94.09a.92.92 0 01.68.89c0 .26-.1.48-.29.65-.12.11-.29.19-.5.25l.85 1.2c.11.16.19.25.24.29.07.06.15.08.25.09v.1H8.7L7.55 1.94h-.23zm0-1.74v1.55h.15c.24 0 .42-.02.54-.07a.5.5 0 00.29-.24c.07-.11.1-.26.1-.45 0-.27-.06-.47-.19-.6C8.09.26 7.88.2 7.6.2h-.28zm5.64-.2v.96h-.09a1.67 1.67 0 00-.18-.48.91.91 0 00-.28-.23.96.96 0 00-.35-.05h-.27v2.75c0 .18.01.3.03.34.02.05.06.09.11.12.06.04.14.06.24.06h.12v.09h-1.85v-.09h.11c.11 0 .19-.02.25-.06a.36.36 0 00.11-.13c.02-.04.02-.15.02-.33V.2h-.25c-.24 0-.41.05-.52.16a1 1 0 00-.29.6h-.1V0h3.19zm4.01 0v.09a.66.66 0 00-.27.1c-.08.08-.22.28-.41.61l-.77 1.29v.86c0 .19.01.3.03.34.01.05.05.09.11.12a.4.4 0 00.23.06h.2v.09h-2v-.09h.19c.1 0 .19-.02.25-.06a.27.27 0 00.1-.13c.02-.04.03-.15.03-.33v-.71L13.83.71c-.17-.3-.29-.48-.35-.54a.47.47 0 00-.28-.08V0h1.71v.09h-.08a.4.4 0 00-.22.05c-.04.03-.06.06-.06.09 0 .07.07.23.21.48l.65 1.18.64-1.07c.16-.27.24-.44.24-.53 0-.05-.03-.09-.07-.12a.71.71 0 00-.33-.08V0h1.08z"/><path fill="#5cc202" d="M18.38 3.2c-.26 0-.5-.06-.71-.18a1.16 1.16 0 01-.49-.49 1.49 1.49 0 01-.18-.75c0-.29.06-.54.18-.75.12-.22.28-.38.49-.5a1.75 1.75 0 011.19-.11c.14.05.28.11.42.19.06.03.09.08.09.15 0 .03-.02.07-.05.1-.02.03-.06.05-.11.05l-.07-.02a1.46 1.46 0 00-.72-.19c-.23 0-.42.05-.58.14a.96.96 0 00-.36.39 1.2 1.2 0 00-.12.55c0 .2.04.39.12.55.08.16.2.29.36.38.16.1.35.14.58.14.14 0 .27-.01.38-.04a3.07 3.07 0 00.41-.16c.05 0 .09.02.11.04a.16.16 0 01-.04.26 1.9 1.9 0 01-.9.25zm2.67 0a1.35 1.35 0 01-1.21-.69 1.71 1.71 0 01-.18-.73c.01-.28.07-.52.18-.74a1.28 1.28 0 011.21-.68c.28 0 .52.06.72.18.21.12.37.29.49.51.11.21.17.45.18.73-.01.27-.07.52-.18.73-.12.22-.28.38-.49.5-.2.13-.44.19-.72.19zm0-.34c.21 0 .39-.05.55-.14a1.12 1.12 0 00.48-.94c0-.21-.04-.39-.13-.55a.89.89 0 00-.35-.39 1 1 0 00-.55-.14c-.21 0-.4.04-.55.14a.83.83 0 00-.35.39 1.1 1.1 0 00-.13.55 1.12 1.12 0 00.48.94c.15.09.34.14.55.14zm1.92.32a.19.19 0 01-.13-.05.21.21 0 01-.05-.13.3.3 0 01.02-.08L23.82.54a.24.24 0 01.09-.11.22.22 0 01.14-.05h.04c.05 0 .1.02.14.05.04.03.07.06.09.11l1 2.38c.02.03.02.06.02.08 0 .05-.01.09-.05.13a.17.17 0 01-.12.05.2.2 0 01-.11-.03.16.16 0 01-.06-.08l-.26-.62H23.4l-.26.62a.27.27 0 01-.07.08.17.17 0 01-.1.03zm.56-1.06h1.07L24.07.84l-.54 1.28zm3.56 1.08a1.39 1.39 0 01-1.21-.67 1.49 1.49 0 01-.18-.75c0-.29.06-.54.18-.75.12-.22.29-.38.5-.5a1.73 1.73 0 011.61.08c.05.03.08.08.08.15 0 .03-.01.07-.04.1a.17.17 0 01-.12.05.19.19 0 01-.07-.02 1.4 1.4 0 00-.72-.19c-.23 0-.42.05-.58.14a.96.96 0 00-.36.39 1.2 1.2 0 00-.12.55c0 .2.04.39.12.55.08.16.2.29.36.38.16.1.35.14.58.14.15 0 .27-.01.38-.04.11-.04.23-.08.34-.14a.19.19 0 01.07-.02c.05 0 .09.02.12.04.03.03.04.07.04.11 0 .07-.03.12-.08.15a1.78 1.78 0 01-.9.25zm1.7-.02a.21.21 0 01-.13-.05.21.21 0 01-.05-.13V.56c0-.05.02-.09.05-.13a.21.21 0 01.13-.05c.05 0 .09.02.13.05.04.04.05.08.05.13v1.05h1.5V.56c0-.05.02-.09.05-.13a.21.21 0 01.13-.05c.05 0 .09.02.13.05.03.04.05.08.05.13V3c0 .05-.02.09-.05.13a.21.21 0 01-.13.05.21.21 0 01-.13-.05.21.21 0 01-.05-.13V1.95h-1.5V3c0 .05-.01.09-.05.13a.21.21 0 01-.13.05z"/></g></svg>