<?xml version="1.0" encoding="utf-8"?>
<!-- Generator: Adobe Illustrator 22.1.0, SVG Export Plug-In . SVG Version: 6.00 Build 0)  -->
<svg version="1.1" id="Layer_1" xmlns="http://www.w3.org/2000/svg" xmlns:xlink="http://www.w3.org/1999/xlink" x="0px" y="0px"
	 viewBox="0 0 1207 214" style="enable-background:new 0 0 1207 214;" xml:space="preserve">
<style type="text/css">
	.st0{fill:#FFFFFF;}
</style>
<g>
	<path id="Sister" class="st0" d="M117.1,57.7c1.9-3.2,2.9-6.8,2.9-10.5c0-3.7-0.9-7.3-2.5-10.6c-1.8-3.6-4.3-6.9-7.3-9.5
		c-4.9-4.4-10.7-7.7-17-9.6c-7.3-2.3-14.9-3.4-22.6-3.4c-6.3,0-12.5,1.1-18.4,3.2c-5.7,2-10.9,5.1-15.5,9c-4.5,3.9-8.1,8.6-10.7,14
		c-2.7,5.6-4.1,11.8-4,18c0,8.4,2.6,16.7,7.6,23.5c5.2,7.3,11.2,14,17.9,20c6.9,6.2,13.9,12,20.9,17.5c6.2,4.7,11.9,10,16.9,16
		c3.9,4.8,5.8,9.3,5.8,13.4c0.1,3.8-1.2,7.4-3.8,10.2c-2.8,2.9-6.5,4.9-10.5,5.6c-4.7,1-9.6,0.8-14.2-0.5c-3.2-1-6.2-2.4-9-4.1
		c-3.2-2-6.2-4.2-9-6.7c-2.8-2.6-5.5-5.4-7.8-8.4c-2.3-2.9-4.2-6-5.8-9.2L4.5,154.7c3.2,6.3,7.2,12.1,12,17.2
		c4.7,5.1,10,9.6,15.8,13.4c5.7,3.7,11.8,6.7,18.3,8.7c6.4,2.1,13.1,3.1,19.8,3.1c11.3,0,20.8-2.2,28.7-6.6
		c7.4-4,13.7-9.8,18.3-16.9c4.3-6.8,6.8-14.6,7.2-22.6c0.5-8.1-0.9-16.2-4.3-23.6c-3.1-6.5-7.4-12.3-12.6-17.2
		c-5.7-5.7-11.7-11.2-18-16.5c-6.3-5.3-12.4-10.4-18.3-15.1c-5-3.9-9.6-8.3-13.6-13.1c-2.4-3-3.2-5.9-2.5-8.7c0.7-2.9,2.5-5.5,5-7.2
		c3-2.2,6.5-3.6,10.2-4.2c4.3-0.8,8.7-0.7,12.9,0.5c4.8,1.4,9.3,3.6,13.2,6.7c4.4,3.3,8.2,8.1,11.3,14.2
		C111.7,64.5,114.8,61.4,117.1,57.7z M138.6,192.7h32.5V63.3c-4.2,0-8.4,0.4-12.5,1.4c-3.6,0.8-6.9,2.3-10,4.4
		c-2.9,2.1-5.3,4.8-6.9,8c-1.9,3.9-3,8.2-3.2,12.5V192.7L138.6,192.7z M140.2,16.1c-2.9,2.9-4.8,6.6-5.4,10.6
		c-0.8,4.3-1,8.7-0.8,13.1c0.2,4.4,0.8,8.7,1.8,13c0.9,4.2,1.8,7.6,2.6,10.2c0.9-2.7,2.8-4.9,5.4-6.1c2.8-1.3,5.6-2.4,8.6-3.2
		c3.1-0.9,6.2-1.8,9.3-2.7c3.1-0.9,5.9-2.6,8.2-4.9c4-4,6.1-9.4,6.1-15c-0.2-11.5-9.5-20.7-20.9-21C149.5,9.9,144.1,12.1,140.2,16.1
		L140.2,16.1L140.2,16.1z M263.8,93.3c2.1-4.3,2.5-9.2,1.3-13.9c-1.3-4.7-4.5-9-9.6-12.7c-5.1-3.7-12.6-5.9-22.3-6.4
		c-5.6-0.2-11.2,0.5-16.6,2c-5.2,1.4-10.1,3.8-14.4,7c-4.2,3.1-7.6,7.1-10.1,11.7c-2.6,4.9-3.9,10.4-3.8,16
		c-0.1,5.3,1.1,10.6,3.7,15.2c2.5,4.4,5.8,8.4,9.6,11.7c4.2,3.7,8.7,6.8,13.6,9.5c5.1,2.8,10.4,5.6,15.8,8.2
		c5.7,2.8,9.6,5.7,11.6,8.6s2.7,5.6,2.1,8c-0.7,2.6-2.5,4.7-4.9,5.7c-3.1,1.5-6.5,2.1-10,1.7c-4.5-0.4-8.8-1.6-12.9-3.6
		c-5.1-2.6-9.7-6.2-13.2-10.7L183.5,173c4.5,6,10.1,10.9,16.6,14.6c6.1,3.5,12.8,5.8,19.8,6.9c6.7,1,13.5,0.9,20.2-0.4
		c6.3-1.1,12.4-3.5,17.9-6.9c5.2-3.3,9.6-7.8,12.7-13.1c3.3-5.7,4.9-12.3,4.8-18.9c0.1-5.5-1-11-3.4-16c-2.2-4.4-5.1-8.4-8.7-11.7
		c-3.5-3.3-7.5-6.2-11.7-8.6c-4.3-2.4-8.4-4.6-12.5-6.5c-4-1.9-7.7-3.7-11-5.2c-2.7-1.2-5.1-2.8-7.2-4.9c-1.8-1.8-2.3-4.5-1.4-6.9
		c0.9-2.4,2.9-4.1,5.9-5.1c2.1-0.7,4.2-1,6.4-0.9c5.8,0.3,11.3,2.4,15.8,6c2.4,2,4.4,4.7,5.5,7.6C258,101.2,261.8,97.7,263.8,93.3z
		 M296.7,64.3h-16.1v27h16.1V166c0,7,1.7,12.5,5,16.6c3.2,4,7.4,6.9,12.2,8.5c5,1.6,10.2,2,15.4,1.2c5.1-0.6,10-2.3,14.4-5
		c4-2.4,7.1-6,9.1-10.2c1.9-4.2,1.8-9.1-0.4-14.6c-1.4,2.2-3.4,3.8-5.8,4.7c-2.5,1.1-5.3,1.8-8.1,1.9c-2.4,0.1-4.9-0.4-7.1-1.5
		c-2-1.1-3-3-3-5.6V91.3h7.1c4.5,0,8.2-0.8,11.1-2.4c2.8-1.5,5.1-3.6,6.8-6.2c1.7-2.6,2.8-5.5,3.4-8.6c0.6-3.2,0.9-6.5,0.9-9.7
		h-29.2V17.8c-4,0-8,0.5-11.9,1.4c-3.6,0.8-7.1,2.3-10.2,4.4c-3,2-5.4,4.7-7.1,7.9c-1.9,3.7-2.8,7.8-2.6,11.9L296.7,64.3L296.7,64.3
		z M470.5,132.1c4.9-4.5,8.6-10.2,10.5-16.6c1.8-6.2,1.9-12.8,0.4-19.1c-1.6-6.7-4.8-12.9-9.3-18c-5.1-5.7-11.4-10.3-18.4-13.4
		c-7.6-3.5-16.6-5.2-27-5.2c-9.4,0-18.7,1.5-27.6,4.5c-9,3-17.1,8.3-23.6,15.2c-6,6.3-10.7,13.7-13.9,21.9
		c-6.3,16.2-6.7,34-1.1,50.5c2.7,8.1,7,15.6,12.6,22.1c5.9,6.7,13.1,12,21.2,15.6c8.5,3.9,18.4,5.9,29.6,5.9
		c12.1,0,22.9-2.2,32.3-6.6c9.4-4.4,17.6-11.7,24.5-21.9l-26.5-12.7c-4.9,5.1-11.1,8.9-17.9,11c-6.4,2-13.1,2.4-19.7,1.2
		c-4.4-0.6-8.5-2.3-12.1-4.9c-3.6-2.6-6.6-5.8-9.1-9.5c-2.5-3.8-4.5-8-5.7-12.4c-1.3-4.5-1.8-9.1-1.6-13.7
		c0.1-5.3,1.2-10.6,3.3-15.5c1.9-4.5,4.7-8.7,8.1-12.2c3.3-3.5,7.2-6.3,11.6-8.2c4.4-2,9.1-3.2,13.9-3.5c4.2-0.2,8.5,0.4,12.5,1.7
		c3.5,1.2,6.7,2.9,9.6,5.2c2.4,1.9,4.4,4.4,5.7,7.2c1.1,2.4,1.4,5.1,0.8,7.6c-0.7,2.4-2.4,4.5-5.2,6.4s-6.8,3-12.2,3.5
		c-6.6,0.7-13.3,0.8-19.9,0.4c-6.7-0.3-13-2.8-18.2-7.1c-2.5,6.2-3,11.7-1.4,16.6c1.6,5,5,9.1,9.6,11.7c4.8,2.9,10.9,4.7,18.4,5.4
		c8.4,0.6,16.8-0.3,24.8-2.5C458.2,140.6,465.3,137,470.5,132.1z M491.4,192.7h32.8v-63.3c0-3.9,0.2-7.9,0.5-11.9
		c0.7-7,2.9-12.7,6.7-17c3.4-4,7.8-7.1,12.7-8.9c4.3-1.6,9.1-1.7,13.5-0.5c4.1,1.1,7.4,4.1,8.7,8.1c3.6-2.6,6.1-6.5,6.8-10.9
		c0.8-4.5,0.4-9.2-1.4-13.5c-1.9-4.6-5.1-8.5-9.2-11.2c-4.4-3.1-10.1-4.4-17.1-3.9c-5.4,0.3-10.5,2.3-14.8,5.6
		c-4.7,3.7-8.4,8.5-11,13.9V62.8h-28.2V192.7z"/>
	<path id="Trick" class="st0" d="M575.9,12.8v43h1.5l9.3,9.2H615v132.7h1.5l9.3,9.2h42.6V65h15.9c4.2,0,8.4-1,12.1-2.9
		c3.9-2,7.4-4.8,10.1-8.2c3-3.9,5.4-8.3,6.9-13c1.8-5.6,2.7-11.5,2.6-17.4l-9.3-9.2v-1.5L575.9,12.8L575.9,12.8z M701.7,17.8
		c0.1,4.7-0.7,9.4-2.3,13.9c-1.3,3.8-3.4,7.3-6.1,10.4c-2.4,2.8-5.4,5-8.7,6.5c-3.3,1.5-6.9,2.3-10.5,2.2h-20.2v141.9h-34V50.8
		h-39.1v-33L701.7,17.8L701.7,17.8z M711.8,57.8v139.9h1.5l9.3,9.2H764v-67.5c0-4,0.2-7.9,0.5-11.7c0.5-6.6,3.5-12.7,8.3-17.2
		c2.1-1.9,4.5-3.4,7.1-4.5c2.4-1,5-1.5,7.6-1.5h0.5l1.3,2.7l1-0.7l9.6,9.5c4.1-2.9,7.6-6.6,10.2-10.9c2.1-3.4,3.3-7.3,3.4-11.4
		c0-3.6-0.7-7.1-2-10.5c-1.4-3.6-3.6-6.8-6.3-9.5l-5.6-5.5c-2.8-4.3-6.7-7.8-11.2-10.2c-4.8-2.7-10.7-3.7-17.8-3.2
		c-3.3,0.3-6.5,1.1-9.6,2.4c-2.9,1.2-5.7,2.8-8.3,4.6l-2.5-2.5v-1.5L711.8,57.8L711.8,57.8z M745.1,62.8v16.5
		c2.5-5.4,6.3-10.2,11-13.9c4.2-3.3,9.4-5.3,14.8-5.6c7.1-0.5,12.8,0.8,17.2,3.9c4.1,2.8,7.3,6.7,9.2,11.2c1.8,4.3,2.2,9,1.4,13.5
		c-0.7,4.4-3.2,8.3-6.8,10.9c-1.3-4-4.6-7.1-8.7-8.1c-4.4-1.2-9.2-1.1-13.5,0.5c-5,1.8-9.4,4.8-12.7,8.9c-3.8,4.3-6,10-6.7,17
		c-0.3,4-0.5,8-0.5,11.9v63.3h-32.8V62.8L745.1,62.8L745.1,62.8z M825,197.7h1.5l9.3,9.2H877V69l-6.8-6.7c1.6-0.8,3-1.9,4.3-3.2
		c4.8-4.8,7.4-11.2,7.3-18c0.1-6.3-2.4-12.4-6.8-17l-5.8-5.7c-1.3-2-2.8-3.8-4.5-5.5c-4.7-5.1-11.3-7.9-18.2-7.7
		c-6.9-0.1-13.6,2.6-18.4,7.5c-3,2.9-5.1,6.5-6.2,10.5c-1.1,4.2-1.7,8.4-1.6,12.7c0,2.9,0.3,5.9,0.8,8.7c0.5,3.3,1.1,6.8,1.9,10.5
		c0.8,3.7,1.6,7.3,2.7,11c1,3.7,1.9,7,2.8,10c-0.9,1.9-1.6,3.9-2.1,6c-0.6,2.4-1,4.8-1.1,7.2L825,197.7L825,197.7z M833.2,77
		c1.6-3.2,4-5.9,6.9-8c3-2.1,6.4-3.6,10-4.4c4.1-0.9,8.3-1.4,12.5-1.4v129.4h-32.5V89.5C830.2,85.2,831.3,80.9,833.2,77L833.2,77z
		 M861.1,16.3c4.1,3.8,6.4,9.2,6.3,14.7c0.1,5.6-2.1,11-6.1,15c-2.3,2.3-5.1,4-8.2,4.9c-3.1,0.9-6.2,1.8-9.3,2.7
		c-2.9,0.9-5.8,1.9-8.6,3.2c-2.6,1.2-4.5,3.4-5.4,6.1c-0.8-2.7-1.7-6.1-2.7-10.2c-0.9-4.3-1.5-8.6-1.8-13c-0.3-4.4,0-8.8,0.8-13.1
		c0.6-4,2.5-7.7,5.4-10.6c3.9-4,9.3-6.1,14.9-6C852,10,857.3,12.3,861.1,16.3L861.1,16.3L861.1,16.3z M926.6,189.2
		c6.3,6.2,13.8,11.1,22.1,14.4c8.7,3.6,18.6,5.4,29.9,5.4c25.6,0,46-10.7,61.3-32l-9.6-9.5c0.1-0.3,0.3-0.6,0.5-0.7l-32-22.7
		c-8.6,11-18.8,16.5-30.8,16.5c-3.6,0-7.1-0.4-10.6-1.4c-3-0.8-5.8-2.1-8.3-3.9c-1.3-2.6-2.3-5.3-2.9-8.1c-0.6-2.8-0.9-5.7-0.9-8.6
		c0-2.8,0.2-5.5,0.8-8.2c0.9-4.2,2.6-8.1,5.1-11.6c2.3-3.2,5.2-5.9,8.4-8.1c3.2-2.2,6.8-3.8,10.6-4.7c6.8-1.8,14-2,20.9-0.5
		c3,0.6,5.9,1.6,8.7,3c1,1.5,1.8,3.1,2.3,4.7l2,1l8.8,8.5l5.8,2.5c3.8-1.8,7-4.7,9.1-8.4c2.2-3.8,3.3-8.2,3.3-12.6
		c-0.1-4.1-0.9-8.2-2.5-12c-1.8-4.3-4.5-8.2-7.8-11.5l-5.8-5.7c-3.8-4.7-8.4-8.6-13.6-11.6c-5.7-3.4-12.9-5.8-21.4-7.1
		c-1.8-0.3-3.6-0.6-5.4-0.6c-1.9-0.1-3.8-0.1-5.7-0.1c-13.1-0.1-25.9,3.1-37.3,9.5c-12.1,7-21.2,16.2-27.2,27.5
		c-6,11-9.1,23.2-9.1,35.7c0,11.2,2.4,22.3,7.1,32.5c4.7,10.3,12,19.2,21.2,25.7L926.6,189.2z M999.1,99.5
		c-3.9-3.2-8.4-5.6-13.2-7.1c-5.2-1.6-10.7-2.4-16.1-2.2c-5.6,0.1-11.1,1.2-16.3,3.4c-5.1,2.2-9.8,5.5-13.5,9.6
		c-4,4.6-6.8,10.1-8.1,16.1c-1.2,5.3-1.4,10.8-0.5,16.2c1.5,11,8.2,20.5,18,25.7c5.1,2.8,11.3,4.2,18.5,4.2
		c13.6,0,24.2-4.9,31.8-14.7l24,17.2c-12.8,17.8-31.2,26.7-55.2,26.7c-12.6,0-23.5-2.4-32.7-7.1c-17.4-8.7-29.9-24.9-33.9-44
		c-2-9.2-2.2-18.7-0.6-28c1.7-9.4,5.2-18.3,10.5-26.2c5.6-8.4,13.1-15.3,21.9-20.1c6.9-3.8,14.3-6.5,22.1-7.9
		c7.8-1.4,15.8-1.5,23.6-0.4c10.4,1.5,18.5,4.6,24.3,9.2c5.8,4.7,9.6,9.7,11.5,15.1c1.8,5,2,10.4,0.4,15.5
		c-1.3,4.5-4.5,8.3-8.7,10.4C1005.5,106.6,1002.8,102.5,999.1,99.5L999.1,99.5z M1062.3,206.9h40.6v-49.7l37.6,40.5h1l9.3,9.2h51.7
		l-8.6-9.2h0.2l-57.5-61.2l24.2-26.2c3.4-3.7,7-5.6,11-5.7c3.4-0.3,6.8,0.5,9.7,2.2l3,3c1.5-3.8,2.8-7.7,3.9-11.6
		c0.6-2.1,1-4.2,1.1-6.4c0.1-4.7-1.7-9.2-5-12.5l-6.3-6c-2-4.4-5.8-7.7-10.3-9.2c-5.3-1.9-10.8-2.6-16.4-2.2
		c-7.7,0.3-15.1,2.8-21.4,7.1c-6.5,4.7-12.5,10.1-17.9,16.1l-9.3,10.2V23.6l-9.3-9.2v-1.5c-12.9-0.2-23.2,2.5-30.8,8
		c-7.6,5.5-11.3,13-11.3,22.5v154.4h1.5L1062.3,206.9z M1116,88.3c4.9-5.6,10.4-10.6,16.4-15c5.7-4,12.5-6.2,19.4-6.5
		c3.6-0.2,7.1,0.1,10.6,0.9c3.1,0.6,5.9,2,8.3,4c2.2,1.9,3.7,4.4,4.3,7.2c0.7,2.9,0.2,6.5-1.3,10.6c-0.8-1.3-2.2-2.1-3.7-2.4
		c-2.1-0.4-4.2-0.4-6.3,0.1c-2.8,0.6-5.5,1.7-7.9,3.1c-3.2,1.9-6,4.3-8.3,7.1l-26.7,29.2l61.5,66h-39.8l-54-58.2v58.2h-32V43.3
		c0-8,2.9-14.3,8.7-18.9c5.8-4.6,13.6-6.8,23.3-6.6v100.7L1116,88.3z"/>
</g>
</svg>
