<?xml version="1.0" encoding="UTF-8" standalone="no"?>
<svg width="198px" height="84px" viewBox="0 0 198 84" version="1.1" xmlns="http://www.w3.org/2000/svg" xmlns:xlink="http://www.w3.org/1999/xlink">
    <!-- Generator: Sketch 3.6.1 (26313) - http://www.bohemiancoding.com/sketch -->
    <title>JAVHD-dark</title>
    <desc>Created with Sketch.</desc>
    <defs></defs>
    <g id="SVG-EXPORT" stroke="none" stroke-width="1" fill="none" fill-rule="evenodd">
        <g id="Dark">
            <g id="JAVHD-dark">
                <path d="M128.474995,28.331359 C128.905812,26.1681332 131.047846,24.4144921 133.249731,24.414492 L193.59983,24.4144897 C195.806027,24.4144897 197.594502,26.2076504 197.594502,28.4228232 L197.594502,78.7227199 C197.594502,80.9364614 195.812459,82.7310535 193.602241,82.7310535 L117.641013,82.7310548 L128.474995,28.331359 Z" id="Rectangle-1-Copy" fill="#1C89E3"></path>
                <path d="M138.817171,35.4534832 L138.817171,71.584847 L145.839736,71.584847 L145.839736,56.4675702 L153.183945,56.4675702 L153.183945,71.584847 L160.206509,71.584847 L160.206509,35.4534832 L153.183945,35.4534832 L153.183945,49.9274717 L145.839736,49.9274717 L145.839736,35.4534832 L138.817171,35.4534832 Z M164.54654,71.4776323 C165.940331,71.6384544 168.138233,71.8528839 170.336135,71.8528839 C175.375227,71.8528839 178.966921,70.7271292 181.379252,68.3684052 C184.542087,65.5808222 186.418344,60.3809078 186.418344,53.0903062 C186.418344,46.0677414 184.810124,41.2966859 181.700896,38.509103 C179.39578,36.3648084 176.232945,35.2926611 171.676319,35.2926611 C168.888736,35.2926611 166.315583,35.5606979 164.54654,35.9895568 L164.54654,71.4776323 Z M171.569104,41.0822565 C171.997963,40.9214344 172.48043,40.9214344 172.962896,40.9214344 C177.197878,40.9214344 179.127743,45.424453 179.127743,52.8222694 C179.127743,62.7932392 176.179338,66.1168958 172.802074,66.1168958 C172.426822,66.1168958 171.890749,66.1168958 171.569104,66.0096811 L171.569104,41.0822565 Z" id="HD" fill="#FFFFFF"></path>
                <path d="M15.5386755,57.125639 C15.5386755,67.782541 11.6188955,69.6199379 6.96415666,69.6199379 C4.8817735,69.6199379 3.28936285,69.4974448 1.6969522,69.0074723 L0.349527802,82.4817163 C2.18692471,83.216675 5.12675975,83.7066475 8.43407418,83.7066475 C20.1934144,83.7066475 31.7077683,80.1543468 31.7077683,56.3906802 L31.7077683,0.166334956 L15.5386755,0.166334956 L15.5386755,57.125639 Z M66.4026171,63.862761 L69.9549178,82.7267025 L85.5115449,82.7267025 L69.4649453,0.166334956 L50.2335243,0.166334956 L32.3495278,82.7267025 L47.9061549,82.7267025 L51.5809487,63.862761 L66.4026171,63.862761 Z M52.8761495,51.368462 L55.9384777,34.2194242 C56.7959296,29.4421923 58.0208608,20.8676734 58.8783127,15.3554827 L59.2457921,15.3554827 C59.9807509,20.8676734 61.083189,29.0747129 61.9406409,34.0969311 L64.6354897,51.368462 L52.8761495,51.368462 Z M110.438822,82.7267025 L126.889106,0.166334956 L111.663753,0.166334956 L106.029069,35.4443555 C104.559152,44.7538332 103.211727,54.6757764 102.109289,64.4752266 L101.864303,64.4752266 C100.761865,54.7982696 99.0469612,44.63134 97.5770436,35.8118349 L91.6973735,0.166334956 L76.3495278,0.166334956 L92.4323323,82.7267025 L110.438822,82.7267025 Z" id="JAV" fill="#222222"></path>
            </g>
        </g>
    </g>
</svg>