<?xml version="1.0" encoding="utf-8"?>
<!-- Generator: Adobe Illustrator 22.1.0, SVG Export Plug-In . SVG Version: 6.00 Build 0)  -->
<svg version="1.1" id="BE_THE_CUCK_LOGO" xmlns="http://www.w3.org/2000/svg" xmlns:xlink="http://www.w3.org/1999/xlink" x="0px"
	 y="0px" viewBox="0 0 1162 222" style="enable-background:new 0 0 1162 222;" xml:space="preserve">
<style type="text/css">
	.st0{fill:#FEFFEA;}
	.st1{fill:#FFE25C;}
</style>
<path id="cuckengrave" class="st0" d="M476.3,155.6c0-10.3-9.8-20-20.2-20c-6.5,0-11.9,4.7-17.8,10c-8.6,7.6-19.3,17.3-39.8,17.3
	c-30,0-52.6-21.7-55.5-52.3c3-30.6,25.5-52,55.5-52c16,0,26.1,6.5,34.2,11.8c5.6,3.8,10.7,7.1,16.3,7.1c10.4,0,19-8.2,19-18.5
	c-0.1-2.5-0.6-5-1.5-7.3c1-2.2,1.5-4.6,1.5-7.1c0-5.3-2.4-10.3-6.5-14.4c-14.3-14.7-37.1-23.5-63-23.5c-53.4,0-96.8,43.3-96.8,96.7
	c0,2.6,0.3,5,0.3,7.3s-0.3,4.7-0.3,7.3c-0.2,53.2,42.8,96.5,96,96.7c0.3,0,0.6,0,0.9,0c28.5,0,56.4-12.9,73.4-33.5
	c2.9-3,4.5-7,4.5-11.2c0-2.6-0.6-5.1-1.8-7.3C475.6,160.5,476.2,158.1,476.3,155.6z M448.9,73.6c-4.8,0-8.9-2.6-14.3-6.2
	c-8.6-5.6-19-12.3-36.2-12.3c-14.1-0.1-27.8,4.8-38.6,13.8h0.3c1.8-2,3.8-3.8,5.9-5.3c2.3-1.7,4.8-3.2,7.4-4.4
	c2.5-1.3,5.1-2.3,7.7-3.2c2.7-0.9,5.6-1.5,8.3-2.1c-3.9,0.6-7.8,1.5-11.6,2.6l-2.7,0.9c-2.9,1.1-5.6,2.4-8.3,3.8
	c-1.8,1.2-3.3,2.4-5,3.5c-0.9,0.4-1.7,1-2.4,1.8c-0.6,0.3-1.2,0.7-1.8,1.2c0.6-0.6,1.2-1.5,1.8-2.1c0.2,0,0.3-0.1,0.3-0.3
	c0,0,0,0,0,0c2.2-2.2,4.6-4.2,7.1-5.9c2.5-1.8,5.2-3.4,8-4.7c2.9-1.2,5.9-2.2,8.9-2.9c3.1-0.9,6.3-1.5,9.5-1.8
	c-3.9,0.3-7.8,0.9-11.6,1.8c-0.9,0.3-1.8,0.6-3,0.9c-2.9,0.8-5.6,1.9-8.3,3.2c-1.7,0.9-3.4,1.9-5,2.9c-1.2,0.6-2.4,1.5-3.6,2.1
	c-1.5,1.2-3.3,2.6-4.8,3.8c0.7-1,1.5-1.8,2.4-2.6l0.3-0.3c2.3-2.4,4.9-4.4,7.7-6.2c5.7-4.2,12.3-7.1,19.3-8.2
	c3.3-0.6,6.8-0.9,10.4-1.2c-3.9,0-7.8,0.3-11.6,1.2c-1,0.1-2,0.3-3,0.6c-2.9,0.6-5.6,1.5-8.3,2.6c-1.8,0.7-3.6,1.4-5.3,2.4l-4.5,2.6
	l-2.7,1.8c9.8-8.5,22.3-13.2,36.5-13.2c16,0,26.1,6.5,34.2,11.8c5.6,3.8,10.7,6.8,16.3,6.8c5.8,0,11.2-2.6,14.9-7.1
	c0.2,1.1,0.3,2.1,0.3,3.2C464,67.2,457.3,73.7,448.9,73.6C449,73.6,449,73.6,448.9,73.6z M469.1,178.9c-16.3,20-43.4,32.3-70.7,32.3
	c-23.8,0.2-46.8-8.9-64.2-25.3c3,2.6,5.9,4.7,8.9,7.1c6.8,4.1,13.7,7.9,21.1,10.3c-7.2-2.8-14-6.6-20.2-11.2
	c-6.4-4.5-12.1-10-16.9-16.2c-0.5-0.3-1-0.9-1.2-1.5c4.9,5.5,10.5,10.3,16.6,14.4c6.1,4.2,12.6,7.6,19.6,10
	c-6.8-2.8-13.2-6.4-19-10.9c-5.8-4.4-11.1-9.4-15.7-15c-0.1-0.3-0.3-0.5-0.6-0.6c4.5,4.7,9.5,8.9,14.9,12.6c5.7,3.9,11.9,7,18.4,9.4
	c-6.3-2.6-12.2-6.1-17.5-10.3c-5-4-9.7-8.4-14-13.2c0.3,0.4,0.7,0.7,1.2,0.9c18.1,18.5,42.5,28.5,68.6,28.5
	c28.5,0,56.4-12.9,73.4-33.5c0-0.2,0.1-0.3,0.3-0.3c0,0,0,0,0,0c0.2,1.2,0.3,2.3,0.3,3.5C472.5,173.3,471.3,176.4,469.1,178.9
	L469.1,178.9z M469.1,164.5c-16.3,20-43.4,32.3-70.7,32.3c-52.3,0-93-41.1-93-93.5c0-52,40.7-92.9,93-92.9c25,0,46.9,8.2,60.6,22.3
	c3.3,3.5,5,7.3,5,11.8c-0.1,8.2-6.9,14.8-15.1,14.7c0,0-0.1,0-0.1,0c-4.8,0-8.9-2.6-14.3-6.2c-8.6-5.6-19-12.3-36.2-12.3
	c-16.9,0-32.4,6.5-43.4,18.5c-10.4,11.5-16,27.3-16,44.1c0,36.2,25.5,63.2,59.4,63.2c22,0,33.3-10,42.5-18.2c5.3-5,9.8-9.1,15.1-9.1
	c8.3,0,16.3,8.2,16.3,16.5C472.5,158.9,471.3,162,469.1,164.5L469.1,164.5z M681.2,7.5c-11.1,0-20.2,9-20.2,20.1c0,0,0,0.1,0,0.1v97
	c0,23.8-16,38.8-41.6,38.8s-41.6-15-41.6-38.8v-97c0-11.2-9.1-20.3-20.3-20.3c-11.2,0-20.3,9.1-20.3,20.3l0,0v107
	c0,4.7,0.4,9.5,1.2,14.1H538c0.3,1.2,0.3,2.4,0.6,3.5s0.6,2.4,0.9,3.5s0.6,2.1,0.9,3.2c3.3,12.9,10.1,24.6,19.6,33.8
	c14.6,14.4,35,21.7,59.4,21.7c49.3,0,82.3-32,82.3-79.9v-107C701.6,16.5,692.4,7.5,681.2,7.5z M619.4,211.2
	c-21.7,0-39.8-6.2-53.2-17.3c6.9,5.3,14.8,9.3,23.2,11.8c8.5,2.6,17.3,3.8,26.1,3.5c-8.8,0-17.5-1.5-25.8-4.4
	c-4.2-1.2-8.2-2.9-11.9-5.3c-3.8-2.1-7.5-4.4-11-7.1c-3.3-2.9-6.2-5.9-9.2-9.1c-0.1-0.4-0.3-0.7-0.6-0.9c2.8,2.8,5.8,5.5,8.9,7.9
	c6.7,5,14.3,8.8,22.3,11.2c7.9,2.6,16.1,3.9,24.4,3.8c-8.2-0.2-16.4-1.8-24.1-4.7c-3.9-1.2-7.7-2.9-11.3-5
	c-3.5-2.1-6.8-4.3-10.1-6.8c-3.1-2.6-6-5.5-8.6-8.5l-0.3-0.3c2.5,2.5,5.2,4.9,8,7.1c6.3,4.4,13.2,7.9,20.5,10.3
	c7.3,2.6,14.9,4.1,22.6,4.4c-7.7-0.6-15.2-2.4-22.3-5.3c-3.5-1.3-6.9-2.8-10.1-4.7c-3.3-2-6.5-4.1-9.5-6.5c-2.1-1.8-4.2-3.5-6.2-5.6
	c14.6,13.5,34.8,20.6,58.2,20.6c38,0,66.5-19.4,77.5-50.3C690.7,187.7,661.6,211.2,619.4,211.2z M698.1,42.2v77.9
	c0,46.7-30.9,76.7-78.7,76.7s-78.4-30-78.4-76.7V27.8c-0.2-8.9,6.8-16.3,15.7-16.5c0.2,0,0.4,0,0.6,0c9.2,0,16.9,7.3,16.9,16.5v97
	c0,26.2,17.2,42.3,45.1,42.3s45.1-16.2,45.1-42.3v-97c0.2-9.3,7.8-16.6,17.1-16.5c9,0.2,16.3,7.4,16.5,16.5V42.2L698.1,42.2z
	 M936,155.6c0-10.3-9.8-20-20.2-20c-6.5,0-11.9,4.7-17.8,10c-8.6,7.6-19.3,17.3-39.8,17.3c-30,0-52.6-21.7-55.5-52.3
	c3-30.6,25.5-52,55.5-52c16,0,26.1,6.5,34.2,11.8c5.7,3.8,10.7,7.1,16.3,7.1c10.4,0,19-8.2,19-18.5c-0.1-2.5-0.6-5-1.5-7.3
	c1-2.2,1.5-4.6,1.5-7.1c0-5.3-2.4-10.3-6.5-14.4c-14.2-14.7-37.1-23.5-63-23.5c-53.4,0-96.8,43.3-96.8,96.7c0,2.6,0.3,5,0.3,7.3
	s-0.3,4.7-0.3,7.3c-0.2,53.2,42.8,96.5,96,96.7c0.3,0,0.6,0,0.8,0c28.5,0,56.4-12.9,73.4-33.5c2.9-3,4.5-7,4.5-11.2
	c0-2.6-0.6-5.1-1.8-7.3C935.4,160.5,936,158.1,936,155.6L936,155.6z M908.7,73.6c-4.8,0-8.9-2.6-14.3-6.2
	c-8.6-5.6-19-12.3-36.2-12.3c-14.1-0.1-27.8,4.8-38.6,13.8h0.3c1.8-2,3.8-3.8,5.9-5.3c2.3-1.7,4.8-3.2,7.4-4.4
	c2.5-1.3,5.1-2.3,7.7-3.2c2.7-0.9,5.6-1.5,8.3-2.1c-3.9,0.6-7.8,1.5-11.6,2.6c-0.9,0.3-1.8,0.6-2.7,0.9c-2.8,1.1-5.6,2.4-8.3,3.8
	c-1.8,1.2-3.3,2.4-5.1,3.5c-0.9,0.4-1.7,1-2.4,1.8c-0.6,0.3-1.2,0.7-1.8,1.2c0.6-0.6,1.2-1.5,1.8-2.1c0.2,0,0.3-0.1,0.3-0.3
	c0,0,0,0,0,0c2.2-2.2,4.6-4.2,7.1-5.9c2.5-1.8,5.2-3.4,8-4.7c2.9-1.2,5.9-2.2,8.9-2.9c3.1-0.9,6.3-1.5,9.5-1.8
	c-3.9,0.3-7.8,0.9-11.6,1.8c-0.9,0.3-1.8,0.6-3,0.9c-2.9,0.8-5.7,1.9-8.3,3.2c-1.7,0.9-3.4,1.9-5.1,2.9c-1.2,0.6-2.4,1.5-3.6,2.1
	c-1.5,1.2-3.3,2.6-4.8,3.8c0.7-1,1.5-1.8,2.4-2.6l0.3-0.3c2.3-2.4,4.9-4.4,7.7-6.2c5.7-4.2,12.3-7.1,19.3-8.2
	c3.3-0.6,6.8-0.9,10.4-1.2c-3.9,0-7.8,0.3-11.6,1.2c-1,0.1-2,0.3-3,0.6c-2.9,0.6-5.6,1.5-8.3,2.6c-1.8,0.7-3.6,1.4-5.3,2.4
	c-1.5,0.9-3,1.8-4.5,2.6l-2.7,1.8c9.8-8.5,22.3-13.2,36.5-13.2c16,0,26.1,6.5,34.2,11.8c5.7,3.8,10.7,6.8,16.3,6.8
	c5.8,0,11.2-2.6,14.8-7.1c0.2,1.1,0.3,2.1,0.3,3.2C923.7,67.2,917,73.7,908.7,73.6C908.7,73.6,908.7,73.6,908.7,73.6L908.7,73.6z
	 M928.9,178.9c-16.3,20-43.4,32.3-70.7,32.3c-23.8,0.2-46.8-8.9-64.2-25.3c3,2.6,5.9,4.7,8.9,7.1c6.8,4.1,13.7,7.9,21.1,10.3
	c-7.2-2.8-14-6.6-20.2-11.2c-6.4-4.5-12.1-10-16.9-16.2c-0.6-0.3-1-0.9-1.2-1.5c4.9,5.5,10.5,10.3,16.6,14.4
	c6.1,4.2,12.6,7.6,19.6,10c-6.8-2.8-13.2-6.4-19-10.9c-5.8-4.4-11.1-9.4-15.7-15c-0.1-0.3-0.3-0.5-0.6-0.6
	c4.5,4.7,9.5,8.9,14.8,12.6c5.7,3.9,11.9,7,18.4,9.4c-6.3-2.6-12.2-6.1-17.5-10.3c-5-4-9.7-8.4-14-13.2c0.3,0.4,0.7,0.7,1.2,0.9
	c18.1,18.4,42.8,28.7,68.6,28.5c28.5,0,56.4-12.9,73.4-33.5c0-0.2,0.1-0.3,0.3-0.3c0,0,0,0,0,0c0.2,1.2,0.3,2.3,0.3,3.5
	C932.2,173.3,931,176.4,928.9,178.9L928.9,178.9z M928.9,164.5c-16.3,20-43.4,32.3-70.7,32.3c-52.3,0-93-41.1-93-93.5
	c0-52,40.7-92.9,93-92.9c24.9,0,46.9,8.2,60.6,22.3c3.3,3.5,5.1,7.3,5.1,11.8c-0.1,8.2-6.9,14.8-15.1,14.7c0,0-0.1,0-0.1,0
	c-4.8,0-8.9-2.6-14.3-6.2c-8.6-5.6-19-12.3-36.2-12.3c-16.9,0-32.4,6.5-43.4,18.5c-10.4,11.5-16,27.3-16,44.1
	c0,36.2,25.5,63.2,59.4,63.2c22,0,33.3-10,42.5-18.2c5.3-5,9.8-9.1,15.2-9.1c8.3,0,16.3,8.2,16.3,16.5
	C932.2,158.9,931,162,928.9,164.5L928.9,164.5z M1121,191.5l-16.9-31.2l20.2,29.4L1121,191.5z M1120.4,193.6l-14.6-27.3l17.8,25.3
	L1120.4,193.6z M1119.5,195.6l-12.2-23.2l15.4,21.2L1119.5,195.6z M1118.9,197.4l-10.1-18.8l13.1,16.8L1118.9,197.4z M1118,199.4
	l-7.4-15l10.7,12.9L1118,199.4z M1156,180c0-3.4-0.9-6.8-2.7-9.7l-49.9-79.9l37.4-36.1c3.6-3.4,5.7-8.2,5.7-13.2
	c0.1-2.5-0.4-5.1-1.5-7.3c1.1-2.3,1.6-4.8,1.5-7.3c0-10.4-8.5-18.8-18.9-18.8c0,0-0.1,0-0.1,0c-4.9,0-9.6,2-13.1,5.6L1036.9,88V27.8
	c0-11.2-9.1-20.3-20.4-20.3c-11.2,0-20.3,9.1-20.3,20.3v165.5c0,1.6,0.2,3.2,0.6,4.7v0.3c0.1,0.6,0.3,1.2,0.6,1.8
	c3.8,10.6,15.4,16.1,26,12.3c8.1-2.9,13.5-10.5,13.5-19.1V155c5.7-5.6,11.3-11.2,16.9-16.5c5.3-5,10.7-10.3,16-15.6l51.1,81.4
	c3.6,5.3,9.8,9.1,16.3,9.1c10.4-0.1,18.8-8.6,18.7-19c0,0,0-0.1,0-0.1c-0.1-2.4-0.6-4.8-1.5-7.1C1155.5,185,1156,182.6,1156,180
	L1156,180z M1138.2,51.6l-25.8,25l6.8-7.3l-11.9,9.7l13.1-14.1L1107.3,76l14.6-15.9L1107,72.8l3.3-3.2l30.6-29.7
	c0.6-0.6,1.2-1.5,1.8-2.1c0.3,1.1,0.4,2.1,0.3,3.2C1143,45.1,1141.3,48.9,1138.2,51.6L1138.2,51.6z M1033.4,193.3
	c0,9.1-7.5,16.5-16.6,16.5c0,0,0,0,0,0c-4.6,0-9-1.8-12.2-5c1.7,1,3.5,1.8,5.3,2.4c1.9,0.4,3.8,0.5,5.7,0.3
	c-1.7-0.3-3.4-0.8-5.1-1.5c-1.6-0.7-3.1-1.7-4.5-2.9c-0.9-0.7-1.7-1.5-2.4-2.4c0.6,0.3,0.9,0.6,1.5,0.9c1.6,0.8,3.3,1.4,5.1,1.8
	c1.8,0.5,3.7,0.7,5.6,0.6c-1.7-0.3-3.4-0.8-5.1-1.5c-1.6-0.6-3.1-1.5-4.4-2.6l-2.7-2.6c0.6,0.3,1.5,0.9,2.1,1.2
	c1.6,0.7,3.3,1.2,5.1,1.5c1.6,0.5,3.3,0.7,5.1,0.6c-1.7-0.4-3.4-0.8-5.1-1.5c-1.4-0.7-2.8-1.5-4.2-2.4l-0.3-0.3
	c9.2,5.1,20.8,2.6,27-5.9L1033.4,193.3L1033.4,193.3z M1069,118.9c-5.6,5.6-11.9,11.5-17.5,17c-2.4,2.4-5.1,4.7-7.4,7.1l-0.9,0.9
	l11-12.3l-10.4,8.5l11.9-13.2l-11.6,9.7l12.8-14.1l-10.4,8.8c2.7-2.4,5.1-4.7,7.4-7.1c5.3-5.3,10.7-10.6,16-15.6l51.1,81.1h-0.6
	c0.2,0.6,0.5,1.1,0.9,1.5c0.3,0.1,0.5,0.3,0.6,0.6l-1.8,0.6c0.3,0.7,0.7,1.2,1.2,1.8l0,0l-1.5,0.6c0.3,0.7,0.7,1.4,1.2,2.1h-0.3
	l-49.9-79.6L1069,118.9z M1137.3,209.7c-3.4,0-6.8-1.2-9.5-3.2c1.5,0.9,3.1,1.5,4.8,1.8c1.8,0.5,3.8,0.6,5.6,0.3
	c-1.9-0.1-3.7-0.6-5.3-1.5c-1.6-0.8-3.1-1.8-4.4-2.9c-0.8-0.7-1.5-1.5-2.1-2.4c0.5,0.4,1,0.7,1.5,0.9c1.5,1.1,3.2,1.8,5,2.1
	c1.8,0.4,3.6,0.5,5.3,0.3c-1.8,0-3.5-0.5-5.1-1.5c-1.5-0.6-3-1.5-4.2-2.6c-1.1-0.5-2-1.4-2.7-2.4c0.6,0.3,1.2,0.6,1.8,0.9
	c1.6,0.8,3.3,1.4,5.1,1.8c1.8,0.4,3.6,0.5,5.3,0.3c-1.7-0.2-3.4-0.6-5.1-1.2c-1.5-0.9-3-1.5-4.2-2.4c-0.8-0.6-1.5-1.3-2.1-2.1
	c3,2,6.5,3,10.1,2.9c5.8,0,11.2-2.6,14.8-7.1c0,0.9,0.3,1.8,0.3,2.6C1152.5,202.8,1145.8,209.7,1137.3,209.7
	C1137.4,209.7,1137.3,209.7,1137.3,209.7L1137.3,209.7z M1137.3,195.3c-5.3-0.1-10.2-2.9-13.1-7.3l-53.5-85.2l-1.8,1.5
	c-5.9,5.9-11.9,11.8-17.5,17.3c-5.9,5.6-11.9,11.5-17.8,17l-0.3,0.6v39.7c0,9.1-7.5,16.5-16.6,16.5c0,0,0,0,0,0
	c-9.2,0-16.9-7.3-16.9-16.5V27.8c0-9.1,7.7-16.5,16.9-16.5c9.1-0.1,16.6,7.3,16.6,16.4c0,0,0,0,0,0v69.1l83.5-81.1
	c6-5.9,15.8-5.9,21.7,0.2c2.7,2.8,4.3,6.5,4.4,10.4c0.1,4.1-1.7,8.1-4.8,10.9L1093.4,81l56.7,91.4c1.5,2.3,2.3,4.9,2.4,7.6
	C1152.5,188.4,1145.8,195.3,1137.3,195.3C1137.4,195.3,1137.3,195.3,1137.3,195.3L1137.3,195.3z"/>
<path id="cuck_stroke" class="st0" d="M456.1,135.4c-6.5,0-11.9,4.7-17.8,10c-8.6,7.6-19.3,17.3-39.8,17.3
	c-30,0-52.6-21.8-55.5-52.3c3-30.6,25.5-52,55.5-52c16,0,26.1,6.5,34.2,11.8c5.6,3.8,10.7,7.1,16.3,7.1c10.4,0,19-8.2,19-18.5
	c-0.1-2.5-0.6-5-1.5-7.3c1-2.2,1.5-4.6,1.5-7.1c0-5.3-2.4-10.3-6.5-14.4c-14.3-14.7-37.1-23.5-63-23.5c-53.4,0-96.8,43.3-96.8,96.7
	c0,2.6,0.3,5,0.3,7.3s-0.3,4.7-0.3,7.3c-0.2,53.2,42.8,96.5,96,96.7c0.3,0,0.6,0,0.9,0c28.5,0,56.4-12.9,73.4-33.5
	c2.9-3,4.5-7,4.5-11.2c0-2.6-0.6-5.1-1.8-7.3c1.1-2.2,1.8-4.6,1.8-7.1C476.3,145.1,466.5,135.4,456.1,135.4z M472.4,169.8
	c0.1,3.2-1.1,6.4-3.3,8.8c-16.3,20-43.4,32.3-70.7,32.3c-46.3,0-83.8-32.3-91.5-76.1c4.5,13.9,12.3,26.6,22.9,36.7
	c18.1,18.5,42.5,28.5,68.6,28.5c28.5,0,56.4-12.9,73.4-33.5c0-0.2,0.1-0.3,0.3-0.3c0,0,0,0,0,0C472.4,167.4,472.5,168.6,472.4,169.8
	z M398.4,10.2c25,0,46.9,8.2,60.6,22.3c3.3,3.5,5,7.3,5,11.8C464,52.5,457.2,59.1,449,59c0,0-0.1,0-0.1,0c-4.8,0-8.9-2.6-14.3-6.2
	c-8.6-5.6-19-12.3-36.2-12.3c-16.9,0-32.4,6.5-43.4,18.5c-10.4,11.5-16,27.3-16,44.1c0,36.2,25.5,63.2,59.4,63.2
	c22,0,33.3-10,42.5-18.2c5.3-5,9.8-9.1,15.1-9.1c8.3,0,16.3,8.2,16.3,16.5c0.1,3.2-1.1,6.4-3.3,8.8c-16.3,20-43.4,32.3-70.7,32.3
	c-52.3,0-93-41.1-93-93.5C305.5,51,346.2,10.2,398.4,10.2z M464.1,58.7c-0.1,8.2-6.8,14.8-15.1,14.7c0,0-0.1,0-0.1,0
	c-4.8,0-8.9-2.6-14.3-6.2c-8.6-5.6-19-12.3-36.2-12.3c-16.9,0-32.4,6.5-43.4,18.5c-5.1,5.8-9.1,12.5-11.9,19.7
	C347.4,64,369.3,44,398.4,44c16,0,26.1,6.5,34.2,11.8c5.6,3.8,10.7,6.8,16.3,6.8c5.8,0,11.2-2.6,14.9-7.1
	C464,56.5,464.1,57.6,464.1,58.7z M681.2,7.2c-11.1,0-20.2,9-20.2,20.1c0,0,0,0.1,0,0.1v97c0,23.8-16,38.8-41.6,38.8
	s-41.6-15-41.6-38.8v-97c0-11.2-9.1-20.3-20.3-20.3c-11.2,0-20.3,9.1-20.3,20.3v107c0,23.5,8,43.8,22.9,58.2
	c14.6,14.4,35,21.7,59.4,21.7c49.3,0,82.3-32,82.3-79.9v-107C701.6,16.3,692.4,7.2,681.2,7.2L681.2,7.2z M619.4,210.9
	c-41.9,0-71-23.2-77.2-60.5c3.8,10.5,9.9,20.1,17.8,27.9c14.6,14.1,35,21.7,59.4,21.7c38,0,66.5-19.4,77.5-50.3
	C690.7,187.4,661.6,210.9,619.4,210.9z M698.1,41.9v77.9c0,46.7-30.9,76.7-78.7,76.7s-78.4-30-78.4-76.7V27.5
	c-0.2-8.9,6.8-16.3,15.7-16.5c0.2,0,0.4,0,0.6,0c9.2,0,16.9,7.3,16.9,16.5v97c0,26.2,17.2,42.3,45.1,42.3s45.1-16.2,45.1-42.3v-97
	c0.2-9.3,7.8-16.6,17.1-16.5c9,0.2,16.3,7.4,16.5,16.5V41.9L698.1,41.9z M915.8,135.4c-6.5,0-11.9,4.7-17.8,10
	c-8.6,7.6-19.3,17.3-39.8,17.3c-30,0-52.6-21.8-55.5-52.3c3-30.6,25.5-52,55.5-52c16,0,26.1,6.5,34.2,11.8
	c5.7,3.8,10.7,7.1,16.3,7.1c10.4,0,19-8.2,19-18.5c-0.1-2.5-0.6-5-1.5-7.3c1-2.2,1.5-4.6,1.5-7.1c0-5.3-2.4-10.3-6.5-14.4
	c-14.2-14.7-37.1-23.5-63-23.5c-53.4,0-96.8,43.3-96.8,96.7c0,2.6,0.3,5,0.3,7.3s-0.3,4.7-0.3,7.3c-0.2,53.2,42.8,96.5,96,96.7
	c0.3,0,0.6,0,0.8,0c28.5,0,56.4-12.9,73.4-33.5c2.9-3,4.5-7,4.5-11.2c0-2.6-0.6-5.1-1.8-7.3c1.2-2.2,1.8-4.6,1.8-7.1
	C936,145.1,926.2,135.4,915.8,135.4L915.8,135.4z M932.1,169.8c0.1,3.2-1.1,6.4-3.3,8.8c-16.3,20-43.4,32.3-70.7,32.3
	c-46.3,0-83.8-32.3-91.5-76.1c4.5,14,12.3,26.6,22.9,36.7c18.1,18.4,42.8,28.7,68.6,28.5c28.5,0,56.4-12.9,73.4-33.5
	c0-0.2,0.1-0.3,0.3-0.3c0,0,0,0,0,0C932.1,167.4,932.2,168.6,932.1,169.8L932.1,169.8z M858.2,10.2c24.9,0,46.9,8.2,60.6,22.3
	c3.3,3.5,5.1,7.3,5.1,11.8c-0.1,8.2-6.9,14.8-15.1,14.7c0,0-0.1,0-0.1,0c-4.8,0-8.9-2.6-14.3-6.2c-8.6-5.6-19-12.3-36.2-12.3
	c-16.9,0-32.4,6.5-43.4,18.5c-10.4,11.5-16,27.3-16,44.1c0,36.2,25.5,63.2,59.4,63.2c22,0,33.3-10,42.5-18.2c5.3-5,9.8-9.1,15.2-9.1
	c8.3,0,16.3,8.2,16.3,16.5c0.1,3.2-1.1,6.4-3.3,8.8c-16.3,20-43.4,32.3-70.7,32.3c-52.3,0-93-41.1-93-93.5
	C765.2,51,805.9,10.2,858.2,10.2L858.2,10.2z M923.8,58.7c-0.1,8.2-6.8,14.8-15.1,14.7c0,0-0.1,0-0.1,0c-4.8,0-8.9-2.6-14.3-6.2
	c-8.6-5.6-19-12.3-36.2-12.3c-16.9,0-32.4,6.5-43.4,18.5c-5.1,5.8-9.1,12.5-11.9,19.7C807.1,64,829.1,44,858.2,44
	c16,0,26.1,6.5,34.2,11.8c5.7,3.8,10.7,6.8,16.3,6.8c5.8,0,11.2-2.6,14.8-7.1C923.7,56.5,923.8,57.6,923.8,58.7L923.8,58.7z
	 M1153.4,170.1l-49.9-79.9l37.4-36.1c3.6-3.4,5.7-8.2,5.7-13.2c0.1-2.5-0.4-5.1-1.5-7.3c1.1-2.3,1.6-4.8,1.5-7.3
	c0-10.4-8.5-18.8-18.9-18.8c0,0-0.1,0-0.1,0c-4.9,0-9.6,2-13.1,5.6l-77.5,74.9V27.5c0-11.2-9.1-20.3-20.4-20.3
	c-11.2,0-20.3,9.1-20.3,20.3V193c0,11.2,9.1,20.3,20.4,20.3c11.2,0,20.3-9.1,20.3-20.3v-38.2c5.7-5.6,11.3-11.2,16.9-16.5
	c5.3-5,10.7-10.3,16-15.6l51.1,81.4c3.6,5.3,9.8,9.1,16.3,9.1c10.4-0.1,18.8-8.6,18.7-19c0,0,0-0.1,0-0.1c-0.1-2.4-0.6-4.8-1.5-7.1
	c0.9-2.3,1.4-4.8,1.5-7.3C1156,176.3,1155.1,173,1153.4,170.1z M1152.5,194.2c0,8.4-6.7,15.2-15.1,15.3c0,0,0,0,0,0
	c-5.3-0.1-10.2-2.9-13.1-7.3l-53.5-85.2l-1.8,1.8c-5.6,5.6-11.9,11.5-17.5,17c-4.8,4.7-9.8,9.4-14.6,14.1v-9.4
	c5.7-5.6,11.3-11.2,16.9-16.5c5.3-5.3,10.7-10.6,16-15.6l51.1,81.1c-5.8,2.4-2.5,7.9-2,8.5c0.9,1,2.8,3.2,6.3-3.7
	c3.4,2.7,7.6,4.2,12,4.3c5.8,0,11.2-2.6,14.8-7.1C1152.2,192.4,1152.5,193.3,1152.5,194.2L1152.5,194.2z M1016.7,209.4
	c-9.2,0-16.9-7.3-16.9-16.5V190c4,5.4,10.3,8.6,16.9,8.5c6.6,0,12.8-3.2,16.6-8.5v2.9C1033.3,202.1,1025.9,209.5,1016.7,209.4
	C1016.8,209.4,1016.8,209.4,1016.7,209.4L1016.7,209.4z M1016.7,11.1c9.1-0.1,16.6,7.3,16.6,16.4c0,0,0,0,0,0v69.1l83.5-81.1
	c6-5.9,15.8-5.9,21.7,0.2c2.7,2.8,4.3,6.5,4.4,10.4c0.1,4.1-1.7,8.1-4.8,10.9l-44.8,43.8l56.7,91.4c1.5,2.3,2.3,4.9,2.4,7.6
	c0,8.4-6.7,15.2-15.1,15.3c0,0,0,0,0,0c-5.3-0.1-10.2-2.9-13.1-7.3l-53.5-85.2l-1.8,1.5c-5.9,5.9-11.9,11.8-17.5,17.3
	c-5.9,5.6-11.9,11.5-17.8,17l-0.3,0.6v39.7c0,9.1-7.5,16.5-16.6,16.5c0,0,0,0,0,0c-9.2,0-16.9-7.3-16.9-16.5V27.5
	C999.8,18.4,1007.5,11.1,1016.7,11.1L1016.7,11.1z M1143,40.7c0,4-1.7,7.9-4.8,10.6l-36.5,35.6l-3.9-5.9l43.1-41.4
	c0.6-0.6,1.2-1.5,1.8-2.1C1142.9,38.6,1143,39.7,1143,40.7L1143,40.7z"/>
<path class="st1" d="M108.9,49.4h-5v12.1h5c3,0,5.3-0.5,7-1.6c1.6-1,2.5-2.7,2.4-4.5c0.1-1.8-0.9-3.5-2.4-4.5
	C113.7,49.8,111.3,49.2,108.9,49.4 M110.2,80h-6.3v13.8h6.3c3.8,0,6.7-0.6,8.8-1.8c2.8-1.5,3.9-5,2.3-7.8c-0.5-1-1.4-1.8-2.3-2.3
	C116.9,80.6,114,80,110.2,80 M32,145.5v-22.1h59.6v22.1H75.2v45.4H48.5v-45.4L32,145.5 M128.3,145.8h18.1v-22.6h29.7v67.9h-29.7
	v-23.9h-18.1v23.9H98.5v-67.9h29.8L128.3,145.8 M182.4,190.9c-0.1,0-0.2,0-0.2-0.1c0,0,0,0,0-0.1v-67.4c0-0.1,0.1-0.2,0.2-0.2h52.4
	c0.1,0,0.2,0,0.2,0.1c0,0,0,0,0,0.1v18c0,0.1-0.1,0.2-0.2,0.2c0,0,0,0-0.1,0h-28v6.5h25.7c0.1,0,0.2,0.1,0.2,0.2v17
	c0,0.1-0.1,0.2-0.2,0.2c0,0,0,0-0.1,0h-25.7v7.1h21.3c2.2,0.2,4.3,0.9,6.2,2.2c0.9,0.8,1.4,2.7,1.4,5.6v10.4c0,0.1-0.1,0.2-0.2,0.2
	c0,0,0,0-0.1,0H182.4 M68.4,115.1V28.9h50.3c10.7,0,19.1,2.1,25.2,6.2c5.8,3.8,9.3,10.3,9,17.3c0.1,4.3-1.4,8.5-4.2,11.8
	c-2.8,3.1-6.9,5.1-12.1,6.1c7.1,1.2,12.4,3.5,15.9,6.9c3.5,3.4,5.2,7.9,5.2,13.6c0,8.1-3.3,14.1-9.9,18.2
	c-6.6,4.1-16.4,6.2-29.3,6.2H68.4 M166.2,115.1c-0.1,0-0.3,0-0.3-0.2c0,0,0,0,0-0.1V29.1c0-0.1,0.1-0.2,0.3-0.2h66.7
	c0.1,0,0.3,0.1,0.3,0.2c0,0,0,0,0,0.1V52c0,0.1-0.1,0.2-0.2,0.2c0,0,0,0-0.1,0h-35.6v8.3h32.7c0.1,0,0.3,0.1,0.3,0.2v21.7
	c0,0.1-0.1,0.2-0.2,0.2c0,0,0,0-0.1,0h-32.7v9h27.2c2.8,0.2,5.5,1.2,7.8,2.8c1.2,1.1,1.8,3.4,1.8,7.1v13.3c0,0.1-0.1,0.2-0.2,0.2
	c0,0,0,0-0.1,0L166.2,115.1 M242.9,6H29.1C16.3,6,6,16.4,6,29.1v163.8c0,12.7,10.3,23,23.1,23.1h213.8c12.7,0,23-10.4,23.1-23.1
	V29.1C266,16.4,255.7,6,242.9,6"/>
</svg>
