<?xml version="1.0" encoding="utf-8"?>
<!-- Generator: Adobe Illustrator 23.0.6, SVG Export Plug-In . SVG Version: 6.00 Build 0)  -->
<svg version="1.1" xmlns="http://www.w3.org/2000/svg" xmlns:xlink="http://www.w3.org/1999/xlink" x="0px" y="0px"
	 viewBox="0 0 412 128" style="enable-background:new 0 0 412 128;" xml:space="preserve">
<style type="text/css">
	.st0{fill:#FFFFFF;}
	.st1{fill:#D75597;}
</style>
<g id="Layer_2">
	<polygon class="st0" points="7,69.1 199.9,11.5 211.3,42 220,11.5 405.3,31.4 401.8,98.5 201.4,77.3 206.8,65.1 21.1,119.1 	"/>
</g>
<g id="Layer_1">
	<title>Untitled-1</title>
	<g>
		<path class="st1" d="M134,52.4c0,0.1,0.1,0.1,0.1,0.2l0,0c0,0,0,0.1,0.1,0.1l2.6-1C136.3,49.2,133,50.4,134,52.4z"/>
		<path class="st1" d="M85.4,59.7c-0.5-1.5-1.2-2-2.4-1.6l-2.6,0.7l3.4,11.5h0.1l0,0l2.5-0.7c1.1-0.4,1.6-1.1,1.1-2.7L85.4,59.7z"/>
		<path class="st1" d="M201,42.9l-2.6,1V44l0,0c0.6,1.8,3.6,1.3,2.9-0.5C201.2,43.3,201.2,43.1,201,42.9z"/>
		<polygon class="st1" points="237.8,53.3 237.8,52.3 237.8,52.2 236.6,52.2 236.6,52.3 236.5,52.3 236.5,53.4 237.8,53.4 		"/>
		<path class="st1" d="M151.8,49.7c-0.5-0.1-1.2,0.1-2,0.5c0,0.9-0.5,1.6,0.2,2.7c0.5,0.2,1,0.3,1.3,0.3
			C153.5,53.1,153.7,49.9,151.8,49.7z"/>
		<path class="st1" d="M170.8,47.2L170.8,47.2C170.7,47.2,170.7,47.2,170.8,47.2c-1.9,0.5-1.9,1.7-1.1,3.2h0.1l0,0l0,0
			c0.2-0.1,0.4-0.1,0.6-0.2c0.7-0.3,1.3-0.8,1.7-1.5C171.9,48.1,171.4,47.5,170.8,47.2z"/>
		<polygon class="st1" points="184.8,44.4 183.5,44.9 183.6,45 183.5,45 184,46.2 185.3,45.7 185.3,45.6 185.3,45.6 		"/>
		<path class="st1" d="M26.1,107C26.1,107.1,26.1,107.1,26.1,107C26.1,107.1,26.1,107.1,26.1,107c-0.1,1.1,0.7,1.9,1.7,2
			s1.8-0.7,1.9-1.7c0-0.6-0.2-1.1-0.6-1.5C28.1,105.4,26.9,106.4,26.1,107z"/>
		<path class="st1" d="M27,87.3c0.2,0,0.4,0,0.6,0c0.3-0.4,0.4-0.8,0.3-1.3l0.8-0.2c1.1-0.3,1.6-1.2,1.2-2.7l-2-6.4
			c-0.4-1.2-1-1.7-1.7-1.7c-0.2,0-0.5,0-0.8,0.1l-2.5,0.7l2.5,8.3c-0.5,0.1-1,0.5-1.3,0.9C24.9,86.2,25.7,87.2,27,87.3z"/>
		<path class="st1" d="M28.6,90.9c0.1,0,0.3-0.1,0.5-0.2l-0.4-1C27.6,89.5,27.9,90.9,28.6,90.9z"/>
		<polygon class="st1" points="79.7,59.8 80.5,59.5 80.5,59.4 80.5,59.4 80.2,58.7 79.4,59 79.5,59.1 79.4,59.1 		"/>
		<path class="st1" d="M79.7,81.6C79.8,81.6,79.8,81.6,79.7,81.6L79.7,81.6c1-0.2,1.7-1.9,0.6-1.9c0.1,0.6-0.7,0.6-1.1,0.4v0.1
			c-0.1,0-0.1,0-0.1,0L79.7,81.6z"/>
		<path class="st1" d="M66.2,80.5c0.3,0.4,0.5,0.9,0.7,1.3c0.3,0.9,0.5,1.6,1.9,1.7C68,82.3,67.5,80.5,66.2,80.5z"/>
		<path class="st1" d="M69.7,79.1c-0.3-0.2-0.7-0.3-1,0c-0.1,0.2-0.2,0.5-0.1,0.7c0,0.1,0.1,0.3,0.3,0.3c0,0,0,0,0,0.1
			c0.2,0.1,0.5,0.2,0.7,0.1c0.1,0,0.2-0.1,0.2-0.2c0.3-0.2,0.2-0.6,0-0.8C69.8,79.2,69.7,79.1,69.7,79.1z"/>
		<path class="st1" d="M322.6,38c0,0.6,0.4,1.3,1.3,0.9v-0.1v-1.6v-0.1C323,36.7,322.6,37.4,322.6,38z"/>
		<path class="st1" d="M323.5,75.5c0.2,0.2,0.3,0.3,0.5,0.4c0.3,0.2,0.6,0.3,0.9,0.4c1.8,0.1,2.7-3,0-3.1c-0.2,0-0.5,0-0.8,0
			C323.8,73.9,323.2,74.3,323.5,75.5L323.5,75.5z"/>
		<path class="st1" d="M322.4,81.4c0.2,0.2,0.4,0.3,0.9,0.3c0.4-0.4,0.5-1,0.4-1.6h-0.2c0-0.1,0-0.1,0-0.2h-1.4
			C322.1,80.6,322.1,81.2,322.4,81.4z"/>
		<polygon class="st1" points="328.1,65.3 328.1,64.7 328.1,64.6 327.4,64.6 327.4,64.7 327.4,65.3 327.4,65.4 328.1,65.4 		"/>
		<path class="st1" d="M343.6,85.4c-0.2,0-0.4-0.1-0.6-0.1v1c0,0.2,0.4,0.1,0.8-0.1c0.1,0,0.2-0.1,0.3-0.2l0.1-0.1l0,0
			c0.1-0.1,0.1-0.2,0.1-0.3l0,0c0,0,0,0,0-0.1C344.2,85.5,343.9,85.4,343.6,85.4z"/>
		<path class="st1" d="M344,68.2c-0.1-1-0.6-1.8-1.5-2.3C342.8,66.9,343,67.9,344,68.2z"/>
		<path class="st1" d="M369.6,31.4c-0.7-0.1-1.3,0.8-1.7,1.5c0.7,0,1.3,0.2,1.9,0.6c0-0.3,0.3-0.4,0.6-0.6l0.1-1c0,0,0,0-0.1-0.1
			C370.1,31.6,369.8,31.4,369.6,31.4z"/>
		<path class="st1" d="M340.8,80c-0.5-0.1-1,0.2-1.1,0.7c0.5,0,0.9,0.1,1.1-0.3C340.9,80.4,340.9,80.2,340.8,80z"/>
		<path class="st1" d="M242.5,60.6c-0.1,0-0.1,0-0.1,0c-0.1-0.1-0.3-0.1-0.4-0.1c-1.1-0.3-1.9-0.5-1.9,0.1v0.1v1.9v0.1
			c1,0.3,1.8-0.1,2.2-0.6C243,61.6,243.3,60.8,242.5,60.6z"/>
		<path class="st1" d="M374.4,24.8c0.2-0.5,0-1.1-0.4-1.5c-0.9-0.1-1.7,0.4-2.1,1.2L214.4,8.7L209,31.5l-7-23.7L72.1,46.1
			c-0.5-1.5-1.7-1.6-3-1.4c0.4,0.7,1,1.3,1.7,1.8l-68,20l16.6,56.2L134,88.9h1.8l-0.9-0.3l65.2-19.2l-2.3,9.7l139.4,16.4
			c0.6,0.6,1.5,0.7,2.3,0.3l32,3.8c1.2,3.2,5.9,5.4,8.3,1l24.3,2.9l6.7-75.1L374.4,24.8z M38.4,111l-15,4.4L10.2,70.7l15-4.4
			c4.9-1.5,10.2,0.1,12,6.2l1.8,6c0.9,2.9,0.7,6.4-2.9,8.4c4.1,0,6.1,2.3,7,5.5l2,6.8C46.9,105.4,43.4,109.5,38.4,111z M64.6,104.2
			c-7.1,2.2-14.1-1.1-15.9-7.3L38.5,62.3l10.4-3l2.9,9.9c-1.2,0.7-2.4,1.3-1.2,2.9l1.8-0.7l6.7,22.5c0.4,1.2,1.7,1.9,2.9,1.5
			c0-0.1,0.1-0.1,0.2-0.1c0.1,0,0.1,0,0.2,0c1.1-0.4,1.8-1.6,1.4-2.8L53.6,57.9l9.9-2.9L70,77l-1.1,0.4c0,1,0.8,1.8,1.8,1.9l1.7,5.9
			l-1.5,0.6c0.1,1.3,1.1,2.3,2.4,2.5l0.4,1.3C75.5,95.8,71.7,102,64.6,104.2z M102.3,92.1l-4,1.2c-1.7,0.5-3.6-3.2-4.5-6.2l-2.4-8.2
			c-0.3-1.4-1.7-2.2-3-1.9L86,77.7l5.1,17.8l-10.3,3l-6.4-21.9c0.2-0.4,0.5-0.8,0.9-1.1c-1.3-1.2-1.1-2.8-2.3-3.7l-5.3-18.1
			l14.5-4.3c5-1.4,10.9,0.5,12.7,6.5l2.3,7.8c0.6,2.6-0.3,5.4-2.4,7.1c2.4,0.3,4.5,1.7,5.7,3.8c0,0.1,0,0.1-0.1,0.1
			c-0.3,0.3-0.3,0.8,0,1.1h0.6l2.3,7.9c0.6,1.9,1.4,3.6,2.4,5.3c-1.6,0.7-3,1.8-4.2,3.1C101.5,92.1,102.3,92.1,102.3,92.1z
			 M127.3,84.6L116.2,70l-4.4-5.6l5.8,19.7c-1.4,0.8-2.2,2.3-2.1,3.9l-3.5,1c0.6-0.3,1.2-0.7,1.7-1.2c-1.1-0.9-1.6-0.5-2-1.6l-3,1.3
			l-2.9-10l0.8-0.3l-0.4-1l-0.7,0.3l-8-27.2c0.7-0.1,1.5-0.3,2.1-0.7c-0.1,0-0.1,0-0.1-0.1c-0.1,0-0.1-0.1-0.1-0.1
			c-0.4-0.9-1.5-1.3-2.4-0.8l-0.7-2.4l8.5-2.5l0.4,0.9l0.8-0.3l4.3,5.9c-0.8,0-0.7-1.2-2.2-0.5s1.8,2.8,1.6,2.1
			c-0.2-0.7,0.6-0.9,0.8-1.4l5.8,8l4.3,5.7L115,44l0.9-0.4c-0.3-0.7-0.8-1.2-1.5-1.5l-0.6-2l9.1-2.7l3.8,13.1c-1-0.2-2,0-2.8,0.6
			c-0.3,0.5,0.4,1.3-0.7,1.5c1,0.4,1.4,1.5,2,1.6c0.9,0,1.7-0.5,2-1.3l8.6,29.2L127.3,84.6z M140.4,80.9l-4.9-16.6
			c0.8-0.1,2.1,0.9,2.4-0.2c0.3-1.1,0.3-2.1-1-2.4c-1,0.1-1.7,0.9-1.7,1.9l-8.1-27.4l10.3-3l8,27.1c-0.6-0.3-1.5-0.1-2.6,0.6l1,2.4
			l2.4-0.8l4.5,15.4L140.4,80.9z M173,71.3l-11.1-14.6l-0.4-0.4h0.6c-0.4-0.9,0.9-1.2,0.4-2.2c-1.9,1.9-1.3-1.9-2.3-2.3
			c-0.7,0-1.3,0.4-1.6,1l-1.3-1.6l6.7,22.7l-9.1,2.7l-13.3-44.5l9.1-2.7l4.4,6.1c-0.3,0.8-0.6,1.6-1,2.3c2.6,0.3,2.2,2.7,4.3,3.9
			c-0.3,0.2-0.7,0.3-0.6,0.6L160,42l1.6,2.2l4.3,5.7l-2.5-8.3c1.1-0.2,2-1,2.5-2c1.5-3.4-2-6.7-5.3-7.7l-1.5-5l9.1-2.7L172,37h-0.1
			c0.1,0.7,0.4,1.3,0.8,1.8l8.8,30L173,71.3z M203.4,58.3c-0.6,3.3-3.1,6-6.3,6.9c-7,2.1-12.9-1.6-14.7-7.8l-7.2-24.3
			c-1.7-5.7,3.1-13.1,9.7-15c6.6-1.9,12.3,0.8,14.9,5.1l-0.7,0.3l0.5,1.2l0.8-0.3l0.4,1.2l1.9,6.6l-8.9,2.6c3.3-4-2.5-10.7-7.1-8.8
			c-2.3,1-1.6,3.1-3.3,3.7c1.3,2.4-0.5,3.7,0.8,6.1h-0.6c-0.7,0.2-1.1,1-0.9,1.7c1.6,0.8,1.8-2.2,2.4-1.7c0.6,0.5,3.2,0.5,2.1,0.8
			c-1.1,0.3-2.5,2.1-0.6,1.8s1.7,2.9,2.8,4.3l3.5,11.8c0.1,0.1,0.1,0.1,0.1,0.2c0,0.1,0.1,0.1,0.1,0.2c0.6,1.2,2,1.8,3.3,1.2
			c0.1,0,0.2-0.1,0.3-0.1c1.4-0.4,2.1-1.8,1.7-3.1l-1.7-5.6l-2.8,0.8l-0.9-3c0.1,0,0.1,0,0.1-0.1c0.2-0.5,0-1-0.5-1.2l-0.7-2.4
			l12.7-3.8l6.7,22.4l-5.8,1.7L203.4,58.3z M232.8,78.5v-9.4l-8.5-0.8l-2.2,9.2l-12.9-1.3l17-61l16.6,1.7l2.7,38.3v0.1h-0.1
			c0,0.1,0,0.1,0,0.1c-0.4,0.4-0.4,1.1,0.1,1.5l1.6,23L232.8,78.5z M287.1,83.9l-11.8-1.2L268.8,59l-2.7-9.1L263,81.5l-12.7-1.3
			l6.2-62l12.7,1.3l5.9,23.9l2.5,9.2l3.3-32l10.1,1c-0.5,0.7-0.8,1.5-0.9,2.3c-0.2,1.5,0.9,3,0.4,5.3c-1.3,0.3-1.3,1.7-1.4,3
			c1,1,1.8,2.2,2.8,3.1L287.1,83.9z M333.1,40.1l-0.9,9l-13.7-1.4l0.9-9c0.2-1.8-0.9-3.4-3.3-3.6c-2.4-0.2-3.8,1-4,2.9l-2.6,26.5
			h-0.1c-0.1,0.2-0.1,0.3,0,0.5v0.5c-0.5-0.3-1.1-0.5-1.1-0.1l1,0.5l-0.6,5.9c-0.2,1.8,0.9,3.5,3.5,3.7s4-1.1,4.2-3
			c2.5,0,4.7-1.1,4.2-3.9h-0.4c-1.2-0.4-1.8-1.7-1.4-2.9c-1.6-0.6-2.4-1.9-4-2.4c-0.4,0.5-0.9,0.9-1.5,1v-1.1c0.3,0.1,0.7,0.1,1,0
			c1.5-0.2,2.5-1.6,2.2-3.1c-0.9-0.5-1.8-0.9-2.8-1.2l0.4-3.6l17.7,1.8l-0.7,7.3c-0.3-0.1-0.7-0.2-1.1-0.1c-1.6,1.5-0.4,2.6,0.8,2.7
			l-1.2,10.6c-0.5,0.1-1,0.2-1.4,0.5v-0.9h-0.3c-0.7-0.1-1.4,0.4-1.5,1.1c0.3,0.1,0.6,0.3,0.8,0.6l-0.5,0.4c0.9,0.4,1.8,0.4,2.7,0
			v0.4c-2.4,0-4.9,2.5-2.9,5.1c0.9,0.2,1.8,0.1,2.6-0.1l-0.3,2.9l-4-0.4c0.4-0.6,1-1.1,1.6-1.5c-0.8-0.7-1.4,0.3-2.2,0.6
			c0.3-1.3-1.1-1.1-0.7-2.6h-1.4c-0.4,1.4,0.7,2.5,0.9,3.4l-2.2-0.2l-1.1-5.3c-2.4,3.9-6.8,6-11.3,5.5c-8.7-0.9-13.9-7-14.3-14.4
			c0.1,0.1,0.1,0.3,0.1,0.4h1.3c0-0.4,0.6-0.3,0.6-0.6c0-0.3,0.4-1.1,0-1.1s-0.7-0.1-0.6-0.6h-1.3c0,0.2,0,0.3-0.1,0.5
			c0-0.5,0.1-0.9,0.1-1.4l0.3-3c0.3,0.2,0.7,0.2,1,0.2c0.3-0.2,0.5-0.6,0.5-1c0-0.7-0.6-1.3-1.3-1.3l2.8-28.3c0-0.3,0-0.6,0.1-0.9
			c0.6-0.1,1.1-0.3,1.6-0.7c0.2,0.7,0.7,1.3,1.4,1.7c-0.4-1.6-1.3-3-1.8-4.6c1.2-0.6,1.6,0.1,3.2,0c0.6-1.8-2.2-1.6-2.2-1.7v-0.2
			l0.5-0.7c0.5-0.1,1.6,0.7,1.6-0.1c0-0.8,0.1-1.9,0.4-1.3s2.5,0.3,2.9,0c0.3-0.9-0.1-1.8-0.9-2.2c3.8-2.4,8.3-3.4,12.7-2.9
			C327.7,23.9,333.9,32.3,333.1,40.1z M364.5,91.6l-30.4-3l1.2-12.7c1.4,0.3,2.9,0.5,4.3,0.4c0-1,1.2-3.1,0-2.9s-2.6-0.9-3.8-1.3
			c0.7,0,1.3-0.4,1.6-1c0.4-0.3,0.5-0.8,0.4-1.3h-0.1c-0.3-0.6-0.9-0.9-1.5-0.9v-1.4c0.3-0.4,0.9-0.5,0.6-1.4h-0.5l3.9-39.5l30.4,3
			l-0.2,2.3c0.5,0.6,0.2,0.8-0.1,1l-0.1,0.6h-0.5c-1.1,1.1,0,0.7,0,2.3h0.3l-0.6,5.8l-16-1.6l-1.3,12.9l10.4,1l-1.1,10.7l-10.4-1
			l-1.2,13.7l16,1.6L364.5,91.6z M398.8,95l-29.5-2.9l0.4-3.8c1.3-0.5,2.1-1.5,0.9-2.5l-0.7,0.2l4.8-47.8c0.3-0.3,0.3-0.8,0.1-1.2
			l0.7-6.9l14.3,1.4l-5,49.6l15.2,1.5L398.8,95z"/>
		<path class="st1" d="M237.9,61.5l-1.1,0.7v0.1c0,0.3,0,0.5,0,0.7c0.2,2.2,2.7,0.8,2.5-0.4C239.3,62.2,238.9,61.7,237.9,61.5z"/>
		<path class="st1" d="M229.3,62.4c-0.2,0.8-1.4,1.8-1.3,2.6c0,0.2,0,0.4,0.2,0.5c0.1-0.9,1.4-1.7,1.3-2.5
			C229.6,62.8,229.5,62.6,229.3,62.4z"/>
		<path class="st1" d="M236.4,55.6L236.4,55.6L236.4,55.6c-1.2,0.3-2.5,0.5-3.8,0.6v-0.6h0.2v-1h-0.2v-19l-0.1,0.4v-0.4l-5.4,22.2
			l3.3,0.3c-0.5,0.4-0.8,1-0.8,1.7c0.2,2,3.4,3.7,5.7,3.1c1.5-0.6,2.6-2,2.9-3.6C238.3,57.5,236.2,57.3,236.4,55.6z"/>
		<path class="st1" d="M286,68.8c-1.3-0.6-1.7,0.9-1.2,1.6l0,0l0.1,0.1c0.2,0.2,0.6,0.3,1.1,0.1V68.8C286,68.9,286,68.9,286,68.8
			L286,68.8L286,68.8z"/>
		<path class="st1" d="M330,70.5C330.1,70.5,330.1,70.5,330,70.5c0.2-0.4,0-0.9-0.5-1h-0.1l0,0h-0.1v0.1
			C329.2,70.1,329.6,70.5,330,70.5z"/>
		<path class="st1" d="M379.8,53.3c0-0.1,0.1-0.1,0.1-0.2c0.1-1.2-2.2,0.7-2.6,1.7c-0.2,0.4-0.2,0.7,0.1,0.8v-0.2
			c0-0.2,0.1-0.3,0.1-0.4c0,0,0,0,0-0.1c0.4-0.7,1.7-0.6,2.2-1.3C380.1,53.5,380.3,53.4,379.8,53.3L379.8,53.3z"/>
		<path class="st1" d="M34,97.2c-0.2-1.7,1.5-3.9,0.1-5v0.1L34,92.2c-0.2,1.2-0.4,2.4-0.4,3.6l-0.4-1.5c-0.4-1.4-1.2-1.9-2.1-1.7
			c-0.1,0-0.2,0-0.4,0.1l-2.5,0.7l3.2,10.8h0.1v0.1l2.5-0.7c1.1-0.3,1.6-1.1,1.2-2.7L34,97.2z"/>
		<path class="st1" d="M85.4,79.3l-1.5,0.6V80l0,0c0.4,1,2,0.7,1.7-0.3C85.6,79.6,85.5,79.5,85.4,79.3z"/>
		<path class="st1" d="M65.9,66.4c-0.2,0-0.4,0-0.6,0c-0.5,0-1.1,0.1-1.5,0.4c0.1,1.1,0.7,1.4,1.2,1.4
			C65.7,68.1,66.3,67.3,65.9,66.4z"/>
		<path class="st1" d="M68.4,95.4c0.2-0.6,0.1-1.3-0.3-1.9C66.7,93.5,67.1,96.2,68.4,95.4z"/>
		<polygon class="st1" points="65.5,95.7 65.8,96.4 66.6,96.1 66.3,95.4 		"/>
		<polygon class="st1" points="72.2,89.5 72.1,89.4 71.3,89.7 71.6,90.4 71.7,90.4 71.7,90.5 72.5,90.2 		"/>
		<path class="st1" d="M83.7,86.6c-0.3-0.3-0.7-0.4-1.1,0.1c0,0.1-0.1,0.1-0.1,0.2c-0.4,0.5-0.3,1.6-1,2.2c-0.2,0.2-0.4,0.3-0.8,0.4
			c0.1,0.7,0.5,1.3,1.1,1.6c0,0,0,0,0.1,0l0,0c1.2-0.1,0.8-0.9,1.7-1.1c0,0,0,0-0.1,0l0.1-0.1c-1.6-1.1,0.8-1.4,0.7-2.2l0.1-0.1
			C84.2,87.2,84,86.8,83.7,86.6z"/>
		<path class="st1" d="M81.1,87.7C81.2,87.8,81.3,87.8,81.1,87.7c0-0.1,0-0.3-0.1-0.4c-0.2-0.4-0.3-0.9-0.5-1.3h0.1h0.1
			c-0.3-0.7-1-1.2-1.8-1.3l0,0h-0.1c0.1,0.1,0.1,0.2,0.2,0.4c0.1,0.4,0.4,0.7,0.7,1C80,86.9,80.1,88.1,81.1,87.7z"/>
		<path class="st1" d="M81.7,84.6c-0.2,0.7-0.4,1.5-0.4,2.2l1.1-0.4C81.6,85.7,82.9,84.5,81.7,84.6z"/>
		<path class="st1" d="M104.6,88.8c0.2-0.3,0.3-0.5,0-0.5v-0.1c-0.2-0.7-0.9-0.3-1.4-0.2c-0.3,0.1-0.3,0.4-0.1,0.8
			c-0.1,0.5-0.2,1,0.3,0.8c0.2-0.1,0.4-0.2,0.5-0.3C104.3,89.2,104.5,89,104.6,88.8z"/>
		<path class="st1" d="M98.6,85.1c-0.1,0-0.3,0-0.5,0.1c-0.1,0-0.2,0.1-0.3,0.2L98,86c0.2,0.1,0.3,0.2,0.5,0.1
			C99.1,86.2,99.3,85.1,98.6,85.1z"/>
		<path class="st1" d="M99.2,83.5c0.1,0,0-0.2-0.3-0.3c-0.5-0.7-2-0.9-1.7-0.1c0.2,0.7,0.5,1.1,1.1,1.1c0.2,0,0.4,0,0.7-0.2l0,0
			c0.1,0,0.1,0,0.1-0.1C99.9,83.5,98.9,83.6,99.2,83.5z"/>
		<path class="st1" d="M74.8,77.3c0.1,0,0.2,0.1,0.2,0.1C74.9,77.4,74.8,77.4,74.8,77.3c0.8,0.4,0.7,2.7,1,2.1c0,0,0.1,0,0.2-0.2
			c0.1-0.3,0.3-0.5,0.5-0.6c0.3,0,0.6,0,0.8,0l0,0h0.1C76.9,77.7,75.9,77.2,74.8,77.3z"/>
		<path class="st1" d="M349.4,86.7L349.4,86.7C349.4,86.8,349.4,86.8,349.4,86.7c0.1,0.4,1,0.5,1.1,0.1c0.1-0.3-0.1-0.4-0.3-0.4
			C349.8,86.2,349.2,86.3,349.4,86.7z"/>
		<path class="st1" d="M344.8,85v1h0.7c0-0.4,0.5-0.5,0.4-1h-0.1H344.8z"/>
		<path class="st1" d="M349.7,85.1c0.1,0.1,0.2,0.1,0.2,0v-0.7l-0.7-0.3C349.1,84.6,349,85.1,349.7,85.1z"/>
		<path class="st1" d="M347.5,76.9l-0.1-0.1c-0.1-0.1-0.2-0.3-0.4-0.3c-0.2,0-0.3,0-0.5,0v0.1l0,0c0,0.6,0.5,1.2,1.1,1.3
			c0-0.1,0-0.1,0-0.2C347.7,77.4,347.7,77.1,347.5,76.9z"/>
		<rect x="320.6" y="75.2" class="st1" width="0.7" height="1.3"/>
		<path class="st1" d="M340.7,67.4c-0.8-0.1-1.3,0.5-1.3,1c-0.1,0.5,0.3,0.9,1.3,0.8c0.1-0.1,0.1-0.2,0.2-0.4
			C341.2,68.4,341.1,67.8,340.7,67.4z"/>
		<path class="st1" d="M340.8,65.1c-0.1,0-0.3,0-0.4,0c0,0,0,0.1-0.1,0.1l0,0c-0.4,0.6-0.5,1.3-0.3,2v-0.1c0.2,0.1,0.4,0.1,0.6,0.1
			l0,0c0.1,0,0.3,0,0.4,0c0.3,0,0.6-0.1,0.9-0.2h0.1l0,0c0.1,0,0.1-0.1,0.2-0.1C342.4,65.9,341.7,65.1,340.8,65.1z"/>
		<path class="st1" d="M283.3,29.9V30c0,0.1,0.1,0.1,0.1,0.2l0.1,0.1l0.1,0.1c0,0,0.1,0,0.1,0.1c0,0,0.1,0,0.1,0.1h0.1
			c0.1-0.3,0.2-0.5,0.4-0.7c-0.5,0-0.5-0.4-1.1-0.3C283.3,29.7,283.3,29.8,283.3,29.9z"/>
		<path class="st1" d="M372.4,86.4c-0.3,0.3-0.4,0.5-0.4,0.6c0,0.8,2.4,0.8,2.3,0C374.1,86.1,372.2,86.6,372.4,86.4z"/>
		<path class="st1" d="M233.5,52.3C233.5,52.4,233.5,52.5,233.5,52.3c0.1-0.6,0.6-0.7,0.5-1.3l0,0c0-0.1-0.1-0.1-0.1,0
			c-0.4-0.1-0.5,0.5-0.4,0.9C233.3,52.1,233.3,52.3,233.5,52.3z"/>
		<polygon class="st1" points="300.3,72.5 300.3,73.5 300.3,73.6 301.5,73.6 301.5,73.5 301.5,72.5 301.5,72.4 300.3,72.4 		"/>
		<path class="st1" d="M381,52.6c0,0.3,0,0.4,0.1,0.1c0.1-0.5,0.5-0.9,0.5-1.2c0-0.2-0.1-0.4-0.5-0.6C380,50.5,379.9,52.1,381,52.6z
			"/>
		<path class="st1" d="M260.9,60.5c-1.3-0.7-1.7,1.4-0.9,1.7c0.1,0,0.2,0.1,0.3,0c0-0.3,0.6-0.3,0.6-0.6
			C261.4,61.7,260.9,60.8,260.9,60.5L260.9,60.5z"/>
		<path class="st1" d="M256.2,59.8c-0.2-0.5-0.5-0.8-0.9-0.5c-0.8,0.8-0.9,2.1,0.6,2.3C257,61.8,256.9,60.5,256.2,59.8z"/>
		<polygon class="st1" points="223.4,47.4 223.4,48.6 224.6,48.6 224.7,48.6 224.7,47.4 224.6,47.4 		"/>
		<path class="st1" d="M367.7,22.6c0.9-0.8,0.9-2.2-1.3-1.7C366.3,21.7,366.9,22.4,367.7,22.6z"/>
		<path class="st1" d="M377.7,20.4c0.1-2.1-1.6,0-3.1-1.2v1.7C376.4,21.5,376.2,20.2,377.7,20.4z"/>
		<path class="st1" d="M330.6,38.9c0.4,0.2,0.8,0.3,0.8,0v-1.7h-1.9C329.4,38.2,329.8,38.7,330.6,38.9z"/>
		<path class="st1" d="M380.2,84.6c-0.6,2.7,2.2,3.9,4.3,3C384.5,85,382.2,84.5,380.2,84.6z"/>
		<path class="st1" d="M387.7,84.9c0.1,0.3,0.3,0.5,0.5,0.3c0.5-0.5,1.6-0.4,1.4-1.6h-0.1c0,0,0,0,0-0.1c-0.7-0.4-1.4-0.5-2.2-0.4
			C387.4,83.8,387.3,84.5,387.7,84.9z"/>
		<path class="st1" d="M378.5,57.8c-1.3,0.3-3.6,2.2-2.6,3.3c0.1,0.1,0.1,0.2,0.2,0.2l-0.1-0.1C376.5,59.6,377.8,59,378.5,57.8
			c0,0.1,0,0.1-0.1,0.2C378.5,57.9,378.5,57.9,378.5,57.8z"/>
		<path class="st1" d="M29,89.4c0.5,0.2,1.1,0.2,1.6,0c0-0.1,0-0.1,0-0.2s0.1-0.1,0.2,0h-0.1c0,0.1,0,0.1,0,0.2c0,0-0.1,0-0.1,0.1
			c0,0.4-0.2,0.7,0.2,1.3h0.1l0,0c0.4,0.5,0.8-1.4,0.1-1.5c0.3-0.2,0.3-0.6,0.1-1c0.6-0.5-0.4-1.7-0.6-2.6
			C29.3,86.5,28.8,88,29,89.4z"/>
		<polygon class="st1" points="228,42.1 228.1,42 227.4,40.2 225.4,41 225.4,41.1 225.3,41.1 226,42.9 		"/>
		<path class="st1" d="M219.4,41.3l0.7,1.8l2-0.8C221.7,41,220.8,40.6,219.4,41.3z"/>
		<path class="st1" d="M24.7,108c-0.5,0.1-0.8,0.6-0.8,1.1c0.5-0.2,1-0.3,1-0.7C24.9,108.3,24.9,108.2,24.7,108z"/>
		<path class="st1" d="M50.5,79.1c0.7-0.1,1.2-0.6,1.4-1.3c0.7-1.6,0.1-4.2-1.6-4.1c-0.2,0-0.3,0-0.5,0.1c0.1,2.2-1.1,4.3-3.1,5.4
			c1.5,2.3,0.3,3.5,1.6,5.6c1,1.6,2.9,0.6,4.2-0.8c0.4-0.4,0.7-0.8,1-1.2c0,0,0,0,0-0.1l0,0C53.2,81.1,52.1,79.7,50.5,79.1z"/>
		<path class="st1" d="M208.3,19.9l2-0.8l-0.7-1.8l-1.3,0.5C208.5,18.7,207.7,19,208.3,19.9z"/>
		<path class="st1" d="M119.7,49.1l-1.3,0.5c0,0.1,0.1,0.3,0.1,0.4c0,0.2-0.1,0.4-0.5,0.5l0.5,1.2c0.4-0.1,0.8-0.2,0.9,0.3l1.3-0.5
			c0-0.1-0.1-0.3-0.1-0.4c0-0.2,0.1-0.4,0.5-0.5l-0.5-1.2C120.2,49.6,119.8,49.7,119.7,49.1z"/>
		<path class="st1" d="M151.3,38.8l-0.5-1.2l-2,0.8C149.2,39.5,150,39.5,151.3,38.8z"/>
		<path class="st1" d="M135,41.2c0.2-0.3,0.2-0.6,0.1-0.9c0-2.6-3.4,0.9-1.7,1.4C134,42,134.7,41.8,135,41.2z"/>
		<polygon class="st1" points="117.8,40.8 116.5,41.3 117,42.5 118.3,42 		"/>
		<path class="st1" d="M220.3-0.5c0.7-0.2,1.2-1,1-1.7c0-0.1-0.1-0.2-0.1-0.3l-2.6,1C218.8-0.8,219.6-0.3,220.3-0.5z"/>
		<polygon class="st1" points="43.5,65.8 44,67 45.3,66.5 44.8,65.3 		"/>
		<path class="st1" d="M141.1,67.7c-1.4,0.3-2,0.8-1.9,1.7c0,0.3,0.1,0.6,0.3,0.9c0.7,0.4,1.7,0.2,2.1-0.5
			C142,69.1,141.8,68.1,141.1,67.7z"/>
		<path class="st1" d="M67.1,45.4c-0.3-0.7-0.8-1.2-1.4-1.5c-1.8,0.5-1.8,1.7-1,3.2C65.7,46.8,66.5,46.2,67.1,45.4z"/>
		<polygon class="st1" points="109.1,28.9 108.6,27.7 107.3,28.2 107.8,29.4 		"/>
		<path class="st1" d="M57.7,48.4c2.2-0.7,2.9-2,2.3-3.7c-0.6-1.7-1.5-0.6-2.1-1.3C54.8,44.9,55.2,47.4,57.7,48.4z"/>
		<path class="st1" d="M62.1,42.5c-0.4-2.2-2-1.8-3.6-1.4C59.1,42.9,60.9,41.9,62.1,42.5z"/>
		<path class="st1" d="M142.9,60.6c-0.1-1.1-0.1-2-1.1-1.6s-0.5,0.9-1.5,0.6c-0.1,0.8,0.1,1.5,0.5,2.2
			C141.6,61.6,142.3,61.2,142.9,60.6z"/>
		<path class="st1" d="M54.6,39.2c-0.2-0.9-1.2-1.5-2.1-1.3C52.7,38.8,53.7,39.4,54.6,39.2z"/>
		<path class="st1" d="M27.5,49.2l-0.7-1.8l-2,0.8C25.2,49.5,26.1,49.8,27.5,49.2z"/>
	</g>
</g>
</svg>
