<svg xmlns="http://www.w3.org/2000/svg" width="301" height="38" fill-rule="evenodd" clip-rule="evenodd" image-rendering="optimizeQuality" shape-rendering="geometricPrecision" text-rendering="geometricPrecision" viewBox="0 0 10613 1329"><g fill-rule="nonzero"><path fill="#ab8f54" d="M850 1006H343l-106 304H1L496 0h204l496 1310H959l-107-304zM407 822h380L597 278 407 822zm1775-638h-408v1126h-226V184h-405V0h1039v184z"/><path fill="#fff" d="M2459 337l3 158c36-59 81-103 135-132s114-44 180-44c154 0 251 63 292 189 35-61 81-107 139-140s123-49 193-49c209 0 315 114 319 342v650h-108V670c-1-87-19-151-57-193-37-42-97-63-180-63-77 1-143 26-196 75s-83 108-89 179v644h-108V663c-1-83-20-146-59-186-39-41-98-62-179-62-68 0-126 19-174 58-49 39-84 96-108 172v667h-108V339h103zm1476 472c0-94 18-178 54-253s88-134 154-175c66-42 141-63 225-63 129 0 234 45 315 136 80 91 121 211 121 361v22c0 94-18 179-55 254-36 75-87 133-153 174s-141 61-226 61c-129 0-234-45-314-136-81-91-121-211-121-361v-22zm108 30c0 116 30 212 91 287 60 75 139 112 237 112 97 0 176-37 236-112 61-75 91-173 91-296v-21c0-75-14-143-41-205-28-62-66-110-116-143-50-34-107-51-171-51-96 0-174 38-235 113s-91 174-91 296v20zm1273 322l296-825h111l-364 973h-87l-365-973h111l299 825zm1165-99c0-53-21-96-64-129s-107-58-194-76-154-39-201-63c-48-24-83-53-106-87s-35-76-35-124c0-77 32-140 96-190s146-75 247-75c108 0 196 27 261 80 65 54 98 124 98 210h-108c0-57-24-104-72-142s-108-57-180-57c-71 0-128 16-171 47-43 32-64 72-64 123 0 49 18 87 53 113 36 27 101 51 195 73 95 22 165 46 212 71s82 56 105 91 34 78 34 128c0 82-33 148-100 197-66 49-153 74-260 74-113 0-205-27-276-82-70-55-106-124-106-209h108c4 63 31 112 80 148 49 35 113 53 194 53 75 0 135-17 182-49 46-33 69-75 69-126z"/><path fill="#4d4d4d" d="M6822 1246c0-21 7-39 20-53 14-15 32-22 56-22s43 7 57 22 21 33 21 53c0 21-7 38-21 52s-33 20-57 20-43-7-56-20c-14-14-20-31-20-52zm810-7c75 0 138-21 189-64 51-42 78-97 82-165h104c-3 59-22 113-56 162s-80 87-136 115c-57 28-118 41-182 41-128 0-229-45-303-133-75-89-112-208-112-358v-33c0-96 17-181 50-255s82-131 144-171c63-40 136-60 220-60 107 0 195 32 264 96s107 147 111 251h-104c-5-76-32-138-82-184-50-47-113-70-189-70-97 0-173 35-226 105-54 70-80 169-80 295v31c0 124 27 221 80 291s129 104 227 104zm530-429c0-94 18-178 54-253s88-134 154-175c66-42 141-63 225-63 129 0 234 45 315 136 80 91 121 211 121 361v22c0 94-18 179-55 254-36 75-87 133-153 174s-141 61-226 61c-129 0-234-45-314-136-81-91-121-211-121-361v-22zm108 30c0 116 30 212 91 287 60 75 139 112 237 112 97 0 176-37 236-112 61-75 91-173 91-296v-21c0-75-14-143-41-205-28-62-66-110-116-143-50-34-107-51-171-51-96 0-174 38-235 113s-91 174-91 296v20zm1081-502l3 158c36-59 81-103 135-132s114-44 180-44c154 0 251 63 292 189 35-61 81-107 139-140s123-49 193-49c209 0 315 114 319 342v650h-108V671c-1-87-19-151-57-193-37-42-97-63-180-63-77 1-143 26-196 75s-83 108-89 179v644h-108V664c-1-83-20-146-59-186-39-41-98-62-179-62-68 0-126 19-174 58-49 39-84 96-108 172v667h-108V340h103z"/></g></svg>