<?xml version="1.0" encoding="utf-8"?>
<!-- Generator: Adobe Illustrator 22.1.0, SVG Export Plug-In . SVG Version: 6.00 Build 0)  -->
<svg version="1.1" id="Vrstva_1" xmlns="http://www.w3.org/2000/svg" xmlns:xlink="http://www.w3.org/1999/xlink" x="0px" y="0px"
	 viewBox="0 0 1019.2 100.8" style="enable-background:new 0 0 1019.2 100.8;" xml:space="preserve">
<style type="text/css">
	.st0{fill:#FFFFFF;}
	.st1{fill:#FF3D00;}
</style>
<title>site-logo-watermark</title>
<g>
	<path class="st0" d="M51.1,84.6c11.6,0,20-3.5,26.1-7.6l8.3,11.5c-8.1,7-18.9,10.7-34.4,10.7C19.4,99.2,2,78.8,2,51
		C2,23.2,19.4,2.8,51.1,2.8c15.5,0,26.4,3.7,34.4,10.7L77.2,25c-6.1-4.1-14.5-7.6-26.1-7.6c-21.3,0-31.5,14.2-31.5,33.6
		C19.7,70.3,29.8,84.6,51.1,84.6z"/>
	<path class="st0" d="M171.8,82.7v14.6H97.2v-8.6l50.1-69.2H99.9V4.8h71.9v8.6l-50.1,69.2H171.8z"/>
	<path class="st0" d="M253.7,42.8v14.6h-46v25.3h48.8v14.6h-66.2V4.8h65.6v14.6h-48.2v23.5H253.7z"/>
	<path class="st0" d="M315.5,84.6c11.6,0,20-3.5,26.1-7.6l8.3,11.5c-8.1,7-18.9,10.7-34.4,10.7c-31.7,0-49.1-20.3-49.1-48.2
		c0-27.8,17.4-48.2,49.1-48.2c15.5,0,26.4,3.7,34.4,10.7L341.6,25c-6.1-4.1-14.5-7.6-26.1-7.6c-21.3,0-31.5,14.2-31.5,33.6
		C284.1,70.3,294.2,84.6,315.5,84.6z"/>
	<path class="st0" d="M427.4,4.8h17.4v92.4h-17.4V57.4h-44v39.8h-17.4V4.8h17.4v38h44V4.8z"/>
	<path class="st1" d="M522,29.9c-7.2-3.1-15.5-5-25-5c-6,0-11.2,1.7-11.2,6.6c0,5,5.3,6.4,13.5,8.1c23.5,4.9,37.3,12.1,37.3,30.4
		c0,22.1-18.6,29.8-41.6,29.8c-15.7,0-29.3-4.3-39.3-11.9l12.3-18.4c7.7,4.8,16.8,7.6,25.7,7.6c9.2,0,15.3-1.2,15.3-7.1
		c0-4.8-5.8-6.4-15.1-8.3c-24.7-5.2-35.8-15.3-35.8-30.2c0-16.1,10.8-29.3,37.5-29.3c15.8,0,28.2,3,38.6,9.3L522,29.9z"/>
	<path class="st1" d="M548.7,97.2V4.8h42.1c25.9,0,40.5,12.7,40.5,34.7s-14.6,34.7-40.5,34.7H576v23H548.7z M576,27.5v24h14.8
		c9.2,0,13-4.9,13-12s-3.8-12-13-12H576z"/>
	<path class="st1" d="M680.5,36.4l20.2-31.6h29.5l-36.1,55.8v36.7h-27.3V60.5L630.7,4.8h29.5L680.5,36.4z"/>
	<path class="st0" d="M738.3,78.7c5.3,0,9.6,4.3,9.6,9.6c0,5.3-4.3,9.5-9.6,9.5s-9.5-4.3-9.5-9.5C728.8,83,733,78.7,738.3,78.7z"/>
	<path class="st0" d="M793.8,85c7,0,13.2-1.9,19-6.4L821,89c-7.2,7.2-16.6,9.5-27.2,9.5c-22.4,0-36.7-14.8-36.7-34.2
		S771.3,30,793.8,30c10.6,0,20,2.3,27.2,9.5l-8.4,10.3c-5.7-4.5-11.9-6.3-18.8-6.3c-14.1,0-20.2,9.9-20.2,20.8S779.7,85,793.8,85z"
		/>
	<path class="st0" d="M866.1,98.5c-22.4,0-36.7-14.8-36.7-34.2S843.6,30,866.1,30c22.4,0,36.7,14.6,36.7,34.2
		C902.8,83.9,888.4,98.5,866.1,98.5z M866.1,43.5c-14.1,0-20.2,9.9-20.2,20.8S851.9,85,866.1,85c14.1,0,20.2-9.9,20.2-20.8
		S880.2,43.5,866.1,43.5z"/>
	<path class="st0" d="M917,31.3h16.2v6.1c2.2-3.9,8.8-7.4,15.3-7.4c10.4,0,17.7,3.6,21.6,9.1c3.5-4.7,11.3-9.1,20.2-9.1
		c15.8,0,26.6,8.4,26.6,28.8v38.4h-16.2V58.8c0-9.1-3.9-15.3-12.8-15.3c-9,0-12.8,6.2-12.8,15.3v38.4h-16.2V58.8
		c0-9.1-3.9-15.3-12.8-15.3c-9,0-12.8,6.2-12.8,15.3v38.4H917V31.3z"/>
</g>
</svg>
