<svg xmlns="http://www.w3.org/2000/svg" width="474" height="144" viewBox="0 0 474 144">
  <defs>
    <linearGradient id="bellesa-v2-logo-a" x1="33.421%" x2="33.421%" y1="100%" y2="0%">
      <stop offset="0%" stop-color="#9E889E"/>
      <stop offset="100%" stop-color="#E39B8D"/>
    </linearGradient>
  </defs>
  <g fill="none" fill-rule="evenodd">
    <circle cx="72" cy="72" r="72" fill="url(#bellesa-v2-logo-a)" fill-rule="nonzero"/>
    <path fill="#FFF" fill-rule="nonzero" d="M102,78.8170391 C102,98.6145251 91.2857143,114 71.0977444,114 C63.9924812,114 59.0300752,110.26676 57.3383459,107.212291 C56.6152555,110.641039 53.5898359,113.094972 50.0856703,113.094972 L42,113.094972 L57.5639098,33 C63.9757494,33 69.1735724,38.197823 69.1735724,44.6096626 C69.1735724,45.3570078 69.1014099,46.1026069 68.9580893,46.8360809 L66.1353383,61.2821229 C69.7443609,57.8882682 74.7067669,55.1731844 81.2481203,55.1731844 C93.3157895,55.1731844 102,63.4315642 102,78.8170391 Z M70.7593985,102.00838 C81.5864662,102.00838 87,90.2430168 87,80.627095 C87,71.8030726 82.9398496,67.1648045 76.6240602,67.1648045 C66.2481203,67.1648045 59.8195489,77.2332402 59.8195489,88.6592179 C59.8195489,97.1438547 63.8796992,102.00838 70.7593985,102.00838 Z"/>
    <path fill="#333" fill-rule="nonzero" d="M240.14324,78.0293296 C240.14324,94.8938547 231.010519,108 213.802549,108 C207.746112,108 203.51622,104.819832 202.074212,102.217877 L202.074212,102.217877 C201.457841,105.138748 198.880402,107.22905 195.895205,107.22905 L189,107.22905 L202.26648,39 L202.26648,39 C207.731192,39 212.161216,43.4300244 212.161216,48.8947365 C212.161216,49.5320784 212.099637,50.1679294 211.977339,50.7934273 L209.572657,63.0921788 C212.648942,60.2011173 216.878834,57.8882682 222.454601,57.8882682 C232.740929,57.8882682 240.14324,64.9231844 240.14324,78.0293296 Z M213.514147,97.7849162 C222.743002,97.7849162 227.35743,87.7625698 227.35743,79.5712291 C227.35743,72.0544693 223.896609,68.103352 218.51311,68.103352 C209.668791,68.103352 204.189158,76.6801676 204.189158,86.4134078 C204.189158,93.6410615 207.649978,97.7849162 213.514147,97.7849162 Z M282.839719,86.7988827 L256.137519,86.7988827 L256.137519,88.3407821 C256.137519,93.3519553 259.59834,97.7849162 265.943178,97.7849162 C268.336533,97.7849162 270.986646,96.6781581 273.893518,94.4646419 L273.893515,94.4646387 C277.579787,91.6576272 282.552716,91.2235944 286.669533,93.3495592 L288.726915,94.4120112 C282.574345,103.567039 275.844971,108 264.885705,108 C252.9651,108 244.120781,100.097765 244.120781,86.5097765 C244.120781,71.5726257 255.272314,57.8882682 272.86482,57.8882682 C285.554496,57.8882682 292.283869,66.4650838 292.283869,77.3547486 C292.283869,77.3547486 292.283869,77.3547486 292.283869,77.3547486 L292.283869,77.3547486 C292.283869,82.5706088 288.055579,86.7988989 282.839719,86.7988989 Z M271.326677,68.103352 C265.270241,68.103352 260.463545,72.3435754 258.444733,77.3547486 L277.164594,77.3547376 C278.821442,77.3547376 280.164583,76.0115968 280.164583,74.3547486 C280.164583,74.0500331 280.118159,73.7470961 280.026908,73.4563646 C278.906821,69.8876895 276.006744,68.103352 271.326677,68.103352 Z M374.923988,85.9797486 L348.221788,85.9797486 L348.221788,87.521648 C348.221788,92.5328212 351.682609,96.9657821 358.027447,96.9657821 C360.420802,96.9657821 363.070915,95.859024 365.977786,93.6455078 L365.977784,93.6455046 C369.664056,90.8384931 374.636984,90.4044604 378.753802,92.5304251 L380.811183,93.5928771 C374.658613,102.747905 367.929239,107.180866 356.969974,107.180866 C345.049369,107.180866 336.205049,99.2786313 336.205049,85.6906425 C336.205049,70.7534916 347.356583,57.0691341 364.949088,57.0691341 C377.638764,57.0691341 384.368138,65.6459497 384.368138,76.5356145 C384.368138,76.5356145 384.368138,76.5356145 384.368138,76.5356145 L384.368138,76.5356145 C384.368138,81.7514747 380.139848,85.9797648 374.923988,85.9797648 Z M363.410946,67.2842179 C357.354509,67.2842179 352.547814,71.5244413 350.529002,76.5356145 L369.248863,76.5356036 C370.905711,76.5356036 372.248852,75.1924627 372.248852,73.5356145 C372.248852,73.2308991 372.202427,72.927962 372.111177,72.6372306 C370.99109,69.0685554 368.091013,67.2842179 363.410946,67.2842179 Z M307.893613,39 L307.893613,39 C313.371705,39 317.812575,43.4408707 317.812575,48.9189624 C317.812575,49.5499096 317.752374,50.1794176 317.632789,50.7989286 L306.740006,107.22905 L294.723267,107.22905 L307.893613,39 Z M326.555608,39 L326.555608,39 C332.0337,39 336.474571,43.4408707 336.474571,48.9189624 C336.474571,49.5499096 336.414369,50.1794176 336.294784,50.7989286 L325.402002,107.22905 L313.385263,107.22905 L326.555608,39 Z M409.591273,57.8882682 C416.128379,57.8882682 422.665485,61.4539106 424.684297,66.1759777 C422.12669,69.100142 417.432695,71.9559937 414.664261,70.307656 C411.895826,68.6593182 411.417818,68.103352 408.726068,68.103352 C406.130453,68.103352 404.015507,69.6452514 404.015507,72.4399441 C404.015507,75.8128492 409.110604,77.2583799 412.379157,78.8002793 C417.37812,81.1131285 422.377083,84.3896648 422.377083,91.1354749 C422.377083,102.892458 414.301835,108 403.342569,108 C391.710366,108 385.852558,97.373773 385.077126,93.7374302 C396.297478,88.7015375 396.297478,97.7849162 404.688444,97.7849162 C407.956997,97.7849162 410.841014,96.2430168 410.841014,92.773743 C410.841014,89.9790503 408.053131,88.2444134 402.573498,85.6424581 C396.901597,82.9441341 392.671705,79.1857542 392.671705,72.7290503 C392.671705,63.5740223 399.112677,57.8882682 409.591273,57.8882682 Z M454.425726,57.8882682 C454.425726,57.8882682 454.425726,57.8882682 454.425726,57.8882682 L454.425726,57.8882682 C465.241277,57.8882682 474.009014,66.6560051 474.009014,77.4715566 C474.009014,78.7106928 473.891405,79.9470321 473.657768,81.1639431 L468.653544,107.22905 L461.739357,107.22905 C459.410523,107.22905 457.52263,105.341157 457.52263,103.012324 C457.52263,102.745716 457.547915,102.47971 457.598145,102.217877 L457.598145,102.217877 C455.7716,104.723464 450.676503,108 444.716201,108 C432.603328,108 426.73916,99.1340782 426.73916,88.3407821 C426.73916,70.7053073 436.640952,57.8882682 454.425726,57.8882682 Z M439.52497,86.1243017 C439.52497,93.6410615 443.178058,97.7849162 448.369289,97.7849162 C457.98268,97.7849162 461.579761,89.7884024 461.579761,80.0551622 C461.579761,73.020246 457.926673,69.3582349 452.735442,69.3582349 C442.929783,69.3582349 439.52497,78.222067 439.52497,86.1243017 Z"/>
  </g>
</svg>
