<?xml version="1.0" encoding="utf-8"?>
<!-- Generator: Adobe Illustrator 16.0.0, SVG Export Plug-In . SVG Version: 6.00 Build 0)  -->
<!DOCTYPE svg PUBLIC "-//W3C//DTD SVG 1.1//EN" "http://www.w3.org/Graphics/SVG/1.1/DTD/svg11.dtd">
<svg version="1.1" id="Layer_1" xmlns="http://www.w3.org/2000/svg" xmlns:xlink="http://www.w3.org/1999/xlink" x="0px" y="0px"
	 width="300px" height="124px" viewBox="0 0 300 124" enable-background="new 0 0 300 124" xml:space="preserve">
<path fill="#FFFFFF" d="M39.292,81.532l-5.12-11.228H10.543L5.461,81.532h-3.11l18.66-40.392h2.883l18.66,40.354h-3.262V81.532z
	 M22.377,44.402L11.795,67.613H32.92L22.377,44.402z"/>
<polygon fill="#FFFFFF" points="79.267,81.532 51.049,45.919 51.049,81.532 48.167,81.532 48.167,41.444 50.974,41.444 
	78.622,76.336 78.622,41.444 81.466,41.444 81.466,81.532 "/>
<path fill="#FFFFFF" d="M124.058,81.532l-5.082-11.228H95.31l-5.082,11.228h-3.11l18.66-40.392h2.845l18.66,40.354h-3.224
	L124.058,81.532L124.058,81.532z M107.143,44.402L96.562,67.613h21.125L107.143,44.402z"/>
<polygon fill="#FFFFFF" points="132.933,81.532 132.933,41.444 135.929,41.444 135.929,78.764 159.48,78.764 159.48,81.494 
	132.933,81.494 "/>
<polygon fill="#E095CC" points="199.57,82.177 199.57,56.008 188.307,73.112 188.078,73.112 176.928,56.159 176.928,82.177 
	168.28,82.177 168.28,42.088 177.8,42.088 188.344,59.042 198.889,42.088 208.407,42.088 208.407,82.177 "/>
<g>
	<g>
		<defs>
			<rect id="SVGID_1_" y="40.002" width="300" height="43.995"/>
		</defs>
		<clipPath id="SVGID_2_">
			<use xlink:href="#SVGID_1_"  overflow="visible"/>
		</clipPath>
		<path clip-path="url(#SVGID_2_)" fill="#E095CC" d="M232.907,82.859c-12.363,0-21.238-9.217-21.238-20.632v-0.114
			c0-11.377,8.988-20.746,21.353-20.746c12.365,0,21.239,9.217,21.239,20.633v0.113C254.261,73.53,245.271,82.859,232.907,82.859
			 M245.044,62.113c0-6.864-5.044-12.591-12.137-12.591S220.885,55.135,220.885,62v0.113c0,6.865,5.045,12.592,12.137,12.592
			c7.093,0,12.022-5.612,12.022-12.478V62.113z"/>
	</g>
	<g>
		<defs>
			<rect id="SVGID_3_" y="40.002" width="300" height="43.995"/>
		</defs>
		<clipPath id="SVGID_4_">
			<use xlink:href="#SVGID_3_"  overflow="visible"/>
		</clipPath>
		<polygon clip-path="url(#SVGID_4_)" fill="#E095CC" points="288.889,82.177 288.889,56.008 277.623,73.112 277.396,73.112 
			266.245,56.159 266.245,82.177 257.598,82.177 257.598,42.088 267.117,42.088 277.623,59.042 288.167,42.088 297.688,42.088 
			297.688,82.177 		"/>
	</g>
</g>
</svg>
