<?xml version="1.0" encoding="utf-8"?>
<!-- Generator: Adobe Illustrator 25.3.1, SVG Export Plug-In . SVG Version: 6.00 Build 0)  -->
<svg version="1.1" id="Layer_1" xmlns="http://www.w3.org/2000/svg" xmlns:xlink="http://www.w3.org/1999/xlink" x="0px" y="0px"
	 viewBox="0 0 300 46" style="enable-background:new 0 0 300 46;" xml:space="preserve">
<style type="text/css">
	.st0{fill:#EA2428;}
	.st1{fill:#74C8F0;}
</style>
<g>
	<g id="xLOlpI.tif">
		<g>
			<g>
				<path class="st0" d="M48,14.1c0-0.2,0-0.5,0-0.7c0-1.5,1.1-2.3,2.2-3.1c1.4-0.9,2.6-2,3.7-3.3c1.1-1.2,2.4-1.5,3.9-1
					c0.7,0.2,1.3,0.1,1.9,0.2c2,0.2,3.3,1.2,4.2,2.9c0.8,1.5,1.9,2.6,2.5,4.1c0.2,0.4,0.4,0.5,0.7,0.2c1.2-1.2,2.6-2,3.9-3.2
					c1.3-1.2,2.9-1.9,4.7-1.3c1.1,0.3,2.2,0.4,3.4,0.7c0.9,0.3,1.5,0.9,1.9,1.8c0.9,1.8,1.7,3.7,3.1,5.2c0.9,1.1,0.8,2.2,0.4,3.3
					c-0.4,1.2-1.1,2.3-1.3,3.5c0,0.2-0.1,0.3-0.2,0.4c-2,1.9-3.9,3.8-6.4,5.1c-0.5,0.3-1.1,0.8-1.5,1.2c-2.5,2-4.8,4.2-7.6,5.7
					c-0.8,0.5-1.4,1.1-2,1.7c-0.7,0.6-1.4,1.2-2.4,0.6L62.9,38c-1.7,0.3-2.2-1-2.8-2.2c-0.3-0.6-0.6-1.2-1.1-1.6
					c-1.4-1.5-2.3-3.2-3.4-4.8c-1.5-2.2-2.6-4.5-4.3-6.4c-1-1.2-1.9-2.5-2.3-4c-0.1-0.2-0.2-0.5-0.4-0.7c-0.5-0.4-0.4-0.8-0.3-1.2
					C48.2,16.2,48,15.2,48,14.1z M57.5,6.9c0.5,0.4,0.7,0.4,0.8-0.2c-0.2-0.3-0.5-0.3-0.7-0.2C57.4,6.5,57.2,6.7,57.5,6.9z
					 M57.6,18.1c0.3-0.1,0.6-0.2,0.7-0.7c0-0.2-0.1-0.3-0.3-0.3c-0.4,0.1-0.6,0.3-0.8,0.6C57.2,17.9,57.3,18,57.6,18.1z M74.9,21.9
					c-0.1-0.3-0.2-0.6-0.5-0.7c-0.2,0-0.2,0.2-0.2,0.3c0.1,0.3,0.1,0.7,0.5,0.8C74.8,22.2,74.8,22.1,74.9,21.9z M77.7,9.9
					c-0.2-0.2-0.3-0.2-0.5-0.2s-0.4,0-0.4,0.3c0.1,0.2,0.3,0.3,0.5,0.3C77.5,10.3,77.7,10.2,77.7,9.9z M54,8.3C54,8.1,54,8,53.8,8
					c-0.3,0.1-0.4,0.3-0.5,0.5c0,0.1,0.1,0.2,0.1,0.2C53.8,8.7,53.9,8.5,54,8.3z M56.8,19c0.1,0.2,0.3,0.2,0.5,0.2
					c0.2,0,0.3-0.1,0.3-0.2c-0.1-0.2-0.3-0.2-0.5-0.2S56.8,18.8,56.8,19z M80.7,12.4c-0.2,0.1-0.2,0.2-0.2,0.4s0.2,0.4,0.4,0.3
					c0.2,0,0.1-0.2,0.1-0.4C80.9,12.5,80.8,12.4,80.7,12.4z M73.4,20.4c-0.2,0-0.3,0.2-0.3,0.3s0,0.3,0.2,0.3c0.2,0,0.2-0.2,0.2-0.3
					C73.6,20.6,73.7,20.5,73.4,20.4z M80.9,14.1c0.1-0.2-0.1-0.2-0.2-0.3c-0.1-0.1-0.2,0-0.2,0.1c-0.1,0.2,0,0.3,0.1,0.4
					C80.7,14.4,80.8,14.3,80.9,14.1z M53.4,9.5c-0.1-0.1-0.1-0.2-0.2-0.2c-0.2,0-0.2,0.1-0.2,0.2s0.1,0.2,0.2,0.2
					C53.4,9.7,53.4,9.6,53.4,9.5z M52.2,10.9c0,0.2,0.1,0.2,0.2,0.2c0.1,0,0.1-0.1,0.1-0.2c0-0.2-0.1-0.2-0.2-0.2
					C52.2,10.7,52.2,10.8,52.2,10.9z M81.4,15.5c0-0.1-0.1-0.2-0.1-0.2c-0.1,0-0.2,0-0.2,0.2c0,0.1,0.1,0.2,0.1,0.2
					C81.2,15.8,81.3,15.7,81.4,15.5z M60.8,18.1c0-0.2-0.1-0.2-0.2-0.2c-0.1,0-0.1,0.1-0.1,0.2c0,0.2,0.1,0.2,0.2,0.2
					C60.8,18.2,60.8,18.1,60.8,18.1z M70.7,19.5c-0.1,0.1-0.2,0.1-0.2,0.2s0,0.2,0.1,0.2c0.2,0.1,0.2,0,0.2-0.2
					C70.9,19.7,70.8,19.6,70.7,19.5z M72.6,21.8c-0.1,0-0.2,0.1-0.2,0.1c0,0.1,0,0.2,0.1,0.2c0.2,0.1,0.2,0,0.2-0.2
					C72.7,22,72.6,21.9,72.6,21.8z"/>
			</g>
		</g>
	</g>
	<path class="st1" d="M20,27.9c-0.6,1.5-1.3,2.8-2.2,4c-0.8,1.2-1.6,2.5-2.2,3.8c-0.4,0.2-0.8,0.3-1.2,0.5c-0.4,0.2-0.7,0.4-1.1,0.5
		c-0.4,0.2-0.8,0.3-1.2,0.5c-0.4,0.2-0.8,0.2-1.2,0.2h-0.4c0,0-0.1,0-0.1,0.1v0.1c0,0,0,0,0,0.1l-0.1,0.1c-0.6,0-1.3,0-2.1-0.1
		c-0.8-0.1-1.5-0.1-2.4-0.1c-0.8,0-1.5,0.1-2.2,0.2c-0.6,0.1-1.2,0.3-1.7,0.6c-0.2-0.2-0.5-0.3-0.7-0.2c-0.2,0.1-0.5,0-0.6-0.1
		c0-0.2,0-0.2,0.1-0.3c0.1-0.1,0.2-0.2,0.3-0.2c0.1-0.1,0.2-0.2,0.3-0.2c0.1-0.1,0.2-0.2,0.2-0.3s-0.1-0.3-0.1-0.5
		c0-0.2-0.1-0.2-0.2-0.2c0.2-0.2,0.2-0.3,0.2-0.5c0-0.2,0-0.4-0.1-0.5c-0.1-0.2-0.1-0.4-0.1-0.5s0-0.2,0.1-0.3c0,0-0.1-0.1-0.2-0.1
		s-0.1,0.1-0.1,0.2c0-0.2-0.1-0.3-0.1-0.5c0-0.2,0-0.3,0-0.5c0-0.1,0-0.2,0-0.3c0-0.2,0-0.2,0.1-0.4C1.2,33,1.3,33,1.3,33.1
		s0,0.2-0.1,0.2c-0.1,0.1-0.1,0.2-0.1,0.3c0,0.2,0,0.2,0.1,0.3c0.1-0.2,0.2-0.5,0.2-0.9s0.1-0.7,0.1-1c-0.1,0.1-0.1,0.2-0.1,0.3
		c0,0.2,0,0.3-0.1,0.5c-0.2-0.1-0.3-0.2-0.3-0.5c0-0.2,0-0.5-0.1-0.6c-0.2,0.5-0.2,1.1-0.2,1.8c0.1,0.7,0,1.3-0.2,2
		c-0.1-0.1-0.2-0.2-0.2-0.4c-0.1-0.2-0.1-0.3-0.1-0.5c0-0.2-0.1-0.4-0.1-0.5c-0.1-0.2-0.1-0.3-0.2-0.4c0.2-0.3,0.3-0.6,0.3-0.9
		c0-0.2,0-0.6,0.1-1c-0.2-0.6-0.2-1.3-0.3-2S0,28.2,0,27.6c0-1.3,0.1-2.7,0.2-4c0.1-1.3,0.2-2.6,0.2-3.9c0-0.1,0-0.2,0-0.2
		s0-0.2-0.1-0.2l0.2,0.2c0-0.2,0-0.5,0-0.8s0-0.7,0-1s0-0.5,0-0.8s0.1-0.5,0.1-0.7c-0.2-0.1-0.2-0.2-0.2-0.4c0-0.2,0.1-0.3,0.3-0.4
		c-0.2-0.1-0.2-0.2-0.2-0.5c0-0.2-0.1-0.5-0.2-0.5c0.2,0,0.3,0.1,0.3,0.3c0,0.2,0.1,0.3,0.2,0.4c0.2-0.2,0.2-0.5,0.2-0.8
		c0-0.2,0-0.3-0.1-0.5c0-0.2-0.1-0.3-0.1-0.5c-0.2,0-0.2,0.1-0.3,0.2c-0.1-0.3-0.1-0.5-0.1-0.8c0-0.6,0.1-1.3,0.2-2s0.2-1.5,0.2-2.2
		c0-0.2,0-0.3,0-0.5c0-0.2,0-0.3-0.1-0.5c0.1-0.1,0.2-0.1,0.2-0.1c0.2,0,0.2,0.1,0.2,0.2c0.1-0.1,0.2-0.2,0.2-0.2s0.1-0.2,0.1-0.3
		c2.2,0,4.3-0.1,6.6-0.2c2.2-0.2,4.5-0.3,6.6-0.5c0.2,0.1,0.5,0.2,0.7,0.3C15.4,7,15.7,7,16,7c0.2,0,0.2,0,0.3-0.1
		c0.5,1.1,1,2,1.5,2.9c0.5,0.8,1.2,1.8,1.9,2.6c0,0.6,0.2,1.1,0.5,1.4c-0.3,1-0.8,1.9-1.2,2.8s-1,1.8-1.5,2.7
		c-0.2,0.2-0.3,0.5-0.5,0.8c-0.2,0.4-0.3,0.6-0.3,0.8c0,0.5,0.2,1,0.5,1.5c0.4,0.5,0.7,1.2,1.2,1.7c0.4,0.5,0.8,1.1,1.2,1.5
		c0.4,0.5,0.5,0.9,0.5,1.3c0,0.4-0.1,0.7-0.2,1c0,0.1,0,0.1,0.1,0.1c0,0,0.1,0,0.1-0.1S20,28,20,27.9L20,27.9z M3.1,32.5v-0.3
		c0-0.2-0.1-0.3-0.2-0.3H2.9c0,0.2,0.1,0.3,0.1,0.5C2.9,32.5,3,32.6,3.1,32.5L3.1,32.5z M4.8,8.1c-0.2,0-0.4,0.1-0.6,0.1
		c-0.2,0-0.3,0.1-0.4,0.2l0.1,0.1H3.7c-0.1,0-0.2,0-0.2,0.1s0.1,0.1,0.3,0.1c0.2,0,0.3,0,0.3,0c0.2,0,0.5-0.1,0.6-0.2V8.1z M5.3,31
		c0,0-0.1-0.1-0.1-0.2s0-0.1,0-0.2c0-0.1,0-0.1,0-0.2c0-0.2-0.1-0.3-0.2-0.3v0.2v0.4C5.1,30.9,5.2,31,5.3,31z M6.7,15
		c0.1,0.4,0.2,0.8,0.2,1.2c0,0.2,0,0.5,0,0.7s0,0.5,0,0.7c0,0.5,0.1,0.8,0.2,1.3c0.5,0,1-0.2,1.5-0.3c0.5-0.2,1-0.3,1.5-0.5
		c0.4-0.1,0.8-0.2,1.2-0.2c0.4,0,0.8-0.1,1.1-0.3c0.4-0.3,0.7-0.7,0.8-1.2c0.2-0.5,0.3-1,0.5-1.5c-0.1-0.1-0.2-0.2-0.2-0.4
		c-0.1-0.2-0.2-0.3-0.2-0.5c-0.1-0.2-0.2-0.3-0.3-0.5c-0.1-0.2-0.2-0.2-0.3-0.2c-0.2,0-0.5,0-1.2,0.1c-0.5,0.1-1.2,0.2-1.8,0.3
		c-0.6,0.2-1.2,0.3-1.9,0.5C7.2,14.5,6.9,14.8,6.7,15z M12,30.2c0.3-0.2,0.7-0.5,1-1c0.3-0.5,0.5-0.9,0.5-1.3c0-0.2-0.1-0.3-0.2-0.5
		s-0.3-0.5-0.5-0.7c-0.2-0.2-0.4-0.5-0.6-0.6c-0.2-0.2-0.4-0.3-0.5-0.3c-0.3,0-0.6,0.1-1,0.2c-0.4,0.1-0.8,0.2-1.3,0.4
		c-0.5,0.2-0.9,0.3-1.3,0.5c-0.4,0.2-0.7,0.3-0.9,0.4c0.1,0.6,0.1,1.2,0.1,2c0,0.8,0.1,1.2,0.3,1.5c0.3-0.2,0.6-0.2,1-0.2
		c0.4,0,0.8,0,1.2,0c0.4,0,0.8,0,1.2-0.1C11.3,30.4,11.6,30.3,12,30.2z M7.7,35.7c0.5,0,0.8-0.2,0.9-0.6C8.5,35,8.4,35,8.3,35
		c-0.2,0-0.2,0-0.4,0.1c-0.2,0.1-0.2,0.1-0.4,0.2C7.6,35.3,7.7,35.5,7.7,35.7z M9.2,22.8c-0.3,0-0.6,0.1-0.9,0.3
		c0.2,0.1,0.2,0.1,0.3,0.1C8.9,23.2,9.1,23,9.2,22.8z M9.3,37.3c0.2,0,0.4,0.1,0.6,0.1s0.4,0,0.5,0c0.5,0,0.9-0.2,1.2-0.4
		c-0.5,0-0.8,0-1.2,0C10.1,37,9.7,37.1,9.3,37.3z M11.1,21c-0.1,0-0.2-0.1-0.2-0.1s-0.2,0-0.2,0c-0.2,0-0.5,0.1-0.7,0.2
		c-0.2,0.1-0.4,0.2-0.4,0.5c0.2-0.2,0.5-0.2,0.8-0.2C10.7,21.2,11,21.1,11.1,21z M10.4,9.7c-0.2,0-0.3,0.1-0.5,0.2
		C9.8,10,9.7,10,9.6,10.2c0.1,0.1,0.2,0.2,0.3,0.2H10c0,0,0,0,0.1,0v-0.1c0-0.2,0.1-0.2,0.2-0.2c0.2,0,0.2-0.1,0.2-0.2L10.4,9.7
		L10.4,9.7z M10.3,18.8c0.1,0.1,0.2,0.1,0.2,0.1c0.3,0,0.4-0.1,0.4-0.3c-0.2,0-0.2,0.1-0.4,0.1C10.5,18.7,10.4,18.7,10.3,18.8z
		 M13.3,35L13.3,35c0.2,0.1,0.2,0,0.3-0.1c0.1-0.2,0.2-0.2,0.2-0.3c-0.2,0.1-0.2,0.1-0.3,0.2C13.4,34.8,13.3,34.9,13.3,35z
		 M14.7,27.5c0,0.2-0.1,0.2-0.2,0.3c-0.1,0.1-0.2,0.2-0.2,0.3v0.2c0.2,0,0.3-0.1,0.5-0.2s0.2-0.2,0.2-0.4v-0.1c0,0,0,0,0-0.1
		c0,0.1,0,0.1-0.1,0.1C14.7,27.6,14.7,27.5,14.7,27.5z M14.5,34.6c0.2-0.1,0.4-0.2,0.6-0.3c0.2-0.2,0.4-0.4,0.4-0.7
		c-0.3,0.1-0.5,0.2-0.7,0.3C14.7,34.2,14.6,34.4,14.5,34.6z M15.7,29.2c0,0.1-0.1,0.2-0.2,0.3c-0.1,0.2-0.2,0.2-0.2,0.4
		c0,0.1,0,0.2,0.1,0.2c0-0.1,0.1-0.2,0.2-0.4C15.7,29.6,15.7,29.4,15.7,29.2C15.8,29.3,15.8,29.2,15.7,29.2z M16.4,31.9
		C16.2,32,16,32.2,16,32.3c-0.1,0.2-0.2,0.3-0.3,0.5c0.2,0,0.4-0.1,0.5-0.2c0.2-0.2,0.2-0.2,0.2-0.4L16.4,31.9L16.4,31.9z
		 M17.3,29.9c0,0.2-0.1,0.3-0.2,0.4C17,30.3,17,30.5,17,30.6c0.1-0.1,0.2-0.2,0.2-0.2c0.1-0.1,0.2-0.2,0.2-0.3
		C17.4,30.1,17.4,30,17.3,29.9z M18.1,16.9C18,17,18,17.1,17.9,17.1c-0.1,0.1-0.1,0.2-0.1,0.3c0,0.2,0.1,0.2,0.2,0.2
		c0-0.1,0.1-0.2,0.2-0.3c0.1-0.1,0.1-0.2,0.1-0.3C18.2,16.9,18.1,17,18.1,16.9z M19.1,15.3c-0.3,0.1-0.5,0.2-0.5,0.5
		c-0.1,0.2-0.2,0.5-0.2,0.8c0.2-0.2,0.3-0.4,0.5-0.5C19,15.8,19,15.5,19.1,15.3z"/>
	<path class="st1" d="M42.4,31c0.2,0.4,0.4,0.8,0.7,1.2c0.3,0.5,0.5,0.8,0.7,1.3c0.2,0.5,0.4,1,0.5,1.5c0.2,0.5,0.2,1.1,0.2,1.6
		c0,0.2,0,0.2,0,0.3c0,0.1,0,0.2,0,0.3h-0.1c-0.2,0-0.2,0.1-0.2,0.2C43.7,37.1,43,37,42.2,37c-0.7,0-1.5,0.1-2.2,0.3
		c-0.8,0.2-1.5,0.4-2.2,0.5v-0.1c0-0.3,0.2-0.5,0.4-0.5c0.3,0,0.5-0.2,0.5-0.3c-0.2-0.5-0.4-1.1-0.7-1.5c-0.3-0.5-0.5-0.9-0.8-1.2
		l-0.1,0.1c-0.1,0-0.1,0-0.2,0h-0.1c0,0-0.1,0.1-0.1,0.2c-0.7-1.9-1.3-3.6-1.9-5.1c-0.5-1.5-1.1-3.1-1.5-4.8
		c-0.2,0.1-0.3,0.1-0.4,0.1c-0.3,0-0.5-0.1-0.8-0.2c-0.2-0.1-0.5-0.2-0.8-0.2c-0.2,0-0.5,0.1-0.6,0.2c0,0.2-0.1,0.5-0.1,1.2
		c0,0.6,0,1.3-0.1,2.1c0,0.7-0.1,1.4-0.1,1.9c-0.1,0.6-0.2,0.9-0.2,0.9c-0.1,0-0.1-0.1-0.1-0.2c0-0.1,0-0.2,0-0.3
		c0-0.3,0-0.5,0.1-0.5c-0.2,0.2-0.4,0.3-0.4,0.6v0.4c0,0.2-0.1,0.4-0.2,0.6c0.1,0,0.2,0.1,0.2,0.3V32c0,0.3,0.1,0.5,0.2,0.5
		c-0.2,0.2-0.2,0.5-0.2,0.7c0,0.3,0.1,0.5,0.3,0.7c0.1,0,0.1-0.1,0.1-0.2s0-0.2-0.1-0.2c0.3,0,0.5,0.2,0.5,0.5c0,0.2,0,0.4-0.1,0.6
		c-0.1,0.2-0.1,0.5-0.1,0.7c0,0.2,0,0.5,0.1,0.6c0,0.2,0.1,0.5,0.1,0.6c0,0.6-0.3,0.9-0.8,0.9c-0.3,0-0.7-0.1-1-0.2
		c-0.3-0.2-0.7-0.2-1-0.2c-0.2,0-0.4,0.1-0.5,0.1c-0.2,0.1-0.3,0.2-0.5,0.2c-0.2,0.1-0.4,0.2-0.5,0.2c-0.2,0.1-0.5,0.1-0.8,0.1
		s-0.7,0-1-0.1c-0.3,0-0.6-0.1-0.9-0.2c0-0.3,0-0.6,0-0.8c0-0.2,0-0.5,0-1c0.3,0.2,0.5,0.5,0.6,0.7c0.2-0.1,0.2-0.2,0.4-0.2
		c0.2-0.1,0.2-0.2,0.2-0.5c0-0.2-0.1-0.2-0.2-0.2c-0.2,0-0.2-0.1-0.2-0.1c0-0.1,0-0.2,0.1-0.2c0.1,0,0.1-0.1,0.1-0.2
		C24.5,35,24.5,35,24.4,35c-0.2,0.2-0.2,0.2-0.2,0.1l-0.2,0.1c0,0.1,0,0.1,0.1,0.2c0.1,0,0.1,0.1,0.1,0.2v0.1
		C24.1,35.4,24,35.2,24,35c0-0.2,0-0.5-0.2-0.6c-0.1,0.1-0.1,0.2-0.1,0.5v0.6v0.2c-0.3-0.3-0.5-0.7-0.5-1.3c0-0.5,0.1-1,0.2-1.5
		c0.2-0.5,0.2-1.2,0.2-1.7c0-0.5-0.1-1.2-0.1-1.9c-0.1-0.7-0.2-1.3-0.3-1.8c0-0.1,0.1-0.2,0.1-0.2c0.1-0.1,0.1-0.2,0.1-0.3
		c0-0.1-0.1-0.2-0.2-0.2c0-0.2,0.1-0.2,0.2-0.2h0.2c0-0.2,0-0.2-0.1-0.2c-0.1,0-0.2,0-0.2-0.1c0-0.2,0-0.2,0-0.4s0-0.2,0-0.4
		c0-0.5,0-1-0.1-1.5c-0.1-0.5-0.1-1-0.1-1.5c0-0.6,0-1.2,0.1-1.8c0.1-0.6,0.2-1.2,0.4-1.5c0,0.2,0.1,0.5,0.1,0.8c0,0.2,0,0.5,0,0.8
		v1.9v0.6c0.2-0.6,0.3-1.4,0.3-2.2c0-0.8,0-1.7,0.2-2.5c-0.2,0-0.3-0.2-0.3-0.6c0-0.2,0-0.2,0.1-0.3c-0.2,0-0.2,0.1-0.2,0.2
		c0,0.2,0,0.3,0,0.5s0,0.3-0.1,0.5c-0.1,0.2-0.2,0.3-0.2,0.4c0-0.3,0.1-0.8,0.1-1.5s0-1.3,0.1-2c0-0.6,0.1-1.2,0.2-1.8
		c0.1-0.5,0.2-0.8,0.3-0.8H24c0-0.1-0.1-0.2-0.1-0.4c0-0.2,0-0.2,0.1-0.3c-0.2-0.3-0.2-0.5-0.3-0.8s-0.1-0.5-0.1-0.8
		c0-0.6,0.1-1.2,0.3-1.8c0.2-0.5,0.4-1.1,0.5-1.5c-0.2,0-0.3,0.1-0.3,0.2c0,0.2-0.2,0.2-0.3,0.2c0.2-0.6,0.5-1.1,1.1-1.5
		c0.6-0.5,1.2-0.6,1.7-0.6c0.5,0,1.1,0.1,1.6,0.2C28.8,6,29.4,6,29.9,6C31.2,6,32.5,6,33.8,6c1.3-0.1,2.5-0.1,3.6-0.1
		c0.3,0,0.7,0,1,0s0.6,0,0.9,0c0.5,0.7,1,1.4,1.5,2C41.5,8.5,42,9,42.6,9.5c0,0.1,0,0.1-0.1,0.1l-0.1-0.1c0-0.2,0-0.2,0.1,0.1
		c0.1,0.2,0.2,0.4,0.3,0.7c0.2,0.3,0.2,0.6,0.5,0.9c0.2,0.3,0.3,0.5,0.5,0.6c0,0.7,0,1.4,0.1,1.9c0.1,0.5,0.2,1.2,0.3,2
		C44.1,15.8,44,16,44,16.2c0,0.2,0,0.3,0.1,0.5c0,0.2,0.1,0.2,0.1,0.3c0,0,0,0.1-0.1,0.1v0.1v0.1c0,0.1-0.1,0.2-0.2,0.3
		c-0.1,0.1-0.2,0.2-0.4,0.2c0,0.2,0.1,0.3,0.1,0.5v0.4c0,0.2,0,0.3,0.1,0.5c0.1,0.2,0.2,0.3,0.3,0.5c-0.5,0.7-1.1,1.3-1.8,1.9
		c-0.7,0.5-1.2,1.1-1.8,1.8c0,0.4,0.1,0.8,0.2,1.1c0.2,0.3,0.2,0.7,0.4,1c0.2,0.3,0.2,0.7,0.4,1c0.1,0.4,0.2,0.7,0.2,1.2
		c0,0,0,0.1,0.1,0.1s0.2-0.1,0.2-0.2c0,0.6,0.2,1.2,0.4,1.8C42.3,29.6,42.3,30.3,42.4,31z M25.5,8c0.1-0.1,0.1-0.2,0.1-0.4
		c0-0.2,0-0.2-0.1-0.2c-0.1,0.1-0.1,0.2-0.1,0.4C25.4,7.9,25.4,8,25.5,8z M26.7,36.4c0.2-0.2,0.2-0.5,0.2-0.8c0-0.3-0.1-0.5-0.2-0.7
		c0,0.2-0.1,0.3-0.2,0.3s-0.2,0.1-0.2,0.1s0,0.1,0.1,0.1c0,0,0.1,0,0.1,0.1c0,0.1,0,0.1-0.1,0.1s-0.1,0-0.1,0.1c0,0,0.1,0.1,0.2,0.1
		c-0.1,0.1-0.1,0.2-0.1,0.2c0,0.1-0.1,0.2-0.1,0.2s-0.1,0-0.2-0.1C26.3,36.3,26.5,36.4,26.7,36.4z M29.3,36.8c0-0.2,0.1-0.3,0.1-0.5
		c0.1-0.2,0.1-0.3,0.1-0.5c0-0.3-0.2-0.5-0.5-0.6c-0.1,0.2-0.1,0.4-0.1,0.5c0,0.2,0,0.3,0.1,0.4c0,0.1,0.1,0.2,0.1,0.4v0.2
		C29.2,36.7,29.2,36.7,29.3,36.8z M30.2,35.7c0,0.2,0,0.2,0.1,0.2c0.1,0.1,0.1,0.2,0.1,0.3c0,0,0.1-0.1,0.2-0.1V36V36c0,0,0,0,0-0.1
		V36L30.5,36V36v-0.1v-0.1C30.5,35.7,30.4,35.7,30.2,35.7L30.2,35.7L30.2,35.7L30.2,35.7z M33.7,7.1h-0.9c-0.4,0-0.8,0-1.2,0.1
		c-0.4,0.1-0.7,0.2-0.9,0.5c0.2,0,0.5,0,0.8,0s0.6,0,0.9,0c0.4,0,0.7,0,1-0.1c0.3-0.1,0.5-0.2,0.7-0.5H33.7z M35.3,18.6
		c0.4-0.3,0.8-0.8,1.2-1.4c0.4-0.6,0.6-1.2,0.6-1.8c0-0.3-0.1-0.6-0.3-0.9c-0.2-0.3-0.5-0.5-0.9-0.6c-0.2-0.4-0.5-0.7-0.8-0.8
		c-0.4-0.1-0.8-0.2-1.4-0.2c-0.5,0-0.9,0.1-1.4,0.2c-0.5,0.1-0.8,0.2-1.2,0.3c-0.2,0.5-0.2,1.1-0.3,1.6c0,0.5-0.1,1.1-0.1,1.6
		c0,0.4,0,0.8,0,1.2c0,0.4,0,0.7,0.1,1.1c0.3,0,0.6,0.1,0.9,0.1s0.6,0,0.8,0c0.4,0,0.8,0,1.2-0.1C34.2,18.8,34.8,18.8,35.3,18.6z
		 M31.5,9.4c-0.3,0-0.5,0.2-0.5,0.4C31.3,9.8,31.5,9.7,31.5,9.4z M31.4,21.3c0.3-0.1,0.8-0.1,1.2-0.2c0.5-0.1,0.8-0.2,1.2-0.5
		c-0.4,0.2-0.8,0.2-1.3,0.2C31.9,20.9,31.5,21.1,31.4,21.3z M33.3,11.9c-0.2,0.1-0.5,0.2-0.8,0.1c-0.3,0-0.5,0.1-0.6,0.3
		c0.2,0,0.2-0.1,0.3-0.1s0.2,0,0.4,0c0.2,0,0.3,0,0.5,0c0.2,0,0.3,0.1,0.5,0.1C33.5,12.1,33.4,12,33.3,11.9z M32.7,9.5
		c0-0.2-0.1-0.2-0.2-0.2c-0.1,0-0.2,0-0.3,0.1C32.1,9.4,32,9.5,32,9.6c0,0,0,0.1,0.1,0.1c0.2,0,0.2,0,0.3-0.1
		C32.5,9.6,32.6,9.6,32.7,9.5z M38.3,21.1c0.1-0.1,0.1-0.2,0.1-0.2c0-0.1,0-0.1,0.1-0.1h0.1c0-0.2-0.1-0.3-0.2-0.3
		c0,0.1-0.1,0.2-0.2,0.2c0,0,0,0.1,0,0.2S38.2,21,38.3,21.1z M42.9,36.4c0.2,0,0.3-0.1,0.5,0c0.2,0,0.2-0.1,0.2-0.2
		c-0.2-0.1-0.2-0.1-0.2-0.1C43.1,36.1,43,36.3,42.9,36.4z"/>
	<path class="st1" d="M85.5,10.4c0-0.5-0.1-0.8-0.3-1.2c-0.2-0.4-0.3-0.8-0.3-1.4c0-0.4,0.1-0.7,0.2-1.1c0.2,0,0.2,0.1,0.2,0.2
		c0,0.1,0.1,0.2,0.2,0.2c1.2-0.2,2.5-0.3,4-0.3c1.5,0,2.9-0.1,4.3-0.2c0.2,0,0.5-0.1,0.7-0.1s0.5,0,0.6,0c0.6,0,1.2,0.1,1.8,0.3
		C97.4,6.9,98.1,7,98.8,7c0.5,0,0.9-0.2,1.4-0.4c0.5-0.2,1-0.4,1.5-0.4s1,0.1,1.4,0.3c0.5,0.2,0.8,0.3,1.3,0.3c0.1,0,0.2,0,0.2,0
		c0.1,0,0.2,0,0.2,0c0.4,0.2,0.6,0.5,0.8,0.9c0.2,0.4,0.3,0.8,0.3,1.2c0.1,0.5,0.1,0.9,0.2,1.4c0,0.5,0.1,1,0.2,1.5
		C106,12,106,12,106,12.2s0,0.3,0.1,0.5s0.1,0.4,0.1,0.6c-0.5,0.2-0.9,0.3-1.5,0.3c-0.5,0.1-1,0.1-1.5,0.1h-1.5c-0.2,0-0.5,0-0.8,0
		s-0.7,0-1.1,0.1c-0.4,0.1-0.7,0.2-1,0.4c-0.3,0.2-0.5,0.5-0.5,0.9c0,0.2,0,0.5,0,0.8c0,0.4,0,0.7,0.1,1.2c0,0.4,0.1,0.8,0.1,1.2
		s0.1,0.7,0.1,1h-0.2c0.1,0.5,0.2,1.1,0.2,1.9s0.1,1.6,0.1,2.5c0,0.5-0.1,1-0.2,1.5c-0.2,0.5-0.2,1.1-0.2,1.6c0,0.2,0,0.5,0.1,0.6
		c0,0.2,0.1,0.4,0.1,0.6v0.2c-0.3,0.9-0.4,1.9-0.3,2.9c0.1,1,0,1.9-0.2,2.9c0,0.2-0.1,0.5-0.2,0.7c-0.1,0.2-0.2,0.5-0.2,0.8
		c0,0.2,0,0.4,0,0.5c0,0.2,0,0.3,0,0.5c0,0.7-0.2,1.2-0.4,1.4c-0.2,0.2-0.5,0.4-0.9,0.4c-0.3,0-0.5,0-0.8-0.1
		C95.2,38,94.9,38,94.5,38c-0.5,0-0.8,0.1-0.9,0.2c-0.2-0.1-0.3-0.2-0.5-0.2c-0.3,0-0.6,0.1-0.9,0.2c-0.4,0.1-0.7,0.2-1.1,0.2
		c-0.5,0-0.8-0.2-0.8-0.5c0.3-0.2,0.6-0.2,1.1-0.2s0.8-0.1,1.1-0.2c-0.3-0.2-0.5-0.2-0.8-0.2s-0.5,0-0.8-0.1
		c-0.2-0.1-0.4-0.2-0.5-0.4c-0.2-0.2-0.2-0.5-0.2-1c0-0.3,0-0.5,0.1-0.6l0.1,0.1c0,0,0,0.1,0.1,0.1c0-0.1,0-0.2,0-0.2
		c0-0.1,0-0.2,0-0.2c0-0.2-0.1-0.2-0.2-0.3c0.2-0.3,0.3-0.7,0.3-1.2s0-0.8,0-1.3v-2.6c0-1.7,0.2-3.5,0.4-5.6
		c0.2-2.1,0.4-4.2,0.4-6.2c0-0.1,0-0.2,0-0.3s0-0.2-0.1-0.2c0,0-0.1,0-0.1,0.1l0.4-4c0,0-0.2,0.1-0.5,0.1c-0.2,0-0.5,0.1-0.8,0.1
		c-0.3,0.1-0.5,0.1-0.8,0.2c-0.2,0.1-0.3,0.2-0.3,0.2c-0.2-0.2-0.4-0.4-0.6-0.5c-0.2-0.1-0.5-0.1-0.9-0.1c-0.2,0-0.3,0-0.5,0
		s-0.4,0-0.5,0s-0.3,0-0.4,0c-0.2,0-0.2,0-0.4-0.1l0.1-0.1c0-0.1-0.1-0.1-0.3-0.1c0-0.3-0.1-0.6-0.1-0.9c0-0.3-0.1-0.5-0.1-0.8
		s0-0.4,0.1-0.5c0,0-0.1-0.1-0.1-0.2L85.5,10.4C85.4,10.3,85.5,10.3,85.5,10.4L85.5,10.4z M91.5,36c0,0.2,0,0.2,0,0.3
		c0,0.1,0,0.2,0,0.2s0.1,0.2,0.2,0.2c0-0.1-0.1-0.2-0.1-0.3V36c0-0.2-0.1-0.2-0.2-0.2V36z M96.9,35.2c0,0.2,0.1,0.3,0.1,0.5
		c0,0.5-0.1,0.8-0.2,1.1c-0.1,0.3-0.2,0.5-0.2,0.8c0.2-0.1,0.4-0.2,0.5-0.2c0.1-0.1,0.2-0.2,0.2-0.3c0-0.2,0.1-0.2,0.1-0.4
		c0-0.2,0.1-0.3,0.1-0.5l-0.1,0.1c-0.1,0-0.2-0.1-0.2-0.2c-0.1-0.1-0.1-0.2-0.1-0.3c0-0.2,0.1-0.2,0.2-0.2h0.1
		c0-0.2-0.1-0.2-0.1-0.3C97,35.3,96.9,35.2,96.9,35.2z M104.5,12.7c-0.3,0-0.5,0-0.8,0.1s-0.5,0.2-0.7,0.4c0.1,0,0.1,0,0.2,0
		c0,0,0.1,0,0.2,0c0.3,0,0.5-0.1,0.7-0.2C104.1,13,104.3,12.8,104.5,12.7z M105.3,12.4c0,0.2,0,0.2-0.1,0.3s-0.1,0.2-0.1,0.2
		s0,0.2,0.1,0.2c0.2,0,0.3-0.1,0.4-0.1c0.1-0.1,0.2-0.2,0.3-0.2c-0.1,0-0.2,0-0.2-0.1s0.1-0.2,0.2-0.3L105.3,12.4L105.3,12.4z"/>
	<path class="st1" d="M121.9,7.9c0.2-0.5,0.6-0.8,1.1-0.9c0.5-0.2,1-0.2,1.6-0.2s1.2,0.1,1.9,0.2c0.6,0.1,1.3,0.2,1.9,0.2
		c0.2,0.2,0.3,0.5,0.3,0.8s-0.1,0.6-0.2,0.9c-0.2,0.3-0.2,0.6-0.3,0.8c-0.1,0.5-0.1,0.9-0.1,1.4c0,0.5,0,1,0,1.5
		c0,1.4-0.1,2.9-0.1,4.5s0,3.2,0,4.8c0,0.9,0,1.8,0.1,2.5c0.1,0.8,0.1,1.6,0.1,2.4c0,0.7-0.1,1.4-0.2,2c-0.1,0.7-0.2,1.3-0.2,1.9
		c0,0.3,0.1,0.5,0.2,0.8c0.1,0.2,0.2,0.4,0.2,0.7c0,0.2,0,0.2-0.1,0.4c-0.1,0.2-0.1,0.2-0.1,0.3c0,0.2,0,0.3,0.1,0.5
		c0.1,0.2,0.1,0.3,0.1,0.5c0,0.2-0.1,0.3-0.2,0.5c0.1,0.2,0.1,0.2,0.1,0.5c0,0.2,0.1,0.3,0.1,0.5c-0.3,0.2-0.6,0.5-0.8,0.8
		c-0.2,0.3-0.5,0.6-0.7,0.9c-0.6,0.1-1.2,0.2-1.6,0.2c-0.5,0.1-1,0.1-1.5,0.1c-0.3,0-0.5,0-0.8-0.1c-0.3-0.1-0.6-0.1-0.9-0.2
		c0-0.4-0.1-0.7-0.2-1.1c-0.1-0.4-0.2-0.7-0.5-0.9c0-1.3,0-2.6-0.1-3.9c-0.1-1.3-0.1-2.6-0.1-3.8c0-0.6,0-1.2,0.1-1.7
		c0-0.5,0.1-1.1,0.2-1.5c-0.8,0.2-1.8,0.3-2.8,0.4c-1,0.1-1.8,0.2-2.5,0.5c0,0.3-0.1,0.5-0.1,0.8c-0.1,0.2-0.1,0.5-0.1,0.8
		s0.1,0.4,0.2,0.6c-0.2,0.3-0.2,0.7-0.2,1c0,0.3-0.1,0.7-0.1,1c0,0.8,0.1,1.6,0.2,2.5c0.2,0.8,0.2,1.7,0.2,2.5c0,0.5-0.1,1-0.1,1.5
		c-0.1,0.5-0.2,1-0.5,1.5c-0.4,0.2-0.8,0.2-1.3,0.2c-0.5,0-1,0-1.5-0.1c-0.5-0.1-1-0.1-1.5-0.1c-0.3,0-0.7,0-1,0.1
		c-0.3,0.1-0.7,0.2-1,0.4c0-0.2,0.1-0.5,0.1-0.7c0-0.2,0-0.5,0-0.7c0-0.5,0-1,0-1.5s0-1.1,0-1.5c0-0.5,0-0.9-0.1-1.3
		c0-0.4-0.1-0.7-0.2-0.8c0-0.2,0.1-0.2,0.1-0.3c0.1-0.1,0.1-0.2,0.1-0.5c0-0.1,0-0.1-0.1-0.2c0,0-0.1-0.1-0.1-0.2
		c0.2-1.6,0.3-3.2,0.5-5c0.2-1.8,0.2-3.6,0.2-5.5c0-1.2-0.1-2.3-0.2-3.5c-0.2-1.2-0.2-2.4-0.2-3.6v-0.4c0-0.2-0.1-0.4-0.2-0.6
		c-0.2-0.2-0.2-0.4-0.2-0.5c0-0.2,0-0.5,0.1-0.7s0.1-0.4,0.1-0.5c0-0.2-0.1-0.4-0.2-0.5c0,0,0.1-0.1,0.2-0.3s0.2-0.5,0.4-0.7
		c0.2-0.2,0.4-0.5,0.6-0.7c0.2-0.2,0.5-0.3,0.9-0.3c0.3,0,0.8,0.1,1.3,0.2c0.5,0.2,1.2,0.2,1.8,0.2c0.2,0,0.4,0,0.6,0
		c0.2,0,0.4,0,0.5-0.1c0.4,0.5,0.7,1.2,0.8,1.9c0.2,0.8,0.2,1.6,0.2,2.5c0,0.9-0.1,1.9-0.2,2.9c-0.1,0.9-0.2,1.9-0.2,2.6
		c0,0.2,0,0.5,0,0.6c0,0.2,0,0.4,0.1,0.5c0.8-0.1,1.8-0.2,2.8-0.2s1.9-0.2,2.6-0.5c0-0.9,0.1-2,0.2-3.2c0.1-1.2,0.1-2.3,0.2-3.3
		c0-0.3,0-0.5,0-0.8s0-0.5,0-0.8c0-0.2,0-0.5,0.1-0.7C121.6,8.3,121.7,8.1,121.9,7.9z M109.7,36.4c0.1,0,0.2,0.1,0.4,0.1
		s0.2-0.1,0.3-0.3c-0.2,0-0.3,0.1-0.4,0.1C109.8,36.2,109.7,36.3,109.7,36.4z M111.5,8.8c0.1,0,0.2,0,0.2,0s0.2,0,0.2,0
		c0.3,0,0.5-0.2,0.5-0.5C111.9,8.4,111.6,8.5,111.5,8.8z M111.8,31.9c0.2,0,0.2-0.2,0.2-0.4c0-0.3-0.1-0.5-0.3-0.5
		c0,0.1,0.1,0.2,0.1,0.3v0.3L111.8,31.9L111.8,31.9z M114.7,36.8c0.1-0.1,0.2-0.2,0.2-0.5c0.1-0.2,0.1-0.4,0.1-0.5
		c0-0.2-0.1-0.4-0.2-0.4v0.3c0,0.3-0.1,0.6-0.2,0.7c-0.2,0.2-0.4,0.3-0.6,0.4c0.2-0.1,0.2-0.1,0.3-0.1c0.1,0,0.2,0,0.2,0
		C114.4,36.8,114.5,36.8,114.7,36.8z M115.9,19.1c0.5,0,0.9-0.1,1.2-0.1s0.7-0.2,1-0.4c-0.2,0-0.5,0-0.7,0c-0.2,0-0.4,0-0.6,0
		C116.5,18.8,116.1,18.8,115.9,19.1z M117.4,21.2c0.1,0,0.1,0,0.2,0h0.1c0.1,0,0.1-0.1,0.1-0.2C117.4,21,117.3,21.1,117.4,21.2
		L117.4,21.2L117.4,21.2z M118.5,23.6c0.1,0.1,0.2,0.1,0.4,0.1c0.3,0,0.5-0.1,0.6-0.2c-0.1,0-0.2,0-0.2,0c-0.1,0-0.2,0-0.2,0
		s-0.1,0-0.1,0.1c0,0,0,0.1,0.1,0.2c-0.1,0-0.2,0-0.2,0s-0.2,0-0.2,0C118.6,23.6,118.5,23.6,118.5,23.6z M119.8,20.4
		c0.2,0.1,0.2,0.1,0.4,0.1s0.2,0,0.3-0.1c0.1-0.1,0.2-0.1,0.2-0.2l-0.1-0.1c-0.1,0.1-0.2,0.2-0.3,0.2h-0.3
		C119.9,20.3,119.8,20.3,119.8,20.4z M121.2,27.6c0.1-0.1,0.1-0.2,0.1-0.5c0-0.4,0-0.6-0.1-0.6c0,0-0.1,0.1-0.1,0.3
		c-0.1,0.2-0.1,0.4-0.1,0.4C120.9,27.3,121,27.5,121.2,27.6z M122.7,35.5c0-0.2-0.1-0.3-0.2-0.5c-0.1-0.2-0.2-0.2-0.2-0.2
		c-0.2,0-0.2,0-0.3,0.1c0,0.2,0,0.2,0.1,0.2c0.1,0.1,0.1,0.1,0.1,0.2v0.1c0.1,0,0.2,0.1,0.2,0.1c0.1,0,0.1,0,0.2,0
		C122.5,35.6,122.6,35.5,122.7,35.5z M124.2,36.7c0.2-0.1,0.5-0.1,0.8-0.2c0.2-0.1,0.5-0.2,0.6-0.2c-0.2,0.1-0.5,0.1-0.8,0.2
		C124.6,36.4,124.4,36.5,124.2,36.7z"/>
	<path class="st1" d="M135.5,6.9c0.2,0.1,0.4,0.1,0.6,0.2c0.2,0,0.5,0.1,0.7,0.1c1.7,0,3.2-0.1,4.3-0.2c1.2-0.2,2.2-0.2,3.2-0.2
		c0.7,0,1.3,0.1,1.9,0.2c0.5,0.2,1.1,0.2,1.6,0.2c0.1,0,0.2,0,0.3,0c0.1,0,0.2,0,0.3-0.1c0.2,0.3,0.5,0.5,0.7,0.7
		C149.4,8,149.6,8,150,8c0,0.5,0,1,0,1.5s0,0.9,0,1.4c0,0.6-0.1,1.2-0.2,1.7c-0.1,0.5-0.3,1-0.6,1.5c-0.7,0.3-1.4,0.5-2.2,0.5
		c-0.8,0-1.8-0.2-2.7-0.4c-0.9-0.2-1.8-0.4-2.7-0.4c-0.6,0-1.1,0.1-1.6,0.3c-0.1,0.3-0.2,0.6-0.2,0.9s-0.1,0.7-0.1,1.2
		c-0.1,0.2-0.2,0.5-0.2,0.8c-0.1,0.3-0.1,0.6-0.1,0.8c0,0.2,0.1,0.3,0.1,0.3c0.1,0.1,0.2,0.1,0.3,0.1c0.7,0,1.4-0.1,2.2-0.3
		c0.7-0.2,1.4-0.3,1.9-0.3c0.6,0,1.2,0.1,1.6,0.2c0.5,0.1,0.9,0.3,1.4,0.5c0.1,0.4,0.2,0.8,0.2,1.2c0.1,0.5,0.1,0.8,0.1,1.3
		c0,0.8-0.2,1.7-0.5,2.5c-0.3,0.8-0.8,1.2-1.6,1.5h-0.1c-0.1,0-0.2,0-0.2,0c-0.1,0-0.2,0-0.2,0c-0.2,0-0.2-0.1-0.2-0.2
		c-0.4,0.2-0.8,0.4-1.2,0.4c-0.5,0.1-0.8,0.1-1.3,0.1c-0.3,0-0.6,0-0.9,0s-0.5,0-0.8,0c-0.2,0-0.3,0-0.5,0c-0.2,0-0.3,0.1-0.5,0.1
		c-0.2,0.6-0.3,1.3-0.4,2.1c-0.1,0.8-0.2,1.5-0.3,2.2c0.2,0.2,0.3,0.3,0.5,0.4c0.2,0.1,0.4,0.2,0.5,0.5c0.5-0.1,1.2-0.1,1.8-0.2
		c0.7,0,1.4-0.1,2.2-0.1c0.5,0,1.1,0,1.7-0.1c0.6,0,1.2,0,1.8,0.2c0.5,0.2,1,0.4,1.4,0.8c0.4,0.4,0.5,1,0.5,1.8c0,0.4-0.1,0.7-0.2,1
		c0.2,0.4,0.2,0.8,0.2,1.3c0,0.5-0.1,0.9-0.2,1.3c-0.1,0.5-0.2,0.8-0.5,1c-0.6,0.1-1.2,0.1-1.8,0.2c-0.6,0.1-1.2,0.1-1.8,0.1
		c-1.6,0-3.2-0.1-4.9-0.2c-1.6-0.2-3.2-0.2-4.8-0.2c-0.5,0-1.1,0-1.6,0.1c-0.5,0-1.1,0.1-1.5,0.2c-0.1-0.1-0.1-0.2-0.2-0.3
		c0-0.2-0.1-0.2-0.1-0.3c-0.1-0.1-0.1-0.2-0.2-0.3c-0.1-0.1-0.2-0.2-0.3-0.2c0.2-0.1,0.2-0.2,0.3-0.4c0.1-0.2,0.2-0.3,0.3-0.3
		l0.1,0.1c0-0.2,0.1-0.4,0.1-0.6c0-0.2,0-0.4,0-0.6c0-0.5,0-0.9-0.1-1.4c-0.1-0.5-0.1-1-0.1-1.5c0-0.6,0-1.5,0.1-2.5
		c0.1-1,0.1-2,0.1-3.1c0-1.1,0.1-2.1,0.1-3.1s0.1-1.9,0.1-2.5c0-0.5,0-1.1,0-1.6c0-0.5-0.1-1.2-0.2-1.8c0.1-0.5,0.2-1.1,0.2-1.6
		c0-0.8-0.1-1.6-0.2-2.4c-0.1-0.8-0.2-1.6-0.2-2.4c0-1.2,0.1-2,0.3-2.5c0.2-0.5,0.5-0.8,0.8-0.9c0.4-0.2,0.8-0.2,1.2-0.2
		C134.5,7.2,135,7,135.5,6.9z M132.3,35.5c0-0.1,0-0.2,0.1-0.2c0-0.1,0.1-0.2,0.1-0.2c0-0.1-0.1-0.2-0.2-0.2
		c-0.1,0.1-0.1,0.2-0.1,0.3C132.3,35.4,132.3,35.5,132.3,35.5L132.3,35.5L132.3,35.5L132.3,35.5z M132.6,36.3
		C132.6,36.3,132.6,36.3,132.6,36.3c0.2,0.1,0.2,0.1,0.2,0c0.1-0.1,0.2-0.2,0.2-0.2c-0.2,0-0.2,0-0.3,0
		C132.6,36,132.6,36.1,132.6,36.3z M133.3,8.2c0-0.2,0.1-0.2,0.2-0.3c0.1-0.1,0.2-0.2,0.2-0.2h-0.2c-0.2,0-0.3,0.1-0.5,0.3h0.1
		c0.1,0,0.2,0,0.2,0.1C133.1,8.1,133.2,8.1,133.3,8.2z M134,32.4c0.2-0.4,0.2-0.8,0.4-1.1c0.2-0.3,0.2-0.6,0.2-1.1
		c0-0.2-0.1-0.5-0.2-0.8c0.1-0.1,0.2-0.2,0.2-0.4c0.1-0.2,0.1-0.4,0.1-0.5c0-0.2-0.1-0.4-0.2-0.5V28c0,0,0,0.1-0.1,0.1
		c-0.1,0-0.1,0-0.2-0.1c0,0.6-0.1,1.3-0.2,2c-0.2,0.8-0.2,1.4-0.2,2L134,32.4L134,32.4z M140.7,20h-0.5c-0.4,0-0.6,0.1-0.7,0.3
		c0.1,0,0.2,0.1,0.5,0.1c0.2,0,0.4,0,0.5-0.1c0.2-0.1,0.3-0.2,0.5-0.2L140.7,20L140.7,20z M141.3,32.9c-0.2,0-0.5,0.1-0.7,0.1
		s-0.4,0.2-0.5,0.3h0.1h0.1c0.2,0,0.4-0.1,0.6-0.1C141.1,33.1,141.2,33,141.3,32.9z M142,9.5c-0.2-0.1-0.3-0.1-0.5-0.1
		c-0.2,0-0.3,0-0.5,0.1c-0.2,0-0.4,0.1-0.6,0.1c0,0.2,0.2,0.3,0.5,0.3c0.2,0,0.4,0,0.6-0.1C141.7,9.7,141.9,9.6,142,9.5z
		 M143.1,34.2c-0.1-0.2-0.2-0.2-0.5-0.2c-0.2,0-0.4,0.1-0.6,0.1c-0.2,0.1-0.4,0.2-0.5,0.2c0.2,0.1,0.3,0.1,0.4,0.1
		c0.2,0,0.4,0,0.5-0.1C142.6,34.2,142.8,34.2,143.1,34.2z M143,23.8c-0.2,0-0.4,0.1-0.5,0.1c-0.1,0-0.2,0.1-0.3,0.1S142.1,24,142,24
		c-0.1,0.1-0.2,0.1-0.3,0.2c0.4,0,0.6,0,0.8-0.1C142.7,24.2,142.8,24,143,23.8z M144.3,7.8c-0.1-0.2-0.2-0.2-0.5-0.2
		c-0.2,0-0.3,0-0.4,0.1c-0.2,0.1-0.2,0.2-0.2,0.3c0.2,0,0.3,0,0.5-0.1c0.2-0.1,0.3-0.1,0.5-0.1H144.3z M143.9,22.2
		c0,0-0.1-0.1-0.2-0.1c-0.3,0-0.5,0.2-0.5,0.4C143.5,22.6,143.8,22.5,143.9,22.2z M144.2,31.3c-0.2,0-0.3,0.1-0.5,0.1
		s-0.2,0.1-0.2,0.1s0.1,0.1,0.2,0.1s0.2,0,0.3-0.1C144.1,31.4,144.2,31.3,144.2,31.3z M145.2,12.9c-0.2,0-0.2,0.1-0.4,0.1
		s-0.2,0.1-0.2,0.2c0.1,0,0.2,0,0.3-0.1C145.1,13,145.2,13,145.2,12.9L145.2,12.9z M145.4,22.1c-0.3,0-0.5,0.2-0.5,0.4l0.1,0.1
		c0.3,0,0.5-0.2,0.5-0.5H145.4z M145.8,24c0-0.2,0.1-0.3,0.2-0.4c0.1-0.1,0.2-0.2,0.2-0.3v-0.1v-0.1c-0.2,0-0.3,0.1-0.4,0.1
		c-0.1,0.1-0.2,0.2-0.3,0.2c0.1,0.1,0.2,0.2,0.2,0.2C145.6,23.9,145.7,23.9,145.8,24z M147,13.8c-0.1,0-0.2,0-0.2-0.1
		c-0.1,0-0.2-0.1-0.2-0.1c-0.2,0-0.2,0.1-0.2,0.2c0.2,0,0.2,0,0.2,0.1c0.1,0,0.1,0.1,0.2,0.1C146.8,14,146.9,13.9,147,13.8z
		 M148.3,34.2c-0.1,0.2-0.1,0.3-0.1,0.3v0.1v0.1c0,0.1,0,0.1,0,0.1v0.1c0.3,0,0.5-0.1,0.5-0.2l-0.2-0.1v0.1l-0.1,0.1
		c-0.1-0.1-0.1-0.2-0.1-0.2c0-0.1,0-0.1,0-0.1v-0.1C148.4,34.4,148.4,34.3,148.3,34.2z"/>
	<path class="st1" d="M171.4,31c0.2,0.4,0.4,0.8,0.7,1.2c0.3,0.5,0.5,0.8,0.7,1.3c0.2,0.5,0.4,1,0.5,1.5c0.2,0.5,0.2,1.1,0.2,1.6
		c0,0.2,0,0.2,0,0.3c0,0.1,0,0.2,0,0.3h-0.1c-0.2,0-0.2,0.1-0.2,0.2c-0.6-0.3-1.3-0.5-2.2-0.5c-0.7,0-1.5,0.1-2.2,0.3
		c-0.8,0.2-1.5,0.4-2.2,0.5v-0.1c0-0.3,0.2-0.5,0.4-0.5c0.3,0,0.5-0.2,0.5-0.3c-0.2-0.5-0.4-1.1-0.7-1.5c-0.3-0.5-0.5-0.9-0.8-1.2
		l-0.1,0.1c-0.1,0-0.1,0-0.2,0H166c0,0-0.1,0.1-0.1,0.2c-0.7-1.9-1.3-3.6-1.9-5.1c-0.5-1.5-1.1-3.1-1.5-4.8
		c-0.2,0.1-0.3,0.1-0.4,0.1c-0.3,0-0.5-0.1-0.8-0.2c-0.2-0.1-0.5-0.2-0.8-0.2c-0.2,0-0.5,0.1-0.6,0.2c0,0.2-0.1,0.5-0.1,1.2
		c0,0.6,0,1.3-0.1,2.1c0,0.7-0.1,1.4-0.1,1.9c-0.1,0.6-0.1,0.8-0.2,0.8c-0.1,0-0.1-0.1-0.1-0.2s0-0.2,0-0.3c0-0.3,0-0.5,0.1-0.5
		c-0.2,0.2-0.4,0.3-0.4,0.6v0.5c0,0.2-0.1,0.4-0.2,0.6c0.1,0,0.2,0.1,0.2,0.3V32c0,0.3,0.1,0.5,0.2,0.5c-0.2,0.2-0.2,0.5-0.2,0.7
		c0,0.3,0.1,0.5,0.3,0.7c0.1,0,0.1-0.1,0.1-0.2s0-0.2-0.1-0.2c0.3,0,0.5,0.2,0.5,0.5c0,0.2,0,0.4-0.1,0.6c-0.1,0.2-0.1,0.5-0.1,0.7
		c0,0.2,0,0.5,0.1,0.6c0,0.2,0.1,0.5,0.1,0.6c0,0.6-0.3,0.9-0.8,0.9c-0.3,0-0.7-0.1-1-0.2c-0.3-0.2-0.7-0.2-1-0.2
		c-0.2,0-0.4,0.1-0.5,0.1c-0.2,0.1-0.3,0.2-0.5,0.2c-0.2,0.1-0.4,0.2-0.5,0.2c-0.2,0.1-0.5,0.1-0.8,0.1c-0.3,0-0.7,0-1-0.1
		c-0.3,0-0.6-0.1-0.9-0.2c0-0.3,0-0.6,0-0.8c0-0.2,0-0.5,0-1c0.3,0.2,0.5,0.5,0.6,0.7c0.2-0.1,0.2-0.2,0.4-0.2
		c0.2-0.1,0.2-0.2,0.2-0.5c0-0.2-0.1-0.2-0.2-0.2c-0.2,0-0.2-0.1-0.2-0.1c0-0.1,0-0.2,0.1-0.2c0.1,0,0.1-0.1,0.1-0.2
		c-0.1-0.1-0.1-0.1-0.2-0.1c-0.1,0-0.1-0.1-0.1-0.2l-0.1,0.1c0,0.1,0,0.1,0.1,0.2c0.1,0,0.1,0.1,0.1,0.2v0.1
		c-0.2-0.2-0.3-0.4-0.3-0.6c0-0.2,0-0.5-0.2-0.6c-0.1,0.1-0.1,0.2-0.1,0.5v0.6v0.2c-0.3-0.3-0.5-0.7-0.5-1.3c0-0.5,0.1-1,0.2-1.5
		c0.2-0.5,0.2-1.2,0.2-1.7s-0.1-1.2-0.1-1.9c-0.1-0.7-0.2-1.3-0.3-1.8c0-0.1,0.1-0.2,0.1-0.2c0.1-0.1,0.1-0.2,0.1-0.3
		c0-0.1-0.1-0.2-0.2-0.2c0-0.2,0.1-0.2,0.2-0.2h0.2c0-0.2,0-0.2-0.1-0.2c-0.1,0-0.2,0-0.2-0.1c0-0.2,0-0.2,0-0.4c0-0.2,0-0.2,0-0.4
		c0-0.5,0-1-0.1-1.5c-0.1-0.5-0.1-1-0.1-1.5c0-0.6,0-1.2,0.1-1.8c0.1-0.6,0.2-1.2,0.4-1.5c0,0.2,0.1,0.5,0.1,0.8c0,0.2,0,0.5,0,0.8
		v1.9V23c0.2-0.6,0.3-1.4,0.3-2.2c0-0.8,0-1.7,0.2-2.5c-0.2,0-0.3-0.2-0.3-0.6c0-0.2,0-0.2,0.1-0.3c-0.2,0-0.2,0.1-0.2,0.2
		c0,0.2,0,0.3,0,0.5c0,0.2,0,0.3-0.1,0.5c-0.1,0.2-0.2,0.3-0.2,0.4c0-0.3,0.1-0.8,0.1-1.5s0-1.3,0.1-2c0-0.6,0.1-1.2,0.2-1.8
		c0.1-0.5,0.2-0.8,0.3-0.8h0.1c0-0.1-0.1-0.2-0.1-0.4s0-0.2,0.1-0.3c-0.2-0.3-0.2-0.5-0.3-0.8s-0.1-0.5-0.1-0.8
		c0-0.6,0.1-1.2,0.3-1.8c0.2-0.5,0.4-1.1,0.5-1.5c-0.2,0-0.3,0.1-0.3,0.2s-0.2,0.2-0.3,0.2c0.2-0.6,0.5-1.1,1.1-1.5
		c0.6-0.4,1.2-0.6,1.7-0.6s1.1,0.1,1.6,0.2c0.5,0.2,1.2,0.2,1.7,0.2c1.3,0,2.5-0.1,3.9-0.1c1.3-0.1,2.5-0.1,3.6-0.1c0.3,0,0.7,0,1,0
		c0.3,0,0.6,0,0.9,0c0.5,0.7,1,1.4,1.5,2c0.6,0.6,1.2,1.2,1.7,1.6c0,0.1,0,0.1-0.1,0.1l-0.1-0.1c0-0.2,0-0.2,0.1,0.1
		c0.1,0.2,0.2,0.4,0.3,0.7s0.2,0.6,0.5,0.9c0.2,0.3,0.3,0.5,0.5,0.6c0,0.7,0,1.4,0.1,1.9s0.2,1.2,0.3,2c-0.1,0.1-0.2,0.2-0.2,0.5
		c0,0.2,0,0.3,0.1,0.5c0,0.2,0.1,0.2,0.1,0.3c0,0,0,0.1-0.1,0.1v0.1V17c0,0.1-0.1,0.2-0.2,0.3c-0.1,0.1-0.2,0.2-0.4,0.2
		c0,0.2,0.1,0.3,0.1,0.5v0.4c0,0.2,0,0.3,0.1,0.5c0.1,0.2,0.2,0.3,0.3,0.5c-0.5,0.7-1.1,1.3-1.8,1.9s-1.2,1.1-1.8,1.8
		c0,0.4,0.1,0.8,0.2,1.1c0.2,0.3,0.2,0.7,0.4,1s0.2,0.7,0.4,1c0.1,0.4,0.2,0.7,0.2,1.2c0,0,0,0.1,0.1,0.1c0.1,0,0.2-0.1,0.2-0.2
		c0,0.6,0.2,1.2,0.4,1.8C171.3,29.6,171.4,30.3,171.4,31z M154.5,8c0.1-0.1,0.1-0.2,0.1-0.4c0-0.2,0-0.2-0.1-0.2
		c-0.1,0.1-0.1,0.2-0.1,0.4C154.4,7.9,154.4,8,154.5,8z M155.7,36.4c0.2-0.2,0.2-0.5,0.2-0.8c0-0.3-0.1-0.5-0.2-0.7
		c0,0.2-0.1,0.3-0.2,0.3c-0.1,0-0.2,0.1-0.2,0.1s0,0.1,0.1,0.1c0,0,0.1,0,0.1,0.1c0,0.1,0,0.1-0.1,0.1c-0.1,0-0.1,0-0.1,0.1
		c0,0,0.1,0.1,0.2,0.1c-0.1,0.1-0.1,0.2-0.1,0.2c0,0.1-0.1,0.2-0.1,0.2s-0.1,0-0.2-0.1C155.3,36.3,155.5,36.4,155.7,36.4z
		 M158.3,36.8c0-0.2,0.1-0.3,0.1-0.5c0.1-0.2,0.1-0.3,0.1-0.5c0-0.3-0.2-0.5-0.5-0.6c-0.1,0.2-0.1,0.4-0.1,0.5c0,0.2,0,0.3,0.1,0.4
		c0.1,0.1,0.1,0.2,0.1,0.4v0.2C158.2,36.7,158.3,36.7,158.3,36.8z M159.2,35.7c0,0.2,0,0.2,0.1,0.2c0.1,0.1,0.1,0.2,0.1,0.3
		c0,0,0.1-0.1,0.2-0.1V36V36c0,0,0,0,0-0.1l-0.1-0.1l-0.1,0.1V36v-0.1v-0.1C159.4,35.7,159.3,35.7,159.2,35.7H159l0,0H159.2z
		 M162.7,7.1h-0.9c-0.4,0-0.8,0-1.2,0.1c-0.4,0.1-0.7,0.2-0.9,0.5c0.2,0,0.5,0,0.8,0s0.6,0,0.9,0c0.4,0,0.7,0,1-0.1
		c0.3-0.1,0.5-0.2,0.7-0.5H162.7z M164.3,18.6c0.4-0.3,0.8-0.8,1.2-1.4c0.4-0.6,0.6-1.2,0.6-1.8c0-0.3-0.1-0.6-0.3-0.9
		c-0.2-0.3-0.5-0.5-0.9-0.6c-0.2-0.4-0.5-0.7-0.8-0.8c-0.4-0.1-0.8-0.2-1.4-0.2c-0.5,0-0.9,0.1-1.4,0.2c-0.5,0.1-0.8,0.2-1.2,0.3
		c-0.2,0.5-0.2,1.1-0.3,1.6c0,0.5-0.1,1.1-0.1,1.6c0,0.4,0,0.8,0,1.2c0,0.4,0,0.7,0.1,1.1c0.3,0,0.6,0.1,0.9,0.1c0.3,0,0.6,0,0.8,0
		c0.4,0,0.8,0,1.2-0.1C163.3,18.8,163.8,18.8,164.3,18.6z M160.6,9.4c-0.3,0-0.5,0.2-0.5,0.4C160.3,9.8,160.5,9.7,160.6,9.4z
		 M160.4,21.3c0.3-0.1,0.8-0.1,1.2-0.2c0.5-0.1,0.8-0.2,1.2-0.5c-0.4,0.2-0.8,0.2-1.3,0.2C160.9,20.9,160.6,21.1,160.4,21.3z
		 M162.3,11.9c-0.2,0.1-0.5,0.2-0.8,0.1c-0.3,0-0.5,0.1-0.6,0.3c0.2,0,0.2-0.1,0.3-0.1c0.1,0,0.2,0,0.4,0c0.2,0,0.3,0,0.5,0
		s0.3,0.1,0.5,0.1C162.5,12.1,162.4,12,162.3,11.9z M161.7,9.5c0-0.2-0.1-0.2-0.2-0.2c-0.1,0-0.2,0-0.3,0.1
		c-0.1,0.1-0.2,0.2-0.2,0.2c0,0,0,0.1,0.1,0.1c0.2,0,0.2,0,0.3-0.1C161.6,9.6,161.6,9.6,161.7,9.5z M167.4,21.1
		c0.1-0.1,0.1-0.2,0.1-0.2c0-0.1,0-0.1,0.1-0.1h0.1c0-0.2-0.1-0.3-0.2-0.3c0,0.1-0.1,0.2-0.2,0.2c-0.1,0.1-0.1,0.2-0.1,0.2
		S167.2,21,167.4,21.1z M171.9,36.4c0.2,0,0.3-0.1,0.5,0c0.2,0,0.2-0.1,0.2-0.2c-0.2-0.1-0.2-0.1-0.2-0.1
		C172.1,36.1,172,36.3,171.9,36.4z"/>
	<g>
		<path class="st1" d="M207.2,9c0.1,0.1,0.2,0.2,0.2,0.1c0.1,0,0.2,0,0.3,0.1c-0.2,0.3-0.4,0.5-0.6,0.6c-0.2,0.2-0.4,0.4-0.4,0.7
			c0,0.2,0,0.3,0.1,0.4c0.1,0.1,0.2,0.1,0.2,0.2c0.1,0,0.2,0.1,0.2,0.1c0.1,0,0.1,0.1,0.1,0.2c0,0.2-0.1,0.4-0.3,0.5
			c-0.2,0.2-0.5,0.2-0.6,0.3c0,0.4-0.1,0.6-0.2,0.7c-0.2,0.1-0.2,0.2-0.3,0.5c-0.2-0.1-0.5-0.2-0.7-0.3c-0.2-0.2-0.5-0.2-0.7-0.2
			c-0.3,0-0.5,0.1-0.7,0.3c0.1,0.2,0.2,0.2,0.4,0.2s0.2,0.1,0.2,0.3c0,0.1-0.2,0.1-0.5,0.2c-0.4,0.1-0.9,0.1-1.4,0.2
			c-0.5,0.1-1.2,0.1-1.9,0.2c-0.7,0.1-1.3,0.1-1.9,0.1s-1.1,0.1-1.5,0.1c-0.4,0-0.6,0.1-0.7,0.1c-0.4,1-0.6,2.1-0.8,3.2
			c-0.2,1.2-0.2,2.3-0.3,3.7c-0.1,1.2-0.2,2.5-0.2,3.9c0,1.3-0.1,2.7-0.2,4.1c0.4,0.2,0.9,0.2,1.2,0.3c0.5,0.1,0.9,0.1,1.5,0.1
			c0.8,0,1.6,0,2.5-0.1c0.8-0.1,1.8-0.1,2.6-0.1c0.5,0,0.9,0,1.3,0.1c0.5,0,0.8,0.1,1.3,0.2c0.2,0.5,0.2,0.9,0.2,1.4
			c0,0.3,0,0.6,0,0.9c0,0.4-0.2,0.5-0.4,0.5c-0.1,0-0.2,0-0.2-0.1c0,0.3,0,0.6-0.1,0.8c0,0.2-0.1,0.5-0.2,0.8h0.1
			c0.2,0,0.3-0.1,0.3-0.2c0.1-0.2,0.2-0.2,0.3-0.2c0.1,0,0.1,0.1,0.2,0.2c0.1,0.2,0.1,0.2,0.1,0.3c0,0.1-0.2,0.2-0.4,0.2
			c-0.2,0.1-0.4,0.2-0.5,0.2c0.2,0.1,0.4,0.2,0.6,0.2c0.2,0.1,0.3,0.2,0.3,0.2c0,0.1-0.1,0.1-0.2,0.2c0.1,0.2,0.1,0.3,0.1,0.6
			c0,0.4-0.2,0.6-0.7,0.6c-0.5,0-0.9,0-1.5,0.1c-0.4,0-0.9,0.1-1.4,0.2c-0.5,0.2-1.1,0.2-1.6,0.4c-0.5,0.2-1.2,0.2-1.8,0.4
			c-0.6,0.1-1.2,0.2-1.7,0.2c-0.2,0-0.5,0-0.8-0.1c-0.2,0-0.5-0.1-0.6-0.2c-0.2,0.1-0.3,0.1-0.5,0.2c-0.2,0-0.2,0.1-0.3,0.1
			c0,0-0.1,0-0.1-0.1c0-0.1,0.1-0.1,0.3-0.2c-0.5,0.1-1.1,0.2-1.6,0.2c-0.8,0-1.6-0.1-2.4-0.2c-0.8-0.1-1.5-0.2-2.2-0.3
			c0.1-0.2,0.2-0.2,0.4-0.2c0.2,0,0.3,0,0.5,0.1c0.2,0.1,0.3,0.1,0.5,0.1c0.2,0,0.4-0.2,0.5-0.4c-0.3-0.2-0.7-0.2-1-0.3
			c-0.3-0.1-0.5-0.2-0.5-0.5h-0.2c-0.1,0-0.2,0-0.2,0.1c-0.1,0-0.2,0.1-0.3,0.1c-0.1,0-0.2-0.2-0.2-0.4s0-0.5,0-0.5
			c0-0.4,0-0.8,0.1-1.3c0.1-0.5,0.1-0.8,0.1-1.1v-0.2c0-0.2,0-0.4,0.1-0.7c0-0.3,0.1-0.6,0.1-1s0.1-0.7,0.1-1.1
			c0-0.4,0.1-0.6,0.1-0.8c0-0.8-0.1-1.5-0.2-2.3c-0.1-0.8-0.5-1.9-0.5-2.5c0-0.1,0-0.2,0.1-0.3c0-0.2,0.1-0.2,0.1-0.3l-0.2-0.2
			c-0.1,0-0.1-0.1-0.2-0.1c0-0.3,0-0.5,0-0.8s0-0.5,0-0.8c0-0.4,0-0.8,0.1-1.5c0-0.6,0.2-1.1,0.3-1.5c-0.1-0.2-0.2-0.4-0.2-0.5
			s0-0.4,0.1-0.5c0.1-0.2,0.1-0.4,0.1-0.6c0-0.5-0.1-0.8-0.2-1.2c-0.2-0.4-0.2-0.7-0.2-1.2c0-0.7,0.2-1.4,0.4-2
			c0.2-0.6,0.4-1.3,0.4-2c0-0.5-0.1-0.8-0.2-1.2c0.1,0,0.1,0.1,0.1,0.1s0,0,0.1,0c0-0.1-0.1-0.2-0.1-0.2c0-0.2,0-0.3,0.1-0.5
			c0.1-0.2,0.1-0.4,0.2-0.5c0.3-0.1,0.5-0.2,0.7-0.3c0.2-0.2,0.5-0.3,0.7-0.4c0.2-0.2,0.5-0.2,0.7-0.4C191.3,7,191.6,7,192,7
			c0.2,0,0.5,0,0.7,0.1c0.2,0,0.5,0.1,0.7,0.1c1.1,0,2.2-0.1,3.3-0.2s2.2-0.2,3.4-0.2c0.4,0,0.8,0,1.5,0c0.6,0,1.3,0,2,0
			s1.2,0.1,1.8,0.2c0.5,0.1,0.7,0.2,0.7,0.3v0.1c0.2-0.1,0.2-0.2,0.4-0.2c0.2,0,0.3,0.1,0.4,0.2c0.1,0.1,0.1,0.2,0.1,0.5v0.5
			c0,0.1,0,0.2,0,0.3C207.1,8.9,207.1,9,207.2,9z M190.1,33.9c0-0.1,0.1-0.2,0.1-0.3c0-0.2-0.1-0.4-0.3-0.5v0.2
			C189.8,33.5,189.8,33.7,190.1,33.9z M189.9,34.6c0.2,0,0.2-0.1,0.2-0.3c0-0.2,0-0.2-0.1-0.2c-0.2,0.1-0.2,0.2-0.2,0.4V34.6
			L189.9,34.6z M190.9,30.2c0.2-0.4,0.2-0.8,0.2-1.1c0-0.2,0-0.4-0.1-0.5c-0.2,0.3-0.3,0.6-0.3,0.9
			C190.8,29.7,190.8,29.9,190.9,30.2z M191.4,19.6c0,0,0,0.2-0.1,0.3c0,0.2-0.1,0.2-0.1,0.3c0,0,0.1-0.1,0.1-0.2
			C191.4,19.8,191.4,19.6,191.4,19.6L191.4,19.6L191.4,19.6L191.4,19.6z M193.6,37.2c0.1,0,0.2,0,0.4,0.1c0.2,0,0.3,0.1,0.4,0.1
			c0.2,0,0.3-0.1,0.3-0.2v-0.1c0,0,0,0,0-0.1V37c-0.1,0-0.2,0-0.2,0.1c-0.1,0.1-0.1,0.2-0.2,0.2c-0.2-0.2-0.3-0.3-0.6-0.4
			c-0.3-0.1-0.6-0.1-0.9-0.1c-0.5,0-1,0.1-1.4,0.2c0.1,0.2,0.2,0.2,0.5,0.3c0.2,0.1,0.5,0.1,0.7,0.1L193.6,37.2L193.6,37.2
			L193.6,37.2z M193.1,34.9c-0.2-0.1-0.5-0.1-0.6-0.1c-0.2,0-0.5,0.1-0.6,0.2c-0.2,0.1-0.3,0.2-0.3,0.5c0.2,0.2,0.3,0.2,0.5,0.2
			c0.2,0,0.4,0,0.5-0.1C192.8,35.5,193,35.3,193.1,34.9z M192,30.2c0-0.2-0.1-0.4-0.1-0.5c0-0.2-0.1-0.2-0.2-0.3
			c0,0.1,0.1,0.2,0.1,0.2v0.3C191.7,30,191.7,30.1,192,30.2z M194.7,33.1c-0.3,0-0.5,0-0.7,0c-0.2,0-0.3,0.1-0.4,0.3
			c0.2,0.1,0.4,0.2,0.7,0.2C194.5,33.6,194.7,33.4,194.7,33.1L194.7,33.1z M196.1,31.7c-0.1,0-0.1,0-0.2,0c-0.1,0-0.1,0-0.2,0
			c-0.3,0-0.5,0.2-0.7,0.5c0,0,0.2,0.1,0.3,0.1s0.3,0,0.5-0.1C196,31.9,196,31.9,196.1,31.7z M196,36.3c-0.2,0-0.3,0.1-0.3,0.2
			c0,0,0.1,0.1,0.2,0.1c0.2,0,0.4-0.1,0.5-0.2H196z M197.4,32.6c-0.2,0-0.2,0-0.3,0.1c-0.1,0.1-0.2,0.1-0.3,0.1h-0.2
			c0,0.2,0.1,0.2,0.2,0.2c0.2,0,0.2-0.1,0.4-0.2C197.3,32.7,197.4,32.6,197.4,32.6z M202.8,29.9c-0.2-0.2-0.5-0.2-0.8-0.2
			c-0.2,0-0.4,0-0.5,0.1c-0.2,0.1-0.3,0.2-0.5,0.2c0.3,0.1,0.6,0.2,0.9,0.2C202.3,30.1,202.7,30,202.8,29.9z M203.7,31.3
			c-0.2-0.1-0.2-0.1-0.3-0.1c-0.2,0-0.3,0.1-0.5,0.2c-0.2,0.1-0.2,0.2-0.3,0.3h0.2C203.4,31.6,203.6,31.6,203.7,31.3z M204.3,32.6
			c0,0.1-0.1,0.2-0.1,0.2c0,0.1-0.1,0.2-0.1,0.2h0.1c0.2,0,0.3-0.1,0.3-0.2C204.5,32.7,204.4,32.6,204.3,32.6z M205.1,35.7
			c-0.1,0.1-0.2,0.1-0.3,0.1c-0.1,0-0.2,0.1-0.2,0.2c0,0.2,0,0.3,0.1,0.5c0.6-0.1,1-0.4,1.1-0.9c-0.1,0-0.2,0.1-0.3,0.1
			C205.4,35.5,205.3,35.5,205.1,35.7z M206,11c0-0.1,0.1-0.2,0.1-0.3c0-0.2,0.1-0.2,0.1-0.3c0-0.2-0.1-0.2-0.2-0.2v0.2
			c0,0.2,0,0.2-0.1,0.3c0,0.1-0.1,0.2-0.1,0.2C206,11,206,11,206,11z"/>
		<path class="st1" d="M229.4,30.9c0.2,0.4,0.4,0.8,0.7,1.2c0.2,0.4,0.5,0.8,0.7,1.3c0.2,0.5,0.4,1,0.5,1.5c0.2,0.5,0.2,1.1,0.2,1.6
			c0,0.2,0,0.2,0,0.3c0,0.1,0,0.2,0,0.3h-0.1c-0.2,0-0.2,0.1-0.2,0.2c-0.6-0.3-1.3-0.5-2.2-0.5c-0.7,0-1.5,0.1-2.2,0.3
			c-0.8,0.2-1.5,0.4-2.2,0.5v-0.1c0-0.3,0.2-0.5,0.4-0.5c0.3,0,0.5-0.2,0.5-0.3c-0.2-0.5-0.4-1.1-0.7-1.5c-0.3-0.5-0.5-1-0.8-1.3
			l-0.1,0.1c-0.1,0-0.1,0-0.2,0h-0.1c0,0-0.1,0.1-0.1,0.2c-0.7-1.9-1.3-3.7-1.9-5.1c-0.5-1.5-1.1-3.1-1.5-4.8
			c-0.2,0.1-0.3,0.1-0.4,0.1c-0.3,0-0.5-0.1-0.8-0.2c-0.2-0.1-0.5-0.2-0.8-0.2c-0.2,0-0.5,0.1-0.6,0.2c0,0.2-0.1,0.5-0.1,1.2
			s0,1.3-0.1,2.1c0,0.7-0.1,1.4-0.1,1.9c-0.1,0.6-0.1,0.8-0.2,0.8c-0.1,0-0.1-0.1-0.1-0.2s0-0.2,0-0.3c0-0.3,0-0.5,0.1-0.5
			c-0.2,0.2-0.4,0.3-0.4,0.6v0.4c0,0.2-0.1,0.4-0.2,0.6c0.1,0,0.2,0.1,0.2,0.3v0.5c0,0.3,0.1,0.5,0.2,0.5c-0.2,0.2-0.2,0.5-0.2,0.7
			c0,0.3,0.1,0.5,0.3,0.7c0.1,0,0.1-0.1,0.1-0.2c0-0.1,0-0.2-0.1-0.2c0.3,0,0.5,0.2,0.5,0.5c0,0.2,0,0.4-0.1,0.6
			c-0.1,0.2-0.1,0.5-0.1,0.7c0,0.2,0,0.5,0.1,0.6c0,0.2,0.1,0.5,0.1,0.6c0,0.6-0.3,0.9-0.9,0.9c-0.3,0-0.7-0.1-1-0.2
			c-0.3-0.2-0.7-0.2-1-0.2c-0.2,0-0.4,0-0.5,0.1c-0.2,0.1-0.3,0.2-0.5,0.2c-0.2,0.1-0.4,0.2-0.5,0.2c-0.2,0.1-0.5,0.1-0.8,0.1
			s-0.7,0-1-0.1c-0.3,0-0.6-0.1-0.9-0.2c0-0.3,0-0.6,0-0.8s0-0.6,0-1c0.3,0.2,0.5,0.5,0.6,0.7c0.2-0.1,0.2-0.2,0.4-0.2
			c0.2-0.1,0.2-0.2,0.2-0.5c0-0.2-0.1-0.2-0.2-0.2c-0.2,0-0.2-0.1-0.2-0.1c0-0.1,0-0.2,0.1-0.2c0.1,0,0.1-0.1,0.1-0.2
			c-0.1-0.1-0.1-0.1-0.2-0.1s0.1-0.2,0.1-0.3l-0.1,0.1c0,0.1,0,0.1,0.1,0.2c0.1,0,0.1,0.1,0.1,0.2V35c-0.2-0.2-0.3-0.4-0.3-0.6
			c0-0.2,0-0.5-0.2-0.6c-0.2,0.1-0.2,0.2-0.2,0.6V35v0.2c-0.3-0.3-0.5-0.7-0.5-1.3c0-0.5,0.1-1,0.2-1.5c0.2-0.5,0.2-1.2,0.2-1.7
			c0-0.5-0.1-1.2-0.1-1.9c-0.1-0.7-0.2-1.3-0.3-1.8c0-0.1,0.1-0.2,0.1-0.2c0.1-0.1,0.1-0.2,0.1-0.3c0-0.1-0.1-0.2-0.2-0.2
			c0-0.2,0.1-0.2,0.2-0.2h0.2c0-0.2,0-0.2-0.1-0.2c-0.1,0-0.2,0-0.2-0.1c0-0.2,0-0.2,0-0.4s0-0.2,0-0.4c0-0.5,0-1-0.1-1.5
			c-0.1-0.5-0.1-1-0.1-1.5c0-0.6,0-1.2,0.1-1.8c0.1-0.6,0.2-1.2,0.4-1.5c0,0.2,0.1,0.5,0.1,0.8c0,0.2,0,0.5,0,0.8v1.9v0.6
			c0.2-0.6,0.3-1.4,0.3-2.2c0-0.8,0-1.7,0.2-2.5c-0.2,0-0.3-0.2-0.3-0.6c0-0.2,0-0.2,0.1-0.3c-0.2,0-0.2,0.1-0.2,0.2
			c0,0.2,0,0.3,0,0.5c0,0.2,0,0.3-0.1,0.5c-0.1,0.2-0.2,0.3-0.2,0.4c0-0.3,0.1-0.8,0.1-1.5s0-1.3,0.1-2c0-0.6,0.1-1.2,0.2-1.8
			c0.1-0.5,0.2-0.8,0.3-0.8h0.1c0-0.1-0.1-0.2-0.1-0.4c0-0.2,0-0.2,0.1-0.3c-0.2-0.3-0.2-0.5-0.3-0.8c-0.1-0.3-0.1-0.5-0.1-0.8
			c0-0.6,0.1-1.2,0.3-1.8c0.2-0.5,0.4-1.1,0.5-1.5c-0.2,0-0.3,0.1-0.3,0.2s-0.2,0.2-0.3,0.2c0.2-0.6,0.5-1.1,1.1-1.5
			c0.6-0.4,1.2-0.6,1.7-0.6s1.1,0.1,1.6,0.2c0.5,0.2,1.2,0.2,1.7,0.2c1.3,0,2.5-0.1,3.9-0.1c1.3-0.1,2.5-0.1,3.7-0.1
			c0.3,0,0.7,0,1,0c0.3,0,0.6,0,0.9,0c0.5,0.7,1,1.4,1.5,2c0.6,0.6,1.2,1.2,1.7,1.6c0,0.1,0,0.1-0.1,0.1L229.7,9
			c0-0.2,0-0.2,0.1,0.1c0.1,0.2,0.2,0.4,0.3,0.7c0.2,0.3,0.2,0.6,0.5,0.9c0.2,0.3,0.3,0.5,0.5,0.6c0,0.7,0,1.4,0.1,1.9
			c0.1,0.5,0.2,1.2,0.3,2c-0.1,0.1-0.2,0.2-0.2,0.5c0,0.2,0,0.3,0.1,0.5c0,0.2,0.1,0.2,0.1,0.3c0,0,0,0.1-0.1,0.1v0.1v0.1
			c0,0.1-0.1,0.2-0.2,0.3c-0.1,0.1-0.2,0.2-0.4,0.2c0,0.2,0.1,0.3,0.1,0.5v0.4c0,0.2,0,0.3,0.1,0.5c0.1,0.2,0.2,0.3,0.3,0.5
			c-0.5,0.7-1.1,1.3-1.8,1.9c-0.7,0.5-1.2,1.1-1.8,1.8c0,0.4,0.1,0.8,0.2,1.1c0.2,0.3,0.2,0.7,0.4,1c0.2,0.3,0.2,0.6,0.4,1
			c0.1,0.4,0.2,0.7,0.2,1.2c0,0,0,0.1,0.1,0.1c0.1,0,0.2-0.1,0.2-0.2c0,0.6,0.2,1.2,0.4,1.8C229.2,29.5,229.4,30.2,229.4,30.9z
			 M212.3,7.8c0.1-0.1,0.1-0.2,0.1-0.4s0-0.2-0.1-0.2c-0.1,0.1-0.1,0.2-0.1,0.4C212.2,7.7,212.3,7.8,212.3,7.8z M213.5,36.3
			c0.2-0.2,0.2-0.5,0.2-0.8c0-0.3-0.1-0.5-0.2-0.7c0,0.2-0.1,0.3-0.2,0.3c-0.1,0-0.2,0-0.2,0.1c0,0,0,0.1,0.1,0.1c0,0,0.1,0,0.1,0.1
			c0,0.1,0,0.1-0.1,0.1c-0.1,0-0.1,0-0.1,0.1c0,0,0.1,0.1,0.2,0.1c-0.1,0-0.1,0.1-0.1,0.2s-0.1,0.2-0.1,0.2s-0.1,0-0.2-0.1
			C213.2,36.2,213.3,36.3,213.5,36.3z M216.2,36.7c0-0.2,0.1-0.3,0.1-0.5c0.1-0.2,0.1-0.3,0.1-0.5c0-0.3-0.2-0.5-0.5-0.6
			c-0.1,0.2-0.1,0.4-0.1,0.5c0,0.2,0,0.3,0.1,0.4c0,0.1,0.1,0.2,0.1,0.4v0.2C216,36.7,216.1,36.7,216.2,36.7z M217,35.7
			c0,0.2,0,0.2,0.1,0.2c0.1,0.1,0.1,0.2,0.1,0.3c0,0,0.1-0.1,0.2-0.1V36V36c0,0,0,0,0-0.1l-0.1-0.1l-0.2,0.2V36V36v-0.1
			C217.2,35.7,217.2,35.7,217,35.7L217,35.7L217,35.7z M220.6,7h-0.9c-0.4,0-0.8,0-1.2,0.1c-0.4,0.1-0.7,0.2-0.9,0.5
			c0.2,0,0.5,0,0.8,0c0.3,0,0.6,0,0.9,0c0.4,0,0.7,0,1-0.1s0.5-0.2,0.7-0.5L220.6,7L220.6,7z M222.3,18.5c0.4-0.3,0.8-0.8,1.2-1.4
			c0.4-0.6,0.6-1.2,0.6-1.8c0-0.3-0.1-0.6-0.3-0.9c-0.2-0.3-0.5-0.5-0.9-0.6c-0.2-0.4-0.5-0.7-0.8-0.8c-0.4-0.2-0.8-0.2-1.4-0.2
			c-0.5,0-0.9,0.1-1.4,0.2c-0.5,0.1-0.8,0.2-1.2,0.3c-0.2,0.5-0.2,1.1-0.3,1.6c0,0.5-0.1,1.1-0.1,1.6c0,0.4,0,0.8,0,1.2
			s0,0.7,0.1,1.1c0.3,0,0.6,0.1,0.9,0.1c0.3,0,0.6,0,0.8,0c0.4,0,0.8,0,1.2-0.1C221.2,18.6,221.6,18.5,222.3,18.5z M218.4,9.3
			c-0.3,0-0.5,0.2-0.5,0.4C218.2,9.6,218.3,9.5,218.4,9.3z M218.3,21.2c0.3-0.1,0.8-0.1,1.2-0.2c0.5-0.1,0.8-0.2,1.2-0.5
			c-0.4,0.2-0.8,0.2-1.3,0.2C218.9,20.8,218.4,21,218.3,21.2z M220.3,11.7c-0.2,0.1-0.5,0.2-0.8,0.1c-0.3,0-0.5,0.1-0.6,0.3
			c0.2,0,0.2-0.1,0.3-0.1s0.2,0,0.4,0c0.2,0,0.3,0,0.5,0c0.2,0,0.3,0.1,0.5,0.1C220.4,11.9,220.3,11.8,220.3,11.7z M219.6,9.4
			c0-0.2-0.1-0.2-0.2-0.2c-0.1,0-0.2,0-0.3,0.1c-0.1,0.1-0.2,0.2-0.2,0.2c0,0,0,0.1,0.1,0.1c0.2,0,0.2,0,0.3-0.1
			C219.4,9.4,219.6,9.4,219.6,9.4z M225.2,21c0.1-0.1,0.1-0.2,0.1-0.2c0-0.1,0-0.1,0.1-0.1h0.1c0-0.2-0.1-0.3-0.2-0.3
			c0,0.1-0.1,0.2-0.2,0.2c-0.1,0.1-0.1,0.2-0.1,0.2C225,21,225.2,20.8,225.2,21z M229.9,36.3c0.2,0,0.3-0.1,0.5,0
			c0.2,0,0.2-0.1,0.2-0.2c-0.2-0.1-0.2-0.1-0.2-0.1C230.1,36,229.9,36.2,229.9,36.3z"/>
		<path class="st1" d="M233.7,8.7c0.2-0.2,0.3-0.3,0.5-0.4c0.2-0.1,0.2-0.3,0.3-0.5c-0.2-0.2-0.4-0.2-0.7-0.2
			c0.2-0.3,0.3-0.5,0.6-0.5c0.1,0,0.2,0,0.3,0.1c0.1,0,0.2,0.1,0.4,0.1c0.5,0,0.9-0.2,1.3-0.5c0.4-0.3,0.8-0.5,1.2-0.5
			c0.3,0,0.6,0.1,0.9,0.2c0.3,0.2,0.6,0.2,0.9,0.2c0.2,0,0.3,0,0.5,0s0.3,0,0.5,0c0.2,0,0.2,0,0.3,0c0.1,0,0.2,0,0.4,0.1V7
			c0,0.3,0,0.5,0.1,0.8c0.1,0.2,0.1,0.5,0.2,0.7c0,0.2,0,0.3-0.1,0.5c-0.1,0.2-0.1,0.2-0.1,0.4c0,0.6,0.1,1.2,0.2,2
			c0.1,0.7,0.2,1.5,0.2,2.2c0.1,0.8,0.2,1.5,0.2,2.3c0.1,0.8,0.1,1.5,0.1,2.3v0.9c0,1.4,0,2.8,0.1,4.2c0.1,1.5,0.2,3,0.3,4.6
			c0.2,0.2,0.3,0.2,0.4,0.4c0.1,0.2,0.2,0.2,0.3,0.4c0.2,0.2,0.2,0.2,0.5,0.3c0.2,0.1,0.4,0.2,0.7,0.2c0.4-0.3,0.8-0.5,1.2-0.8
			c0.3-0.2,0.8-0.5,1-0.7c0.3-0.2,0.5-0.5,0.7-0.9c0.2-0.4,0.3-0.8,0.3-1.5c0-0.3,0-0.7,0-1.1c0-0.4,0-0.7,0-1.1
			c0-0.2,0-0.5,0.1-0.7c0-0.2,0.1-0.5,0.1-0.7s0-0.5-0.1-0.8c0-0.3-0.1-0.6-0.1-1v-0.6c0-0.2,0-0.3,0-0.5c0-0.2,0-0.2-0.1-0.4
			c0.1,0,0.1,0,0.1,0.1c0.2-0.5,0.3-1.2,0.3-1.9c0-0.6-0.1-1.2-0.2-1.8c-0.1-0.6-0.2-1.2-0.2-1.8V13h0.1c0.1,0,0.1-0.2,0.2-0.4
			c0-0.2,0.1-0.5,0.1-0.6c0-0.5,0-0.8-0.1-1.2c-0.1-0.4-0.1-0.8-0.1-1.2c0-0.3,0-0.5,0.1-0.6s0.2-0.2,0.2-0.2
			c0.1-0.1,0.2-0.1,0.3-0.1c0.1,0,0.2-0.1,0.3-0.2c0-0.2-0.1-0.2-0.2-0.2s-0.2,0-0.2,0c-0.1,0-0.2,0-0.2,0c-0.2,0-0.2,0-0.3-0.1V8
			c0-0.2-0.1-0.3-0.2-0.4c-0.1-0.1-0.2-0.2-0.2-0.3s0.2-0.3,0.4-0.3s0.5,0,0.7,0c0.4,0,0.8,0,1.3,0.1c0.4,0,0.8,0.1,1.3,0.1
			c0.4,0,0.8,0,1.2-0.1c0.4-0.1,0.7-0.2,1-0.3c0.8,0.2,1.3,0.7,1.3,1.5c0,0.5-0.1,0.9-0.2,1.5c-0.1,0.5-0.2,1-0.2,1.5
			c0,0.6,0.1,1.2,0.2,1.8c0.1,0.6,0.2,1.2,0.2,1.7c0,0.2,0,0.3-0.1,0.5c-0.1,0.2-0.1,0.3-0.1,0.5s0.1,0.2,0.2,0.3
			c-0.1,0.1-0.1,0.2-0.1,0.2s0,0.2-0.1,0.2h-0.1c0.2,0.2,0.2,0.3,0.2,0.5c0,0.3-0.1,0.6-0.2,0.9c-0.1,0.3-0.2,0.6-0.2,0.9
			c0,0.1,0,0.2,0.1,0.2c0.1,0.1,0.1,0.2,0.1,0.2c-0.1,0.7-0.2,1.5-0.2,2.2c-0.1,0.8-0.2,1.5-0.2,2.3c0,0.3,0,0.6,0.1,0.8
			s0.1,0.5,0.1,0.7c0,0.2-0.1,0.3-0.2,0.5c0.1,0.5,0.2,1.2,0.2,1.8c0,0.7-0.1,1.5-0.2,2.2c-0.2,0.8-0.3,1.5-0.5,2.2
			c0.1,0.1,0.1,0.2,0.1,0.3v0.2c0,0.2,0,0.2,0.1,0.3c-0.2,0.2-0.2,0.4-0.5,0.5c-0.2,0.2-0.3,0.3-0.5,0.5c-0.2,0.2-0.3,0.4-0.5,0.5
			c-0.2,0.2-0.2,0.5-0.2,0.7c-0.2,0.1-0.4,0.2-0.4,0.4c0,0.2-0.2,0.3-0.5,0.3c0,0.1,0,0.1,0,0.2c0,0,0,0.1,0,0.2
			c0,0.2-0.1,0.3-0.2,0.5c-0.2,0.2-0.3,0.2-0.5,0.4c-0.2,0.1-0.3,0.2-0.5,0.4c-0.2,0.2-0.2,0.3-0.2,0.5c-0.2,0.2-0.5,0.2-0.8,0.2
			c-0.3,0-0.6,0.1-0.9,0.1c-0.2,0-0.5,0-0.8,0c-0.2,0-0.5,0-0.8,0c-0.5,0-0.8,0-1.2,0.1c-0.4,0.1-0.7,0.2-1,0.3
			c-0.2-0.1-0.2-0.1-0.4-0.1s-0.2,0-0.4,0c-0.5,0-1.1,0.1-1.6,0.2c-0.5,0.2-1.2,0.2-1.6,0.2c-0.2,0-0.4-0.1-0.8-0.3
			c-0.4-0.2-0.8-0.5-1.5-1.1c-0.1-0.1-0.2-0.2-0.2-0.3c0-0.2-0.1-0.2-0.2-0.3c-0.3-0.2-0.6-0.4-0.9-0.7c-0.4-0.2-0.7-0.5-0.9-0.8
			c-0.3-0.2-0.5-0.5-0.7-0.8c-0.2-0.3-0.3-0.7-0.4-1c-0.1-0.4-0.2-0.7-0.2-0.9c-0.1-0.3-0.1-0.5-0.1-0.7c0-0.4,0.1-0.8,0.2-1.2
			c0.1-0.4,0.2-0.8,0.2-1.2c0-0.2,0-0.3,0-0.5c0-0.2,0-0.3,0-0.5c0-0.6,0.1-1.3,0.2-2.2c0.1-0.8,0.2-1.5,0.3-2.3
			c0.1-0.8,0.2-1.5,0.3-2.2c0.1-0.7,0.2-1.2,0.2-1.6c0.1-0.2,0.1-0.5-0.1-1c-0.1-0.5-0.2-1-0.2-1.4c0-0.2,0-0.5,0-0.8
			c0-0.3,0-0.7,0-1c0-0.2,0-0.4-0.1-0.5c-0.1-0.1-0.1-0.2-0.2-0.3c-0.1-0.1-0.1-0.2-0.1-0.3c0-0.1-0.1-0.2-0.1-0.5
			c0-0.2,0-0.3,0-0.5s0-0.3,0-0.4c0-0.2,0-0.2-0.1-0.2c-0.1,0-0.1-0.1-0.1-0.2c0-0.2,0.1-0.2,0.2-0.2c0.2,0,0.2,0,0.2-0.1
			s-0.1-0.1-0.2-0.1c-0.2,0-0.2,0-0.2-0.1s0.1-0.1,0.2-0.1c0.1,0,0.2,0,0.2,0c0-0.1-0.1-0.2-0.2-0.4c-0.1-0.2-0.2-0.5-0.2-0.8
			c0-0.2,0-0.4,0-0.6s0-0.5,0-0.7c0-0.3-0.1-0.6-0.2-0.9C234.4,8.9,234.1,8.7,233.7,8.7z M236.5,9.7c0,0.1,0,0.2-0.1,0.3
			c0,0,0.1,0.1,0.2,0.1c0,0,0.1,0,0.2,0c0.1,0,0.2,0,0.2-0.1C236.8,9.9,236.8,9.7,236.5,9.7z M238.2,36.9c0-0.2-0.1-0.5-0.2-0.6
			c-0.2-0.2-0.3-0.3-0.5-0.3c-0.2,0-0.3,0.1-0.5,0.2c0.3,0.3,0.5,0.6,0.8,0.9c0.2,0,0.2,0,0.2-0.1C238.1,36.9,238.1,36.9,238.2,36.9
			L238.2,36.9z M243.2,37.7c-0.2-0.1-0.5-0.1-0.7-0.1s-0.5,0-0.7,0.1c-0.2,0.1-0.3,0.2-0.4,0.3c0.1,0,0.2,0.1,0.3,0.1
			c0.2,0,0.5,0,0.8-0.1C242.8,38,243,37.8,243.2,37.7z M243.7,36.9c-0.2,0-0.3,0-0.5,0.1c-0.2,0.1-0.2,0.2-0.4,0.2
			c0.2,0.1,0.3,0.1,0.5,0.1c0.3,0,0.5-0.2,0.5-0.4L243.7,36.9L243.7,36.9z M245.3,36.2c-0.2,0-0.3,0.1-0.4,0.2
			c-0.1,0.1-0.2,0.2-0.4,0.2c0.2,0,0.4,0,0.5-0.1C245.2,36.5,245.3,36.4,245.3,36.2z"/>
		<path class="st1" d="M260.6,37.1c-0.2-0.3-0.4-0.7-0.8-1.1c-0.4-0.4-0.7-0.8-1.1-1.2c-0.4-0.4-0.7-0.8-1-1.2
			c-0.3-0.4-0.5-0.7-0.5-1c0-0.3,0.1-0.6,0.2-0.9c0-0.3,0-0.8,0-1.4c0-0.6,0-1.3,0-1.9c0-0.6,0.1-1.2,0.2-1.8
			c0.1-0.5,0.2-0.8,0.5-0.8c0.1,0,0.2,0,0.3,0.1c0.1,0,0.2,0.1,0.2,0.1c0.2,0,0.3-0.1,0.4-0.2c0.2,0.2,0.4,0.3,0.6,0.4
			c0.2,0.1,0.5,0.1,0.9,0.1c0.3,0,0.5,0,0.8-0.1c0.3,0,0.6-0.1,0.9-0.1c0.5,0,0.8,0.1,1.2,0.2c-0.1,0.2-0.1,0.3-0.1,0.4
			c0,0.2,0,0.2,0,0.4c0,0.3,0,0.6,0.1,0.9c0,0.3,0.1,0.7,0.2,1.2c0.5,0.1,1.1,0.2,1.6,0.2c0.5,0.1,1.1,0.1,1.6,0.1
			c0.5,0,0.8,0,1.2-0.1c0.4-0.1,0.8-0.2,1.2-0.4c0.1-0.5,0.1-0.8,0.2-1.3c0-0.5,0.1-1,0.1-1.5c0-0.5,0-0.9-0.1-1.4
			c0-0.5-0.1-1-0.2-1.5c-0.6-0.2-1.3-0.3-2.2-0.4c-0.9,0-1.7-0.1-2.5-0.1c-0.8,0-1.7-0.1-2.5-0.2c-0.8-0.2-1.4-0.4-1.9-0.8
			c-0.2-0.2-0.3-0.4-0.5-0.7s-0.4-0.5-0.5-0.5c-0.1,0-0.1,0-0.2,0.1c0,0-0.1,0.1-0.2,0.1v-0.2c0-0.3-0.1-0.5-0.2-0.8
			c-0.2-0.3-0.3-0.5-0.5-0.7c0.2-0.7,0.2-1.5,0.3-2.3c0.1-0.8,0.1-1.6,0.1-2.5c0-0.8,0-1.6,0.1-2.4c0-0.8,0.1-1.5,0.2-2.2
			c0.5-0.2,0.8-0.4,1.2-0.8c0.4-0.4,0.7-0.8,1-1.2c0.3-0.4,0.7-0.8,1-1.2c0.3-0.3,0.8-0.6,1.2-0.8C263.7,6,264,6,264.3,6
			c0.3,0,0.6,0.1,0.9,0.1c0.6,0,1.2,0,1.9-0.1c0.7-0.1,1.3-0.1,2-0.1c0.5,0,1,0.1,1.5,0.2c0.4,0.2,0.8,0.2,1.3,0.3
			c0.7,0.1,1.5,0.1,2.2,0.2s1.4,0.2,1.9,0.6c-0.1,0.1-0.1,0.2-0.1,0.2c0,0.2,0.1,0.2,0.2,0.2h0.2c-0.1,0.1-0.2,0.2-0.2,0.4
			c0,0.3,0.1,0.6,0.3,0.9c0.2,0.4,0.4,0.5,0.5,0.7c-0.1,0.2-0.1,0.4-0.1,0.7c0,0.3,0,0.6,0.1,0.9c0,0.3,0.1,0.6,0.1,0.9
			s-0.1,0.6-0.2,0.9c-0.1,0.2-0.3,0.5-0.5,0.6H276c-0.5,0-1,0-1.5,0.1c-0.6,0.1-1.2,0.1-1.8,0.1c-0.6,0-1.2-0.1-1.6-0.2
			c-0.2-0.3-0.3-0.6-0.5-0.8c-0.2-0.3-0.4-0.5-0.7-0.7c-0.5,0-0.8,0-1.2-0.1c-0.3,0-0.6-0.1-0.9-0.1s-0.6,0-0.9,0.1
			c-0.3,0.1-0.5,0.2-0.8,0.4c0,0.4-0.1,0.8-0.2,1.5s-0.2,1.2-0.2,1.7c0,0.3,0.1,0.5,0.2,0.7s0.4,0.2,0.7,0.3
			c0.3,0.1,0.5,0.1,0.9,0.1c0.3,0,0.7,0,1,0h2c0.8,0,1.5,0,2.2,0.1c0.8,0.1,1.5,0.2,2.1,0.4c0.3,0.6,0.6,1.2,1.2,1.6
			c0.5,0.5,0.8,1,1.2,1.5c0,0.1-0.1,0.2-0.1,0.4s0,0.3,0,0.5c0,0.2,0,0.3,0,0.5c0,0.2,0,0.4-0.1,0.5c-0.1,0.2-0.1,0.3-0.2,0.5
			c-0.1,0.2-0.2,0.3-0.2,0.5c-0.1,0.2-0.1,0.4-0.1,0.7c0,0.4,0,0.8,0.1,1.2c0.1,0.4,0.1,0.8,0.1,1.2c0,0.7-0.1,1.4-0.2,2.1
			c-0.2,0.7-0.2,1.3-0.2,1.7c0,0.1,0,0.2,0.1,0.3l-0.1,0.1c0,0-0.1,0-0.1-0.1c-0.2,0.5-0.3,0.8-0.3,1.2c0,0.3,0,0.6,0.1,0.9
			c0.1,0.3,0.1,0.6,0.1,0.9s-0.1,0.5-0.2,0.8c-0.2,0.2-0.2,0.4-0.4,0.6c-0.2,0.2-0.2,0.4-0.4,0.5c-0.2,0.2-0.2,0.4-0.2,0.7v0.2
			c-0.1,0-0.2-0.1-0.2-0.2v-0.2c0-0.1,0-0.1-0.1-0.1c-0.3,0-0.5,0.2-0.7,0.4s-0.3,0.5-0.5,0.7c-0.2,0.2-0.3,0.5-0.5,0.7
			c-0.2,0.2-0.5,0.3-0.8,0.3c-0.2,0-0.3,0-0.5-0.1c-0.2,0-0.3-0.1-0.5-0.1c-0.7,0-1.5,0.1-2.5,0.3c-0.9,0.2-1.9,0.3-2.8,0.3
			c-0.2,0-0.5,0-0.6-0.1c-0.2-0.1-0.4-0.1-0.5-0.1c-0.2,0-0.5,0.1-0.7,0.2c-0.2,0.1-0.5,0.2-0.7,0.2c-0.3,0-0.6,0-0.9-0.1
			c-0.3-0.1-0.5-0.1-0.8-0.1h-0.2c0-0.1,0-0.2-0.1-0.2c-0.1-0.1-0.1-0.1-0.1-0.2c0,0,0-0.1,0.1-0.2l-0.2,0.1
			C260.7,37.2,260.7,37.2,260.6,37.1z M260.1,34.2c0,0.3,0.1,0.4,0.2,0.4c0.1,0,0.2-0.1,0.2-0.2c0-0.1,0.1-0.2,0.2-0.4h-0.1
			c-0.1,0-0.2,0-0.2-0.1c-0.1-0.1-0.1-0.1-0.2-0.1h-0.1L260.1,34.2L260.1,34.2L260.1,34.2z M260.3,35L260.3,35
			C260.3,35,260.2,35,260.3,35c-0.1-0.2-0.1-0.2,0-0.2c0.1,0,0.1-0.1,0.2-0.1c-0.1-0.1-0.2-0.1-0.2-0.1c-0.2,0-0.2,0.1-0.2,0.2
			C260.1,35,260.2,35,260.3,35z M261.3,26.9c0,0.2,0.2,0.2,0.4,0.2c0.1-0.1,0.1-0.2,0.1-0.2c0-0.2-0.1-0.2-0.2-0.2
			C261.5,26.8,261.4,26.8,261.3,26.9L261.3,26.9L261.3,26.9z M262.8,35.9c-0.1,0.1-0.1,0.2-0.1,0.2c0,0.1,0,0.2-0.1,0.2h0.1
			c0.1,0,0.2,0,0.2-0.1c0.1-0.1,0.2-0.1,0.2-0.1c0.1,0,0.1,0,0.2,0.1C263.2,36,263.1,36,262.8,35.9L262.8,35.9L262.8,35.9
			L262.8,35.9z M266.9,6c-0.2,0-0.5,0.1-0.5,0c-0.1-0.1-0.3,0-0.5,0.1c0.1,0,0.2,0,0.2,0c0.1,0,0.2,0,0.2,0
			C266.5,6.3,266.8,6.2,266.9,6z M267.3,34.6c-0.1,0-0.2-0.1-0.2-0.1c-0.2,0-0.2,0.1-0.3,0.2c-0.1,0.1-0.1,0.2-0.2,0.3
			c0.2,0,0.3-0.1,0.4-0.2C267.1,34.7,267.2,34.6,267.3,34.6z M267.8,33.6c-0.1,0-0.2,0.1-0.3,0.2c-0.1,0.1-0.2,0.2-0.2,0.2
			c0.1-0.1,0.2-0.1,0.3-0.1s0.2-0.1,0.2-0.2V33.6z M269.6,34.9c-0.5,0.1-0.8,0.3-0.9,0.6c0.2,0,0.2,0,0.3-0.1
			c0.1-0.1,0.2-0.1,0.3-0.1h0.1c0-0.2,0-0.2,0.1-0.2C269.6,35.1,269.6,35,269.6,34.9L269.6,34.9z M270.8,36
			C270.8,36,270.8,36,270.8,36h-0.2c-0.2,0-0.4,0.1-0.6,0.2c-0.2,0.2-0.3,0.2-0.4,0.4c0.2-0.1,0.5-0.2,0.7-0.2
			C270.7,36.3,270.8,36.3,270.8,36z M272.5,12.4c-0.1,0-0.2,0.1-0.3,0.1h-0.5c-0.2,0-0.3,0.1-0.4,0.2c0.1,0,0.1,0,0.1,0h0.1
			c0.1,0,0.2,0,0.2,0.1c0.1,0,0.2,0.1,0.2,0.1C272.2,12.7,272.4,12.6,272.5,12.4z M272.8,35.5c-0.2,0.2-0.3,0.2-0.5,0.2
			c-0.2,0-0.2,0.1-0.2,0.3c0.2,0,0.4-0.1,0.5-0.2C272.8,35.8,272.9,35.7,272.8,35.5L272.8,35.5z"/>
		<path class="st1" d="M293.1,7.7c0.2-0.5,0.6-0.8,1.1-0.9c0.5-0.2,1-0.2,1.6-0.2c0.6,0,1.2,0.1,1.9,0.2c0.6,0.1,1.3,0.2,1.9,0.2
			c0.2,0.2,0.3,0.5,0.3,0.8c0,0.3-0.1,0.6-0.2,0.9c-0.2,0.3-0.2,0.6-0.3,0.8c-0.1,0.5-0.1,0.9-0.1,1.4c0,0.5,0,1,0,1.5
			c0,1.4-0.1,2.9-0.1,4.5s0,3.2,0,4.8c0,0.9,0,1.8,0.1,2.5c0.1,0.8,0.1,1.6,0.1,2.4c0,0.7-0.1,1.4-0.2,2c-0.1,0.6-0.2,1.3-0.2,1.9
			c0,0.3,0.1,0.5,0.2,0.8c0.1,0.2,0.2,0.4,0.2,0.7c0,0.2,0,0.2-0.1,0.4c-0.1,0.2-0.1,0.2-0.1,0.3c0,0.2,0,0.3,0.1,0.5
			c0.1,0.2,0.1,0.3,0.1,0.5c0,0.2-0.1,0.3-0.2,0.5c0.1,0.2,0.1,0.2,0.1,0.5c0,0.2,0.1,0.3,0.1,0.5c-0.3,0.2-0.6,0.5-0.8,0.8
			c-0.2,0.3-0.5,0.6-0.7,0.9c-0.6,0.1-1.2,0.2-1.6,0.2c-0.5,0.1-1,0.1-1.5,0.1c-0.3,0-0.5,0-0.8-0.1c-0.3-0.1-0.6-0.1-0.9-0.2
			c0-0.4-0.1-0.7-0.2-1.1c-0.1-0.4-0.2-0.7-0.5-0.9c0-1.3,0-2.6-0.1-3.9c-0.1-1.3-0.1-2.6-0.1-3.8c0-0.6,0-1.2,0.1-1.7
			c0-0.5,0.1-1.1,0.2-1.5c-0.8,0.2-1.8,0.3-2.8,0.4c-0.9,0.1-1.8,0.2-2.5,0.5c0,0.3-0.1,0.5-0.1,0.8c-0.1,0.2-0.1,0.5-0.1,0.8
			c0,0.2,0.1,0.4,0.2,0.6c-0.2,0.3-0.2,0.7-0.2,1s-0.1,0.7-0.1,1c0,0.8,0.1,1.6,0.2,2.5c0.2,0.8,0.2,1.7,0.2,2.5
			c0,0.5-0.1,1-0.1,1.5c-0.1,0.5-0.2,1-0.5,1.5c-0.4,0.2-0.8,0.2-1.3,0.2c-0.5,0-1,0-1.5-0.1s-1-0.1-1.5-0.1c-0.3,0-0.7,0-1,0.1
			c-0.3,0.1-0.7,0.2-1,0.4c0-0.2,0.1-0.5,0.1-0.7c0-0.2,0-0.5,0-0.7c0-0.5,0-1,0-1.5s0-1.1,0-1.5c0-0.5,0-0.9-0.1-1.3
			c0-0.4-0.1-0.7-0.2-0.8c0-0.2,0.1-0.2,0.1-0.3c0.1-0.1,0.1-0.2,0.1-0.5c0-0.1,0-0.1-0.1-0.2c0,0-0.1-0.1-0.1-0.2
			c0.2-1.6,0.3-3.2,0.5-5c0.2-1.8,0.2-3.7,0.2-5.5c0-1.2-0.1-2.3-0.2-3.5c-0.2-1.2-0.2-2.4-0.2-3.7v-0.4c0-0.2-0.1-0.4-0.2-0.6
			c-0.2-0.2-0.2-0.4-0.2-0.5c0-0.2,0-0.5,0.1-0.7c0.1-0.2,0.1-0.4,0.1-0.5c0-0.2-0.1-0.4-0.2-0.5c0,0,0.1-0.1,0.2-0.3
			c0.1-0.2,0.2-0.5,0.4-0.7s0.4-0.5,0.6-0.7c0.2-0.2,0.5-0.3,0.9-0.3c0.3,0,0.8,0.1,1.3,0.2c0.5,0.2,1.2,0.2,1.8,0.2
			c0.2,0,0.4,0,0.6,0c0.2,0,0.4,0,0.5-0.1c0.4,0.5,0.7,1.2,0.8,1.9s0.2,1.6,0.2,2.5c0,0.9-0.1,1.9-0.2,2.9c-0.1,0.9-0.2,1.9-0.2,2.6
			c0,0.2,0,0.5,0,0.6c0,0.2,0,0.4,0.1,0.5c0.8-0.1,1.8-0.2,2.8-0.2c1-0.1,1.9-0.2,2.6-0.5c0-0.9,0.1-2,0.2-3.2
			c0.1-1.2,0.1-2.3,0.2-3.3c0-0.3,0-0.5,0-0.8c0-0.3,0-0.5,0-0.8c0-0.2,0-0.5,0.1-0.7C293,8.2,293.1,8,293.1,7.7z M281,36.3
			c0.1,0,0.2,0.1,0.4,0.1s0.2-0.1,0.3-0.3c-0.2,0-0.3,0.1-0.4,0.1C281.1,36.2,281,36.2,281,36.3z M282.8,8.7c0.1,0,0.2,0,0.2,0
			c0.1,0,0.2,0,0.2,0c0.3,0,0.5-0.2,0.5-0.5C283.1,8.3,282.9,8.3,282.8,8.7z M283.1,31.8c0.2,0,0.2-0.2,0.2-0.4
			c0-0.3-0.1-0.5-0.3-0.5c0,0.1,0.1,0.2,0.1,0.3v0.3L283.1,31.8L283.1,31.8z M285.9,36.7c0.1-0.1,0.2-0.2,0.2-0.5
			c0.1-0.2,0.1-0.4,0.1-0.5c0-0.2-0.1-0.4-0.2-0.4v0.3c0,0.3-0.1,0.6-0.2,0.7c-0.2,0.2-0.4,0.3-0.6,0.4c0.2-0.1,0.2-0.1,0.3-0.1
			c0.1,0,0.2,0,0.2,0C285.8,36.7,285.8,36.7,285.9,36.7z M287.2,19c0.5,0,0.9-0.1,1.2-0.1c0.3,0,0.7-0.2,1-0.4c-0.2,0-0.5,0-0.7,0
			s-0.4,0-0.6,0C287.7,18.5,287.4,18.7,287.2,19z M288.7,21.1c0.1,0,0.1,0,0.2,0h0.1c0.1,0,0.1-0.1,0.1-0.2
			C288.7,20.8,288.6,20.9,288.7,21.1L288.7,21.1L288.7,21.1L288.7,21.1z M289.9,23.5c0.1,0.1,0.2,0.1,0.4,0.1c0.3,0,0.5-0.1,0.6-0.2
			c-0.1,0-0.2,0-0.2,0c-0.1,0-0.2,0-0.2,0s-0.1,0-0.1,0.1c0,0,0,0.1,0.1,0.2c-0.1,0-0.2,0-0.2,0c-0.1,0-0.2,0-0.2,0
			C289.9,23.5,289.9,23.5,289.9,23.5z M291.1,20.3c0.2,0.1,0.2,0.1,0.4,0.1c0.2,0,0.2,0,0.3-0.1c0.1-0.1,0.2-0.1,0.2-0.2l-0.1-0.1
			c-0.1,0.1-0.2,0.2-0.3,0.2h-0.3C291.2,20.1,291.2,20.1,291.1,20.3z M292.4,27.5c0.1-0.1,0.1-0.2,0.1-0.5c0-0.4,0-0.6-0.1-0.6
			c0,0-0.1,0.1-0.1,0.3c-0.1,0.2-0.1,0.4-0.1,0.4C292.3,27.2,292.4,27.4,292.4,27.5z M294.1,35.4c0-0.2-0.1-0.3-0.2-0.5
			c-0.1-0.2-0.2-0.2-0.2-0.2c-0.2,0-0.2,0-0.3,0.1c0,0.2,0,0.2,0.1,0.2c0.1,0.1,0.1,0.1,0.1,0.2v0.1c0.1,0,0.2,0.1,0.2,0.1
			c0.1,0,0.1,0,0.2,0C293.9,35.5,294,35.4,294.1,35.4z M295.6,36.6c0.2-0.1,0.5-0.1,0.8-0.2c0.2-0.1,0.5-0.2,0.6-0.2
			c-0.2,0.1-0.5,0.1-0.8,0.2C295.9,36.3,295.8,36.4,295.6,36.6z"/>
	</g>
</g>
</svg>
