<svg xmlns="http://www.w3.org/2000/svg" xmlns:xlink="http://www.w3.org/1999/xlink" version="1.1" id="Ginger_Logo" x="0px" y="0px" viewBox="0 0 209.42 75.69" style="enable-background:new 0 0 209.42 75.69;" xml:space="preserve" width="209.42"  height="75.69" >
<style type="text/css">
	.st0{fill:#D1D3D4;}
	.st1{fill:#EF4136;}
	.st2{fill:#F15A29;}
</style>
<g id="Ginger_Series">
	<path class="st0" d="M205.13,65.42c-4.44-8.99-7.86-15.52-10.35-19.78c5.28-4.04,8.43-9.16,9.39-15.29   c1.18-7.52-1.23-14.05-7.16-19.41c-4.43-3.99-11-5.93-20.1-5.93h-0.01c-2.72,0-5.71,0.18-8.89,0.54c0,0,0,0-0.01,0l-3.32,0.14   c-8.67,0.36-17.7,0.76-26.84,1.18l-3.97,0.18l0.11,2.74c-0.48-0.73-1.02-1.42-1.6-2.06c-3.37-3.67-8.13-5.61-14.17-5.76   c-0.23,0-0.45-0.01-0.67-0.01h-0.01c-7.42,0-16.33,3.05-20.7,15.98c0.03-3.4,0.08-6.59,0.15-9.58l0.08-4.09H79.69l0.08,4.08   c0.15,7.64,0.26,14.31,0.35,20L74.08,12.9l-0.94-2.4l-2.58-0.13L60.25,9.83l0.11-2.96l-4.27,0.11l-9.98,0.28l-3.99,0.11l0.07,2.88   c-0.57-0.91-1.2-1.74-1.91-2.52c-3.36-3.67-8.13-5.61-14.17-5.76c-0.22,0-0.45-0.01-0.67-0.01c-9.18,0-20.62,4.67-22.97,26.9   c-1.83,17.3,0.8,29,8.03,35.77c4.65,4.35,9.58,6.56,14.67,6.56c3.02,0,6.08-0.79,9.09-2.35c3.27-1.7,5.86-4.35,7.78-8   c-0.03,0.91-0.07,1.8-0.11,2.68l-0.19,4.29l4.3-0.12l9.95-0.27l3.97-0.11l-0.02-1.16l8.64-0.22l4.03-0.11l-0.14-4.03   c-0.11-3.3-0.18-6.78-0.22-10.41c3.46,8.05,6.22,14.53,8.23,19.36l1.07,2.58l2.8-0.12l9.01-0.4l3.89-0.17l-0.07-3.9   c-0.08-4.24-0.15-8.35-0.2-12.32c1.39,3.28,3.26,6.01,5.62,8.22c4.64,4.35,9.58,6.56,14.66,6.56c3.03,0,6.09-0.79,9.09-2.35   c3.59-1.87,6.37-4.89,8.33-9.12c-0.05,2.8-0.12,5.55-0.2,8.26l-0.13,4.19l4.2-0.07c3.52-0.06,7.06-0.1,10.5-0.1   c5.17,0,10.31,0.08,15.28,0.22l4.11,0.11v-4.04h12.81l-0.26-4.25c-0.16-2.6-0.25-6.59-0.27-11.91c2.13,4.37,4.37,10.47,6.68,18.21   l1.03,3.48l3.56-0.69l10.32-2.01l5.14-1L205.13,65.42z M25.91,53.09c-0.15,0.01-0.29,0.02-0.44,0.02c-0.62,0-2.34,0-4.51-2.67   l2.41-0.04l5.03-0.08C27.69,52.03,26.83,53.01,25.91,53.09z M42.2,33.99l-18.88,0.12l-3.95,0.02l-0.02,3.96l-0.05,8.29v1.48   c-1.61-3.5-1.73-9.11-0.34-16.38c0.79-4.14,2.69-11.18,6.55-11.74c0.14-0.02,0.25-0.03,0.36-0.03c0.28,0,0.34,0.05,0.43,0.15   c0.29,0.29,1.73,2.15,1.57,9.63l-0.1,4.5l4.48-0.43L42,32.61l0.51-0.05c0.01,0.48,0.01,0.96,0.01,1.43H42.2z M118.01,53.09   c-0.15,0.01-0.3,0.02-0.44,0.02c-0.62,0-2.35,0-4.52-2.67l2.41-0.04l5.04-0.08C119.79,52.03,118.93,53.01,118.01,53.09z    M134.29,33.99l-18.87,0.12l-3.96,0.02l-0.02,3.96l-0.04,8.29l-0.01,1.48c-1.6-3.5-1.72-9.11-0.34-16.38   c0.79-4.14,2.7-11.18,6.56-11.74c0.13-0.02,0.25-0.03,0.36-0.03c0.28,0,0.33,0.05,0.43,0.15c0.29,0.29,1.73,2.15,1.56,9.63   l-0.1,4.5l4.49-0.43l9.74-0.95l0.57-0.05c0.01,0.48,0.02,0.95,0.02,1.43H134.29z M150.98,25.4c4.5,0.11,8.93,0.32,13.2,0.61   c0.07,2.6,0.14,5.19,0.21,7.76l-1.54-0.02l-11.75-0.12L150.98,25.4z M164.39,54.08l-12.25,0.17v-3.3h12.67   c0.02,1.04,0.04,2.08,0.06,3.12L164.39,54.08z M185.75,31.32c-1.51,1.1-3.13,1.94-4.91,2.54c0.04-3.33,0.1-6.91,0.17-10.71   c0.37-0.01,0.72-0.02,1.06-0.02c3.4,0,5.36,0.73,5.82,2.17C188.71,27.9,188.11,29.59,185.75,31.32z"/>
	<g>
		<path class="st1" d="M26.01,5.97c11.37,0.28,16.57,7.83,15.59,22.66l-9.74,0.94c0.22-9.91-2.09-14.5-6.93-13.8    c-4.84,0.71-8.14,5.69-9.91,14.96s-1.27,16.05,1.49,20.36c2.76,4.31,6.01,6.3,9.74,5.97c3.74-0.33,6.19-3.94,7.36-10.83L23.3,46.4    l0.04-8.29l18.87-0.12c0.05,14.78-3.21,23.88-9.8,27.3s-12.98,2.23-19.18-3.58c-6.2-5.8-8.46-16.61-6.79-32.43    C8.12,13.46,14.64,5.69,26.01,5.97z"/>
		<path class="st2" d="M56.2,10.98c-0.6,16.33-0.71,33.81-0.33,52.44l-9.95,0.28c0.68-14.96,0.77-32.44,0.29-52.44L56.2,10.98z"/>
		<path class="st1" d="M70.35,14.36l13.94,35.62c0.08-5.58-0.09-19.48-0.53-41.71h9.21c-0.33,15.25-0.26,35.43,0.2,60.54l-9.01,0.39    c-3.32-7.97-8.59-20.26-15.82-36.87c-0.22,10.93-0.18,20.79,0.12,29.6l-8.97,0.24c0.27-11.61,0.12-27.74-0.45-48.39L70.35,14.36z"/>
		<path class="st2" d="M118.11,5.97c11.37,0.28,16.57,7.83,15.59,22.66l-9.74,0.94c0.22-9.91-2.09-14.5-6.93-13.8    c-4.84,0.71-8.14,5.69-9.91,14.96s-1.27,16.05,1.49,20.36c2.76,4.31,6.01,6.3,9.74,5.97c3.74-0.33,6.19-3.94,7.36-10.83    L115.4,46.4l0.04-8.29l18.88-0.12c0.05,14.78-3.21,23.88-9.8,27.3c-6.59,3.42-12.98,2.23-19.18-3.58    c-6.2-5.8-8.46-16.61-6.79-32.43C100.21,13.46,106.73,5.69,118.11,5.97z"/>
		<path class="st1" d="M164.85,9.68l-0.24,12.34c-5.74-0.39-11.63-0.63-17.69-0.71l0.24,16.27l15.66,0.16l-0.82,9.2    c-4.84,0-9.46,0-13.86,0v11.36l16.31-0.24v10.14c-8.4-0.24-17.05-0.28-25.97-0.12c0.54-17.58,0.39-36.66-0.45-57.23    C147.13,10.44,156.07,10.05,164.85,9.68z"/>
		<path class="st2" d="M189.35,44.47c6.28-3.69,9.9-8.6,10.87-14.74c0.96-6.13-1-11.4-5.89-15.82c-4.89-4.41-13.77-5.85-26.62-4.3    c0.57,18.71,1.03,36.93,1.38,54.68H177c-0.22-3.48-0.31-9.26-0.28-17.33l5.42-0.56c2.91,4.64,5.94,12.24,9.09,22.8l10.31-2.01    C195.81,55.59,191.75,48.01,189.35,44.47z M176.77,38.78c0.07-5.62,0.17-12.04,0.31-19.27c8.4-1.18,13.27,0.35,14.62,4.58    c1.34,4.23,0.15,7.72-3.59,10.46C184.87,36.92,181.1,38.33,176.77,38.78z"/>
	</g>
</g>
<script xmlns="">(function(){class RuffleMimeType{constructor(a,b,c){this.type=a,this.description=b,this.suffixes=c}}class RuffleMimeTypeArray{constructor(a){this.__mimetypes=[],this.__named_mimetypes={};for(let b of a)this.install(b)}install(a){let b=this.__mimetypes.length;this.__mimetypes.push(a),this.__named_mimetypes[a.type]=a,this[a.type]=a,this[b]=a}item(a){return this.__mimetypes[a]}namedItem(a){return this.__named_mimetypes[a]}get length(){return this.__mimetypes.length}}class RufflePlugin extends RuffleMimeTypeArray{constructor(a,b,c,d){super(d),this.name=a,this.description=b,this.filename=c}install(a){a.enabledPlugin||(a.enabledPlugin=this),super.install(a)}}class RufflePluginArray{constructor(a){this.__plugins=[],this.__named_plugins={};for(let b of a)this.install(b)}install(a){let b=this.__plugins.length;this.__plugins.push(a),this.__named_plugins[a.name]=a,this[a.name]=a,this[b]=a}item(a){return this.__plugins[a]}namedItem(a){return this.__named_plugins[a]}get length(){return this.__plugins.length}}const FLASH_PLUGIN=new RufflePlugin("Shockwave Flash","Shockwave Flash 32.0 r0","ruffle.js",[new RuffleMimeType("application/futuresplash","Shockwave Flash","spl"),new RuffleMimeType("application/x-shockwave-flash","Shockwave Flash","swf"),new RuffleMimeType("application/x-shockwave-flash2-preview","Shockwave Flash","swf"),new RuffleMimeType("application/vnd.adobe.flash-movie","Shockwave Flash","swf")]);function install_plugin(a){navigator.plugins.install||Object.defineProperty(navigator,"plugins",{value:new RufflePluginArray(navigator.plugins),writable:!1}),navigator.plugins.install(a),0&lt;a.length&amp;&amp;!navigator.mimeTypes.install&amp;&amp;Object.defineProperty(navigator,"mimeTypes",{value:new RuffleMimeTypeArray(navigator.mimeTypes),writable:!1});for(var b=0;b&lt;a.length;b+=1)navigator.mimeTypes.install(a[b])}install_plugin(FLASH_PLUGIN);})();</script><script xmlns=""/></svg>