<svg xmlns="http://www.w3.org/2000/svg" width="303" height="38" fill-rule="evenodd" clip-rule="evenodd" image-rendering="optimizeQuality" shape-rendering="geometricPrecision" text-rendering="geometricPrecision" viewBox="0 0 21.89 2.71"><defs><style>.fil2{fill:#f06}.fil1{fill:#ffd9e9}.fil3,.fil4{fill-rule:nonzero}.fil4{fill:#f9f}.fil3{fill:#fff}</style></defs><g id="Layer_x0020_1"><g id="_978714656"><path d="M.68 2.7c-.24 0-.41-.05-.52-.17C.06 2.4 0 2.22 0 1.95v-.26h.52v.33c0 .13.05.2.13.2.05 0 .08-.01.1-.04.02-.03.03-.08.03-.14a.63.63 0 00-.03-.22.49.49 0 00-.08-.14L.5 1.5l-.23-.23A.8.8 0 010 .7C0 .47.05.3.16.18.26.06.4 0 .6 0c.24 0 .41.06.52.19.1.13.16.33.16.6H.75V.6A.12.12 0 00.7.52.1.1 0 00.63.49C.6.49.56.5.53.52a.13.13 0 00-.02.1C.5.7.56.79.66.88l.3.3c.08.07.14.14.18.2.05.07.1.14.12.23.03.08.04.18.04.3 0 .26-.05.46-.14.6-.1.13-.26.2-.48.2zm3.12 0V.04h.53v2.2h.2l.51.46z" fill="#f06" fill-rule="nonzero"/><circle cx="2.62" cy="1.37" r="1.34" class="fil1"/><circle cx="2.62" cy="1.37" r=".52" class="fil2"/><circle cx="5.53" cy="1.37" r="1.34" class="fil1"/><circle cx="5.53" cy="1.37" r=".52" class="fil2"/><path d="M7.93.06v.23H7.6V2h-.27V.29H7V.06z" class="fil3"/><path id="1" d="M8.38 1.77h.57V2H8.1V.06h.82v.23h-.54v.59h.45v.23h-.45z" class="fil3"/><path id="2" d="M9.45 1.77h.56V2h-.85V.06h.82v.23h-.53v.59h.44v.23h-.44z" class="fil3"/><path id="3" d="M10.91.06h.26V2h-.28L10.48.6V2h-.26V.06h.3l.39 1.36z" class="fil3"/><path d="M12.2 2.7c-.18 0-.32-.06-.41-.19-.1-.13-.14-.33-.14-.6V.79c0-.24.06-.42.16-.55.11-.12.27-.18.48-.18.17 0 .3.04.4.1.1.07.16.17.2.3.03.13.05.3.05.5h-.5V.74c0-.06-.02-.1-.03-.14-.02-.03-.05-.05-.1-.05-.1 0-.14.06-.14.2V2c0 .08 0 .14.03.18.02.04.05.06.1.06s.09-.02.1-.06c.03-.04.04-.1.04-.18v-.37h-.14v-.45h.64v1.51h-.21l-.1-.21a.46.46 0 01-.42.24z" class="fil4"/><path id="1" d="M13.12 2.69V.09h.5v2.6z" class="fil4"/><path id="2" d="M13.83.09h.8c.12 0 .22.02.3.08.06.06.1.14.13.24.03.1.04.24.04.4 0 .15-.02.26-.06.35a.32.32 0 01-.2.17c.08.01.14.05.17.12.04.06.06.14.06.25v.99h-.52V1.67c0-.07-.01-.12-.04-.14-.03-.02-.08-.03-.15-.03v1.19h-.53V.08zm.65.96c.08 0 .11-.08.11-.24V.66l-.04-.08-.07-.01h-.12v.48h.12z" class="fil4"/><path id="3" d="M15.27 2.69V.09h.52v2.15h.54v.45z" class="fil4"/><path id="4" d="M17.1 2.7c-.25 0-.42-.05-.52-.17-.1-.11-.16-.3-.16-.56V1.7h.51v.33c0 .13.05.2.13.2.04 0 .08-.02.1-.05a.26.26 0 00.02-.14.62.62 0 00-.03-.2.47.47 0 00-.08-.15c-.03-.03-.08-.1-.16-.17l-.23-.23a.77.77 0 01-.26-.56c0-.22.05-.39.15-.5.1-.12.26-.18.45-.18.24 0 .4.06.5.19.11.12.16.32.16.58h-.53V.65a.11.11 0 00-.03-.08.1.1 0 00-.08-.03c-.04 0-.07.01-.1.03a.13.13 0 00-.02.1c0 .08.05.16.14.26l.3.29c.08.07.14.13.18.2.05.05.09.13.11.21.03.08.05.18.05.3a1 1 0 01-.14.58c-.1.13-.25.2-.47.2z" class="fil4"/><path d="M7.03 2.16h4.16v.55H7.03zm10.92 0h3.94v.55h-3.94z" fill="#606"/><path d="M18.12 2v-.38h.31V2z" class="fil3"/><path id="1" d="M20.24 1.77h.56V2h-.84V.06h.82v.23h-.54v.59h.45v.23h-.45z" class="fil3"/><path id="2" d="M21.8.06v.23h-.32V2h-.28V.29h-.33V.06z" class="fil3"/><path id="3" d="M19.38.06h.26V2h-.28L18.95.6V2h-.26V.06h.29l.4 1.36z" class="fil3"/></g></g></svg>