<?xml version="1.0" encoding="utf-8"?>
<!-- Generator: Adobe Illustrator 22.1.0, SVG Export Plug-In . SVG Version: 6.00 Build 0)  -->
<svg version="1.1" id="Vrstva_1" xmlns="http://www.w3.org/2000/svg" xmlns:xlink="http://www.w3.org/1999/xlink" x="0px" y="0px"
	 viewBox="0 0 1803.2 100.8" style="enable-background:new 0 0 1803.2 100.8;" xml:space="preserve">
<style type="text/css">
	.st0{fill:#FFFFFF;}
	.st1{fill:#B0BEC5;}
</style>
<title>site-logo-watermark</title>
<g>
	<path class="st0" d="M50,82.9c11.6,0,19.9-3.5,26-7.6l8.3,11.4c-8,6.9-18.8,10.7-34.3,10.7c-31.6,0-49-20.2-49-48
		c0-27.8,17.4-48,49-48c15.5,0,26.3,3.7,34.3,10.7L76,23.6C69.9,19.4,61.5,16,50,16c-21.3,0-31.4,14.2-31.4,33.5
		C18.6,68.7,28.7,82.9,50,82.9z"/>
	<path class="st0" d="M170.3,81v14.5H95.9v-8.6l49.9-69H98.6V3.4h71.7V12l-49.9,69H170.3z"/>
	<path class="st0" d="M252,41.3v14.5h-45.8V81h48.7v14.5h-66V3.4h65.4v14.5h-48v23.4H252z"/>
	<path class="st0" d="M313.6,82.9c11.6,0,19.9-3.5,26-7.6l8.3,11.4c-8,6.9-18.8,10.7-34.3,10.7c-31.6,0-49-20.2-49-48
		c0-27.8,17.4-48,49-48c15.5,0,26.3,3.7,34.3,10.7l-8.3,11.4c-6.1-4.1-14.5-7.6-26-7.6c-21.3,0-31.4,14.2-31.4,33.5
		C282.2,68.7,292.3,82.9,313.6,82.9z"/>
	<path class="st0" d="M425.1,3.4h17.4v92.2h-17.4V55.8h-43.9v39.7h-17.4V3.4h17.4v37.9h43.9V3.4z"/>
	<path class="st1" d="M519.5,28.4c-7.1-3.1-15.4-5-24.9-5c-6,0-11.2,1.7-11.2,6.6c0,5,5.3,6.4,13.5,8.1C520.3,43,534,50.2,534,68.4
		c0,22-18.5,29.7-41.5,29.7c-15.6,0-29.2-4.2-39.1-11.9l12.3-18.3c7.6,4.8,16.8,7.6,25.6,7.6c9.1,0,15.3-1.2,15.3-7.1
		c0-4.8-5.8-6.4-15-8.3C466.9,55,455.9,44.9,455.9,30c0-16.1,10.8-29.2,37.3-29.2c15.7,0,28.1,3,38.5,9.3L519.5,28.4z"/>
	<path class="st1" d="M543.1,53.1V3.4h27.2v49.7c0,13.9,2.3,22.4,16.6,22.4c14.3,0,16.6-8.5,16.6-22.4V3.4h27.2v49.7
		c0,27.3-12.1,45.1-43.8,45.1C555.2,98.1,543.1,80.4,543.1,53.1z"/>
	<path class="st1" d="M643.5,95.5V3.4h42c25.8,0,40.4,12.7,40.4,34.6s-14.5,34.6-40.4,34.6h-14.8v22.9H643.5z M670.7,26.1V50h14.8
		c9.1,0,12.9-4.9,12.9-12s-3.8-12-12.9-12H670.7z"/>
	<path class="st1" d="M807.6,37.9v22h-43v13h46.7v22.6h-73.9V3.4h73.3V26h-46.1v11.9H807.6z"/>
	<path class="st1" d="M826,95.5V3.4h40.7c23.9,0,41.7,8.9,41.7,32.8c0,15-10.8,22.7-17.9,25.5l18.8,33.9H880l-15.8-28.5h-10.9v28.5
		H826z M853.2,26.1v20.3h13.5c9.8,0,14.2-3,14.2-10.2c0-7.1-4.4-10.2-14.2-10.2H853.2z"/>
	<path class="st1" d="M949.8,45.6v49.9h-27.2V3.4H959l20.2,52.1l20.3-52.1h36.3v92.2h-27.2V45.6l-19.4,49.9h-19.9L949.8,45.6z"/>
	<path class="st1" d="M1147.1,49.5c0,26.9-16,48.7-50.5,48.7c-34.5,0-50.5-21.7-50.5-48.7c0-26.9,16-48.7,50.5-48.7
		C1131.1,0.8,1147.1,22.5,1147.1,49.5z M1073.5,49.5c0,13,6.4,26,23.1,26c16.6,0,23.1-13,23.1-26c0-13-6.4-26-23.1-26
		C1079.9,23.4,1073.5,36.4,1073.5,49.5z"/>
	<path class="st1" d="M1197.5,95.5h-40.1V3.4h40.1c35.5,0,48.3,20.2,48.3,46.1C1245.8,75.4,1233,95.5,1197.5,95.5z M1184.6,72.9
		h12.9c14.6,0,21-7.8,21-23.5c0-15.6-6.4-23.5-21-23.5h-12.9V72.9z"/>
	<path class="st1" d="M1326.3,37.9v22h-43v13h46.7v22.6h-73.9V3.4h73.3V26h-46.1v11.9H1326.3z"/>
	<path class="st1" d="M1371.9,72.9h44.2v22.6h-71.3V3.4h27.2V72.9z"/>
	<path class="st1" d="M1488.5,28.4c-7.1-3.1-15.4-5-24.9-5c-6,0-11.2,1.7-11.2,6.6c0,5,5.3,6.4,13.5,8.1
		c23.5,4.9,37.2,12.1,37.2,30.3c0,22-18.5,29.7-41.5,29.7c-15.6,0-29.2-4.2-39.1-11.9l12.3-18.3c7.6,4.8,16.8,7.6,25.6,7.6
		c9.1,0,15.3-1.2,15.3-7.1c0-4.8-5.8-6.4-15-8.3c-24.6-5.1-35.7-15.2-35.7-30.1c0-16.1,10.8-29.2,37.3-29.2c15.7,0,28.1,3,38.5,9.3
		L1488.5,28.4z"/>
	<path class="st0" d="M1522.3,77.1c5.3,0,9.6,4.3,9.6,9.6c0,5.3-4.3,9.5-9.6,9.5c-5.3,0-9.5-4.2-9.5-9.5
		C1512.8,81.4,1517,77.1,1522.3,77.1z"/>
	<path class="st0" d="M1577.6,83.4c6.9,0,13.2-1.9,18.9-6.4l8.2,10.3c-7.2,7.1-16.5,9.4-27.1,9.4c-22.4,0-36.6-14.7-36.6-34.1
		s14.3-34.1,36.6-34.1c10.6,0,19.9,2.3,27.1,9.4l-8.4,10.2c-5.7-4.5-11.8-6.2-18.8-6.2c-14.1,0-20.1,9.9-20.1,20.7
		S1563.5,83.4,1577.6,83.4z"/>
	<path class="st0" d="M1649.7,96.8c-22.4,0-36.6-14.7-36.6-34.1s14.3-34.1,36.6-34.1c22.3,0,36.6,14.6,36.6,34.1
		C1686.3,82.2,1672,96.8,1649.7,96.8z M1649.7,42c-14.1,0-20.1,9.9-20.1,20.7s6,20.7,20.1,20.7c14.1,0,20.1-9.9,20.1-20.7
		S1663.7,42,1649.7,42z"/>
	<path class="st0" d="M1700.5,29.9h16.1v6c2.2-3.9,8.7-7.3,15.2-7.3c10.3,0,17.6,3.6,21.5,9.1c3.5-4.7,11.2-9.1,20.2-9.1
		c15.7,0,26.5,8.4,26.5,28.7v38.3h-16.1V57.2c0-9.1-3.9-15.2-12.8-15.2c-8.9,0-12.8,6.2-12.8,15.2v38.3h-16.1V57.2
		c0-9.1-3.9-15.2-12.8-15.2c-8.9,0-12.8,6.2-12.8,15.2v38.3h-16.1V29.9z"/>
</g>
</svg>
