<?xml version="1.0" encoding="utf-8"?>
<!-- Generator: Adobe Illustrator 21.1.0, SVG Export Plug-In . SVG Version: 6.00 Build 0)  -->
<svg version="1.1" id="Layer_1" xmlns="http://www.w3.org/2000/svg" xmlns:xlink="http://www.w3.org/1999/xlink" x="0px" y="0px"
	 viewBox="0 0 4888.4 1216.5" style="enable-background:new 0 0 4888.4 1216.5;" xml:space="preserve">
<style type="text/css">
	.st0{fill:#9EA160;}
	.st1{fill:#C05785;}
	.st2{fill:#9E9F62;}
	.st3{fill:#292d35;}
</style>
<title>ageandbeautylogo</title>
<g id="Layer_2">
	<g id="AgeAndBeauty_Logo">
		<g id="rose">
			<path class="st0" d="M2528.1,900.9c0,0-66.3,88.3-241.2,88.2c-69.8,0-150.1-11.9-247.9-68.1c-31.7-18.8-55.6-47-68-73
				c-14.1-29.1-22.5-60.7-24.6-93c-0.8,1-1.5,2.1-2,3.3c-13.3,16.6-30.7,37.6-34.1,69.6c-1.8,39.8,23.7,84.7,66.6,129.3l1.9,1.4
				c0.5,16.9-4.2,61.8-16.9,85.9c-7.7,14.6-15.5,26.1-23.3,34.6c-7.8,8.5-12.7,13.7-14.7,15.4c-9.8,8.7-19.3,14.4-28.6,17
				c-8.7,2.6-17.7,3.4-26.7,2.4c-7.9-0.9-15.6-3.1-22.7-6.6c-5.7-2.8-11.2-6.1-16.4-9.9c-14.3-10.7-24.7-25-31.2-42.7
				c-6.5-17.7-10.4-37.2-11.7-58.5c-0.7-22.1,0.2-44.2,2.7-66.1c2.5-22.2,5.6-42.6,9.3-61.2c3.6-21.1,8.6-42,15-62.5
				c9.8-32.2,17.8-61.4,24.3-87.6s11.5-49.1,15.2-68.8c4.4-22.4,7.8-42.8,10.2-61.3c2.2-21.4,2.1-39.7-0.2-54.8
				c-15.7,45.9-52.5,70.9-78.5,139.4c-2.1,6.9-4.5,13.9-7,21l-2,4.9c-1.3,1.2-2.9,1.1-4.8-0.3c-18-13.5-31.4-29.2-40.1-47
				s-14-35.3-15.8-52.6c-1.7-17.3-0.2-33.5,4.7-48.7c1.9-5.9,4.4-11.7,7.4-17.1c-4.9,0.6-9.7,1.2-14.6,1.7
				c-6.9,0.7-14.3,1.3-21.8,1.7c-1.2,3.2-2.3,6.3-3.3,9.6c-7.7,25.3-9.8,50.1-6.3,74.7c3.4,24.3,11.7,47.7,24.3,68.8
				c12.8,21.3,28.2,38.8,46.2,52.3c0.1,1.2,0.8,2.4,1.8,3c1.8,3.5,2.4,5.5,1.7,6.1c-1.4,4.5-2.5,9-3.2,13.6
				c-1.4,4.3-2.9,9.3-4.7,14.9s-3.6,12-5.7,19c-11.1,32.4-22.3,67-33.8,103.8c-11.1,35.2-18.7,71.5-22.4,108.3
				c-3.5,35.3-1.2,68.6,6.8,99.8s26,57.3,54,78.3c12,8.8,25.3,15.9,39.4,20.8c15.1,5.5,31.8,7.6,50.3,6.5c10.8-1,21.4-3.3,31.6-6.8
				c10.7-3.6,21-8.2,30.8-13.7c11.6-6.3,23.5-14.9,35.9-26c10.9-10,21-21,29.9-32.9c10.2-13.2,19.7-28.8,28.4-46.8
				c18.9-38.9,15.8-37.1,33.3-101.3c0.7-0.6,1-1.5,1-2.4c0.5-0.4,0.9-1,1-1.7c0.1-0.7,0.5-1.3,1-1.7c2.1-1.9,5.2-2.2,7.6-0.7
				c297.1,172.2,481.8-66.9,481.8-66.9"/>
			<path id="Shape_1_copy_4" class="st1" d="M1737.8,134.9c0-0.2,0-0.5,0-0.7c0-0.5-0.1-1-0.3-1.4c-0.1-0.2-0.1-0.4-0.2-0.6
				c-0.9-1.5-2.3-2.7-3.8-3.4c-0.3-0.1-0.6-0.3-0.9-0.4c-0.7-0.4-1.4-0.7-2.3-1l-1.2-0.4c-0.9-0.3-1.9-0.6-2.9-0.9l-1.2-0.3
				c-1.4-0.4-3-0.8-4.6-1.1l0,0h-0.1c-1.6-0.3-3.3-0.7-5.1-1l-1.8-0.3c-1.3-0.2-2.6-0.4-4-0.6l-2.1-0.3c-1.4-0.2-2.9-0.4-4.4-0.5
				l-1.9-0.2c-2.1-0.2-4.2-0.4-6.4-0.6l-1.6-0.1c-1.7-0.2-3.5-0.3-5.3-0.4l-2.9-0.2l-4.1-0.3l-3.3-0.2l-3.9-0.2l-3.4-0.2l-2.2-0.1
				c-14.8-0.8-29.9-1.4-43-2.2l-0.9-0.1l-5.6-0.4l-1.1-0.1c-2-0.2-3.9-0.3-5.8-0.5h-0.2c-2-0.2-3.8-0.4-5.6-0.6l-1.2-0.2
				c-0.9-0.1-1.9-0.2-2.8-0.4c-1.2-0.2-2.4-0.4-3.5-0.6c-1.4-0.3-2.7-0.4-3.9-0.5l-1-0.1c-0.8,0-1.7,0-2.5,0c-0.2,0-0.5,0-0.7,0
				c-0.9,0.1-1.7,0.2-2.5,0.5c-0.2,0-0.3,0.1-0.4,0.2c-0.5,0.2-1.1,0.4-1.6,0.7l-0.4,0.3c-0.5,0.3-0.8,0.7-1.2,1.2l-0.1,0.1
				c-0.3,0.5-0.6,1.1-0.7,1.7c0,0.2-0.1,0.3-0.1,0.5c-0.1,0.5-0.1,1.1-0.1,1.6c0,0.2,0,0.3,0,0.5c0,0.8,0.2,1.5,0.3,2.3l0.1,0.3
				c0.2,0.8,0.5,1.5,0.7,2.3c0.1,0.2,0.2,0.4,0.3,0.7c0.3,0.8,0.7,1.6,1.1,2.4c0.1,0.1,0.1,0.2,0.2,0.3c0.5,1,1.1,1.9,1.7,2.9
				c0.1,0.2,0.3,0.4,0.4,0.6c0.5,0.8,1.1,1.7,1.7,2.6c0.2,0.2,0.3,0.4,0.5,0.6c1.6,2.1,3.3,4.2,5.2,6.4l0.6,0.7
				c0.9,0.9,1.8,1.9,2.7,2.9l0.4,0.4c1.1,1.1,2.2,2.2,3.4,3.2l0.1,0.1l0.1,0.1c2.1,1.9,4.3,3.8,6.6,5.6c0.1,0.1,0.3,0.2,0.4,0.3
				c2.3,1.8,4.7,3.6,7.2,5.2l0.1,0.1c2.4,1.6,4.9,3.1,7.3,4.4l0.6,0.3c2.5,1.3,5,2.5,7.6,3.6c2,0.8,4,1.4,6,2
				c0.6,0.2,1.2,0.3,1.9,0.5c1.5,0.4,3,0.7,4.6,0.9l2,0.3c1.9,0.3,3.8,0.5,5.7,0.6c0.3,0,0.5,0,0.8,0.1c2.2,0.1,4.4,0.1,6.6,0.1
				l2-0.1c1.6-0.1,3.2-0.2,4.8-0.4c0.7-0.1,1.5-0.1,2.2-0.2c1.8-0.2,3.6-0.5,5.4-0.8c0.4-0.1,0.9-0.1,1.3-0.2
				c2.2-0.4,4.4-0.9,6.6-1.4c0.7-0.2,1.3-0.3,2-0.5c1.6-0.4,3.2-0.9,4.8-1.4l2.2-0.7c1.6-0.5,3.3-1.1,4.9-1.7
				c0.5-0.2,1.1-0.4,1.6-0.6c2.1-0.8,4.1-1.7,6.1-2.6c0.6-0.3,1.1-0.5,1.7-0.8c1.5-0.7,2.9-1.4,4.3-2.1c0.7-0.3,1.3-0.7,2-1.1
				c1.3-0.7,2.7-1.5,4-2.3c0.5-0.3,1-0.6,1.5-0.9l0.4-0.3c0.9-0.6,1.6-1.1,2.5-1.7s1.8-1.2,2.6-1.8s1.8-1.4,2.7-2.1
				c0.7-0.6,1.5-1.2,2.2-1.8c1-0.9,1.9-1.8,2.8-2.6c0.5-0.5,1-0.9,1.5-1.4c1.3-1.3,2.5-2.7,3.6-4.2c0.7-0.7,1.2-1.6,1.7-2.5
				c0.1-0.2,0.2-0.5,0.3-0.7C1737.7,136,1737.8,135.4,1737.8,134.9z M1616.7,189.3c-0.1-0.4-0.2-0.8-0.5-1.1l-0.2-0.2
				c-0.4-0.4-0.8-0.8-1.3-1.1l-0.2-0.1c-0.6-0.4-1.3-0.8-1.9-1.1l-0.3-0.1c-0.8-0.4-1.7-0.7-2.6-1.1l-0.6-0.2c-1-0.3-2-0.7-3.2-1
				l-0.5-0.1c-1.1-0.3-2.3-0.6-3.6-0.9l-0.3-0.1c-1.3-0.3-2.6-0.5-4-0.8l-0.8-0.1c-1.4-0.2-2.8-0.4-4.3-0.6l-0.7-0.1
				c-1.5-0.2-3-0.3-4.5-0.4h-0.2c-1.6-0.1-3.2-0.2-4.8-0.3h-0.8c-1.6,0-3.1,0-4.7,0h-0.8c-4.1,0.1-8.1,0.5-12.1,1.2l-0.6,0.1
				c-2.3,0.4-4.5,1-6.7,1.8c-2,0.6-4,1.1-6,1.4h-0.2h-0.2h-0.3l-0.7,0.1h-0.4h-0.4h-0.7c-1.3,0.1-2.6,0.2-4,0.2h-0.8h-0.7h-0.7h-0.3
				l-1.1-0.1c-1.3-0.1-2.5-0.2-3.8-0.4l-0.7-0.1l-1-0.2l-0.5-0.1c-0.5-0.1-1.1-0.2-1.6-0.3c-1.3-0.3-2.5-0.5-3.8-0.8l-1.6-0.4
				c-0.8-0.2-1.6-0.4-2.4-0.7c-1.2-0.4-2.3-0.7-3.5-1.1l-1.2-0.4c-1-0.4-1.9-0.7-2.9-1.1c-1.4-0.5-2.7-1.1-4.1-1.7
				c-1.1-0.5-2.2-1-3.3-1.5c-1.3-0.6-2.6-1.3-3.9-2c-1-0.6-2-1.1-3-1.7c-1.3-0.8-2.7-1.6-4-2.4c-0.9-0.6-1.8-1.1-2.6-1.7l0,0l-1.3-1
				l-0.7-0.5c-0.9-0.6-1.7-1.3-2.5-1.9l-1-0.8c-0.4-0.4-0.8-0.7-1.2-1.1c-0.7-0.6-1.3-1.2-2-1.8l-0.5-0.5c-0.5-0.5-0.9-1-1.4-1.4
				c-0.6-0.7-1.2-1.3-1.8-2s-0.9-1.1-1.3-1.6s-0.9-1.3-1.3-1.9s-0.6-1.1-0.9-1.6c-1.1-1.9-1.7-4-1.7-6.2c0-1.1,0.1-2.1,0.3-3.2
				c0-0.3,0.1-0.6,0.1-0.9c0-0.1,0-0.2,0-0.3V141c0.1-0.7,0.2-1.4,0.4-2.1c0.1-0.3,0.1-0.6,0.2-0.9s0.1-0.4,0.1-0.6l0.1-0.3
				c0.1-0.6,0.3-1.2,0.4-1.8l0.2-0.6c0.3-1.1,0.6-2.3,0.9-3.4c0-0.1,0-0.1,0-0.1c0.1-0.4,0.2-0.8,0.3-1.2c0.3-1,0.6-2.1,0.9-3.1
				c0.2-0.7,0.4-1.3,0.6-1.9c0.1-0.3,0.2-0.6,0.3-0.8s0.2-0.5,0.2-0.8s0.1-0.5,0.2-0.7s0.2-0.7,0.3-1l0.1-0.4l0.1-0.4l0.2-0.8
				c0.1-0.3,0.1-0.5,0.2-0.8v-0.2c0,0,0,0,0-0.1c0.1-0.2,0.1-0.4,0.1-0.6l0.1-0.4c0-0.2,0.1-0.4,0.1-0.6s0.1-0.5,0.1-0.7
				s0-0.2,0-0.3c0-0.1,0-0.2,0-0.3c0-0.2,0-0.3,0-0.5s0-0.3,0-0.4s0-0.3,0-0.4s0-0.3,0-0.4s0-0.2,0-0.3s0-0.1,0-0.2
				c0-0.1,0-0.2-0.1-0.3c0,0,0-0.1,0-0.2c-0.1-0.1-0.1-0.2-0.2-0.3c0-0.1-0.1-0.2-0.2-0.3l-0.1-0.1c0,0-0.1-0.1-0.1-0.1
				c-0.1,0-0.1-0.1-0.2-0.1l-0.3-0.1c-0.1-0.1-0.3-0.1-0.4-0.1h-0.2h-0.1c-0.1,0-0.3,0.1-0.4,0.1c-0.1,0-0.2,0.1-0.2,0.1l-0.2,0.1
				c-0.2,0-0.3,0.1-0.5,0.1l-0.2,0.1l-0.3,0.1c-0.3,0.1-0.6,0.3-0.9,0.5s-0.6,0.3-0.9,0.5l0,0l-0.3,0.2l-0.6,0.4
				c-0.4,0.3-0.9,0.7-1.4,1l-0.3,0.2c-0.3,0.2-0.6,0.4-1,0.7l-0.3,0.2l0,0c-0.1,0.1-0.2,0.2-0.3,0.2c-0.7,0.6-1.5,1.2-2.3,1.9
				c-0.4,0.3-0.8,0.6-1.2,1v0.1c-0.7,0.6-1.2,1-2,1.7l-1.8,1.6l0,0c-1.1,1-2.2,2-3.3,3l-0.3,0.3l-0.1,0.1l0,0l-0.1,0.1l-0.3,0.3
				l-0.3,0.3l-0.3,0.3l-0.3,0.3l-0.5,0.5l-0.6,0.6l-0.4,0.4l-0.6,0.6l-0.2,0.2l0,0l-0.8,0.7l-0.1,0.1c-0.1,0.1-0.1,0.1-0.2,0.2
				c-0.2,0.2-0.4,0.4-0.7,0.6l-0.4,0.5c-0.2,0.2-0.4,0.4-0.7,0.7l-0.5,0.5l-0.2,0.2l0,0l-0.2,0.3l-0.8,0.8l-0.5,0.5l-0.9,0.9
				c-0.2,0.2-0.3,0.3-0.5,0.5l-0.5,0.6l-0.1,0.1l0,0l0,0l-0.7,0.7c-0.1,0.1-0.2,0.2-0.3,0.3l-0.3,0.3l-0.5,0.5
				c-0.3,0.3-0.6,0.7-0.9,1l-0.8,0.8l-0.1,0.1l0,0l-0.2,0.2l-0.6,0.7l-0.5,0.5l-0.5,0.6c-0.3,0.3-0.6,0.7-0.8,1l-0.2,0.2
				c-0.1,0.2-0.3,0.3-0.4,0.4l-0.2,0.2l0,0l-0.1,0.2c-0.3,0.4-0.6,0.7-0.8,1s-0.4,0.6-0.6,0.8l-0.3,0.4l0,0
				c-0.2,0.3-0.5,0.6-0.7,0.9s-0.2,0.3-0.4,0.5l-0.2,0.3c0,0.1-0.1,0.1-0.1,0.2l0,0l-0.5,0.7c-0.2,0.3-0.4,0.6-0.7,1
				c-0.4,0.6-0.9,1.2-1.3,1.9c-0.2,0.3-0.4,0.6-0.6,0.9l0,0l0,0l-0.3,0.5c-0.3,0.5-0.7,1-1,1.5s-0.5,0.8-0.7,1.1s-0.6,0.9-0.9,1.4
				l0,0c0,0-0.1,0.2-0.2,0.3l0,0c-0.2,0.4-0.4,0.8-0.6,1.1c-0.3,0.6-0.7,1.1-1,1.6c-0.2,0.4-0.4,0.7-0.6,1.1s-0.3,0.6-0.5,0.9
				s-0.2,0.4-0.3,0.6c0,0,0,0.1,0,0.1c-0.2,0.3-0.3,0.7-0.5,1s-0.4,0.7-0.5,1.1c-0.3,0.6-0.6,1.2-0.8,1.8c-0.1,0.3-0.3,0.6-0.4,0.9
				s-0.2,0.4-0.2,0.6s-0.2,0.3-0.2,0.5s0,0.1,0,0.1c-0.8,2.1-1.6,4.1-2.2,6.3c0,0.2-0.1,0.4-0.2,0.6l-0.1,0.2c0,0,0,0.1,0,0.1
				c-0.1,0.3-0.1,0.6-0.2,0.9c-0.6,2.3-1,4.6-1.4,7c0,0.4-0.2,0.9-0.3,1.3c0,0.1,0.1,0.3,0.1,0.4c-1.4,13,1.8,26.9,11.9,41.4
				c0,0.1,0.1,0.3,0.2,0.4c0.4,0.6,0.8,1.2,1.3,1.8l0.1,0.1c0.1,0,0.1,0.1,0.1,0.2c1.3,1.7,2.8,3.3,4.4,4.8c0.3,0.3,0.6,0.6,1,0.9
				c0,0,0,0,0,0.1c0.2,0.2,0.4,0.3,0.6,0.5c0.6,0.5,1.3,1,2,1.5s1.1,0.8,1.7,1.1c0.3,0.2,0.7,0.4,1,0.6c0.2,0.1,0.4,0.2,0.5,0.3
				s0.4,0.2,0.6,0.3c0.6,0.3,1.2,0.6,1.8,0.9s1.3,0.6,1.9,0.8l0,0c0.1,0.1,0.3,0.1,0.4,0.1c0.3,0.1,0.6,0.3,1,0.4s0.6,0.2,1,0.3
				l0.2,0.1l0.5,0.2c0.4,0.1,0.8,0.2,1.3,0.3l0,0c0.1,0,0.3,0,0.4,0.1c0.6,0.1,1.2,0.3,1.8,0.4c0.4,0.1,0.8,0.2,1.2,0.2l0,0l0.6,0.1
				c0.3,0,0.6,0,0.8,0.1l1.6,0.1l0.9,0.1h0.2h0.4h0.2c0.4,0,0.9,0,1.3,0h1.4c0.3,0,0.6,0,0.9,0h0.1h0.5c0.6,0,1.3-0.1,1.9-0.1
				l1.1-0.1l0,0h0.2h0.4l0.7-0.1c0.8-0.1,1.5-0.1,2.3-0.3l0,0h0.1l0.5-0.1l0.4-0.1l0.5-0.1l0.8-0.1l1.1-0.2l0,0l0.3-0.1l0.6-0.1
				l0.7-0.1l0,0l0.4-0.1l0.4-0.1h0.2l0.8-0.2l0,0c0,0,0.3-0.1,0.4-0.1l0.7-0.2l1.2-0.3l1.6-0.4h0.2l0.3-0.1l0.4-0.1l1.3-0.4l0.5-0.1
				l0,0h0.1l0.3-0.1l0,0l0.8-0.2l0.3-0.1h0.1l1-0.3l0.3-0.1l0.7-0.2c0.3-0.1,0.7-0.2,1-0.3l0.5-0.2l0.7-0.3l0.2-0.1h0.2l0,0l0.3-0.1
				l0.4-0.1l0.3-0.1l1-0.3l0.3-0.1h0.1l0.8-0.3h0.1l0,0l0.3-0.1l0.6-0.2c0.1,0,0.2-0.1,0.3-0.1l0.2-0.1h0.2l0.6-0.2l0.9-0.4l0,0
				c0.1,0,0.2-0.1,0.3-0.1l0.2-0.1l1.1-0.4l0.3-0.1l0.4-0.1l0.8-0.3l0,0l0.2-0.1l0.2-0.1l0.7-0.3l0.4-0.1l0.3-0.1l0.5-0.2l0.5-0.2
				l0.2-0.1l0,0l0,0h0.1h0.1l1-0.4l0.4-0.2l1-0.4l0.4-0.2l0,0l0.3-0.1l0.6-0.3l0.6-0.3l0.4-0.2l0.3-0.1l0.2-0.1l0.3-0.1l0.4-0.2l0,0
				l0,0l0.8-0.3l0.6-0.3l0.6-0.3l0.2-0.1l0.7-0.3l0,0l0.5-0.2l0.6-0.3l0.5-0.2l0.9-0.4l1-0.4l0.2-0.1l0.3-0.2l0.3-0.1l1.2-0.6
				l0.4-0.2l0.2-0.1l0,0h0.1l0.4-0.2l0.5-0.2l0.5-0.3l0.5-0.2l1-0.5l0,0l0.2-0.1l1.3-0.6l0.9-0.4l0.6-0.3l0,0l0.7-0.3l0,0l0.2-0.1
				l0.3-0.1l0.6-0.3l0.2-0.1l0.4-0.2l0.6-0.3l0,0h0.1l1-0.5l0.5-0.2l0,0l1.1-0.6l0.2-0.1l0,0l0,0l0.2-0.1l0.8-0.4l1.1-0.6l0.4-0.2
				l1.3-0.6l1.2-0.6l0.8-0.4l0,0l0.5-0.2l4.6-2.3l0.6-0.3l0.5-0.3c1.7-0.9,3.4-1.7,5.1-2.5l2.4-1.2l1.2-0.6l2.3-1.1l1.5-0.7l1.2-0.6
				c1.1-0.5,2.1-1,3.2-1.5l2-0.9l0.8-0.4l1.6-0.7l0.7-0.3l1.6-0.8l1.1-0.5l1.1-0.5c1.7-0.8,3.4-1.4,5.1-2.1h0.1l0.6-0.3l0.3-0.1
				l0.6-0.2l0.7-0.3l0.6-0.3l0.3-0.1l0.9-0.3l1-0.4l0.9-0.4h0.1c2-0.8,4-1.4,5.9-2.1l0.2-0.1l0.4-0.1l0.5-0.1l0.4-0.1l0.6-0.2
				l0.5-0.1l0.6-0.2l0.2-0.1h0.2l0.9-0.3l0.2-0.1c3-0.9,6.1-1.6,9.2-2.2c1.4-0.2,2.6-0.5,3.7-0.8l0.5-0.1c0.8-0.2,1.6-0.5,2.4-0.9
				l0.3-0.2c0.5-0.2,1-0.6,1.4-1c0,0,0,0,0-0.1c0.2-0.3,0.4-0.6,0.4-1C1616.4,189.6,1616.6,189.5,1616.7,189.3z M1866.5,41.5
				c-0.3-2-0.7-4-1.1-5.9c0-0.2,0-0.4-0.1-0.5c0,0,0-0.1,0-0.1c-2.2-9-6.3-16.5-13.3-21.4l0,0c-0.9-0.7-1.9-1.3-2.9-1.8
				c-1.5-1.6-3.2-3.1-5-4.4c-0.4-0.3-0.8-0.6-1.2-0.8l-0.3-0.2l-0.1-0.1c-0.1,0-0.1-0.1-0.2-0.1c-1.5-1-3.1-1.9-4.8-2.6l-0.6-0.3
				c-0.3-0.1-0.6-0.2-0.9-0.3l-0.4-0.2l-0.1-0.1c-0.2-0.1-0.5-0.1-0.7-0.2c-1.1-0.4-2.3-0.7-3.5-1c-0.4-0.1-0.8-0.2-1.2-0.3l0,0
				c-0.1,0-0.1,0-0.2-0.1h-0.1h-0.2c-1.6-0.3-3.1-0.5-4.7-0.7h-0.4h-0.5h-0.2c-0.1,0-0.2,0-0.3,0c-0.2,0-0.5,0-0.7,0s-0.2,0-0.3,0
				c-0.7,0-1.4-0.1-2.2-0.1l0,0h-0.6h-1h-1l-1.2,0.1l0,0c-0.2,0-0.3,0-0.5,0h-0.3c-0.2,0-0.5,0.1-0.7,0.1h-0.1
				c-0.7,0-1.4,0.1-2.2,0.2l-0.8,0.1l0,0c-0.1,0-0.3,0.1-0.4,0.1c-0.1,0-0.1,0-0.2,0c-0.4,0.1-0.8,0.1-1.2,0.2l-0.6,0.1l-0.6,0.1
				l-1,0.1l0,0h-0.2l-1.2,0.2c-0.4,0.1-0.7,0.1-1.1,0.2l-0.3,0.1l-0.5,0.1l-0.6,0.1l0,0h-0.1l-0.9,0.2l-0.9,0.2l-0.3,0.1l-0.3,0.1
				l-0.6,0.2l-1.1,0.3l-1.3,0.3c-0.2,0.1-0.4,0.1-0.6,0.2l-0.3,0.1l-0.9,0.2l0,0l-0.6,0.2l-0.9,0.2l-0.3,0.1l-0.5,0.1l-0.8,0.2
				l-0.6,0.2l0,0h-0.2l-0.3,0.1l-1,0.3l-0.4,0.1l-0.6,0.2l-1,0.3h-0.1l0,0h-0.2l-0.9,0.3l-0.8,0.2l-0.7,0.2l-1,0.3l0,0h-0.1l0,0
				l-0.5,0.2l-0.6,0.2l-0.4,0.1l-0.9,0.3l-0.3,0.1l-0.2,0.1l-0.6,0.2l0,0l-0.3,0.1l-0.3,0.1l-1.1,0.4l-0.9,0.3h-0.1l-0.5,0.2
				l-0.5,0.2l0,0l-1.1,0.4l-0.6,0.2l-0.7,0.2l-0.3,0.1l-0.8,0.3h-0.1l0,0l-1.6,0.6l-0.7,0.2h-0.1h-0.1l-0.7,0.2h-0.1l-3.1,1.1
				l-2.5,0.9l-2.1,0.7l-2.4,0.8l-0.8,0.3c-1.9,0.6-3.8,1.3-5.7,1.9l-0.2,0.1l-2,0.7l-0.9,0.3l-1.3,0.4l-0.3,0.1l-1,0.3l-0.6,0.2
				l-0.2,0.1c-2,0.6-4,1.1-5.9,1.6l0,0l-1.4,0.4h-0.2l-1.2,0.3l-0.3,0.1l-0.9,0.2c-1,0.2-1.9,0.4-2.9,0.6c-2.8,0.6-5.6,1.2-8.3,1.5
				h-0.4c-0.7,0.1-1.3,0.2-2,0.3l0,0l-0.7,0.1c-1,0.1-2,0.3-2.9,0.5c-0.2,0-0.5,0.1-0.7,0.1s-0.3,0.1-0.6,0.1h-0.1l-0.5,0.1l0,0
				l-0.2,0.1c-1.1,0.2-2.1,0.5-3.2,0.9l-0.2,0.1h-0.1h-0.1c-0.1,0-0.2,0.1-0.3,0.1c-0.2,0.1-0.4,0.2-0.6,0.3l0,0
				c-0.2,0.1-0.4,0.2-0.6,0.3c-0.4,0.2-0.8,0.4-1.2,0.6l-0.3,0.2l-0.2,0.1l-0.1,0.1c0,0-0.1,0.1-0.1,0.1l0,0l-0.3,0.2
				c-0.3,0.2-0.5,0.4-0.8,0.6l0,0c-0.1,0.1-0.1,0.2-0.2,0.2c-0.1,0.1-0.2,0.3-0.3,0.4l0,0c-0.1,0.1-0.1,0.1-0.2,0.2l-0.1,0.1v0.1
				c-0.1,0.2-0.2,0.4-0.3,0.5s-0.1,0.3-0.2,0.4v0.1c0,0,0,0.1,0,0.2s0,0.2,0,0.4v0.2c0,0,0,0,0,0.1s0,0,0,0.1l0,0c0,0,0,0.1,0,0.1
				l0,0c0,0.1,0,0.2,0,0.3v0.1c0,0,0,0,0,0.1c0,0.1,0,0.1,0,0.1s0,0.1,0,0.2c0.1,0.3,0.2,0.6,0.3,0.9c0,0,0,0.1,0,0.1l0,0l0,0v0.1
				l0.1,0.1c0,0.1,0.1,0.2,0.2,0.3v0.1l0.3,0.4c0.2,0.2,0.3,0.4,0.5,0.6l0.1,0.1l0.3,0.2l0.2,0.2l0.3,0.3l0.2,0.3l0.1,0.1l0.4,0.3
				l0.3,0.3l0.6,0.5l0.4,0.3l0.1,0.1l0.3,0.2l0.3,0.2l0.1,0.1l0.3,0.2l0.3,0.2l0.6,0.3c0.3,0.2,0.7,0.4,1.1,0.7l0.7,0.4l0.2,0.1
				l0.3,0.2l0.3,0.1h0.1l0,0l0.2,0.1l0.4,0.2l0.7,0.3c0.4,0.2,0.9,0.5,1.4,0.7l0.2,0.1c0.1,0,0.2,0.1,0.3,0.1l0.2,0.1h0.1h0.1l0,0
				l0.3,0.1h0.1l0.7,0.3l0.4,0.2l0.7,0.3l0.6,0.2l0.8,0.3l0.8,0.3l0,0l0.2,0.1l0.5,0.2l0.4,0.2l0.3,0.1c0.1,0,0.3,0.1,0.4,0.1
				l0.7,0.3l0.7,0.3h0.1l0.6,0.2l0.9,0.3h0.2l0.9,0.3l0.3,0.1l0.7,0.2l0.9,0.3l0.2,0.1c0.4,0.1,0.8,0.3,1.3,0.4l0.3,0.1l0.6,0.2
				l0.7,0.2l0.6,0.2l0.6,0.2l0.3,0.1l0,0l0.4,0.1h0.2l1.1,0.3l0.8,0.2l1.1,0.3l1.3,0.3l1.1,0.3l0.6,0.2l0.5,0.1l0.5,0.1l0,0l0.8,0.2
				l1.7,0.4l0.3,0.1c0.4,0.1,0.7,0.2,1.1,0.3l0.8,0.2l0.9,0.2l0.7,0.2l0,0l1.9,1.1c0.3,0.1,0.7,0.2,1,0.2l1.2,0.2
				c0.6,0.1,1.1,0.2,1.7,0.3l0,0l2.6,0.5l2.3,0.4l0.5,0.1l0,0c0.5,0.1,1.1,0.2,1.6,0.2s1.2,0.2,1.8,0.3l1.2,0.2l0.5,0.1l0,0
				c1.1,0.2,2.2,0.3,3.3,0.5c2.8,0.4,5.6,1,8.3,1.8c0.6,0.2,1.1,0.3,1.7,0.5c0.4,0.1,0.7,0.3,1.1,0.4s0.9,0.4,1.4,0.5
				c1.5,0.5,3,1,4.4,1.7l0.2,0.1c1,0.5,1.9,1,2.8,1.6c1.4,0.8,2.8,1.5,4.1,2.4l0.5,0.3c0.9,0.6,1.7,1.3,2.5,1.9c1.2,1,2.5,1.9,3.6,3
				c0.4,0.4,0.8,0.8,1.2,1.2l0,0c1.5,1.5,2.9,3.1,4.3,4.7c0.3,0.3,0.5,0.7,0.8,1s0.4,0.6,0.6,0.8c1.2,1.5,2.3,3.1,3.3,4.8
				c0.4,0.6,0.8,1.2,1.1,1.8c1.2,2.1,2.4,4.2,3.4,6.4c0.2,0.3,0.3,0.7,0.4,1c0.9,2,1.7,4,2.4,6c0.3,0.7,0.5,1.4,0.8,2.2
				c0.7,2,1.3,4.1,1.9,6.2c0.1,0.4,0.2,0.7,0.3,1.1c0.6,2.4,1.2,4.9,1.7,7.4c0.1,0.7,0.3,1.5,0.4,2.2c0.4,2,0.7,4,0.9,6
				c0.1,0.6,0.2,1.2,0.2,1.8c0.3,2.5,0.5,5,0.7,7.5c0,0.6,0.1,1.3,0.1,1.9c0.1,2,0.2,4,0.2,5.9c0,0.6,0,1.3,0,1.9
				c0,2.4,0,4.8-0.1,7.2l-0.1,1.2c-0.1,2-0.2,4-0.4,5.9c-0.1,0.6-0.1,1.2-0.2,1.8c-0.2,2.2-0.4,4.4-0.7,6.5c-0.6,4.5-1.4,9-2.3,13.6
				c0,0.2-0.1,0.4-0.1,0.6c-0.3,1.7-0.7,3.3-1,5c-0.7,3.2-1.3,6.5-2,9.6l0,0c-0.1,0.5-0.2,1-0.3,1.6c-0.3,1.5-0.6,3-1,4.5l-0.2,0.9
				c0,0.1,0,0.1,0,0.2l-0.2,1.1c-0.2,1-0.4,1.9-0.6,2.9c0,0.1-0.1,0.3-0.1,0.4l-0.2,1l-0.1,0.6c-0.1,0.4-0.2,0.8-0.2,1.1
				c0,0,0,0,0,0.1c-0.3,1.4-0.5,2.7-0.7,4c0,0.2-0.1,0.4-0.1,0.6s-0.1,0.4-0.1,0.6l-0.1,0.3l0,0c-0.1,0.9-0.3,1.7-0.4,2.5
				c0,0.2,0,0.4-0.1,0.6s0,0.3-0.1,0.4s-0.1,0.5-0.1,0.7s-0.1,0.5-0.1,0.7c-0.1,0.6-0.1,1.2-0.2,1.8c0,0.3-0.1,0.6-0.1,0.8v0.3
				c0,0.2,0,0.3-0.1,0.5s0,0.6-0.1,0.9c0,0.1,0,0.3,0,0.4s0,0.2,0,0.3c0,0.1,0,0.1,0,0.2l0,0l0,0c0,0.1,0,0.1,0,0.2
				c0,0.3,0,0.6,0,0.9s0,0.5,0,0.7s0,0.4,0,0.6s0,0.5,0,0.7s0,0.5,0,0.7c0,0.1,0,0.1,0,0.2c0,0.3,0,0.5,0.1,0.8s0,0.4,0,0.5l0.1,0.4
				c0,0.2,0,0.5,0.1,0.7l0,0l0.1,0.3c0.1,0.2,0.1,0.4,0.2,0.6s0.1,0.4,0.2,0.6s0.1,0.3,0.2,0.4s0.2,0.4,0.3,0.6s0.1,0.3,0.2,0.4
				s0.1,0.1,0.1,0.1s0.2,0.2,0.3,0.3s0.1,0.1,0.2,0.2c0.2,0.1,0.4,0.2,0.6,0.3l0.1,0.1c0.2,0.1,0.3,0.2,0.5,0.3c0.1,0,0.3,0,0.4,0
				c0.3,0,0.7,0,1,0c0.2,0,0.5,0,0.7,0l0,0c0.2,0,0.5-0.1,0.8-0.2c0.6-0.2,1.1-0.4,1.7-0.6c0.6-0.2,1.2-0.5,1.7-0.8
				c0.2-0.1,0.3-0.1,0.5-0.2l0.1-0.1c1.1-0.6,2.1-1.2,3.1-1.9l0.2-0.1l2.2-1.6l0,0c1-0.8,2.1-1.5,3.1-2.3l1.3-1.1
				c0.3-0.2,0.6-0.5,0.9-0.7c0.1-0.1,0.2-0.1,0.3-0.2s0,0,0,0c0.9-0.8,1.8-1.5,2.6-2.3c0.4-0.3,0.8-0.7,1.2-1c0.5-0.5,1-1,1.5-1.5
				c0.2-0.1,0.3-0.3,0.5-0.4c0,0,0-0.1,0-0.1c0.7-0.7,1.5-1.5,2.1-2.2c0.2-0.3,0.4-0.5,0.6-0.7c1.1-1.2,2.1-2.5,3-3.8
				c0.2-0.2,0.3-0.4,0.5-0.6v-0.1c0.3-0.4,0.6-0.8,0.9-1.2c4.9-7.5,7.7-16.1,8.7-27.1c0.4-4.5,0.5-9,0.3-13.5l0,0
				c0-0.6-0.1-1.3-0.1-1.9c-0.1-1.5-0.1-3.1-0.2-4.7c0-0.1,0-0.3,0-0.4c-0.2-2.2-0.3-4.4-0.6-6.8c0-0.1,0-0.1,0-0.2
				c-0.3-2.6-0.3-5.4-0.3-8.3c0-0.3,0-0.5,0-0.8v-0.1c0-0.4,0-0.8,0-1.1s0-0.8,0-1.1c0-0.2,0-0.4,0-0.6c0.1-2,0.2-4,0.3-6.1
				c0-0.4,0.1-0.9,0.1-1.3c0.1-0.7,0.1-1.5,0.2-2.2c0-0.4,0.1-0.9,0.1-1.3c0.2-2.1,0.4-4.2,0.7-6.3c0.1-1,0.2-2,0.4-3
				c0.1-0.6,0.2-1.3,0.3-1.9c0.3-2.3,0.6-4.6,0.9-6.9c0.2-1,0.3-2.1,0.4-3.1c0.1-0.7,0.2-1.4,0.3-2.2c0.1-0.9,0.3-1.8,0.4-2.7
				c0.2-1.4,0.4-2.7,0.6-4.1l0.3-2.1c0-0.4,0.1-0.7,0.2-1.1l0.4-2.9c0-0.3,0.1-0.5,0.1-0.8l0.1-0.7c0-0.1,0-0.2,0.1-0.4s0-0.1,0-0.1
				l0,0c0-0.2,0-0.4,0.1-0.5v-0.2c0.2-1.3,0.4-2.7,0.5-4c0-0.3,0.1-0.7,0.1-1c0-0.1,0-0.1,0-0.2l0.3-2.1c0,0,0,0,0-0.1l0,0
				c0.2-1.6,0.4-3.2,0.6-4.8c0-0.1,0-0.1,0-0.2c0,0,0-0.1,0-0.1v-0.3v-0.3c0-0.4,0.1-0.8,0.1-1.3c0-0.3,0.1-0.5,0.1-0.8l0,0
				c0.1-1,0.2-1.9,0.3-2.8c0-0.3,0-0.6,0.1-0.9s0-0.4,0-0.6s0-0.5,0.1-0.8s0-0.3,0-0.5c0-0.1,0-0.2,0-0.3c0.1-0.6,0.1-1.3,0.2-1.9
				l0,0l0.1-1c0-0.5,0.1-0.9,0.1-1.4l0.1-0.9c0-0.8,0.1-1.6,0.1-2.3c0-0.3,0-0.6,0-0.9c0-0.1,0-0.2,0-0.3c0-0.3,0-0.6,0-1l0,0
				c0-0.9,0.1-1.8,0.1-2.8c0-0.4,0-0.8,0-1.2v-1.6v-0.4c0-0.5,0-1.1,0-1.6v-0.6l0,0v-1.3c0-0.4,0-0.8,0-1.1c0-0.8-0.1-1.5-0.1-2.3
				c0-0.3,0-0.7-0.1-1c-0.1-0.9-0.1-1.8-0.2-2.7c0,0,0,0,0-0.1l0,0c-0.1-1.2-0.2-2.3-0.4-3.4L1866.5,41.5z M1796,126.6
				c0-0.1-0.1-0.3-0.1-0.4s0-0.1,0-0.1c-0.1-0.2-0.2-0.3-0.3-0.5c-0.1-0.2-0.2-0.4-0.4-0.5c-0.1-0.2-0.3-0.3-0.4-0.4
				c-0.1-0.1-0.2-0.2-0.4-0.2c-0.1-0.1-0.3-0.2-0.4-0.3c-0.3-0.1-0.7-0.2-1-0.2c-0.1,0-0.2-0.1-0.3-0.1h-0.2h-0.1l0,0h-0.1
				c-0.7,0-1.3,0.2-1.9,0.3c-0.2,0-0.3,0.1-0.5,0.2s-0.2,0-0.3,0.1l0,0h-0.1c-0.1,0-0.3,0.1-0.4,0.2c-0.3,0.1-0.7,0.3-1,0.4
				s-0.6,0.3-1,0.5l-0.2,0.1l0,0c-0.1,0-0.1,0.1-0.2,0.1l-0.3,0.1l-0.2,0.1l-0.2,0.1l-0.5,0.3l-1,0.6l-0.2,0.1l0,0l-0.2,0.1
				l-0.2,0.1l-0.3,0.2l-0.3,0.2l-0.8,0.5l-0.7,0.4l-0.3,0.2c-0.1,0.1-0.2,0.1-0.3,0.2l-0.4,0.3c-0.3,0.3-0.7,0.5-1,0.8l-0.1,0.1
				l-0.6,0.5l-0.3,0.2l-0.3,0.2l-0.7,0.5l-0.3,0.3c-0.1,0.1-0.2,0.1-0.2,0.2l-0.6,0.4l0,0l-0.3,0.3l0,0l-0.2,0.2l-0.3,0.3
				c-0.1,0.1-0.3,0.2-0.4,0.3l-0.2,0.2l-0.7,0.6l-0.3,0.2l0,0l-0.1,0.1l-0.2,0.2l-0.7,0.6c-0.1,0.1-0.2,0.2-0.3,0.2l0,0l-0.1,0.1
				l-0.2,0.2l-0.3,0.3l-0.2,0.2l-0.7,0.6l-0.7,0.6l-0.1,0.1l-0.2,0.2l-0.4,0.3l-0.7,0.6l-0.1,0.1l-0.2,0.1l-0.3,0.2l-0.4,0.4
				l-0.2,0.2l-0.1,0.1l-0.5,0.5l-0.4,0.4c-0.2,0.1-0.3,0.3-0.5,0.4l0,0l-0.1,0.1l-0.1,0.1l-0.6,0.6l-0.4,0.3l-0.5,0.5l-0.1,0.1
				l-0.3,0.2l-0.4,0.4l0,0l-0.1,0.1l0,0l-0.2,0.2l-0.3,0.2l-0.5,0.5c-0.1,0.1-0.2,0.2-0.3,0.3l-0.4,0.4l-0.2,0.2l-0.2,0.2l-0.4,0.4
				l0,0l-2.6,2.4c-0.1,0.1-0.3,0.3-0.4,0.4c-0.9,0.8-1.8,1.7-2.8,2.6c-0.4,0.4-0.8,0.7-1.3,1.1l0,0c-0.8,0.7-1.7,1.4-2.6,2.2
				l-1.6,1.3c-0.9,0.7-1.8,1.5-2.8,2.2h-0.1c-0.6,0.4-1.2,0.9-1.8,1.4c-1,0.8-2,1.5-3.1,2.3c-0.7,0.5-1.5,1-2.2,1.6
				c-1.1,0.8-2.2,1.5-3.4,2.3l-2.6,1.7c-1.2,0.8-2.4,1.6-3.7,2.4c-1,0.6-1.9,1.2-2.9,1.8c-1.3,0.8-2.6,1.6-4,2.4l-3.3,1.9
				c-1.4,0.8-2.8,1.6-4.3,2.4c-1.2,0.7-2.4,1.3-3.7,2c-1.5,0.8-3.1,1.6-4.7,2.5c-1.3,0.7-2.7,1.4-4.1,2.1c-1.7,0.8-3.4,1.7-5.1,2.5
				c-1.5,0.7-3,1.4-4.5,2.1l-2.2,1l-3.4,1.5c-1.6,0.7-3.2,1.5-4.9,2.2c-1,0.4-2.1,0.9-3.1,1.3l-3,1.3c-1.8,0.7-3.5,1.5-5.3,2.2
				c-2.2,0.9-4.5,1.8-6.7,2.6c-1.9,0.7-3.7,1.5-5.7,2.2l-1.2,0.4c-2.1,0.8-4.3,1.6-6.4,2.4c-1.9,0.7-3.8,1.4-5.8,2.1
				c-3,1-6.1,2.1-9.2,3.1c-1.8,0.6-3.4,1.2-5.2,1.8c-5,1.6-10.1,3.3-15.5,4.9l-3.8,1.2l0,0l-2.2,0.7l-0.5,0.2l-0.4,0.1h-0.1
				l-0.2,0.1l-0.3,0.1l-0.2,0.1l-0.2,0.1l-0.3,0.1l-0.5,0.2l-0.5,0.1l-0.4,0.1l-0.5,0.2h-0.1l-0.5,0.1h-0.1l-0.4,0.1l-0.4,0.1
				l-0.6,0.2l-0.4,0.1l-0.7,0.2l-0.6,0.2l-0.5,0.1l-0.2,0.1l-0.3,0.1l-0.3,0.1l-0.5,0.2l-0.7,0.2l-0.6,0.2l-0.6,0.2l-0.3,0.1
				l-0.6,0.2l-0.4,0.1l-0.3,0.1l-0.2,0.1l0,0l-0.2,0.1l-0.5,0.2l-0.9,0.3l0,0c-0.1,0-0.2,0.1-0.4,0.1l-0.6,0.2h-0.1h-0.1h-0.2l0,0
				l-0.2,0.1l-0.6,0.2l-0.7,0.3l0,0l-1,0.4l-0.3,0.1l-0.5,0.2l-0.8,0.3l-0.4,0.1l-0.6,0.2l-0.3,0.1h-0.1l-0.2,0.1l-0.1,0.1l-0.2,0.1
				l0,0l-0.5,0.2l-0.3,0.1l-0.4,0.2l-0.3,0.1h-0.1l-0.2,0.1l-0.9,0.4h-0.1l0,0h-0.1l-0.5,0.2l-0.3,0.1l-0.3,0.1l-0.4,0.2l-0.7,0.3
				l-1.1,0.4l-0.2,0.1c0,0-0.1,0-0.1,0l-0.4,0.2h-0.1l-0.7,0.3l-0.6,0.2h-0.1l0,0l-0.2,0.1l-0.3,0.1l-0.6,0.2h-0.1l-0.1,0.1
				l-0.4,0.2l-0.8,0.3l-0.4,0.2l0,0l-0.5,0.2h-0.1l-0.4,0.1h-0.1l-0.7,0.3l-0.2,0.1l-0.4,0.2l-0.3,0.1l-0.1,0.1l0,0l-0.7,0.3l-1,0.5
				l-0.2,0.1l-0.3,0.1l-0.7,0.3l0,0l-0.2,0.1l-0.3,0.2l-0.7,0.4c-0.2,0.1-0.3,0.1-0.5,0.2l-0.4,0.2l-0.2,0.1l0,0l-0.4,0.2l-0.7,0.4
				l-0.3,0.1l-0.4,0.2l-0.3,0.2l-0.3,0.2l-0.2,0.1l0,0l-0.1,0.1l-0.8,0.4l-0.6,0.4l-0.4,0.2l-0.1,0.1l-0.4,0.3h-0.1l0,0l-0.4,0.3
				c-0.2,0.1-0.3,0.2-0.5,0.3l-0.3,0.2h-0.1l-0.3,0.2c-0.3,0.2-0.6,0.4-0.8,0.6l0,0l-0.2,0.2c0,0-0.1,0.1-0.1,0.1
				c-0.2,0.2-0.3,0.3-0.4,0.4l-0.1,0.1c-0.2,0.2-0.3,0.3-0.4,0.5s-0.2,0.3-0.3,0.4c-0.1,0.1-0.2,0.2-0.3,0.4l0,0
				c0,0.1-0.1,0.1-0.1,0.2c-0.1,0.1-0.1,0.3-0.2,0.4c-0.1,0.2-0.1,0.3-0.2,0.5c0,0.1,0,0.3,0,0.4c0,0.3,0.1,0.6,0.2,0.8
				c0.1,0.1,0.1,0.2,0.2,0.4s0.2,0.2,0.4,0.3s0.3,0.2,0.4,0.4s0.3,0.2,0.5,0.3s0.3,0.2,0.6,0.3s0.4,0.2,0.6,0.3s0.5,0.2,0.7,0.3
				s0.5,0.1,0.8,0.2l0,0l0,0h0.1l0.7,0.2l0.9,0.2l1,0.2h0.1l0.9,0.1l0.9,0.1h0.3l1,0.1h0.3l1.1,0.1l1.2,0.1h0.6l0,0h0.7h0.3h0.6l0,0
				h0.5h1.6h0.5h5.7h1.2h0.4h1h0.6h0.7h0.7l1.7-0.1h0.2h0.3h0.1h0.9h0.2h0.4h0.4h0.1h0.6h0.6h0.2l1-0.1c1.2-0.1,2.3-0.2,3.6-0.3
				s2.8-0.1,4.1-0.2c2.5-0.1,5-0.2,7.7-0.2c2.1,0,4.2,0.1,6.3,0.1c1.9,0.1,3.8,0.1,5.8,0.2h0.2c2.3,0.1,4.6,0.3,7,0.4l0.8,0.1
				c3.4,0.2,6.9,0.5,10.4,0.8l2.7,0.2l4.2,0.4c4.1,0.4,8.2,0.8,12.4,1.2l5.6,0.6l5.3,0.5h0.3l0,0h0.3l1,0.1l0.9,0.1l0.9,0.1l1.1,0.1
				h0.3l0.6,0.1l2.2,0.2h0.4h0.4l0,0h0.6l1.3,0.1l1.6,0.1h0.3l0.7,0.1l0.9,0.1l2.2,0.2h0.4h0.2l1.2,0.1l1.6,0.1l1.1,0.1l1.6,0.1h0.3
				h0.3h0.5h0.3l1.7,0.1l0.8,0.1h0.3l0,0l0.8,0.1l1.3,0.1l1.3,0.1l2.1,0.1h0.1h0.4l1.2,0.1l1.1,0.1h0.2l1.6,0.1l0.9,0.1h0.3h0.8
				l2,0.1h1.1h0.4l0,0h0.5h1h2.2c0.4,0,0.8,0,1.3,0h1.8l0,0h0.3c0.7,0,1.3,0,2,0h1.2h0.4h1.3h1.1l0,0h1c0.5,0,1,0,1.5-0.1l2.2-0.1
				h1.4h0.4l1.4-0.1l1.9-0.1l1.1-0.1c0.3,0,0.7,0,1-0.1h0.1l0.5-0.1c0.9-0.1,1.9-0.1,2.8-0.2l1.2-0.2c0.4,0,0.9-0.1,1.3-0.1l0,0h0.5
				c1.8-0.2,3.6-0.5,5.3-0.8h0.2c1.4-0.2,2.9-0.6,4.3-1c0.4-0.1,0.8-0.3,1.2-0.4s0.6-0.2,0.9-0.3h0.1l0,0h0.1
				c0.6-0.2,1.1-0.4,1.7-0.7s0.9-0.4,1.4-0.6c0.6-0.3,1.3-0.6,1.8-0.9c0.2-0.1,0.4-0.3,0.7-0.4c0.4-0.2,0.8-0.5,1.2-0.8
				c0.8-0.5,1.6-1.1,2.4-1.7c0.2-0.2,0.5-0.3,0.7-0.5v-0.1l0.6-0.4c1.4-1.1,2.7-2.4,4-3.7c0.3-0.3,0.5-0.6,0.8-0.9
				c1.2-1.3,2.3-2.6,3.4-4c0.1-0.2,0.3-0.3,0.4-0.5c1.2-1.6,2.3-3.2,3.4-4.9c0.2-0.4,0.4-0.7,0.7-1.1c0.9-1.4,1.7-2.9,2.5-4.5v-0.1
				c0-0.1,0-0.1,0.1-0.2l0.4-0.8l0.1-0.1c0.7-1.4,1.4-2.8,2-4.3l0.2-0.4c0.2-0.4,0.3-0.8,0.5-1.2c0.1-0.2,0.2-0.4,0.3-0.6l0.1-0.3
				c0.4-0.9,0.7-1.8,1.1-2.8c0.2-0.4,0.3-0.7,0.4-1.1c0.6-1.6,1.1-3.2,1.7-4.8c0.1-0.2,0.2-0.5,0.2-0.7c0.6-1.9,1.2-3.9,1.7-5.9
				c0,0,0,0,0-0.1l0,0c0,0,0-0.1,0.1-0.2c0.5-1.8,0.9-3.6,1.4-5.5c0-0.2,0.1-0.4,0.1-0.6s0-0.2,0.1-0.4s0-0.1,0-0.2
				c0.2-0.8,0.4-1.6,0.6-2.5c0-0.1,0.1-0.2,0.1-0.3c0.2-0.8,0.3-1.6,0.5-2.4c0-0.3,0.1-0.5,0.2-0.8c0.3-1.7,0.7-3.4,1-5.2
				c0,0,0,0,0-0.1c0-0.3,0.1-0.6,0.1-0.9c0-0.1,0-0.2,0-0.3c0.3-1.9,0.6-3.7,0.8-5.6l0.2-1.1c0.1-0.8,0.2-1.6,0.3-2.5V173
				c0-0.2,0.1-0.5,0.1-0.7l0.1-0.5c0-0.4,0.1-0.7,0.1-1.1l0.1-0.9c0.2-2,0.4-4,0.6-5.9c0.2-2.9,0-0.1,0-0.1c0.1-0.9,0.1-1.8,0.2-2.7
				c0-0.1,0-0.3,0-0.5c0-0.8,0.1-1.5,0.1-2.3c0-0.4,0-0.7,0.1-1c0-0.8,0.1-1.6,0.1-2.3l0,0c0-0.7,0.1-1.5,0.1-2.2c0-0.3,0-0.6,0-1
				c0-0.5,0-1,0-1.5v-0.4c0.1-2.9,0.1-5.6,0.1-8.2c0-0.3,0-0.6,0-1s0-0.4,0-0.6c0-1,0-2-0.1-3c0-0.4,0-0.8,0-1.1
				c0-1.4-0.1-2.7-0.2-4l0,0l0,0c0.2-1.3,0.3-2.6,0.2-3.9c0-0.1,0-0.2,0-0.3l0,0c0-0.3-0.1-0.4-0.1-0.7c-0.1-0.6-0.2-1.2-0.4-1.8
				L1796,126.6z M1924.4,149.3c-0.3-0.6-0.6-1.3-0.9-1.9l0,0l0,0c0,0-0.1-0.1-0.1-0.2c-0.2-0.3-0.3-0.6-0.4-0.9l-0.4-0.7
				c-0.4-0.8-0.8-1.5-1.1-2.3s-0.6-1.2-1-1.8l-0.3-0.5l0,0c-0.3-0.5-0.6-1-0.9-1.5s-0.6-1-0.8-1.5c-0.2-0.3-0.3-0.6-0.5-0.8
				c0-0.1-0.1-0.2-0.1-0.2l-0.4-0.7l-0.7-1.1l0,0c-0.2-0.4-0.5-0.7-0.7-1.1c0,0,0,0,0-0.1l-0.4-0.7c-0.1-0.1-0.1-0.2-0.2-0.3
				s-0.1-0.2-0.2-0.3l-0.3-0.4c-0.2-0.3-0.3-0.5-0.5-0.8s-0.3-0.4-0.4-0.6l-0.3-0.4l-0.2-0.3c-0.1-0.1-0.1-0.2-0.2-0.2l0,0l-0.1-0.1
				c-0.1-0.1-0.2-0.3-0.3-0.4c-0.1-0.1-0.1-0.2-0.2-0.3l-0.1-0.1l0,0l-0.5-0.6l-0.3-0.3l0,0c-0.1-1-0.1-2.1-0.2-3.1
				c-1.1-1.1-2.2-2-3.5-2.9V122c-0.5-0.3-1.1-0.6-1.7-0.9c-0.2-0.1-0.3-0.2-0.5-0.3c-0.4-0.1-0.8-0.2-1.2-0.2v-0.1
				c-0.2,0-0.4,0-0.6,0c-0.2,0-0.3,0-0.5,0c-0.1,0-0.2,0-0.3,0c-0.3,0.1-0.7,0.2-1,0.3c-0.2,0.1-0.3,0.1-0.5,0.2l-0.3,0.2l0,0l0,0
				l0,0c0,0-0.1,0.1-0.2,0.2s-0.1,0-0.1,0.1s-0.3,0-0.4,0.1h-0.1h-0.1c-0.1,0-0.1,0.1-0.2,0.1l-0.2,0.1l-0.3,0.2l-0.2,0.1
				c-0.1,0.1-0.1,0.1-0.2,0.2l-0.2,0.1c-0.1,0.1-0.1,0.2-0.2,0.2l-0.2,0.2l-0.1,0.1l0,0c-0.1,0.1-0.1,0.2-0.2,0.3s-0.1,0.1-0.2,0.2
				s-0.1,0.2-0.2,0.3c-0.1,0.1-0.1,0.2-0.2,0.3l-0.2,0.3c0,0.1-0.1,0.2-0.1,0.3s-0.1,0.2-0.1,0.3c0,0.1-0.1,0.1-0.1,0.2
				c0,0.1-0.1,0.2-0.1,0.3s-0.1,0.2-0.1,0.4s-0.1,0.2-0.1,0.3s0,0.2-0.1,0.2s0,0.1,0,0.1c-0.1,0.2-0.1,0.4-0.2,0.6s-0.1,0.4-0.2,0.6
				s-0.1,0.2-0.1,0.3s0,0,0,0.1v0.1v0.2c0,0.1,0,0.3-0.1,0.4s-0.1,0.3-0.1,0.4s0,0.3-0.1,0.5s0,0.4-0.1,0.6s-0.1,0.7-0.1,1.1
				c0,0.2,0,0.3,0,0.5s0,0.1,0,0.2s0,0.2,0,0.3c0,0.1,0,0.2,0,0.3c0,0.1,0,0.2,0,0.3s0,0.2,0,0.3c0,1,0,2.1,0,3.3
				c0.5,15.9,3.5,37.2-2.5,57.1c-2.8,9.7-8,18.5-14.9,25.8c-1.4,1.5-2.9,3-4.4,4.4l-1.7,1.3c-1.1,1.1-2.3,2.2-3.4,3.4l-1.2,1.2
				l-4.2,4l0,0c-4,3.8-8.3,7.8-12.6,12.1l-2.5,2.4c-0.8,0.8-1.7,1.6-2.5,2.5s-1.9,1.9-2.8,2.8s-1.7,1.7-2.5,2.5c-1,1-2,2.1-3,3.1
				l-2.4,2.6c-1.2,1.3-2.4,2.6-3.6,4c-0.7,0.7-1.3,1.4-2,2.1c-1.8,2-3.7,4.1-5.5,6.3c-0.7,0.8-1.3,1.6-2,2.4
				c-1.3,1.5-2.6,3.1-3.9,4.7c-0.8,1-1.6,2-2.3,2.9c-1.3,1.6-2.5,3.2-3.8,4.8c-0.8,1-1.6,2.1-2.4,3.2c-1.3,1.8-2.7,3.6-4.1,5.5
				c-0.7,1-1.4,2-2.2,3c-0.2,0.3-0.5,0.6-0.7,1c-1.8,2.5-3.6,5.1-5.4,7.8l-1,1.5c-1.8,2.7-3.6,5.5-5.4,8.4l-1.6,2.5
				c-2.1,3.4-4.3,6.9-6.5,10.6v0c-0.8,1.4-1.7,2.9-2.6,4.4l-0.3,0.6l-0.3,0.5l-0.2,0.3c-0.1,0.2-0.2,0.4-0.3,0.6v0.1c0,0,0,0,0,0.1
				l-0.6,1c0,0.1-0.1,0.1-0.1,0.2l-0.1,0.2c-0.1,0.2-0.2,0.4-0.3,0.6l-0.2,0.3l-0.3,0.5l-0.2,0.4c-0.3,0.5-0.5,0.9-0.8,1.4l-0.2,0.3
				l-0.1,0.2l-0.3,0.5l-0.2,0.3l-0.4,0.6l0,0l0,0l-0.3,0.5l-0.3,0.5c0,0,0,0.1-0.1,0.1l-0.2,0.4c0,0.1-0.1,0.1-0.1,0.2l-0.4,0.8
				l-0.3,0.5c-0.1,0.1-0.1,0.2-0.2,0.3l-0.2,0.3l-0.5,0.9l-0.2,0.3c-0.1,0.1-0.1,0.2-0.2,0.3l-0.3,0.5l-0.3,0.4l-0.2,0.4l-0.5,0.8
				l-0.4,0.7l0,0l-0.7,1.2l-0.2,0.4v0l-0.2,0.2c-0.1,0.2-0.3,0.5-0.4,0.7v0c0,0,0,0.1-0.1,0.1l-0.3,0.5v0.1l0,0l-0.2,0.4l-0.2,0.3
				c0,0,0,0.1-0.1,0.1c0,0.1-0.1,0.2-0.2,0.3s-0.2,0.4-0.3,0.6c-0.1,0.1-0.1,0.2-0.2,0.3l-0.2,0.4l-0.1,0.1l-0.3,0.5l0,0l-0.4,0.7
				l-0.1,0.2c-0.1,0.1-0.2,0.3-0.3,0.4l-0.3,0.5c0,0.1-0.1,0.1-0.1,0.2c-0.2,0.4-0.4,0.7-0.6,1l-0.1,0.1l-0.2,0.3l-0.4,0.8l-0.2,0.3
				l0,0l-0.4,0.6l-0.1,0.2l0,0c-0.1,0.2-0.2,0.4-0.4,0.7c0,0,0,0.1-0.1,0.1l-0.1,0.3l-0.2,0.4l-0.2,0.3l-0.4,0.7l-0.2,0.4l-0.2,0.4
				c0,0.1-0.1,0.1-0.1,0.2l-0.1,0.2c-0.1,0.2-0.2,0.3-0.3,0.5l-0.1,0.1l-0.2,0.3l-0.4,0.6c-0.1,0.1-0.1,0.2-0.2,0.3l-0.1,0.2
				l-0.2,0.4l-0.4,0.8l-0.2,0.4l-0.1,0.1l-0.3,0.5l0,0l-0.1,0.1l-0.2,0.4l-0.2,0.3l-0.3,0.5c-0.1,0.2-0.2,0.4-0.3,0.6l-0.3,0.6
				l-0.2,0.4l-0.2,0.4c-0.1,0.2-0.2,0.3-0.3,0.5s0,0.1-0.1,0.1l-0.2,0.3l0,0l-0.1,0.2l-0.3,0.5l-0.3,0.5l-0.2,0.3v0l0,0l-0.2,0.4
				l-0.1,0.1c-0.1,0.1-0.1,0.3-0.2,0.4l-0.3,0.6l-0.1,0.2l-0.1,0.2c-0.1,0.1-0.1,0.3-0.2,0.4l-0.2,0.4l0,0v0l-0.2,0.4
				c-0.1,0.1-0.2,0.3-0.3,0.5l-0.2,0.3l-0.2,0.4c-0.1,0.2-0.2,0.3-0.3,0.5l-0.2,0.4l-0.2,0.5l-0.1,0.2l-0.1,0.2l-0.2,0.3l-0.3,0.6
				l-0.4,0.7c0,0,0,0.1-0.1,0.2l-0.3,0.5c-0.2,0.3-0.3,0.6-0.4,0.9l-0.1,0.3c-0.1,0.2-0.2,0.3-0.3,0.5l-0.2,0.3l-0.1,0.2
				c-0.1,0.2-0.2,0.4-0.3,0.6l-0.2,0.4l0,0c-0.1,0.1-0.2,0.3-0.2,0.4l-0.2,0.3l0,0c-0.1,0.1-0.1,0.2-0.1,0.3s-0.1,0.2-0.2,0.3
				l-0.1,0.2l-0.3,0.6c-0.1,0.2-0.2,0.4-0.3,0.5l-0.1,0.3l-0.1,0.2l-0.1,0.1c0,0.1-0.1,0.1-0.1,0.2s-0.1,0.3-0.2,0.4l-0.1,0.1
				c-0.1,0.1-0.1,0.3-0.2,0.4l-0.2,0.3c0,0.1-0.1,0.2-0.1,0.3s-0.2,0.3-0.2,0.5l-0.1,0.2c-0.1,0.3-0.2,0.5-0.4,0.8s-0.1,0.3-0.2,0.4
				s-0.2,0.5-0.3,0.7s-0.1,0.2-0.2,0.3s-0.1,0.2-0.2,0.3s-0.1,0.3-0.2,0.5l-0.2,0.5c-0.1,0.2-0.2,0.3-0.2,0.5s-0.2,0.4-0.3,0.5
				l-0.1,0.1l-0.1,0.3l-0.1,0.2l0,0c-0.1,0.1-0.1,0.2-0.2,0.4c0,0.1,0,0.1-0.1,0.2l-0.4,0.9l-0.2,0.4l0,0c0,0.1-0.1,0.2-0.1,0.3
				s-0.1,0.2-0.1,0.3s-0.1,0.3-0.2,0.4l0,0c-0.2,0.4-0.3,0.8-0.5,1.1c-0.1,0.1-0.1,0.3-0.2,0.4l-0.2,0.3c-0.1,0.1-0.1,0.3-0.2,0.4
				c-0.1,0.3-0.3,0.7-0.4,1l-0.2,0.5l-0.1,0.3l-0.1,0.2c0,0,0,0.1,0,0.1l-0.3,0.6l-0.4,1l-0.2,0.4l-0.1,0.3l-0.1,0.3l-0.1,0.3
				l-0.2,0.4l-0.2,0.6c0,0,0,0.1,0,0.1v0l0,0c-0.1,0.2-0.2,0.5-0.3,0.7l-0.2,0.5c-0.1,0.1-0.1,0.3-0.2,0.4l-0.2,0.4l-0.2,0.5
				l-0.2,0.5l0,0l-0.1,0.3l-0.1,0.1c0,0.1,0,0.1-0.1,0.2l0,0c-0.1,0.3-0.2,0.5-0.3,0.8c0,0.1,0,0.1-0.1,0.2l-0.1,0.3l-0.3,0.8
				c-0.1,0.2-0.2,0.4-0.2,0.6l-0.3,0.7l-0.1,0.3l0,0c-0.1,0.2-0.1,0.4-0.2,0.5l-0.3,0.7l-0.2,0.5l-0.2,0.6l-0.2,0.5
				c0,0.1-0.1,0.2-0.1,0.3s-0.1,0.3-0.2,0.4l0,0l0,0c0,0.1-0.1,0.2-0.1,0.4s-0.2,0.5-0.3,0.7l-0.1,0.3v0.1l-0.1,0.2l0,0
				c-0.1,0.3-0.2,0.6-0.3,1s-0.1,0.4-0.2,0.6s-0.1,0.2-0.1,0.3l0,0l-0.1,0.2c-0.1,0.2-0.1,0.4-0.2,0.6c0,0,0,0,0,0l-0.1,0.2
				c0,0.1,0,0.1-0.1,0.2c-0.1,0.2-0.1,0.4-0.2,0.6l-0.1,0.4c-0.1,0.4-0.2,0.8-0.4,1.1v0.1l0,0c0,0.1,0,0.1-0.1,0.2
				c0,0.1,0,0.2-0.1,0.2s-0.1,0.4-0.2,0.6l-0.1,0.2l-0.1,0.2c-0.1,0.3-0.2,0.5-0.2,0.7c0,0,0,0,0,0.1s0,0.1,0,0.1l-0.1,0.3l-0.1,0.3
				l-0.1,0.2l-0.1,0.2l0,0c0,0.2-0.1,0.4-0.2,0.6v0.1l0,0l0,0c0,0,0,0.1,0,0.2c-0.1,0.2-0.1,0.4-0.2,0.6c-0.1,0.5-0.3,1-0.4,1.5
				c0,0.2-0.1,0.5-0.2,0.7l0,0c0,0.2-0.1,0.4-0.1,0.6c-0.1,0.4-0.2,0.8-0.3,1.1s-0.1,0.6-0.2,0.9c0,0.1,0,0.2-0.1,0.3l0,0v0.2
				c-0.1,0.3-0.1,0.5-0.2,0.8s-0.2,0.8-0.2,1.2v0.1c0,0.1,0,0.1,0,0.2s0,0.3-0.1,0.5s0,0.1,0,0.2s0,0.3-0.1,0.4s-0.1,0.5-0.1,0.8
				s-0.1,0.7-0.1,1c0,0,0,0.1,0,0.1c0,0.2-0.1,0.4-0.1,0.6s0,0.4-0.1,0.5c0,0,0,0.1,0,0.1l0,0v0c0,0,0,0,0,0.1s0,0.3,0,0.4
				c-0.1,0.5-0.1,0.9-0.1,1.4c0,0.3,0,0.6-0.1,0.8s0,0.4-0.1,0.6l0,0l0,0c0,0.1,0,0.1,0,0.2s0,0.1,0,0.1s0,0.2,0,0.2
				c0,0.3,0,0.5,0,0.8s0,0.6,0,0.9s0,0.6,0,0.9c0,0,0,0,0,0.1l0,0c0,0.1,0,0.2,0,0.3v0.2c0,0.1,0,0.3,0,0.4s0,0.2,0,0.4
				c0,0.4,0,0.8,0.1,1.2s0,0.5,0,0.7v0.1l0,0c0,0,0,0.1,0,0.1v0.6v0.3c0,0.1,0,0.1,0,0.2c0,0.3,0.1,0.6,0.1,0.9s0.1,0.5,0.1,0.7
				s0,0.2,0,0.3s0,0.1,0,0.2l0,0l0.1,0.4c0,0,0,0.1,0,0.1c0,0,0,0.1,0,0.1l0.1,0.3c0,0.2,0.1,0.3,0.1,0.5l0.1,0.3l0.2,0.7
				c0,0,0,0,0,0.1c0.1,0.2,0.1,0.5,0.2,0.7l0,0l0,0c0,0.1,0.1,0.3,0.1,0.4s0,0,0,0s0.1,0.3,0.1,0.4l0.1,0.3l0.1,0.3
				c0,0.1,0.1,0.1,0.1,0.2l0.1,0.3l0.3,0.6c0.1,0.3,0.3,0.7,0.4,1s0.2,0.6,0.4,0.8v0.1l0.1,0.1c0.1,0.1,0.2,0.3,0.2,0.4
				s0.3,0.4,0.4,0.6s0,0.1,0.1,0.2c0,0.1,0.1,0.1,0.1,0.2c0,0,0.1,0.1,0.1,0.1l0,0l0.2,0.3c0.1,0.2,0.2,0.4,0.4,0.5s0.2,0.3,0.3,0.4
				s0.3,0.4,0.4,0.6s0.3,0.3,0.4,0.4l0,0c0.3,0.3,0.5,0.6,0.8,1l0.1,0.1c0,0,0.1,0.1,0.1,0.1c0.1,0.1,0.3,0.3,0.4,0.4
				s0.3,0.3,0.5,0.5l0.2,0.2l0.6,0.5l0.6,0.5c0,0,0.1,0.1,0.2,0.1l0,0c0.1,0.1,0.3,0.1,0.4,0.2s0.5,0.4,0.7,0.6
				c0.1,0,0.1,0.1,0.2,0.1l0,0l0.6,0.4l0.3,0.2c0.1,0.1,0.2,0.1,0.3,0.2c0.3,0.2,0.7,0.3,1,0.5s0.4,0.3,0.7,0.4h0.1
				c0.4,0.2,0.8,0.4,1.2,0.6l0.2,0.1c0.1,0,0.1,0,0.2,0.1l0.9,0.3c0.5,0.2,1.1,0.3,1.6,0.5c0.4,0.1,0.7,0.3,1.1,0.4l0.4,0.1
				c0.2,0,0.3,0.1,0.5,0.1h0.1l1.3,0.3c0.5,0.1,1,0.2,1.5,0.3l0.7,0.1c0.5,0.1,1.1,0.1,1.7,0.2l1.4,0.2c0.5,0,1,0.1,1.5,0.1l1.1,0.1
				h0.3h0.1h0.6c0.7,0,1.5,0.1,2.2,0.1l0,0c0.7,0,1.5-0.1,2.3-0.1s1.6,0,2.3-0.1l2.2-0.1l1.3-0.1c1-0.1,2-0.2,3.1-0.3l0.8-0.1
				c0.7-0.1,1.5-0.2,2.3-0.4l0.9-0.1l0.2-0.1c1.6-0.3,3.2-0.5,4.9-0.8l2.6-0.5c1-0.2,2-0.4,3.1-0.6c1.2-0.3,2.6-0.6,3.8-1
				c1-0.2,1.9-0.5,2.9-0.7c3.3-0.9,6.8-1.8,10.5-3c2.3-0.7,4.5-1.5,6.8-2.2l0,0c1.6-0.5,3.3-1,4.8-1.6l0,0
				c34.9-11.9,58.8-25.8,75.4-41l0,0l0.1-0.1c2.3-2.1,4.5-4.3,6.6-6.5l0.3-0.3c1.1-1.1,2.1-2.3,3.1-3.4l0.1-0.1
				c0.3-0.4,0.5-0.7,0.8-1c1.2-1.4,2.4-2.9,3.5-4.4c0.4-0.5,0.8-1.1,1.3-1.7c0.8-1.1,1.5-2.1,2.3-3.2l0,0l0.9-1.4l0.1-0.1
				c0.1-0.1,0.1-0.2,0.2-0.3l0.6-0.9c1.7-2.7,3.3-5.4,4.7-8.2l0.1-0.1c0.1-0.2,0.2-0.4,0.3-0.7l0.6-1.1c0.1-0.2,0.2-0.3,0.3-0.5
				c0.3-0.6,0.6-1.2,0.9-1.9c0.2-0.5,0.4-0.9,0.6-1.4c0.4-0.9,0.8-1.8,1.2-2.7l0,0l0,0c0.3-0.6,0.5-1.2,0.7-1.8l0.3-0.7
				c0.2-0.4,0.3-0.9,0.5-1.3c0.5-1.2,0.9-2.5,1.3-3.7l0,0c0.1-0.3,0.2-0.6,0.3-0.9c0-0.1,0-0.2,0.1-0.3l0.2-0.4
				c0.1-0.2,0.2-0.4,0.2-0.7s0.1-0.2,0.1-0.4c0.3-0.8,0.5-1.6,0.8-2.4c0.1-0.3,0.2-0.6,0.3-1l0.3-1.1l0,0c0-0.2,0.1-0.3,0.1-0.5
				c0.1-0.3,0.2-0.6,0.3-1l0.1-0.3c0.1-0.4,0.2-0.8,0.3-1.1l0.1-0.2l0.2-1c0.1-0.5,0.3-1,0.4-1.5s0.2-0.9,0.3-1.3l0,0
				c0,0,0-0.1,0-0.1c0.1-0.5,0.2-1,0.3-1.5c0-0.2,0.1-0.4,0.1-0.6l0.2-0.7v-0.1c0.1-0.5,0.2-0.9,0.3-1.4c0.2-0.7,0.3-1.5,0.5-2.2
				l0,0c0-0.1,0-0.2,0-0.3s0.1-0.3,0.1-0.4s0.1-0.5,0.2-0.8c0-0.1,0-0.1,0-0.2l0.1-0.6l0.1-0.7c0-0.1,0-0.1,0-0.2
				c0.2-0.9,0.4-1.8,0.5-2.7c0,0,0,0,0-0.1s0-0.3,0.1-0.5c0,0,0-0.1,0-0.1l0,0c0,0,0-0.1,0-0.1s0.1-0.3,0.1-0.4v-0.2
				c0-0.2,0.1-0.5,0.1-0.8c0.1-0.6,0.2-1.1,0.3-1.7l0.2-1c0-0.1,0-0.1,0-0.2c0.1-0.4,0.1-0.8,0.2-1.2l0.2-1.4c0-0.2,0.1-0.5,0.1-0.7
				s0.1-0.7,0.2-1.1s0.1-0.5,0.1-0.8c0.1-0.4,0.1-0.9,0.2-1.3c0-0.2,0-0.4,0.1-0.6s0-0.1,0-0.1l0.2-1.3l0,0c0-0.3,0.1-0.5,0.1-0.8
				c0.1-0.5,0.1-0.9,0.2-1.4s0.1-0.8,0.2-1.1s0.1-0.5,0.1-0.7c0,0,0-0.1,0-0.1c0-0.4,0.1-0.8,0.2-1.2c0.1-0.6,0.2-1.3,0.3-1.9
				c1.1-8,2.1-16,3.4-23.8c0.3-1.8,0.6-3.5,0.8-5.2l0,0c0.1-0.4,0.1-0.7,0.2-1c0.4-2.6,0.8-5.1,1.2-7.6l0,0c0-0.4,0.1-0.7,0.1-1
				c0.4-2.7,0.8-5.4,1.2-8l0,0c0-0.4,0.1-0.7,0.1-1v-0.2l0.3-2.5c0.2-1.8,0.5-3.6,0.7-5.4c0-0.1,0-0.2,0-0.3l0,0l0.1-0.6
				c0-0.1,0-0.1,0-0.2c0.2-1.9,0.5-3.9,0.7-5.8c0-0.4,0.1-0.8,0.1-1.1c0.1-0.7,0.1-1.4,0.2-2.1l0,0c0-0.4,0.1-0.7,0.1-1.1
				c0.1-0.7,0.1-1.4,0.2-2c0-0.2,0.1-0.5,0.1-0.7c0.1-0.8,0.1-1.5,0.2-2.3c0-0.4,0.1-0.8,0.1-1.2c0-0.1,0-0.2,0-0.3v-0.2
				c0.1-0.8,0.1-1.5,0.2-2.3v-0.1c0-0.5,0-1,0.1-1.6c0.1-1,0.1-2,0.2-3c0.1-1.3,0.1-2.5,0.2-3.8c0-0.4,0-0.7,0.1-1.1s0-0.5,0-0.7
				l0,0c0-0.3,0-0.6,0-0.9c0-0.6,0-1.2,0-1.8c0-0.4,0-0.9,0-1.3s0-0.8,0-1.2v-0.5c0-0.5,0-1.1,0-1.6s0-1.1,0-1.7c0-0.4,0-0.8,0-1.2
				l0,0c0-0.6,0-1.2,0-1.8v-0.2c0-0.3,0-0.7,0-1c0,0,0-0.1,0-0.1v-0.4c0-0.4,0-0.9,0-1.3l-0.1-1.6c0-0.6,0-1.1,0-1.7
				c0-0.2,0-0.4,0-0.5l-0.1-1.1V227c0-0.1,0-0.1,0-0.2c0-0.3,0-0.6,0-0.9c0-0.5,0-0.9-0.1-1.4c0-0.3,0-0.6-0.1-0.9v-0.1
				c0-0.7-0.1-1.4-0.2-2.2v-0.1c0-0.4-0.1-0.8-0.1-1.3c-0.1-0.7-0.1-1.4-0.2-2.1v-0.4l0,0v-0.2c0-0.2,0-0.4,0-0.6s0-0.2,0-0.4
				s0-0.5-0.1-0.7c-0.1-0.4-0.1-0.9-0.2-1.3c0-0.1,0-0.3,0-0.4c0-0.5-0.1-1-0.1-1.5c0-0.2,0-0.4-0.1-0.6s0-0.4-0.1-0.6
				c0-0.4-0.1-0.7-0.1-1.1c0-0.2-0.1-0.4-0.1-0.5v-0.1c0-0.3-0.1-0.6-0.1-1c0,0,0-0.1,0-0.1l0,0c0-0.2-0.1-0.4-0.1-0.6v-0.2
				c0-0.2,0-0.4-0.1-0.6c-0.1-0.4-0.2-0.8-0.2-1.2s-0.1-0.9-0.2-1.3l-0.2-1.2c-0.1-0.7-0.2-1.4-0.4-2.1c0-0.2-0.1-0.4-0.1-0.7
				s-0.1-0.4-0.1-0.6l0,0c0,0,0-0.1,0-0.2l-0.2-0.8c-0.1-0.3-0.1-0.6-0.2-0.9l-0.1-0.5l-0.1-0.3c0-0.3-0.1-0.5-0.2-0.8
				s-0.2-0.8-0.3-1.2c-0.1-0.2-0.1-0.4-0.1-0.6s-0.1-0.4-0.1-0.7s-0.2-0.7-0.2-1l-0.1-0.4c0-0.1-0.1-0.3-0.1-0.4s0-0.2-0.1-0.3l0,0
				c-0.1-0.3-0.2-0.5-0.2-0.8l-0.1-0.3c-0.2-0.6-0.3-1.2-0.4-1.9c-0.1-0.4-0.2-0.8-0.3-1.2s-0.3-1-0.4-1.5s-0.3-1.3-0.5-1.9
				c0-0.2-0.1-0.3-0.1-0.5l0,0v-0.1v-0.1c0-0.2-0.1-0.4-0.2-0.6s-0.1-0.4-0.1-0.6s-0.1-0.3-0.1-0.4l-0.2-0.8
				c-0.1-0.3-0.2-0.6-0.3-0.9s-0.1-0.4-0.2-0.6c0-0.1,0-0.2-0.1-0.2c0-0.2-0.1-0.3-0.2-0.5l-0.3-1c-0.1-0.2-0.1-0.4-0.2-0.6
				l-0.3-0.8c0-0.2-0.1-0.3-0.1-0.5l0,0c0,0,0,0,0-0.1c0-0.1-0.1-0.3-0.1-0.4c-0.7-2.3-1.5-4.6-2.3-6.9v-0.1l-0.7-1.9
				c-0.7-1.9-1.4-3.6-2-5.4c0,0,0-0.1,0-0.1c-0.2-0.5-0.4-0.9-0.6-1.4c-0.5-1.3-1-2.6-1.6-3.9c-0.3-0.6-0.5-1.3-0.8-1.9l0,0
				c0,0,0-0.1-0.1-0.2c-0.2-0.6-0.5-1.1-0.7-1.6c-0.5-1.1-0.9-2.1-1.4-3.1L1924.4,149.3z M1767.9,104c-0.4-1.6-1-3.1-1.7-4.5
				c-0.3-0.5-0.7-1.1-1-1.7c-0.5-0.8-0.9-1.6-1.4-2.4c-0.2-0.3-0.4-0.5-0.6-0.8c-0.3-0.4-0.7-0.9-1-1.3c-0.9-1.2-1.9-2.4-3-3.6
				c-0.4-0.4-0.7-0.8-1.1-1.2v-0.1c-0.1-0.1-0.2-0.2-0.2-0.2c-1.3-1.3-2.6-2.6-4-3.8l-0.2-0.2l-0.4-0.3c-0.4-0.3-0.8-0.7-1.2-1
				c-1.1-0.9-2.2-1.8-3.3-2.7l-0.4-0.3l0,0c-0.4-0.3-0.8-0.6-1.2-0.9l-1.6-1.2c-0.6-0.4-1.2-0.8-1.8-1.3L1743,76
				c-0.5-0.3-1.1-0.7-1.6-1l-1-0.6l-0.8-0.5c-0.3-0.2-0.7-0.5-1-0.7l-0.4-0.3c-0.3-0.2-0.6-0.4-0.9-0.5l0,0l-0.4-0.2
				c-0.7-0.4-1.4-0.8-2.1-1.3l-0.4-0.2c-0.7-0.4-1.3-0.8-2-1.2c-0.4-0.2-0.8-0.4-1.1-0.6l-1.3-0.7l-1.1-0.6l-1.2-0.6l-1.4-0.8
				l-0.1-0.1l-0.4-0.2L1724,65l-1.2-0.6l0,0l-0.2-0.1L1722,64l-1-0.5l-1.4-0.7l-1.6-0.7l-0.4-0.2l-1.9-0.9l-1.6-0.7l-1.4-0.6
				l-1.7-0.7l-1.2-0.5l-1.8-0.7l-1.3-0.6l-0.6-0.2c-0.5-0.2-1-0.4-1.5-0.6l-1.1-0.4c-0.9-0.3-1.7-0.7-2.6-1l-1.9-0.7l-1.4-0.5
				l-1.1-0.3l-0.4-0.1l-2.3-0.8l-2-0.7l-1.3-0.4c-0.8-0.3-1.6-0.5-2.3-0.7l-1.9-0.6l-2.2-0.6l-0.6-0.2l-1.2-0.3
				c-0.5-0.1-1.1-0.3-1.6-0.5s-0.9-0.2-1.4-0.3l-2.7-0.7c-0.8-0.2-1.5-0.3-2.3-0.5s-1.7-0.4-2.5-0.6l-0.8-0.2
				c-0.4-0.1-0.8-0.2-1.1-0.2l-1.5-0.3l-2.2-0.4L1664,45l-1.1-0.2c-0.6-0.1-1.2-0.2-1.8-0.3l-1.7-0.3l-2.1-0.3
				c-0.8-0.1-1.7-0.2-2.5-0.3l-1-0.1l-0.6-0.1h-0.1l-0.8-0.1c-0.9-0.1-1.8-0.2-2.7-0.3c-0.5,0-1-0.1-1.5-0.1l-0.7-0.1h-0.8
				c-1.1-0.1-2.2-0.1-3.3-0.2s-2.1-0.1-3.2-0.2h-0.2c-1,0-2.1-0.1-3.2-0.1c-2.6,0-5.2,0.1-7.7,0.2h-0.3h-0.4l-0.8,0.1
				c-0.2,0-0.4,0-0.6,0h-0.4h-0.4h-0.4l-1.3,0.1c-0.3,0-0.7,0-1,0.1l-0.6,0.1l-1.2,0.1l-0.7,0.1h-0.4h-0.3c-0.5,0.1-1,0.2-1.5,0.2
				s-0.8,0.1-1.1,0.1s-0.5,0.1-0.7,0.1l-0.7,0.1l-0.5,0.1l-1,0.1h-0.3l-0.9,0.2h-0.3h-0.3l-0.5,0.1l-0.7,0.1l-0.7,0.1l-1.1,0.2h-0.3
				l-1.1,0.2h-0.2l-0.7,0.2l-0.4,0.1l0,0l-0.7,0.1c-0.2,0-0.3,0.1-0.5,0.1l-1.1,0.3l-0.5,0.1l-0.6,0.2l-0.5,0.2
				c-0.8,0.2-1.7,0.4-2.5,0.6c-0.2,0.1-0.5,0.1-0.7,0.2h-0.1c-0.1,0-0.2,0.1-0.3,0.1l-0.4,0.1l-0.6,0.2l-0.8,0.2l-0.3,0.1l-1.1,0.4
				l-1.5,0.5c-0.3,0.1-0.7,0.2-1,0.3l-0.6,0.2c-0.4,0.1-0.9,0.3-1.3,0.4l-0.2,0.1l-0.9,0.3l-1,0.3l-0.7,0.2h-0.1l0,0l-0.9,0.3
				l-0.4,0.1l0,0l-1,0.4l-0.4,0.2l-1,0.4l-0.7,0.3l-0.3,0.2l-0.3,0.1l-0.3,0.1l-1.7,0.7l-1.7,0.8l-0.5,0.2l-0.6,0.3l-0.3,0.1l0,0
				l-0.4,0.2l-0.6,0.3l-0.4,0.2l-0.2,0.1l-0.1,0l-1.1,0.6l-1.3,0.7l-1.2,0.6l-0.8,0.4l-0.2,0.1l-0.2,0.1l-1.2,0.6l-0.7,0.3h-0.1l0,0
				l-0.5,0.3l-1,0.5l-1.5,0.8l-0.4,0.2l-0.5,0.3c-0.5,0.3-1,0.6-1.4,0.8l-1.2,0.7l-1.2,0.8c-0.1,0.1-0.3,0.2-0.4,0.3l0,0l-0.3,0.2
				l-0.4,0.3l-0.8,0.5l-0.8,0.5c-0.4,0.3-0.8,0.5-1.2,0.8s-0.5,0.4-0.8,0.6l-0.1,0.1l-1.1,0.7l-1.1,0.8l-0.9,0.6l-0.1,0.1l0,0
				L1554,69l-0.4,0.3l-0.9,0.7l-0.7,0.5l-0.8,0.6l-1.5,1.1l-1.1,0.8l-0.2,0.2l-0.6,0.4h-0.1l-0.5,0.4l-0.2,0.1l0,0l0,0
				c-0.4,0.3-0.8,0.7-1.3,1s-1,0.8-1.5,1.2l-0.4,0.3l-0.3,0.2l-1.4,1.2c-0.6,0.5-1.2,1-1.8,1.6l-0.3,0.3l0,0l-0.3,0.3l-0.8,0.7
				c-0.7,0.7-1.4,1.3-2.1,1.9l-1.1,1.1l-1.7,1.7c-0.1,0.2-0.3,0.3-0.5,0.4l0,0l-0.5,0.5c-0.8,0.8-1.5,1.6-2.1,2.2
				c-2.8,3-4.1,5.9-4.2,8.3c0,1.4,0.4,2.7,1.3,3.7c0,0,0,0,0,0.1c0.1,0.1,0.2,0.2,0.3,0.2c0.3,0.3,0.6,0.5,1,0.7
				c0.2,0.1,0.4,0.2,0.6,0.3c0.3,0.1,0.7,0.3,1,0.3l0,0c0.2,0,0.4,0.1,0.6,0.1c0.2,0.1,0.4,0.1,0.6,0.1c0.2,0,0.4,0,0.6,0.1
				c0.4,0,0.8,0,1.2,0h0.3l0,0h0.2c0.1,0,0.3,0,0.4,0c0.1,0,0.2,0,0.3,0c0.4,0,0.9-0.1,1.4-0.2s0.8-0.1,1.2-0.2l0,0l0.2-0.1
				c0.1,0,0.2,0,0.3,0l0.3-0.1c0.2,0,0.3-0.1,0.5-0.2l0.5-0.2c0.5-0.1,1-0.3,1.5-0.4l0.4-0.2l0,0c0.1,0,0.1,0,0.2-0.1l0.3-0.1
				c0.3-0.1,0.7-0.3,1.1-0.5l0.5-0.2c0.2-0.1,0.3-0.1,0.5-0.2l0.5-0.2l0.3-0.1l0.7-0.3l0,0c0,0,0.3-0.2,0.4-0.2s0.4-0.2,0.6-0.3
				s0.6-0.3,0.8-0.5s0.7-0.4,1.1-0.6l0.2-0.1c0.3-0.2,0.7-0.4,1-0.6l0.2-0.1l0,0l0.1-0.1l0.5-0.3l0.7-0.4l0.3-0.2
				c0.2-0.1,0.3-0.2,0.4-0.3s0.4-0.2,0.6-0.4l0.1-0.1c0.7-0.4,1.3-1,2-1.4c0,0,0,0.1,0,0.1c0.8-0.5,1.5-1.1,2.3-1.7l0.1-0.1h0.1
				c1.4-1,2.8-1.8,4.3-2.6c1-0.5,2-1,3.1-1.5c1-0.4,2-0.8,3.1-1.2l1.1-0.4c1-0.3,2-0.7,3.1-1s2.3-0.6,3.6-0.9l1.1-0.3
				c1.2-0.3,2.4-0.6,3.7-0.8l0.3-0.1c1.3-0.3,2.6-0.5,3.9-0.7l0.7-0.1c1.4-0.2,2.7-0.4,4.2-0.6l0.8-0.1c1.5-0.2,3-0.4,4.6-0.5
				c1.6-0.2,3.1-0.3,4.7-0.4l0.7-0.1c1.7-0.1,3.4-0.2,5.1-0.3s3.4-0.2,5.1-0.3l2.1-0.1l3.8-0.1c1.6,0,3.1-0.1,4.7-0.1h6.6l4.3,0.1
				h0.4l3,0.1c1.3,0,2.5,0.1,3.8,0.1s2.7,0.1,4.1,0.2l3.4,0.2l3.9,0.2c1.2,0.1,2.4,0.2,3.6,0.2l3.4,0.3h0.5c1.3,0.1,2.5,0.2,3.8,0.3
				l3,0.3l2.8,0.3l1.4,0.2l3.6,0.4l2.5,0.3l2.2,0.3l1.3,0.2l0.8,0.1c1.2,0.2,2.3,0.3,3.4,0.5l1.9,0.3l1.6,0.2l1,0.2l1.5,0.2l0,0
				c1.3,0.2,2.5,0.4,3.7,0.7l1.3,0.2l1,0.2l0.6,0.1l1.1,0.2h0.1l0.9,0.2c1.4,0.3,2.6,0.6,3.9,0.8l0.7,0.2l0.5,0.1l0.3,0.1l0.4,0.1
				l0.8,0.2l0.3,0.1l0.4,0.1c2.1,0.5,4.1,1.1,5.8,1.6c4.1,1.3,8,2.7,11.9,4.2l2.4,0.9l0.9,0.3l2.7,1.1l3.8,1.5l3.9,1.6l2.9,1.2
				l1,0.4l2.5,1l0.4,0.2l0.2,0.1l1.4,0.6l1.2,0.5l0.4,0.2l1,0.4l0.4,0.2l0.9,0.3l0,0l1.6,0.6l0.8,0.3l0.2,0.1l0.3,0.1l0.5,0.2l0,0
				l0.7,0.3l0.8,0.3l0.8,0.3l0.7,0.2h0.1l0.6,0.2l0.4,0.1l0.5,0.1l0.2,0.1l0,0l0.7,0.2l0.5,0.1l0.8,0.2l0.8,0.2l0.6,0.1h0.3h0.1l0,0
				l0.7,0.1l0.8,0.1h0.2h0.5c0.3,0,0.5,0,0.8,0s0.4,0,0.5,0l0,0l0.4-0.1c0.1,0,0.3-0.1,0.4-0.1c0.4-0.1,0.9-0.4,1.2-0.6
				c0.1-0.1,0.2-0.2,0.3-0.3c0.1-0.1,0.2-0.2,0.3-0.3c0.1-0.1,0.2-0.1,0.2-0.2c0,0,0-0.1,0-0.1c0.1-0.1,0.2-0.2,0.2-0.4
				c0.1-0.2,0.2-0.3,0.3-0.5c0.2-0.7,0.4-1.5,0.3-2.2l0,0L1767.9,104z M1752.2,302.4c-0.1-0.2-0.2-0.5-0.4-0.7
				c-0.1-0.2-0.2-0.4-0.3-0.5l0,0l0,0l0,0c-0.1-0.1-0.2-0.2-0.3-0.4s-0.3-0.4-0.4-0.5s-0.3-0.3-0.4-0.5s-0.3-0.3-0.5-0.5l-0.2-0.2
				l-0.3-0.3l0,0c-0.1-0.1-0.3-0.2-0.3-0.3l-0.4-0.4l-0.4-0.3c-0.2-0.2-0.5-0.4-0.7-0.5l-0.3-0.2l-0.2-0.1l-0.4-0.3l0,0l-0.5-0.3
				c-0.1-0.1-0.2-0.1-0.3-0.2l-0.5-0.3l-0.7-0.4l-0.3-0.2l-0.3-0.2l-0.2-0.1c-0.1-0.1-0.2-0.1-0.4-0.2l0,0l-0.1-0.1
				c-0.1,0-0.3-0.1-0.4-0.2l-0.6-0.3l-0.3-0.1l-0.2-0.1l-0.4-0.2l-0.6-0.3l-0.2-0.1l-0.7-0.3l-0.2-0.1l0,0h-0.1l-0.7-0.3l-0.4-0.1
				c-0.3-0.1-0.5-0.2-0.8-0.3l-0.4-0.1h-0.1h-0.1l-0.2-0.1l-0.5-0.2l-0.6-0.2l0,0l-0.3-0.1l-1.2-0.4l-0.7-0.2l-0.4-0.1l-0.3-0.1
				l-0.7-0.2l-0.5-0.2l0,0h-0.2l-1-0.3l-1.1-0.3l-0.3-0.1l-0.2,0l-0.3-0.1h-0.1l-0.4-0.1l-0.9-0.2h-0.1l0,0l-0.5-0.1l-1.4-0.4
				l-0.9-0.2l-0.3-0.1l0,0l-0.9-0.2l-0.6-0.1l0,0l-0.8-0.2l-1.5-0.3l-0.4-0.1h-0.2h-0.1h-0.1h-0.1l-0.5-0.1l-1.4-0.3l0,0l-0.9-0.2
				h-0.2l-0.8-0.2h-0.1h-0.2l-0.4-0.1h-0.2l-0.3-0.1l-0.4-0.1l-1.1-0.2l-1.5-0.3l-0.8-0.1l0,0l-0.7-0.1l-0.5-0.1h-0.3l-0.7-0.1
				l-0.7-0.1l-0.4,0l-0.5-0.1l-0.7-0.1h-0.2h-0.2l-1.1-0.2l-0.8-0.1l-1.3-0.2l-0.4-0.1h-0.3l-1.6-0.2l-1.1-0.1l0,0h-0.3l-0.9-0.1
				h-0.1h-0.2l-0.8-0.1h-0.3h-0.2l-1-0.1h-0.3h-0.2l0,0l-1.1-0.1l-0.6-0.1l-0.5-0.1l-0.5,0h-0.1l-0.7-0.1h-0.2l0,0l-0.7-0.1l-0.5,0
				l-1.2-0.1l-0.8-0.9h-0.3l-0.8-0.1h-0.2l-0.6,0h-0.3l-1.8-0.2h-0.1h-0.5l0,0h-0.3h-0.5h-0.4l-0.7,0h-0.7h-0.2h-0.4l-0.9-0.1
				l-2.4-0.2h-0.6h-0.2l0,0h-0.3h-0.3h-0.6c-0.3,0-0.6,0-0.9-0.1h-0.5h-0.2c-0.3,0-0.6,0-1-0.1h-0.3l-1.1,0h-0.8h-0.6h-0.2h-0.5
				h-0.3h-0.6h-0.1h-0.6h-0.3h-0.4h-0.4h-0.5h-0.7h-0.6h-0.9l-1.4-0.1h-1.5h-0.6h-0.5h-1.6h-1.4h-1.1h-0.9h-1H1639h-0.8h-1.1h-1
				h-0.9h-0.7h-2.2h-0.9h-0.4h-0.7h-0.8h-0.7h-0.4h-0.7h-1h-0.5h-0.3h-0.5h-0.4h-0.4h-0.3l-0.8,0h-0.8h-0.4h-0.3h-0.1h-0.4h-0.2
				h-0.3l-1.2,0.1l-0.9,0h-0.3h-0.4h-0.6l-0.7,0h-0.6l0,0h-0.3h-0.4h-0.2h-0.3l-0.7,0h-0.2h-0.3h-0.1l-0.9,0.1l-0.5,0h-0.5h-0.2
				h-0.2l-0.8,0.1h-0.1l-0.7,0.1l-1,0.1h-0.3h-0.1h-0.2l-0.5,0h-0.2h-0.2l-0.6,0.1h-0.4l-0.7,0.1l-0.5,0l-0.7,0.1l-0.4,0.1h-0.1
				h-0.5h-0.1h-0.2h-0.1h-0.2l-0.6,0.1l-0.5,0.1h-0.2l-0.8,0.1l-1.2,0.2h-0.2l-0.4,0.1l-0.3,0l-0.9,0.1l-0.7,0.1h-0.2h-0.1h-0.1
				l-0.4,0.1h-0.2h-0.1l-0.3,0l0,0h-0.1l0,0h-0.2h-0.2h-0.2l-0.4,0.1l-0.5,0.1l-0.6,0.1l-0.6,0.1l-0.8,0.1l-0.8,0.1l-0.7,0.1l-0.3,0
				h-0.2l0,0h-0.1l-0.5,0.1l-0.5,0.1l-0.4,0.1l-0.4,0.1l-0.4,0.1l-0.3,0l-0.3,0.1l-0.3,0.1l-0.8,0.2l-0.3,0.1l-0.4,0.1l-0.4,0.1l0,0
				h-0.1l-0.3,0.1l-0.2,0l-0.2,0.1h-0.2h-0.2c-1,0.3-2,0.5-2.9,0.8l-0.4,0.1l0,0l-0.6,0.1c-3.2,1-6.5,1.7-9.8,2.4l-2.4,0.5l-0.5,0.1
				h-0.1l-0.3,0l-1,0.2c-0.7,0.1-1.4,0.2-2.2,0.3c-1.9,0.3-3.9,0.6-5.8,0.8l-0.9,0.1h-0.2l-0.8,0.1l-2.1,0.2l-1,0.1l-1.7,0.1
				c-1.8,0.1-3.6,0.3-5.4,0.3h-0.5l-2.6,0.1h-1.8h-0.6h-1.7c-1.7,0-3.3,0-5,0h-2.1h-2.7l-2.9,0c-1.6,0-3.2-0.1-4.8-0.1h-1.2
				l-3.7-0.1l-3.1-0.1l-5.8-0.2l-1.3,0h-0.5h-0.5l-1.7-0.1h-0.4h-0.9l-2.5-0.1h-0.6h-1h-0.7h-0.2h-0.8h-0.1h-0.9h-0.7h-0.8h-1h-2.3
				h-1h-4.3h-0.8h-1.5h-0.9h-1.4h-1.1l-1.2,0.1h-0.9l-0.6,0h-0.8h-0.1c-0.3,0-0.6,0.1-1,0.1l-1.6,0.1l-0.9,0.1h-0.2h-0.3l0,0
				l-0.5,0.1l0,0c-0.5,0.1-1,0.1-1.5,0.2l-0.6,0.1l-0.4,0h-0.3l-0.3,0h-0.1l0,0c-0.2,0-0.3,0.1-0.5,0.1l-1.6,0.3l-0.4,0.1l-0.5,0.1
				l-0.4,0.1l0,0l-0.2,0.1c-0.4,0.1-0.9,0.2-1.3,0.3l-0.5,0.1l-0.3,0.1l-0.6,0.2l-0.5,0.1l0,0l-0.2,0.1c-0.4,0.1-0.9,0.3-1.3,0.4
				s-0.7,0.2-1,0.4s-0.5,0.1-0.7,0.2v0.1c-0.2,0.1-0.4,0.1-0.6,0.2s-0.5,0.2-0.7,0.3s-0.6,0.3-1,0.5s-0.5,0.2-0.7,0.3v0.1
				c-0.6,0.3-1.3,0.7-1.8,1c-0.3,0.2-0.7,0.3-1,0.5l0,0l-0.4,0.3c-0.4,0.3-0.7,0.7-1.1,1s-0.8,0.5-1.1,0.8c0,0,0.1,0.1,0.1,0.1
				c-0.7,0.5-1.3,1.1-1.8,1.8c-0.2,0.2-0.3,0.4-0.5,0.6c0,0,0,0,0,0c-0.7,0.9-1.4,1.9-1.9,2.9l0,0c0,0,0,0,0,0s-0.1,0.2-0.1,0.3
				c-0.2,0.4-0.2,0.8-0.4,1.2c-0.3,0.7-0.5,1.4-0.6,2.1c0,0.1-0.1,0.1-0.1,0.2l0.1,0.1c0,0.1,0,0.2,0,0.3c0,0.5-0.1,1-0.1,1.5
				c0,0.8,0.1,1.6,0.2,2.3c0.1,0.5,0.2,1,0.4,1.5c0,0.3,0.1,0.5,0.2,0.8s0.2,0.2,0.3,0.3c1.6,4.2,5.2,8.3,10,12.4l0.2,0.3
				c0.3,0.3,0.6,0.5,0.9,0.7c0.8,0.6,1.5,1.2,2.3,1.8l1.5,1.1c0.6,0.5,1.2,0.9,1.9,1.4c1.8,1.3,3.7,2.5,5.7,3.8l0.2,0.1l0,0l0.2,0.1
				l0.2,0.1c2.3,1.5,4.7,2.9,7.2,4.3l1.5,0.9l1.5,0.9l1.2,0.7l0,0l1,0.6l2.4,1.4c0.8,0.4,1.5,0.9,2.3,1.3l3.5,1.9l2.8,1.5
				c2.3,1.3,4.4,2.5,6.7,3.7l2.9,1.6l2.1,1.2l0.6,0.3c3.5,2,6.8,4,9.9,6c2.5,1.7,4.9,3.5,7.1,5.5l0.1,0.1l0,0l0.2,0.2l0.4,0.4
				l0.7,0.6c0.1,0.1,0.2,0.2,0.3,0.3l0.2,0.2c0.3,0.3,0.6,0.6,0.9,0.8s0.4,0.4,0.5,0.5c1.3,1.3,2.7,2.6,4,4l0.5,0.6l0.8,0.8l1,1.2
				l0.8,0.9l1,1.2c1.1,1.3,2.3,2.6,3.4,4c0.2,0.2,0.3,0.4,0.4,0.5l1.5,1.9l1.1,1.4l1.6,2.1c1,1.3,2,2.5,3,3.8l1.9,2.5l1.5,2l3.4,4.5
				l0.2,0.2c0.8,1.1,1.6,2.2,2.5,3.4l1.7,2.2l0.7,0.9c0.3,0.5,0.7,0.9,1,1.4l0.4,0.6l0.9,1.2l0.3,0.5l0.7,1l0,0l0.4,0.6l0.1,0.1
				l0.2,0.2l0.2,0.2l0.4,0.6l0.2,0.2l1,1.3l0.4,0.5l0,0l0.5,0.6l0.3,0.4l0,0l0.1,0.2l1.2,1.5l0.9,1.1c0.2,0.2,0.3,0.4,0.5,0.6
				s0.4,0.5,0.6,0.8l0.3,0.4l0,0c0.2,0.3,0.4,0.5,0.6,0.8s0.2,0.3,0.3,0.4s0.3,0.4,0.5,0.6l0.3,0.4c0,0.1,0.1,0.1,0.1,0.2
				c0.2,0.2,0.3,0.4,0.4,0.5l0.7,0.9v0.1l0.4,0.5l0.1,0.2l0,0c0.3,0.4,0.6,0.7,0.9,1.1l0.7,0.8c0.2,0.2,0.3,0.4,0.5,0.6l0.4,0.5
				c0.2,0.2,0.4,0.4,0.6,0.7l1,1.3l0.8,1l1.4,1.6l1,1.2l0.3,0.3l0,0c0.2,0.2,0.4,0.5,0.6,0.7l0.2,0.2c0.3,0.3,0.6,0.6,0.8,0.9
				l0.7,0.8c0.2,0.2,0.4,0.5,0.7,0.7s0.5,0.6,0.8,0.9l0.1,0.1l0.2,0.2l0.9,1l1.4,1.5c0.2,0.2,0.4,0.5,0.7,0.7s0.3,0.3,0.5,0.5
				l0.3,0.3l0.2,0.2l0,0l0.3,0.3c0.4,0.4,0.8,0.9,1.3,1.3s0.7,0.7,1.1,1.1c0.1,0.1,0.3,0.3,0.4,0.4s0.4,0.4,0.6,0.6l0.6,0.6l0,0
				l0.3,0.3c0.6,0.5,1.1,1.1,1.6,1.6l0.6,0.6l0.7,0.7c0.4,0.4,0.7,0.7,1.1,1.1l0,0l0.8,0.8l1.1,1.1c0.5,0.5,1,0.9,1.5,1.4
				s0.7,0.7,1.1,1h0.1c0.8,0.7,1.5,1.4,2.3,2l1.7,1.4l0.8,0.7h0.1c1.1,0.9,2.2,1.8,3.3,2.6c0.6,0.5,1.2,1,1.8,1.5l0,0l1.1,0.8
				c0.8,0.6,1.6,1.2,2.4,1.8c0.6,0.5,1.2,1,1.9,1.4h0.2c1.6,1.2,3.2,2.4,4.9,3.5l0.7,0.5l0,0c1.6,1.1,3.2,2.1,4.7,3l0.6,0.3l0.7,0.4
				l1.1,0.7l0.8,0.5l0.6,0.4c0.5,0.3,0.9,0.5,1.4,0.8l0.9,0.5l1.3,0.7l0.6,0.4l0,0c0.7,0.4,1.4,0.7,2,1l1.3,0.6l0.2,0.1
				c0.1,0.1,0.2,0.1,0.3,0.1l0.5,0.3c0.8,0.4,1.6,0.7,2.3,1.1l0.9,0.4l0,0c0.4,0.2,0.9,0.4,1.4,0.6l0.2,0.1c0.5,0.2,0.9,0.4,1.4,0.5
				l0.9,0.3c0.6,0.2,1.2,0.5,1.8,0.6l1.2,0.4c0.9,0.3,1.9,0.6,2.8,0.8l0.4,0.1l0,0c0.3,0.1,0.6,0.1,0.9,0.2c0.9,0.2,1.8,0.4,2.7,0.5
				c0.3,0,0.7,0.1,1,0.2c1.1,0.2,2.3,0.3,3.4,0.3h0.3c0.9,0,1.9,0,2.8-0.1c0.3,0,0.6-0.1,0.9-0.1c0.7-0.1,1.4-0.2,2-0.3l0.9-0.2
				c0.7-0.2,1.3-0.4,2-0.6c0.2-0.1,0.4-0.1,0.6-0.2l0,0l0,0c0.8-0.3,1.6-0.7,2.4-1.1l0.3-0.2c0.6-0.3,1.2-0.7,1.7-1.1l0.2-0.1l0,0
				c0.2-0.2,0.4-0.3,0.6-0.5s0.5-0.3,0.7-0.5l0,0c0.2-0.2,0.5-0.4,0.7-0.7s0.4-0.4,0.6-0.6s0.6-0.6,0.9-1l0.3-0.3l0.2-0.2l0.4-0.5
				l0.2-0.2l0,0v-0.1c0.5-0.6,0.9-1.2,1.3-1.9c0,0,0-0.1,0.1-0.1c0.1-0.1,0.1-0.2,0.2-0.3c0.1-0.2,0.2-0.3,0.3-0.5s0.2-0.2,0.3-0.4
				v0l0.1-0.1l0,0c0,0,0-0.1,0-0.1c0.2-0.4,0.5-0.9,0.7-1.3c0.1-0.2,0.3-0.5,0.4-0.7s0.3-0.7,0.5-1l0.1-0.3l0,0l0,0
				c0-0.1,0.1-0.2,0.1-0.3v-0.1l0.2-0.5c0.1-0.2,0.2-0.3,0.2-0.5s0-0.1,0-0.1l0.1-0.2c0-0.1,0.1-0.2,0.1-0.3
				c0.1-0.3,0.2-0.6,0.3-0.8l0.1-0.3l0.1-0.1l0,0c0-0.1,0-0.1,0.1-0.2s0.1-0.2,0.1-0.3c0.1-0.4,0.3-0.8,0.4-1.1
				c0-0.1,0.1-0.2,0.1-0.3l0.2-0.5l0.1-0.3c0.1-0.2,0.1-0.4,0.2-0.6l0,0l0,0l0.1-0.3c0-0.1,0.1-0.3,0.1-0.4v-0.1
				c0.1-0.3,0.2-0.5,0.2-0.8v-0.1c0-0.1,0.1-0.3,0.1-0.4s0.1-0.4,0.1-0.5s0.1-0.2,0.1-0.3s0.1-0.2,0.1-0.4l0,0c0,0,0-0.1,0-0.1
				s0-0.1,0-0.2s0-0.1,0-0.2s0,0,0,0c0.1-0.6,0.3-1.1,0.4-1.7c0-0.1,0-0.1,0-0.2s0,0,0,0s0-0.2,0.1-0.3s0-0.2,0-0.2l0,0l0.1-0.3l0,0
				c0,0,0,0,0-0.1l0.1-0.6l0.1-0.3c0-0.1,0-0.1,0-0.2c0.1-0.3,0.1-0.6,0.2-0.9l0.1-0.5l0.1-0.3l0.1-0.3c0,0,0,0,0-0.1v-0.1l0,0
				c0,0,0-0.1,0-0.1s0-0.3,0.1-0.4s0-0.3,0.1-0.5l0.1-0.4c0,0,0,0,0-0.1l0.1-0.4c0-0.2,0.1-0.4,0.1-0.6l0.1-0.5c0-0.1,0-0.3,0.1-0.4
				l0,0V457c0-0.1,0-0.1,0-0.2c0-0.2,0.1-0.3,0.1-0.5v-0.2c0-0.1,0-0.2,0-0.3s0-0.3,0.1-0.5l0.1-0.8l0.1-0.6l0,0c0,0,0,0,0-0.1
				c0.2-1,0.3-2.1,0.4-3.2c0,0,0,0,0-0.1l0,0c0.2-1.6,0.5-3.3,0.9-5.1c0.2-1,0.4-1.9,0.6-3c0.3-1.3,0.6-2.6,0.9-4
				c0-0.1,0.1-0.3,0.1-0.4c0.2-0.9,0.5-1.9,0.7-2.8c0.4-1.4,0.8-2.8,1.2-4.2l0.3-1c0.2-0.7,0.4-1.5,0.7-2.2c0.1-0.2,0.1-0.4,0.2-0.6
				s0.1-0.4,0.2-0.6c0.4-1.2,0.7-2.4,1.1-3.6c0.1-0.2,0.1-0.4,0.2-0.6c0.8-2.4,1.7-5,2.6-7.5c0.4-1.2,0.9-2.5,1.3-3.7
				c0.4-1.1,0.8-2.2,1.2-3.3l0.9-2.3c0.6-1.6,1.2-3.2,1.8-4.8c0.5-1.1,0.9-2.3,1.4-3.4s0.8-2.1,1.3-3.1s0.8-1.9,1.2-2.9
				c0.1-0.2,0.2-0.4,0.2-0.6c0.7-1.6,1.3-3.2,2.1-4.8c0.4-1,0.9-2.1,1.4-3.1c0.4-0.9,0.8-1.8,1.2-2.7s0.7-1.6,1.1-2.5s0.6-1.4,0.9-2
				c0.7-1.6,1.5-3.2,2.2-4.8c0.4-0.9,0.8-1.8,1.3-2.7c0.3-0.7,0.7-1.4,1-2s0.7-1.5,1.1-2.2l1-1.9c0.1-0.1,0.1-0.3,0.2-0.4
				c1-2,2-4,3.1-6l0.4-0.9c0.5-0.9,0.9-1.8,1.4-2.6l0.9-1.7l0.7-1.2c0.4-0.7,0.8-1.4,1.1-2.1c1.1-2.1,2.3-4.1,3.4-6.1l0.4-0.8
				c0.3-0.5,0.6-1,0.8-1.5s0.6-1,0.8-1.5l0.3-0.5c0.4-0.7,0.8-1.3,1.1-2c0.1-0.1,0.2-0.3,0.2-0.4l0.4-0.7l0.3-0.4
				c0.7-1.2,1.4-2.4,2.2-3.5s1.5-2.5,2.2-3.7l0.6-0.9c0.2-0.3,0.3-0.5,0.5-0.8s0.5-0.8,0.8-1.2l0.2-0.3c0.2-0.4,0.4-0.7,0.7-1
				s0.3-0.4,0.4-0.6l0.1-0.1l0.2-0.4c2.4-3.7,4.8-7.3,7.3-10.6l0.1-0.1c0,0,0-0.1,0.1-0.1c0.5-0.8,0.9-1.6,1.2-2.4l0,0
				c0,0,0-0.1,0-0.1c0-0.3,0.1-0.5,0.1-0.8c0,0,0,0,0-0.1c0.1-0.5,0.2-1,0.3-1.5c0-0.1,0-0.1,0-0.2c0-0.3-0.1-0.6-0.2-0.9
				c0-0.1,0-0.3-0.1-0.4l0,0c0-0.1-0.1-0.2-0.1-0.3s0-0.3-0.1-0.5c0-0.1-0.1-0.2-0.2-0.3c-0.1-0.2-0.2-0.4-0.3-0.6L1752.2,302.4z"/>
			<path id="Shape_1_copy" class="st2" d="M1765,548.9c-4.2,17.3-5.7,35.1-4.5,52.8c1.2,19,6.8,37.4,16.4,53.9
				c1,1.8,2.2,2.3,3.6,1.6l3.2-4c20.4-63,50.6-76.2,61.2-116.5c4-15.1,5.1-28.3,2.2-40.1c-19,13.2-70.1,32.1-70.1,32.1
				S1768.9,533.3,1765,548.9z"/>
		</g>
		<path id="Beauty" class="st3" d="M2824.9,940.8c143.5,0,197.4-70.8,199.6-162.2c0.6-7.9-2.8-10.8-7.7-10.8
			c-7.9,0-8.2,3.9-8.1,15.7c-0.7,94.4-74,143.5-167.4,143.5c-61.9,0-84.5-40.3-92.3-86.5c-3.7-21.6-5.9-46.2-5.6-97.3
			c-0.4-7.9,0.3-9.8,8.2-9.8c24.7,1,48.3,1,70.6-1c110.4-3.9,201.4-35.4,186.8-121.9c-10.3-61-79.1-107.1-201-107.1
			c-72.7,0-128.4,19.7-170.9,53.1c-63.9,52.1-80.7,138.6-66.6,222.2C2590.6,898.5,2712.8,940.8,2824.9,940.8z M2851,659.7
			c-11,45.2-43.4,62.9-102.4,62.9c-4.9,0-5.3-2-5.4-8.8l3.4-84.5c5.6-65.9,14-115,61.1-115c26.6,0,41.5,18.7,46.5,60
			C2856.8,600.7,2857,637.1,2851,659.7L2851,659.7z M3335,777.7c-1.1,68.8-27.8,137.6-72.1,137.6c-23.6,0-41.8-20.6-49.1-63.9
			c-10.3-61-9.4-148.4-3.7-219.2c5.2-67.8,14.1-114,56.4-114c39.3,0,68.9,41.3,69,82.6L3335,777.7z M3460.9,940.8
			c47.2,0,77.4-18.7,96.4-52.1c14.4-25.5,22.1-60.9,21.9-97.3c-0.2-6.9-1.7-9.8-5.6-9.8s-4.6,2-4.7,6.9c0.6,32.4-5.1,62.9-16.2,84.5
			c-6.5,13.8-16.5,24.6-30.3,24.6s-20.7-11.8-23-25.6c-2.2-12.8-2.7-27.5-2.1-41.3l2.2-306.8c0-5.9-2.5-8.8-8.4-8.8h-144.5
			c-7.9,0-8.5,2-8.5,7.9l-0.4,38.3h-1c-15.7-40.3-58-58-105.2-58c-54.1,0-101.4,16.7-139.6,52.1c-58.3,56-71.7,145.5-58.2,225.1
			c16.8,99.3,96.9,160.2,182.4,160.2c73.7,0,110-41.3,121.1-103.2h1c3.3,13.8,8.9,29.5,14.7,40.3
			C3373.9,920.1,3415.7,940.8,3460.9,940.8L3460.9,940.8z M4007.5,940.8c47.2,0,77.4-18.7,96.4-52.1c15.3-25.5,22.1-60.9,21.9-97.3
			c-0.2-6.9-1.7-9.8-5.6-9.8s-4.6,2-4.7,6.9c0.6,32.4-5.1,62.9-16.2,84.5c-6.5,13.8-15.5,24.6-29.3,24.6s-21.7-11.8-24-25.6
			c-2.2-12.8-2.7-27.5-2.1-41.3l1.8-308.7c0.3-3.9-2.1-6.9-9-6.9h-144.5c-6.9,0-8.5,2-8.7,6.9l-2,255.6
			c-0.1,68.8-26.8,137.6-69.1,137.6c-20.6,0-33.5-17.7-37.8-43.3c-4-23.6-2.8-51.1-2.6-73.7l0.8-134.7c0.4-20.6,0.5-43.3-3-63.9
			c-10.5-61.9-64.5-96.3-122.5-96.3c-48.2,0-78.4,18.7-97.4,52.1c-12.9,22.6-20.3,54.1-21.4,82.6c0.2,6.9,1.5,8.8,5.4,8.8
			s4.6-2,4.7-6.9c0.9-23.6,6.4-49.2,15.9-68.8c6.5-13.8,16.5-24.6,30.3-24.6s21.6,11.8,24,25.5c2.2,12.8,1.7,27.5,1.9,40.3
			l-1.1,162.2c-0.1,16.7-0.3,33.4,2.4,49.2c13,76.7,82.7,117,150.5,117c73.7,0,109.5-38.3,122.1-103.2h1
			c2.3,13.8,7.9,29.5,14.7,40.3C3920.4,920.2,3963.2,940.9,4007.5,940.8L4007.5,940.8z M4269.1,940.8c49.1,0,86.8-15.7,106.4-51.1
			c14.5-24.6,22.5-59,21.7-98.3c-0.2-6.9-1.7-9.8-6.6-9.8c-3.9,0-5.4,3-5.7,6.9c0.6,32.4-3,58-13.2,78.6
			c-8.5,19.7-21.4,30.5-39.1,30.5c-15.7,0-26.4-10.8-29.1-26.5c-2-11.8-2.2-30.5-2.2-42.3l2-295.9c0.3-3.9,2-5.9,8.8-5.9h69.8
			c6.9,0,8.4-3,7.9-5.9c-0.7-3.9-2-5.9-8.9-5.9H4312c-6.9,0-8.4-3-8-6.9l1.2-173c0.1-4.9-1.3-7.9-6.2-7.9s-6.5,2-8.8,5.9
			c-28.7,39.3-93.9,61-140.4,70.8c-6.5,2-8.8,5.9-8.6,12.8l-0.3,91.4c-0.3,3.9-1.8,6.9-9.6,6.9h-32.4c-7.9,0-9.5,2-8.8,5.9
			s2,5.9,8.9,5.9h33.4c6.9,0,8.2,2,7.9,5.9l-1.3,247.7c-0.4,20.7-0.5,43.3,3,63.9C4152.4,907.4,4208.2,940.9,4269.1,940.8
			L4269.1,940.8z M4625.2,1209.2c157.3,0,258.3-88.5,260.1-281.1l3-406c0.3-3.9-2.1-6.9-9-6.9h-145.4c-6.9,0-8.5,2-8.7,6.9l-1,255.6
			c-1.1,68.8-27.8,137.6-69.1,137.6c-20.6,0-33.5-17.7-37.8-43.3c-4-23.6-3.7-51.1-3.6-73.7l1.8-134.7c0.4-20.6,0.5-43.3-3-63.9
			c-10.4-61.9-65.4-96.3-123.4-96.3c-47.2,0-77.4,18.7-96.4,52.1c-12.9,22.6-20.3,54.1-21.4,82.6c-0.8,6.9,1.5,8.8,5.4,8.8
			s4.6-2,4.7-6.9c0.9-23.6,5.4-49.2,15.9-68.8c6.5-13.8,15.5-24.6,29.3-24.6s21.7,11.8,24,25.5c2.1,13.3,2.7,26.8,1.9,40.3l-1,162.2
			c-0.1,16.7,0.7,33.4,3.4,49.2c13,76.7,82.7,117,149.5,117c64.9,0,100.5-33.4,117.3-85.5h1l-0.5,124.8
			c-1.7,152.4-25,218.2-101.7,218.2c-44.2,0-67.5-15.7-70.2-31.5c-5.5-32.4,46.3-34.4,36.8-90.4c-5.7-33.4-39.5-59-79.8-59
			c-46.2,0-75.3,31.4-66.8,81.6C4451.9,1166.9,4532.8,1209.2,4625.2,1209.2L4625.2,1209.2z"/>
		<path id="B" class="st3" d="M2324,580.7c11.1,1,22.2,1.7,33.3,3c36.7,4.3,71.9,13.7,104.4,31.8c25.5,14.2,46.5,33,62.8,57.4
			c15.3,22.9,19.6,48.4,19.9,75.1c0.1,5-0.5,10-0.2,15c1.3,23-5.3,44.1-15.4,64.3c-24.1,48.3-62.7,79.4-113.6,95.7
			c-26.1,8.3-53.1,12.5-80.4,14.3c-45.2,3.1-90.6,1.1-135.4-6c-39.4-6.3-77.5-16.6-112.5-36.3c-11-6.2-21.5-13.4-31.3-21.3
			c-28.2-22.9-44.1-52.9-48.7-88.9c-1.1-7.9-1.9-15.9-2.2-23.9c-2.7-155-5.2-309.9-7.7-464.9c-0.2-11,0-21.9,0-33.5
			c-3.7-0.5-6.2-1-8.7-1c-9.3-0.1-2.6,0-12-0.1c-2.3,0-5.1,0.4-6.8-0.7c-2.1-1.4-3.5-3.5-4-6c-0.1-1.4,2.3-3.8,4.2-4.6
			c2-0.9,4.6-0.5,6.9-0.5c109.9,0,203.8-0.4,313.6,0.3c43.6,0.3,86.3,7.2,126.3,25.7c12.1,5.6,23.6,12.3,34.5,20
			c36.8,26.4,56,63.2,60.9,107.9c2.3,21.1,1.5,42-4.8,62.3c-9.9,32-30.5,55.8-58.2,73.7c-30.2,19.5-63.8,29.7-98.8,35.8
			c-8.7,1.5-17.5,2.8-26.3,4.2C2323.9,579.8,2324,580.2,2324,580.7z M2349.7,748.1c-1.1-31.5,0.9-44-2.6-84.8
			c-1.3-13.7-4.1-24.2-9.6-35.3c-14.1-28.3-36.8-42.9-68.6-42.9c-19,0-37.9,0-56.9,0c-4.6,0-9.3-0.2-14,0.2
			c-5.9,0.5-7.4,2.3-7.9,8.2c-0.2,2-0.1,4-0.1,6c0.1,41.6-0.1,83.3,0.6,124.9c0.6,34,1.8,67.9,3.7,101.8c1,19,4.7,37.7,12,55.4
			c12.8,31.3,35.8,46.6,69.7,46.5c28.5-0.1,46.7-11.8,56.5-38.7c5-13.4,8.3-27.4,9.8-41.6C2345.7,813.1,2347.6,778.1,2349.7,748.1
			L2349.7,748.1z M2189.5,561.8c0,10.8,1.3,12,12.1,12.1c20.3,0.1,40.6,0.3,60.9,0c34.7-0.6,58-17.6,67.9-51.1
			c4.1-13.6,6.3-28,7.7-42.1c4.2-43.1,3.6-86.6-1.8-129.6c-2.2-17.9-5.8-35.5-14.3-51.7c-10.9-20.9-27.6-34.5-51.4-36.4
			c-19.2-1.5-38.6-1-57.8-1.3c-5-0.1-10-0.2-15,0.1c-6.8,0.5-8.8,2.6-9.3,9.2c-0.2,2.7-0.1,5.3-0.1,8
			C2188.5,410.1,2189.4,459.8,2189.5,561.8z"/>
		<path id="Age" class="st3" d="M366.7,654.8c2,5.9,1.2,6.9-4.7,6.9H178.1c-5.9,0-7.2-2-5.1-6.9L266.6,354h2L366.7,654.8z
			 M674.5,929c8.8,0,9.3-3,8.7-6.9c-0.5-3-2-5.9-8.9-5.9h-18.7c-15.7,0-20.2-3-33.7-42.3L405.9,236c-1.6-3.9-4-5.9-9.9-5.9h-98.3
			c-6.9,0-8.7,1-9.8,5.9l-156,495.4C83.3,885.8,44.3,916.2,11.8,916.2h-3c-8.9,0-9.3,3-8.7,6.9c0.5,3,2,5.9,8.9,5.9h201.6
			c8.9,0,9.3-3,8.7-6.9c-0.5-3-2-5.9-8.9-5.9h-15.7c-55,0-84.2-61.9-46.7-182.8l16.6-53.1c1.9-5.9,3.8-6.9,8.7-6.9h191.7
			c7.9,0,8.2,2,10.2,7.9L438.2,874c12.2,37.3,8.1,42.3-9.5,42.3h-35.4c-8.9,0-9.3,3-8.7,6.9c0.5,3,2,5.9,8.9,5.9L674.5,929z
			 M849.8,1209.2c158.3,0,259.3-88.5,260.1-281.1l2.4-404c0-5.9-2.5-8.8-8.4-8.8H960.4c-7.9,0-8.5,2-9.5,7.9l-0.4,38.3h-1
			c-15.8-41.3-58-58-112-58c-53.1,0-102.3,16.7-139.6,52.1c-58.3,56-71.7,145.5-58.2,225.1c16.8,99.3,96.9,160.2,184.4,160.2
			c77.7,0,107.2-40.3,122.2-85.5h1l-0.5,124.8c-0.8,152.4-25,218.2-101.7,218.2c-43.3,0-67.5-15.7-70.2-31.5
			c-5.5-32.4,46.3-34.4,36.8-90.4c-5.7-33.4-39.5-59-79.8-59c-46.2,0-75.3,31.4-66.8,81.6C676.5,1166.9,757.4,1209.2,849.8,1209.2
			L849.8,1209.2z M870.8,915.2c-25.6,0-44.8-20.6-52.1-63.9c-10.3-61-9.4-148.4-3.7-219.2c6.2-67.8,14.1-114,59.3-114
			c46.2,0,73.8,41.3,73.9,82.6l-0.5,176.9C947.3,844.5,923,915.3,870.8,915.2L870.8,915.2z M1421.8,940.8
			c143.5,0,197.4-70.8,199.6-162.2c0.6-7.9-2.8-10.8-7.7-10.8c-7.9,0-8.2,3.9-8.2,15.7c-0.7,94.4-74,143.5-167.4,143.5
			c-61.9,0-84.5-40.3-92.3-86.5c-3.7-21.6-5.9-46.2-5.7-97.3c-0.3-7.9,0.3-9.8,8.2-9.8c24.8,1,48.3,1,70.6-1
			c110.4-3.9,201.4-35.4,186.8-121.9c-10.3-61-79.1-107.1-201-107.1c-72.7,0-128.4,19.7-170.9,53.1
			c-63.9,52.1-80.7,138.6-66.6,222.2C1187.5,898.5,1309.7,940.8,1421.8,940.8L1421.8,940.8z M1447.9,659.7
			c-11,45.2-43.4,62.9-102.4,62.9c-4.9,0-5.3-2-5.4-8.8l3.4-84.5c5.6-65.9,14-115,61.1-115c26.5,0,41.5,18.7,46.5,60
			C1453.7,600.7,1453.9,637.1,1447.9,659.7L1447.9,659.7z"/>
	</g>
</g>
</svg>
