<?xml version="1.0" encoding="utf-8"?>
<!-- Generator: Adobe Illustrator 16.0.4, SVG Export Plug-In . SVG Version: 6.00 Build 0)  -->
<!DOCTYPE svg PUBLIC "-//W3C//DTD SVG 1.1//EN" "http://www.w3.org/Graphics/SVG/1.1/DTD/svg11.dtd">
<svg version="1.1" id="Layer_1" xmlns="http://www.w3.org/2000/svg" xmlns:xlink="http://www.w3.org/1999/xlink" x="0px" y="0px"
	 width="190px" height="70px" viewBox="0 0 190 70" enable-background="new 0 0 190 70" xml:space="preserve">
<g>
	<path fill="#F92460" d="M123.493,11.394c0.191-0.379,0.278-0.816,0.509-1.583c0.19-0.633-0.317-1.14-1.017-1.14h-19.013
		c1.309-4.351,2.192-7.31,2.224-7.469C106.323,0.57,105.751,0,105.083,0h-7.504c-0.477,0-0.922,0.443-1.176,1.203
		c-0.064,0.192-0.965,3.147-2.277,7.469H74.971c-0.445,0-0.954,0.127-1.081,0.57c-0.161,0.562-0.318,1.33-0.382,1.899
		c-0.063,0.57,0.509,0.886,1.018,0.886h5.399c-2.761,4.644-17.288,29.074-17.864,29.875c-0.636,0.887-0.254,2.025,0.763,2.025h5.978
		c0.763,0,1.145-0.506,1.654-1.266c0.47-0.701,16.564-26.674,19.019-30.635h3.632c-2.381,7.842-5.555,18.315-7.79,25.698h-4.432
		c-0.509,0-0.89,0.127-1.145,0.76c-0.254,0.633-0.382,1.013-0.636,1.9c-0.254,0.886,0.127,1.266,0.763,1.266h4.262
		c-0.896,2.962-1.476,4.885-1.527,5.064c-0.255,0.886,0.127,1.855,0.731,1.855h7.567c0.794,0,1.113-0.652,1.304-1.096
		c0.042-0.098,0.735-2.356,1.79-5.823h3.297c1.018,0,1.4-0.253,1.527-0.761c0.126-0.505,0.254-1.012,0.509-1.898
		c0.247-0.861-0.509-1.267-1.272-1.267h-2.867c2.285-7.521,5.43-17.918,7.774-25.698h4.38c0.019,4.318,0.125,29.445,0.125,30.255
		c0,0.886,0.509,1.14,1.146,1.14h7.249c0.636,0,1.336-0.38,1.336-1.329V12.026h5.087C122.794,12.026,123.302,11.773,123.493,11.394z
		"/>
	<path fill="#F92460" d="M56.083,18.292H2.856c-0.7,0-1.145,0.38-1.272,1.076c-0.127,0.696-1.272,4.304-1.526,5.444
		c-0.254,1.139,0.381,1.646,0.954,1.646h52.846c0.827,0,1.208-0.126,1.59-1.013c0.382-0.886,1.335-4.114,1.653-5.57
		C57.419,18.419,56.083,18.292,56.083,18.292z"/>
	<g>
		<path fill="#F92460" d="M189.931,0.57C189.676,0,189.231,0,188.754,0h-7.949c-0.606,0-0.923,0.12-1.368,0.5
			C179.042,0.836,169.083,9,166.845,11h-13.162c-0.382,0-0.636,0.324-0.891,0.767s-0.382,0.832-0.509,1.402
			c-0.127,0.569,0.254,0.832,0.891,0.832h8.903l-1.06,1H154.7c-0.699,0-1.145,0.793-1.335,1.489
			c-0.19,0.695-7.122,23.493-7.377,24.505c-0.254,1.013,0.064,2.006,0.764,2.006h6.55c1.462,0,1.399-1,1.399-1h13.482
			c-0.19,0,0.19,1,0.89,1h6.615c1.334,0,1.334-0.153,1.589-1.04c0.254-0.886,6.868-24.399,7.059-25.158
			c0.19-0.759-0.317-1.802-1.017-1.802h-11.187l0.903-1h13.653c0.827,0,1.081-0.195,1.271-0.575c0.191-0.38,0.383-0.959,0.446-1.402
			c0.063-0.443-0.254-1.022-0.954-1.022h-9.039c2.044-2,10.59-8.943,11.01-9.361C189.931,1.133,190.113,0.979,189.931,0.57z
			 M169.789,35.071c-0.208,0.634-0.718,2.375-0.971,2.945c-0.254,0.569-0.572,0.983-1.271,0.983c0,0-9.667,0-10.43,0
			c-0.764,0-1.32-0.443-1.146-1.144c0.191-0.76,0.503-2,0.636-2.624c0.133-0.627,0.636-1.232,1.208-1.232s10.939,0,10.939,0
			C169.375,34,169.998,34.438,169.789,35.071z M172.213,27.466c-0.216,0.789-0.766,2.879-1.042,3.548
			c-0.277,0.668-0.954,0.986-1.462,0.986c-0.509,0-10.875,0-10.875,0c-0.493,0-0.884-0.377-0.699-1.125
			c0.186-0.748,0.921-3.226,1.018-3.608c0.19-0.759,0.835-1.267,1.208-1.267c0,0,10.111,0,10.748,0
			C172.125,26,172.429,26.677,172.213,27.466z M173.714,18c0.445,0,1.082,0.874,0.954,1.443c-0.127,0.57-0.8,2.466-1.018,3.013
			c-0.216,0.547-0.763,0.543-1.334,0.543c-0.573,0-10.685,0-10.685,0c-0.718,0-1.291,0.062-1.122-0.56
			c0.168-0.623,0.995-3.259,0.995-3.259c0.19-0.569,0.445-1.181,1.081-1.181H173.714z"/>
		<path fill="#F92460" d="M178.993,46h-33.196c-1.272,0-1.463-0.466-1.844-0.909c-0.294-0.342-2.482-3.026-3.465-4.214
			c0.449-0.354,0.776-0.645,0.921-0.788c0.954-0.95,1.463-2.164,1.845-3.367s5.66-19.406,5.851-20.102
			c0.19-0.696-0.382-1.621-1.081-1.621h-11.51c-0.446,0-1.146,0.583-1.146,1.342c0,0.76,0.445,1.658,1.017,1.658
			c0.573,0,3.245,0,3.245,0s-4.007,14.768-4.516,16.856c-0.508,2.089-1.78,3.238-2.416,3.808c-0.638,0.569-9.54,6.938-10.367,7.57
			c-0.827,0.634-0.509,1.766,0.382,1.766h6.55c0.89,0,1.145,0.075,1.781-0.432c0.383-0.306,3.735-2.592,6.54-4.677
			c0.884,1.268,2.833,3.851,3.126,4.289c0.382,0.57,0.891,0.82,1.686,0.82h36.217c0.954,0,0.954-0.155,1.208-0.979
			C180.087,46.155,179.755,46,178.993,46z"/>
		<path fill="#F92460" d="M140.519,10.026c0.063,0.57,0.509,0.974,1.208,0.974h7.186c1.017,0,1.145-0.784,1.081-1.354
			c-0.063-0.569-0.826-6.102-0.89-6.671C149.04,2.405,148.467,2,147.959,2h-7.695c-0.827,0-1.081,0.848-0.954,1.544
			C139.438,4.241,140.455,9.457,140.519,10.026z"/>
		<path fill="#F92460" d="M159.342,8.14c0.127,0.697,0.509,0.86,1.082,0.86h7.377c0.763,0,1.145-0.543,1.08-1.114
			c-0.063-0.569-0.89-6.57-1.017-7.077C167.737,0.304,167.482,0,166.942,0h-7.885c-0.795,0-1.061,1.012-0.923,1.633
			C158.261,2.202,159.216,7.443,159.342,8.14z"/>
	</g>
</g>
<g>
	<path fill="#F92460" d="M13.341,64.423l1.848-6.193h2.069l-2.958,9.1h-1.848l-2.019-6.175l-2.036,6.175H6.55l-2.925-9.1h2.121
		l1.813,6.193l2.002-6.227h1.761L13.341,64.423z"/>
	<path fill="#F92460" d="M31.731,64.423l1.848-6.193h2.07l-2.959,9.1h-1.848l-2.019-6.175l-2.036,6.175H24.94l-2.925-9.1h2.121
		l1.813,6.193l2.001-6.227h1.761L31.731,64.423z"/>
	<path fill="#F92460" d="M50.121,64.423l1.847-6.193h2.07l-2.959,9.1h-1.847l-2.019-6.175l-2.035,6.175H43.33l-2.925-9.1h2.121
		l1.813,6.193l2.001-6.227h1.762L50.121,64.423z"/>
	<path fill="#F92460" d="M58.545,67.263v-2.343h2.275v2.343H58.545z"/>
	<path fill="#F92460" d="M68.612,55.203h1.471v12.06h-2.087v-9.921L65.84,57.94l-0.444-1.71L68.612,55.203z"/>
	<path fill="#F92460" d="M81.59,67.451c-1.488,0-2.429-0.752-3.062-1.591V70h-2.069V58.23h2.069v1.506
		c0.667-0.941,1.608-1.693,3.062-1.693c2.138,0,4.208,1.693,4.208,4.704S83.745,67.451,81.59,67.451z M81.111,59.839
		c-1.403,0-2.634,1.145-2.634,2.907s1.231,2.908,2.634,2.908c1.419,0,2.583-1.112,2.583-2.908
		C83.694,60.968,82.514,59.839,81.111,59.839z"/>
	<path fill="#F92460" d="M95.642,67.467c-2.754,0-4.79-2.104-4.79-4.687c0-2.6,2.053-4.738,4.824-4.738s4.806,2.103,4.806,4.704
		C100.482,65.33,98.43,67.467,95.642,67.467z M95.642,59.855c-1.66,0-2.72,1.3-2.72,2.891c0,1.607,1.145,2.925,2.754,2.925
		c1.677,0,2.737-1.3,2.737-2.891C98.413,61.173,97.267,59.855,95.642,59.855z"/>
	<path fill="#F92460" d="M108.059,67.263h-2.069V58.23h2.069v1.403c0.583-0.855,1.42-1.59,2.823-1.59
		c2.036,0,3.215,1.368,3.215,3.472v5.748h-2.069v-5.132c0-1.403-0.701-2.206-1.933-2.206c-1.197,0-2.036,0.837-2.036,2.24V67.263z"
		/>
	<path fill="#F92460" d="M126.834,67.263v-1.506c-0.667,0.941-1.609,1.694-3.08,1.694c-2.122,0-4.19-1.694-4.19-4.704
		s2.036-4.704,4.19-4.704c1.488,0,2.429,0.752,3.08,1.59v-4.858h2.069v12.487H126.834z M124.251,59.839
		c-1.42,0-2.601,1.095-2.601,2.907c0,1.778,1.198,2.908,2.601,2.908c1.385,0,2.617-1.146,2.617-2.908S125.636,59.839,124.251,59.839
		z"/>
	<path fill="#F92460" d="M139.192,67.467c-2.755,0-4.79-2.104-4.79-4.687c0-2.6,2.052-4.738,4.824-4.738s4.807,2.103,4.807,4.704
		C144.032,65.33,141.979,67.467,139.192,67.467z M139.192,59.855c-1.659,0-2.72,1.3-2.72,2.891c0,1.607,1.146,2.925,2.754,2.925
		c1.676,0,2.736-1.3,2.736-2.891C141.962,61.173,140.816,59.855,139.192,59.855z"/>
	<path fill="#F92460" d="M149.302,67.263v-2.343h2.275v2.343H149.302z"/>
	<path fill="#F92460" d="M159.786,64.439c0,0.805,0.411,1.13,1.112,1.13c0.461,0,0.873-0.103,1.282-0.308v1.693
		c-0.513,0.291-1.095,0.461-1.865,0.461c-1.521,0-2.6-0.667-2.6-2.651V60.01h-1.146v-1.78h1.146v-2.48h2.07v2.48h2.429v1.78h-2.429
		V64.439z"/>
	<path fill="#F92460" d="M174.111,58.23h2.173l-3.694,9.1h-1.865l-3.711-9.1h2.223l2.429,6.638L174.111,58.23z"/>
</g>
</svg>
