<svg xmlns="http://www.w3.org/2000/svg" width="237" height="43" fill-rule="evenodd" clip-rule="evenodd" image-rendering="optimizeQuality" shape-rendering="geometricPrecision" text-rendering="geometricPrecision" viewBox="0 0 13.46 2.46"><defs><style>.fil0{fill:#fc0;fill-rule:nonzero}</style></defs><g id="Layer_x0020_1"><g id="_1368199040"><path d="M9.45 2.02h1.05c.03 0 .06-.02.08-.04a.11.11 0 00.04-.08v-.12H9.9a.48.48 0 01-.36-.13.48.48 0 01-.13-.36v-.12c0-.15.04-.27.13-.36A.5.5 0 019.9.68h1.12v.43h-.92a.11.11 0 00-.12.12c0 .03.01.05.03.08.03.02.05.03.09.03h.59c.15 0 .27.04.36.13.09.1.13.21.13.36v.13c0 .15-.04.27-.13.36a.48.48 0 01-.36.14l-1.25-.01v-.43zM8.02 1.3v1.13h-.58V.67h.51l.03.16a1.19 1.19 0 01.6-.2h.14c.15 0 .27.05.36.14.1.1.14.21.14.36v1.28h-.58V1.3c0-.24-.33-.17-.62 0zm-1.45-.08c0-.08-.05-.13-.13-.13h-.4c-.09 0-.13.05-.13.13v.66c0 .09.04.13.13.13h.4c.08 0 .13-.04.13-.13v-.66zm.57.71c0 .17-.04.3-.14.39-.09.1-.22.14-.38.14h-.76a.52.52 0 01-.39-.14.52.52 0 01-.14-.39v-.76c0-.16.05-.29.14-.38.1-.1.22-.14.39-.14h.76c.16 0 .3.04.38.14.1.1.14.22.14.38v.76zm-2 .49c-.15.03-.3.04-.42.04a.45.45 0 01-.34-.14.48.48 0 01-.13-.36V.12h.57v1.76c0 .03.01.06.04.08.02.03.05.04.08.04h.2v.42zm-3.13 0h-.63L.59 1.1v1.32H0V.12h.63l.79 1.33V.12h.59z" class="fil0"/><path fill="#00f5a3" fill-rule="nonzero" d="M12.79.12h.66l-.74 1.15.75 1.15h-.65l-.46-.72-.47.72h-.65l.75-1.15-.74-1.15h.66l.45.72z"/><path fill="#fff" fill-rule="nonzero" d="M5.7.13c.03 0 .06 0 .08.02.03.02.04.04.04.07V.5H5.7V.2h-.27v.3h-.11V.13h.37zm.69.4c0 .03-.01.05-.03.07a.12.12 0 01-.09.02h-.3V.54h.3V.5h-.26c-.03 0-.06 0-.08-.02A.08.08 0 015.9.42v-.3H6v.3h.27v-.3h.12v.41zM6.46 0h.11v.42h.1v.09h-.1C6.56.5 6.53.5 6.5.48 6.48.46 6.46.44 6.46.42V0zm.4.13h.27c.03 0 .06 0 .08.02.02.02.03.04.03.07v.2c0 .02 0 .04-.03.06a.13.13 0 01-.08.03h-.26C6.83.5 6.8.5 6.78.48L6.75.42v-.2c0-.03.01-.05.03-.07a.13.13 0 01.09-.02zm.27.08h-.27v.22h.27v-.2zm.55-.08c.04 0 .06 0 .09.02.02.02.03.04.03.07V.5h-.11V.2h-.27v.3H7.3V.13h.37zm.68.09v.01h-.11V.22h-.27v.05h.26c.03 0 .06.01.08.03.02.02.04.04.04.07v.05c0 .02-.02.04-.04.06a.12.12 0 01-.08.03h-.26C7.95.5 7.92.5 7.9.48a.08.08 0 01-.04-.06V.4h.11v.02h.27V.36h-.26c-.03 0-.06 0-.08-.03a.08.08 0 01-.04-.06V.22c0-.03.01-.05.04-.07a.13.13 0 01.08-.02h.26c.03 0 .06 0 .08.02.02.02.04.04.04.07zm.43-.1h.12v.03L8.73.3l.18.18V.5H8.8L8.66.38l-.13.13h-.12V.49L8.6.3 8.41.15V.13h.12l.13.12.13-.12zm.5.3h.37v.09H9.3C9.26.5 9.23.5 9.2.48 9.18.46 9.17.44 9.17.42v-.2c0-.03.01-.05.04-.07a.13.13 0 01.08-.02h.37V.2H9.3v.23zm.56-.3h.26c.03 0 .06.01.08.03.02.02.03.04.03.07v.2c0 .02 0 .04-.03.06a.13.13 0 01-.08.03h-.26C9.82.5 9.79.5 9.77.48a.08.08 0 01-.04-.06v-.2c0-.03.01-.05.04-.07a.12.12 0 01.08-.02zm.26.1h-.26v.2h.26v-.2zm.8-.1c.03 0 .06.01.08.03.03.02.04.04.04.07V.5h-.11V.2h-.19v.3h-.11V.2h-.2v.3h-.1V.13h.6zm-1.8.3v.09H9V.42h.1z"/><path d="M2.82 2.46c-.12 0-.26 0-.43-.02V2.1h.3c.08 0 .13-.02.16-.05.02-.04.02-.09-.02-.15L2.16.67h.6l.42.86.34-.86h.61l-.65 1.39a.73.73 0 01-.25.3c-.1.07-.24.1-.41.1z" class="fil0"/></g></g></svg>