<?xml version="1.0" encoding="utf-8"?>
<!-- Generator: Adobe Illustrator 22.1.0, SVG Export Plug-In . SVG Version: 6.00 Build 0)  -->
<svg version="1.1" id="Vrstva_1" xmlns="http://www.w3.org/2000/svg" xmlns:xlink="http://www.w3.org/1999/xlink" x="0px" y="0px"
	 viewBox="0 0 1590.4 100.8" style="enable-background:new 0 0 1590.4 100.8;" xml:space="preserve">
<style type="text/css">
	.st0{fill:#FFFFFF;}
	.st1{fill:#9C28B1;}
</style>
<title>site-logo-watermark</title>
<g>
	<path class="st0" d="M51,83.2c11.6,0,19.9-3.5,26-7.6l8.3,11.4C77.3,94,66.5,97.8,51,97.8c-31.6,0-49-20.2-49-48
		c0-27.8,17.4-48,49-48c15.5,0,26.3,3.7,34.3,10.7L77,23.8c-6.1-4.1-14.5-7.6-26-7.6c-21.3,0-31.4,14.2-31.4,33.5
		C19.6,69,29.7,83.2,51,83.2z"/>
	<path class="st0" d="M171.3,81.3v14.5H96.9v-8.6l49.9-69H99.6V3.7h71.7v8.6l-49.9,69H171.3z"/>
	<path class="st0" d="M253,41.6v14.5h-45.8v25.2h48.7v14.5h-66V3.7h65.4v14.5h-48v23.4H253z"/>
	<path class="st0" d="M314.6,83.2c11.6,0,19.9-3.5,26-7.6l8.3,11.4c-8,6.9-18.8,10.7-34.3,10.7c-31.6,0-49-20.2-49-48
		c0-27.8,17.4-48,49-48c15.5,0,26.3,3.7,34.3,10.7l-8.3,11.4c-6.1-4.1-14.5-7.6-26-7.6c-21.3,0-31.4,14.2-31.4,33.5
		C283.2,69,293.3,83.2,314.6,83.2z"/>
	<path class="st0" d="M426.1,3.7h17.4v92.2h-17.4V56.1h-43.9v39.7h-17.4V3.7h17.4v37.9h43.9V3.7z"/>
	<path class="st1" d="M531.6,41.6v22h-43v32.1h-27.2V3.7h73.3v22.6h-46.1v15.4H531.6z"/>
	<path class="st1" d="M546.2,3.7h27.2v92.2h-27.2V3.7z"/>
	<path class="st1" d="M589.4,95.8V3.7h40.7c23.9,0,41.7,8.9,41.7,32.8c0,15-10.8,22.7-17.9,25.5l18.8,33.9h-29.2l-15.8-28.5h-10.9
		v28.5H589.4z M616.6,26.3v20.3h13.5c9.8,0,14.2-3,14.2-10.2c0-7.1-4.4-10.2-14.2-10.2H616.6z"/>
	<path class="st1" d="M745,28.7c-7.1-3.1-15.4-5-24.9-5c-6,0-11.2,1.7-11.2,6.6c0,5,5.3,6.4,13.5,8.1c23.5,4.9,37.2,12.1,37.2,30.3
		c0,22-18.5,29.7-41.5,29.7c-15.6,0-29.2-4.2-39.1-11.9l12.3-18.3c7.6,4.8,16.8,7.6,25.6,7.6c9.1,0,15.3-1.2,15.3-7.1
		c0-4.8-5.8-6.4-15-8.3c-24.6-5.1-35.7-15.2-35.7-30.1c0-16.1,10.8-29.2,37.3-29.2c15.7,0,28.1,3,38.5,9.3L745,28.7z"/>
	<path class="st1" d="M852.3,3.7v22.6h-30.1v69.5h-27.2V26.3h-30.1V3.7H852.3z"/>
	<path class="st1" d="M905.7,62.5l21.5-58.8h28.7l-36.4,92.2H892L855.5,3.7h28.7L905.7,62.5z"/>
	<path class="st1" d="M963,3.7h27.2v92.2H963V3.7z"/>
	<path class="st1" d="M1046.3,95.8h-40.1V3.7h40.1c35.5,0,48.3,20.2,48.3,46.1C1094.5,75.7,1081.8,95.8,1046.3,95.8z M1033.4,73.2
		h12.9c14.6,0,21-7.8,21-23.5c0-15.6-6.4-23.5-21-23.5h-12.9V73.2z"/>
	<path class="st1" d="M1175,38.2v22h-43v13h46.7v22.6h-73.9V3.7h73.3v22.6H1132v11.9H1175z"/>
	<path class="st1" d="M1288.8,49.7c0,26.9-16,48.7-50.5,48.7c-34.5,0-50.5-21.7-50.5-48.7c0-26.9,16-48.7,50.5-48.7
		C1272.8,1.1,1288.8,22.8,1288.8,49.7z M1215.2,49.7c0,13,6.4,26,23.1,26c16.6,0,23.1-13,23.1-26c0-13-6.4-26-23.1-26
		C1221.7,23.7,1215.2,36.7,1215.2,49.7z"/>
	<path class="st0" d="M1309.3,77.4c5.3,0,9.6,4.3,9.6,9.6c0,5.3-4.3,9.5-9.6,9.5c-5.3,0-9.5-4.2-9.5-9.5
		C1299.8,81.7,1304,77.4,1309.3,77.4z"/>
	<path class="st0" d="M1364.6,83.7c6.9,0,13.2-1.9,18.9-6.4l8.2,10.3c-7.2,7.1-16.5,9.4-27.1,9.4c-22.4,0-36.6-14.7-36.6-34.1
		s14.3-34.1,36.6-34.1c10.6,0,19.9,2.3,27.1,9.4l-8.4,10.2c-5.7-4.5-11.8-6.2-18.8-6.2c-14.1,0-20.1,9.9-20.1,20.7
		S1350.5,83.7,1364.6,83.7z"/>
	<path class="st0" d="M1436.7,97.1c-22.4,0-36.6-14.7-36.6-34.1s14.3-34.1,36.6-34.1c22.3,0,36.6,14.6,36.6,34.1
		C1473.3,82.5,1459,97.1,1436.7,97.1z M1436.7,42.3c-14.1,0-20.1,9.9-20.1,20.7s6,20.7,20.1,20.7c14.1,0,20.1-9.9,20.1-20.7
		S1450.8,42.3,1436.7,42.3z"/>
	<path class="st0" d="M1487.5,30.1h16.1v6c2.2-3.9,8.7-7.3,15.2-7.3c10.3,0,17.6,3.6,21.5,9.1c3.5-4.7,11.2-9.1,20.2-9.1
		c15.7,0,26.5,8.4,26.5,28.7v38.3h-16.1V57.5c0-9.1-3.9-15.2-12.8-15.2c-8.9,0-12.8,6.2-12.8,15.2v38.3h-16.1V57.5
		c0-9.1-3.9-15.2-12.8-15.2c-8.9,0-12.8,6.2-12.8,15.2v38.3h-16.1V30.1z"/>
</g>
</svg>
