<?xml version="1.0" encoding="utf-8"?>
<!-- Generator: Adobe Illustrator 25.0.0, SVG Export Plug-In . SVG Version: 6.00 Build 0)  -->
<svg version="1.1" id="Layer_1" xmlns="http://www.w3.org/2000/svg" xmlns:xlink="http://www.w3.org/1999/xlink" x="0px" y="0px"
	 viewBox="0 0 310.41 106.64" style="enable-background:new 0 0 310.41 106.64;" xml:space="preserve">
<style type="text/css">
	.st0{display:none;fill:#CB9866;}
	.st1{fill:#BE1E2D;}
	.st2{fill:none;stroke:#FFFFFF;stroke-width:2;stroke-linecap:round;stroke-linejoin:round;stroke-miterlimit:10;}
</style>
<rect x="-54.18" y="-44.31" class="st0" width="406.8" height="202.6"/>
<g>
	<g>
		<path class="st1" d="M44.36,73.67c1.03,0,1.91-0.37,2.65-1.1c0.73-0.73,1.12-1.62,1.16-2.65V36.78c-0.12-1.39-0.77-2.42-1.96-3.09
			c-0.59-0.32-1.21-0.48-1.84-0.48h-0.77v-0.59h22.79c1.23,0,2.58-0.12,4.05-0.36c1.47-0.24,2.5-0.48,3.09-0.71v10.41h-0.6v-0.71
			c0-1.78-0.53-3.22-1.58-4.31c-1.05-1.09-2.47-1.67-4.25-1.75h-9.99v17.31h7.85c1.47-0.04,2.68-0.54,3.63-1.52
			C69.53,50,70,48.8,70,47.37v-0.54h0.59v13.74H70V60.1c0-1.98-0.79-3.45-2.38-4.4c-0.79-0.44-1.67-0.67-2.62-0.71h-7.91V71.7h7.79
			c2.89,0,5.32-0.83,7.29-2.5c1.96-1.67,3.42-4.03,4.37-7.08h0.6L74.4,74.26H43.59v-0.59H44.36z"/>
		<path class="st1" d="M122.83,73.67h0.83v0.59h-20.29v-0.59h0.77c0.83,0,1.51-0.4,2.02-1.19c0.24-0.44,0.36-0.85,0.36-1.25
			c0-0.4-0.12-0.79-0.36-1.19L97.9,57.13L86.36,73.55c-4.68,6.58-9.82,9.88-15.41,9.88c-0.83,0-1.69-0.08-2.56-0.24v-0.59
			c3.49-0.32,6.48-1.81,8.98-4.46c1.19-1.27,2.62-3.03,4.28-5.29l13.92-19.28L84.7,36.72c-0.91-1.39-2.12-2.4-3.63-3.03
			c-0.79-0.32-1.59-0.48-2.38-0.48h-0.83v-0.59h20.23v0.59h-0.77c-0.83,0-1.51,0.4-2.02,1.19c-0.24,0.44-0.36,0.86-0.36,1.28
			c0,0.42,0.1,0.8,0.3,1.16l7.32,11.24l10.35-15.23c4.52-6.62,9.6-9.94,15.23-9.94c0.48,0,0.97,0.02,1.49,0.06v0.59
			c-3.25,0.08-6.51,2.32-9.76,6.72c-0.48,0.59-0.94,1.23-1.4,1.9c-0.46,0.67-0.74,1.07-0.86,1.19l-12.67,18.38l11.9,18.44
			c0.67,0.99,1.56,1.82,2.65,2.47C120.56,73.34,121.68,73.67,122.83,73.67z"/>
		<path class="st1" d="M143.41,31.78c7.34,0,13.17,1.94,17.49,5.83c4.32,3.89,6.48,9.16,6.48,15.83s-2.16,11.94-6.48,15.83
			c-4.32,3.89-10.15,5.83-17.49,5.83c-7.34,0-13.17-1.94-17.49-5.83c-4.32-3.89-6.48-9.16-6.48-15.83c0-4.4,0.98-8.24,2.94-11.51
			s4.75-5.78,8.36-7.53C134.35,32.66,138.58,31.78,143.41,31.78z M133.03,67.45c2.56,3.43,6.02,5.15,10.38,5.15
			c4.36,0,7.82-1.71,10.38-5.15c2.56-3.43,3.84-8.1,3.84-14.01c0-3.89-0.58-7.28-1.73-10.17c-1.15-2.89-2.8-5.12-4.94-6.66
			s-4.66-2.32-7.56-2.32c-4.36,0-7.82,1.72-10.38,5.15c-2.56,3.43-3.84,8.1-3.84,14.01C129.2,59.35,130.48,64.02,133.03,67.45z"/>
		<path class="st1" d="M193.15,35.06v34.92c0.04,1.03,0.43,1.9,1.16,2.62c0.73,0.71,1.62,1.07,2.65,1.07h0.71l0.06,0.59h-18.09
			v-0.59h0.77c0.99,0,1.85-0.36,2.59-1.07c0.73-0.71,1.14-1.57,1.22-2.56V35.06h-8.03c-1.82,0.04-3.27,0.62-4.34,1.73
			s-1.61,2.56-1.61,4.34v0.71h-0.59V31.49c0.55,0.24,1.56,0.48,3,0.71c1.45,0.24,2.79,0.36,4.02,0.36h23.98
			c1.94-0.04,3.53-0.2,4.76-0.48c1.23-0.28,1.98-0.48,2.26-0.59v10.35h-0.59v-0.71c0-1.79-0.54-3.23-1.61-4.34s-2.52-1.69-4.34-1.73
			H193.15z"/>
		<path class="st1" d="M211.71,73.67c1.03,0,1.91-0.37,2.65-1.1c0.73-0.73,1.12-1.62,1.16-2.65V36.9c-0.04-1.03-0.43-1.9-1.16-2.62
			c-0.73-0.71-1.62-1.07-2.65-1.07h-0.77v-0.59h18.09l-0.06,0.59h-0.71c-1.03,0-1.92,0.36-2.68,1.07c-0.75,0.71-1.13,1.59-1.13,2.62
			v33.02c0,1.03,0.38,1.91,1.13,2.65c0.75,0.73,1.65,1.1,2.68,1.1h0.71l0.06,0.59h-18.09v-0.59H211.71z"/>
		<path class="st1" d="M276.62,51c0.12,1.19,0.18,2.69,0.18,4.49s-0.36,4.01-1.07,6.6c-0.71,2.6-2,4.89-3.87,6.87
			c-3.81,4.09-9.04,6.13-15.71,6.13c-8.09,0-14.48-1.99-19.16-5.98c-4.68-3.99-7.02-9.2-7.02-15.65s2.37-11.67,7.11-15.68
			c4.74-4,11-6.01,18.77-6.01c2.97,0,5.81,0.3,8.51,0.89c2.7,0.59,4.94,1.37,6.72,2.32l0.12,10.23h-0.48
			c-0.67-2.54-1.81-4.66-3.39-6.37c-2.86-3.05-6.7-4.58-11.54-4.58c-4.84,0-8.74,1.73-11.69,5.18c-2.96,3.45-4.43,8.02-4.43,13.71
			c0,5.69,1.54,10.32,4.61,13.89c3.07,3.57,7.31,5.41,12.7,5.53c5.83,0,10.47-1.86,13.92-5.59c3.45-3.73,5.18-8.78,5.18-15.17
			c0-0.28,0-0.55,0-0.83H276.62z"/>
	</g>
	<line class="st2" x1="44.4" y1="25.66" x2="109.96" y2="25.66"/>
	<line class="st2" x1="44.4" y1="80.98" x2="61.74" y2="80.98"/>
	<line class="st2" x1="136.05" y1="25.66" x2="269.32" y2="25.66"/>
	<line class="st2" x1="87.55" y1="80.98" x2="268.43" y2="80.98"/>
</g>
</svg>
