<svg xmlns="http://www.w3.org/2000/svg" width="422" height="42" viewBox="0 0 42.589 4.256" shape-rendering="geometricPrecision" text-rendering="geometricPrecision" image-rendering="optimizeQuality" fill-rule="evenodd" clip-rule="evenodd"><g fill-rule="nonzero"><path d="M24.877 3.179a1.093 1.093 0 01-.509.391 2.067 2.067 0 01-.761.129c-.292 0-.551-.069-.779-.206a1.367 1.367 0 01-.526-.585 2.025 2.025 0 01-.191-.881v-.313c0-.541.126-.961.378-1.258.253-.298.607-.447 1.064-.447.375 0 .676.096.904.287.229.192.369.464.42.815h-.474c-.088-.475-.371-.713-.848-.713-.317 0-.557.111-.721.334-.163.223-.245.546-.247.968v.294c0 .402.092.723.276.96a.894.894 0 00.747.357c.177 0 .332-.02.465-.059a.723.723 0 00.331-.199v-.802h-.831v-.389h1.302v1.317zm-3.49.47h-.475L19.105.883v2.766h-.476V.06h.476l1.811 2.778V.06h.471v3.589zm-3.624 0h-.473V.06h.473v3.589zM16.723.448h-1.154v3.201h-.47V.448h-1.151V.06h2.775v.388zm-4.917 1.363h.728c.234 0 .421-.06.56-.182a.619.619 0 00.209-.489c0-.222-.067-.393-.199-.512-.132-.118-.323-.178-.573-.18h-.725v1.363zm.843.389h-.843v1.449h-.476V.06h1.188c.405 0 .716.092.933.277.218.184.327.452.327.804a.973.973 0 01-.181.585 1.084 1.084 0 01-.504.373l.843 1.52v.03h-.508L12.649 2.2zm-2.182 1.449h-.473V.06h.473v3.589zM9.211.06v2.441c-.002.339-.108.615-.32.831-.211.215-.497.336-.859.362l-.125.005c-.393 0-.706-.106-.939-.318-.234-.212-.352-.504-.355-.875V.06h.469v2.43c0 .26.07.461.213.605.143.144.347.216.612.216.268 0 .473-.072.615-.215.142-.143.213-.344.213-.604V.06h.476zM5.484 1.738c0-.421-.084-.747-.252-.977-.17-.228-.409-.343-.722-.343a.835.835 0 00-.704.342c-.171.227-.26.542-.265.946v.264c0 .411.086.734.259.97a.832.832 0 00.716.356c.305 0 .541-.112.709-.334.168-.223.254-.541.259-.957v-.267zm.473.232c0 .347-.055.646-.165.897-.11.251-.264.447-.464.588l.641.504-.323.297-.756-.601a1.57 1.57 0 01-.374.044c-.283 0-.534-.069-.753-.208a1.383 1.383 0 01-.509-.594 2.162 2.162 0 01-.186-.895v-.259c0-.345.06-.65.18-.915.12-.264.29-.467.509-.608A1.37 1.37 0 014.51.009c.29 0 .544.07.763.21.219.139.388.34.506.603.119.262.178.569.178.919v.229zm-4.681.08C.871 1.933.575 1.789.39 1.619a.823.823 0 01-.277-.63.87.87 0 01.339-.702c.226-.185.52-.278.881-.278.246 0 .467.048.659.143.194.095.343.227.449.395.106.167.159.351.159.549h-.476c0-.217-.069-.388-.207-.512C1.779.46 1.584.398 1.333.398 1.1.398.918.449.788.552A.512.512 0 00.591.98c0 .147.062.271.186.372.124.101.335.194.634.278.298.084.532.176.7.277.168.101.293.219.374.355a.894.894 0 01.122.476.838.838 0 01-.34.699c-.227.175-.53.262-.909.262-.247 0-.477-.047-.691-.141a1.173 1.173 0 01-.494-.389A.943.943 0 010 2.61h.475c0 .216.08.387.241.512.16.126.374.189.642.189.25 0 .441-.052.574-.153a.497.497 0 00.2-.416.488.488 0 00-.185-.408c-.123-.096-.347-.191-.671-.284z" fill="#ffc"/><path d="M39.881.04c.036 0 .067.001.092.005a.22.22 0 01.123.056.725.725 0 01.062.067l1.693 2.141V.356c0-.3.457-.316.738-.316v3.609h-.436a.399.399 0 01-.163-.03.361.361 0 01-.129-.109l-1.684-2.128v.25l.001.084v1.239h-.001v.378c0 .3-.457.315-.738.316V.81l.001-.027V.04h.441zm-3.852 3.005a1.407 1.407 0 00.559-.109v-.55c-.494 0-.524-.06-.524-.609h.878c.2 0 .404.243.404.443v1.088a1.841 1.841 0 01-.607.291c-.113.03-.234.053-.362.067a3.539 3.539 0 01-.412.023c-.264 0-.509-.047-.733-.141a1.782 1.782 0 01-.583-.386 1.776 1.776 0 01-.386-.584 1.91 1.91 0 01-.14-.735c0-.269.044-.516.134-.742.089-.226.217-.419.382-.584.166-.163.367-.29.602-.381.235-.091.498-.136.788-.136a2.215 2.215 0 01.789.139 1.646 1.646 0 01.553.349c-.32.484-.399.517-.771.327a1.099 1.099 0 00-.373-.109 1.743 1.743 0 00-.228-.013c-.156 0-.298.027-.423.083a.9.9 0 00-.32.234 1.068 1.068 0 00-.205.362 1.461 1.461 0 00-.072.472c0 .192.027.362.08.51.052.149.126.274.219.377a.934.934 0 00.332.233c.128.054.267.081.419.081zm-4.03-1.312h.337a.861.861 0 00.291-.044.512.512 0 00.196-.12.46.46 0 00.112-.179.693.693 0 00.034-.222.464.464 0 00-.154-.371c-.103-.089-.263-.134-.479-.134h-.337v1.07zm0 .579v1.334h-.837V.035h1.174c.26 0 .483.027.667.081.184.053.334.128.451.224.116.096.2.209.253.34.053.13.079.273.079.427 0 .117-.015.228-.047.332a.99.99 0 01-.139.289 1.11 1.11 0 01-.228.237 1.18 1.18 0 01-.311.171.778.778 0 01.157.104.652.652 0 01.128.151l.767 1.255h-.758c-.14 0-.24-.052-.302-.158l-.599-1.047a.254.254 0 00-.092-.099.311.311 0 00-.15-.03h-.213zm-2.347.643V.356c0-.3.521-.316.842-.316v3.293c0 .3-.521.315-.842.316v-.694zM25.632.04c.7 0 .922.003 1.048.375l.786 2.339.841-2.412c.101-.292.378-.302.974-.302l-1.446 3.609h-.757L25.632.04zM37.93 2.955V.356c0-.3.521-.316.842-.316v3.293c0 .3-.521.315-.842.316v-.694z" fill="#f9f"/></g></svg>