<?xml version="1.0" encoding="utf-8"?>
<!-- Generator: Adobe Illustrator 22.1.0, SVG Export Plug-In . SVG Version: 6.00 Build 0)  -->
<svg version="1.1" id="Vrstva_1" xmlns="http://www.w3.org/2000/svg" xmlns:xlink="http://www.w3.org/1999/xlink" x="0px" y="0px"
	 viewBox="0 0 1667 100.8" style="enable-background:new 0 0 1667 100.8;" xml:space="preserve">
<style type="text/css">
	.st0{fill:#FFFFFF;}
	.st1{fill:#951343;}
</style>
<title>site-logo-watermark</title>
<g>
	<path class="st0" d="M51.3,83.8c11.6,0,20-3.5,26.2-7.6l8.3,11.5c-8.1,7-18.9,10.7-34.5,10.7C19.5,98.4,2,78,2,50.1
		C2,22.2,19.5,1.8,51.3,1.8c15.6,0,26.4,3.7,34.5,10.7L77.5,24c-6.1-4.1-14.5-7.6-26.2-7.6c-21.4,0-31.6,14.3-31.6,33.7
		S29.9,83.8,51.3,83.8z"/>
	<path class="st0" d="M172.3,81.8v14.6H97.5v-8.7l50.2-69.4h-47.5V3.7h72.1v8.7L122,81.8H172.3z"/>
	<path class="st0" d="M254.5,41.9v14.6h-46.1v25.3h48.9v14.6h-66.4V3.7h65.8v14.6h-48.3v23.5H254.5z"/>
	<path class="st0" d="M316.4,83.8c11.6,0,20-3.5,26.2-7.6l8.3,11.5c-8.1,7-18.9,10.7-34.5,10.7c-31.8,0-49.3-20.4-49.3-48.3
		c0-27.9,17.5-48.3,49.3-48.3c15.6,0,26.4,3.7,34.5,10.7L342.6,24c-6.1-4.1-14.5-7.6-26.2-7.6c-21.4,0-31.6,14.3-31.6,33.7
		S295,83.8,316.4,83.8z"/>
	<path class="st0" d="M428.6,3.7h17.5v92.7h-17.5v-40h-44.2v40H367V3.7h17.5v38.1h44.2V3.7z"/>
	<path class="st1" d="M534.7,38.5v22.2h-43.3v13.1h47v22.8h-74.4V3.7h73.7v22.8h-46.4v12H534.7z"/>
	<path class="st1" d="M643.3,96.5h-30.2l-19.3-29.3l-19.3,29.3h-30.2l31.8-48.2L546.9,3.7h30.2l16.7,25.9l16.7-25.9h30.2l-29.2,44.5
		L643.3,96.5z"/>
	<path class="st1" d="M650.4,96.5V3.7h42.2c26,0,40.6,12.7,40.6,34.8c0,22.1-14.6,34.8-40.6,34.8h-14.9v23H650.4z M677.8,26.6v24.1
		h14.9c9.2,0,13-4.9,13-12c0-7.1-3.8-12-13-12H677.8z"/>
	<path class="st1" d="M815.5,38.5v22.2h-43.3v13.1h47v22.8h-74.4V3.7h73.7v22.8h-46.4v12H815.5z"/>
	<path class="st1" d="M834,96.5V3.7H875c24.1,0,41.9,9,41.9,33c0,15.1-10.9,22.8-18,25.6l18.9,34.1h-29.4l-15.9-28.6h-11v28.6H834z
		 M861.4,26.6V47H875c9.8,0,14.3-3,14.3-10.2c0-7.2-4.5-10.2-14.3-10.2H861.4z"/>
	<path class="st1" d="M928.1,3.7h27.4v92.7h-27.4V3.7z"/>
	<path class="st1" d="M998.8,46.2v50.2h-27.4V3.7h36.6l20.3,52.4l20.4-52.4h36.5v92.7h-27.4V46.2l-19.5,50.2h-20L998.8,46.2z"/>
	<path class="st1" d="M1171.9,38.5v22.2h-43.3v13.1h47v22.8h-74.4V3.7h73.7v22.8h-46.4v12H1171.9z"/>
	<path class="st1" d="M1190.4,3.7h32l30.7,52.2V3.7h27.3v92.7h-32l-30.7-52.2v52.2h-27.3V3.7z"/>
	<path class="st1" d="M1377.6,3.7v22.8h-30.3v70h-27.4v-70h-30.3V3.7H1377.6z"/>
	<path class="st0" d="M1387.6,77.9c5.3,0,9.6,4.3,9.6,9.6s-4.3,9.6-9.6,9.6c-5.3,0-9.6-4.3-9.6-9.6S1382.3,77.9,1387.6,77.9z"/>
	<path class="st0" d="M1443.2,84.2c7,0,13.3-1.9,19-6.4l8.3,10.4c-7.2,7.2-16.6,9.5-27.3,9.5c-22.5,0-36.9-14.8-36.9-34.3
		c0-19.5,14.4-34.3,36.9-34.3c10.7,0,20,2.3,27.3,9.5l-8.4,10.3c-5.8-4.5-11.9-6.3-18.9-6.3c-14.2,0-20.2,10-20.2,20.8
		C1423,74.3,1429.1,84.2,1443.2,84.2z"/>
	<path class="st0" d="M1515.7,97.8c-22.5,0-36.9-14.8-36.9-34.3c0-19.5,14.4-34.3,36.9-34.3c22.4,0,36.9,14.7,36.9,34.3
		C1552.6,83.1,1538.2,97.8,1515.7,97.8z M1515.7,42.6c-14.2,0-20.2,10-20.2,20.8c0,10.9,6.1,20.8,20.2,20.8s20.2-10,20.2-20.8
		C1536,52.6,1529.9,42.6,1515.7,42.6z"/>
	<path class="st0" d="M1566.8,30.4h16.2v6.1c2.2-3.9,8.8-7.4,15.3-7.4c10.4,0,17.7,3.6,21.7,9.1c3.6-4.7,11.3-9.1,20.3-9.1
		c15.8,0,26.6,8.5,26.6,28.8v38.5h-16.2V57.9c0-9.1-3.9-15.3-12.9-15.3c-9,0-12.9,6.2-12.9,15.3v38.5h-16.2V57.9
		c0-9.1-3.9-15.3-12.9-15.3c-9,0-12.9,6.2-12.9,15.3v38.5h-16.2V30.4z"/>
</g>
</svg>
