<svg xmlns="http://www.w3.org/2000/svg" width="372" height="37" fill-rule="evenodd" clip-rule="evenodd" image-rendering="optimizeQuality" shape-rendering="geometricPrecision" text-rendering="geometricPrecision" viewBox="0 0 40.69 4.08"><defs><style>.fil0{fill-rule:nonzero;fill:#fff}</style></defs><g id="Layer_x0020_1"><g id="_4455809632"><path d="M31.81 3.08a.75.75 0 00-.12-.43.988.988 0 00-.37-.32 4 4 0 00-.77-.27 3.6 3.6 0 01-.77-.29c-.18-.1-.3-.2-.38-.34a.85.85 0 01-.12-.46c0-.29.12-.52.36-.7.25-.18.56-.27.96-.27.25 0 .48.05.68.15a1.1 1.1 0 01.64 1.02h-.15c0-.3-.1-.54-.33-.73-.21-.2-.5-.3-.84-.3-.35 0-.64.08-.85.24a.7.7 0 00-.32.58c0 .24.09.43.28.58.18.14.5.27.92.39.43.1.75.24.95.38.25.2.38.44.38.76 0 .2-.05.38-.17.53-.11.15-.27.27-.48.36-.2.08-.44.12-.7.12-.28 0-.54-.05-.77-.14a1.1 1.1 0 01-.52-.4 1.12 1.12 0 01-.17-.63h.15c0 .32.12.58.36.76.25.18.56.27.95.27.35 0 .64-.08.86-.24a.73.73 0 00.34-.62zm-5 .8h2.04v.15h-2.19V.06h.15zm-3.22-1.7h1.25c.3 0 .55-.1.74-.28a.94.94 0 00.28-.7c0-.31-.1-.55-.3-.73-.22-.18-.5-.27-.86-.27h-1.11v1.98zm1.38.14h-1.38v1.7h-.15V.07h1.27c.4 0 .71.1.95.3.23.2.35.49.35.84 0 .27-.08.5-.25.7-.17.2-.38.33-.64.38l1.06 1.7v.05h-.16l-1.05-1.7zM22.7 4.03h-.14V.06h.14zm-.84-.43c-.1.14-.28.25-.53.35-.25.09-.52.13-.83.13a1.45 1.45 0 01-1.32-.82c-.13-.26-.2-.56-.2-.9V1.7c0-.33.06-.62.18-.88.13-.26.3-.46.53-.6.23-.14.48-.21.77-.21.4 0 .71.1.96.3.25.2.4.48.43.83h-.14a1.1 1.1 0 00-.4-.73c-.21-.17-.5-.26-.85-.26-.4 0-.73.15-.97.43-.25.29-.37.67-.37 1.13v.64c0 .3.06.58.17.83a1.31 1.31 0 001.2.77c.28 0 .53-.04.75-.12a.98.98 0 00.47-.28V2.37H20.5v-.14h1.36V3.6zm-5.1-1.98c.07 0 .1.14.1.4 0 .08 0 .18-.02.28-.01.11-.04.17-.1.17h-.71v.57h1.04c.07 0 .11.08.13.25a1.53 1.53 0 01-.01.54c-.03.13-.06.2-.12.2h-1.94c-.15 0-.22-.06-.22-.18V.19c0-.1.04-.15.13-.15h2.04c.08 0 .12.17.12.5 0 .34-.04.5-.12.5h-1.05v.58h.73zm-4.51 2.07V.15c0-.08.19-.12.57-.12.39 0 .58.04.58.12v2.79h.88c.07 0 .12.09.14.27a2.15 2.15 0 010 .54c-.03.19-.08.28-.15.28h-1.75a.23.23 0 01-.2-.1.39.39 0 01-.07-.24zM8.37 2.38v.74h.1c.16 0 .28-.03.36-.09.07-.06.11-.16.11-.29 0-.13-.03-.23-.1-.28-.07-.05-.19-.08-.35-.08h-.12zm0-1.42v.75h.03c.36 0 .54-.12.54-.37 0-.13-.03-.23-.1-.29a.614.614 0 00-.35-.09h-.12zm1.64.11c0 .4-.17.7-.52.9a1 1 0 01.47.35c.13.17.19.4.19.71 0 .3-.11.55-.34.73-.23.18-.55.27-.97.27H7.5a.21.21 0 01-.16-.07.25.25 0 01-.07-.17V.14L7.3.06c.02-.01.04-.02.09-.02h1.3C9.55.04 10 .38 10 1.07zM5.57.15c0-.07.2-.1.61-.1.42 0 .62.03.62.1v2.62c0 .38-.14.7-.41.95-.28.24-.66.36-1.15.36a1.8 1.8 0 01-1.19-.37 1.3 1.3 0 01-.46-1.03V.16c0-.08.2-.11.62-.11.41 0 .62.03.62.11v2.57c0 .07.04.13.12.18.08.05.17.07.26.07a.5.5 0 00.25-.06.2.2 0 00.1-.2V.16zM3.12 3.9c0 .08-.18.12-.54.12-.35 0-.55-.03-.58-.08l-.95-1.78v1.77c0 .07-.17.1-.52.1S0 4 0 3.93V.12C0 .06.15.04.45.04.57.04.7.04.86.07c.16.02.26.06.29.11l.91 1.76V.14c0-.06.18-.1.53-.1.35 0 .53.04.53.1V3.9z" class="fil0"/><path d="M38.73 1.12v1.7c0 .09 0 .14.02.16.01.02.05.03.1.03.21 0 .37-.08.48-.24.1-.15.16-.41.16-.77 0-.37-.06-.6-.17-.71-.11-.11-.29-.17-.53-.17h-.06zm-1.09 2.64V.35c0-.1.02-.17.07-.23.05-.05.11-.08.19-.08h.95c.6 0 1.06.15 1.37.46.32.3.47.78.47 1.43 0 1.4-.6 2.1-1.79 2.1h-.97c-.2 0-.29-.1-.29-.27zm-.57.17c0 .06-.2.1-.57.1-.39 0-.58-.04-.58-.1V2.62h-.8v1.31c0 .06-.19.1-.57.1-.39 0-.58-.04-.58-.1V.15c0-.08.2-.12.58-.12.38 0 .57.04.57.12V1.5h.8V.17c0-.06.1-.1.28-.12h.59c.19.02.28.06.28.12v3.76z" fill="#00aaed" fill-rule="nonzero"/><path d="M10.62 1.05v-.9c0-.08.2-.12.58-.12.38 0 .58.04.58.12v.9h-1.16zm0 .42v2.44c0 .08.2.12.58.12.38 0 .58-.04.58-.12V1.47h-1.16z" class="fil0"/></g></g></svg>