<svg xmlns="http://www.w3.org/2000/svg" width="120" height="42"><path fill="#F83929" d="M120 15.615c0-3.701-1.444-6.933-4.092-8.867-.005-.003.028-.006.024-.009-.995-.717-2.002-1.162-2.914-1.458.016-.212.042-.448.062-.717l.052-.675c.046-.628-.158-1.249-.57-1.723a2.3427 2.3427 0 0 0-1.619-.805l-4.394-.288a2.3452 2.3452 0 0 0-1.761.634c-.273.258-.476.575-.601.921l-.003-.001-.513 1.423c-.144-.569-.492-1.068-.986-1.394a2.35 2.35 0 0 0-1.293-.389c-.22 0-.442.032-.657.095l-3.43 1.047C96.916 3.126 96.441 3 95.926 3H92.02c-.104-1-1.113-2-2.344-2h-4.395c-.633 0-1.24.177-1.682.632-.382.392-.615.368-.661 1.368h-8.616c-.509 0-.981.12-1.365.396-1.065-.851-2.14-1.589-3.194-2.151-.348-.185-.727-.287-1.102-.287-.578 0-1.15.208-1.595.62l-1.661 1.48c-.014 0-.028-.058-.042-.058h-1.492c-.197-1-1.158-2-2.316-2h-4.173c-1.157 0-2.119 1-2.316 2H52.45c-.306 0-.598.114-.867.221-.733-1.003-1.721-2.125-2.441-2.709C48.715.165 48.191 0 47.662 0c-.326 0-.655.074-.963.213l-.833.241C45.519.251 45.115 0 44.684 0h-3.955c-.926 0-1.728 1-2.111 2h-2.466c-.363-1-.878-.945-1.45-1.037L31.089.287c-.124-.02-.248-.081-.37-.081-.963 0-1.847.571-2.198 1.5-.116.306-.233.634-.353.911C27.869 1.658 26.977 1 25.923 1H2.83C1.53 1 0 1.958 0 3.263v3.765C0 7.414.57 8 .733 8H.732l.682 1.623c-.188.339-.414.778-.414 1.195v3.789c0 .405.303 1.393.481 1.393h.016l1.612 2.854c-.394.118-.794.159-1.216.255-.726.164-1.33.63-1.631 1.313s-.263 1.452.103 2.103l2.32 4.283c.006.012.015.192.022.192h-.003l1.731 3h.003c.417 1 1.173.95 1.966.95.233 0 .47-.13.701-.204 3.623-1.176 6.632-3.147 8.769-5.611 2.377 2.907 5.612 4.608 8.211 5.599.265.101.539.136.809.136.806 0 1.578-.434 1.991-1.176l.399-.718 2.209 1.594c.403.288.868.43 1.331.43.677 0 1.345-.304 1.794-.877.037-.046.072-.093.108-.14.414.367.95.573 1.508.573.019 0 .037 0 .055-.002l3.859-.093c.383-.009.742-.113 1.055-.289.363.242.796.384 1.256.384.077 0 .155-.004.234-.012l3.859-.396c.232-.024.457-.083.667-.173.264.367.632.654 1.064.812.254.093.519.139.784.139.366 0 .729-.087 1.06-.262l3.623-1.688c.823-.432 1.277-.976 1.213-1.976h.002l-.067-1.151c.548.324 1.17.454 1.873.577.233.68.653 1.324 1.397 1.93 1.932 1.581 4.417 1.555 7.854 1.555 4.289 0 6.195-.28 8.348-1.77.01-.006.018-.018.025-.023 1.202-.854 2.051-2.157 2.468-3.722l.239.769 1.256 3.443c.322.92 1.186 1.392 2.151 1.392h.083c2.66 0 6.053-.157 8.695-1.802 1.715-1.057 2.987-2.538 3.627-4.747 1.436-5.342 1.433-5.404 1.433-6.542 0-.787-.072-.909-.163-1.909h1.417l-.71 2h.006c-.326 1-.501 2.308-.501 3.447 0 2.265.684 4.295 1.977 5.761 1.3 1.476 3.099 2.314 5.064 2.314 1.356 0 2.65-.343 3.853-1.022l.445 1.121c.35.875 1.193 1.443 2.117 1.443.077 0 .155-.003.233-.011 2.527-.26 4.318-.49 6.124-1.304.01-.006.019-.01.028-.015 2.074-.97 3.67-2.447 4.71-4.286 1.475-2.569 3.053-5.368 3.053-8.833zM75.723 17c-.056 1-.088.851-.088 1.26 0 .057.004.147.006.204l-.036-.388c-.064-1.079-.253-2.076-.722-3.076h1.16l-.324 2h.004z"/><g fill="#FFF"><path d="M17.244 15.086h7.908v-3.724h-8.784c.024-.284.049-.496.049-.803V7.638h9.513V3.937H2.914v3.701h9.294v3.725h-8.54v3.724h7.883c-.316.943-.876 2.122-1.849 3.039-2.579 2.477-5.937 3.301-7.202 3.584l2.311 4.055c5.231-1.673 8.321-4.692 9.805-7.685 2.093 4.667 6.813 6.882 9.197 7.777l2.36-4.172c-6.909-1.886-8.393-5.374-8.929-6.599zM38.449 19.987c.536 1.392 1.12 3.205 1.363 5.562l3.966-.4c-.243-1.486-1.168-4.407-1.824-5.492l-3.505.33z"/><path d="M48.303 19.964l2.166-3.632C47.671 14.657 46.357 12 45.384 11H49V7h-1.183l2.335-1.025c-.559-.918-2.164-2.412-2.869-2.976L44 4.385V3h-4v4h-1.015c.194-1 .292-2 .413-3h-5.353c.097 0 .146-.161.268-.539l-3.601-.41c-1.021 2.664-2.189 4.485-4.161 6.253l2.02 2.997C30.104 10.911 31.442 9 32.61 7h2.773c-.146 1-.243 1.379-.535 2.11-.9-.66-1.387-.749-1.85-1.055l-1.582 2.218c.949.589 1.874 1.439 2.044 1.581-.292.33-.438.543-.584.684-.34-.307-.973-.836-1.995-1.496l-1.874 2.173c.39.283.779.569 1.509 1.228-1.679 1.085-3.017 1.606-3.747 1.888l2.068 3.513.073-.047c-.706 1.839-1.752 3.301-2.214 3.914l3.211 2.286c1.63-2.05 2.312-4.267 2.701-6.012l-2.603-.733C35.481 16.048 37.16 13 37.987 11h2.166c-.633 2-3.504 4.955-5.694 6.062l2.19 2.782-3.188.107c.17.685.219.986.219 2.284 0 1.059-.049 2.277-.267 3.315l3.965-.094c.048-1.365-.146-4.384-.316-5.304 1.363-.612 4.209-2.782 6.01-6.317.535 1.108 1.582 3.229 3.723 5.021l-3.333 1.154c1.436 2.029 2.19 3.605 3.139 5.916l3.723-1.931c-.876-2.028-2.385-4.055-2.896-4.646.34.261.535.403.875.615zM44 4.572C44 4.95 45.7 5 46.649 7H44V4.572zM70.325 12.445l-3.819 1.368c2.166 2.733 2.166 4.689 2.166 5.019 0 2.028-2.239 2.028-4.477 2.028-2.774 0-3.796 0-3.796-1.202 0-.659.219-1.131.802-2.263.317-.636.264-1.578.264-2.12 0-.259-.465-1.51-.465-1.556V9h3V6h-3V3h-4v3h-5v3h5v2.008c-1-.047-.417-.047-.637-.047-2.457 0-4.673 2.121-4.673 5.632 0 1.957.936 4.762 3.977 4.762.341 0 .578-.046.918-.142-.048.778-.112 1.814.836 2.569 1.338 1.086 3.362 1.086 6.598 1.086 4.403 0 5.695-.308 7.253-1.368 1.411-.989 1.85-2.757 1.85-4.22 0-2.12-.753-4.124-2.797-6.835zm-14.111 5.516c-.682 0-1.29-.52-1.29-1.626 0-1.295.827-2.287 1.728-2.287 1.046 0 1.168.967 1.168 1.415 0 .353-.195 2.498-1.606 2.498z"/><path d="M95 9V6h-6V3h-3.907l.049 3H74v2.432c-1-.644-2.764-2.979-5.559-4.449l-2.854 2.64c1.728 1.015 3.926 2.948 5.436 4.856L74 8.534V9h11.238l.025 1.452c-.414-.117-.925-.087-1.679-.087-2.847 0-5.28 1.711-5.28 5.035 0 3.205 2.726 4.828 4.842 4.828 1.168 0 1.703-.308 2.165-.59-.267.542-.559 1.211-2.578 1.636-1.729.377-4.283.361-5.11.361l1.291 3.63c4.572-.165 6.592-1.011 7.784-1.743 2.093-1.271 2.854-3.792 2.854-6.22 0-1.084-.553-1.792-.553-2.475V9H95zm-10 6.77c0 1.13-.55 1.602-1.353 1.602-1.752 0-1.746-1.579-1.746-1.956 0-1.839 1.476-1.91 1.669-1.91 1.412 0 1.43 1.061 1.43 1.532v.732zM114.313 9.24c-1.46-1.037-3.066-1.343-4.089-1.555.123-.85.146-1.298.292-3.3l-4.378-.285c0 .52-.121 2.972-.146 3.514-.706.071-2.142.212-4.259 1.203-.364-1.651-.461-2.57-.584-3.536l-3.917 1.13c.219 1.203.463 2.593 1.096 4.692-1.777 1.791-2.8 4.172-2.8 6.646 0 3.605 2.216 5.774 4.892 5.774 4.063 0 7.811-4.691 9.148-12.304 1.897.377 3.893 1.131 3.893 4.55 0 4.831-4.524 5.348-7.956 5.562l1.508 3.725c2.556-.261 4.088-.473 5.573-1.132 1.483-.684 4.914-2.712 4.914-7.849 0-1.507-.34-4.783-3.187-6.835zm-13.577 10.489c-1.508 0-1.581-1.745-1.581-2.098 0-1.249.461-2.191.657-2.544.9 1.933 1.872 3.158 2.505 3.818-.679.682-1.094.824-1.581.824zm3.625-3.936c-.535-.778-1.168-2.099-1.703-3.56 1.096-.565 2.312-.919 3.091-1.084-.414 2.168-1.191 4.22-1.388 4.644z"/></g><path d="M21.183 41.935h-1.1l-.826-2.728-.842 2.728h-1.091L16 37.458h1.235l.69 2.694.81-2.71h1.051l.818 2.718.707-2.702h1.211l-1.339 4.477zM28.391 41.935h-1.099l-.826-2.728-.843 2.728h-1.091l-1.324-4.477h1.235l.69 2.694.81-2.71h1.051l.818 2.718.706-2.702h1.211l-1.338 4.477zM35.598 41.935h-1.099l-.826-2.728-.843 2.728h-1.091l-1.324-4.477h1.235l.69 2.694.81-2.71h1.051l.818 2.718.706-2.702h1.211l-1.338 4.477zM37.534 41.9v-1.325h1.299V41.9h-1.299zM41.074 36.058h.842V41.9h-1.219v-4.55l-.978.25-.257-1.045 1.612-.497zM45.747 42c-1.5 0-2.487-1.301-2.487-2.992 0-1.69 1.003-3.008 2.503-3.008 1.5 0 2.487 1.301 2.487 2.992S47.248 42 45.747 42zm0-4.848c-.746 0-1.219.771-1.219 1.84 0 1.068.489 1.855 1.235 1.855s1.22-.778 1.22-1.84c0-1.06-.49-1.855-1.236-1.855zM54.828 41.9v-2.478c0-.598-.257-.903-.714-.903s-.738.306-.738.903V41.9h-1.219v-2.478c0-.598-.257-.903-.714-.903-.458 0-.738.306-.738.903V41.9h-1.219v-4.442h1.219v.63c.281-.373.65-.713 1.268-.713.562 0 .987.258 1.211.705.377-.455.827-.705 1.412-.705.906 0 1.452.564 1.452 1.633V41.9h-1.22zM60.015 41.9v-.63c-.281.374-.642.713-1.26.713-.923 0-1.46-.63-1.46-1.648v-2.877h1.22v2.479c0 .596.272.902.737.902.466 0 .763-.307.763-.902v-2.479h1.22V41.9h-1.22zM64.052 41.983c-.602 0-1.275-.206-1.846-.671l.521-.829c.466.349.955.531 1.356.531.354 0 .513-.133.513-.332v-.017c0-.273-.417-.365-.89-.514-.603-.183-1.284-.473-1.284-1.335v-.017c0-.903.706-1.408 1.572-1.408.546 0 1.14.19 1.605.513l-.466.87c-.426-.256-.851-.413-1.163-.413-.297 0-.449.133-.449.306v.018c0 .249.409.364.874.53.603.207 1.3.505 1.3 1.317v.017c.001.987-.713 1.434-1.643 1.434zM69.449 41.9v-.63c-.28.374-.642.713-1.259.713-.923 0-1.46-.63-1.46-1.648v-2.877h1.219v2.479c0 .596.273.902.738.902.466 0 .762-.307.762-.902v-2.479h1.22V41.9h-1.22zM77.313 41.9v-2.478c0-.598-.256-.903-.714-.903-.457 0-.738.306-.738.903V41.9h-1.219v-2.478c0-.598-.257-.903-.715-.903-.456 0-.737.306-.737.903V41.9h-1.22v-4.442h1.22v.63c.281-.373.65-.713 1.268-.713.562 0 .986.258 1.211.705.377-.455.826-.705 1.412-.705.906 0 1.452.564 1.452 1.633V41.9h-1.22zM83.8 40.118h-2.992c.12.572.505.871 1.051.871.409 0 .706-.132 1.043-.456l.698.639c-.402.514-.98.828-1.758.828-1.291 0-2.246-.937-2.246-2.295v-.018c0-1.268.875-2.312 2.127-2.312 1.436 0 2.093 1.152 2.093 2.412v.018c-.001.123-.008.198-.016.313zm-2.077-1.731c-.506 0-.835.373-.931.945h1.836c-.071-.564-.393-.945-.905-.945zM84.832 41.9v-1.325h1.3V41.9h-1.3zM89.344 42c-1.292 0-2.238-1.027-2.238-2.295v-.018c0-1.268.938-2.312 2.254-2.312.811 0 1.316.282 1.717.747l-.747.828c-.272-.298-.545-.488-.979-.488-.609 0-1.043.555-1.043 1.21v.016c0 .68.426 1.228 1.091 1.228.409 0 .69-.183.986-.473l.715.745c-.416.472-.899.812-1.756.812zM94.03 42c-1.332 0-2.318-1.02-2.318-2.295v-.018c0-1.275.994-2.312 2.334-2.312 1.332 0 2.319 1.021 2.319 2.297v.016c0 1.277-.995 2.312-2.335 2.312zm1.132-2.312c0-.654-.458-1.226-1.132-1.226-.697 0-1.115.555-1.115 1.21v.016c0 .655.457 1.228 1.131 1.228.698 0 1.116-.556 1.116-1.21v-.018zM102.78 41.9v-2.478c0-.598-.257-.903-.714-.903s-.738.306-.738.903V41.9h-1.22v-2.478c0-.598-.256-.903-.714-.903-.457 0-.737.306-.737.903V41.9h-1.221v-4.442h1.221v.63c.28-.373.649-.713 1.267-.713.562 0 .987.258 1.212.705.377-.455.826-.705 1.412-.705.906 0 1.452.564 1.452 1.633V41.9h-1.22z"/></svg>