<svg xmlns="http://www.w3.org/2000/svg" xmlns:xlink="http://www.w3.org/1999/xlink" version="1.1" id="Layer_1" x="0px" y="0px" viewBox="0 0 760.41 69.851" style="enable-background:new 0 0 760.41 69.851;" xml:space="preserve" width="760.41"  height="69.851" >
<style type="text/css">
	.st0{fill:#F89521;}
</style>
<g>
	<path class="st0" d="M744.557,58.144l-2.014-18.241c-0.125-1.405-0.251-2.804-0.376-4.2c-0.125-1.393-0.231-2.792-0.313-4.197   c-0.191,1.319-0.456,2.721-0.803,4.197c-0.345,1.479-0.769,3.057-1.274,4.735l-5.283,17.705h-9.844l-5.283-17.705   c-0.524-1.678-0.955-3.257-1.291-4.735c-0.336-1.476-0.598-2.878-0.786-4.197c-0.105,1.425-0.217,2.829-0.331,4.214   c-0.114,1.385-0.237,2.778-0.362,4.183l-2.012,18.241h-16.229l7.864-46.041h17.076l3.271,11.383   c0.105,0.356,0.262,0.892,0.473,1.604c1.382,4.801,2.231,8.756,2.547,11.856h0.282c0.251-1.949,0.63-4.023,1.134-6.226   c0.501-2.202,1.174-4.676,2.012-7.422l3.428-11.195h17.047l7.294,46.041H744.557z"/>
	<g>
		<path class="st0" d="M673.032,12.068c-12.724,0-23.038,10.314-23.038,23.038c0,12.723,10.314,23.038,23.038,23.038    c12.723,0,23.038-10.314,23.038-23.038C696.07,22.383,685.755,12.068,673.032,12.068z M673.032,43.576    c-4.563,0-8.262-3.699-8.262-8.262c0-4.563,3.699-8.262,8.262-8.262c4.563,0,8.262,3.699,8.262,8.262    C681.294,39.877,677.595,43.576,673.032,43.576z"/>
	</g>
	<g>
		<path class="st0" d="M634.369,43.576c-4.563,0-8.262-3.699-8.262-8.262c0-4.563,3.699-8.262,8.262-8.262    c2.228,0,4.242,0.892,5.728,2.326l10.562-10.562c-4.169-4.169-9.928-6.748-16.29-6.748c-12.724,0-23.038,10.314-23.038,23.038    c0,12.723,10.314,23.038,23.038,23.038c6.362,0,12.121-2.579,16.29-6.748l-10.354-10.354    C638.802,42.599,636.704,43.576,634.369,43.576z"/>
	</g>
	<circle class="st0" cx="605.594" cy="54.3" r="3.799"/>
	<g>
		<path class="st0" d="M217.806,26.295h-0.723v17.808c3.728-0.02,6.448-0.748,8.167-2.183c1.716-1.434,2.575-3.679,2.575-6.739    c0-2.994-0.822-5.225-2.467-6.69C223.716,27.026,221.198,26.295,217.806,26.295z"/>
		<path class="st0" d="M77.79,30.125c-0.25-1.423-0.407-2.763-0.47-4.021h-0.285c-0.063,1.258-0.219,2.598-0.469,4.021    c-0.253,1.426-0.723,3.455-1.414,6.095l-1.414,5.213h6.881l-1.414-5.213C78.513,33.58,78.04,31.551,77.79,30.125z"/>
		<path class="st0" d="M31.122,28.697c0.7-0.555,1.05-1.355,1.05-2.402c0-1.047-0.35-1.844-1.05-2.388    c-0.703-0.546-1.724-0.817-3.062-0.817h-2.168v6.437h2.168C29.397,29.528,30.419,29.252,31.122,28.697z"/>
		<path class="st0" d="M32.471,40.367c-0.891-0.629-2.163-0.945-3.816-0.945h-2.763v7.35h2.763c1.653,0,2.925-0.319,3.816-0.956    c0.891-0.64,1.335-1.545,1.335-2.718C33.805,41.904,33.361,40.993,32.471,40.367z"/>
		<circle class="st0" cx="273.629" cy="35.368" r="8.248"/>
		<path class="st0" d="M373.413,24.001h-2.575v8.984h2.575c1.571,0,2.78-0.384,3.628-1.147c0.848-0.766,1.272-1.858,1.272-3.284    c0-1.466-0.424-2.59-1.272-3.375C376.193,24.394,374.984,24.001,373.413,24.001z"/>
		<path class="st0" d="M0.374,2.067v66.077h407.037V2.067H0.374z M45.131,54.863c-2.903,2.188-7.168,3.281-12.8,3.281H10.374V12.161    h22.02c4.71,0,8.386,1.104,11.024,3.312c2.638,2.208,3.958,5.282,3.958,9.22c0,2.513-0.623,4.601-1.87,6.266    s-3.011,2.749-5.293,3.25c3.122,0.649,5.444,1.875,6.975,3.677c1.528,1.801,2.291,4.217,2.291,7.254    C49.479,49.433,48.031,52.674,45.131,54.863z M84.921,58.144l-1.477-5.78h-12.47l-1.414,5.78H51.815l16.397-45.983h18.406    l16.081,45.983H84.921z M125.056,43.617c2.331,0,4.426-0.975,5.926-2.53l10.337,10.337c-4.162,4.162-9.912,6.737-16.264,6.737    c-12.703,0-23-10.298-23-23c0-12.703,10.297-23,23-23c6.351,0,12.101,2.574,16.264,6.737l-10.545,10.545    c-1.484-1.432-3.494-2.322-5.719-2.322c-4.556,0-8.248,3.693-8.248,8.248S120.501,43.617,125.056,43.617z M174.678,58.144    l-11.149-19.222v19.222H147.32V12.161h16.209v19.598l10.489-19.598h18.722l-13.884,22.646l15.83,23.337H174.678z M241.456,46.929    c-2.114,3.435-5.171,6.209-9.172,8.326c-1.946,1.005-4.417,1.736-7.413,2.197c-2.994,0.461-7.003,0.691-12.029,0.691h-12.157    V12.161h13.38c4.251,0,7.88,0.233,10.885,0.706c3.005,0.47,5.449,1.198,7.333,2.183c3.978,2.094,7.032,4.869,9.157,8.324    c2.126,3.455,3.187,7.393,3.187,11.81C244.629,39.581,243.573,43.497,241.456,46.929z M273.629,58.161c-12.703,0-23-10.298-23-23    c0-12.703,10.297-23,23-23c12.702,0,23,10.297,23,23C296.629,47.863,286.331,58.161,273.629,58.161z M325.629,58.161    c-12.703,0-23-10.298-23-23c0-12.703,10.297-23,23-23c12.702,0,23,10.297,23,23C348.629,47.863,338.331,58.161,325.629,58.161z     M378.877,58.144l-8.039-15.17v15.17h-16.209V12.161h20.793c6.033,0,10.637,1.329,13.821,3.987    c3.181,2.661,4.775,6.494,4.775,11.497c0,3.267-0.802,5.959-2.405,8.073c-1.602,2.114-3.765,3.349-6.485,3.705l12.282,18.722    H378.877z"/>
		<circle class="st0" cx="325.629" cy="35.368" r="8.248"/>
	</g>
	<g>
		<path class="st0" d="M585.121,2.067l-13.404,35.965l3.777,10.384h-1.416L556.426,2.067H529.9l2.583,6.624    c-6.124-5.299-14.102-8.512-22.836-8.512c-14.463,0-26.873,8.791-32.177,21.321c-0.52-1.479-1.148-2.939-1.911-4.376    c-2.392-4.498-5.87-8.134-10.431-10.904c-4.563-2.768-9.99-4.153-16.283-4.153h-31.433v66.077h24.542V25.855h7.363    c1.698,0,3.02,0.472,3.964,1.416c0.945,0.943,1.416,2.045,1.416,3.304c0,1.259-0.471,2.359-1.416,3.303    c-0.943,0.945-2.266,1.416-3.964,1.416h-5.664v22.939h5.664c6.48,0,11.955-1.259,16.425-3.777    c4.468-2.516,7.818-5.836,10.054-9.959c0.049-0.09,0.089-0.181,0.136-0.271c4.012,14.865,17.583,25.806,33.716,25.806    c17.94,0,32.713-13.528,34.693-30.938l11.329,29.05h30.49l25.676-66.077H585.121z M526.363,54.408    c0,0.893-0.658,1.649-1.542,1.771l-19.903,2.763c-1.075,0.149-2.034-0.686-2.034-1.771v-41.52    c-0.037,0.003-0.069,0.022-0.108,0.022h-5.29c-0.739,0-1.338,0.599-1.338,1.338v37.57c0,0.739-0.599,1.338-1.338,1.338h-0.097    c-0.739,0-1.338-0.599-1.338-1.338V15.673v-1.435c0-0.739,0.599-1.338,1.338-1.338h1.435h6.629c0.043,0,0.079,0.02,0.12,0.024    c0.067-1.029,0.988-1.801,2.025-1.655l19.903,2.808c0.882,0.125,1.538,0.88,1.538,1.771V54.408z"/>
		<circle class="st0" cx="506.906" cy="35.105" r="1.807"/>
	</g>
</g>
<style xmlns="" class="darkreader darkreader--fallback">html, body, body :not(iframe) {
    background-color: #262727 !important;
    border-color: #857c71 !important;
    color: #faf5ed !important;
}</style><script xmlns="">(function(){class RuffleMimeType{constructor(a,b,c){this.type=a,this.description=b,this.suffixes=c}}class RuffleMimeTypeArray{constructor(a){this.__mimetypes=[],this.__named_mimetypes={};for(let b of a)this.install(b)}install(a){let b=this.__mimetypes.length;this.__mimetypes.push(a),this.__named_mimetypes[a.type]=a,this[a.type]=a,this[b]=a}item(a){return this.__mimetypes[a]}namedItem(a){return this.__named_mimetypes[a]}get length(){return this.__mimetypes.length}}class RufflePlugin extends RuffleMimeTypeArray{constructor(a,b,c,d){super(d),this.name=a,this.description=b,this.filename=c}install(a){a.enabledPlugin||(a.enabledPlugin=this),super.install(a)}}class RufflePluginArray{constructor(a){this.__plugins=[],this.__named_plugins={};for(let b of a)this.install(b)}install(a){let b=this.__plugins.length;this.__plugins.push(a),this.__named_plugins[a.name]=a,this[a.name]=a,this[b]=a}item(a){return this.__plugins[a]}namedItem(a){return this.__named_plugins[a]}get length(){return this.__plugins.length}}const FLASH_PLUGIN=new RufflePlugin("Shockwave Flash","Shockwave Flash 32.0 r0","ruffle.js",[new RuffleMimeType("application/futuresplash","Shockwave Flash","spl"),new RuffleMimeType("application/x-shockwave-flash","Shockwave Flash","swf"),new RuffleMimeType("application/x-shockwave-flash2-preview","Shockwave Flash","swf"),new RuffleMimeType("application/vnd.adobe.flash-movie","Shockwave Flash","swf")]);function install_plugin(a){navigator.plugins.install||Object.defineProperty(navigator,"plugins",{value:new RufflePluginArray(navigator.plugins),writable:!1}),navigator.plugins.install(a),0&lt;a.length&amp;&amp;!navigator.mimeTypes.install&amp;&amp;Object.defineProperty(navigator,"mimeTypes",{value:new RuffleMimeTypeArray(navigator.mimeTypes),writable:!1});for(var b=0;b&lt;a.length;b+=1)navigator.mimeTypes.install(a[b])}install_plugin(FLASH_PLUGIN);})();</script><script xmlns=""/></svg>