<?xml version="1.0" encoding="utf-8"?>
<!-- Generator: Adobe Illustrator 25.3.1, SVG Export Plug-In . SVG Version: 6.00 Build 0)  -->
<svg version="1.1" id="Layer_1" xmlns="http://www.w3.org/2000/svg" xmlns:xlink="http://www.w3.org/1999/xlink" x="0px" y="0px"
	 viewBox="0 0 300 48" style="enable-background:new 0 0 300 48;" xml:space="preserve">
<style type="text/css">
	.st0{fill:#FFFFFF;}
</style>
<g>
	<path class="st0" d="M21.7,30.8c0,3.8-2,9.2-11.8,9.2H0V10.3h10.5c5.1,0,9.6,1.8,9.6,7.6c0,3.3-2,5.4-4.2,6.2v0.2
		C18.8,24.8,21.7,26.6,21.7,30.8z M9.8,15.6H6.2v6.5h3.1c3.1,0,4.2-1.6,4.2-3.3C14.1,17,12.9,15.6,9.8,15.6z M15,31
		c0-2.7-2.2-3.6-4.5-3.6h-4v7.1h4.5C14.1,34.6,15,32.6,15,31z"/>
	<path class="st0" d="M40.2,10.3v24.3h10.9V40H33.7V10.3H40.2z"/>
	<path class="st0" d="M76.6,10.3L85.5,40h-6.7L77,33.3h-9.8L65.4,40h-6.5l8.9-29.7L76.6,10.3L76.6,10.3z M68.5,27.7h6.9l-1.1-4.2
		c-1.1-4-1.8-6.2-2.2-8.9h-0.2c-0.4,2.5-1.1,4.9-2.2,8.7L68.5,27.7z"/>
	<path class="st0" d="M106.5,9.8c5.8,0,8.5,2.7,9.2,3.6l-4.2,4.7c-0.9-1.1-2.5-2.7-5.6-2.7c-4,0-6,2.9-6,9.6c0,6,2,9.8,6.5,9.8
		c2.7,0,4.5-1.3,5.4-2.5l3.6,4.5c-1.3,1.6-4.2,3.6-9.4,3.6c-9.2,0-12.7-6-12.7-15C93.5,16.1,98,9.8,106.5,9.8z"/>
	<path class="st0" d="M132.6,40h-6.5V10.3h6.5V40z M141.7,10.3h7.4L140,24.6l10,15.2h-8l-9.2-15v-0.2L141.7,10.3z"/>
	<path class="st0" d="M200,13.2l-4.2,4.5c-1.1-1.1-2.7-2.5-5.4-2.5c-3.8,0-7.1,2.2-7.1,9.2c0,7.4,2.5,10.5,7.4,10.5
		c0.9,0,2.2-0.2,2.7-0.4v-10h6.5v12.9c-2.2,1.6-5.1,2.7-10.5,2.7c-8.5,0-12.5-5.1-12.5-15c0-10.7,6.2-15.4,14.1-15.4
		C196.4,9.8,199.1,12.3,200,13.2z"/>
	<path class="st0" d="M222.8,40.2c-7.4,0-12.1-4-12.1-15c0-10.7,5.1-15.4,12.5-15.4c7.4,0,12.1,4,12.1,15.2
		C235.3,35.7,229.9,40.2,222.8,40.2z M223,34.8c3.4,0,5.4-2.5,5.4-9.6c0-7.4-2.2-10-5.8-10c-3.1,0-5.4,2.2-5.4,9.6
		C217.2,32.4,219.4,34.8,223,34.8z"/>
	<path class="st0" d="M246.9,10.3h9.2c9.6,0,14.1,4.7,14.1,14.1c0,7.6-2.9,15.4-13.8,15.4h-9.4V10.3L246.9,10.3z M253.4,34.6h2.5
		c6,0,7.8-3.8,7.8-9.6c0-7.1-3.1-9.4-7.8-9.4h-2.2v19H253.4z"/>
	<path class="st0" d="M286.8,34.4H300v5.4h-20.1l-0.9-5.1l13.2-19v-0.2h-11.6V10h18.5l0.9,5.1L286.8,34.4L286.8,34.4z"/>
</g>
</svg>
