<?xml version="1.0" encoding="utf-8"?>
<!-- Generator: Adobe Illustrator 25.0.0, SVG Export Plug-In . SVG Version: 6.00 Build 0)  -->
<svg version="1.1" id="Layer_1" xmlns="http://www.w3.org/2000/svg" xmlns:xlink="http://www.w3.org/1999/xlink" x="0px" y="0px"
	 viewBox="0 0 2160 893.33" style="enable-background:new 0 0 2160 893.33;" xml:space="preserve">
<style type="text/css">
	.st0{fill:#FFFFFF;}
	.st1{fill:#395F3D;}
	.st2{fill:#3A7445;}
</style>
<g>
	<path class="st0" d="M139.73,666.58c-2.32,5.11-3.49,11.38-3.49,18.65c0,52.29,61.24,63.02,97.43,61.13
		c54.92-2.87,93.27-38.79,93.27-87.32c0-18.29-3.94-34.84-12.03-50.59l-16.05,6.7c1.61,6.62,2.43,13.57,2.43,20.64
		c0,44.38-31.71,78.26-75.4,80.55c-41.72,2.19-57.25-26.36-66.51-43.41c-1.34-2.45-2.96-5.43-4.45-7.86l-8.29-13.64L139.73,666.58z"
		/>
	<path class="st1" d="M225.08,880.77c-116.65,6.12-195.02-52.96-195.02-147.01c0-84.8,62.69-147.3,152.43-152.01
		c16.82-0.88,32.78,0.97,47.53,5.5l1.36-2.22c-44.76-37.08-95.08-79.24-95.08-156.32c0-106.79,103.59-160.85,199.82-165.91
		c39.66-2.07,72.95,2.8,98.96,14.49l0,0c9.02-7.35,20.13-11.72,31.29-12.31c4.36-0.23,8.71,0.29,13.32,1.6l0,0
		c-0.66-5.31-2.16-10.03-0.97-14.35c17.92-65.09,105.14-120.66,143.35-127.07l190.01-9.96c31.09-1.63,58.72,21.79,62.91,53.31
		l1.8,13.96l21.21-34.93c12.39-20.19,32.95-33.6,55.48-36.71v-3.08l224.17-11.71v2.01c30.03,5.62,53.36,30.58,57.04,61.88l0.75,7.54
		l14.16-25.1c18.88-31.96,52.31-52.86,87.34-54.69l56.59-2.97c3.01-0.16,6.16,0.27,9.37,1.26c3.68-1.38,7.1-2.12,10.43-2.3
		l103.65-5.49c4.46-0.23,12.47,0.72,12.47,2.84v0.02c8.58-2.62,10.97-4.08,15.94-4.33l272.35-14.25
		c9.27-0.49,19.18,4.21,26.08,12.58c1.85,2.24,3.4,4.39,4.48,6.59l4.79-0.02c6.31-12.97,19.16-21.99,33.19-22.73l54.67-2.86
		c9.26-0.48,18.92,4.21,25.83,12.55c6.18,7.49,8.58,18.37,6.24,28.4c-3,12.95-11.95,23.76-25.17,30.44l-0.02,0.02
		c-0.34,0.29-2.41,2.23-9.64,11.78l-75.99,100.01c-6.44,8.49-11.19,18.41-13.69,28.67l-6.02,24.56c3.99,2.42,7.32,5.66,9.89,9.58
		c5.07,7.72,6.4,15.42,4.17,24.2c-1.37,5.47-4.01,10.49-7.85,14.9l0,0c13.47,9.72,22.54,24.17,25.53,40.71
		c18.92-38.68,62.37-62.75,119.22-65.74c22.56-1.18,42.94,1.82,60.56,8.26h0.01c6.43-4.29,13.75-6.55,21.17-6.94
		c17.98-0.95,33.04,11.25,35.82,28.86l9.18,58.41c2.91,18.6-9.38,36.75-27.99,41.3c-2.24,0.55-4.56,0.9-6.87,1.02
		c-2.61,0.14-5.19,0.01-7.72-0.41l-1.72,2.77c21.16,19.6,31.08,42.26,31.08,70.76c0,68.33-58.81,117.31-146.34,121.9
		c-20.49,1.07-43.18-2.38-62.24-9.47l0,0c-6.92,5.04-14.96,7.93-23.23,8.36c-17.8,0.93-32.19-11.54-34.78-29.03l-0.94-13.02v0.02
		c-17.16,27.01-48.27,45.72-77.23,50.33v0.49l-8.82,0.5l-578.72,30.33c-6.36,1.33-11.82,2.26-17.01,2.89
		c0.7,3.58,1.02,7.17,1.02,10.67c0,37.02-28.76,78.09-109.41,82.31c-65.56,3.43-118.21-23.03-160.85-80.87l-413.96,21.7
		C444.4,792.59,364.02,873.49,225.08,880.77z"/>
	<path class="st0" d="M233.67,837.36c-116.65,6.11-195.02-52.97-195.02-147.01c0-84.81,62.69-147.31,152.43-152.01
		c16.82-0.89,32.78,0.96,47.53,5.49l1.36-2.22c-44.76-37.07-95.08-79.23-95.08-156.32c0-106.79,103.59-160.85,199.82-165.9
		c39.66-2.08,72.95,2.79,98.96,14.48l0,0c9.02-7.36,20.13-11.73,31.29-12.31c4.36-0.24,8.71,0.29,13.32,1.59l0,0
		c-0.66-5.3-0.97-9.87-0.97-14.35c0-69.27,60.29-122.71,143.35-127.07l190.01-9.95c31.09-1.63,58.72,21.78,62.91,53.3l1.8,13.96
		l21.47-34.93c12.39-20.19,32.9-33.59,55.74-36.71L1186,54.66c29.97,5.62,53.47,30.59,57.16,61.89l0.81,7.53l14.19-25.09
		c18.88-31.96,52.32-52.87,87.35-54.7l56.6-2.97c3.01-0.15,6.17,0.27,9.37,1.26c3.68-1.38,7.1-2.11,10.43-2.3l104.65-5.48
		c4.46-0.23,8.99,0.72,13.47,2.84l0.01,0.01c4.94-2.62,9.96-4.08,14.93-4.33l271.85-14.25c9.27-0.49,18.93,4.21,25.83,12.59
		c1.85,2.23,3.27,4.38,4.36,6.58l4.73-0.02c6.31-12.96,19.13-21.99,33.16-22.72l54.66-2.86c9.26-0.49,18.91,4.21,25.82,12.55
		c6.18,7.49,8.57,18.37,6.23,28.4c-3,12.96-11.95,23.77-25.17,30.44l-0.02,0.02c-0.34,0.28-2.41,2.23-9.64,11.78l-75.99,100.01
		c-6.44,8.49-11.19,18.41-13.69,28.67l-6.02,24.55c3.99,2.43,7.32,5.66,9.89,9.58c5.07,7.73,6.4,15.42,4.17,24.2
		c-1.37,5.47-4.01,10.49-7.85,14.9l0,0c13.47,9.72,22.54,24.18,25.53,40.71c18.92-38.67,62.37-62.5,119.22-65.49
		c22.56-1.17,42.94,2.08,60.56,8.52h0.01c6.43-4.29,13.75-6.81,21.17-7.2c17.98-0.94,33.04,11.13,35.82,28.74l9.18,58.34
		c2.91,18.6-9.38,36.71-27.99,41.26c-2.24,0.55-4.56,0.89-6.87,1.01c-2.61,0.14-5.19-0.01-7.72-0.43l-1.72,2.77
		c21.16,19.6,31.08,42.27,31.08,70.76c0,68.32-58.81,117.31-146.34,121.9c-20.49,1.07-43.18-2.38-62.24-9.47l0,0
		c-6.92,5.04-14.96,7.92-23.23,8.36c-17.8,0.92-33.18-11.55-35.77-29.03l-1.93-13.02l0.21,0.01c-17.55,27-46.51,45.73-75.47,50.33
		v0.49l-8.81,0.5l-578.71,30.33c-6.36,1.34-11.82,2.27-17.01,2.89c0.7,3.59,1.02,7.17,1.02,10.67c0,37.02-28.76,78.09-109.41,82.31
		c-65.56,3.42-118.21-23.03-160.85-80.87l-413.96,21.69C452.99,749.18,372.61,830.07,233.67,837.36z"/>
	<g>
		<path class="st2" d="M609.39,352.84c-4.61,0.24-7.97-3.92-6.83-8.43c1.38-5.48,6.33-9.31,11.82-10.57
			c11.86-2.7,15.67-7.24,19.03-20.85l40-163.45c2.41-10.46-10.35-13.25-22.07-12.64l-20.68,1.08
			c-56.89,2.98-86.54,35.22-86.54,69.36c0,24.47,10.34,34.28,23.78,33.58c6.55-0.34,10.69-5.73,10.69-11.94
			c0-7.23-3.45-12.57-3.45-20.86c0-21.7,14.83-35.92,32.07-36.82c22.06-1.16,34.12,15.44,34.12,32.68
			c0,34.14-27.57,63.84-67.22,65.93c-31.72,1.66-61.02-17.15-61.02-60.92c0-59.98,56.89-95.38,117.57-98.56l190.01-9.96
			c18.89-0.99,34.88,12.2,37.35,30.8l3.21,24.21c0.63,4.79-2.34,9.52-7,11.16c-4.46,1.57-9.33-0.02-11.61-3.97
			c-14.57-25.33-38.43-33.75-77.51-31.7l-2.76,0.14c-6.2,0.34-10.67,4.72-12.07,10.98l-10.67,43.48c-2.64,10.74,5.37,20.57,16.3,20
			l10.58-0.55c19.12-1,27.09-9.21,31.47-19.9c2.22-5.44,7.07-9.7,12.83-10c5-0.26,8.68,4.23,7.48,9.15l-15.65,64.49
			c-1.38,5.66-6.42,9.88-12.18,10.18c-4.94,0.26-8.63-3.94-8.28-8.89c0.73-10.51-3.46-18.08-22.57-17.08l-10.58,0.55
			c-12.59,0.65-23.59,9.89-26.58,22.26l-12.83,53.24c-3.49,14.14-1.83,18.2,11.61,19.49c4.62,0.44,7.64,4.79,6.48,9.37
			c-1.31,5.23-5.98,9.11-11.3,9.37L609.39,352.84z"/>
		<path class="st2" d="M968.84,92.68c15.02-0.78,27.79,9.61,29.92,24.38L1024,292.51c1.42,11.3,5.61,15.93,11.45,18.11
			c4.51,1.69,7.85,5.95,6.65,10.76c-1.32,5.23-5.99,9.1-11.32,9.38l-101.48,5.31c-4.61,0.24-7.97-3.91-6.83-8.43
			c1.34-5.32,5.92-9.3,11.27-10.54c11.51-2.69,16.38-7.28,14.42-20.61l-0.6-3.88c-1.83-11.72-12.03-19.94-23.99-19.31l-40.8,2.13
			c-13.34,0.7-25.84,8.23-32.98,19.89l-4.01,6.53c-8.69,13.9-5.77,18.09,4.88,19.61c4.57,0.66,7.47,5.04,6.31,9.63
			c-1.32,5.23-5.98,9.1-11.31,9.38l-55.64,2.91c-4.6,0.24-7.96-3.92-6.82-8.43c1.29-5.14,5.35-9.2,10.35-11.01
			c7.32-2.67,12.75-7.6,20.5-20.42L928.6,116.92C937.32,102.72,952.57,93.53,968.84,92.68z M890.06,229.35
			c-5,8.11,0.63,18.08,9.94,17.6l18.73-0.98c11.35-0.6,20.04-11.09,18.42-22.23l-5.24-36.15c-1.06-7.25-10.64-8.82-14.61-2.37
			L890.06,229.35z"/>
		<path class="st2" d="M1237.83,319.9c-4.6,0.24-7.96-3.91-6.82-8.43c1.38-5.48,6.3-9.31,11.79-10.57
			c11.77-2.7,15.37-7.23,18.72-20.85l29.34-120.64c0.91-3.73-4.08-5.54-6.05-2.21L1192.7,313c-3.51,5.93-9.79,9.79-16.51,10.14
			c-6.19,0.33-11.4-4.04-12.11-10.15l-17.65-151.04c-0.5-4.27-6.58-4.33-7.61-0.08l-30.71,126.23c-3.36,13.61-1.26,17.85,9.81,19.35
			c4.72,0.64,8.09,4.88,6.91,9.59c-1.33,5.23-5.99,9.11-11.32,9.37l-61.15,3.21c-4.6,0.25-7.96-3.91-6.82-8.43
			c1.38-5.51,6.36-9.33,11.88-10.57c12.03-2.71,16.3-7.28,19.65-20.9l40.68-166.24c3.08-13.61,0.93-17.82-9.97-19.33
			c-4.7-0.65-8.02-4.88-6.92-9.6c1.22-5.2,5.82-9.1,11.11-9.37l57.63-3.01c24.47-1.29,45.11,16,47.96,40.15l6.99,59.38
			c0.82,6.96,10.02,8.48,13.69,2.29l41.93-70.94c13.86-23.45,38.72-38.71,65.34-40.1l56.6-2.96c4.62-0.25,8.02,3.87,6.97,8.43
			c-1.28,5.52-6.29,9.33-11.82,10.57c-12.03,2.7-15.78,7.23-18.87,20.84l-40.68,166.24c-3.36,13.61-1.72,17.87,9.19,19.38
			c4.69,0.65,8.02,4.9,6.84,9.6c-1.32,5.22-5.98,9.1-11.31,9.37L1237.83,319.9z"/>
		<path class="st2" d="M1362.29,313.38c-4.6,0.24-7.96-3.92-6.83-8.43c1.38-5.48,6.33-9.31,11.82-10.57
			c11.86-2.7,15.68-7.24,19.04-20.85L1427,107.28c3.08-13.62,1.38-17.86-9.35-19.37c-4.67-0.66-7.95-4.91-6.86-9.6
			c1.21-5.21,5.82-9.11,11.11-9.37l104.65-5.49c4.62-0.24,8.03,3.88,6.97,8.43c-1.28,5.52-6.3,9.34-11.82,10.59
			c-12.03,2.7-15.79,7.23-18.87,20.84l-40.68,166.24c-3.36,13.61-1.71,17.87,9.19,19.38c4.7,0.65,8.02,4.89,6.85,9.59
			c-1.33,5.24-5.99,9.1-11.32,9.38L1362.29,313.38z"/>
		<path class="st2" d="M1606.26,273.03c22.3-1.18,64.6-25.22,93.94-53.62c3.33-3.22,8.32-4.1,12.07-1.75
			c3.57,2.21,4.59,6.95,2.33,10.72l-18.54,30.97c-14,23.39-38.9,38.58-65.54,39.98l-135.17,7.08c-4.6,0.23-7.95-3.91-6.82-8.43
			c1.38-5.48,6.3-9.31,11.79-10.57c11.76-2.7,15.35-7.23,18.71-20.84l40.68-166.24c3.09-13.61,1.61-17.87-9.03-19.38
			c-4.67-0.67-7.91-4.91-6.83-9.6c1.22-5.2,5.82-9.1,11.11-9.38l104.65-5.48c4.62-0.24,8.02,3.88,6.97,8.43
			c-1.28,5.52-6.3,9.33-11.81,10.57c-12.02,2.7-15.78,7.23-18.87,20.85l-41.02,166.95c-1.38,6.28,1.03,10.29,7.23,9.96
			L1606.26,273.03z"/>
		<path class="st2" d="M1747.94,254.57l7.55-30.58c3.41-13.82,3.26-28.15-0.46-41.53l-25.35-91.04
			c-2.85-11.46-6.19-16.05-11.46-18.18c-4.36-1.76-7.57-5.96-6.47-10.69c1.22-5.21,5.82-9.11,11.11-9.38l103.96-5.45
			c4.63-0.24,8.03,3.87,6.97,8.43c-1.2,5.14-5.4,9.12-10.46,10.74c-13.32,4.25-17.23,13.42-14.02,25.18l14.19,53.29
			c2.25,8.44,13.29,10.17,18.78,2.95l46.67-61.44c10.5-14.02,10.26-20.53,1.77-23.11c-4.55-1.39-8.06-5.47-6.95-10.24
			c1.21-5.21,5.82-9.1,11.11-9.37l54.66-2.87c4.62-0.23,8.02,3.88,6.97,8.43c-1.24,5.35-5.77,9.24-10.71,11.73
			c-5.66,2.86-10.51,8.05-19.28,19.65l-75.95,99.87c-8.78,11.56-15.11,24.76-18.51,38.67l-7.58,30.92
			c-3.37,13.61-1.96,17.89,8.86,19.4c4.68,0.66,7.99,4.91,6.81,9.6c-1.31,5.23-5.97,9.1-11.3,9.37l-104.6,5.48
			c-4.6,0.24-7.96-3.91-6.82-8.42c1.37-5.47,6.3-9.31,11.79-10.57C1741,272.72,1744.58,268.18,1747.94,254.57z"/>
		<path class="st2" d="M471.98,601.01c0,98.43-90.65,202.82-238.31,210.57c-98.4,5.15-169.24-41.56-169.24-122.59
			c0-73.23,53.42-121.04,126.65-124.87c53.42-2.8,93.02,28.15,93.02,72.55c0,31.82-21,60.5-58.21,62.46
			c-54.62,2.86-46.81-59.36-76.83-57.79c-15.01,0.79-30,15.99-30,44.79c0,56.43,57.01,80.43,114.61,77.41
			c64.25-3.37,110.45-47.78,110.45-105.42c0-129.64-173.46-142.76-173.46-274.18c0-87.01,87.63-134.24,174.05-138.77
			c42.44-2.22,75.5,4.41,97.85,17.77c3.47,2.06,8.24,1.59,10.4-2.04c4.69-7.9,13.04-13.09,22.01-13.56
			c8.17-0.44,15.05,5.4,15.89,13.49l11.43,108.93c0.85,8.11-4.4,15.94-12.32,18.43c-7.73,2.43-15.91-0.8-19.23-7.89
			c-27.74-59.41-65.18-93.32-115.82-90.66c-28.79,1.51-51.62,15.91-51.62,43.52C303.3,413,471.98,435.37,471.98,601.01z"/>
		<path class="st2" d="M516.03,643.41c-4.98,0.26-8.63-4.23-7.39-9.12c1.49-5.93,6.82-10.09,12.76-11.45
			c12.74-2.92,16.62-7.84,20.28-22.57l44.02-180.72c1.5-6.79-0.36-11.19-7.07-10.83c-14.47,0.76-45.1,16.95-67.91,46.45
			c-3.21,4.14-8.76,6-13.09,3.52c-4.27-2.44-5.94-7.78-3.89-12.5l27.67-63.84c2.33-5.39,7.59-9.09,13.37-9.39
			c5.35-0.28,9.42,4.18,14.25,6.24c1.67,0.71,3.81,1.01,6.46,0.88l151.54-7.95c3.1-0.16,5.77-0.87,8.05-2.07
			c5.38-2.84,10.44-7.1,16.4-7.42c5.4-0.28,9.94,3.58,10.5,8.92l6.28,60.23c0.55,5.24-2.74,10.35-7.82,12.12
			c-5,1.77-10.2-0.7-12.48-5.29c-12.68-25.41-32.1-36.05-46.31-35.31c-6.71,0.35-11.95,5.12-13.43,11.92l-44.06,180.71
			c-3.64,14.75-1.85,19.37,9.95,21c5.09,0.71,8.69,5.3,7.41,10.39c-1.43,5.66-6.49,9.85-12.25,10.15L516.03,643.41z"/>
		<path class="st2" d="M719.43,632.75c-4.98,0.27-8.63-4.23-7.39-9.11c1.49-5.93,6.82-10.09,12.76-11.45
			c12.74-2.92,16.62-7.84,20.27-22.57l44.02-179.97c3.35-14.74,1.75-19.35-9.78-21c-5.05-0.71-8.56-5.32-7.38-10.39
			c1.31-5.64,6.3-9.85,12.02-10.15l112.66-5.9c80.62-4.22,122.41,4.78,122.41,51.8c0,42.98-19.85,67.15-59.3,80.1
			c-11.2,3.67-18.03,15.55-14.54,26.45c32.53,101.47,72.18,152.19,97.71,150.86c30.98-1.63,27.62-46.61,67.57-48.71
			c20.16-1.06,30.98,14.43,30.98,29.35c0,25.01-20.17,51.82-83.62,55.15c-84.83,4.44-151.44-48.21-199.11-194.03
			c-1-3.06-3.84-5.11-7.1-4.94c-3.17,0.17-5.95,2.48-6.71,5.61l-17.37,71.43c-3.64,14.74-1.85,19.36,9.95,21
			c5.09,0.7,8.69,5.3,7.41,10.39c-1.43,5.66-6.48,9.85-12.24,10.15L719.43,632.75z M892.48,392.27l-7.45,0.39
			c-6.73,0.35-11.95,5.12-13.43,11.92l-12.78,52.58c-2.62,10.76,5.41,20.58,16.35,20.01l3.9-0.2c32.85-1.73,53.74-15.51,53.74-56.57
			C932.8,394.28,917.48,390.96,892.48,392.27z"/>
		<path class="st2" d="M1146.07,351.39c1.55,3.26,0.54,7.18-1.58,10.33c-20.37,30.27-45.63,119.57-45.63,178
			c0,26.87,10.45,50.22,47.4,48.28c59.35-3.11,82.86-123.4,82.86-170.06c0-26.89-11.19-45.7-32.85-44.56
			c-18.28,0.96-29.85,16.49-29.85,26.95c0,8.22,4.1,12.11,10.06,11.79c6.36-0.34,8.98-2.33,15.68-2.69
			c15.68-0.82,27.99,12.71,27.99,29.51c0,22.78-17.53,40.47-42.17,41.77c-25.39,1.33-48.54-18.35-48.54-51.2
			c0-49.65,38.07-87.09,86.6-89.63c51.51-2.69,94.05,39.86,94.05,107.8c0,88.44-60.09,162.87-159.01,168.05
			c-77.62,4.07-133.61-32.18-133.61-105.69c0-85.71,54.99-145.56,119.85-162.26C1140.86,346.86,1144.56,348.2,1146.07,351.39z"/>
		<path class="st2" d="M1297.9,602.44c-4.98,0.26-8.63-4.23-7.39-9.12c1.49-5.92,6.81-10.08,12.76-11.44
			c12.74-2.93,16.62-7.84,20.27-22.58l44.05-179.97c3.32-14.74,1.74-19.34-9.79-20.99c-5.05-0.72-8.57-5.32-7.38-10.4
			c1.3-5.63,6.29-9.84,12.01-10.15l113.32-5.94c5-0.26,8.69,4.2,7.54,9.13c-1.38,5.98-6.81,10.1-12.78,11.45
			c-13.02,2.94-17.09,7.84-20.44,22.57l-10.89,44.66c-1.71,7,6.24,11.8,11.9,7.17l53.12-43.46c19.52-15.82,26.83-28.88,14.27-32.94
			c-4.7-1.53-7.97-5.99-6.82-10.94c1.3-5.63,6.29-9.84,12.01-10.14l83.86-4.4c4.99-0.27,8.69,4.2,7.54,9.11
			c-1.34,5.82-6.37,10.07-12.12,11.69c-10.25,2.9-16.56,8.1-34.93,23.07l-47.87,39.09c-10.06,8.22-13.75,21.94-9,33.43l43.81,105.82
			c4.44,10.96,9.89,16.04,15.36,18.66c4.84,2.32,8.58,7.07,7.22,12.44c-1.43,5.65-6.49,9.84-12.25,10.15l-112.48,5.9
			c-4.98,0.26-8.63-4.24-7.39-9.12c1.44-5.71,6.22-10.05,11.88-11.68c10.1-2.89,15.49-8.06,9.95-21.75l-28.19-67.64
			c-1.6-3.86-6.49-4.95-9.89-2.22c-4.33,3.47-7.43,8.31-8.72,13.64l-14.43,59.42c-3.63,14.74-1.85,19.35,9.96,21
			c5.08,0.7,8.68,5.3,7.4,10.39c-1.43,5.66-6.48,9.84-12.24,10.15L1297.9,602.44z"/>
		<path class="st2" d="M1714.29,550.76c39.89-2.1,86.02-28.78,117.77-59.62c3.7-3.6,9.29-4.21,13.43-1.55
			c4.08,2.6,5.23,8.06,2.63,12.42l-21.66,36.19c-14.01,23.4-38.91,38.58-65.56,39.98l-172.27,9.03c-4.98,0.27-8.63-4.23-7.39-9.11
			c1.49-5.94,6.85-10.1,12.8-11.45c12.84-2.94,16.98-7.85,20.61-22.6l44.04-179.97c3.34-14.74,1.49-19.33-10.12-20.97
			c-5.07-0.71-8.6-5.3-7.43-10.39c1.32-5.64,6.31-9.85,12.03-10.15l164.2-8.6c20.44-1.07,37.76,13.21,40.42,33.34l3.47,26.2
			c0.69,5.19-2.53,10.32-7.59,12.08c-4.83,1.69-10.1-0.01-12.56-4.3c-15.75-27.43-41.58-36.54-83.9-34.32l-3,0.15
			c-6.72,0.35-11.57,5.1-13.07,11.89l-11.98,48.81c-2.64,10.74,5.37,20.57,16.3,20l13.24-0.7c20.69-1.08,29.33-9.95,34.07-21.55
			c2.4-5.88,7.65-10.49,13.89-10.83c5.42-0.28,9.39,4.58,8.1,9.91l-16.96,69.83c-1.49,6.13-6.94,10.69-13.17,11.01
			c-5.35,0.28-9.32-4.26-8.95-9.62c0.79-11.38-3.74-19.59-24.44-18.5l-13.23,0.69c-12.59,0.66-23.61,9.87-26.63,22.25l-14.64,60.15
			c-1.49,6.8,0.75,11.16,7.47,10.81L1714.29,550.76z"/>
		<path class="st2" d="M2089.75,478.08c0,58.6-53.74,91.26-120.56,94.77c-24.01,1.26-48.35-4.82-63.8-13.16
			c-2.49-1.36-5.75-0.49-7.23,2.08l-0.9,1.56c-2.84,4.9-8,8.11-13.54,8.41c-5.14,0.27-9.52-3.28-10.26-8.32l-10.08-67.97
			c-0.73-4.94,2.53-9.82,7.47-11.12c4.83-1.28,9.85,0.75,11.86,5.16c13.38,29.45,40.69,58.15,81.64,56.01
			c22.41-1.18,39.19-12.87,39.19-32.66c0-42.92-105.26-48.97-105.26-129.97c0-54.11,48.15-81.27,103.75-84.19
			c26.73-1.39,47.32,3.95,61.51,12.2c2.23,1.31,5.27,0.67,6.55-1.69c2.8-5.17,7.94-8.89,13.68-9.19c5.15-0.27,9.55,3.26,10.35,8.32
			l9.18,58.36c0.76,4.87-2.5,9.69-7.39,10.89c-5.2,1.27-10.26-1.48-12.61-6.1c-15.78-31.08-39.37-46.99-69.31-45.42
			c-26.51,1.38-35.46,14.19-35.46,27.23C1978.52,398.45,2089.75,398.96,2089.75,478.08z"/>
	</g>
</g>
</svg>
