<?xml version="1.0" encoding="utf-8"?>
<!-- Generator: Adobe Illustrator 22.1.0, SVG Export Plug-In . SVG Version: 6.00 Build 0)  -->
<svg version="1.1" id="font:_liberation" xmlns="http://www.w3.org/2000/svg" xmlns:xlink="http://www.w3.org/1999/xlink" x="0px"
	 y="0px" viewBox="0 0 1251.2 95.4" style="enable-background:new 0 0 1251.2 95.4;" xml:space="preserve">
<style type="text/css">
	.st0{fill:#FFFFFF;}
</style>
<g>
	<path class="st0" d="M26.3,20.6v24.8h41v13h-41v29.4H9.6v-80h59v12.9H26.3V20.6z"/>
	<path class="st0" d="M80.6,87.7v-80h63v12.9H97.4v20.1h42.7v13H97.4v21.1h48.5v12.9H80.6L80.6,87.7z"/>
	<path class="st0" d="M224.7,87.7V39.2c0-1.1,0-2.2,0-3.3s0.2-5.8,0.5-14.1c-2.7,10.2-4.7,17.3-6,21.3l-14.4,44.7H193L178.5,43
		l-6.1-21.3c0.4,8.8,0.7,14.6,0.7,17.4v48.5h-14.9v-80h22.4L195,52.4l1.3,4.3l2.7,10.7l3.6-12.8l14.7-47h22.3v80.1H224.7z"/>
	<path class="st0" d="M311.8,87.7l-7.1-20.4h-30.5L267,87.7h-16.8l29.2-80.1h19.8l29.1,80.1H311.8z M289.4,20l-0.3,1.3
		c-0.4,1.4-0.8,2.9-1.4,4.7s-3.8,11.3-9.8,28.8h23l-7.9-23l-2.4-7.7L289.4,20z"/>
	<path class="st0" d="M339.2,87.7v-80H356v67.1h43v12.9H339.2z"/>
	<path class="st0" d="M410.3,87.7v-80h63v12.9H427v20.1h42.7v13H427v21.1h48.5v12.9H410.3L410.3,87.7z"/>
	<path class="st0" d="M585.5,64.6c0,7.8-2.9,13.8-8.7,18s-14.3,6.2-25.6,6.2c-10.3,0-18.3-1.8-24.2-5.4c-5.8-3.6-9.6-9.2-11.3-16.5
		l16.2-2.7c1.1,4.2,3.2,7.3,6.4,9.2c3.2,1.9,7.6,2.9,13.2,2.9c11.7,0,17.6-3.6,17.6-10.7c0-2.3-0.7-4.2-2-5.6
		c-1.3-1.5-3.2-2.7-5.7-3.7s-7.1-2.2-14.1-3.6c-6-1.4-10.2-2.5-12.5-3.4c-2.3-0.8-4.5-1.9-6.4-3c-1.9-1.2-3.5-2.5-4.8-4.2
		s-2.4-3.5-3.1-5.7c-0.7-2.2-1.1-4.7-1.1-7.6c0-7.2,2.7-12.8,8.2-16.6c5.4-3.8,13.3-5.8,23.7-5.8c9.9,0,17.4,1.5,22.4,4.7
		s8.2,8.2,9.6,15.4L567,28.7c-0.8-3.5-2.5-6-5.1-7.8c-2.6-1.7-6.2-2.6-11-2.6c-10.2,0-15.2,3.2-15.2,9.5c0,2.1,0.5,3.8,1.6,5.1
		c1.1,1.3,2.7,2.5,4.8,3.4s6.4,2.1,12.9,3.5c7.7,1.6,13.2,3.1,16.5,4.5s5.9,3,7.9,4.8c1.9,1.8,3.4,4,4.4,6.6
		C585,58.3,585.5,61.3,585.5,64.6z"/>
	<path class="st0" d="M631.1,88.8c-11,0-19.5-2.7-25.3-8.1s-8.8-13-8.8-23v-50h16.8v48.8c0,6.3,1.5,11.1,4.5,14.4s7.4,4.9,13.3,4.9
		c6,0,10.6-1.7,13.8-5.1s4.8-8.3,4.8-14.7V7.6H667v49.2c0,10.2-3.1,18-9.4,23.6C651.3,86,642.5,88.8,631.1,88.8z"/>
	<path class="st0" d="M752.8,64.8c0,7.3-2.7,12.9-8.2,16.9s-13,6-22.7,6h-40V7.6h36.7c9.8,0,17.2,1.7,22.2,5.1s7.5,8.4,7.5,15
		c0,4.5-1.3,8.4-3.8,11.5c-2.5,3.1-6.3,5.2-11.5,6.3c6.5,0.8,11.4,2.8,14.8,6.1C751.1,55,752.8,59.4,752.8,64.8z M731.3,30
		c0-3.6-1.2-6.1-3.4-7.7c-2.3-1.5-5.7-2.3-10.2-2.3h-19.1v19.8h19.2c4.7,0,8.2-0.8,10.3-2.5C730.3,35.8,731.3,33.3,731.3,30z
		 M736,63.5c0-7.5-5.4-11.3-16.1-11.3h-21.3v22.9h21.9c5.4,0,9.3-1,11.8-2.9C734.8,70.3,736,67.4,736,63.5z"/>
	<path class="st0" d="M832.3,87.7V39.2c0-1.1,0-2.2,0-3.3s0.2-5.8,0.5-14.1c-2.7,10.2-4.7,17.3-6,21.3l-14.4,44.7h-11.9L786.2,43
		l-6.1-21.3c0.5,8.8,0.7,14.6,0.7,17.4v48.5h-14.9v-80h22.4l14.3,44.8l1.3,4.3l2.7,10.7l3.6-12.8l14.7-47h22.3v80.1H832.3z"/>
	<path class="st0" d="M862.8,87.7v-80h16.8v80.1C879.6,87.7,862.8,87.7,862.8,87.7z"/>
	<path class="st0" d="M960.4,64.6c0,7.8-2.9,13.8-8.7,18s-14.3,6.2-25.6,6.2c-10.3,0-18.3-1.8-24.2-5.4c-5.8-3.6-9.6-9.2-11.3-16.5
		l16.2-2.7c1.1,4.2,3.2,7.3,6.4,9.2c3.2,1.9,7.6,2.9,13.2,2.9c11.7,0,17.6-3.6,17.6-10.7c0-2.3-0.7-4.2-2-5.6
		c-1.3-1.5-3.2-2.7-5.7-3.7s-7.1-2.2-14.1-3.6c-6-1.4-10.2-2.5-12.5-3.4c-2.3-0.8-4.5-1.9-6.4-3c-1.9-1.2-3.5-2.5-4.8-4.2
		s-2.4-3.5-3.1-5.7c-0.7-2.2-1.1-4.7-1.1-7.6c0-7.2,2.7-12.8,8.2-16.6c5.4-3.8,13.3-5.8,23.7-5.8c9.9,0,17.4,1.5,22.4,4.7
		s8.2,8.2,9.6,15.4L942,28.7c-0.8-3.5-2.5-6-5.1-7.8c-2.6-1.7-6.2-2.6-11-2.6c-10.2,0-15.2,3.2-15.2,9.5c0,2.1,0.5,3.8,1.6,5.1
		c1.1,1.3,2.7,2.5,4.8,3.4s6.4,2.1,12.9,3.5c7.7,1.6,13.2,3.1,16.5,4.5s5.9,3,7.9,4.8c1.9,1.8,3.4,4,4.4,6.6
		C959.9,58.3,960.4,61.3,960.4,64.6z"/>
	<path class="st0" d="M1038,64.6c0,7.8-2.9,13.8-8.7,18c-5.8,4.2-14.3,6.2-25.6,6.2c-10.3,0-18.3-1.8-24.2-5.4
		c-5.8-3.6-9.6-9.2-11.3-16.5l16.2-2.7c1.1,4.2,3.2,7.3,6.4,9.2c3.2,1.9,7.6,2.9,13.2,2.9c11.7,0,17.6-3.6,17.6-10.7
		c0-2.3-0.7-4.2-2-5.6c-1.3-1.5-3.2-2.7-5.7-3.7s-7.1-2.2-14.1-3.6c-6-1.4-10.2-2.5-12.5-3.4c-2.3-0.8-4.5-1.9-6.4-3
		c-1.9-1.2-3.5-2.5-4.8-4.2s-2.4-3.5-3.1-5.7c-0.7-2.2-1.1-4.7-1.1-7.6c0-7.2,2.7-12.8,8.2-16.6c5.4-3.8,13.3-5.8,23.7-5.8
		c9.9,0,17.4,1.5,22.4,4.7s8.2,8.2,9.6,15.4l-16.3,2.2c-0.8-3.5-2.5-6-5.1-7.8c-2.6-1.7-6.2-2.6-11-2.6c-10.2,0-15.2,3.2-15.2,9.5
		c0,2.1,0.5,3.8,1.6,5.1c1.1,1.3,2.7,2.5,4.8,3.4s6.4,2.1,12.9,3.5c7.7,1.6,13.2,3.1,16.5,4.5s5.9,3,7.9,4.8c1.9,1.8,3.4,4,4.4,6.6
		C1037.5,58.3,1038,61.3,1038,64.6z"/>
	<path class="st0" d="M1050.3,87.7v-80h16.8v80.1C1067.1,87.7,1050.3,87.7,1050.3,87.7z"/>
	<path class="st0" d="M1160.5,47.3c0,8.3-1.7,15.7-4.9,22c-3.3,6.3-8,11.2-14.2,14.5c-6.1,3.3-13.3,5-21.5,5
		c-12.6,0-22.4-3.7-29.6-11.1c-7.1-7.4-10.7-17.5-10.7-30.4c0-12.8,3.6-22.9,10.7-30.1s17-10.8,29.7-10.8s22.6,3.6,29.7,10.9
		C1156.9,24.6,1160.5,34.6,1160.5,47.3z M1143.4,47.3c0-8.6-2-15.4-6.1-20.3s-9.8-7.4-17.2-7.4c-7.5,0-13.3,2.4-17.4,7.3
		s-6.1,11.7-6.1,20.4c0,8.8,2.1,15.7,6.3,20.8c4.2,5.1,9.9,7.6,17.1,7.6c7.5,0,13.3-2.5,17.4-7.4
		C1141.4,63.3,1143.4,56.3,1143.4,47.3z"/>
	<path class="st0" d="M1221.9,87.7L1187.1,26c0.7,6,1,10.8,1,14.4v47.2h-14.9v-80h19.2l35.4,62.2c-0.7-5.7-1-10.9-1-15.6V7.6h14.9
		v80.1C1241.6,87.7,1221.9,87.7,1221.9,87.7z"/>
</g>
</svg>
