<svg xmlns="http://www.w3.org/2000/svg" width="275" height="29" fill-rule="evenodd" clip-rule="evenodd" image-rendering="optimizeQuality" shape-rendering="geometricPrecision" text-rendering="geometricPrecision" viewBox="0 0 41.17 4.33"><defs><style>.fil0,.fil2{fill-rule:nonzero}.fil2{fill:#e73689}.fil0{fill:#ffb800}</style></defs><g id="Layer-214"><g id="_1006946816"><path d="M2.17.04c.66-.02 1.2.17 1.61.58.41.41.62.92.62 1.53 0 .53-.16.99-.47 1.39-.4.52-.98.79-1.72.79A2.1 2.1 0 010 2.16 2.06 2.06 0 012.17.04zm.04.2c-.38 0-.67.19-.87.58-.16.31-.24.77-.24 1.36 0 .7.12 1.23.37 1.56.18.24.42.36.73.36.21 0 .39-.05.53-.16.18-.13.32-.33.42-.62.1-.28.15-.66.15-1.11 0-.55-.05-.96-.16-1.23-.1-.27-.23-.46-.39-.58a.9.9 0 00-.54-.16z" class="fil0"/><path id="1" d="M8.57 2.78l-.16 1.45H4.74v-.1h.14a.5.5 0 00.29-.07.3.3 0 00.12-.15c.02-.04.03-.17.03-.38V.8c0-.21-.01-.35-.03-.4a.34.34 0 00-.13-.14.55.55 0 00-.28-.06h-.14V.09h2.21V.2h-.18a.6.6 0 00-.29.06.28.28 0 00-.13.15c-.02.05-.03.18-.03.39v2.64c0 .21.01.35.03.41.03.05.08.1.15.13.05.01.17.02.36.02h.35c.22 0 .4-.04.54-.11.15-.08.28-.2.38-.37.11-.16.21-.41.3-.74h.14z" class="fil0"/><path id="2" d="M8.87 4.23v-.1H9c.12 0 .21-.02.28-.06a.36.36 0 00.14-.16c.02-.04.03-.17.03-.38V.8c0-.21-.02-.35-.04-.4a.29.29 0 00-.13-.14A.55.55 0 009 .2h-.13V.09h1.85c.49 0 .89.07 1.19.21.37.16.64.41.83.74.2.34.29.71.29 1.14 0 .29-.05.55-.14.8a1.73 1.73 0 01-.88.99c-.19.1-.43.17-.71.23a4 4 0 01-.58.03H8.87zM10.44.32v3.23c0 .17.01.28.02.32a.2.2 0 00.09.09c.05.03.13.04.23.04.34 0 .6-.11.78-.35.25-.31.37-.8.37-1.45 0-.54-.08-.96-.25-1.28-.13-.25-.3-.41-.51-.5-.15-.07-.39-.1-.73-.1z" class="fil0"/><path fill="#fff" fill-rule="nonzero" d="M14.69 4.12a.2.2 0 01-.14-.06c-.04-.03-.05-.08-.05-.14V1.31c0-.07.02-.14.08-.2.05-.06.12-.08.2-.08h.06c.09 0 .17.04.24.13l1.68 2.43V1.23a.2.2 0 01.06-.15c.03-.04.08-.05.14-.05.05 0 .1.01.14.05a.2.2 0 01.06.15v2.61c0 .07-.03.14-.09.2a.28.28 0 01-.2.08h-.05a.28.28 0 01-.13-.03.22.22 0 01-.1-.09l-1.7-2.44v2.36c0 .06-.02.11-.06.14-.03.04-.08.06-.14.06z"/><path d="M22.43.09V.2a.67.67 0 00-.32.12c-.1.08-.26.32-.48.7l-.9 1.51v1c0 .21.01.35.04.4.02.05.06.1.13.14a.5.5 0 00.26.06h.24v.1h-2.32v-.1h.21c.13 0 .22-.02.29-.07.06-.03.1-.08.13-.15.02-.04.03-.17.03-.38V2.7L18.77.92a2.8 2.8 0 00-.41-.62.47.47 0 00-.32-.1V.09h1.98V.2h-.09c-.11 0-.2.02-.25.05-.04.04-.07.07-.07.11 0 .08.08.27.25.56l.75 1.37.74-1.24c.19-.31.28-.52.28-.62 0-.05-.03-.1-.08-.14a.78.78 0 00-.38-.09V.09h1.26z" class="fil2"/><path id="1" d="M24.9.04c.66-.02 1.2.17 1.61.58.41.41.62.92.62 1.53 0 .53-.16.99-.46 1.39-.41.52-.98.79-1.73.79-.74 0-1.32-.25-1.72-.76-.33-.4-.49-.87-.49-1.41A2.06 2.06 0 0124.9.04zm.04.2c-.38 0-.67.19-.87.58-.16.31-.24.77-.24 1.36 0 .7.13 1.23.38 1.56.17.24.41.36.72.36.21 0 .39-.05.53-.16.18-.13.32-.33.42-.62.1-.28.15-.66.15-1.11 0-.55-.05-.96-.15-1.23a1.4 1.4 0 00-.39-.58.94.94 0 00-.55-.16z" class="fil2"/><path id="2" d="M27.5.09h2.13V.2h-.11a.8.8 0 00-.33.05.3.3 0 00-.13.14c-.02.06-.03.21-.03.45v2.02c0 .37.02.62.08.74s.15.22.28.3c.12.08.29.11.48.11.22 0 .41-.05.57-.15.16-.1.28-.24.35-.41.08-.18.12-.49.12-.93V.84a.95.95 0 00-.06-.4c-.04-.08-.08-.14-.14-.17a.82.82 0 00-.39-.07V.09h1.43V.2h-.09a.54.54 0 00-.29.07.42.42 0 00-.16.21c-.03.07-.04.19-.04.36v1.57c0 .48-.03.83-.1 1.05-.06.22-.22.41-.47.6-.24.18-.58.27-1.01.27-.36 0-.63-.05-.83-.15a1.2 1.2 0 01-.56-.5 1.7 1.7 0 01-.17-.82V.84c0-.24-.01-.39-.04-.45a.25.25 0 00-.13-.14C27.79.21 27.67.2 27.5.2V.09z" class="fil2"/><path id="3" d="M33.41.09l2.04 2.57V.88c0-.25-.03-.42-.11-.51-.09-.12-.26-.17-.49-.17V.09h1.37V.2a.9.9 0 00-.35.09.3.3 0 00-.14.17c-.04.08-.05.22-.05.42v3.45h-.11L32.78.88v2.64c0 .23.05.4.16.48.11.09.24.13.38.13h.1v.1h-1.48v-.1c.23 0 .39-.05.48-.14.09-.1.13-.25.13-.47V.59l-.08-.11a.89.89 0 00-.23-.22.6.6 0 00-.29-.06V.09h1.46z" class="fil2"/><path id="4" d="M40.68 0v1.45h-.11a1.85 1.85 0 00-.61-.9c-.27-.2-.57-.31-.9-.31-.31 0-.56.09-.77.26-.2.18-.35.42-.44.73a3.83 3.83 0 00.02 2c.09.3.24.52.45.66a1.29 1.29 0 001.04.17l.33-.09v-.85c0-.17-.01-.28-.04-.33a.36.36 0 00-.14-.13.46.46 0 00-.25-.06h-.1v-.1h2.01v.1c-.16.01-.26.03-.32.07a.28.28 0 00-.14.16.8.8 0 00-.03.29v.85a3.94 3.94 0 01-2.69.2 2.14 2.14 0 01-1.15-1.01 2.06 2.06 0 01-.21-.94c0-.62.22-1.15.65-1.58.44-.43.99-.64 1.65-.64.21 0 .39.02.56.05.09.01.23.06.43.14.2.07.32.11.36.11.06 0 .11-.02.16-.06.05-.04.09-.12.13-.24h.11z" class="fil2"/></g></g></svg>