<svg id="outlines" xmlns="http://www.w3.org/2000/svg" viewBox="0 0 1765.16 437.38"><defs><style>.cls-1{fill:#fc0060;}</style></defs><g id="long"><path class="cls-1" d="M364.64,372.38c-1.55,2.72-12.42,9.31-11.25-4.27,0-1.94.78-5.43,1.16-9.31-21.73-10.48-74.12,1.94-125.74,17.46a19.09,19.09,0,0,1,1.17,5.82c-.39,6.21-26,49.29-53.56,100.91,15.52-5.05,29.49-7.77,39.58-3.89l5.83,2.33a44.56,44.56,0,0,1,13.58,8.15,23.83,23.83,0,0,1,7.37,9.32,16,16,0,0,1,1.17,6.21c0,3.1-5.82,14.36-11.65,1.94l-2.71-6.21c-16.69-1.55-45.41,9.31-72.58,19-29.49,57.83-55.1,118.37-48.9,147.48,3.11,14-30.27-3.11-29.1-33.38.39-22.89,14.36-60.54,32.6-100.12a33,33,0,0,1-10.48.38C86.38,532.27,72,506.27,86.38,511.32c8.54,2.71,22.9-1.94,40-8.54,21.35-43.47,45.41-86.55,60.55-113.32-41.53,13.19-76.07,24.83-84.61,21.73-19.4-7-15.91-40-10.09-32.21,13.2,17.46,208.41-73,253.43-53.17,15.91,7,20.57,28.72,20.18,38A15.27,15.27,0,0,1,364.64,372.38Z" transform="translate(-78.98 -322.96)"/><path class="cls-1" d="M427.12,498.9c-.77,21-80.33,154.46-101.29,152.91a29,29,0,0,1-16.3-7.38c-4.65-2.71-9.31-7.37-11.64-15.91-2.33-7.76-.39-20.18,3.88-35.32-27.17,41.53-53.56,80.73-57.82,81.12a7.76,7.76,0,0,1-4.27-.39c-5.05-.78-19-13.2-21-30.66-5.05-44.24,58.21-164.94,81.5-169.21,18.63-3.1,37.26,3.88,48.12,10.87,10.09-19,17.47-31.83,18.63-32.22,7.76-1.16,24.06,13.2,22.51,18.63-4.27,17.47-62.48,107.5-68.69,154.08,34.93-27.56,92.36-126.91,93.92-140.11C415.48,477.94,428.29,484.93,427.12,498.9ZM249,632.79C274.6,601,315,536.93,340.58,497,298.28,502.78,263.35,578.07,249,632.79Z" transform="translate(-78.98 -322.96)"/><path class="cls-1" d="M634,515.2c-3.49,5-91.2,138.55-98.18,139.32-1.56,0-4.27-1.16-7-3.49-8.15-3.49-19.79-14-22.12-26-2.72-14,3.88-41.14,14.36-68.7-29.11,35.71-56.66,74.91-57,93.92,0,2.33-1.94,2.72-4.66,1.94-7.76-1.16-23.28-12.8-26-27.16-2.33-12.42,2.72-35.32,11.25-59.77-31.43,41.14-60.93,86.93-61.32,106,0,1.94-1.94,2.72-4.26,1.94-7,.78-24.45-18.63-26-25.23C347.56,624.25,410,463.58,424.4,458.54c4.66-1.94,36.48,12,24.06,29.1C429.06,514.81,410,561,396.85,602.52c33.76-48.9,83-114.88,93.14-123,.39-.39.78-.39,1.55,0,4.66,0,31.83,11.65,23.68,24.06-22.13,33.77-38,66.76-46.57,93.53,31-42.69,83.82-108.66,94.69-117.59.39-.39.78-.39,1.55,0,4.66,0,31.83,11.65,23.68,24.06-28.72,43.86-47.35,87.33-52.4,116C568.77,580.4,635.52,485.7,641,481,642.51,479.88,643.67,500.45,634,515.2Z" transform="translate(-78.98 -322.96)"/><path class="cls-1" d="M708.09,500.84c-1.16,20.95-83.82,169.21-104.78,167.65-10.09-.77-16.69-7-20.18-12a41.05,41.05,0,0,1-11.26-21.73C562.56,590.49,626.6,481,626.21,474.45c0-7.38,24.45,5.43,26.39,20.18.39,4.66-52,95.47-57.44,149.41,34.93-26.39,98.58-143.2,100.52-156.79C696.45,479.88,708.87,486.87,708.09,500.84Zm-71-45c8.15-9.7,31.83-73.35,33.38-86.93.39-5.05,21.34-1.94,25.23,14.36,3.88,19-33,89.26-40,91.59C651.43,476,634,459.31,637.07,455.82Z" transform="translate(-78.98 -322.96)"/><path class="cls-1" d="M784.93,503.17c-9.31,19-100.51,169.59-119.92,172.31h-.77c-5.83,3.88-29.5-12-28.34-37.65,1.56-69.08,118.76-267.78,119.54-272.44,2.71-14.74,27.94,8.93,27.55,20.57-.77,12.81-103.23,178.14-117.2,258.86,35.7-38,112.16-163,116-160.67C783.77,485.31,788.81,494.63,784.93,503.17Z" transform="translate(-78.98 -322.96)"/><path class="cls-1" d="M915.33,498.9c-4.66,17.85-57.44,88.87-85.77,118.75-16.3,53.56-32.6,106.73-50.06,121.86-30.27,26-53.17-20.56-46.18-17.85,23.67,10.09,39.58-24.06,54.33-71.41-26,31-45.41,57.83-46.18,66-.78,5-15.14-9.7-12.81-15.52,5-12.42,35.31-48.13,69.85-87.71,5.83-20.57,12-41.92,18.24-62.49C781.44,606.4,739.52,671.6,737.58,672c-2.32.39-5.82-1.94-8.53-4.66-7.38-4.27-18.24-14.75-19.8-28.72-5.82-40.36,57.83-154.07,78-169.6,5.43-4.26,23.67,9.71,22.9,19.8-.39,4.65-60.16,94.69-73,151,26-33.38,77.61-110.61,103.23-149.81,4.66-8.93,9.31-16.69,14.36-22.9,5.82-7,32.21,15.53,24.06,25.23-12.81,14.75-25.23,48.51-37.26,86.54,28.33-34.15,60.16-82.27,61.32-93.53C903.69,477.94,918.82,485.31,915.33,498.9Z" transform="translate(-78.98 -322.96)"/><path class="cls-1" d="M1175.23,386.11c-2.28,50.26-92.53,123-98.24,122.22-8.76-1.14-19-36.17-10.28-38.83,19-6.48,70.82-56.36,85.67-96-58.25-6.09-177.81,88.34-180.1,160.69,27.8,15.23,86,28.94,94,33.88,34.65,23.61,32.75,47.6,30.84,51.79-.38,1.14-.38,2.28-.76,3.43-3.81,15.61-78.82,87.95-131.74,68.53-17.14-6.09-26.28-14.46-30.85-21.32a24.63,24.63,0,0,1-5-14.47c.38-9.9,14.09-21.7,14.85-14.47.38,6.86.38,14.47,1.91,22.47,44.93,12.18,116.13-37.32,130.6-67-27.8-16-76.53-24.37-91.77-32.36-16.75-8.76-23.6-21.71-25.89-30.46a105.68,105.68,0,0,1-7.23-27.8c-7.24-71.2,140.5-185.43,198-172.11,6.09,1.53,13.32,12.57,18.66,23.61C1172.18,365.93,1175.61,375.83,1175.23,386.11Z" transform="translate(-78.98 -322.96)"/><path class="cls-1" d="M1325,568.78a20.35,20.35,0,0,1-5-.39c-7.38-.77-19.8-8.92-23.29-26.77-31.44,58.6-70.24,132-72.57,132.34-2.72.77-7.77-2.33-11.65-6.21-6.59-4.66-15.52-13.59-19-24.84-3.11-10.48-2.33-26,1.16-43.47-22.12,41.53-41.52,78.4-43.08,78.4-2.32.77-5.82-1.17-8.92-3.88-7.76-3.5-19.41-13.59-21.74-27.17-8.53-40,43.08-157.95,62.1-174.64,5-4.66,24.45,7.76,24.06,17.85,0,4.66-50.45,99-58.6,156,17.46-26.39,46.57-78,68.3-118,11.26-26.78,23.29-49.28,31-55.88,5-4.66,24.45,7.76,24.06,17.85,0,4.66-45.4,97-51.23,153.3,19.41-29.5,55.89-93.15,79.56-136.22,4.27-12,11.26-26,22.12-42.31,6.6-10.09,43.47,14.75,33.77,22.51-8.93,7-46.18,42.69-38.81,64.81,18.63-2.71,40.75-24.06,46.57-48.9.39-2.71,7-3.88,10.48,9.71C1377.4,524.93,1346.36,569.17,1325,568.78Z" transform="translate(-78.98 -322.96)"/><path class="cls-1" d="M1526.43,501.64c-.78,21-80.34,154.46-101.29,152.91a29,29,0,0,1-16.3-7.37c-4.66-2.72-9.32-7.38-11.65-15.91-2.32-7.77-.38-20.19,3.88-35.32-27.16,41.52-53.55,80.72-57.82,81.11a7.67,7.67,0,0,1-4.27-.39c-5-.77-19-13.19-21-30.66-5-44.24,58.22-164.94,81.5-169.21,18.63-3.1,37.26,3.89,48.13,10.87,10.09-19,17.46-31.82,18.62-32.21,7.77-1.16,24.07,13.19,22.51,18.63-4.27,17.46-62.48,107.5-68.69,154.07,34.93-27.55,92.37-126.91,93.92-140.1C1514.79,480.69,1527.59,487.67,1526.43,501.64ZM1348.29,635.53c25.62-31.82,66-95.85,91.59-135.83C1397.58,505.52,1362.65,580.81,1348.29,635.53Z" transform="translate(-78.98 -322.96)"/><path class="cls-1" d="M1642.46,519.5c-3.1,5-117.2,144.75-123.8,145.53a30.28,30.28,0,0,1-8.15,4.66c-19,7-32.6-19.8-30.27-19.8,32.21-2.71,90.81-100.12,89.26-145.92-43.08,21-63.64,80.72-60.15,118.76.39,2.71-12.42-1.94-19.41-12-24.06,61.7-47,126.51-45.4,142.81s-28,0-29.5-13.58c-1.94-25.22,95.47-269.33,102.85-277.87,2.71-2.72,30.65,11.64,22.12,27.55V490c4.27-4.27,8.92-7,13.58-7.76,1.16-.39,3.11,0,5.43.77h-.38c-3.11-1.16,31.43,2.72,38,27.56,2.71,9.7-.78,25.61-7.76,44.24,30.27-34.93,57.43-66.36,60.93-69.08C1651.39,484.57,1652.17,504.75,1642.46,519.5Z" transform="translate(-78.98 -322.96)"/><path class="cls-1" d="M1596.3,639.11a6.59,6.59,0,0,0-4-3.61c-4.52-1.62-9.94,1.25-12.33,6.54a9.81,9.81,0,0,0-.26,7.75,7.27,7.27,0,0,0,4.14,4.22,7.07,7.07,0,0,0,2.49.45c3.86,0,8-2.89,9.71-7.18A10.35,10.35,0,0,0,1596.3,639.11Z" transform="translate(-78.98 -322.96)"/><path class="cls-1" d="M1697.64,575.13c-.53-2.22-1.64-3-2.47-3.23-1.28-.38-2.7.16-4.2,1.6-5.66,5.21-15.07,14.22-25,24.3a115,115,0,0,0-2.38-13h0c-2.54-8.83-7.63-11.47-11.45-12.13a4,4,0,0,0-3.7.93,2.89,2.89,0,0,0-.58,2.79c2.33,10,4.11,20.9,6.06,34.07-10.83,11.36-20,21.93-23.37,27-2.41,3.74-3.8,7.51-3.8,10.33a11.09,11.09,0,0,0,.81,4.1,3.51,3.51,0,0,0,2.65,2.5,2.87,2.87,0,0,0,.44,0,3.86,3.86,0,0,0,3.06-1.8,253.48,253.48,0,0,1,22.63-26.68c.74,4.12,1.37,6.79,2.31,10.79,2.74,11.06,7.59,16.69,14.79,17.19,1.83.19,3.25-.28,3.89-1.3.42-.66.68-1.83-.42-3.61-4.13-6.6-6.62-20.8-8.7-35.26,5.25-5.24,10.08-9.87,15.18-14.77,1.79-1.71,3.59-3.43,5.41-5.19C1698.33,584.42,1698.16,577.64,1697.64,575.13Z" transform="translate(-78.98 -322.96)"/><path class="cls-1" d="M1770.79,576.13c-.53-2.22-1.63-3-2.47-3.23-1.28-.38-2.69.16-4.2,1.6-5.66,5.21-15.07,14.22-25,24.3a115,115,0,0,0-2.38-13h0c-2.54-8.83-7.63-11.47-11.45-12.13a4,4,0,0,0-3.71.93,2.91,2.91,0,0,0-.58,2.79c2.33,10,4.12,20.9,6.06,34.07-10.83,11.36-20,21.93-23.37,27-2.41,3.74-3.8,7.51-3.8,10.33a11.09,11.09,0,0,0,.81,4.1,3.52,3.52,0,0,0,2.66,2.5,2.63,2.63,0,0,0,.43,0,3.89,3.89,0,0,0,3.07-1.8,251.06,251.06,0,0,1,22.63-26.68c.74,4.12,1.36,6.79,2.3,10.79,2.74,11.06,7.59,16.69,14.8,17.19,1.83.19,3.25-.28,3.89-1.3.41-.66.68-1.83-.43-3.61-4.12-6.6-6.62-20.8-8.7-35.26,5.25-5.24,10.08-9.87,15.19-14.77l5.41-5.19C1771.48,585.42,1771.31,578.64,1770.79,576.13Z" transform="translate(-78.98 -322.96)"/><path class="cls-1" d="M1844,575.13c-.53-2.22-1.64-3-2.48-3.23-1.28-.38-2.69.16-4.19,1.6-5.66,5.21-15.07,14.22-25,24.3a110.52,110.52,0,0,0-2.38-13h0c-2.54-8.83-7.63-11.47-11.45-12.13a4,4,0,0,0-3.71.93,2.91,2.91,0,0,0-.58,2.79c2.34,10,4.12,20.9,6.06,34.07-10.82,11.36-20,21.93-23.36,27-2.42,3.74-3.8,7.51-3.8,10.33a11.09,11.09,0,0,0,.81,4.1,3.49,3.49,0,0,0,2.65,2.5,2.76,2.76,0,0,0,.44,0,3.88,3.88,0,0,0,3.06-1.8,252.26,252.26,0,0,1,22.63-26.68c.74,4.12,1.36,6.79,2.31,10.79,2.74,11.06,7.59,16.69,14.79,17.19,1.83.19,3.25-.28,3.89-1.3.41-.66.68-1.83-.43-3.61-4.12-6.6-6.62-20.8-8.69-35.26,5.24-5.24,10.07-9.87,15.18-14.77l5.41-5.19C1844.64,584.42,1844.47,577.64,1844,575.13Z" transform="translate(-78.98 -322.96)"/></g></svg>