<svg xmlns="http://www.w3.org/2000/svg" width="373" height="53" viewBox="0 0 80.901 11.488" shape-rendering="geometricPrecision" text-rendering="geometricPrecision" image-rendering="optimizeQuality" fill-rule="evenodd" clip-rule="evenodd"><defs><style>.str0{stroke:#e1e1e1;stroke-width:.047;stroke-miterlimit:22.9256}</style></defs><g id="Layer_x0020_1"><g id="_1842753990080"><path class="str0" d="M2.234 6.43a.33.33 0 0 1-.243-.099.33.33 0 0 1-.099-.243V1.734H.343a.306.306 0 0 1-.228-.091.308.308 0 0 1-.092-.228.32.32 0 0 1 .092-.231.298.298 0 0 1 .228-.095h3.783c.091 0 .168.031.232.095.063.063.095.14.095.231a.303.303 0 0 1-.095.228.323.323 0 0 1-.232.091H2.584v4.354a.323.323 0 0 1-.103.243.341.341 0 0 1-.247.099zm3.397-.038a.331.331 0 0 1-.244-.099.333.333 0 0 1-.098-.243V1.438c0-.096.033-.178.098-.247a.326.326 0 0 1 .244-.102h3.046c.092 0 .169.031.232.095.063.063.095.14.095.231a.32.32 0 0 1-.327.319H5.98v1.68h2.424a.31.31 0 0 1 .231.095.31.31 0 0 1 .095.231.32.32 0 0 1-.326.319H5.98v1.687h2.697c.092 0 .169.032.232.095a.317.317 0 0 1 .095.232.305.305 0 0 1-.095.228.324.324 0 0 1-.232.091H5.631zm4.847 0a.33.33 0 0 1-.243-.099.33.33 0 0 1-.099-.243V1.438a.344.344 0 0 1 .342-.349h3.047a.31.31 0 0 1 .231.095.31.31 0 0 1 .095.231.32.32 0 0 1-.326.319h-2.698v1.68h2.424c.091 0 .169.031.232.095.063.063.095.14.095.231a.303.303 0 0 1-.095.228.321.321 0 0 1-.232.091h-2.424v1.687h2.698c.091 0 .168.032.231.095a.313.313 0 0 1 .095.232.301.301 0 0 1-.095.228.323.323 0 0 1-.231.091h-3.047zm4.847.038a.33.33 0 0 1-.243-.099.33.33 0 0 1-.098-.243V1.552c0-.137.047-.254.144-.353a.469.469 0 0 1 .349-.148h.099c.162 0 .302.075.418.228l2.925 4.224V1.4a.343.343 0 0 1 .342-.349c.096 0 .179.034.247.102a.337.337 0 0 1 .102.247v4.536a.47.47 0 0 1-.148.35.489.489 0 0 1-.353.144h-.091a.476.476 0 0 1-.228-.057.526.526 0 0 1-.175-.148l-2.94-4.247v4.11a.323.323 0 0 1-.103.243.341.341 0 0 1-.247.099zm38.801 0a.44.44 0 0 1-.27-.088.531.531 0 0 1-.178-.254l-1.489-4.574a.5.5 0 0 1-.023-.129.3.3 0 0 1 .087-.239.333.333 0 0 1 .247-.095c.081 0 .152.025.213.075a.409.409 0 0 1 .129.198l1.277 4.194 1.284-4.179a.411.411 0 0 1 .395-.288c.091 0 .173.026.247.079a.395.395 0 0 1 .148.209l1.284 4.179 1.276-4.194a.423.423 0 0 1 .129-.198.326.326 0 0 1 .213-.075c.101 0 .184.031.247.095a.3.3 0 0 1 .087.239c0 .03-.007.073-.022.129l-1.489 4.574a.533.533 0 0 1-.179.254.437.437 0 0 1-.27.088.45.45 0 0 1-.277-.095.468.468 0 0 1-.171-.247l-1.223-3.875-1.223 3.875a.475.475 0 0 1-.449.342zm8.593.038c-.532 0-.998-.117-1.398-.35a2.392 2.392 0 0 1-.927-.965c-.217-.41-.331-.881-.342-1.413.011-.532.125-1.003.342-1.413.218-.41.527-.732.927-.965.4-.233.866-.35 1.398-.35.532 0 .997.117 1.394.35.398.233.707.556.927.969.221.413.336.882.346 1.409-.01.527-.125.997-.346 1.41a2.42 2.42 0 0 1-.927.968c-.397.233-.862.35-1.394.35zm0-.646c.405 0 .757-.091 1.056-.274.299-.182.527-.43.684-.744.157-.314.236-.669.236-1.064a2.35 2.35 0 0 0-.236-1.064 1.792 1.792 0 0 0-.684-.744 1.992 1.992 0 0 0-1.056-.274c-.41 0-.763.092-1.06.274-.296.182-.523.43-.68.744a2.35 2.35 0 0 0-.235 1.064c0 .395.078.75.235 1.064.157.314.384.562.68.744.297.183.65.274 1.06.274zm4.164.608a.329.329 0 0 1-.243-.099.33.33 0 0 1-.099-.243v-4.65a.344.344 0 0 1 .342-.349h1.77c.689 0 1.206.141 1.55.425.344.284.517.656.517 1.117 0 .304-.085.581-.255.832-.17.251-.416.432-.741.543.365.096.614.323.749.68.134.357.201.708.201 1.052v.35a.33.33 0 0 1-.099.243.329.329 0 0 1-.243.099.344.344 0 0 1-.254-.095.332.332 0 0 1-.095-.247V5.86c0-.253-.023-.488-.069-.703a1.123 1.123 0 0 0-.326-.577c-.173-.17-.433-.255-.783-.255h-1.573v1.763a.344.344 0 0 1-.349.342zm1.725-2.758c.435 0 .781-.086 1.037-.258a.832.832 0 0 0 .383-.73c0-.304-.11-.537-.33-.699-.22-.162-.597-.243-1.129-.243h-1.337v1.93h1.376zm3.821 2.72a.46.46 0 0 1-.338-.141.457.457 0 0 1-.14-.338V1.4a.342.342 0 0 1 .341-.349c.097 0 .179.034.247.102a.335.335 0 0 1 .103.247v4.3h2.484c.096 0 .179.035.247.103a.335.335 0 0 1 .103.247.323.323 0 0 1-.103.243.343.343 0 0 1-.247.099h-2.697zm4.24 0a.329.329 0 0 1-.243-.099.33.33 0 0 1-.099-.243V1.438a.344.344 0 0 1 .342-.349h1.527c.577 0 1.067.127 1.47.383s.705.587.908.992a2.826 2.826 0 0 1 0 2.552 2.47 2.47 0 0 1-.908.992c-.403.256-.893.384-1.47.384h-1.527zm1.443-.646c.416 0 .78-.085 1.094-.254.314-.17.557-.406.73-.707a2.07 2.07 0 0 0 .258-1.045c0-.395-.086-.743-.258-1.045a1.825 1.825 0 0 0-.73-.706 2.26 2.26 0 0 0-1.094-.255h-1.094v4.012h1.094z" fill="#a4ba18" fill-rule="nonzero"/><path d="M1.737 11.419V8.447h1.105c.225 0 .405.029.541.09.136.06.242.153.319.278a.733.733 0 0 1 .116.392.68.68 0 0 1-.102.358.733.733 0 0 1-.309.272.77.77 0 0 1 .411.27.725.725 0 0 1 .144.45c0 .139-.03.269-.088.388a.744.744 0 0 1-.216.277.895.895 0 0 1-.322.147c-.13.033-.288.05-.476.05H1.737zm.391-1.723h.636c.173 0 .297-.012.372-.035a.408.408 0 0 0 .224-.148.432.432 0 0 0 .075-.26.478.478 0 0 0-.07-.261.351.351 0 0 0-.201-.155 1.65 1.65 0 0 0-.448-.042h-.588v.901zm0 1.374h.733c.126 0 .214-.005.266-.015a.655.655 0 0 0 .225-.08.45.45 0 0 0 .149-.167.52.52 0 0 0 .058-.251.498.498 0 0 0-.085-.29.447.447 0 0 0-.235-.173 1.438 1.438 0 0 0-.43-.049h-.681v1.025zm5.55-.349l.374.05a.913.913 0 0 1-.326.511c-.159.122-.362.182-.61.182-.311 0-.557-.097-.74-.29-.182-.193-.273-.465-.273-.815 0-.361.092-.642.276-.841a.93.93 0 0 1 .718-.299c.284 0 .516.097.696.293.181.196.271.471.271.826 0 .021 0 .054-.002.097H6.473c.014.236.08.417.199.542a.588.588 0 0 0 .444.189.548.548 0 0 0 .339-.106.706.706 0 0 0 .223-.339zm-1.184-.585h1.188c-.016-.181-.062-.317-.137-.407a.547.547 0 0 0-.447-.211.565.565 0 0 0-.417.168.668.668 0 0 0-.187.45zm3.642.639l.358-.058c.02.145.076.255.168.333a.584.584 0 0 0 .385.116c.167 0 .29-.035.371-.103a.307.307 0 0 0 .12-.24.22.22 0 0 0-.108-.194c-.051-.033-.174-.074-.37-.124a3.267 3.267 0 0 1-.55-.175.536.536 0 0 1-.233-.204.567.567 0 0 1 .163-.758.784.784 0 0 1 .23-.106 1.09 1.09 0 0 1 .312-.043c.167 0 .314.024.44.073.127.048.22.115.28.198.06.083.102.195.124.335l-.353.05a.397.397 0 0 0-.139-.263.5.5 0 0 0-.326-.094c-.165 0-.284.027-.354.082-.071.056-.106.121-.106.195 0 .047.014.09.043.128.03.039.076.071.139.097.036.013.141.045.319.093.255.068.433.125.534.169a.54.54 0 0 1 .238.191.527.527 0 0 1 .087.312.606.606 0 0 1-.105.342.68.68 0 0 1-.304.249 1.098 1.098 0 0 1-.45.088c-.277 0-.489-.058-.634-.173-.146-.117-.238-.288-.279-.516zm4.757.318l.049.322a1.302 1.302 0 0 1-.272.033.613.613 0 0 1-.305-.063.347.347 0 0 1-.152-.166c-.03-.068-.044-.212-.044-.431V9.547h-.267v-.283h.267v-.532l.362-.22v.752h.362v.283h-.362v1.261a.64.64 0 0 0 .019.202.155.155 0 0 0 .061.071c.03.017.071.026.124.026.04 0 .093-.005.158-.014zm4.812.326V8.795h-.97v-.348h2.332v.348h-.971v2.624h-.391zm4.49-.698l.374.05a.913.913 0 0 1-.326.511c-.159.122-.362.182-.61.182-.311 0-.558-.097-.74-.29-.182-.193-.273-.465-.273-.815 0-.361.092-.642.276-.841a.929.929 0 0 1 .717-.299c.285 0 .517.097.697.293.181.196.271.471.271.826l-.002.097H22.99c.013.236.079.417.199.542a.588.588 0 0 0 .444.189.55.55 0 0 0 .339-.106.706.706 0 0 0 .223-.339zm-1.185-.585h1.188c-.015-.181-.061-.317-.136-.407a.548.548 0 0 0-.447-.211.57.57 0 0 0-.418.168.678.678 0 0 0-.187.45zm5.242.585l.375.05a.913.913 0 0 1-.326.511c-.159.122-.362.182-.61.182-.311 0-.558-.097-.74-.29-.182-.193-.273-.465-.273-.815 0-.361.092-.642.276-.841a.929.929 0 0 1 .717-.299.9.9 0 0 1 .697.293c.181.196.271.471.271.826 0 .021 0 .054-.002.097h-1.589c.014.236.079.417.199.542a.588.588 0 0 0 .444.189.548.548 0 0 0 .339-.106.698.698 0 0 0 .222-.339zm-1.184-.585h1.189c-.016-.181-.062-.317-.137-.407a.548.548 0 0 0-.447-.211.57.57 0 0 0-.418.168.678.678 0 0 0-.187.45zm3.787 1.283V9.264h.325v.306c.156-.235.382-.351.678-.351.129 0 .247.023.354.069a.555.555 0 0 1 .242.184.702.702 0 0 1 .112.269c.013.068.021.186.021.355v1.323h-.362V10.11a.97.97 0 0 0-.043-.334.348.348 0 0 0-.149-.176.468.468 0 0 0-.251-.066.58.58 0 0 0-.398.148c-.112.098-.167.286-.167.561v1.176h-.362zm6.069 0V8.447h1.111c.196 0 .345.009.449.028.144.024.265.07.363.138a.736.736 0 0 1 .237.287.917.917 0 0 1 .089.404.911.911 0 0 1-.239.64c-.159.175-.448.263-.865.263h-.755v1.212h-.39zm.39-1.561h.761c.252 0 .43-.047.537-.142.106-.095.158-.227.158-.4a.543.543 0 0 0-.093-.319.442.442 0 0 0-.246-.175 1.617 1.617 0 0 0-.364-.027h-.753v1.063zm3.943.483c0-.397.109-.692.329-.884a.988.988 0 0 1 .671-.238c.293 0 .533.097.719.29.186.193.279.461.279.802 0 .277-.041.494-.123.652a.874.874 0 0 1-.36.37 1.036 1.036 0 0 1-.515.131c-.299 0-.54-.096-.724-.289-.184-.193-.276-.471-.276-.834zm.37.001c0 .276.059.482.179.618.119.137.27.206.451.206a.57.57 0 0 0 .449-.207c.119-.137.179-.347.179-.629 0-.265-.06-.467-.18-.603a.572.572 0 0 0-.448-.205.571.571 0 0 0-.451.204c-.12.136-.179.342-.179.616zm3.819 1.077V9.264h.325v.33c.083-.153.16-.254.23-.302a.4.4 0 0 1 .233-.073.71.71 0 0 1 .372.115l-.129.337a.527.527 0 0 0-.263-.075.344.344 0 0 0-.212.072.387.387 0 0 0-.133.199 1.41 1.41 0 0 0-.061.426v1.126h-.362zm3.144 0V9.264h.325v.306a.765.765 0 0 1 .678-.351c.129 0 .247.023.355.069a.567.567 0 0 1 .242.184.702.702 0 0 1 .112.269c.013.068.02.186.02.355v1.323h-.362V10.11a.999.999 0 0 0-.042-.334.353.353 0 0 0-.149-.176.471.471 0 0 0-.252-.066.579.579 0 0 0-.397.148c-.112.098-.168.286-.168.561v1.176h-.362zm6.065 0V8.447h.4l1.545 2.332V8.447h.374v2.972h-.4L55.03 9.086v2.333h-.375zm6.155-.698l.374.05a.913.913 0 0 1-.326.511c-.159.122-.362.182-.609.182-.311 0-.558-.097-.74-.29-.182-.193-.274-.465-.274-.815 0-.361.092-.642.277-.841a.929.929 0 0 1 .717-.299c.284 0 .517.097.697.293.18.196.271.471.271.826l-.002.097h-1.59c.014.236.08.417.199.542a.59.59 0 0 0 .445.189.552.552 0 0 0 .339-.106.705.705 0 0 0 .222-.339zm-1.184-.585h1.188c-.015-.181-.061-.317-.136-.407a.548.548 0 0 0-.447-.211.566.566 0 0 0-.418.168.673.673 0 0 0-.187.45zm4.572.957l.049.322a1.294 1.294 0 0 1-.272.033.616.616 0 0 1-.305-.063.357.357 0 0 1-.152-.166c-.029-.068-.043-.212-.043-.431V9.547h-.268v-.283h.268v-.532l.361-.22v.752h.362v.283h-.362v1.261c0 .105.006.172.02.202a.15.15 0 0 0 .061.071c.029.017.07.026.124.026.039 0 .092-.005.157-.014zm2.512.326l-.645-2.155h.378l.341 1.243.121.463c.005-.022.041-.171.11-.444l.338-1.262h.371l.321 1.251.105.41.123-.416.369-1.245h.351l-.67 2.155h-.374l-.338-1.289-.086-.369-.432 1.658h-.383zm4.221-1.078c0-.397.11-.692.33-.884a.988.988 0 0 1 .671-.238c.293 0 .532.097.719.29.186.193.279.461.279.802 0 .277-.042.494-.124.652a.874.874 0 0 1-.36.37 1.032 1.032 0 0 1-.514.131c-.299 0-.54-.096-.724-.289-.185-.193-.277-.471-.277-.834zm.37.001c0 .276.06.482.179.618.12.137.27.206.452.206a.571.571 0 0 0 .449-.207c.119-.137.178-.347.178-.629 0-.265-.06-.467-.18-.603a.57.57 0 0 0-.447-.205.573.573 0 0 0-.452.204c-.119.136-.179.342-.179.616zm3.82 1.077V9.264h.325v.33c.083-.153.16-.254.23-.302a.397.397 0 0 1 .232-.073.71.71 0 0 1 .372.115l-.128.337a.53.53 0 0 0-.263-.075c-.08 0-.15.025-.212.072a.389.389 0 0 0-.134.199 1.41 1.41 0 0 0-.06.426v1.126h-.362zm3.145 0V8.447h.363v1.692l.855-.875h.467l-.814.801.896 1.354h-.445l-.709-1.101-.25.246v.855h-.363z" fill="#fff" fill-rule="nonzero" fill-opacity=".502" stroke="#e1e1e1" stroke-width=".047" stroke-miterlimit="22.926" stroke-opacity=".502"/><path class="str0" d="M49.239 4.819l-1.006-2.603-.936 2.595 1.942.008zm.167.381l-2.281-.009-.306.684a1.436 1.436 0 0 0-.146.569c0 .199.079.346.238.44.093.055.324.097.691.125v.18H45.26v-.18c.252-.039.462-.145.622-.315.163-.173.403-.514.603-1.068L48.498.045h.856l2.036 5.736c.2.565.442.897.597 1.039.118.109.283.172.5.189v.18H49.08v-.18h.14c.273 0 .466-.039.576-.116a.278.278 0 0 0 .113-.24.68.68 0 0 0-.03-.195c-.105-.368-.334-.878-.473-1.258zM25.6 4.802l1.925-4.62h2.852v.18h-.228c-.206 0-.373.037-.497.111a.499.499 0 0 0-.207.246c-.037.085-.057.303-.057.657v4.619c0 .361.02.586.057.676.039.09.115.169.234.236.117.069.273.102.47.102h.228v.18h-3.669v-.18h.228a.99.99 0 0 0 .497-.109.5.5 0 0 0 .207-.25c.037-.083.057-.301.057-.655V.809l-2.709 6.38h-.124L22.119.855v4.928c0 .347.008.56.026.64a.75.75 0 0 0 .294.422c.151.11.389.164.711.164v.18h-2.414v-.18h.074c.156.004.302-.021.436-.076a.695.695 0 0 0 .307-.216.965.965 0 0 0 .162-.381c.006-.039.01-.215.01-.532V1.376c0-.361-.018-.586-.057-.674a.517.517 0 0 0-.234-.238c-.118-.069-.276-.102-.473-.102h-.225v-.18h2.875l1.989 4.62zM44.667.023v2.463h-.18c-.232-.669-.582-1.178-1.046-1.527a2.482 2.482 0 0 0-1.525-.523c-.528 0-.966.146-1.317.44-.351.294-.599.705-.744 1.229a6.072 6.072 0 0 0-.218 1.619c0 .671.078 1.258.237 1.763.16.506.417.876.771 1.114.355.237.775.355 1.263.355.17 0 .343-.017.521-.054.179-.036.361-.088.548-.157V5.297c0-.28-.02-.461-.057-.544a.528.528 0 0 0-.236-.222.867.867 0 0 0-.431-.101h-.181v-.179h3.425v.179c-.26.018-.443.053-.546.108a.54.54 0 0 0-.236.271c-.031.065-.048.229-.048.488v1.448a7.044 7.044 0 0 1-2.917.602c-.667 0-1.222-.09-1.663-.271a4.122 4.122 0 0 1-1.168-.712 3.364 3.364 0 0 1-.791-.993 3.441 3.441 0 0 1-.363-1.592c0-1.053.372-1.941 1.117-2.667.746-.726 1.684-1.089 2.813-1.089.351 0 .665.027.946.082.153.028.399.105.741.234.341.129.543.192.605.192a.41.41 0 0 0 .271-.106c.083-.07.16-.204.229-.402h.18zM33.632.584v2.853h.14c.449 0 .773-.139.975-.417.201-.279.33-.689.385-1.232h.202v3.668h-.202c-.041-.4-.129-.728-.262-.982-.135-.255-.289-.426-.466-.514-.178-.088-.435-.132-.772-.132v1.969c0 .386.016.62.05.706a.417.417 0 0 0 .184.212c.091.055.236.083.436.083h.422c.658 0 1.186-.152 1.583-.453.397-.301.683-.761.855-1.381h.193l-.318 2.225h-6.085v-.18h.232a.979.979 0 0 0 .493-.109.47.47 0 0 0 .208-.25c.037-.083.056-.301.056-.655V1.376c0-.319-.009-.514-.026-.588a.485.485 0 0 0-.192-.28c-.131-.097-.31-.146-.539-.146h-.232v-.18h5.892v2.071h-.202c-.099-.507-.241-.87-.422-1.09-.181-.22-.436-.382-.767-.486-.194-.061-.555-.093-1.087-.093h-.734z" fill="#fff" fill-rule="nonzero"/></g></g></svg>