<?xml version="1.0" encoding="utf-8"?>
<!-- Generator: Adobe Illustrator 24.0.0, SVG Export Plug-In . SVG Version: 6.00 Build 0)  -->
<svg version="1.1" id="Layer_2" xmlns="http://www.w3.org/2000/svg" xmlns:xlink="http://www.w3.org/1999/xlink" x="0px" y="0px"
	 viewBox="0 0 8192 696.7" style="enable-background:new 0 0 8192 696.7;" xml:space="preserve">
<style type="text/css">
	.st0{fill:#FFFFFF;}
</style>
<g>
	<path class="st0" d="M378.2,11.5c103,0,155.7,10.1,203.2,33.6c47.5,24.4,74,62.1,74,116c0,87.5-109.6,134.3-187.4,145.5v2
		c134.6,12.2,237.6,68.2,237.6,170c0,72.2-46.2,120.1-118.8,153.7C524.8,660.8,431.1,673,334.7,673H6v-28.5
		c103-6.1,113.6-14.2,113.6-124.1V164.2C119.6,54.2,109,46.1,13.9,40V11.5L378.2,11.5L378.2,11.5z M264.7,300.6h52.8
		c113.6,0,184.8-40.7,184.8-126.2c0-93.6-85.8-124.1-166.3-124.1c-34.4,0-52.8,2-60.7,5.1c-10.6,4.1-10.6,21.4-10.6,45.7
		L264.7,300.6L264.7,300.6z M264.7,337.2v181.1c0,95.6,15.8,116,100.3,114c87.1,0,176.9-37.6,176.9-142.5
		c0-103.8-97.7-152.6-232.4-152.6L264.7,337.2L264.7,337.2z"/>
	<path class="st0" d="M1438.2,561c0,74.2,7.9,79.4,89.8,83.5V673h-318.1v-28.5c81.9-4.1,89.8-9.1,89.8-83.5V331.1
		c0-75.3-7.9-79.4-89.8-83.5v-28.5h318v28.5c-81.9,4.1-89.8,8.1-89.8,83.5L1438.2,561L1438.2,561z"/>
	<path class="st0" d="M2380.7,11.5c99,0,174.2,12.2,227,40.7c56.7,30.5,89.8,75.3,89.8,143.5c0,129.2-133.4,195.3-261.4,207.6
		c-21.1,2-44.8,2-60.7,2l-88.4-18.4v133.3c0,109.9,10.6,118.1,132,124.1v28.5h-388.1v-28.4c100.3-6.1,110.9-14.2,110.9-124.1V164.2
		c0-109.9-10.6-118.1-105.6-124.1V11.5L2380.7,11.5L2380.7,11.5z M2287,347.3c21.1,6.1,46.2,12.2,80.5,12.2
		c55.4,0,169-28.5,169-162.8c0-104.8-74-146.6-184.8-146.6c-63.4,0-64.6,6.1-64.6,36.6V347.3z"/>
	<path class="st0" d="M3690.2,412.4V331c0-75.3-7.9-79.4-93.8-83.5V219h322.1v28.5c-81.9,4.1-89.8,8.1-89.8,83.5v229.9
		c0,74.2,7.9,79.4,89.8,83.5v28.5h-322.1v-28.4c85.8-4.1,93.8-9.1,93.8-83.5V453.1h-269.3V561c0,74.2,7.9,79.4,85.8,83.5V673h-315.5
		v-28.5c83.2-4.1,91.1-9.1,91.1-83.5V331.1c0-75.3-7.9-79.4-93.8-83.5v-28.5h322.1v28.5c-81.9,4.1-89.8,8.1-89.8,83.5v81.4
		L3690.2,412.4L3690.2,412.4z"/>
	<path class="st0" d="M5085.4,438.9c0,160.8-159.7,246.2-327.4,246.2c-219.1,0-330-120.1-330-228.9c0-168.9,175.5-249.3,330-249.3
		C4958.7,207,5085.4,310.7,5085.4,438.9z M4767.3,648.5c84.4,0,162.4-51.9,162.4-187.2c0-108.9-64.6-217.8-183.5-217.8
		c-87.1,0-162.4,70.2-162.4,189.3C4583.8,557,4656.4,648.5,4767.3,648.5z"/>
	<path class="st0" d="M5816.7,561c0,74.2,7.9,79.4,89.8,83.5V673h-314.1v-28.5c83.2-4.1,91.1-9.1,91.1-83.5V331.1
		c0-75.3-7.9-79.4-87.1-83.5v-28.5h330c60.7,0,110.9,6.1,149.2,23.4c36.9,17.3,66,50.9,66,95.6c0,60-55.4,97.7-128,116
		c15.8,21.4,58.1,70.2,85.8,100.7c31.7,35.6,56.7,57,72.6,68.2c18.5,12.2,43.6,23.4,66,29.5l-4,26.5h-52.8
		c-117.5-1-153.2-26.5-188.8-63.1c-31.7-32.6-66-82.5-88.4-111c-15.8-21.4-26.4-25.5-66-25.5h-21.3V561z M5816.7,447h42.3
		c29,0,62.1-3,85.8-14.2c36.9-17.3,52.8-47.9,52.8-83.5c0-65.1-58.1-94.6-124-94.6c-54.2,0-56.7,1-56.7,29.5L5816.7,447L5816.7,447z
		"/>
	<path class="st0" d="M6948,561c0,74.2,7.9,79.4,89.8,83.5V673h-318.1v-28.5c81.9-4.1,89.8-9.1,89.8-83.5V331.1
		c0-75.3-7.9-79.4-89.8-83.5v-28.5h318.1v28.5c-81.9,4.1-89.8,8.1-89.8,83.5L6948,561L6948,561z"/>
	<path class="st0" d="M7886.5,644.5l25-2c36.9-3,43.6-10.1,21.1-54l-31.7-61.1h-180.9c-5.2,11.2-19.8,43.7-31.7,73.2
		c-11.9,30.5-4,38.6,33,41.7l30.4,2v28.5h-238.9v-28.4c55.4-5.1,79.2-7.1,116.1-74.2l196.7-355.2l48.8-8.1l199.3,375.5
		c30.4,56,56.7,58,112.2,62.1V673h-299.7v-28.5H7886.5z M7734.7,488.8h147.8l-72.6-144.5h-4L7734.7,488.8z"/>
</g>
</svg>
