<svg id="long" xmlns="http://www.w3.org/2000/svg" viewBox="0 0 3322.53 658.25"><defs><style>.cls-1{fill:#7317db;}.cls-2{fill:#ff00c8;}</style></defs><path class="cls-1" d="M3576.72,1108.93c-1.74,0-2.54,1.2-4.14,2.74-2.32,2.21-14.94,16.62-22.07,16.62-2.42,0-3.84-1-3.84-4.22,0-12.55,15.57-28.24,15.57-38.94,0-10.43-11.59-15.09-19.44-15.09-8.42,0-19.35,8-29.44,18.37a13,13,0,0,0,.52-3.28c0-10.42-11.58-15.08-19.44-15.08-9.08,0-21.1,9.25-31.83,20.89a94.1,94.1,0,0,1,5.56-8.42,5.33,5.33,0,0,0,.54-5.62c-1.9-3.75-6.53-8.1-14.72-8.1-7.91,0-22.92,27.73-31.07,49.18-3.85,4.36-9.05,8.69-15.76,7.61,5.7-11.33,8.8-23.16,8.8-30.23,0-15.18-7.67-24.91-23.94-24.91-20.41,0-38.5,17.87-45,42.41-7.51,8.05-22.55,21.2-40.77,14.7-6.25-2.22-10.66-11.85-4-24.9,6.27-12.34,19.08-21.56,25.07-20.08,4.22,1,3.45,9.45-1.18,14.08,0,6.68,24.35,6.68,24.35-12.17,0-4-4-16.32-24.35-16.32-29.11,0-53.64,35.55-53.64,59.65s20.23,27.09,26.68,27.09c19.49,0,35.27-11.72,45.58-23,.85,10.2,6.27,23.78,25.44,23.78,11,0,20.32-6.51,27.64-15.45,6.41,1.8,13.34,0,19.76-3.9a20.32,20.32,0,0,0-.22,2.72c0,13.52,9.12,17.71,18.63,18.23a2.15,2.15,0,0,0,2.27-2c.36-5.91,2.21-13.48,4.91-21.58,11-27.72,32.63-48.7,42.62-48.7.86,0,1.41.19,1.41.92,0,3.1-9.52,16.85-17.56,38.56-2.87,7.75-1.58,21.53,9.24,27.7a6.61,6.61,0,0,0,9.8-4.57l1.53-8.68c.8-4.79,4.73-12.74,9.18-21.2,11.47-19.42,26.8-32.73,34.76-32.73.85,0,1.4.19,1.4.92,0,3.1-9.52,16.85-17.55,38.56-3.78,10.19-1.62,30.84,18.93,30.84,18.94,0,38.51-32.66,43.19-39.45C3581.33,1114.06,3578.46,1108.93,3576.72,1108.93Zm-174.46-2.52c-8.2-2.29-17.31,7.88-17.31,17.59v0a23.93,23.93,0,0,1-7.06,1c-6.39,0-7.91-7.45-7.91-13.07,0-18,17.1-31,24.65-31s10.88,5.57,10.88,11.15A40.33,40.33,0,0,1,3402.26,1106.41Z" transform="translate(-257.84 -660.42)"/><path class="cls-1" d="M3265.94,1145.38c-3,10.82-10.79,17.9-19.83,17.9s-15.58-8-12.93-17.89,10.77-17.9,19.82-17.9C3262.79,1127.49,3268.64,1135.51,3265.94,1145.38Z" transform="translate(-257.84 -660.42)"/><path class="cls-1" d="M3292.5,971.75c-5.78-17.5-20.69-20.8-30.51-20.8-27.28,0-54.47,44.69-73.15,95-1.57,4.2-3.13,8.45-4.69,12.71-12.38,14.06-32.68,35.34-51.59,35.34-11.06,0-13.52-10-13.52-16,0-31.41,52.23-92.2,52.23-100.29,0-5.93-7.68-28.05-35.64-28.05-21.51,0-59.33,55.91-75.64,106.58-11.73,12.08-32.94,32.74-46.29,32.74-5.9,0-9.36-2.47-9.36-10.3,0-30.64,38-69,38-95.09,0-25.45-28.29-36.83-47.47-36.83-20.55,0-47.24,19.39-71.89,44.84a31.87,31.87,0,0,0,1.29-8c0-25.45-28.3-36.83-47.48-36.83-22.19,0-51.53,22.6-77.72,51a223.29,223.29,0,0,1,13.58-20.56,13,13,0,0,0,1.31-13.71c-4.64-9.17-15.93-19.8-35.94-19.8-17.82,0-50.36,57.57-70.94,107.61-9.65,10.06-35.59,37.66-51,37.66-5.89,0-9.36-2.47-9.36-10.3,0-30.64,38-69,38-95.09,0-25.45-28.3-36.83-47.48-36.83-20.55,0-47.24,19.39-71.88,44.84a32.26,32.26,0,0,0,1.28-8c0-25.45-28.3-36.83-47.48-36.83-22.18,0-51.52,22.6-77.72,51A223.29,223.29,0,0,1,2455,977.2a13,13,0,0,0,1.31-13.71c-4.64-9.17-15.93-19.8-35.93-19.8-19.33,0-56,67.71-75.89,120.1-9.4,10.65-22.09,21.23-38.47,18.58,13.91-27.66,21.47-56.55,21.47-73.81,0-37.07-18.71-60.83-58.45-60.83-58.37,0-109,59.81-115.6,135.59-2.07,23.58,5.19,72.65,62.14,72.65,26.84,0,49.61-15.89,67.49-37.73,15.64,4.4,32.57.08,48.24-9.53a48.6,48.6,0,0,0-.54,6.64c0,33,22.28,43.24,45.51,44.53a5.26,5.26,0,0,0,5.52-4.92c.9-14.43,5.42-32.92,12-52.68,26.9-67.69,79.68-118.93,104.08-118.93,2.08,0,3.43.48,3.43,2.25,0,7.56-23.25,41.15-42.88,94.16-7,18.92-3.87,52.58,22.57,67.64a16.15,16.15,0,0,0,23.93-11.17l3.74-21.19c2-11.69,11.55-31.11,22.4-51.77,28-47.42,65.46-79.92,84.89-79.92,2.08,0,3.42.48,3.42,2.25,0,7.56-23.24,41.15-42.87,94.16-9.21,24.88-3.95,75.3,46.23,75.3,23.1,0,46.59-19.89,65.73-41.87,0,.75-.07,1.48-.07,2.16,0,33,22.28,43.24,45.51,44.53a5.26,5.26,0,0,0,5.52-4.92c.9-14.43,5.41-32.92,12-52.68,26.9-67.69,79.68-118.93,104.08-118.93,2.08,0,3.42.48,3.42,2.25,0,7.56-23.24,41.15-42.87,94.16-7,18.92-3.87,52.58,22.57,67.64a16.15,16.15,0,0,0,23.93-11.17l3.74-21.19c2-11.69,11.55-31.11,22.4-51.77,28-47.42,65.45-79.92,84.89-79.92,2.07,0,3.42.48,3.42,2.25,0,7.56-23.24,41.15-42.87,94.16-9.21,24.88-4,75.3,46.23,75.3,25.72,0,51.91-24.66,72.06-49.4,2.42,27.37,19.16,49.82,47.23,49.82,17.7,0,38.48-12,56.8-28.12-16,33.28-34.86,57.91-60.19,57.91-7.84,0-24.74-3.23-24.74-9.91-32.18,0-44.39,82,22.46,82,70.21,0,109.95-92.39,138.65-170.11,20.19-54.7,44.48-97.4,57-106.32A8.13,8.13,0,0,0,3292.5,971.75Zm-998.42,63.79c-20-5.59-42.27,19.24-42.27,42.94v.14a58.5,58.5,0,0,1-17.24,2.52c-15.59,0-19.31-18.2-19.31-31.92,0-43.86,41.75-75.69,60.18-75.69s26.56,13.62,26.56,27.23C2302,1008.92,2299.64,1022.15,2294.08,1035.54Z" transform="translate(-257.84 -660.42)"/><path class="cls-1" d="M1913.82,1070l46.07-154.18c-63.21,99.83-123.46,217.38-143.54,265.23-4.14,9.45-8.86,11.22-13.59,11.22-14.18,0-51.39-22.44-51.39-39.57,86.83-174.86,197.3-384,203.8-409.37,4.13-16,22.44-20.67,35.44-20.67,27.76,0,68.52,19.49,68.52,49a38.47,38.47,0,0,1-3.54,15.35L2003,963.66c37.81-44.9,161.27-233.93,168.36-245.15,4.13-7.09,8.86-9.45,14.76-9.45,40.76,0,73.25,39.58,73.25,56.71,0,8.27-1.18,7.09-11.22,27.17-70.89,139.41-108.1,226.24-135.87,303.63-15.35,42.53-26,85.06-26,125.23,0,26,5.91,47.85,20.68,59.07a8.43,8.43,0,0,1,3.54,7.09c0,12.4-23.63,30.72-50.21,30.72-41.35,0-56.71-39-56.71-77.39,0-104.55,85.07-285.9,112.83-361.51-53.16,84.47-131.14,224.47-142.36,241.6a12.8,12.8,0,0,1-11.23,6.5C1942.76,1127.88,1913.82,1085.93,1913.82,1070Z" transform="translate(-257.84 -660.42)"/><path class="cls-2" d="M1744.6,1047.74c-5,5-36.91,48.36-60.58,48.36-11.59,0-17.74-1.9-17.74-18.51,0-31.94,52.58-90.71,53.43-100.46s-27.92-28.74-35.35-28.74-32,16.21-66.3,16.21c-1.79,0-3.52,0-5.16-.08-29.23-1.08-37.25-10-48.33-22.11-11.65,0-23.1,14.17-23.1,26.67,0,15.62,9.69,25.09,21.68,30.7-5.76,12.22-17.85,30.39-30.91,47.26-14,17-54.54,62.62-107.47,43.76-13-4.63-22.73-22.38-15.33-47.24,6.06,6.6,17.37,13.08,36.6,13.08,37.65,0,86.66-24.7,86.66-71,0-9.78-9.81-39.85-59.44-39.85-71.1,0-131,86.8-131,145.65s49.39,66.16,65.14,66.16c56.49,0,103.3-43.58,126.27-72.77a20.56,20.56,0,0,0,1.42-2.08c18.32-25.23,34.87-50.36,51.21-76.46a147,147,0,0,0,24.91.85c8.23-.24,16.64-.56,24.73-2.29,7.28-1.56,8,1.36,5,5-9.92,12-18.12,25.68-25.37,39.23-10.1,18.79-19.73,39.51-17.86,61.4,2.44,28.32,22.08,48.16,50.8,48.16,42.37,0,81.74-50.72,103.84-82.33C1756.26,1070.65,1754.08,1047.74,1744.6,1047.74ZM1414.92,1030h0c15.31-30.13,46.59-52.62,61.2-49,4.51,1.11,6.77,5.66,6.77,11.38,0,12.31-22.4,36.65-68.72,39.17C1414.41,1031,1414.66,1030.48,1414.92,1030Z" transform="translate(-257.84 -660.42)"/><path class="cls-2" d="M1378.09,967.82c-5.92-17.93-21.2-21.32-31.27-21.32-15.23,0-30.44,13.6-44.22,34.31-3.75-21.3-19.57-34.31-46-34.31-28.63,0-98.61,29.57-123,102.92-.66.67-1.36,1.38-2.15,2.13-5.66,5.41-36.48,40.58-53.89,40.58-5.89,0-9.36-2.47-9.36-10.3,0-30.64,38-69,38-95.09,0-25.46-28.3-36.83-47.48-36.83-22.19,0-51.53,22.59-77.73,51a226.65,226.65,0,0,1,13.59-20.56,13,13,0,0,0,1.31-13.71c-4.64-9.17-15.94-19.79-35.94-19.79-17.67,0-49.8,56.58-70.4,106.31-11.41,13.11-35.82,42.45-58.3,42.45-11.34,0-13.86-10.24-13.86-16.45,0-32.21,53.54-94.52,53.54-102.81,0-6.09-7.87-28.76-36.53-28.76-21.49,0-58.87,54.44-76.23,105.28-11.3,13-35.9,42.74-58.54,42.74-11.34,0-13.86-10.24-13.86-16.45,0-32.21,53.54-94.52,53.54-102.81,0-6.09-7.87-28.76-36.54-28.76-22.84,0-63.65,61.54-79.26,114.86-9.59,11.4-23,23.92-40.62,21.07,13.92-27.66,21.48-56.55,21.48-73.81,0-37.08-18.71-60.83-58.46-60.83-58.36,0-109,59.81-115.59,135.58-2.07,23.59,5.18,72.65,62.13,72.65,26.84,0,49.62-15.89,67.49-37.72,18.72,5.26,39.28-2,57.32-15.79,1.15,29.81,18.56,55,48.67,55,26.88,0,60.68-27.06,83-54.59,1.3,29.63,18.68,54.59,48.66,54.59,23.1,0,51.31-20,72.93-43.08-.08,1-.14,2.06-.14,3,0,33,22.28,43.24,45.51,44.53a5.26,5.26,0,0,0,5.53-4.92c.9-14.44,5.41-32.93,12-52.69,26.9-67.68,79.68-118.92,104.08-118.92,2.08,0,3.42.47,3.42,2.24,0,7.57-23.24,41.16-42.87,94.17-9.21,24.88-12.51,75.29,44,75.29,32,0,62.63-32,83.18-60.73-.09,2.37-.15,4.75-.15,7.17,0,30.24,22,50.16,40.4,50.16,29,0,57.86-19.45,81.61-45.87-18.23,43-39.53,77.75-70,77.75-8,0-25.36-3.31-25.36-10.15-33,0-45.5,84,23,84,72,0,112.71-94.72,142.13-174.39,20.7-56.07,45.6-99.85,58.4-109A8.3,8.3,0,0,0,1378.09,967.82Zm-807.21,68.87c-20-5.58-42.27,19.24-42.27,43v.13a58.24,58.24,0,0,1-17.25,2.52c-15.59,0-19.3-18.2-19.3-31.92,0-43.85,41.75-75.68,60.18-75.68s26.56,13.62,26.56,27.22C578.8,1010.08,576.44,1023.31,570.88,1036.69Zm636.3,43.19c-8.5,0-15.35-6.14-15.35-18.11,0-35.13,49.07-78.43,73.33-78.43,14.15,0,14.11,13.44,14.11,17.45C1279.26,1029,1234.43,1079.88,1207.18,1079.88Z" transform="translate(-257.84 -660.42)"/><path class="cls-2" d="M323.41,1069.2c-17.13-8.27-28.94-25.4-28.94-49.62,0-73.25,60.84-205.57,79.15-310.72,4.14-16,22.45-20.67,35.45-20.67,21.85,0,64.39,18.31,64.39,43.71,0,6.5-3.55,11.22-7.09,15.36-46.08,62-73.84,166.58-90.38,210.88a8.84,8.84,0,0,0-.59,3.55c0,2.95,1.18,4.13,3.54,4.13s5.32-1.18,8.27-3.54C442.15,891.39,533.71,749,586.87,675.19c5.32-11.22,17.72-14.77,29-14.77,25.4,0,64.39,24.22,64.39,54.35,0,7.09-3,11.81-9.46,17.13-118.14,104-332.57,346.16-332.57,479.66,0,18.9,4.73,36,14.18,49.62a11.36,11.36,0,0,1,2.36,7.09c0,11.22-20.67,17.13-39,17.13-42.53,0-57.89-25.4-57.89-56.71C257.84,1180.25,301,1112.32,323.41,1069.2Z" transform="translate(-257.84 -660.42)"/></svg>