<?xml version="1.0" encoding="utf-8"?>
<!-- Generator: Adobe Illustrator 22.1.0, SVG Export Plug-In . SVG Version: 6.00 Build 0)  -->
<svg version="1.1" id="Vrstva_1" xmlns="http://www.w3.org/2000/svg" xmlns:xlink="http://www.w3.org/1999/xlink" x="0px" y="0px"
	 viewBox="0 0 1344 100.8" style="enable-background:new 0 0 1344 100.8;" xml:space="preserve">
<style type="text/css">
	.st0{fill:#FFFFFF;}
	.st1{fill:#FF6D40;}
</style>
<title>site-logo-watermark</title>
<g>
	<path class="st0" d="M51.1,83.2c11.6,0,20-3.5,26.1-7.6l8.3,11.5c-8.1,7-18.9,10.7-34.4,10.7C19.4,97.8,2,77.5,2,49.6
		C2,21.8,19.4,1.5,51.1,1.5c15.5,0,26.4,3.7,34.4,10.7l-8.3,11.5C71.1,19.5,62.7,16,51.1,16c-21.3,0-31.4,14.2-31.4,33.6
		S29.8,83.2,51.1,83.2z"/>
	<path class="st0" d="M171.7,81.3v14.6H97.2v-8.6L147.2,18H99.9V3.4h71.9V12l-50.1,69.2H171.7z"/>
	<path class="st0" d="M253.6,41.4V56h-45.9v25.3h48.8v14.6h-66.2V3.4h65.5V18h-48.1v23.5H253.6z"/>
	<path class="st0" d="M315.4,83.2c11.6,0,20-3.5,26.1-7.6l8.3,11.5c-8.1,7-18.9,10.7-34.4,10.7c-31.7,0-49.1-20.3-49.1-48.1
		c0-27.8,17.4-48.1,49.1-48.1c15.5,0,26.4,3.7,34.4,10.7l-8.3,11.5c-6.1-4.1-14.5-7.6-26.1-7.6C294.1,16,284,30.3,284,49.6
		S294.1,83.2,315.4,83.2z"/>
	<path class="st0" d="M427.2,3.4h17.4v92.4h-17.4V56h-44v39.8h-17.4V3.4h17.4v38h44V3.4z"/>
	<path class="st1" d="M462.6,95.8V3.4h42.1c25.9,0,40.5,12.7,40.5,34.7s-14.6,34.7-40.5,34.7h-14.8v22.9H462.6z M489.8,26.2v24h14.8
		c9.1,0,13-4.9,13-12c0-7.1-3.8-12-13-12H489.8z"/>
	<path class="st1" d="M568.1,95.8h-28.7l37.8-92.4h27.6l37.8,92.4h-28.7l-5.8-15h-34.2L568.1,95.8z M582,60.1h18l-9-23.3L582,60.1z"
		/>
	<path class="st1" d="M649.7,95.8V3.4h40.8c24,0,41.8,9,41.8,32.9c0,15.1-10.8,22.8-18,25.5l18.8,34h-29.3l-15.9-28.5h-11v28.5
		H649.7z M677,26.2v20.4h13.5c9.8,0,14.2-3,14.2-10.2c0-7.2-4.4-10.2-14.2-10.2H677z"/>
	<path class="st1" d="M827.3,3.4v22.7h-30.2v69.7h-27.3V26.1h-30.2V3.4H827.3z"/>
	<path class="st1" d="M836.3,3.4h27.3v92.4h-27.3V3.4z"/>
	<path class="st1" d="M950,38v22.1h-43.1v13h46.8v22.7h-74.1V3.4h73.5v22.7h-46.2V38H950z"/>
	<path class="st1" d="M1027.7,28.5c-7.2-3.1-15.5-5-25-5c-6,0-11.2,1.7-11.2,6.6c0,5,5.3,6.4,13.5,8.1c23.5,4.9,37.3,12.1,37.3,30.4
		c0,22.1-18.6,29.8-41.6,29.8c-15.7,0-29.3-4.3-39.2-11.9l12.3-18.4c7.7,4.8,16.8,7.6,25.6,7.6c9.1,0,15.3-1.2,15.3-7.1
		c0-4.8-5.8-6.4-15.1-8.3C975,55.2,963.9,45,963.9,30.1c0-16.1,10.8-29.3,37.4-29.3c15.8,0,28.2,3,38.6,9.3L1027.7,28.5z"/>
	<path class="st0" d="M1061.5,77.3c5.3,0,9.6,4.3,9.6,9.6c0,5.3-4.3,9.5-9.6,9.5c-5.3,0-9.5-4.3-9.5-9.5
		C1052,81.6,1056.2,77.3,1061.5,77.3z"/>
	<path class="st0" d="M1117,83.6c7,0,13.2-1.9,18.9-6.4l8.2,10.4c-7.2,7.2-16.6,9.5-27.2,9.5c-22.4,0-36.7-14.8-36.7-34.2
		c0-19.5,14.3-34.2,36.7-34.2c10.6,0,20,2.3,27.2,9.5l-8.4,10.2c-5.7-4.5-11.9-6.2-18.8-6.2c-14.1,0-20.2,9.9-20.2,20.8
		C1096.8,73.7,1102.9,83.6,1117,83.6z"/>
	<path class="st0" d="M1189.2,97.1c-22.4,0-36.7-14.8-36.7-34.2c0-19.5,14.3-34.2,36.7-34.2c22.4,0,36.7,14.6,36.7,34.2
		C1226,82.5,1211.6,97.1,1189.2,97.1z M1189.2,42.1c-14.1,0-20.2,9.9-20.2,20.8c0,10.8,6.1,20.7,20.2,20.7
		c14.1,0,20.2-9.9,20.2-20.7C1209.4,52.1,1203.4,42.1,1189.2,42.1z"/>
	<path class="st0" d="M1240.2,30h16.2V36c2.2-3.9,8.8-7.3,15.3-7.3c10.4,0,17.7,3.6,21.6,9.1c3.5-4.7,11.3-9.1,20.2-9.1
		c15.8,0,26.5,8.4,26.5,28.7v38.4h-16.2V57.4c0-9.1-3.9-15.3-12.8-15.3c-9,0-12.8,6.2-12.8,15.3v38.4H1282V57.4
		c0-9.1-3.9-15.3-12.8-15.3c-9,0-12.8,6.2-12.8,15.3v38.4h-16.2V30z"/>
</g>
</svg>
