<?xml version="1.0" encoding="utf-8"?>
<!-- Generator: Adobe Illustrator 22.0.1, SVG Export Plug-In . SVG Version: 6.00 Build 0)  -->
<svg version="1.1" id="Layer_1" xmlns="http://www.w3.org/2000/svg" xmlns:xlink="http://www.w3.org/1999/xlink" x="0px" y="0px"
	 viewBox="0 0 1080 1080" enable-background="new 0 0 1080 1080" xml:space="preserve">
<g>
	<g>
		<path fill="#FFFFFF" d="M368.8,480.5v128.4h-18.3v-57.2h-73.8v57.2h-18.3V480.5h18.3v55.2h73.8v-55.2H368.8z"/>
		<path fill="#FFFFFF" d="M381.1,560.3c0-29,21.5-49.5,50.6-49.5c29.2,0,50.5,20.6,50.5,49.5c0,29-21.3,49.7-50.5,49.7
			C402.6,610,381.1,589.3,381.1,560.3z M464.4,560.3c0-20.7-13.9-34.1-32.7-34.1s-32.8,13.4-32.8,34.1c0,20.7,14.1,34.3,32.8,34.3
			S464.4,581,464.4,560.3z"/>
		<path fill="#FFFFFF" d="M495.6,472.8v119.3c0,9.3,7.5,16.8,16.8,16.8h0.8V472.8H495.6z"/>
		<path fill="#FFFFFF" d="M528.8,591.3h-32.4c-0.4,0-0.8,0.4-0.8,0.8c0,9.3,7.5,16.8,16.8,16.8h16.4c0.4,0,0.8-0.4,0.8-0.8v-16
			C529.6,591.7,529.3,591.3,528.8,591.3z"/>
		<path fill="#FFFFFF" d="M539.8,481.6c0-6.4,5.1-11.6,11.9-11.6c6.8,0,11.9,5,11.9,11.2c0,6.6-5,11.7-11.9,11.7
			C545,492.9,539.8,488,539.8,481.6z M542.9,511.7h17.6v97.2h-17.6V511.7z"/>
		<path fill="#FFFFFF" d="M706.8,480.5l-56.3,128.4h-18.2l-56.5-128.4h19.8L641.8,586l46.6-105.5H706.8z"/>
		<path fill="#FFFFFF" d="M801.7,608.9l-27.7-39.4c-2.6,0.2-5.3,0.4-8.1,0.4h-31.7v39.1h-18.3V480.5h50.1
			c33.4,0,53.6,16.9,53.6,44.8c0,19.8-10.3,34.1-28.3,40.6l30.5,43.1H801.7z M801.1,525.2c0-18.3-12.3-28.8-35.8-28.8h-31.2v57.8
			h31.2C788.8,554.2,801.1,543.6,801.1,525.2z"/>
		<path fill="#FFFFFF" d="M520.1,591.3l-1.7,7.9l-8.3-1.6l-5.2-7.2l4.7-7.9l3.6,2v2.4c0,2.4,2,4.4,4.4,4.4H520.1z"/>
	</g>
	<g>
		<g>
			<polygon fill="#D95088" points="368.5,18.3 307.1,224.8 428.4,224.8 540,141.1 			"/>
			<polygon fill="#D23385" points="368.5,18.3 102.4,217.8 307.1,224.8 			"/>
			<polygon fill="#D990BE" points="428.4,224.8 269.1,340.6 307.1,224.8 			"/>
			<polygon fill="#356CC7" points="368.5,1061.7 307.1,855.2 428.4,855.2 540,938.9 			"/>
			<polygon fill="#234FCA" points="368.5,1061.7 102.4,862.2 307.1,855.2 			"/>
			<polygon fill="#6267DD" points="428.4,855.2 269.1,739.4 307.1,855.2 			"/>
			<polygon fill="#FFFFFF" points="105.3,862.1 104.7,864 102.4,862.2 			"/>
			<polygon fill="#D651BE" points="102.4,217.8 167.3,416.5 269.1,340.6 307.1,224.8 			"/>
			<polygon fill="#E574E6" points="269.1,340.6 207.7,540.8 167.3,416.5 			"/>
			<polygon fill="#B535BD" points="102.4,217.8 0,540.8 167.3,416.5 			"/>
			<polygon fill="#A035F5" points="0,540.8 167.3,661.2 207.7,540.8 167.3,416.5 			"/>
			<polygon fill="#A46AF2" points="207.7,540.8 269.1,738.1 167.3,661.2 			"/>
			<polyline fill="#4818F8" points="102.4,862.2 0,540.8 167.3,661.2 			"/>
			<polygon fill="#4C37FE" points="269.1,739.4 307.1,855.2 102.4,862.2 167.3,661.2 269.1,738.1 269.8,739.8 			"/>
			<polygon fill="#D23E72" points="540,18.3 368.5,18.3 540,141.1 711.5,18.3 			"/>
			<polygon fill="#EB776A" points="540,141.1 428.4,224.8 540,224.8 651.6,224.8 			"/>
			<polygon fill="#D84E34" points="711.5,18.3 772.9,224.8 651.6,224.8 540,141.1 			"/>
			<polygon fill="#D94017" points="711.5,18.3 977.6,217.8 772.9,224.8 			"/>
			<polygon fill="#EAAD76" points="651.6,224.8 810.9,340.6 772.9,224.8 			"/>
			<polygon fill="#17A28D" points="540,938.9 368.5,1061.7 540,1061.7 711.5,1061.7 			"/>
			<polygon fill="#75AAC9" points="540,855.2 428.4,855.2 540,938.9 651.6,855.2 			"/>
			<polygon fill="#34BD91" points="711.5,1061.7 772.9,855.2 651.6,855.2 540,938.9 			"/>
			<polygon fill="#48A33C" points="711.5,1061.7 977.6,862.2 772.9,855.2 			"/>
			<polygon fill="#73E5B1" points="651.6,855.2 810.9,739.4 772.9,855.2 			"/>
			<polygon fill="#FFFFFF" points="974.7,862.1 975.3,864 977.6,862.2 			"/>
			<polygon fill="#E2A634" points="977.6,217.8 912.7,416.5 810.9,340.6 772.9,224.8 			"/>
			<polygon fill="#FDFF70" points="810.9,340.6 872.3,540.8 912.7,416.5 			"/>
			<polygon fill="#D4931B" points="977.6,217.8 1080,540.8 912.7,416.5 			"/>
			<polygon fill="#DBE340" points="1080,540.8 912.7,661.2 872.3,540.8 912.7,416.5 			"/>
			<polyline fill="#BADF2F" points="977.6,862.2 1080,540.8 912.7,661.2 			"/>
			<polygon fill="#69BC54" points="810.9,739.4 772.9,855.2 977.6,862.2 912.7,661.2 810.9,738.1 810.2,739.8 			"/>
		</g>
		<polygon fill="#A9C07A" points="810.9,738.1 872.3,540.8 912.7,661.2 		"/>
	</g>
</g>
</svg>
