<?xml version="1.0" encoding="UTF-8" standalone="no"?>
<svg xmlns="http://www.w3.org/2000/svg" viewBox="0 0 920 210"><defs><style>.cls-1{fill:#3b3b3b;}.cls-2{fill:#fff;}.cls-3{fill:#d12327;}.cls-4{fill:#b72025;}</style></defs><title>21sextury-logo</title><path class="cls-1" d="M918.3,6.5H198.8V4.9l5.4-.2H918.3v2Z"/><path class="cls-1" d="M198.3,208.5c0.6-.6,1.1-1.6,1.8-1.7a31.2,31.2,0,0,1,5-.1H918.3c-0.3.7-.5,1.8-1,1.9a14,14,0,0,1-3.5.1H198.3Z"/><path class="cls-2" d="M918.3,49.5c-3.2,5.7-6.6,11.3-9.6,17.1q-14.2,27.2-28,54.5a14.4,14.4,0,0,0-1.2,6.2c-0.1,10.8-.1,21.6-0.1,32.8h-31c0-10.4.2-20.8-.1-31.3a26.9,26.9,0,0,0-2.5-10.9c-10.5-21.1-21.3-42.1-32.1-63.1-1.1-2.2-2.1-4.4-3.4-7.2,10.9,0,21.2-.1,31.5.2,1.3,0,3,2.2,3.7,3.7,5.4,12.5,10.5,25.1,15.7,37.7l2.8,6.6,17.2-40.5c3.3-7.7,3.2-7.7,11.7-7.7l25.5-.2v2Z"/><path class="cls-2" d="M441.4,82.9c6.5-11.2,12.3-21.6,18.5-31.8,1-1.6,3.4-3.3,5.2-3.3,41-.2,82-0.1,122.9-0.1l2.4,0.2V74.8H558.7v85.4H527.4v-85H495.1V51l-1.1-.4c-0.8,1-1.7,2-2.5,3.1-10.5,16-21,32-31.6,47.9-1.7,2.6-1.4,4.2.2,6.6,9.8,14.7,19.4,29.5,29,44.3l5.1,7.9c-11.2,0-21.6.1-32-.1-1.2,0-2.6-1.7-3.4-3-5.7-9.8-11.2-19.6-17.1-30a39.8,39.8,0,0,0-2.4,3.3c-5.1,9-10.1,18-15.3,26.9-0.8,1.3-2.6,2.8-4,2.8-10.1.2-20.3,0.1-31.3,0.1,1.2-1.9,1.9-3.3,2.8-4.6,10.2-15.6,20.3-31.3,30.7-46.7,2.3-3.4,1.9-5.6-.2-8.7-10.9-16.2-21.5-32.5-32.2-48.8-0.7-1.1-1.2-2.2-2.2-4,11.1,0,21.5-.1,31.9.2,1.3,0,2.8,2.1,3.6,3.5C429.1,61.5,434.9,71.7,441.4,82.9Z"/><path class="cls-2" d="M793.9,119.3l25.2,41.2H807.8c-6.8,0-13.7.2-20.5-.1a7.9,7.9,0,0,1-5.4-3.1c-5.3-8-10.3-16.3-15.4-24.5s-5.2-7.9-15.3-6.1v33.5H720.2V47.6h32.1c8,0,16.1-.6,23.9.4,16.3,2.2,26.9,12.2,31.7,27.5s1.1,28.6-9.9,40C796.8,116.7,795.6,117.7,793.9,119.3ZM751.3,98a4.8,4.8,0,0,0,1.2.5h16c5.7,0,8.8-3.3,9.6-9.9s-2.2-12.9-7-13.4c-6.5-.6-13.1-0.2-19.8-0.2V98Z"/><path class="cls-2" d="M670.8,47.9h30.6A3.4,3.4,0,0,1,702,49c-0.2,22.8.5,45.7-.9,68.4-1.3,21.1-14.4,37.1-33.1,41.8-21.1,5.3-40.9,3.2-56.1-14.6-7.7-9-11-20-11.3-31.4-0.6-21.1-.3-42.3-0.3-63.5a8.7,8.7,0,0,1,.4-1.7h30.7v5.6c0,17.3-.3,34.7.2,52a58.5,58.5,0,0,0,3.9,18.3c2.3,6.1,7.5,9.5,14.4,9.9s13.6-2.3,16.5-8.9a49.9,49.9,0,0,0,4.4-18.1c0.6-17.6.2-35.3,0.2-53C670.8,51.9,670.8,50.1,670.8,47.9Z"/><path class="cls-2" d="M305.2,47.9h78.5v27H336.4V90.4h40.4v25.1H336.4v17.9h48.7v26.8H305.2V47.9Z"/><path class="cls-2" d="M288.7,59.1L275.6,84.2c-6.8-2.8-13.1-5.8-19.7-7.8a38.6,38.6,0,0,0-13.2-1.5c-2.1.1-5.3,2.4-5.7,4.2s1.8,5.2,3.6,6c5.9,2.6,12.2,4.3,18.3,6.5s9.4,3.4,13.9,5.4c14.3,6.5,19.6,18,18.5,33.2-1,13.2-9,23.9-22.3,28.5-17.2,5.9-34.2,3.6-51-1.7-6.4-2-12.5-4.9-19.2-7.6L212.3,122c7.3,3.2,14.1,6.8,21.3,9,5.6,1.7,11.7,2.2,17.7,2.4,2.1,0.1,4.2-2.3,6.3-3.6-1.3-2.1-2.2-5-4.1-6.1-3.6-2-7.7-2.9-11.6-4.3-6.1-2.2-12.2-4.3-18.3-6.6C195,102,201.6,65.6,219.3,54.5c12-7.5,24.8-9.2,38.4-6.7A102,102,0,0,1,288.7,59.1Z"/><path class="cls-3" d="M90.4,92.1A88.7,88.7,0,0,0,101.2,47C100.5,28.3,87.6,6.1,64.5,2.5a28.5,28.5,0,0,0-4.8-.8,110.6,110.6,0,0,0-13.2.1l-3.4.6C17.2,7.2-1.3,36.6,5.2,62.7h28c-0.5-2.9-1-4.5-1-6.8,0.1-11.1,2.4-14.4,4.9-18.7,6.6-11.6,23-12.8,29.5-1.2a34.4,34.4,0,0,1,3.9,13.2C71.6,60,68.9,70.4,64.1,80q-16.8,34-34,67.8L71.8,127Z"/><path class="cls-3" d="M162.3,1.5h-6c-1.1,1.3-2.1,3-3.5,4L112.3,32.6c-1.4,1-3.8,2.1-3.9,3.3-0.3,8-.2,16.1-0.2,25.7l26-16V95.8l28.2-14.1Q162.4,41.6,162.3,1.5Z"/><path class="cls-4" d="M1.7,204H98.1V178.3H44.4l3.4-6.5,24-44.8L30.1,147.8,14.2,179.4C10.1,187.6,5.9,195.6,1.7,204Z"/><path class="cls-4" d="M162.2,204c0.1-1.8.3-3.2,0.3-4.7q0-56.5,0-112.9,0-2.4,0-4.7L134.3,95.8V204h27.9Z"/></svg>