<?xml version="1.0" encoding="UTF-8"?>
<!-- Generator: Adobe Illustrator 25.1.0, SVG Export Plug-In . SVG Version: 6.00 Build 0)  -->
<svg version="1.1" id="Layer_1" xmlns="http://www.w3.org/2000/svg" xmlns:xlink="http://www.w3.org/1999/xlink" x="0px" y="0px" viewBox="0 0 200 200" style="enable-background:new 0 0 200 200;" xml:space="preserve">
<style type="text/css">
	.st0{fill:#009D34;}
	.st1{fill:#FFE200;}
	.st2{display:none;fill:#FFE200;}
</style>
<g>
	<g id="Layer_6">
		<g>
			<g>
				<path class="st0" d="M41,51.9c1.4,1.9,2.1,4.2,2.1,6.9c0,3.9-1.5,6.8-4.5,8.9c-3,2.1-7.4,3.1-13.1,3.1H2.8V26.8h21.5      c5.4,0,9.5,1,12.4,3.1c2.9,2.1,4.3,4.9,4.3,8.4c0,2.1-0.5,4.1-1.5,5.7c-1,1.7-2.5,3-4.3,4C37.6,48.8,39.6,50.1,41,51.9z       M12.9,34.5v10.4H23c2.5,0,4.4-0.4,5.7-1.3c1.3-0.9,2-2.2,2-3.9c0-1.7-0.7-3-2-3.9c-1.3-0.9-3.2-1.3-5.7-1.3      C23,34.5,12.9,34.5,12.9,34.5z M30.9,61.9c1.4-0.9,2-2.2,2-4.1c0-3.7-2.7-5.5-8.1-5.5H12.9v10.9h11.9      C27.5,63.2,29.5,62.7,30.9,61.9z"/>
				<path class="st0" d="M70.8,70.9l-8.5-12.3h-0.5h-8.9v12.3H42.7V26.8h19.1c3.9,0,7.3,0.7,10.2,2c2.9,1.3,5.1,3.1,6.6,5.5      c1.6,2.4,2.3,5.2,2.3,8.5c0,3.3-0.8,6.1-2.4,8.5c-1.6,2.4-3.8,4.2-6.7,5.4l9.9,14.2H70.8z M68.2,37.1c-1.6-1.3-3.9-2-7-2h-8.3      v15.4h8.3c3.1,0,5.4-0.7,7-2c1.6-1.4,2.4-3.2,2.4-5.7C70.6,40.3,69.8,38.4,68.2,37.1z"/>
				<path class="st0" d="M107.5,61.4H87l-3.9,9.4H72.6l19.7-44.1h10.1l19.7,44.1h-10.7L107.5,61.4z M104.2,53.7l-7-16.9l-7,16.9      H104.2z"/>
				<path class="st0" d="M124.4,70.2c-3.3-0.9-5.9-2.2-7.8-3.7l3.5-7.7c1.9,1.4,4.1,2.5,6.7,3.3s5.2,1.3,7.8,1.3      c2.9,0,5-0.4,6.4-1.3c1.4-0.9,2.1-2,2.1-3.4c0-1-0.4-1.9-1.2-2.6c-0.8-0.7-1.9-1.2-3.1-1.7s-3-0.9-5.2-1.4      c-3.4-0.8-6.1-1.6-8.3-2.4c-2.1-0.8-4-2.1-5.5-3.8c-1.5-1.8-2.3-4.1-2.3-7.1c0-2.6,0.7-4.9,2.1-7c1.4-2.1,3.5-3.7,6.3-5      s6.2-1.8,10.2-1.8c2.8,0,5.6,0.3,8.3,1c2.7,0.7,5,1.6,7.1,2.9l-3.1,7.7c-4.1-2.3-8.1-3.5-12.2-3.5c-2.8,0-5,0.5-6.3,1.4      c-1.4,0.9-2,2.1-2,3.7s0.8,2.6,2.4,3.4c1.6,0.7,4,1.5,7.2,2.2c3.4,0.8,6.1,1.6,8.3,2.4c2.1,0.8,4,2.1,5.5,3.8      c1.5,1.7,2.3,4.1,2.3,7c0,2.5-0.7,4.8-2.1,6.9c-1.4,2.1-3.5,3.7-6.3,5s-6.2,1.8-10.3,1.8C131.1,71.6,127.7,71.2,124.4,70.2z"/>
				<path class="st0" d="M154.9,26.8h10.2v44.1h-10.2V26.8z"/>
				<path class="st0" d="M167.7,26.8h10.2v35.8H200v8.3h-32.3V26.8z"/>
			</g>
		</g>
	</g>
	<g id="Layer_11">
		<g>
			<path class="st1" d="M187.2,138.1c-1.2-11.8-4.1-32.8-5.8-39c-0.3-1-0.6-2-1-2.9c-2.3-5.6-6.6-9.1-14.4-11.1     c-8.7-2.2-20.7-6.8-64.6-6.8s-56,4.6-64.6,6.8c-7.8,2-12,5.5-14.4,11.1c-0.4,0.9-0.7,1.9-1,2.9c-1.8,6.2-4.7,27.2-5.8,39     l-0.5,5.4c-0.5,8.9,1.5,12.7,7.4,16.5c3.9,2.5,7.4,4.8,13.7,7.6c6.3,2.9,14,6.3,22.4,6.3c5.3,0,22.6-3.4,29-4.5     c4.1-0.7,9.7-1.1,13.7-1.1c3.9,0,9.5,0.4,13.7,1.1c6.4,1,23.7,4.5,29,4.5c8.4,0,16.1-3.4,22.4-6.3c6.3-2.9,9.8-5.2,13.7-7.6     c5.9-3.8,7.9-7.6,7.5-16.5C187.6,142.2,187.4,140.3,187.2,138.1z M142.1,157.2L129.5,139h-13.9v18.2h-14.4     c-2.6-4.5-1.1-10.5-1.1-10.5c1.3-6.1,12.5-13.4,18-19.8c4.3-5,7.7-10.4,8.9-12.5c4.4,4.6,6,15.6,6.2,17.9c0,0,0.1,0.1,0.1,0     c3.4-3.2,2.3-7.4,2-8.4c0-0.1,0.1-0.1,0.1-0.1l1,0.9c0,0,0.1,0,0.1,0c0.1-3.3-1.3-5.8-3.1-7.5c0.4,0.3,0.8,0.5,1.2,0.8     c4.4,3.2,6.6,9.4,6.9,10.2c0,0,0.1,0.1,0.1,0c5-6.7-1.6-11.2-2.8-12c-0.1,0,0-0.1,0-0.1l2.1,0.1c0.1,0,0.1-0.1,0-0.1     c-3.4-3.3-7.5-3.7-10.7-3.4c-0.1,0-0.1-0.1,0-0.1c6.6-1.8,12.1,0.2,12.9,0.5c0,0,0.1,0,0.1-0.1c-0.9-5.7-6.9-5.6-8.2-5.5     c-0.1,0-0.1-0.1,0-0.1l1.2-0.8c0,0,0-0.1,0-0.1c-3.9-0.7-6.8,2.1-8.5,4.6c0,0.1-0.1,0-0.1-0.1c2.9-7.5-2.5-11-2.1-10.3     c0.4,0.6,0.3,1.4,0.3,1.7c0,0.1-0.1,0.1-0.1,0c-0.5-1-1.2-1.9-2.1-2.6c-3.5-2.6-6.4-0.7-6.9-0.4c0,0,0,0.1,0,0.1     c6.7,3.7,8.6,8.9,9.1,12c-0.1,0-0.1,0-0.2,0c-0.4-1.3-1.4-3-3.2-4.9c-3.7-3.7-10.3-3.1-8.5-2.8c1.7,0.3,2.6,1.4,2.7,1.5     c-0.2-0.2-2.7-2.2-7.7-0.9c-2.3,0.6-3.7,2.2-4.7,3.9c0,0,0,0.1,0.1,0.1c1.8-0.5,4.9-0.6,9.9-0.1c1.4,0.1,2.6,0.4,3.6,0.7     c0.1,0,0.1,0.1,0,0.1c-5.2-0.2-9.1,3-7.9,2.8c0.8-0.2,1.7-0.2,2.3-0.2c0.1,0,0.1,0.1,0,0.1c-1,0.2-2.4,0.9-4,2.6     c-3,3.2-1.1,7.3-0.7,8c0,0,0.1,0,0.1,0c0.2-0.5,1.3-2.8,6.4-6.7c4.1-3.1,8.7-3.1,11-2.8h0c0,0,0.2,0,0.3,0.1     c-10.3,14.7-22.3,20.5-24.9,22c-11.4,6.9-13.1,19.6-13.4,21.9h-0.2H72.6L44.4,91.9h16.3l19.8,46.6l19.9-46.1l0.2-0.4l0,0h15l0,0     h17.5c0.1,0,0.3,0,0.4,0c0.1,0,0.3,0,0.4,0c12.8,0.2,23.1,10.6,23.1,23.5c0,9.2-5.3,17.2-13.1,21l1.7,2.5l12.6,18.2L142.1,157.2     L142.1,157.2z"/>
			<path class="st1" d="M193.9,96.3h-7c0.2,0.4,0.2,0.8,0.4,1.3c1.9,6.7,4.9,28.5,6.1,40.6h0.5c3.4,0,6.2-2.7,6.2-6v-30     C200,99,197.3,96.3,193.9,96.3z"/>
			<path class="st1" d="M15.9,96.3h-7c-3.3,0-6.2,2.7-6.2,6v30c0,3.3,2.7,6,6.2,6h0.5c1.2-12,4.1-33.9,6.1-40.6     C15.6,97.1,15.7,96.7,15.9,96.3z"/>
		</g>
		<path class="st2" d="M142.1,157.2L129.5,139h-13.9v18.2h-14.4c-2.6-4.5-1.1-10.5-1.1-10.5c1.3-6.1,12.5-13.4,18-19.8    c4.3-5,7.7-10.4,8.9-12.5c4.4,4.6,6,15.6,6.2,17.9c0,0,0.1,0.1,0.1,0c3.4-3.2,2.3-7.4,2-8.4c0-0.1,0.1-0.1,0.1-0.1l1,0.9    c0,0,0.1,0,0.1,0c0.1-3.3-1.3-5.8-3.1-7.5c0.4,0.3,0.8,0.5,1.2,0.8c4.4,3.2,6.6,9.4,6.9,10.2c0,0,0.1,0.1,0.1,0    c5-6.7-1.6-11.2-2.8-12c-0.1,0,0-0.1,0-0.1l2.1,0.1c0.1,0,0.1-0.1,0-0.1c-3.4-3.3-7.5-3.7-10.7-3.4c-0.1,0-0.1-0.1,0-0.1    c6.6-1.8,12.1,0.2,12.9,0.5c0,0,0.1,0,0.1-0.1c-0.9-5.7-6.9-5.6-8.2-5.5c-0.1,0-0.1-0.1,0-0.1l1.2-0.8c0,0,0-0.1,0-0.1    c-3.9-0.7-6.8,2.1-8.5,4.6c0,0.1-0.1,0-0.1-0.1c2.9-7.5-2.5-11-2.1-10.3c0.4,0.6,0.3,1.4,0.3,1.7c0,0.1-0.1,0.1-0.1,0    c-0.5-1-1.2-1.9-2.1-2.6c-3.5-2.6-6.4-0.7-6.9-0.4c0,0,0,0.1,0,0.1c6.7,3.7,8.6,8.9,9.1,12c-0.1,0-0.1,0-0.2,0    c-0.4-1.3-1.4-3-3.2-4.9c-3.7-3.7-10.3-3.1-8.5-2.8c1.7,0.3,2.6,1.4,2.7,1.5c-0.2-0.2-2.7-2.2-7.7-0.9c-2.3,0.6-3.7,2.2-4.7,3.9    c0,0,0,0.1,0.1,0.1c1.8-0.5,4.9-0.6,9.9-0.1c1.4,0.1,2.6,0.4,3.6,0.7c0.1,0,0.1,0.1,0,0.1c-5.2-0.2-9.1,3-7.9,2.8    c0.8-0.2,1.7-0.2,2.3-0.2c0.1,0,0.1,0.1,0,0.1c-1,0.2-2.4,0.9-4,2.6c-3,3.2-1.1,7.3-0.7,8c0,0,0.1,0,0.1,0    c0.2-0.5,1.3-2.8,6.4-6.7c4.1-3.1,8.7-3.1,11-2.8h0c0,0,0.2,0,0.3,0.1c-10.3,14.7-22.3,20.5-24.9,22    c-11.4,6.9-13.1,19.6-13.4,21.9h-0.2H72.6L44.4,91.9h16.3l19.8,46.6l19.9-46.1l0.2-0.4l0,0h15l0,0h17.5c0.1,0,0.3,0,0.4,0    c0.1,0,0.3,0,0.4,0c12.8,0.2,23.1,10.6,23.1,23.5c0,9.2-5.3,17.2-13.1,21l1.7,2.5l12.6,18.2L142.1,157.2L142.1,157.2z"/>
	</g>
</g>
</svg>