<?xml version="1.0" encoding="utf-8"?>
<!-- Generator: Adobe Illustrator 22.1.0, SVG Export Plug-In . SVG Version: 6.00 Build 0)  -->
<svg version="1.1" id="Vrstva_1" xmlns="http://www.w3.org/2000/svg" xmlns:xlink="http://www.w3.org/1999/xlink" x="0px" y="0px"
	 viewBox="0 0 1267 100.8" style="enable-background:new 0 0 1267 100.8;" xml:space="preserve">
<style type="text/css">
	.st0{fill:#FFFFFF;}
	.st1{fill:#E69866;}
</style>
<title>site-logo-watermark</title>
<g>
	<path class="st0" d="M51,83.9c11.6,0,19.9-3.5,26.1-7.6l8.3,11.4c-8,6.9-18.8,10.7-34.3,10.7c-31.6,0-49-20.3-49-48.1
		c0-27.8,17.4-48,49-48C66.5,2.3,77.3,6,85.4,13l-8.3,11.5C71,20.3,62.6,16.8,51,16.8c-21.3,0-31.4,14.2-31.4,33.5
		C19.6,69.6,29.7,83.9,51,83.9z"/>
	<path class="st0" d="M171.4,81.9v14.5H97v-8.6l50-69.1H99.7V4.2h71.7v8.6l-50,69.1H171.4z"/>
	<path class="st0" d="M253.2,42.2v14.5h-45.9v25.2H256v14.5h-66.1V4.2h65.4v14.5h-48v23.4H253.2z"/>
	<path class="st0" d="M314.8,83.9c11.6,0,19.9-3.5,26.1-7.6l8.3,11.4c-8,6.9-18.8,10.7-34.3,10.7c-31.6,0-49-20.3-49-48.1
		c0-27.8,17.4-48,49-48c15.5,0,26.3,3.7,34.3,10.7l-8.3,11.5c-6.1-4.1-14.5-7.6-26.1-7.6c-21.3,0-31.4,14.2-31.4,33.5
		C283.4,69.6,293.5,83.9,314.8,83.9z"/>
	<path class="st0" d="M426.5,4.2h17.4v92.2h-17.4V56.7h-43.9v39.8h-17.4V4.2h17.4v38h43.9V4.2z"/>
	<path class="st1" d="M523.2,4.2h27.2v92.2h-27.2V60.8h-34.2v35.6h-27.2V4.2h27.2v34h34.2V4.2z"/>
	<path class="st1" d="M586.2,96.5h-28.7l37.8-92.2h27.5l37.8,92.2h-28.7L626,81.5h-34.1L586.2,96.5z M600,60.8h18l-9-23.2L600,60.8z
		"/>
	<path class="st1" d="M667.6,96.5V4.2h40.7c23.9,0,41.7,8.9,41.7,32.9c0,15.1-10.8,22.7-17.9,25.5l18.8,33.9h-29.3L705.8,68h-10.9
		v28.5H667.6z M694.8,26.9v20.3h13.5c9.8,0,14.2-3,14.2-10.2c0-7.1-4.4-10.2-14.2-10.2H694.8z"/>
	<path class="st1" d="M831.4,38.8v22.1h-43v13h46.8v22.6h-74V4.2h73.3v22.6h-46.1v11.9H831.4z"/>
	<path class="st1" d="M874,46.5v50h-27.2V4.2h36.4l20.2,52.2l20.3-52.2H960v92.2h-27.2v-50l-19.4,50h-19.9L874,46.5z"/>
	<path class="st0" d="M983,78c5.3,0,9.6,4.3,9.6,9.6c0,5.3-4.3,9.5-9.6,9.5c-5.3,0-9.5-4.2-9.5-9.5C973.5,82.3,977.8,78,983,78z"/>
	<path class="st0" d="M1038.4,84.3c6.9,0,13.2-1.9,18.9-6.4l8.2,10.4c-7.2,7.1-16.5,9.5-27.1,9.5c-22.4,0-36.7-14.7-36.7-34.2
		s14.3-34.2,36.7-34.2c10.6,0,19.9,2.3,27.1,9.5l-8.4,10.2c-5.7-4.5-11.8-6.2-18.8-6.2c-14.1,0-20.1,9.9-20.1,20.7
		S1024.3,84.3,1038.4,84.3z"/>
	<path class="st0" d="M1110.5,97.8c-22.4,0-36.7-14.7-36.7-34.2s14.3-34.2,36.7-34.2c22.3,0,36.7,14.6,36.7,34.2
		C1147.2,83.2,1132.8,97.8,1110.5,97.8z M1110.5,42.9c-14.1,0-20.1,9.9-20.1,20.7s6,20.7,20.1,20.7s20.1-9.9,20.1-20.7
		S1124.6,42.9,1110.5,42.9z"/>
	<path class="st0" d="M1161.4,30.7h16.1v6c2.2-3.9,8.7-7.3,15.2-7.3c10.4,0,17.6,3.6,21.5,9.1c3.5-4.7,11.3-9.1,20.2-9.1
		c15.8,0,26.5,8.4,26.5,28.7v38.3h-16.1V58.1c0-9.1-3.9-15.2-12.8-15.2c-8.9,0-12.8,6.2-12.8,15.2v38.3h-16.1V58.1
		c0-9.1-3.9-15.2-12.8-15.2c-8.9,0-12.8,6.2-12.8,15.2v38.3h-16.1V30.7z"/>
</g>
</svg>
