<svg id="Layer_1" data-name="Layer 1" xmlns="http://www.w3.org/2000/svg" viewBox="0 0 1655.5 479.67"><defs><style>.cls-1{fill:#7e8fbb;}.cls-2{fill:#fff;}</style></defs><title>UnrelatedX_Logo_W</title><path class="cls-1" d="M1772.55,308.56,1710.22,493,1777,671.38h-53.42l-43-110.94L1647.9,671.38h-60.85L1649.38,475l-62.33-166.42H1639l43,107.94,31.16-107.94h59.36m33.44-24H1695.14l-5,17.34-11.74,40.67-17.1-42.9-6-15.11H1552.44L1564.58,317,1624,475.63l-59.81,188.49-9.92,31.26h111.59l5.07-17.22,12.74-43.31,17.54,45.21,5.94,15.32h104.47L1799.48,663l-63.79-170.41,59.59-176.32L1806,284.56Zm-33.44,48Z" transform="translate(-156.11 -284.56)"/><path class="cls-2" d="M1160.84,670.44h0c.41-5.3-6-3.06-7.67-6.25C1154.89,667.37,1161.26,665.14,1160.84,670.44Z" transform="translate(-156.11 -284.56)"/><path class="cls-2" d="M1414,657.08h-1.63A4.07,4.07,0,0,0,1414,657.08Z" transform="translate(-156.11 -284.56)"/><path class="cls-2" d="M1399.55,659.87c2.46,1.09,5.16.06,8,.37-.33-2.12-2.81-1.31-3.34-3.16h-3.93C1399.62,657.77,1398.86,658.45,1399.55,659.87Z" transform="translate(-156.11 -284.56)"/><path class="cls-2" d="M1155.66,670.56a8.9,8.9,0,0,0,5.18-.12h0A9,9,0,0,1,1155.66,670.56Z" transform="translate(-156.11 -284.56)"/><path class="cls-2" d="M766.31,727.08l0,0Z" transform="translate(-156.11 -284.56)"/><path class="cls-2" d="M1068.26,660.91c1.36-2.28,2.76-3.42,4.15-3.83h-7.19c-2,6.08,4,4,5.82,6s3.77.47,5.23-1.24h0l.1-.2C1073.87,661.54,1072.06,659,1068.26,660.91Z" transform="translate(-156.11 -284.56)"/><path class="cls-2" d="M1159.12,657.08a3.85,3.85,0,0,0,4,1.65c3.35-.42,5.69,1.28,8.27,3.1,2.2-.52,2.83-4.24,5.89-3.22a3.79,3.79,0,0,0,.4-1.53Z" transform="translate(-156.11 -284.56)"/><path class="cls-2" d="M1266.24,661.56a6.14,6.14,0,0,0,.21-4.48h0A6,6,0,0,1,1266.24,661.56Z" transform="translate(-156.11 -284.56)"/><path class="cls-2" d="M1293.26,659.32c-.91,1.69-3.71-.18-4.22,2.25-.2.64,0,1.11.62,1.08,1,0,2.24.13,2.9-.39,2.06-1.67,4-3.5,6.14-5.18h-7.44A7.66,7.66,0,0,0,1293.26,659.32Z" transform="translate(-156.11 -284.56)"/><path class="cls-2" d="M1322.67,658.76l-.23-.2.19,0a6.86,6.86,0,0,0-.39-1.43h-10.42a20,20,0,0,1,1.65,3.76c3-1.71,5.86-2.67,8.94-2.12,0-.05,0-.1,0-.16Z" transform="translate(-156.11 -284.56)"/><path class="cls-2" d="M1448,657.32a3.58,3.58,0,0,0,.8-.24h-2.37A2.16,2.16,0,0,0,1448,657.32Z" transform="translate(-156.11 -284.56)"/><path class="cls-2" d="M1417.4,660.92a12.43,12.43,0,0,0,2.11-.06c-.43-3.27,2.44-3.07,4.38-3.78h-8.27C1416.64,658.57,1415,660.61,1417.4,660.92Z" transform="translate(-156.11 -284.56)"/><path class="cls-2" d="M1168.68,674.08c-3-.05-5.35-1.87-7.76-3.5v0C1163.34,672.21,1165.67,674,1168.68,674.08Z" transform="translate(-156.11 -284.56)"/><path class="cls-2" d="M1167.3,669.92l2.6,3.9h0Z" transform="translate(-156.11 -284.56)"/><path class="cls-2" d="M1438.69,658.49q-.21-.78-.33-1.41h-3.58a26.71,26.71,0,0,0,3.79,1.51l0-.06Z" transform="translate(-156.11 -284.56)"/><path class="cls-2" d="M894,707.34a1,1,0,0,1-.17-.64A1,1,0,0,0,894,707.34Z" transform="translate(-156.11 -284.56)"/><path class="cls-2" d="M749.07,762.26c1-2.39-2.43-2.21-3.52-3.38v0C746.64,760.05,750.11,759.87,749.07,762.26Z" transform="translate(-156.11 -284.56)"/><path class="cls-2" d="M741.17,764.23c2.23-.24,2.94-1.9,3.34-3.74h0C744.1,762.35,743.39,764,741.17,764.23Z" transform="translate(-156.11 -284.56)"/><path class="cls-2" d="M1527.09,407c0,.91.06,1.81.08,2.73.35-.3.71-.59,1.07-.88Z" transform="translate(-156.11 -284.56)"/><path class="cls-2" d="M893.88,706.32a3.93,3.93,0,0,1,.42-.9A3.93,3.93,0,0,0,893.88,706.32Z" transform="translate(-156.11 -284.56)"/><path class="cls-2" d="M1457.72,657.08a3.64,3.64,0,0,0,3.74,2.27,4.59,4.59,0,0,0,2-2.3c-.53,0-1.05,0-1.59,0Z" transform="translate(-156.11 -284.56)"/><path class="cls-2" d="M894,707.34c.42.66,1.63,1.12,3.71,1.71h0C895.62,708.46,894.41,708,894,707.34Z" transform="translate(-156.11 -284.56)"/><path class="cls-2" d="M894.65,704.88c.26-.37.59-.79,1-1.27C895.24,704.09,894.91,704.51,894.65,704.88Z" transform="translate(-156.11 -284.56)"/><path class="cls-2" d="M914.87,713.32l-.16.2.16-.2a8.59,8.59,0,0,1,6.27.13A8.59,8.59,0,0,0,914.87,713.32Z" transform="translate(-156.11 -284.56)"/><path class="cls-2" d="M1322.63,658.51c0,.08,0,.16,0,.25l-.26,0c-.35,1.36-2.71,1.32-2.44,3.6,3.67-.27,5.63-2.87,7.82-5.24h-2.91A3.28,3.28,0,0,1,1322.63,658.51Z" transform="translate(-156.11 -284.56)"/><path class="cls-2" d="M290.36,329.93H244V572.18c0,6.74-.16,12.62-.46,17.68a2.21,2.21,0,0,1-.12,1.94c-.11,1.56-.24,3.05-.38,4.44a33.28,33.28,0,0,1-5.27,15.7q-4.34,6.31-14.36,6.31t-13.24-4.55a50.35,50.35,0,0,1-5.45-10.12q-2.25-5.58-2.25-31.4V329.93H156.11V446.1a3.59,3.59,0,0,1,2.52.73c2.1,1.51,1.86,3.89.36,6.7a7.91,7.91,0,0,1-2.88-1.1V573.11q0,45,16,66.32,15.13,20.22,47.49,21.29a2.81,2.81,0,0,1,.92-.12,3.09,3.09,0,0,1,.51.15c.77,0,1.52,0,2.29,0q35.2,0,51.13-21.27t15.91-66.41ZM160.13,510.09c-1.78.68-2.74-.24-3-2,1.33-1.29,2.67-1.15,3.74.23A2,2,0,0,1,160.13,510.09Zm8.16,24.21c-2.47.82-3.41-1-4.09-3.52,2.08-1.06,3.68-1,5.28,0A2.25,2.25,0,0,1,168.29,534.3ZM185.2,425.77c4.85,2.34,4.85,2.34,1.52,7.75C182.88,431.54,182.52,429,185.2,425.77ZM187,622.51c2.17-.08,4.39-.73,5.59,1.92C189.89,626,188.57,623.29,187,622.51Zm12.18-193c-1.89.25-3.51-.16-4.11-2.32.19-1.87.91-3.52,2.9-3.87,2.24-.4,4.14.54,4.47,2.91C202.69,428.36,201,429.28,199.13,429.52Zm33.66,208.26c2.6-1.54,3.33,1.33,5.39,1.75C235.67,640.28,234.1,639.6,232.79,637.78Zm28.87-21a4.38,4.38,0,0,1,.54-5.58c3.42-.31,4.82,1.5,5,4.65C265.55,617.93,263.62,617.27,261.66,616.77ZM277,540.93c-.17-2.37-2.53-4.38-.43-6.5s3.38.38,4.86,1.2C281.47,538.54,280.13,540,277,540.93ZM279,451.14c3.59-1.49,3.59-1.49,4.82,1.93C281.92,453.23,281,451.71,279,451.14Zm6.34-53.1c-.89.19-1.32-.4-1.58-1.28a1.48,1.48,0,0,1,.89-1.68c1.15-.37,1.89.39,2,1.45A1.49,1.49,0,0,1,285.31,398Z" transform="translate(-156.11 -284.56)"/><path class="cls-2" d="M377,618.6h0c-.75-.16-1.39-.7-1.11-1.6a1.56,1.56,0,0,1,1.12-1.06v-3.13c-1.93-.24-2.56-1.67-2.94-3.06.52-2,1.45-3,2.94-3.21V539.85L374.45,454l66.26,203.05h6.55a8.88,8.88,0,0,0,2.74-4.24,9.39,9.39,0,0,1,1.34,4.24H462.5a11.65,11.65,0,0,0-1.67-1.82c1.26.86,2.95,1.19,4.48,1.82h8.27V580.69a3.08,3.08,0,0,1-2.2-2.43,2.92,2.92,0,0,1,1.23-3.28,3.14,3.14,0,0,1,1-.45V330.11H431.89v107l3.28,89.17L370.64,330.11H334.31v327H377ZM469,614.43a1.76,1.76,0,0,1,2.36,1c.36.9.15,1.92-1.23,1.91-1,0-1.86-.29-2.1-1.1C467.62,615,468.32,614.68,469,614.43Zm-29.08,3.43c2,3,4.72,5.62,1.2,8.85-2.52,2.31-4.75,1.63-9.75-2.65C432.51,620.12,435.78,619,439.89,617.86ZM400.07,440.65c2.21-.07,3.73.87,4.19,3.61-2.93.72-3.92-1.34-5.48-2A1.32,1.32,0,0,1,400.07,440.65Zm-21.88-74.87a2,2,0,0,1,1.9,2,2.14,2.14,0,0,1-2.15,2.55,2.63,2.63,0,0,1-2.4-2.54A2.32,2.32,0,0,1,378.19,365.78Zm-18.69,5.81c-1.23,1.62-2.37.85-3.7,0C357.7,370.18,357.7,370.18,359.5,371.59Zm-7.1,93.64c1.21.2,1.58,1.11,1.65,2.13s-.49,2-1.69,1.91a2,2,0,0,1,0-4ZM334.65,650.3c3.1-2.21,5.06.59,7.21,1.61C339.33,652.1,336.75,652.79,334.65,650.3Zm1.09-234.45c2.5-.85,4.6-.94,7,1.69C338.31,420.52,338.31,420.52,335.74,415.85ZM350,483c5.95-3.36,8.7,2.28,14,3.73C356.77,491.75,355.08,481.83,350,483Zm4.28,51.5c.26-2.28,2.08-3.18,4.57-2.39,1.59,2.7,1,5.06-1.19,7.19C354.45,539.12,354,536.67,354.28,534.54Zm9.68,29c-.28,1.84-1.83,2.06-3.39,1.75a1.84,1.84,0,0,1-1.5-2.21,2.51,2.51,0,0,1,2.68-1.89C363.11,561.37,364.17,562.22,364,563.58Zm7.37-157.05c-.54.85-1.22,1.7-2.37,1.1a1.75,1.75,0,0,1-1-2.44,1.68,1.68,0,0,1,2.42-1C371.08,404.79,372.1,405.32,371.33,406.53Z" transform="translate(-156.11 -284.56)"/><path class="cls-2" d="M564.93,644.57l0,0Z" transform="translate(-156.11 -284.56)"/><path class="cls-2" d="M521.92,404.3a2.08,2.08,0,0,1-2.3,2.23c-.13,0-.25,0-.36,0V558.64c.09-.21.18-.43.28-.65,2.54,1,5.57.87,5.27,4-.2,2.17-2.35,2.55-4.2,2a4.62,4.62,0,0,1-1.35-.61v93.67H531.6A12.56,12.56,0,0,1,527,653c1.48-1.72,4.27.33,5.36-2.07-.56-3.08-4-2.61-5.57-4.64l1.59-4.59-.16,0,.21-.21-.22.22a1.46,1.46,0,0,0-.07-.19c-2,.45-4.06.74-5.71-.74-.41-2.95,1.94-2.55,2.82-3.52,2.18,1,2.34,2.74,2.89,4.26l.33-.07-.09.28c6.58,1.1,10.23,3.91,12.61,10.08.79,2.05,3-.55,3.56,1.41.6,3-3,1.09-3.41,2.93a1.06,1.06,0,0,0,.75.93H564c-.45-1.58,1.11-2.6,1.11-4.28l.47.08v-7.74a4.66,4.66,0,0,1-.6-.48l-.29.13h0v-.15a4.79,4.79,0,0,1-4.21,0c.35-2.18,2.09-2.85,4-3.75.07,1.41.14,2.61.2,3.79l.22-.07.09.09.6-.21V620.24c-1,.25-2,0-2.26-1.11-.4-1.82.92-2.56,2.26-3.19V502.7l14.88.74q14.7.38,19.55,7.53t4.85,28.88q0,113.52,1.73,117.23h41.5c-2.58-.45-4.14.26-5.08-1.36,2-.88,2.08-.89,5.42,1.36H653q-1.72-4.65-1.73-67.53T645,506.79q-6.24-19.87-22-22.85a33.76,33.76,0,0,0,21.8-21q5.88-15.6,5.88-45.42T647,369.22q-3.72-18.48-15.48-28.8T595.9,330.11H519.26v72.31a.5.5,0,0,1,.13,0A2.12,2.12,0,0,1,521.92,404.3ZM643,642.23c1.48-.43,1.91,1.32,3.13,1.48C644.48,644.35,642.33,646.2,643,642.23Zm3.8-76.38c0,1.93-1.77,1.78-3,.47-.48-.51-.93-1.05-1.82-2.06C644.44,564.27,646.82,563.35,646.76,565.85Zm-16.67,89.5a24.76,24.76,0,0,0-.83-9.26c2.38,2,5.34,3.62,5.34,7C634.6,654.7,632.84,655.32,630.09,655.35Zm1.06-44.66c.8,2.38,1.32,3.9,2.21,6.55C630.54,615.36,627.84,614.8,631.15,610.69Zm-4,24.8c2.65,1.58,4.08,2.33,2.75,4.06A2,2,0,0,1,628,640C625.72,639,627.61,637.78,627.1,635.49Zm-6.78,14.27c-1.05,1.46-2.37,1.28-4.26.57C617.55,647.92,618.81,647.49,620.32,649.76ZM613.63,505c.82,0,1.37.48,1.47,1.7-.24.31-.57,1.19-1.09,1.34-1.21.33-1.82-.59-1.83-1.67A1.38,1.38,0,0,1,613.63,505Zm4.28,66.24c-2.91,4.59-5,.78-7.13.66Zm-17.17-194.7q4.15,8.18,4.16,34.74v2q0,21.38-1.65,31.77a2.56,2.56,0,0,1,0,.27,1.74,1.74,0,0,1,1.52-.07c1.91.79,1.28,2.21.95,3.55-1.39,0-2.44-.29-2.9-1.13q-1.72,8.34-5.4,12.06-4.25,4.27-13.06,4.27H565.8V368.38h15.74Q596.6,368.38,600.74,376.56Zm-36-19.1c.1-.72.47-1.37,1.42-1.3s1.95.21,2.17,1.35c.28,1.42-.94,1.6-1.81,1.64S564.59,358.77,564.78,357.46Zm-2.59,7.18c.16-1.1,1.1-1.51,2.12-1.55,1.06.41,1.91,1.05,1.4,2.21a2.38,2.38,0,0,1-1.71,1.05C562.94,366.44,562,365.87,562.19,364.64ZM544.12,617.17c2.26-3.38,3.91-2.58,5.76-2.08C549.47,619.85,547,617.06,544.12,617.17Zm8.29,22.53c.32-1.88,1.34-2.84,3.46-3.42C556,639,555.35,640.24,552.41,639.7Zm3.2-8.81c-2.33-2-2.18-3.81-.51-5.45a1.66,1.66,0,0,1,2.62.41C558.91,628,558.4,629.7,555.61,630.89Zm2.17-113.41c-2.65.77-4.51.65-5.08-2a2.08,2.08,0,0,1,1.1-1.7C556.53,513,557.32,514.77,557.78,517.48Zm-5.33-63.63a2.15,2.15,0,0,1,2.42,2.11c.14.87-.59,1.36-1.33,1.41-1.45.12-2.16-.78-2.36-2.12C551,454.29,551.72,454,552.45,453.85Zm-1.07,71c2.74.64,3.37,2.34,2.15,5-2.56.18-4.35-.42-4.14-3.38A1.65,1.65,0,0,1,551.38,524.87Zm-2.53,58.66c-1,2.19-2.79,1.58-4.52,1.07.43-1.93,1.32-3.34,3.55-2.84A1.37,1.37,0,0,1,548.85,583.53Zm-2.66-171.69a1.26,1.26,0,0,1-1.22-1.51c.34-2.35,1.62-2.81,3.61-1.61C548.33,410.22,548.25,411.85,546.19,411.84ZM545.26,387c1-.06,1.92.2,2.16,1.35a1.7,1.7,0,0,1-1.18,2.25,2.13,2.13,0,0,1-2.69-1.72C543.35,387.93,544.15,387.14,545.26,387ZM524.15,614.28a2.29,2.29,0,0,1-2.23-2.4,2,2,0,0,1,2.2-2.27,2.37,2.37,0,0,1,2.37,2.32C526.5,613.27,525.5,614.06,524.15,614.28Zm7.29-184.09c.14-1.1,1.14-1.42,2-1.67a2,2,0,0,1,1.7,2.15c-.07,1.23-1.06,1.57-2.08,1.49A1.65,1.65,0,0,1,531.44,430.19Zm.2,190.64c-.15,2.46-.89,3.86-3.14,4.1-2.25-1.34-2-3.13-.94-5C529.42,619.1,530.33,620.68,531.64,620.83ZM527.36,509.9c-1.86,3-3.49,1.27-5.37-.27C524.46,506.85,525.83,508.26,527.36,509.9Zm-4.59-42.21a1.41,1.41,0,0,1-1.38,1.38c-1,0-2-.54-1.57-1.75a2.24,2.24,0,0,1,1.65-1C522.26,466.2,522.71,466.86,522.77,467.69Z" transform="translate(-156.11 -284.56)"/><path class="cls-2" d="M698.08,355.59a11,11,0,0,1-.69,6.27,10.27,10.27,0,0,1-3.39.49v94a4.22,4.22,0,0,1,3.72,1.56c1.71,1.71,1.33,3.76-.72,5.12a3.81,3.81,0,0,1-3,.82v69.95a2.61,2.61,0,0,1,.53-.11c1,.07,2.06.09,2,1.45-.07,1-.65,1.93-1.81,1.75a1.84,1.84,0,0,1-.67-.29V657.08h49.6a6,6,0,0,1,3.25-6.21c1,2.41,1.74,4.68.34,6.21h45.62c1.73-2.06,3.3-2,5.34-1.4v-26.5c-3.29-.07-4.78-1.21-3.93-4.85,1.87.45,2.87,1.62,3.93,3.1V614.17h-53a10.46,10.46,0,0,1-.67,4l-9.3-1.73a25.41,25.41,0,0,0,5.15-2.94V543.75c-1.21,2.5-2.42,4.11-5.1,2.67a1.85,1.85,0,0,1-.69-2.62c1.71-2.4,3.56-1.58,5.79-.18v-17.9c-2.29.69-4-.87-6.84-2.21,3-.59,5-.68,6.84.08V510.13h52.95v-42H740.36v-52a1.6,1.6,0,0,1-.46-1.18,2.42,2.42,0,0,1,.46-1.37V410a6.24,6.24,0,0,1-3.19.78c-2.27,0-4.09-.63-4-3.23.12-3,2.52-3.68,4.77-3.35a4.69,4.69,0,0,1,2.4,1.08V373h55.71V330.11h-7.8a7.21,7.21,0,0,1-2.55,1.16,3.84,3.84,0,0,1-4.12-1.16H694V356A10.22,10.22,0,0,1,698.08,355.59Zm55.84,293.05c.69,3.37.54,6.24,3.24,7.82C751.38,654.8,751.38,654.8,753.92,648.64Zm18.61,3.43c-2-.91-2-2.36-1.13-4.07a3.35,3.35,0,0,1,3.32.54C774.56,650.12,774.2,651.42,772.53,652.07Zm15.93-11.37a2.25,2.25,0,0,1,1.9,1.88c.2,1,0,2-1.33,2.06a2,2,0,0,1-2-1.76A1.88,1.88,0,0,1,788.46,640.7Zm-3.71-6.42c.44,1.41-.45,2.29-1.85,2.59-1.72-.69-1-2.52-2.24-3.5C782.63,632.58,784.15,632.35,784.75,634.28Zm.36,14.27c-2.46-1.56-4.19-2.81-6.38-3.36C782.63,641.66,782.63,641.66,785.11,648.55Zm-9.21-23.09c-3.1,1.52-4.65,1.61-5.82-1.3C772.44,623.39,773.39,624.86,775.9,625.46ZM758.25,640c-.57,2.48-2.09,1-3.2.67C756,638.76,757.07,638.86,758.25,640Zm-3-18.72c-1.11.34-2.3,1.08-3.19-.29C753.51,619.81,754.26,621.18,755.28,621.25ZM741.2,643.34c-2.14,3.42-3.84,4-6.63,2.87C735.79,643.35,737.91,643.66,741.2,643.34Zm-36.76-51c.12-.58.24-1.15.35-1.73l7.69,1.39C708.66,593.36,706.53,593.08,704.44,592.36Zm28.47-104.93c1,0,1.93.24,2.13,1.35.24,1.3-.85,1.68-1.75,1.69a1.64,1.64,0,0,1-1.74-1.81A1.2,1.2,0,0,1,732.91,487.43Zm-3.48,114c-2,.61-3.74.77-5.34-1.07C726.55,598.8,727.93,600.09,729.43,601.45Zm-9.56,45.2c2.47.75,4.82,1.73,7.58,1.6-4,1-7,3.73-10.57,5.76a20.07,20.07,0,0,1-1-3C715.12,647.17,716.41,645.59,719.87,646.65Zm-3.38-91.74c.09,1.18-.83,1.68-1.92,1.55a1.69,1.69,0,0,1-1.56-2.05c.09-.81.55-1.34,1-1.26C715.6,553.24,716.42,553.86,716.49,554.91Zm-4.4-76c1.08,1.6,2.8,2.79,3.21,4.84-3.46.87-3.46.87-4.55-5.15C711.21,478.65,711.9,478.59,712.09,478.87Zm-7.51,13.33c2,2.73,1.74,5.57.4,9.59C703.32,497.94,703.33,495.15,704.58,492.2Z" transform="translate(-156.11 -284.56)"/><path class="cls-2" d="M916.34,634.35l-.2-.2Z" transform="translate(-156.11 -284.56)"/><path class="cls-2" d="M934.55,652.57a29.87,29.87,0,0,1,4.07-3.71c-.45-1.92-2.59-1.5-2.46-3.55l4-1.28V614.72H881.54V330.11H835.17v327h31.4a6.75,6.75,0,0,1-.11-2.12c1.78-1.75,3.47-1,5.34.18a2.86,2.86,0,0,1-1,1.94h16.58c-.07-.15-.16-.29-.23-.45,4.71-6,6.26-6.43,13.23-3.56-1.09,4.07-3.85.16-6.09,1.44a10.12,10.12,0,0,0,.07,2.57h38.52C932.56,655.82,933.6,653.79,934.55,652.57Zm-70.23-28.12.63,0-.21.15-.42-.11c-1.8.14-3.67.51-5.33.08s-3-2-.83-4.18C860.83,620.64,861.89,623.71,864.32,624.45Zm-6.46-136.3c-1,.34-1.79-.25-2.11-1.39a2.11,2.11,0,0,1,2-2.33,2,2,0,0,1,1.64.95A2.12,2.12,0,0,1,857.86,488.15Zm-1.58-134.41c.85-1.24-.32-3.05,1.36-4.21,2,.79,2.61,2.33,1.65,3.08-1.69,1.34-.89,5.55-4.82,4.33C853.15,354.73,855.6,354.73,856.28,353.74Zm-11.16,68.67a3.83,3.83,0,0,1-1.71,3.16c-2.38.25-2.61-1.51-3-3.2A3.64,3.64,0,0,1,845.12,422.41Zm-5.48,217.93c3.12-2.5,3.12-2.5,5.31.61C842.61,641.49,840.93,642.18,839.64,640.34Zm5.84-13.05c-1.31.66-2.26.1-3.16-1.56,1.59-.54,2.78-.85,3.66.32C846.13,626.25,845.8,627.13,845.48,627.29Zm-4.64-98.42c2.82-.2,4.12,1,5.22,4.34C842.76,532.53,841.45,531.35,840.84,528.87Zm2.41-62.44c3-1.4,4.78-.74,6.43.22a2.08,2.08,0,0,1-.83,2.67C845.59,471.51,844.73,469.09,843.25,466.43Zm4.37,42c4.08-6.36,6.92-6.15,11.07.76-1.69,1.54-3.47,2.92-6,3.18C850.48,511.87,849.11,510.08,847.62,508.47Zm18.13,140.71c-5.78-1.13-10.46.12-13.49,6.84-.82-5.1.85-7.73,3.12-10.16-.9-1.54-2.92-.52-4-1.88-.09-.94.75-1.08,1.49-1.06,4.19.14,8.28,3.44,12.24,0C866.72,644.82,866.35,646.46,865.75,649.18Zm9.93-165.51c2-.11,2.34,1.58,3.34,3.51C875.62,486.22,875.62,486.22,875.68,483.67Zm-3.4-40.53a1.08,1.08,0,0,1,1.58-.84c.92.41,1.66,1.1,1.07,2.24a1.43,1.43,0,0,1-1.14.69A1.76,1.76,0,0,1,872.28,443.14Zm-4,79.64c.28-6.4,8-1.76,8.13-8,2,2.81,1.66,4.51,4.37,5.69Zm13.4,102.49c4.72-2.31,4.72-2.31,7.65,2.8C886.86,627,883.51,628.16,881.7,625.27Zm5.13,11.26c.49-2.9,1.87-3.65,4.55-2A4.25,4.25,0,0,1,886.83,636.53Zm2.72-14.08c-.14-.23.26-1.09.6-1.27,1.86-1,2.34,1,4.07,2.17C891.85,624,890.45,623.92,889.55,622.45Zm40.14,14.62c-2.17-.38-1.24-2.68.18-4.54a17.55,17.55,0,0,1,7.68,5.54C934.4,643.06,932.25,637.52,929.69,637.07Zm5.3-13.25c5.36.09,3.45,4.18,4.46,6.39-1.85,1.58-3.19.77-4.33.63C933.67,628.31,935.79,626.27,935,623.82ZM902.2,644.51c-1.47.46-2-1.11-3.1-1.53a23.53,23.53,0,0,1-3.34-2c3.42-1.37,6.57,1.66,9.57-.25Zm14.14-10.45v.29h-.14c.79,2-1,3.41-1.49,5.13-1.94-.45-1-2.64-2.34-3.11.82-2.31,2.43-1.92,3.83-2a2.34,2.34,0,0,0-.09-.24l0,0,0,0,.23-.06c0-1.72-.58-3.6,1.74-6.36C917.41,630.78,920.31,633.11,916.34,634.06Zm11.4-11.95a2.53,2.53,0,0,1,2.49,2.52c-.12,4.23-3.06,2.93-5.36,2.91A6.49,6.49,0,0,1,927.74,622.11Zm0,24.07c-1.9-1.69-.22-3.82-1.47-5.43a4.94,4.94,0,0,1,4.64,2C931.16,645.31,928.75,645,927.75,646.18Z" transform="translate(-156.11 -284.56)"/><path class="cls-2" d="M1061.86,655.87c1.19-.68,3.89-.38,3.36,1.2h7.19a4.93,4.93,0,0,1,2.72,0h6.08c-1.28-2.86,1.67-3.13,3.6-4.51.66,2.61-.26,3.7-1.47,4.51h12.92c3.29-2.08,3.54-1.9,7.14-.21a4.47,4.47,0,0,0,.46.19l-1-7c-2.15-.92-4.25-2.75-6.43-2.45-.11-3.32,0-5.94,3.76-5.65,2.38,1.45.3,3.47,1.53,5.69a7.69,7.69,0,0,1,.7-.7l-10.5-74.37c-1.54.82-2.93.17-4.12-1.75.75-1.94,1.74-3.1,3.4-3.35l-3.71-26.21a50.59,50.59,0,0,0-4.61-2.44A16.88,16.88,0,0,1,1087,538l-3.41-24.16c-1.6-1.16-2.89-2.44-1.29-5.06a3.21,3.21,0,0,1,.49-.6l-25.16-178.09H996.42l-12.26,92.33a8.36,8.36,0,0,1,.3,2.62l-.63-.12-1.89,14.16c3.09-2.85,4.14-1.93,6.39,4l-6.63-2.15L976.91,477c1.41,0,2,1.33,2.38,2.67a2.14,2.14,0,0,1-1.93,2.69,2.8,2.8,0,0,1-1.16,0l-.36,2.72a4.47,4.47,0,0,1,2.91-.89,2.41,2.41,0,0,1,2.61,2.93c-.21,1.82-.81,3.52-3.11,3.57a3.21,3.21,0,0,1-3-1.34l-6.11,46a1.94,1.94,0,0,1,2-1.22,1.51,1.51,0,0,1,1.06,2.25,2.34,2.34,0,0,1-1.54,1.29,1.58,1.58,0,0,1-1.63-1.59l-3.22,24.25a2.4,2.4,0,0,0,.23.45l-.29,0-6.27,47.23a14.93,14.93,0,0,1,4.81.27c3.63,3.72-3.26,4.83-1.58,7.79a7.66,7.66,0,0,1-4.3,0l-1.29,9.67.13,0-.14.06-.92,6.93c1.1-.51,2.33,0,3.87,1-1.54,2-2.8,1.88-4.21,1.53l-1.81,13.62c.55.41,1.12.8,1.72,1.19.8.53.85,2.19,1.23,3.28-.84,1.13-1.8.37-2.68.38l.09.31-.17.15c.16.91.33,1.85.52,2.88h18.4a6.22,6.22,0,0,1,.11-2.42h0c-2.44,2.77-5,2.23-7.75.24,2.44-5.4,5.15-1.22,7.75-.24l0,0v0c.57,1.15,1.6,1,2.55.81s1.78-.54,2.85-.87v2.48h18.14a6.76,6.76,0,0,1-1.56-1.85l2.52.35,1.52-13.5c-3.36,1.89-6.64-.14-11,1.27,4.1-5.87,7.82-.61,11-1.27l4.89-43.33h49.13l7.27,58.33h.21A3,3,0,0,1,1061.86,655.87Zm35-22.77c-.6,2.13-1.67,2.91-3.74,1.58C1093.74,632.37,1095,632,1096.9,633.1Zm-12.83-59.47c2.57-.62,3.6,1,4.42,3.65-2.56.5-4.66,1.37-5.68-1.3A1.73,1.73,0,0,1,1084.07,573.63Zm-7.69-71.86a1.41,1.41,0,0,1,1.19,1.53,1.58,1.58,0,0,1-2,1.49c-.58-.17-1.43-1.06-1.36-1.48A1.89,1.89,0,0,1,1076.38,501.77Zm-8.46,146c.07-2.33,3.43-3.18,1.29-5.44,1.47-1,3-.49,4.3-.47C1074.85,644,1072.33,646.69,1067.92,647.77Zm2.68-70c2.4,1.5,2,3.89.71,5.87-1.58,2.44-3.65,1.83-8-2.25C1065.27,579.17,1066.23,575.06,1070.6,577.79Zm-7.48,53.71c1.35-.21,2.5,0,2.81,1.67-1.28,1.06-2.22.57-3.11-.56C1062.37,632,1062.41,631.62,1063.12,631.5ZM986.21,501.78c1.63,2,.16,3.32,0,5.32C983.14,504.61,985,503.31,986.21,501.78ZM961.82,644.1c2-.71,3.58-1.11,5.29,2C964.58,646,962.76,646.77,961.82,644.1Zm7.32-7.42c-2.38-.88-4.5-.56-7.13.81,1.57-3.88,3.4-5.93,6.77-7A8.88,8.88,0,0,1,969.14,636.68Zm-.45-36.85a2,2,0,0,1-1.91-1.92,2,2,0,0,1,2.37-2c1.27.22,2.22.83,2.15,1.89A2.21,2.21,0,0,1,968.69,599.83Zm4.11,7a2,2,0,0,1-1.23-1.59c.32-2.17,1.8-1.79,3.28-1.21C974.92,605.54,974.84,607,972.8,606.83Zm10.87,44.23c-2.87,0-1.5-2.6-2.3-3.88l-.17.24c0-.09.08-.18.12-.27a5.48,5.48,0,0,0-3.48-3.58,4.2,4.2,0,0,1-3.22-4.39c5.11-2.48,6.83-1.77,7.16,3.11a9.73,9.73,0,0,1-.46,4.86,0,0,0,0,1,0,0l-.13.24s.13-.24.15-.26l0,0a3.7,3.7,0,0,1,3.59-1.81c1.51,1.09,1.88,2.75,2.11,4.46A4.1,4.1,0,0,1,983.67,651.06Zm4.93-34.47c-2.11,1.56-2.63-2.07-4.38-1.73l4.66-1.84C990.61,614.38,989.29,615.47,988.6,616.59Zm4.93,20.75c1.08-2.28,3-.78,4.36-1.71C996.79,637.84,994.86,636.23,993.53,637.34Zm7.48-72.06a2.27,2.27,0,0,1-1.81-2,1.59,1.59,0,0,1,1.65-1.9c1.16.41,2.23.95,2.16,2.44A1.56,1.56,0,0,1,1001,565.28Zm-4.42-122.42c-.31-2.51,1-3.89,3.12-5.3a5.73,5.73,0,0,1,4.27,3.85C1001.85,443.53,999.85,445.86,996.59,442.86Zm38.05-20.95c2.45-1.09,4.2-.32,5.29,2.68-2.41,2.28-4.28,2.2-5.81-.17A1.63,1.63,0,0,1,1034.64,421.91Zm-29.05-40.65a2,2,0,0,1,1.66-2.14c1.22-.06,2,.55,1.9,1.71a2.5,2.5,0,0,1-1.31,1.62A1.49,1.49,0,0,1,1005.59,381.26ZM1008,561.83c1.31-1.74,2.81-2.32,5.58-1.19C1011.9,563.57,1010.53,565,1008,561.83Zm15.42-3h-14.67l18.68-164.22h.69L1046.29,541c.34.09.67.18,1,.24a10,10,0,0,1-.87.74l2.09,16.78h-21.16a10.27,10.27,0,0,1,1.75,3.64C1024.92,562.69,1024.7,562.69,1023.38,558.8Zm12.6,6a1.75,1.75,0,0,1-2.15-1.54c.1-1.09.54-1.94,1.75-2,1,0,2.15.12,2.17,1.45A2,2,0,0,1,1036,564.81Zm13,30.81a2.07,2.07,0,0,1-3.24-.65c-1.41-2.34,0-3.59,2.38-5C1049.53,592.13,1051.29,593.76,1049,595.62Zm5.22-55c-.92.3-1.94.08-3-1.16a3.92,3.92,0,0,1,4.89-1.2C1056.57,540,1055.2,540.29,1054.19,540.62Z" transform="translate(-156.11 -284.56)"/><path class="cls-2" d="M1149.14,644.56c.36-5.36,2.31-6.41,7.28-5l-4.38,8.87c4.4,0,5.1,3.7,5.94,6.25a8.94,8.94,0,0,0,1.14,2.42h18.58c.14-2.11-1.2-4.25-.26-6.34l.37-2.29c2-1.79,3.56,1.18,5.56.42,2.06-1.44-1.17-5.51,1.93-5.75,3.23-1.5,4.39,1,6.35,1.37,1.61,0,1.89-1.55,2.52-2.74v-5.67c-1.41-.81-2.65-2.13-4.8-1.83-1.6.28-.63,2.4-2,4-2-3-6.06.89-8.28-2.66l-.18.08.13-.15-.13.15-.16-.11c-2.71.43-5.31-.28-7.93-.8,0,1.17-.46,1.76-1.72,1.81-4.71.18-4.71.2-4.82,4.92-1.78,1-3.25-.36-5-.21,3.46-8.74,4.4-9.33,10.76-7l-1.08-5.43,9.81,6.75.29,0,.05.07c1.65-.69,3.74-.73,4.46-2.82l-.16,0,.24-.24-.24.24c-.06-.1-.1-.2-.16-.3-3.25-.57-4.18-3.31-5.47-5.78,1.3-2.84,3.13-4,6-3,1,3-2.16,5.79-.58,8.76.13,0,.26,0,.4.06,0,.09-.06.17-.08.26,3.53.43,7.05-.7,10.58-.38V373.21h34.26v-43.1H1112.34v43.1H1148V627.08c1.55-.59,3.2-.21,5.32,0-1.94,1.71-3.55,2.44-5.32,2.4v18.09C1148.79,647,1149,646.19,1149.14,644.56Zm23.16.75c.47,3.59-2.17,4-3.87,5.12C1168.37,647.5,1170.29,646.65,1172.3,645.31Zm-7.46,8.59c.29.07.44.75.65,1.16-1.56-.17-2.63,2.58-4.57.75C1161.43,653.49,1163.08,653.48,1164.84,653.9Zm23.75-235.34a3.47,3.47,0,0,1,3.81,2.89c-.2,1.61-.81,3.06-2.55,3.29-2.51.33-3.8-1.37-4.1-3.5C1185.49,419.48,1186.85,418.61,1188.59,418.56Zm-10.8,149.89a5.41,5.41,0,0,1,.26,7c-3.17,1.1-4.07-1.2-5.31-3.34C1174,569.49,1175.39,568.3,1177.79,568.45Zm-9.64,52.34c2.4-1.65,3.47.78,5.54,2-2.59,1.15-4.4,2.9-5.85,0A1.47,1.47,0,0,1,1168.15,620.79ZM1132,341.73c-1.48-.92-2.32-2.2-1.15-3.69,2-2.62,3.91-.4,5.95.22C1135.62,340.32,1134.18,341.54,1132,341.73Zm23.24,112.74a1.54,1.54,0,0,1,2,1.49c0,.53-.77,1.09-1.08,1.48-1.44.16-2.22-.51-2.31-1.52C1153.86,455.45,1154.69,454.63,1155.27,454.47Z" transform="translate(-156.11 -284.56)"/><path class="cls-2" d="M1262.42,637.33c1.11,4.3-.58,8.66.13,12.88l.43.68a.43.43,0,0,0,0,.07c5.51-5.37,7.83-5.86,13.49-3l.28-.26a2,2,0,0,1,0,.24c2.9-.27,5.92-1.37,8.83,1-1.25,2.19-5.06,1.1-4.92,4.31l6.51,2.87c2.52-.73-.61-3.12,1-4.38H1291v-.06h0c0-.1,0-.19,0-.27-.1-1.38-2-2.85.37-4.16,1.56-.88,2.22-.2,2.88,1.06-.3,1.8-3.06,1.22-3.25,3.1a1.93,1.93,0,0,1,0,.34h0c-.3,2.81-.34,4.19.22,5.31h7.44a26.24,26.24,0,0,1,6.4-3.83c-4.08-4.85-9.37-6.84-14.11-11.06,4.59,1.28,6.61-2.08,9-3.57,2.54.07,3,2.39,4.85,2.92,2.24-.61,3.65-3.75,7.08-2.14-2.57,2.41-6.5,2.94-8.07,6.77,2.19,3.65,5.59,6.75,7.92,10.91h10.42a22.22,22.22,0,0,0-2.46-4.08c2.18-.63,3.85-.46,5.48,1.42a4.07,4.07,0,0,1-.38,2.66h2.91c1.6-1.74,3.32-3.35,5.93-3.82,5.22-1,9.06-6.7,15.45-5.85-1.14-5-6.21-6.79-6.67-11.73,1.72-.63,2.2,2.06,3.71,1.33,1.2-1.08.07-2.3.25-3.7a8.12,8.12,0,0,1,6-.93c2.3,3.4-2.11,7.22.88,10.3,1.74,1.79,3.35,2,4.89,1.6V614.17H1300.4v-46.3a3.11,3.11,0,0,1-2.14-2.3,9.14,9.14,0,0,1,2.14-.58V510.13h11c-2.66-.82-3.24-2.75-2.37-5.63a8.8,8.8,0,0,1,1.63-.28c2.61.52,4.09,2,3.71,4.77a1.43,1.43,0,0,1-.84,1.14h39.76v-42H1300.4V391.72l-.12.14a9.66,9.66,0,0,1-2.76-.7c-1.54-.91-2.86-2.14-2.4-4.24a2.08,2.08,0,0,1,2.21-1.69,4.54,4.54,0,0,1,3.07,1.28V373h55.71V330.11H1254V533.56c1.65-3.55,5.59-3.53,7.39-5.9,2.5,1.56,3.78,3.85,1.94,4.63-2.87,1.2-4.63,6.63-9.33,3.19v6c1.62-1,3.16-1.27,4,.91a1.69,1.69,0,0,1-1.39,2.23c-1.54.28-2.32-.25-2.63-1.2v84a2,2,0,0,1,1.16,1.52,3.2,3.2,0,0,1-1.16.39v6.47a6.22,6.22,0,0,1,1.51,1C1257.51,638.34,1259.81,637.66,1262.42,637.33Zm54.7,10.45a3.65,3.65,0,0,1-3.56-2.14,15,15,0,0,1,6.53-3.61Zm14.1-11.73c-1.57,1.69-.24,3.75-1.35,5.45-3.9.7-2.54-3.37-4.92-3.44C1326.35,636.29,1328.19,635.73,1331.22,636.05Zm-3.41,12.43c-2,3-3.83,3.44-5.91,0C1324,647.16,1325.84,647.46,1327.81,648.48Zm-6.85-20c1.38,1.79,1.79,3.06-.81,4C1319.23,631,1319.2,629.79,1321,628.52Zm-3.47-1.2a1.32,1.32,0,0,1-1.66,1c-1.06-.27-1.88-.85-1.75-2s1.19-1.49,2.22-1.26C1317.49,625.3,1317.77,626.24,1317.49,627.32Zm-3-9.58a1.81,1.81,0,0,1,2,1.9c.11,1.36-.44,2.63-1.92,2.73a2.13,2.13,0,0,1-2.35-2.3C1312.22,618.55,1313.41,618.06,1314.48,617.74Zm13.78-147.17c1.8.31,3.46,1,3.24,3.2a2.9,2.9,0,0,1-3.14,2.6c-1.91,0-2.58-1.23-2.75-2.86C1325.42,471.66,1326.48,470.8,1328.26,470.57ZM1296,442.13c3,.87,2.5,3.08,1.49,5.3-2.08-.14-3.13-1.41-3.86-3C1293.69,442.78,1295,441.84,1296,442.13Zm-11.9,202.34c-4-1.75-6.14-4.24-6.77-7.93,3.48-2.73,5.16.44,7.26,2.19C1287,640.69,1284.24,642.15,1284.12,644.47Zm7-8.32c-1.85,1.85-3.69,2.26-5.94,0C1287.35,633.18,1289.21,634.4,1291.12,636.15Zm-4.26-256c.64,2,1.53,3.84-.62,4.8-1.34.6-2.46-.58-2.76-1.76C1282.9,380.86,1284.4,380.2,1286.86,380.13Zm-4.46,98c-2.36.86-3.57.2-4.93-1.69,2.46-1.34,1.24-4.82,4.22-6.77C1286.86,472.88,1279,475.42,1282.4,478.11Zm-1.21-59.64a1.82,1.82,0,0,1-.9,2.52c-2.35.68-3.73-.42-4-3C1278.09,416.88,1279.86,416.15,1281.19,418.47Zm-4.43-25.83c.57.15,1.41,1,1.34,1.48-.38,2.67-1.88,3.85-5.42,2.67C1273.47,394.44,1273.36,391.73,1276.76,392.64Zm-4.69,94.25c-2.22-.41-3.93-.61-5.57-1.06a2.21,2.21,0,0,1-1.85-2.73c.33-1.43,1.52-1.79,2.85-1.85C1271.27,481.06,1272.17,482,1272.07,486.89Zm-16.65-65.42c2.45-1.82,4.12-1.65,6.13.84C1258.7,425.2,1257.34,423.57,1255.42,421.47Zm8.62,13.68c-.26.08-.94-.39-1-.7-.37-1.65.09-2.85,2.25-3.05C1266.42,433.66,1265.69,434.67,1264,435.15Zm3,152.45c-4.18.69-4.18.69-4.66-3.23C1264.76,584.41,1266.93,584.32,1267.05,587.6Zm-4.37,4.45a2.38,2.38,0,0,1,2.51,1.26,1.53,1.53,0,0,1-1.17,1.59,1.73,1.73,0,0,1-2.35-1.2A1.28,1.28,0,0,1,1262.68,592.05Zm2.69,38.39c.41,1.72-.15,3.28-1.66,3.65-2.06.51-3.09-1-3.55-3.88C1262.17,631.18,1263.78,630.48,1265.37,630.44Z" transform="translate(-156.11 -284.56)"/><path class="cls-2" d="M1266,654.78c-.09-.63-.35-1.1-1.5-.75h0C1265.65,653.68,1265.91,654.15,1266,654.78Z" transform="translate(-156.11 -284.56)"/><path class="cls-2" d="M1266.12,655.89c.11.4.22.79.32,1.19h0c-.09-.38-.19-.76-.29-1.14Z" transform="translate(-156.11 -284.56)"/><path class="cls-2" d="M1397.56,647a3.42,3.42,0,0,0-2.52-2.38v7.69a9.31,9.31,0,0,1,1,.51C1394.8,650.26,1398,648.33,1397.56,647Z" transform="translate(-156.11 -284.56)"/><path class="cls-2" d="M1403.51,643.17c.67,1.69-.1,4.11,1.87,5.4l.06-.07,0,0a2.09,2.09,0,0,1,.14-.17c-.18-5.87,5.45-4.12,8.38-6.16,1.93,2,.68,4.36,1.76,7.78-3.72-3.11-6.91-5.56-10.14-1.62,0,.13,0,.25,0,.39l-.18-.12c-2,2.87-5.68,3.2-8.15,5.36.72,1.74,2.85.6,3.81,1.81a2.19,2.19,0,0,1-.76,1.34h3.93a2.81,2.81,0,0,1-.11-.82c2.86-1.91,5.68.34,8.26.82H1414a3.33,3.33,0,0,0,1.15-.51,2.07,2.07,0,0,1,.48.51h8.27a2.2,2.2,0,0,0,1.66-1.9c.2-2-1.53-3.07-2.91-2.18-2.67,1.74-1.94-1-2.84-1.76-2.07.74-1.65,4.47-4.55,4.12-1.35-.17-2.16-1.17-2-3,1.51-1.9,4.24-2,6-3.38l3.07,1c4.32,1.4,9.39,1.17,11.86,6.39a1.81,1.81,0,0,0,.67.71h3.58c-.45-2.59.43-3.45,2.93-3.05a1.4,1.4,0,0,1,.43-.19l.14.22a16.9,16.9,0,0,1,2,0c1.58.11,1.38,2.28,2.59,3.06h2.37c2-.85,2.27-3.29,4.45-3.34-.41-1.6-2.27-2-1.72-3.71,4.19-2.73,4.84,3.61,7.71,2.63,1.55,2.94-1.28,2.72-1.72,4,0,.14.11.26.17.39h4.1c.54,0,1.06,0,1.59,0,.74-2.28-1.37-4.63-1.81-6.82,3-2.14,4.89-.55,6.75,1.27-.47,1.6,0,3.34-1.18,4.64,1.26.77,1.71.12,2.28-.35.76-.63,2-1.85,2.32-1.66,3,1.91,6.12.22,8.65-.39,2.29-.54,4-3.64,7.16-2l.36,1.21A47.88,47.88,0,0,0,1512.17,634q7.24-11,11-27.93a10.87,10.87,0,0,1-2.8.15c-.56-2.2-2.92-2.74-3.87-4.81,1.29-4.87,5-4.29,8.43-4.7a229.71,229.71,0,0,0,2.43-35.16l-.17-147.12a12,12,0,0,0-2.08,3.06c-1.54-4.12,0-6.08,2-7.79,0-.92-.05-1.82-.08-2.73l-1-1.66a10.73,10.73,0,0,1,.92-1.26q-1.65-34.08-14.9-52.7-15.13-21.27-48.7-21.28H1395v166c2.82-.94,3.67.75,5,2.17-3,.81-3.21.85-5-1.56v145.3A48.32,48.32,0,0,1,1403.51,643.17Zm5.53,10.57c-2.59-1.42-2.9-2.63-1.63-4a1.47,1.47,0,0,1,1.38-.27C1410.58,650.64,1409.34,652,1409,653.74ZM1524.61,473c-2.13,1.55-3.2.54-4.35-.92C1522.77,470.27,1523.07,473.15,1524.61,473Zm-7.48-48.88a2.5,2.5,0,0,1,2.54-2.21c1.5-.05,2,1,2.37,2.26-.52,1.15-1.16,2.18-2.62,2.13S1517,425.57,1517.13,424.15Zm-57.19,207.34c1.1-3.73,2.71-4.34,4.59-5.11,2,1.25,2.13,4.1,4.44,5.34C1465.59,632.42,1463.94,627.36,1459.94,631.49ZM1476,651a1.08,1.08,0,0,1,.17-1.83c1.26-.58,2.26.09,3.21,1.5C1478,652.34,1476.92,651.9,1476,651Zm32.81-41.73a1.9,1.9,0,0,1-2,1.73,1.71,1.71,0,0,1-1.88-1.77,2.1,2.1,0,0,1,2.44-2.08A1.74,1.74,0,0,1,1508.79,609.31ZM1506.94,493c-2.84-.82-2.26-3.91-4.19-5.9,2.38-1.48,4.32-2,5.37-.24C1509.26,488.76,1509.51,491.11,1506.94,493Zm1.76-49.18c-4.46,3-4.46,3-8.64-1.92C1504.51,438.42,1506.29,441.87,1508.7,443.8ZM1503,359.93c.24-.08.92.33,1,.65.6,1.7-1.13,1.69-2.53,3.56C1501.62,361.6,1501.66,360.41,1503,359.93Zm-2.92,66.89c1.56,1.23,1.46,2.81.77,5.1C1496.63,429.25,1496.63,429.25,1500.05,426.82ZM1490,401.92c1.16.27,1.83,1,1.46,2.16a2.39,2.39,0,0,1-1.53,1.44,1.7,1.7,0,0,1-1.91-1.81C1488,402.52,1488.88,402,1490,401.92Zm-8.46,3.94c3-.66,4.5.24,5.63,2.44,0,3.05-2.91,3.85-4.8,5.72C1481.85,411.29,1480.72,408.85,1481.52,405.86ZM1466,346.3c1.52.39,3,.94,2.77,2.87a2.22,2.22,0,0,1-2.12,1.82c-1.94.09-2.56-1.47-2.68-3C1463.91,347,1464.87,346.34,1466,346.3Zm-25.18,199a6.22,6.22,0,0,1,.58-.43V432.58c-2.06-1.24-2-1.61,0-3.68V368.38h13.66q14.19,0,20,10.78t5.79,36.22l.09,84.81a3.22,3.22,0,0,1,1.64.38c.83.41,1.61.91,2.43,1.39l0,0,.06,0c-.65-1.82-1.31-3.64-2-5.62,2.77-2.31,4.94-1.35,5.91,1.42,1.1,3.17-1.84,3.47-3.89,4.2l.07.19-.13-.17.11.15-.16-.1c-.73.63-1.42,1.29-2.18,1.87a2.75,2.75,0,0,1-1.88.65l.08,72.34q0,23.79-5.8,32.7t-18.6,8.92H1442a8.6,8.6,0,0,1-2.53,3.6c.37-2.78.35-4.53,2-6V547.07A2.73,2.73,0,0,1,1440.83,545.31Zm-5,102.36c-3-.67-4.18-2.4-6.42-4.39C1433.81,642.37,1435.36,643.7,1435.87,647.67Zm-7.42-40.58c-4.85,4.24-9.17-2.08-14.1-.34.56-2.2,1-3.78,1.35-5.36C1425.52,598.05,1426.91,598.63,1428.45,607.09Zm-8.19-161c1.66-.05,2.86.62,3.06,2.5a2.86,2.86,0,0,1-2.68,3c-1.72.18-2.69-1-2.93-2.67C1417.45,447,1418.51,446.15,1420.26,446.1Zm-1.69,66.62c-2.64,1-3.7-1.54-6.47-1.51C1416.17,508.33,1416.17,508.33,1418.57,512.72Zm-11.07,83.2c1.09,2.28,1.26,4.32-.23,5.94a4.53,4.53,0,0,1-3.37,1.43c-4.64-.69-4.9-4.25-4.94-8.15C1402.73,593.39,1405,595.47,1407.5,595.92Z" transform="translate(-156.11 -284.56)"/></svg>