<svg id="Layer_2" data-name="Layer 2" xmlns="http://www.w3.org/2000/svg" xmlns:xlink="http://www.w3.org/1999/xlink" viewBox="0 0 1185.4 277.25"><defs><style>.cls-1{fill:url(#linear-gradient);}.cls-2{fill:url(#linear-gradient-2);}.cls-3{fill:url(#linear-gradient-3);}.cls-4{fill:url(#linear-gradient-4);}</style><linearGradient id="linear-gradient" x1="1096.29" y1="685.37" x2="1096.29" y2="412.99" gradientUnits="userSpaceOnUse"><stop offset="0" stop-color="#8637cc"/><stop offset="1" stop-color="#aa46ff"/></linearGradient><linearGradient id="linear-gradient-2" x1="1260.77" y1="689.46" x2="1260.77" y2="425.86" xlink:href="#linear-gradient"/><linearGradient id="linear-gradient-3" x1="1372.47" y1="688.1" x2="1372.47" y2="424.82" xlink:href="#linear-gradient"/><linearGradient id="linear-gradient-4" x1="1510.07" y1="665.2" x2="1510.07" y2="412.22" xlink:href="#linear-gradient"/></defs><path class="cls-1" d="M1208.31,680.53c0,2.64-1.84,5.09-4.23,4.82q-27.63-3.17-54.91-8.76c-2.36-.49-4.38-3.49-4.35-6q.77-53.7,1.54-107.41c-10.35,34.34-20.73,67.8-31.08,100.12a5,5,0,0,1-6.19,3.7q-17.11-4.73-34-10.43c-2.57-.87-5.1-3.81-5.9-7.17-9-36.53-18-72.13-27.07-106.55q-.71,48.13-1.42,96.27a3,3,0,0,1-4.26,2.85q-25.76-10.74-50.54-23.94a7.88,7.88,0,0,1-3.73-6.14q.33-97.4.65-194.79a3.8,3.8,0,0,1,4-4.05q33.87,3.11,68.05,5.48a9.52,9.52,0,0,1,8.22,7.29c10.24,42.84,20.41,87.38,30.63,133.21,11.67-41.46,23.41-84.6,35.1-129a8.33,8.33,0,0,1,8.5-6.83q34.42,1.49,69,2.23c2.33.05,4.05,2.73,4,5.75q-1,124.71-2,249.42Z" transform="translate(-392.71 -412.22)"/><path class="cls-2" d="M1287.19,689.37q-26.6.45-53.18-1.31c-2.1-.14-4.18-2.95-4.16-5.61q.72-125.48,1.43-251c0-3,2.07-5.67,4.1-5.64q25.72.31,51.45.24c2.61,0,4.36,2.65,4.37,5.7q.24,126.07.49,252.13c0,2.67-1.8,5.39-4.5,5.44Z" transform="translate(-392.71 -412.22)"/><path class="cls-3" d="M1429.59,665.53c-.26,2.59-2.26,5.62-4.6,6.19a628.38,628.38,0,0,1-107.17,16.38c-2.4.16-4.51-2.39-4.53-5.05q-.57-125.71-1.16-251.43c0-3,2-5.73,4.34-5.75q25.71-.33,51.39-1.05c2.32-.07,4.37,2.48,4.41,5.46q1.07,92.19,2.12,184.37,27.45-3.43,54.55-8.82c2-.4,3.82,1.39,3.86,4.25q-1.59,27.64-3.21,55.45Z" transform="translate(-392.71 -412.22)"/><path class="cls-4" d="M1573.92,464.82q-35.48,7.38-71.75,12.95.22,15.06.46,30.1,29.31-5.75,58-13c2.51-.63,3.9,1.09,3.63,2.95q-1.83,21.38-3.63,43.08a7.86,7.86,0,0,1-4.66,5.56q-25.89,9-52.51,16.32.6,39.53,1.21,79.06a7.46,7.46,0,0,1-4.14,6.27q-24.91,9.6-50.55,17c-2.31.67-4.1-1.68-4.14-4.16q-1.9-117-3.83-234.11c0-2.48,1.65-5.05,4-5.17q64.35-3.4,127.83-9.4a3.72,3.72,0,0,1,4.26,3.64l0,43.72a5.19,5.19,0,0,1-4.19,5.22Z" transform="translate(-392.71 -412.22)"/><path d="M922.36,665.9a2.63,2.63,0,0,0,2.56-2.45,94.84,94.84,0,0,1,8.63-24.71q5.6-11,18.42-29.85t25.88-35.44A169.61,169.61,0,0,0,988.46,557q7.11-12,11.78-21.57,6.28-12.59,2.56-15.86c-1.87-1.39-3.65-1.2-5.36.59s-4,5.79-6.76,12a185.26,185.26,0,0,1-10.15,20.4q-6.18,10.84-9.91,15.27Q965,574.39,957.1,574t-15.16-7.81q-6.29-6.06-11.31-19.24t-5-23c0-2.95-.27-5-.81-6.07a3.2,3.2,0,0,0-3.15-1.63c-2.65,0-4.12,1.6-4.43,4.78s.46,8.75,2.33,16.67q4.2,17,12.36,28.8t17.72,14.57c3.88,1.25,6.49,1.87,7.81,1.87s2,.11,2,.35-2.95,4.54-8.86,12.94q-38.48,54.09-31.48,67.38a3.36,3.36,0,0,0,3.27,2.22Z" transform="translate(-392.71 -412.22)"/><path d="M503.61,581.19q-13.87,7.18-45.22,10.91T410.86,592q-10.55-2.33-15.42-7.59t-1-9.63c1-1.2,1.54-3,1.54-5.52s-.52-8.35-1.54-17.6a216.47,216.47,0,0,1-1.68-22.35q-.12-9.51,1.16-29,1.55-31.08.77-32.37-1-1.54,2.57-12.46t6.43-15q3.33-5.14,15.15-11.05,8.49-4.36,12.08-5.27t12.33-.9q10.8.27,17.09,2.57a35.15,35.15,0,0,1,12.46,8.48q9.25,9.25,9.38,23.38t-9.13,27L470.21,489l9.76,2.57A65.56,65.56,0,0,1,513.37,513Q527,529,527,547q0,22.11-23.38,34.18Zm9.64-48.57a51.46,51.46,0,0,0-10.41-14.13A69.63,69.63,0,0,0,489,508.09a50.29,50.29,0,0,0-15.68-5q-14.9-2.83-23.38,3.34A110.67,110.67,0,0,1,436,513.87q-16.19,7.46-16.19-2.57,0-4.87,6.81-10t18.37-9q12.33-3.85,21.33-18.25,6.93-11,4.88-20.81t-12.59-14.64q-5.91-2.82-16.19-2.57t-17.21,3.6q-8.75,4.11-11.69,8.47T408,464.28q-3.33,17.48-2.7,64.88t4.5,51.25q1.55,1.29,17.22,3.09,1.79.25,21.06-1.54a210.21,210.21,0,0,0,32.25-4.89q15.28-3.59,22.48-8a31.7,31.7,0,0,0,10-9.89q4.36-6.56,4.37-11.69a33.63,33.63,0,0,0-4-14.91Zm99-22.6a1.64,1.64,0,0,1-1,.77,14.37,14.37,0,0,1-3.59.77q-4.63.51-15.93,1-17.47.78-23.38,3.09a12.4,12.4,0,0,0-8.48,8.48q-2.31,6.93-2.7,20.29a188,188,0,0,0,.9,25.44q.76,6.42,1,12.08a42.49,42.49,0,0,1,0,6.93q-.78,2.83-2.83,3.34c-1.37.35-2.66-.17-3.85-1.54q-1.8-2.31-3.09-9.76a125.31,125.31,0,0,1-1.54-17.22,125.62,125.62,0,0,0-2.31-24.15l-2.31-11.3,3.08-2.32a24.46,24.46,0,0,0,6.17-9,17.24,17.24,0,0,1,9.76-9.25q7.18-2.82,24.41-4.37a142.57,142.57,0,0,1,16.44-.77,11.82,11.82,0,0,1,6.17,1.29,11.36,11.36,0,0,1,3.85,3.08c.34.86.09,1.89-.77,3.09Zm98.28,77.72c-.77.77-1.42,1.07-1.93.89s-1.46-1.11-2.83-2.82q-3.07-3.6-5.65-11.44t-3.6-7.83c-.68,0-2.48,2.05-5.39,6.17a41.76,41.76,0,0,1-18.5,13.74,32.7,32.7,0,0,1-21.58.64,29.93,29.93,0,0,1-10.41-5.9,28.82,28.82,0,0,1-7.58-9q-1.54-2.82-4.11-11.56a147.27,147.27,0,0,1-3.6-14.39q-1.27-7.44,9.77-24.15a89.27,89.27,0,0,1,7.32-10,28.57,28.57,0,0,1,6-4.63l8.48-5.13a29.1,29.1,0,0,1,12.59-3.6A23.89,23.89,0,0,1,685.26,503q6.68,4.76,11.82,15.54a41.68,41.68,0,0,1,2.82,8.35,100.12,100.12,0,0,1,1.29,12.72q1.54,24.42,9,41.37a16.69,16.69,0,0,1,1.54,4.62,3.24,3.24,0,0,1-1.15,2.19Zm-17.48-60a26,26,0,0,0-2.44-7.19q-4.36-9-10.79-12.72a16.89,16.89,0,0,0-13.62-1.67q-13.62,4.11-22.22,18.63A52,52,0,0,0,636.7,556q1,14.91,10,21.2t23.12,2.18q6.17-1.78,11.82-7.7a35.69,35.69,0,0,0,8.61-12.85q2.43-6.68,2.7-19.27a77.88,77.88,0,0,0,.12-11.82Zm114.46-2.31c-.68,1-2.27,1.76-4.75,2.18s-7.83.9-16.06,1.42q-19.26,1.29-20,2.31-.76.76,1.29,21.71t3.34,25.82q1.54,4.89,0,7.45Q770,588.9,769,589c-.69.09-1.85-.43-3.47-1.54s-2.87-3.81-3.73-8.1S759.93,567,758.74,555q-1.8-20.29-2.7-21.58t-7.58-.26a52,52,0,0,0-9.38,1.54,3.93,3.93,0,0,0-2.7,2.83q-1.78,5.91-9.24,1.54-6.69-4.37-5.14-8.74a6.75,6.75,0,0,1,4-3.47q3-1.15,11.69-2.44,10.53-1.54,13.62-2.57l3.34-.77.51-30.31q.25-30.33,1.29-45.48.51-11.06,1-13.36a5.3,5.3,0,0,1,3.09-3.6c2.39-1,4.15-1.45,5.26-1.28s2.27,1,3.47,2.57a6.54,6.54,0,0,1,.52,6.16q-2.32,5.91-4.37,35.59t-1,40.72l.77,8.22,19.27-.77q12.08-.25,16.19,0c2.74.17,4.62.69,5.65,1.54q2.57,1.8,1.28,4.37Zm97.38,0q-1,1.55-4.75,2.18T884.12,529q-19.27,1.29-20,2.31-.78.76,1.29,21.71t3.33,25.82q1.54,4.89,0,7.45-1.29,2.58-2.31,2.7c-.69.09-1.84-.43-3.47-1.54s-2.87-3.81-3.72-8.1S857.31,567,856.12,555q-1.82-20.29-2.7-21.58c-.61-.86-3.13-.95-7.58-.26a51.84,51.84,0,0,0-9.38,1.54,3.89,3.89,0,0,0-2.7,2.83q-1.8,5.91-9.25,1.54-6.68-4.37-5.14-8.74a6.8,6.8,0,0,1,4-3.47q2.94-1.15,11.69-2.44,10.53-1.54,13.61-2.57l3.34-.77.52-30.31q.26-30.33,1.28-45.48.51-11.06,1-13.36a5.31,5.31,0,0,1,3.08-3.6c2.4-1,4.15-1.45,5.27-1.28s2.27,1,3.47,2.57a6.54,6.54,0,0,1,.51,6.16q-2.31,5.91-4.37,35.59t-1,40.72l.77,8.22,19.27-.77q12.08-.25,16.18,0c2.74.17,4.63.69,5.66,1.54q2.57,1.8,1.28,4.37Z" transform="translate(-392.71 -412.22)"/></svg>