<?xml version="1.0" encoding="UTF-8"?>
<!-- Generator: Adobe Illustrator 21.1.0, SVG Export Plug-In . SVG Version: 6.00 Build 0)  -->
<svg version="1.1" id="Layer_1" xmlns="http://www.w3.org/2000/svg" xmlns:xlink="http://www.w3.org/1999/xlink" x="0px" y="0px" viewBox="0 0 561.6 67.3" style="enable-background:new 0 0 561.6 67.3;" xml:space="preserve">
<style type="text/css">
	.st0{fill:#0DAEA6;}
	.st1{fill:#B3B3B3;stroke:#B3B3B3;stroke-miterlimit:10;}
	.st2{fill:#B3B3B3;}
	.st3{fill:#00ACA3;}
</style>
<path class="st0" d="M69.3,23.2c6.1,1.5,9.9,3.6,9.9,5.9c0,4.6-14.8,8.3-33.1,8.3s-33.1-3.7-33.1-8.3c0-2.3,3.8-4.4,9.9-5.9  c-8.6,1.7-14,4.4-14,7.3c0,5.2,16.7,9.4,37.2,9.4s37.2-4.2,37.2-9.4C83.4,27.5,77.9,24.9,69.3,23.2z"/>
<path class="st0" d="M61.5,23.6c4,1,6.5,2.4,6.5,3.9c0,3-9.8,5.5-21.8,5.5s-21.8-2.5-21.8-5.5c0-1.5,2.5-2.9,6.5-3.9  c-5.6,1.1-9.3,2.9-9.3,4.8c0,3.4,11,6.2,24.5,6.2s24.5-2.8,24.5-6.2C70.7,26.5,67.1,24.8,61.5,23.6z"/>
<path class="st1" d="M335.8,33.7l-8,11.1c-0.2,0.3-0.5,0.4-0.7,0.4H327c-0.3,0-0.6-0.1-0.8-0.4l-8-11.1v20.6c0,0.5-0.4,0.9-0.9,0.9  c-0.5,0-0.9-0.4-0.9-0.9V31.1c0-0.3,0.1-0.5,0.4-0.7c0,0,0,0,0.1-0.1c0.4-0.3,0.9-0.2,1.2,0.2l8.9,12.3l8.9-12.3  c0.3-0.4,0.8-0.5,1.2-0.2c0.1,0.1,0.2,0.2,0.3,0.3c0.1,0.1,0.1,0.3,0.1,0.5v23.2c0,0.5-0.4,0.9-0.9,0.9c-0.5,0-0.9-0.4-0.9-0.9  L335.8,33.7L335.8,33.7z"/>
<path class="st1" d="M371.6,48.7h-11.4l-2.2,5.9c-0.1,0.4-0.5,0.6-0.8,0.6c-0.1,0-0.2,0-0.3,0c-0.4-0.2-0.7-0.7-0.5-1.1l8.7-23.2  c0.1-0.3,0.5-0.5,0.9-0.5c0.4,0,0.8,0.2,0.9,0.5l8.7,23.2c0.2,0.4,0,1-0.5,1.1c-0.1,0-0.2,0-0.3,0c-0.3,0-0.7-0.2-0.8-0.6  L371.6,48.7z M360.9,46.9H371l-5-13.5L360.9,46.9z"/>
<path class="st1" d="M392.9,50.5c0.3-0.4,0.8-0.4,1.1-0.1c1.9,1.5,5,3.3,8.2,3.2c2.2,0,4.2-0.6,5.5-1.6c1.4-1,2.1-2.3,2.1-3.7  c0-1.4-0.7-2.5-2-3.4c-1.4-0.9-3.4-1.6-5.8-2H402c-2.3-0.4-4.4-1.1-5.9-2.1c-1.5-1-2.6-2.5-2.6-4.4c0-1.9,1-3.5,2.6-4.7  c1.6-1.1,3.7-1.8,6-1.8c3.3,0,5.8,1.6,7.7,2.9c0.4,0.3,0.5,0.7,0.2,1.1c-0.2,0.4-0.7,0.5-1.1,0.2c-2-1.3-4.1-2.6-6.9-2.6  c-2,0-3.9,0.6-5.1,1.5c-1.3,0.9-2,2.1-2,3.4c0,1.3,0.6,2.2,1.9,3c1.3,0.9,3.1,1.5,5.4,1.9h0.1c2.5,0.5,4.7,1.2,6.4,2.3  c1.6,1.1,2.8,2.7,2.8,4.7c0,2-1.1,3.8-2.8,5c-1.7,1.2-3.9,2-6.4,2c-3.8,0-7.2-2-9.2-3.6C392.7,51.3,392.7,50.8,392.9,50.5z"/>
<path class="st1" d="M430,50.5c0.3-0.4,0.8-0.4,1.1-0.1c1.9,1.5,5,3.3,8.2,3.2c2.2,0,4.2-0.6,5.5-1.6c1.4-1,2.1-2.3,2.1-3.7  c0-1.4-0.7-2.5-2-3.4c-1.4-0.9-3.4-1.6-5.8-2h-0.1c-2.3-0.4-4.4-1.1-5.9-2.1c-1.5-1-2.6-2.5-2.6-4.4c0-1.9,1-3.5,2.6-4.7  c1.6-1.1,3.7-1.8,6-1.8c3.3,0,5.8,1.6,7.7,2.9c0.4,0.3,0.5,0.7,0.2,1.1c-0.2,0.4-0.7,0.5-1.1,0.2c-2-1.3-4.1-2.6-6.9-2.6  c-2,0-3.9,0.6-5.1,1.5c-1.3,0.9-2,2.1-2,3.4c0,1.3,0.6,2.2,1.9,3c1.3,0.9,3.1,1.5,5.4,1.9h0.1c2.5,0.5,4.7,1.2,6.4,2.3  c1.6,1.1,2.8,2.7,2.8,4.7c0,2-1.1,3.8-2.8,5c-1.7,1.2-3.9,2-6.4,2c-3.8,0-7.2-2-9.2-3.6C429.8,51.3,429.8,50.8,430,50.5z"/>
<path class="st1" d="M481.8,48.7h-11.4l-2.2,5.9c-0.1,0.4-0.5,0.6-0.8,0.6c-0.1,0-0.2,0-0.3,0c-0.4-0.2-0.7-0.7-0.5-1.1l8.7-23.2  c0.1-0.3,0.5-0.5,0.9-0.5c0.4,0,0.8,0.2,0.9,0.5l8.7,23.2c0.2,0.4,0,1-0.5,1.1c-0.1,0-0.2,0-0.3,0c-0.3,0-0.7-0.2-0.8-0.6  L481.8,48.7z M471,46.9h10.1l-5-13.5L471,46.9z"/>
<path class="st1" d="M515.4,43.9c-0.5,0-0.9-0.4-0.9-0.9c0-0.5,0.4-0.9,0.9-0.9h7.7h0.1c0.4,0,0.8,0.4,0.8,0.9v8.6v0.1  c0,0.3-0.1,0.5-0.3,0.6c-2.2,1.8-5,2.8-8.1,2.8c-7.2,0-13-5.7-13-12.7c0-7,5.8-12.7,13-12.7c3.1,0,5.9,1.1,8.1,2.8  c0.3,0.3,0.4,0.9,0.1,1.2c-0.3,0.4-0.8,0.4-1.3,0.1c-1.8-1.5-4.3-2.4-7-2.4c-6.3,0-11.3,4.9-11.3,10.9c0,6.1,5,11,11.3,11  c2.4,0,4.8-0.8,6.6-2.1v-7.4C522.2,43.9,515.4,43.9,515.4,43.9z"/>
<path class="st1" d="M546.4,31c0-0.5,0.4-0.9,0.9-0.9h0.1h12.8c0.5,0,0.9,0.4,0.9,0.9c0,0.5-0.4,0.9-0.9,0.9h-12v9.9h10.5  c0.5,0,0.9,0.4,0.9,0.9c0,0.5-0.4,0.9-0.9,0.9h-10.5v9.9h12c0.5,0,0.9,0.4,0.9,0.9c0,0.5-0.4,0.9-0.9,0.9h-12.8h-0.1h-0.1  c-0.4,0-0.8-0.4-0.8-0.9V31z"/>
<g>
	<path class="st2" d="M75.8,22.9c8.3,2,13.5,4.8,13.5,7.9c0,6-19.5,10.9-43.5,10.9S2.3,36.8,2.3,30.8c0-3.4,6.3-6.5,16.2-8.5   C8.2,24.1,0.1,27,0.1,30.6c0,2.7,3.6,36.6,46.1,36.6c41.5,0,46.1-29.9,46.1-36.2C92.3,27.6,85.1,24.8,75.8,22.9z"/>
</g>
<path class="st3" d="M38.1,15.1l7.5-13c0.3-0.5,1-0.5,1.2,0l7.5,12.9c0.8,1.4,1.3,3,1.3,4.7c0,5.2-4.2,9.4-9.4,9.4  c-5.2,0-9.4-4.2-9.4-9.4C36.8,18.1,37.3,16.5,38.1,15.1z"/>
<path class="st3" d="M149.4,28.9c0,15.8-2.3,23.7-6.9,23.7c-1,0-2.7-1.1-4.9-3.4l-18.9-19.5l-0.5,7.4c-0.2,2.5-0.8,5.6-1.9,9.3  c-1.7,5.7-4,9.5-6.7,11.4c-0.1,0-0.2,0.1-0.4,0.1c-0.7,0-1.8-0.4-3.4-1.3c-1.6-0.8-2.4-1.4-2.4-1.7c0-0.2,0.1-0.4,0.4-0.4  c0.2,0,0.4,0.1,0.8,0.2c0.4,0.1,0.7,0.2,1,0.2c1.1,0,3-2.7,5.7-8.2c3-6.1,5-12.1,6.1-18c-1.4-1.8-2.7-3.2-4-4  c-0.9-0.5-1.3-0.8-1.3-0.9c0-0.2,0.2-0.4,0.7-0.4c5.1,0,8.1,0.5,8.9,1.4l19.3,23.8c0.6,0.8,1.2,1.1,1.9,1.1c0.6,0,1.1-0.6,1.5-1.7  c0.4-1.2,0.6-2.7,0.6-4.5c0-5.3-0.3-9.5-0.9-12.7c-0.4-2.3-0.9-3.9-1.6-5.1c-0.6-1-0.9-1.4-0.9-1.3c0-0.3,0.3-0.5,1-0.5  c0.6,0,1.8,0.6,3.6,1.7C148.4,27.1,149.4,28.1,149.4,28.9z"/>
<path class="st3" d="M203.7,54.3c0,0.2-0.7,0.6-2,1.2c-4.6,2.1-6.9,3.2-7.1,3.2c-0.6,0-1.9-6.6-3.7-19.7l0.2-0.1v0.1h-0.3  c-2,4-5.2,7.6-9.5,10.9c-4.7,3.7-9,5.5-13.1,5.5c-4.2,0-6.2-2.6-6.2-7.7c0-0.1,0.3-2.4,0.9-7c0.6-4.5,0.9-8.2,0.9-10.9  c0-0.6,0.3-1,0.8-1c0.6,0,1.8,0.3,3.6,1c1.8,0.7,2.6,1.2,2.6,1.6c0-0.1-0.3,1.2-1,3.8c-0.7,2.7-1,5.1-1,7.3c0,1.5,0.4,2.8,1.3,3.8  c1,1.3,2.3,1.9,4.1,1.9c3.4,0,6.9-1.8,10.4-5.4c2.3-2.3,4.2-4.9,5.8-7.7c1-1.8,1.8-3,2.3-3.3c0.5-0.4,1.7-0.6,3.6-0.7  c-0.2,1.2-0.3,1.9-0.3,2.2c0,2.5,0.6,6.3,1.8,11.2c1.4,5.8,2.9,8.7,4.2,8.7C203.2,53.4,203.7,53.7,203.7,54.3z"/>
<path class="st3" d="M249.2,37.3c0,0.5-0.5,1.2-1.5,2c-1,0.8-2,1.2-3,1.2c-1.8,0-3.5-0.7-5.2-2.1c-1.5-1.1-2.6-2.4-3.2-3.8l-5.7,6.8  c-4.6,5.5-7.2,9.8-7.8,13c-0.2,0.8-0.5,1.2-1,1.2c-2.5,0-3.8-0.5-3.8-1.6c0,0.1,0-1.6,0-5.3c-0.1-3.6-0.1-6.4-0.1-8.2  c0-2.2-0.3-5.5-0.8-9.8c0-0.9,0.6-1.3,1.7-1.3c1.3,0,2.7,0.2,4.3,0.6c2,0.5,3,1.1,3,1.8c0,0.8-0.6,3.3-1.6,7.5  c-1.1,4.3-1.6,6.9-1.6,8c0,0.3,0,0.6,0.1,0.7l0.1,0.1c1.7-3.2,5.8-8.3,12.2-15.3l0.3-0.4c0-1.6,0.5-3.1,1.6-4.5c1.1-1.4,2.3-2,3.7-2  c0.5,0,0.7,0.2,0.7,0.6c0.3,1.9,0.7,3.5,1.2,4.9c1.2,3.3,2.9,5.1,5.1,5.4C248.8,36.9,249.2,37.1,249.2,37.3z"/>
<path class="st3" d="M302.3,54.3c0,0.2-0.7,0.6-2,1.2c-4.6,2.1-6.9,3.2-7.1,3.2c-0.6,0-1.9-6.6-3.7-19.7l0.2-0.1v0.1h-0.3  c-2,4-5.2,7.6-9.5,10.9c-4.7,3.7-9,5.5-13.1,5.5c-4.2,0-6.2-2.6-6.2-7.7c0-0.1,0.3-2.4,0.9-7c0.6-4.5,0.9-8.2,0.9-10.9  c0-0.6,0.3-1,0.8-1c0.6,0,1.8,0.3,3.6,1c1.8,0.7,2.6,1.2,2.6,1.6c0-0.1-0.3,1.2-1,3.8c-0.7,2.7-1,5.1-1,7.3c0,1.5,0.4,2.8,1.3,3.8  c1,1.3,2.3,1.9,4.1,1.9c3.4,0,6.9-1.8,10.4-5.4c2.3-2.3,4.2-4.9,5.8-7.7c1-1.8,1.8-3,2.3-3.3c0.5-0.4,1.7-0.6,3.6-0.7  c-0.2,1.2-0.3,1.9-0.3,2.2c0,2.5,0.6,6.3,1.8,11.2c1.4,5.8,2.9,8.7,4.2,8.7C301.8,53.4,302.3,53.7,302.3,54.3z"/>
</svg>