<svg xmlns="http://www.w3.org/2000/svg" viewBox="0 0 226.01 59.45"><defs><style>.cls-1{fill:#fff;}</style></defs><title>Asset 1</title><g id="Layer_2" data-name="Layer 2"><g id="Layer_1-2" data-name="Layer 1"><path class="cls-1" d="M121.4,15.49A7.77,7.77,0,0,0,115,18.29c-2.16,2.62-2.39,6.17-2.39,13.94s.23,11.32,2.39,13.94a8.58,8.58,0,0,0,12.7,0c2.21-2.58,2.39-6.16,2.39-13.94s-.18-11.36-2.39-13.94A7.77,7.77,0,0,0,121.4,15.49Zm2.48,27.6a2.72,2.72,0,0,1-2.48,1.24A2.64,2.64,0,0,1,119,43.09c-1-1.56-1.15-4.88-1.15-10.86S118,22.94,119,21.37a2.64,2.64,0,0,1,2.44-1.24,2.72,2.72,0,0,1,2.48,1.24c1,1.56,1.1,4.88,1.1,10.86S124.85,41.52,123.88,43.09Z"/><polygon class="cls-1" points="133.63 48.61 138.78 48.61 138.78 34.44 146.19 34.44 146.19 29.79 138.78 29.79 138.78 20.5 147.39 20.5 147.39 15.85 133.63 15.85 133.63 48.61"/><polygon class="cls-1" points="150.42 48.61 155.57 48.61 155.57 34.44 162.98 34.44 162.98 29.79 155.57 29.79 155.57 20.5 164.18 20.5 164.18 15.85 150.42 15.85 150.42 48.61"/><rect class="cls-1" x="167.21" y="15.85" width="5.15" height="32.76"/><path class="cls-1" d="M184.6,20.13a2.61,2.61,0,0,1,2.44,1.2,6.12,6.12,0,0,1,.78,3.17H193c-.09-2.9-1-5.38-2.62-6.9a7.89,7.89,0,0,0-5.75-2.12,7.77,7.77,0,0,0-6.35,2.81c-2.16,2.58-2.39,6.17-2.39,13.94s.23,11.36,2.39,13.94A7.77,7.77,0,0,0,184.6,49a7.65,7.65,0,0,0,5.66-2.07,9.82,9.82,0,0,0,2.71-7h-5.15a6.42,6.42,0,0,1-.78,3.22,2.61,2.61,0,0,1-2.44,1.2,2.64,2.64,0,0,1-2.44-1.24c-1-1.56-1.15-4.88-1.15-10.86s.14-9.29,1.15-10.86A2.64,2.64,0,0,1,184.6,20.13Z"/><polygon class="cls-1" points="196.15 48.61 209.9 48.61 209.9 43.96 201.3 43.96 201.3 34.44 208.71 34.44 208.71 29.79 201.3 29.79 201.3 20.5 209.9 20.5 209.9 15.85 196.15 15.85 196.15 48.61"/><path class="cls-1" d="M225,43.24a5.59,5.59,0,0,0-.43-2.14,6.42,6.42,0,0,0-.47-.88h-2.33a5,5,0,0,1,.41.37,3.75,3.75,0,1,1-5.3,5.3,3.75,3.75,0,0,1-.26-5h-2l-.1.24a5.33,5.33,0,0,0-.43,2.14,5.47,5.47,0,0,0,1.59,3.86,5.41,5.41,0,0,0,3.88,1.61A5.46,5.46,0,0,0,225,43.24Z"/><path class="cls-1" d="M221.64,28.47a5.45,5.45,0,0,0-2.12-.43,5.58,5.58,0,0,0-2.14.43,5.38,5.38,0,0,0-2.9,2.9,5.58,5.58,0,0,0-.43,2.14,5.46,5.46,0,0,0,.43,2.12,5.38,5.38,0,0,0,1.16,1.74,5.76,5.76,0,0,0,1.74,1.18,5.58,5.58,0,0,0,2.14.43A5.46,5.46,0,0,0,225,33.51a5.58,5.58,0,0,0-.43-2.14,5.77,5.77,0,0,0-1.18-1.74A5.38,5.38,0,0,0,221.64,28.47Zm.53,7.69a3.73,3.73,0,1,1,1.11-2.65A3.73,3.73,0,0,1,222.17,36.16Z"/><polygon class="cls-1" points="224.98 26.11 224.98 24.41 219.18 24.41 224.27 20.97 219.18 17.55 224.98 17.55 224.98 15.83 213.55 15.83 221.21 20.97 213.55 26.11 224.98 26.11"/><path class="cls-1" d="M225,48.6a1,1,0,1,0,0,2.06,1,1,0,0,0,0-2.06Z"/><path class="cls-1" d="M15,47.54a.26.26,0,0,1-.19-.22,1.38,1.38,0,0,0-.25-.66,1.37,1.37,0,0,1-.25-.66l0-.25a5.51,5.51,0,0,0-.4-.52,1.78,1.78,0,0,1-.33-.61c.21,0,.32-.1.3-.21v-.08a.24.24,0,0,0-.1-.15c-.32,0-.49-.06-.49-.3a5.77,5.77,0,0,1,.08-1,.14.14,0,0,1-.18-.14.35.35,0,0,1,0-.17.36.36,0,0,0,0-.17l-.41,0L13,41.9c.14-.18.21-.3.2-.35l0-.16q-.45.31-.54-.34h-.08c0-.22.19-.41.5-.56v-.08a.47.47,0,0,0-.2-.3.47.47,0,0,1-.2-.3v-.08l.2-.35-.26-.13-.16,0a.48.48,0,0,0,.16-.68c.08-.23,0-.36-.09-.4a.32.32,0,0,1-.24-.3q.43.19.37-.29A5.05,5.05,0,0,1,11.92,35a7.29,7.29,0,0,0-.52-2.68,1.39,1.39,0,0,0,0-.7A4.75,4.75,0,0,1,11.3,31l.12-.34-.2-.3.14-.18a7.82,7.82,0,0,0-.12-1.83q-.18-1-.28-1.81l0-.24a4.3,4.3,0,0,1,.66-.58,1.81,1.81,0,0,1,.78-.27l.2-.36a4.4,4.4,0,0,0,1.34-.42v-.08l.24,0,0-.16a.37.37,0,0,1,.39-.13.75.75,0,0,0,.48-.06l.28-.37.95-.29.21-.27,1.33-.5.29-.29.73-.1a5.05,5.05,0,0,0,.8-.47,2.67,2.67,0,0,1,.81-.4l-.05-.4a3.61,3.61,0,0,0,.86,0,1.05,1.05,0,0,0,.73-.34h.57a.72.72,0,0,1,0-.33.26.26,0,0,1,.22-.19h.08l.11.23a.16.16,0,0,1,0-.25A.73.73,0,0,1,23.3,20l.16,0,.2-.35.26.13.47-.14.1-.5.45,0c.19,0,.31-.05.35-.17l.48-.06c0-.11.09-.24.15-.39a1.93,1.93,0,0,1,.23-.4c.12.09.22.09.29,0a.38.38,0,0,1,.27-.16h.08a.27.27,0,0,1,0-.28c0-.09.12-.11.24-.07a2,2,0,0,0,.06-.75,3.74,3.74,0,0,1,0-.74l.19-.44a1.61,1.61,0,0,0-.78,0,2.48,2.48,0,0,1-.77.06l-.09-.07h-.08c-.11,0-.17.05-.19.11s-.09,0-.21-.05l-.65.08a3.89,3.89,0,0,0-1.61-.11l-1.65.22-1.41.19a3.81,3.81,0,0,0-1.3.42.46.46,0,0,1-.5-.1,1.21,1.21,0,0,1-.55.48,3.46,3.46,0,0,0-.64.41l-.38-.36-.45.31-.09-.07-.39.13a3.82,3.82,0,0,1-.5.56c.08-.23,0-.33-.12-.31l-.16,0c.12.09.12.15,0,.17l-.36,0-.18.51-.52-.18a1.28,1.28,0,0,1-.51.52l-.69.38c.07-.28,0-.41-.21-.38a.14.14,0,0,0-.14.18l.25,0a.39.39,0,0,1-.45.3.4.4,0,0,0-.45.31c.19-.24.14-.4-.14-.47l-.1.5-.38.21-.31-.45-.07-2.37a3.37,3.37,0,0,1,0-.66q.06-.5.1-1.08a8.89,8.89,0,0,0,0-1c0-.3,0-.5,0-.61a3.62,3.62,0,0,0,.19-1.34q.05-1.15.08-1.57l.14-.18,0-.32a.14.14,0,0,1,.14-.18h.08a1.35,1.35,0,0,0,.81-.39,1.36,1.36,0,0,1,.81-.39l.24,0a3.23,3.23,0,0,1,.52-.4l.94-.62a5.69,5.69,0,0,1,1-.5,3.53,3.53,0,0,1,.63-.21q.6-.41.77-.35a1.27,1.27,0,0,0,.71-.18l.21-.27a1.12,1.12,0,0,0,.77-.35l.16,0,.21-.27.18.14.29-.29a.27.27,0,0,0,.28,0,.15.15,0,0,0,.05-.11c0,.07.11.05.21-.05l.28-.32.27.21.21-.27.48-.06a1,1,0,0,1,.41-.3A1.8,1.8,0,0,1,22,4.7q-.22-.38,0-.5A6.13,6.13,0,0,1,22.65,4l.09.07c0-.22.17-.35.44-.39l.24,0a2.44,2.44,0,0,1,0-.74l.52-.4A.54.54,0,0,1,23.78,2a.77.77,0,0,0-.16-.59L23.56.88a1.58,1.58,0,0,1-.48-.51l-.29.28L22,.51l.21-.27C22.12.14,22,.1,22,.11s-.17.05-.19.11-.08.09-.19.11l0-.32-.16,0a1.33,1.33,0,0,0-.54.24,3.33,3.33,0,0,0-.54-.05,1.26,1.26,0,0,1-.55-.13l-.22.19L18,.47A2.22,2.22,0,0,0,16.6,1L16.42.84,14,1.82,13.86,2l-.48.06-.14.18a.38.38,0,0,0-.37.3l-.42-.11-.14.18L11.54,3a1.27,1.27,0,0,1-.46-.39,2.2,2.2,0,0,0-.38-.4l-.5-.1-.28-.29a3.58,3.58,0,0,1-1.19-.33l-.32,0-.14.18-.59-.09a1.58,1.58,0,0,1-.76.43A.55.55,0,0,1,6.48,2q-.18-.14-.64.08a1,1,0,0,0,0,.49,1,1,0,0,1,0,.49l-.48.06.1.72A1.57,1.57,0,0,0,5.19,5a4.52,4.52,0,0,1-.05,1.15q-.38.22-.32.37T4,6.75L3.78,7,3.62,7a1.75,1.75,0,0,1-.92.45l0,.25-.39.13-.59.49a1,1,0,0,1-.7.26,2.17,2.17,0,0,1-.71.83L0,9.42l.06.44.1.77.1.77.06.44a2.87,2.87,0,0,1,0,.82l.09.07a2.68,2.68,0,0,1,.23.46q.12.31.29.37c0,.11,0,.2,0,.24A.34.34,0,0,1,1.1,14l0,.16a2.6,2.6,0,0,0,.82.34,4,4,0,0,1,.81.26l.54-.23.26.13,0-.25.48-.06.27-.45.47-.14q-.06.83,0,2.3a6.78,6.78,0,0,1-.21,2.16c.12.09.2.4.24.91s.07.82.08.93l-.17.6a.41.41,0,0,1,.23.46,1,1,0,0,0,.07.56,1.38,1.38,0,0,1-.49.64l-.46.22a1.92,1.92,0,0,1-.33.33,1.86,1.86,0,0,0-.33.33.55.55,0,0,0-.24.07.35.35,0,0,1-.16.06c.14.25.15.41,0,.45a.6.6,0,0,0-.33.33.47.47,0,0,1,.32-.08c.11,0,.18.1.2.26s0,.17-.06.17q-.32,0-.38.21.25,0,.06.48a4,4,0,0,0,.15,1.13,8.29,8.29,0,0,0,.39,1.1,1.46,1.46,0,0,1,.46.35l.59.46a.94.94,0,0,0,.72.19l.16,0A1.83,1.83,0,0,1,5.8,29,3.16,3.16,0,0,1,6,29.7a3.59,3.59,0,0,1,0,.78c0,.25,0,.51-.06.79a1,1,0,0,1,.2.59,4.2,4.2,0,0,0,0,.61l.27.21-.13.26.31.45V34a2.17,2.17,0,0,1,.17.63,5.32,5.32,0,0,1,0,.94,2.24,2.24,0,0,0,.11.85l.37.28a4,4,0,0,1,.31,1.07A4,4,0,0,0,8,38.79l0,.25.32.53L8.15,40l.17.06q.14.47.39,1.06a2.63,2.63,0,0,1,.22,1.08q.47,1.09.68,1.75c.14.45.28.87.41,1.26s.2.62.21.67a.94.94,0,0,1,.23.5,1.64,1.64,0,0,0,.15.51l.27.21c0,.21.07.32.12.31a.87.87,0,0,1,.23.46,1.53,1.53,0,0,0,.15.47,2.2,2.2,0,0,1,.42.68c0,.11.26.29.73.56l0,.32.11-.42c.18.14.28.24.29.29a.34.34,0,0,1,0,.25.52.52,0,0,0,.53.26h.08l0-.33.37-.29v.08c0,.11,0,.15-.11.14s-.12,0-.1.14l0,.16a1.74,1.74,0,0,0,.69-.71c.25-.39.43-.59.54-.6s.1.05.15.19.09.14.13,0V49l-.19-.22.19-.43-.14-.47.21-.27A.71.71,0,0,1,15,47.54Zm-3.79-2.61c0-.27.11-.43.43-.47C11.65,44.73,11.5,44.88,11.18,44.93Zm2.13,0a.36.36,0,0,1,0-.17.36.36,0,0,0,0-.17h.16C13.52,44.59,13.45,44.71,13.31,44.89Z"/><path class="cls-1" d="M69.68,53.32l.26-.28a2.26,2.26,0,0,0,.26-.34,1.48,1.48,0,0,1-.53.29l-.19.27a4.46,4.46,0,0,1-.94.1l-1,0a1.32,1.32,0,0,1-.45-.32.62.62,0,0,0-.51-.19,1.12,1.12,0,0,1-.48-.45l-.27-.06-.07-.2-.27-.06c-.1-.18-.21-.26-.34-.26H65a2,2,0,0,0-.9-.91l-.21-.33a.22.22,0,0,1-.23,0c-.07,0-.08-.11,0-.2a1,1,0,0,1-.49-.52,3.68,3.68,0,0,1-.62-.58l-.31-.09a.14.14,0,0,0,0-.1c0-.13-.08-.15-.17-.06v-.27l-.27-.19a3.62,3.62,0,0,0-.45-.49.82.82,0,0,1-.32-.49v-.07l-.27-.12v-.13c-.18-.08-.28-.19-.28-.33v-.13a.17.17,0,0,1-.24-.06,1.65,1.65,0,0,1-.18-.26h-.27c.13,0,.13-.18,0-.4a4.43,4.43,0,0,1-.6-.85,4.56,4.56,0,0,0-.6-.85l-.21-.4c-.22,0-.34-.12-.35-.39l-.7-1.05a12,12,0,0,1-.64-1.05l-.14-.06v-.34L56.34,41l-.16-.67-.07-.07a1.73,1.73,0,0,1-.08-.53,1.55,1.55,0,0,1,.52-.55h.2a1.84,1.84,0,0,1,.46-.45,3.9,3.9,0,0,0,.46-.38l-.08-.4.34.12a.66.66,0,0,1,.32-.61.19.19,0,0,1-.13.07s-.07,0-.07-.06v-.07l-.26.08-.06.2a.27.27,0,0,0,.07.2c-.14-.08-.25,0-.33.11a.39.39,0,0,1-.33.24H57A3,3,0,0,1,58,37c0-.09,0-.14,0-.17s.07-.08.06-.17v-.13l.53-.35a1,1,0,0,1,.22-.51A1,1,0,0,0,59,35.2l.46-.42.13-.27.33-.28.06-.34.19-.27.05-.4.2-.14a1.73,1.73,0,0,0,.15-.58,2.12,2.12,0,0,1,.21-.71l.2-.21a.22.22,0,0,1,0-.23c0-.07.11-.08.2,0V31l.13-.21.11-.74L61.5,30l.18-.54-.08-.27h.07a.38.38,0,0,0,0-.27.38.38,0,0,1,0-.27l.13-.14-.14-.26A.24.24,0,0,0,62,28l-.14-.33.13-.27c-.13,0-.24,0-.31-.16a1,1,0,0,1-.11-.37H61.4a.11.11,0,0,0-.08,0,.25.25,0,0,0,0-.26,1.15,1.15,0,0,0-.25-.43l-.34-.26a1.21,1.21,0,0,0-.25-.53c-.12-.13-.27-.28-.45-.46l-.13.27-.21-.13.19-.21a2.77,2.77,0,0,0-1.08-.24q-.94-.1-1.08-.1a4.06,4.06,0,0,0-1,.17,2.35,2.35,0,0,0-.89.5h-.27l-.39.42a1.57,1.57,0,0,1-.53.35l-.06.14-.26.14-.26.34-.13.07a1.91,1.91,0,0,1-.52.59,1.06,1.06,0,0,0-.38.65l-.39.42a1.78,1.78,0,0,0-.32.48l.14.13-.27-.13V29l-.26.21a1.09,1.09,0,0,1-.28.58,1.09,1.09,0,0,0-.28.58c-.18,0-.25.08-.23.24s0,.24-.23.24a1.44,1.44,0,0,1-.24.81l-.2.14-.12.27-.15-2.48V27.08a1,1,0,0,0,.49-.35,4.75,4.75,0,0,0,.35-.48v-.07h.2l.06-.27a1.2,1.2,0,0,1,.32-.34.45.45,0,0,0,.19-.41,1.32,1.32,0,0,1,.46-.35l.06-.27.33-.21.05-.4c.09-.09.26-.31.52-.65a1.8,1.8,0,0,1,.58-.59,1.63,1.63,0,0,1,.71-1v-.27h.2l.18-.54.26-.21a1.77,1.77,0,0,1,.16-.27,2.6,2.6,0,0,1,.23-.27c-.09-.13-.07-.2.06-.2s.15-.07.06-.2a4.49,4.49,0,0,0,.58-.59,2.42,2.42,0,0,0,.45-.72V18a2.82,2.82,0,0,0,.51-.75v-.34l.2-.14.06-.14a.32.32,0,0,1,0-.37.7.7,0,0,0,.09-.37.4.4,0,0,0-.08-.27l.25-.48a1.21,1.21,0,0,1,0-.84,2.92,2.92,0,0,0,.14-.91l.2-.14v-.07a.55.55,0,0,0-.15-.4,3.27,3.27,0,0,0-.09-.74h.07v-.33l-.29-.53c.22-.05.27-.17.16-.34a.41.41,0,0,1,0-.47l-.28-.33a.42.42,0,0,0-.18-.33A.41.41,0,0,1,57,9.42l-.14-.2h-.27a1.19,1.19,0,0,1-.35-.32.45.45,0,0,0-.41-.19h-.07a.63.63,0,0,0-.48-.39l-.21-.13L55,8.07a4.78,4.78,0,0,1-.6,0,4.3,4.3,0,0,0-.54,0,3.72,3.72,0,0,0-.74.09,2,2,0,0,1-.74,0l-.26.21h-.47l-.26.28v.13L51,8.94l-.06.27-.4.15-.06.27L50,9.91l-.06.27a.38.38,0,0,0-.36.21.79.79,0,0,1-.36.35.58.58,0,0,1-.11.64,5,5,0,0,0-.39.52V12a.73.73,0,0,0,.22.53.72.72,0,0,0-.33.28V13a1.22,1.22,0,0,0-.37.88v.13c-.32-.08-.47.06-.46.42a.76.76,0,0,1-.05.54v.2a6.31,6.31,0,0,0-.34,1c-.1.36-.19.68-.27.95s0,.2-.06.2q-.28,1.75-.59,3.64a19.45,19.45,0,0,0-.25,3.77l-.13.07.14.33a2,2,0,0,0-.1,1,.34.34,0,0,0-.12.41,1.1,1.1,0,0,1,0,.54,3.11,3.11,0,0,1,.18,1.57c0,.07,0,.13,0,.2l0,.06-.1-.26a1.56,1.56,0,0,1-.21.74,1.11,1.11,0,0,0-.14.73,3.94,3.94,0,0,0-.6,1.63c-.27,0-.38.21-.34.52l-.17.23,0,.34-.18.16,0,.13a1,1,0,0,0-.28.48,3.52,3.52,0,0,1-.2.53,1.65,1.65,0,0,0-.48.47,2.92,2.92,0,0,1-.52.95,9,9,0,0,1-.74.77l-.27.51-.2,0-.64.83c-.1,0-.15,0-.16.05s-.07.09-.16.06a1.57,1.57,0,0,1-.21.23,1.59,1.59,0,0,0-.21.23.48.48,0,0,0-.2.06.45.45,0,0,1-.19.06.73.73,0,0,1-.6-.19,2.52,2.52,0,0,1-.44-.48l-.21,0a2.1,2.1,0,0,1-.21-.58l-.07-.53a1.64,1.64,0,0,0-.27-.51c0-.13-.06-.34-.12-.63a1.73,1.73,0,0,1,0-.63l-.18-.32.12-.08a1.08,1.08,0,0,0,0-.64,4.24,4.24,0,0,0-.28-.61,6.59,6.59,0,0,0,.06-.82,2.38,2.38,0,0,0-.08-.87l.16-.36-.1-.26.06-.08a7.39,7.39,0,0,0,0-.77,2,2,0,0,1,.11-.72l.06-.08-.07-.53.18-.16c-.09,0-.12,0-.08-.09a.33.33,0,0,0,0-.17,2.49,2.49,0,0,0,.05-.62c0-.31,0-.5.13-.56l0-.27.17-.23c-.06-.08-.06-.13,0-.13a.06.06,0,0,0,.06-.07.73.73,0,0,1,0-.24l.06-.31.13,0q.17-.23,0-.33l.08-.42-.38.19c0,.18,0,.29-.09.35l-.14.49-.27,0c.06-.23.12-.44.19-.63a.92.92,0,0,0,0-.61c.14.07.21,0,.18-.16l0-.13c.08-.1.18-.25.31-.45a1.08,1.08,0,0,1,.39-.39l.42.15a.12.12,0,0,0,.15.12.27.27,0,0,0,.19-.09.86.86,0,0,0,.4.49.71.71,0,0,1,.35.56V25l.43.21,0,.2c.22,0,.34,0,.36.16v.07a4.83,4.83,0,0,1,.78-.24,1.85,1.85,0,0,0,.69-.43l.46-.13.24-.23-.14-.52v-.47l-.26-.44h-.07l0-.13-.23-.17.11-.22-.23-.17-.14-.59-.23-.17-.1-.26a.15.15,0,0,1-.16.05c-.07,0-.11-.06-.12-.15l-.37-.22a.24.24,0,0,1-.31,0,.35.35,0,0,0-.32-.09l-.2,0c-.15-.12-.21-.2-.17-.25a2.39,2.39,0,0,1-1.24.1,4.72,4.72,0,0,0-1.32,0c0,.18-.14.29-.36.32a2.17,2.17,0,0,1-.6.35,2.18,2.18,0,0,0-.6.35l-.13,0-.23.3-.19.09c-.07.19-.16.29-.3.31l-.13,0-.2.57-.43.33a1.56,1.56,0,0,0-.19.33.7.7,0,0,0-.05.38,1.61,1.61,0,0,0-.43.83,1.86,1.86,0,0,1-.37.83,3.24,3.24,0,0,1,0,1.31c-.08.44-.14.86-.17,1.27l-.06.08a4.9,4.9,0,0,1-.13.8,1.39,1.39,0,0,0,0,.78,6.47,6.47,0,0,0-.18,2q0,1.11.16,2a12.3,12.3,0,0,0,.38,1.84q.25.85.51,1.83l.21,0a.66.66,0,0,1,0,.1.79.79,0,0,1-.17.16l0,.24a1.73,1.73,0,0,0-.28.37,1.75,1.75,0,0,1-.39.94,1.78,1.78,0,0,0-.41.71,4.47,4.47,0,0,0-.38.59q-.27.46-.45.47h-.06a2,2,0,0,0-.59-1s.07,0,.09-.06,0-.12-.1-.11l-.15-.65-.07-.11a.05.05,0,0,1,.06-.06s0,0,0-.12h-.12V39.1h-.06a2.3,2.3,0,0,0-.23-.85,1.15,1.15,0,0,1-.1-.8l-.2-.35.11-.07-.13-.17v-.12h-.06a12.49,12.49,0,0,0-.14-1.9A7.54,7.54,0,0,0,29.94,33l.11-.24-.13-.17c0-.24,0-.59,0-1.07a3.19,3.19,0,0,0-.15-1.06,1.75,1.75,0,0,0,.09-.6q0-.54.05-1.22c0-.46,0-.89,0-1.31s0-.75,0-1l-.25-.17a3.25,3.25,0,0,0,.08-.72l-.07-.12-.18-.11V25l-.34-.28a1.69,1.69,0,0,1-.35-.34h-.12l-.25-.22c0,.08,0,.11-.11.1s-.1,0-.06-.09h-.6a5.88,5.88,0,0,0-1.41.26l-.17.13a.14.14,0,0,1,0,.15.14.14,0,0,1-.14.1l.08.35-.29.19.13.23h-.12l.05,1-.11.24q0,.83.07,1.75a7.23,7.23,0,0,1-.17,1.76l.07.23a3.22,3.22,0,0,0-.14.63c0,.22-.06.45-.08.69.08,0,.1,0,.06.08a.3.3,0,0,0-.05.15l-.18,1a1.9,1.9,0,0,0,.05.95l-.11.19-.24,2c-.08,0-.14.18-.19.4s-.09.47-.14.75-.08.54-.11.78,0,.38,0,.42l-.12.07,0,.47-.17.13a1.51,1.51,0,0,1-.16.78,2.15,2.15,0,0,0-.22.84l-.11.19q-.24-.11-.28.25a.68.68,0,0,1-.21.49v.12a2.27,2.27,0,0,1-.38.62.48.48,0,0,1-.11-.35.74.74,0,0,0,0-.35h-.12a.27.27,0,0,1-.08-.29.39.39,0,0,0,0-.3l-.18,0a2.8,2.8,0,0,0-.05-.38,3,3,0,0,1-.05-.44l-.12-.05L22,39.2l-.12-.05c0-.08,0-.29-.1-.65s-.13-.53-.21-.52q-.17-.88-.43-1.79a8.16,8.16,0,0,1-.31-1.8l0-.47a2.68,2.68,0,0,1-.29-.88l0-.24a.72.72,0,0,1-.08-.32l0-.33-.13-.23a4.85,4.85,0,0,1,0-.56,1.89,1.89,0,0,0-.06-.56c-.08,0-.1,0-.06-.08a.3.3,0,0,0,.05-.15l-.08-.41,0-.3c-.08,0-.1,0-.06-.08a.3.3,0,0,0,.05-.15,1.63,1.63,0,0,0,0-.57,1.1,1.1,0,0,0-.09-.5l0-.83a.57.57,0,0,0,.15-.42v-.06l-.29.14a1,1,0,0,1,0,.24.14.14,0,0,1-.14.13h-.06V27.6a2.57,2.57,0,0,1,0-.57,2.64,2.64,0,0,0,0-.57l.17-.07-.07-.23.23-.19a.68.68,0,0,1-.19-.11.7.7,0,0,0-.18-.11l-.27-.52a1.9,1.9,0,0,0-.7-.35,3.11,3.11,0,0,0-.81,0l-.39,0c-.14,0-.22.09-.25.25a1.6,1.6,0,0,0-.71.1.75.75,0,0,1,0,.42.32.32,0,0,0-.22.37v.12c-.08,0-.11,0-.08.1s0,.11-.08.15a.85.85,0,0,1,0,.5,1.3,1.3,0,0,0-.06.51l.06,1c0,.47.06,1,.11,1.48s.09,1,.14,1.42a4,4,0,0,0,.14.83s0,.19,0,.45.12.54.2.85.14.62.2.91.09.48.09.56,0,.23.05.44.07.43.13.65.13.5.23.85a4.16,4.16,0,0,1,.18,1,1.86,1.86,0,0,0,.35,1,3.76,3.76,0,0,0,.05.38c0,.18.07.36.12.56l.15.56c0,.17.11.28.2.32a4.12,4.12,0,0,1,.15.65c.06.32.13.49.21.52l0,.42.06.05c0,.16.07.23.19.23h.06l-.11.25a.7.7,0,0,1,.33.64l.19.23.07.24a.14.14,0,0,1,.15.08.13.13,0,0,1,0,.15c.13.19.27.38.42.57s.29.38.42.57a1.45,1.45,0,0,1,.59.41.47.47,0,0,0,.58.18.34.34,0,0,0,.24.1A16.6,16.6,0,0,0,24,45.69a8.75,8.75,0,0,0,1.73-.45l.05-.12.35-.08.27-.43.23-.07a.19.19,0,0,1,0-.21c0-.06.09-.07.18,0a2.88,2.88,0,0,1,.42-1.07A2.87,2.87,0,0,0,27.65,42l-.25-.16c.07-.2.13-.39.18-.58a1.78,1.78,0,0,1,.24-.52,2.33,2.33,0,0,1,.27.64,1.44,1.44,0,0,0,.27.58l.08.35.18,0,.08.41.18,0a1,1,0,0,0,.45.51l.08.29.18.11.26.4c.2,0,.3,0,.31.16l.61.32H31a.52.52,0,0,0,.3.13h.3l2-.17.22-.25h.12a.47.47,0,0,1,.3,0,.57.57,0,0,1,.34-.26,1.72,1.72,0,0,1,.41-.08q-.08-.35.13-.39a.68.68,0,0,0,.37-.23l-.24,0a.36.36,0,0,0-.26.1.58.58,0,0,1-.38.11.21.21,0,0,1,.25.22v.06l-.17.07s-.07,0-.09-.08-.09-.06-.21,0,0,.07,0,.09a.1.1,0,0,1,.06.09.05.05,0,0,1-.06.06L34.25,44l.11-.12a2.33,2.33,0,0,0,.1-.3.38.38,0,0,0,0-.3l.12-.07V43l.31.28.05-.12s0-.1-.13-.17l.21-.43a.58.58,0,0,1-.07-.26.6.6,0,0,0-.07-.26.26.26,0,0,1,.31.28v.06l0-.36.22-.25v-.18l.17-.13h-.12a.19.19,0,0,0-.17.13c0,.08-.07.12-.11.12v-.06l.39-.44-.11.18c.16,0,.23-.07.23-.19a.35.35,0,0,0-.13-.23l.13.11.11-.19a.15.15,0,0,1,0-.24.34.34,0,0,0,.11-.24v-.06c.15,0,.25-.19.32-.39a4.51,4.51,0,0,1,.71.41,2.84,2.84,0,0,0,1.07.4l.16.18h.41l.08.12h.27c.14,0,.21,0,.21.07a1.54,1.54,0,0,1,.3,0h.3q.46-.06.89-.15t.89-.15a2.26,2.26,0,0,0,1,.14,6.19,6.19,0,0,0,.76-.17A1.76,1.76,0,0,0,44,40.5h-.54a1.16,1.16,0,0,1,.33-.28,1.13,1.13,0,0,1,.42-.16l.28-.44.2,0,.17-.23.81-.51.08-.42.72-.7-.14,0c-.13,0-.23.14-.29.38a1.9,1.9,0,0,0-.54.27,5.24,5.24,0,0,0-.59.42l-.27,0a5.19,5.19,0,0,1,.78-1,3.73,3.73,0,0,0,.71-1,.52.52,0,0,1,0-.36,1,1,0,0,0,0-.37l0-.13.42-.39V35l.06-.05c.06.35.13.76.23,1.25A7.83,7.83,0,0,1,47,37.39a2.42,2.42,0,0,1,0,.67l.14.33a4.85,4.85,0,0,0,.28,1.47,4.83,4.83,0,0,1,.28,1.47l-.06.2.07.2.27.06V42a3.2,3.2,0,0,1,0,.6.5.5,0,0,0,.22.53l.13-.27v.27a1.15,1.15,0,0,1-.05.47c.09,0,.14,0,.17.06a1.15,1.15,0,0,1,0,.27l.14.2a.22.22,0,0,0-.06.27.43.43,0,0,0,.21.19,1.76,1.76,0,0,0,.17,1,3.3,3.3,0,0,1,.3,1,1.18,1.18,0,0,1,.14.33.38.38,0,0,1-.12.27l-.28-.26a.2.2,0,0,0,.06-.14l-.07-.07-.08-.47-.2-.06a2.52,2.52,0,0,1,.19.67,6.67,6.67,0,0,0,.12.67H49a.32.32,0,0,0,.23-.11c.07-.07.14-.06.24,0q0,.88,1,1c0-.22,0-.31.16-.27a.83.83,0,0,0,.3.06v-.07c.09.18.22.21.37.09a1.7,1.7,0,0,1,.43-.25c.18.17.34.21.47.12l.06-.27q0,.4.48.25t.6,0a.89.89,0,0,0,.18-.68l.2-.14-.14-.2h-.13a.19.19,0,0,0,.07.13s0,.09-.06.14L53,47.13l.06-.34a.88.88,0,0,1-.21-.43,2.36,2.36,0,0,1-.08-.5l.19-.34a.35.35,0,0,0-.07-.17c0-.07,0-.1.06-.1L53,45l-.07-.06.06-.34-.14-.13-.15-.4a.5.5,0,0,0,.12-.37,1.39,1.39,0,0,1,.05-.44.85.85,0,0,1-.35-.53l.05-.47h-.27L52.07,42l0-.54-.27-.19.12-.41.22.46-.06.14c.14.13.21.22.21.26v.13l.27.06a1.18,1.18,0,0,1,.25.36,1.12,1.12,0,0,1,.11.43l.34.26.08.47.35.46c.09-.09.14-.07.17.06a2.41,2.41,0,0,1,0,.27,1,1,0,0,1,.45.42l.32.56.14.06v.27H55l.15.4.14.06a1.31,1.31,0,0,1,.25.33,1.25,1.25,0,0,0,.25.33c0,.09,0,.15,0,.17s.08.08,0,.17a1.5,1.5,0,0,1,.48.35,4.9,4.9,0,0,1,.35.42V48l.34.06v.33l.41.32.14.26.27.19.14.26a.21.21,0,0,0,.2.13h.07a.8.8,0,0,0,.28.43,4.39,4.39,0,0,0,.41.29,1.41,1.41,0,0,0,.7.85c.36.21.57.43.63.65a.71.71,0,0,1,.45.32,1.32,1.32,0,0,0,.38.39l.2.06.69.65h.2a2.49,2.49,0,0,0,1.31,1.07,3.28,3.28,0,0,1,1.37.93h.27l.14.2a1.94,1.94,0,0,1,.37,0l.37.09.07.13a2,2,0,0,1,.61,0l.27-.08.4.05.2-.21v.27h.13c.09,0,.17-.09.26-.28l.27-.08.19-.21a4,4,0,0,0,.6-.19,3.79,3.79,0,0,1,.6-.19c-.05-.22,0-.36.16-.41l.43-.15c-.1-.18-.09-.3,0-.37a.33.33,0,0,0,.16-.31V53.5A1.21,1.21,0,0,1,69.68,53.32Zm-8-25.12v.07s-.07-.09-.08-.27Zm-.33-1.29a.12.12,0,0,0,0,.1c0,.09,0,.09-.17,0A.32.32,0,0,0,61.31,26.91Zm-.5-.56a.47.47,0,0,0,0-.2.39.39,0,0,1,.14.26s0,.07-.13.07h-.07A.3.3,0,0,1,60.81,26.35Zm-.46-.86s.11,0,.21.13l-.33.08C60.22,25.56,60.26,25.49,60.35,25.49Zm-1-.71s.11,0,.21.13a.06.06,0,0,1-.06.07.39.39,0,0,1-.27-.06A.12.12,0,0,1,59.32,24.78Zm-.79.5v.2h-.27v-.2ZM55.73,10.8a.13.13,0,0,1,0,.27h-.07V10.8ZM51,16.59l.13-.14L51,16.39a2.07,2.07,0,0,0,.31-.82,5.16,5.16,0,0,1,.18-.81l.2-.14a.54.54,0,0,1,0-.33.32.32,0,0,1,.23-.28A1.48,1.48,0,0,1,52,13.1a1.64,1.64,0,0,0,.28-.71,1.31,1.31,0,0,1,.58-.62l.19-.34.53-.39a1.09,1.09,0,0,1,.6-.25,1.31,1.31,0,0,1,.66-.29H55a1.68,1.68,0,0,1,.15.6q0,.27,0,.6a1.2,1.2,0,0,0-.11.81q.08.47,0,.61a1.37,1.37,0,0,0-.25.54l-.2.21v.33l-.13.2-.2.14-.18.54-.46.48v.27l-.52.55c0,.09,0,.16,0,.2s-.07.12,0,.2l-.33.28v.2c-.27.1-.39.26-.39.48v.07c-.09-.09-.16-.08-.2,0a.6.6,0,0,0-.06.27h-.2l-.06.27-.2.07a1.5,1.5,0,0,0-.19.48.32.32,0,0,1-.33.28l0-.74v-.33h.2v-.2l.18-.54a1.93,1.93,0,0,1,.33-1.18,2.94,2.94,0,0,0,.47-1.12L52.17,15s-.07,0-.06.14,0,.13-.06.14a.06.06,0,0,1-.07-.06v-.07l-.05.47a.28.28,0,0,0-.33.11.57.57,0,0,0-.12.37,3.59,3.59,0,0,1-.21.88c-.14.45-.3.68-.48.69ZM19.72,27.78h.06s.06,0,.07.12v.18Zm1.45,17.53v-.18h.12v.18Zm6.37-4.25a2.16,2.16,0,0,0-.2.7c0,.16,0,.2-.11.13l0,.42H27l0,.42-.16.25c0,.08,0,.13,0,.15s-.07.07,0,.15l-.17.19,0,.24-.61.75a.21.21,0,0,1-.22.25,1,1,0,0,1-.17.25.34.34,0,0,1-.23.13h-.06L25.2,45a.25.25,0,0,1,.14-.22l.26-.16a.58.58,0,0,1,.22-.37,1.9,1.9,0,0,0,.28-.25l0-.3.17-.19.09-.54a.45.45,0,0,0,.25-.25.8.8,0,0,0,.07-.36l.06-.06a3.67,3.67,0,0,0,.38-1.12A6.55,6.55,0,0,1,27.48,40l.2.41A1.4,1.4,0,0,1,27.54,41.06Zm2.24,2.88v-.18h.12v.18Zm17-10.17h-.06s0,0,0,0Zm-.18,1.09.07-.06a2,2,0,0,0,.05-.3.22.22,0,0,1,.08.07v.34Zm4.92,5.54a2,2,0,0,1,0-.33c.13,0,.21.11.21.33v.27A.34.34,0,0,1,51.52,40.4ZM52,29.71a.12.12,0,0,0-.13.14l-.07-.06s0-.09.13-.14a.52.52,0,0,1,.2-.07A.12.12,0,0,1,52,29.71Zm2,5.17h-.2a.73.73,0,0,0-.25.48l-.33.08-.19.21v-.2a1.15,1.15,0,0,1,.05-.47q.34.06.39-.38a4.19,4.19,0,0,1,.11-.64c.09,0,.16,0,.2,0a.22.22,0,0,0,0-.23l.2-.14a.15.15,0,0,1,0-.17.15.15,0,0,1,.16-.11l.12-.41.13-.07.12-.47a1.13,1.13,0,0,1,.45-.48V31.7a1.68,1.68,0,0,0,.38-.75l.2-.14v-.13c.22-.1.33-.23.32-.41v-.13a3.69,3.69,0,0,1,.29-.28,1.74,1.74,0,0,1,.3-.21,1.54,1.54,0,0,1,.42-.65,4.33,4.33,0,0,0,.49-.59l.27-.08a.24.24,0,0,1,.26-.27H58a.39.39,0,0,1-.19.34l-.33.21a3.74,3.74,0,0,0-.58.62q-.39.48-.77,1l-.71,1a1.49,1.49,0,0,0-.31.68L55,32.1l-.15.47a.8.8,0,0,1-.29.41v.13l-.2.14a.55.55,0,0,1,0,.33.32.32,0,0,1-.23.28l.21.26-.05.4A1.43,1.43,0,0,1,54.07,34.88Zm1.76-1.67a.6.6,0,0,1-.39.42.9.9,0,0,1-.38.82,1.73,1.73,0,0,0-.58.69l-.14-.06V35a.45.45,0,0,1,.12-.34V34.4l.31-.81.33-.21V33l.2-.07.12-.41c.09,0,.13-.09.13-.27h.13l.19-.48.2-.14a.44.44,0,0,1,.09-.27.24.24,0,0,0,0-.27.76.76,0,0,0,.26-.28,3.14,3.14,0,0,1,.19-.34.87.87,0,0,0,.23-.18l.23-.24.06-.27.2-.14.06-.27h.27a1.13,1.13,0,0,1-.21.71,1,1,0,0,0-.21.64l.07.2L57,31.5l-.2.14a.82.82,0,0,1-.45.55l-.18.61A.6.6,0,0,0,55.83,33.22Zm13.8,20.44s-.11,0-.21-.13a.06.06,0,0,1,.06-.07.39.39,0,0,1,.27.06A.12.12,0,0,1,69.62,53.66Z"/><path class="cls-1" d="M63.07,21.77l.21.39a.67.67,0,0,0-.06.3.67.67,0,0,1-.06.3,4.65,4.65,0,0,0,.28.56,4.77,4.77,0,0,1,.28.56l1.17.53a2.8,2.8,0,0,0,1.23.26l.26-.07.27.06a4.53,4.53,0,0,1,.65-.36,1.61,1.61,0,0,0,.19-.44.83.83,0,0,1,.19-.37l-.21-.33.06-.27-.07-.06-.22-.53.12-.34-.14-.13-.08-.4q0-.6,0-1.34a7.81,7.81,0,0,1,.13-1.35l-.21-.26c.09-.09.08-.2,0-.33l.06-.27L67,17.42l0-.54.19-.21a.06.06,0,0,0-.07-.07s-.11.06-.2.17-.13.06-.14-.16,0-.26.16-.24,0-.21-.19-.7v-.27h-.13v-.2a1.57,1.57,0,0,1,0-.3c0-.11,0-.19-.17-.23l-.06.2-.07-.27-.21-.26.2-.07-.66-.18a.34.34,0,0,1,.06-.17c0-.07,0-.1-.07-.1h-.07l-.12.27h-.13a2.33,2.33,0,0,1-.25.51,1,1,0,0,0-.18.44l-.25.28-.05.4a.09.09,0,0,0-.13,0s0,.11,0,.2l-.12.21a.06.06,0,0,1-.06.07.06.06,0,0,0-.06.07,1.05,1.05,0,0,1-.09.37.57.57,0,0,1-.22.31l-.11.61-.13.14v.33l-.2.21a1.49,1.49,0,0,0-.05.47.45.45,0,0,1-.19.41l.08.4-.06.07q0,.4,0,1a5.41,5.41,0,0,1,0,1Z"/><path class="cls-1" d="M107.75,47.24l.13-.07a.62.62,0,0,0-.15-.53l.13-.07v-.4q0-.27,0-.7c0-.29,0-.6,0-.94s0-.64-.06-.91a2.77,2.77,0,0,0-.12-.6l.13-.21a1.06,1.06,0,0,0-.16-.73q0-1.14-.1-2.25c0-.74-.08-1.48-.1-2.25,0,0-.07,0-.07-.1s0-.1.06-.1a2,2,0,0,1-.09-.6,6,6,0,0,1,0-.91,1.77,1.77,0,0,0-.09-.84l-.21-.19c.09,0,.14-.08.16-.24a4.71,4.71,0,0,0,0-.6,6.24,6.24,0,0,0-.05-.67A.75.75,0,0,0,107,33q0-.27,0-.64a.77.77,0,0,1,.18-.58l-.21-.13,0-.87a1.85,1.85,0,0,1,.11-.81,2.19,2.19,0,0,1-.05-.67,6.63,6.63,0,0,1,.08-.67l-.08-.27.13-.21s0-.13.13-.27l.05-.47a6.49,6.49,0,0,0-.4-2.07l-.27-.19-.2.07a1.13,1.13,0,0,0-1.1-.77,1.9,1.9,0,0,0-.37,0,.72.72,0,0,1-.37,0V24l-.26.21h-.27a.4.4,0,0,0-.34-.19h-.07a.8.8,0,0,0-.29.45,2.21,2.21,0,0,1-.22.51l-.42-.46a.82.82,0,0,1-.69-.52,1.65,1.65,0,0,1-.75-.38l-.54-.12c0-.09,0-.12-.1-.1s-.12,0-.17-.09l-.61-.18-.26.21a4.85,4.85,0,0,0-1.34-.06,1.5,1.5,0,0,0-1.13.47l.21.13L97,23.82a.13.13,0,0,1-.06.2.58.58,0,0,1-.27.08l-.06.34-.27.08a2,2,0,0,1-.45.55h-.2a.45.45,0,0,1,.11.16c0,.07,0,.12-.1.17,0-.22-.05-.24-.14-.06a1.21,1.21,0,0,0-.12.34,1,1,0,0,0-.31.75v.13c-.18,0-.27.05-.26.28a2.78,2.78,0,0,1-.25.41v.47l-.19.21a2.09,2.09,0,0,1-.24.81l-.13.07a2.83,2.83,0,0,1-.23,1.28l.21.4-.06.27-.2.14,0,.6h-.2v.33l-.06.07a2.61,2.61,0,0,0-.11.84,5.26,5.26,0,0,1,0,.84l-.07.07,0,.81a1.66,1.66,0,0,1-.14.27l-.4.21-.06.2-.27.08-.06.34c-.31,0-.47.11-.46.28L92,36l-.4.15a.56.56,0,0,1-.22.54.65.65,0,0,0-.29.48l-.4.15.08.27-.26.34a1,1,0,0,0-.45.55,5.76,5.76,0,0,1-.81.83,1.74,1.74,0,0,0-.61,1,1.85,1.85,0,0,0-.55.55,1.86,1.86,0,0,1-.55.55L87.36,41l.06-.2a2.94,2.94,0,0,1-.17-1.2l-.14-.13.13-.07L87.1,39a.42.42,0,0,1,0-.27s0-.11,0-.2l.06-.2a5.05,5.05,0,0,1-.1-.94l.06-.14a2.77,2.77,0,0,1-.06-.74q0-.34.08-.74L87,35.6l.06-.34a.88.88,0,0,1-.09-.87,2.24,2.24,0,0,1-.05-.67,6.68,6.68,0,0,0,0-.67l-.14-.33.19-.34c-.18-.08-.27-.28-.25-.6s0-.54,0-.67l-.22-.53.26-.14a.61.61,0,0,1-.19-.6,1.09,1.09,0,0,0,0-.6l-.14-.2v-.4a1.08,1.08,0,0,1-.22-.66l-.14-.06L86,27.58a.31.31,0,0,1-.21-.33v-.13l-.35-.33h-.13L85,26.6,85,26.47h-.47l.06-.14a1.22,1.22,0,0,0-.74-.11,3,3,0,0,1-.81,0,2,2,0,0,1-.43.32,2.05,2.05,0,0,0-.43.32L82,26.69l-.12.54-.14-.13a.72.72,0,0,0-.12.41,1.32,1.32,0,0,1-.05.4.52.52,0,0,0-.53.35.81.81,0,0,1-.46.48l-.25.48v.2a2.85,2.85,0,0,0-.7,1.23l-.2.07-.06.27a.42.42,0,0,0-.19.24c0,.11-.08.22-.12.31a.06.06,0,0,1-.07.07.06.06,0,0,0-.06.07l-.19.34a.68.68,0,0,1-.12.44.58.58,0,0,0-.12.37,1.2,1.2,0,0,0-.35.55,2.73,2.73,0,0,1-.15.54l-.06.07a2.07,2.07,0,0,0-.12.47c0,.23-.1.34-.19.34a3.16,3.16,0,0,0-.28.71,2.64,2.64,0,0,0-.15.71l-.19.34.07.06-.12.27a2.17,2.17,0,0,1,0,.34c0,.13-.07.2-.16.21h-.07l0-.6h-.07a.19.19,0,0,1,.06-.14l-.14-.06.12-.54A5.38,5.38,0,0,1,76.4,34a8.63,8.63,0,0,0-.07-2.15l.2-.14a.36.36,0,0,1-.11-.33,1.17,1.17,0,0,1,.09-.34l-.08-.27.11-.88-.07-.13.13-.27a2.53,2.53,0,0,1-.11-.43.6.6,0,0,1,.09-.44,1.33,1.33,0,0,1-.35-.46v-.34l-.48-.45-.08-.27a1.19,1.19,0,0,0-.37-.22,1.14,1.14,0,0,0-.44-.09h-.13l-.41-.39q-.13.27-.33.21a.29.29,0,0,0-.27-.09.27.27,0,0,1-.27-.09q-.12.41-.46.42a.27.27,0,0,1-.2-.06l.08.4h-.2v.4l-.25.61.14.33a5.3,5.3,0,0,0-.13,1.35,6.52,6.52,0,0,0,.07,1.27c-.09,0-.15,0-.17,0s0,.12.11.17a8.69,8.69,0,0,0,0,1.52l-.26.09a.56.56,0,0,1-.12.54,2.65,2.65,0,0,0-.18.54,2.63,2.63,0,0,1-.18.54l-.07.07-.05.54a1.41,1.41,0,0,1-.33.28V36a2.28,2.28,0,0,0-.47,1.22,1.63,1.63,0,0,1-.6,1.16l.08.27-.06.07-.07-.06v.27l-.26.21a.52.52,0,0,1-.32.55c0,.09,0,.14,0,.17s-.08.08,0,.17a1.22,1.22,0,0,0-.18.61v.07a.88.88,0,0,0-.39.42,4.7,4.7,0,0,1-.25.48l-.21-.13a.76.76,0,0,1-.08-.33.39.39,0,0,1,.06-.27,3.37,3.37,0,0,1-.16-.93,3.44,3.44,0,0,0-.16-.94l.06-.34a6.61,6.61,0,0,1-.22-1.81q0-1,0-1.88l0-.67a2.21,2.21,0,0,1,0-.77,2.24,2.24,0,0,0,0-.77s.07,0,.07,0,0-.08-.07,0a2.46,2.46,0,0,0,0-1.14A.81.81,0,0,0,68,31a5.35,5.35,0,0,1-.05-.54l.13-.27-.14-.26.13-.07v-.34a7.2,7.2,0,0,0-.25-1.74l-.21-.26-.08-.33-.54-.25v-.27a5.05,5.05,0,0,1-1.09-.2q-.83-.21-1-.07l-.26-.06-.39.08a.44.44,0,0,0-.33-.12c-.18,0-.26.05-.26.14a.21.21,0,0,0,.14.2.22.22,0,0,1,.14.2v.07l-.25.28v.07a.21.21,0,0,0,.14.2c.09,0,.09.13,0,.27h-.07a.21.21,0,0,1-.2-.13c0-.09-.14-.11-.27-.06s0,.31.21.4l-.19.34.27.19.09.6q0,1.14,0,2.32t0,2.32l-.13.07.15.4-.13.27.14.06v.4l-.13.07a.74.74,0,0,0,0,.44c0,.16.1.3.15.43l-.12.47c.18,0,.22,0,.14.06s-.13.09-.13.14l.14.06a.56.56,0,0,1-.12.54l.14.13a2.82,2.82,0,0,1,.1,1.07,10,10,0,0,0,0,1.14.45.45,0,0,0-.05.44,2,2,0,0,0,.15.43l0,.87.07.07-.06.14.22.8-.13.07.2.2-.06.34h.07v.2l.22.67a5.76,5.76,0,0,1,.17,1.07l.34.26v.34a1.11,1.11,0,0,1,.48.49,1.56,1.56,0,0,0,.48.56l.47.12a.42.42,0,0,0,.4.26h.13l.47.32.06-.14a.34.34,0,0,0,.37.16,1.2,1.2,0,0,0,.36-.11,1,1,0,0,0,.4.12,1.18,1.18,0,0,0,.53-.15h.34a1.33,1.33,0,0,1,.46-.35v-.27a.15.15,0,0,0,.07.06.58.58,0,0,0,.27.06c0-.13,0-.29.19-.48h-.33a1,1,0,0,1,.4-.15h.2l-.19.34a.42.42,0,0,0,.46-.38.38.38,0,0,1,.39-.38h.07a3,3,0,0,1,.25-.54,3.06,3.06,0,0,0,.25-.54c-.18,0-.24,0-.18-.3a3.14,3.14,0,0,1,.15-.51l.22.53-.13.21.2-.14-.07-.13.06-.27h-.07a1.16,1.16,0,0,0,.38-.82l-.07-.2c.22-.05.3-.15.23-.31s0-.28.22-.37a.46.46,0,0,1-.11-.4.78.78,0,0,1,.08-.28A4.59,4.59,0,0,1,73,42q.09.7.1,1.24l0,.54a1.27,1.27,0,0,1,.25.33.87.87,0,0,1,.11.4l-.06.34.21.26a.69.69,0,0,1,.28.29c0,.11.16.16.34.16v.27c.31,0,.47.08.48.25l.34.26a3.52,3.52,0,0,0,.71.18,1.86,1.86,0,0,0,.7,0,.12.12,0,0,0,.14.13.7.7,0,0,0,.37-.11,1.55,1.55,0,0,0,.29-.25l.13-.2c.14.09.23.09.27,0a.22.22,0,0,1,.2-.11H78a3.11,3.11,0,0,1,.51-.82.75.75,0,0,1,.13-.21.77.77,0,0,0,.13-.21l.13-.07A1.26,1.26,0,0,0,79,44.3a.39.39,0,0,1,.19-.34l-.08-.27h.13v-.13h.07c0-.14.08-.29.12-.47a.85.85,0,0,1,.19-.41l.05-.47.13-.07-.07-.07.2-.21-.07-.06c0-.23.12-.58.24-1s.26-1,.42-1.49.3-1,.43-1.42a3.61,3.61,0,0,0,.17-.84l.2-.21-.14-.2h.07a7.93,7.93,0,0,0,.6-1.33,9.47,9.47,0,0,0,.39-1.39l.13-.07.06-.34h.27q0,1,0,2a9.26,9.26,0,0,0,.13,1.94l-.06.2A5.87,5.87,0,0,1,82.9,39,6.46,6.46,0,0,0,83,40.49l.07.07a5.19,5.19,0,0,1,.13,1c0,.54.06.85.06.94a1.7,1.7,0,0,1,.37,1c.14.13.19.22.14.26a.33.33,0,0,1,.07.23c0,.11,0,.17.14.16l.15.4a4.54,4.54,0,0,1,.56.65,1.37,1.37,0,0,1,.55.35,2.79,2.79,0,0,0,.48.42H86l.14.2.27.13.33-.14.4.05a.6.6,0,0,0,.38.32.64.64,0,0,1,.38.26H88a.19.19,0,0,0,.13-.07.06.06,0,0,0-.07-.07L88,46.58l.2-.14.41.19.33-.08a1.92,1.92,0,0,1,.39-.35v-.07c0-.09,0-.13-.1-.13s-.1,0-.1-.13v-.13a1.69,1.69,0,0,1,.4-.21.82.82,0,0,0,.33-.21L89.76,45l.39-.35a.43.43,0,0,0,.19-.27c0-.14.1-.21.19-.21h.07a.43.43,0,0,1,0-.33.75.75,0,0,0,.06-.34.61.61,0,0,0,.46-.45.81.81,0,0,1,.45-.52l.06-.14a.55.55,0,0,0-.21-.33l.26-.28a.28.28,0,0,0,.27,0,.13.13,0,0,0,.06-.2l-.14-.13.19-.21-.08-.4c.27.08.4,0,.39-.28a.77.77,0,0,0-.08-.33h.4c0-.09.09-.19.16-.31l.16-.31-.15-.4a.87.87,0,0,0,.33-.36c0,.36,0,.57,0,.61a1,1,0,0,0-.12.41,2.35,2.35,0,0,0,.12.67c.07.22.16.44.26.66l.07.06.09.6.21.13v.4l.21.13.08.27a1.08,1.08,0,0,1,.65.52q.31.46.46.72l.41.19.07.2c.14.13.26.26.38.39a.62.62,0,0,0,.51.19h.07a1.19,1.19,0,0,0,.75.55,2.8,2.8,0,0,0,.95.2,7.82,7.82,0,0,0,.87-.16,2.12,2.12,0,0,0,.86-.29,1.29,1.29,0,0,1,.4-.08.71.71,0,0,0,.4-.15l.06-.27.4-.15v-.13a1.33,1.33,0,0,0,.32-.48,2.6,2.6,0,0,0,.65-.49v-.13a.55.55,0,0,0,.19-.34l-.07-.13.26-.14v-.13l.2-.14.05-.4.33-.28h.07l.19-.41a2.83,2.83,0,0,1,.12.57c0,.25.06.51.09.8s.05.57.06.84,0,.47,0,.6a2.3,2.3,0,0,1-.11.94v.4l.07.13V46q-.13,0-.06.1a.34.34,0,0,1,.07.17,1.22,1.22,0,0,1-.05.44.72.72,0,0,0,.08.5,1.62,1.62,0,0,0-.08.5c0,.25,0,.52,0,.81s0,.56,0,.8l0,.57-.13.21a1.41,1.41,0,0,0,0,.54l-.19.21q.33,0,.21.16a.87.87,0,0,1-.26.24l.21.2-.2.07a3.77,3.77,0,0,0-.16,1.21,1.47,1.47,0,0,0-.25.58,2.89,2.89,0,0,0,0,.64s-.11.08-.19.24l-.29.51a5.83,5.83,0,0,0-.29.54,1.14,1.14,0,0,0-.12.34.76.76,0,0,0-.5.32.58.58,0,0,1-.5.25l-.27-.06a1.72,1.72,0,0,0-.38-.26c-.16-.09-.24-.17-.24-.26H100c-.18,0-.23-.06-.14-.2l-.48-.46-.34-.06-.25-.46a2.27,2.27,0,0,1-.18-.46l-.55-.52c0-.13,0-.21-.07-.23s-.14-.05-.14-.1v-.2h-.07a3.65,3.65,0,0,1-.5-.82,2.65,2.65,0,0,1-.16-.9,1,1,0,0,1-.56-.86v-.2c-.27,0-.43-.08-.48-.25l-.2-.06-.28-.53-.06.14a.6.6,0,0,0,.11.3q.11.16-.09.24a.54.54,0,0,1-.38-.46c0-.22-.07-.44-.12-.67l-.27-.19v-.27l-.14-.2a2.08,2.08,0,0,0,.08.57c0,.16.1.34.15.57l-.19.27a3,3,0,0,1,.26,1,1.58,1.58,0,0,0,.4.93c-.09,0-.12,0-.1.14s.06.11.1.06a.8.8,0,0,0,.08.53l-.06.27.14.13v.27c.1.22.22.52.36.89s.27.67.36.9l.14.06a.73.73,0,0,1,.22.53v.07l.48.32a.44.44,0,0,0,0,.44.83.83,0,0,1,.11.43c.18,0,.27,0,.28.26v.07a5.13,5.13,0,0,0,.59.59,4.75,4.75,0,0,1,.59.58l-.13.21a1.05,1.05,0,0,1,.74.11l.08.4a1.12,1.12,0,0,1,.38.19.58.58,0,0,0,.37.12.27.27,0,0,0,.2-.07h-.13a.06.06,0,0,1-.07-.06h.07l.13.06a.12.12,0,0,1,.14.13l-.06.07.64.08a2.39,2.39,0,0,1,.64.15.43.43,0,0,1,.39-.28h.07a.32.32,0,0,0,.3.09.45.45,0,0,1,.3,0,1.43,1.43,0,0,1,.5-.22.61.61,0,0,0,.43-.35l-.2-.06.2-.21a.24.24,0,0,0,.28.26h.07a.22.22,0,0,1,.19-.24,1.92,1.92,0,0,1,.33,0h.13l.13-.21.26-.14-.14-.13a.28.28,0,0,0,.3,0,.33.33,0,0,1,.23-.11h.07a2.7,2.7,0,0,1,.65-.82l-.21-.33h.27l.19-.28V56s.11-.1.19-.31.17-.43.25-.68.16-.49.25-.71a1.55,1.55,0,0,0,.12-.47.39.39,0,0,0-.08-.27c.18.08.25,0,.19-.21v-.2l.07.07.07.13v-.67l.19-.27a2.34,2.34,0,0,1,0-.67.22.22,0,0,1-.08-.27.62.62,0,0,0,.06-.27v-.13l.13-.21a5.69,5.69,0,0,1,0-.64q0-.3.08-.64l-.15-.4a2.68,2.68,0,0,1,.08-.71,1.53,1.53,0,0,0,0-.71l.13-.27Zm-36.45-2.3.06-.14s.07.09.08.27Zm.76-1.57H72v-.27h.07a.13.13,0,0,1,0,.27Zm.6-2.43h0v0ZM93.05,38.5a.36.36,0,0,0,.14,0v.12ZM103,29.4a6.81,6.81,0,0,1-.17,1.15l-.07.07a4.86,4.86,0,0,1-.16,1.41,12.9,12.9,0,0,0-.29,1.42,2.11,2.11,0,0,0-.22.41c-.1.23-.21.47-.31.71s-.2.5-.28.75a2.26,2.26,0,0,0-.12.44l-.07.07v.27l-.2.21-.19.48-.12.27s-.07.08-.06.1,0,.06-.06.1a.19.19,0,0,0-.06.14l-.43,1.16-.07.07-.19.48c-.09,0-.16,0-.2,0a.22.22,0,0,0,0,.23l-.2.14v.2a1.57,1.57,0,0,0-.23.31,1.84,1.84,0,0,0-.16.37l-.2.14c0,.18-.06.27-.19.27a1.79,1.79,0,0,1-.38.62.84.84,0,0,1-.6.29h-.07c-.15-.57-.28-1.14-.39-1.7a11.18,11.18,0,0,1-.19-1.77,5.88,5.88,0,0,1,0-.91,6,6,0,0,0,0-.91s.07,0,.06-.1,0-.1-.07-.1c0-.22.07-.56.1-1s.07-.91.13-1.38.12-.9.2-1.28a1.65,1.65,0,0,1,.31-.78l-.07-.13c.08-.18.17-.38.25-.61a1,1,0,0,0,0-.61l.31-.75a.31.31,0,0,0,0-.13s0-.09.1-.14a2.25,2.25,0,0,0,.12-.37.52.52,0,0,0,0-.37A.91.91,0,0,0,99,28a2.89,2.89,0,0,0,.11-.74.33.33,0,0,0,.36-.35.42.42,0,0,1,.36-.41l.39-.28a1.19,1.19,0,0,0,.74.18,1.86,1.86,0,0,1,.7.85l.47.19.28.26c.09,0,.13,0,.13-.07s0-.2.13-.21v.2l.21.2.07.27-.06.07.07.07Q103,28.73,103,29.4Zm-1.9,29.79h-.27a.64.64,0,0,1,.46-.22v.07C101.27,59.14,101.21,59.19,101.07,59.19Zm.4,0h0Z"/></g></g></svg>