<svg xmlns="http://www.w3.org/2000/svg" width="307" height="29" fill-rule="evenodd" clip-rule="evenodd" image-rendering="optimizeQuality" shape-rendering="geometricPrecision" text-rendering="geometricPrecision" viewBox="0 0 50.51 4.74"><defs><style>.fil0,.fil1{fill:#b0ca35;fill-rule:nonzero}.fil1{fill:#fff}</style></defs><g id="Layer-214"><g id="_1877438528"><path d="M1.4 4.07a.2.2 0 01-.15-.06.21.21 0 01-.07-.15V1.1H.2a.18.18 0 01-.14-.06.2.2 0 010-.29A.18.18 0 01.2.69h2.4a.2.2 0 01.21.21.2.2 0 01-.06.14.2.2 0 01-.15.06h-.98v2.76a.2.2 0 01-.06.15.25.25 0 01-.16.06z" class="fil0"/><path id="1" d="M3.55 4.07a.2.2 0 01-.21-.21V.91c0-.06.02-.11.06-.16a.2.2 0 01.15-.06h1.13c.43 0 .76.09.98.27.22.18.33.41.33.71a.9.9 0 01-.17.52.85.85 0 01-.47.35c.24.06.39.2.48.43.08.22.13.45.13.66v.23c0 .06-.02.11-.07.15a.2.2 0 01-.15.06.21.21 0 01-.16-.06.2.2 0 01-.06-.15v-.15c0-.16-.02-.31-.05-.44a.65.65 0 00-.2-.37c-.11-.11-.28-.16-.5-.16h-.99v1.12c0 .06-.03.11-.07.15a.23.23 0 01-.16.06zm1.1-1.74c.27 0 .49-.06.65-.17a.51.51 0 00.25-.46.51.51 0 00-.21-.44c-.14-.11-.38-.16-.72-.16h-.84v1.23h.87z" class="fil0"/><path id="2" d="M6.98 4.07a.2.2 0 01-.21-.21V.89c0-.07.02-.12.06-.16a.21.21 0 01.15-.07c.06 0 .11.03.16.07.04.04.06.09.06.16v2.97a.2.2 0 01-.06.15.25.25 0 01-.16.06z" class="fil0"/><path id="3" d="M9.62 4.1c-.32 0-.61-.07-.86-.21a1.53 1.53 0 01-.61-.6 1.95 1.95 0 01-.21-.92c0-.35.07-.66.21-.92.15-.26.35-.46.61-.6.25-.14.54-.21.86-.21a2.16 2.16 0 011.1.3c.07.04.1.1.1.18 0 .05-.01.09-.05.13-.03.04-.08.05-.14.05-.03 0-.06 0-.09-.02a2.31 2.31 0 00-.41-.16 1.63 1.63 0 00-.47-.06c-.27 0-.51.06-.7.17-.2.11-.34.27-.44.47-.1.19-.15.42-.15.67 0 .25.05.47.15.67.1.2.24.35.44.47.19.11.43.17.7.17a1.63 1.63 0 00.88-.23.3.3 0 01.09-.02c.06 0 .11.02.14.06.04.03.05.07.05.13 0 .08-.03.14-.1.18a2.16 2.16 0 01-1.1.3z" class="fil0"/><path id="4" d="M11.7 4.07a.2.2 0 01-.15-.06.18.18 0 01-.07-.15V.89c0-.07.02-.12.07-.16a.21.21 0 01.15-.07c.06 0 .11.03.16.07.04.04.06.09.06.16v1.53L13.57.74a.2.2 0 01.16-.08c.06 0 .1.02.14.06.04.04.07.08.07.14a.2.2 0 01-.06.15l-1.11 1.1 1.28 1.61c.03.05.05.09.05.14a.2.2 0 01-.21.21.23.23 0 01-.18-.08L12.47 2.4l-.55.56v.9a.2.2 0 01-.06.15.25.25 0 01-.16.06z" class="fil0"/><path id="5" d="M15.78 4.07a.2.2 0 01-.15-.06.18.18 0 01-.07-.15V2.63l-1.15-1.61c-.02-.05-.04-.09-.04-.13 0-.07.02-.12.06-.16a.22.22 0 01.16-.07c.08 0 .14.04.19.11l1 1.47L16.79.77c.05-.07.11-.11.19-.11.06 0 .12.03.16.07.04.04.06.09.05.16l-.03.13L16 2.63v1.23a.2.2 0 01-.06.15.21.21 0 01-.16.06z" class="fil0"/><path d="M20.82 3.09L22.06.1h1.83v.12h-.14a.58.58 0 00-.32.07c-.06.03-.1.08-.14.16-.02.05-.03.2-.03.42v2.99c0 .24.01.38.03.44.03.06.08.11.15.15.08.05.18.07.31.07h.14v.11h-2.36v-.11h.15c.13 0 .24-.03.32-.07.06-.03.1-.09.13-.16.03-.06.04-.2.04-.43V.51l-1.74 4.12h-.08L18.59.54v3.19l.01.41c.03.11.09.2.19.27s.25.11.46.11v.11H17.7v-.11h.04c.1 0 .2-.02.28-.05.09-.04.16-.08.2-.14a.65.65 0 00.11-.25V.87c0-.23-.01-.37-.03-.43a.45.45 0 00-.15-.16.68.68 0 00-.31-.06h-.14V.1h1.84l1.28 2.99z" class="fil1"/><path id="1" d="M26.85 3.34h-1.58l-.2.44c-.06.15-.09.28-.09.37 0 .13.05.23.15.29.06.03.21.06.44.08v.11h-1.5v-.11a.68.68 0 00.4-.21c.1-.11.23-.34.39-.69L26.47.01h.07l1.63 3.71c.16.36.28.58.38.68.08.07.19.11.33.12v.11h-2.19v-.11h.09c.17 0 .3-.03.37-.08a.18.18 0 00.07-.15.59.59 0 00-.02-.13l-.1-.25-.25-.57zm-.11-.24l-.67-1.55-.69 1.55h1.36z" class="fil1"/><path id="2" d="M32.16 0l.04 1.51h-.14a1.51 1.51 0 00-.47-.91 1.23 1.23 0 00-.83-.35c-.22 0-.4.06-.54.19a.56.56 0 00-.2.41c0 .1.03.19.08.27a1 1 0 00.31.31c.1.07.34.2.72.39.53.26.89.51 1.07.74.19.23.28.49.28.79 0 .38-.15.71-.44.98-.3.27-.67.41-1.13.41a2.23 2.23 0 01-.88-.21.9.9 0 00-.27-.07.41.41 0 00-.18.07.5.5 0 00-.16.21h-.11V3.03h.11a2 2 0 00.57 1.1c.28.25.58.37.9.37.25 0 .45-.06.6-.2a.6.6 0 00.22-.47.68.68 0 00-.08-.31 1 1 0 00-.26-.29 3.63 3.63 0 00-.62-.35 5.2 5.2 0 01-.88-.52c-.18-.14-.32-.3-.42-.48-.1-.17-.14-.37-.14-.58 0-.36.13-.67.39-.92.27-.25.6-.38 1.01-.38.14 0 .29.02.42.05.11.03.24.08.39.15.15.07.25.11.31.11a.2.2 0 00.14-.05.82.82 0 00.09-.26h.1z" class="fil1"/><path id="3" d="M35.97 0L36 1.51h-.14a1.51 1.51 0 00-.47-.91 1.23 1.23 0 00-.82-.35c-.23 0-.41.06-.54.19a.52.52 0 00-.2.41c0 .1.02.19.07.27a1 1 0 00.31.31c.1.07.34.2.72.39.53.26.89.51 1.08.74a1.3 1.3 0 01-.17 1.77c-.3.27-.67.41-1.13.41a2.23 2.23 0 01-.88-.21c-.11-.04-.19-.07-.26-.07a.4.4 0 00-.19.07.5.5 0 00-.16.21h-.11V3.03h.11a2 2 0 00.57 1.1c.28.25.58.37.91.37.25 0 .44-.06.59-.2a.6.6 0 00.22-.47.58.58 0 00-.08-.31 1 1 0 00-.26-.29 3.87 3.87 0 00-.61-.35c-.42-.2-.71-.38-.89-.52-.18-.14-.32-.3-.42-.48a1.24 1.24 0 01-.14-.58c0-.36.13-.67.4-.92.26-.25.59-.38 1-.38.14 0 .29.02.43.05.1.03.23.08.38.15.15.07.25.11.31.11a.2.2 0 00.14-.05.62.62 0 00.09-.26h.11z" class="fil1"/><path id="4" d="M38.28.36v1.85h.09c.29 0 .49-.09.62-.27.13-.18.22-.45.25-.8h.13v2.37h-.13a1.52 1.52 0 00-.17-.63c-.08-.17-.18-.28-.3-.33a1.07 1.07 0 00-.49-.09v1.27c0 .25.01.41.03.46.02.06.06.1.12.14.06.03.15.05.28.05h.27c.42 0 .76-.1 1.02-.29.25-.2.44-.49.55-.89h.12l-.2 1.43h-3.91v-.11h.14c.14 0 .24-.03.32-.07.06-.03.1-.09.13-.16.03-.06.04-.2.04-.43V.87c0-.2 0-.33-.02-.38a.36.36 0 00-.12-.18.58.58 0 00-.35-.09h-.14V.1h3.78v1.34h-.13a1.5 1.5 0 00-.27-.7 1 1 0 00-.49-.32 2.72 2.72 0 00-.7-.06h-.47z" class="fil1"/><path id="5" d="M40.72.1h2.34v.12h-.11a1 1 0 00-.37.05.36.36 0 00-.14.16 1.6 1.6 0 00-.04.49v2.21c0 .41.03.68.09.81s.16.24.3.33c.14.08.32.13.53.13.25 0 .46-.06.63-.17.17-.11.3-.26.39-.46.08-.19.12-.53.12-1.01V.92c0-.21-.02-.36-.06-.44a.36.36 0 00-.16-.18.84.84 0 00-.43-.08V.1h1.57v.12h-.09a.55.55 0 00-.32.08.43.43 0 00-.18.23c-.03.07-.05.2-.05.39v1.72c0 .53-.03.91-.1 1.15-.07.23-.24.45-.51.65s-.64.3-1.11.3c-.39 0-.7-.06-.91-.16a1.3 1.3 0 01-.62-.55 1.89 1.89 0 01-.18-.9V.92c0-.27-.01-.43-.04-.49a.33.33 0 00-.15-.16c-.07-.04-.2-.05-.4-.05V.1z" class="fil1"/><path id="6" d="M47.32 2.57v1.28c0 .24.02.4.05.46.03.06.08.11.16.15.07.04.21.06.42.06v.11h-2.32v-.11c.21 0 .36-.02.43-.06a.34.34 0 00.16-.15c.03-.06.04-.22.04-.46V.89c0-.25-.01-.4-.04-.46a.3.3 0 00-.16-.15 1.05 1.05 0 00-.43-.06V.1h2.11c.55 0 .95.04 1.2.12.26.07.46.21.62.42.16.2.24.44.24.71 0 .34-.12.62-.36.83-.15.14-.37.25-.64.31l1.08 1.54c.15.2.25.32.31.37.09.07.2.1.32.11v.12h-1.43l-1.46-2.06h-.3zm0-2.21v1.97h.19c.31 0 .54-.03.7-.08a.72.72 0 00.36-.31c.09-.15.13-.34.13-.58 0-.34-.08-.59-.24-.76-.16-.16-.42-.24-.78-.24h-.36z" class="fil1"/></g></g></svg>