<?xml version="1.0" encoding="utf-8"?>
<!-- Generator: Adobe Illustrator 16.0.4, SVG Export Plug-In . SVG Version: 6.00 Build 0)  -->
<!DOCTYPE svg PUBLIC "-//W3C//DTD SVG 1.1//EN" "http://www.w3.org/Graphics/SVG/1.1/DTD/svg11.dtd">
<svg version="1.1" id="Layer_1" xmlns="http://www.w3.org/2000/svg" xmlns:xlink="http://www.w3.org/1999/xlink" x="0px" y="0px"
	 width="170px" height="32px" viewBox="0 0 170 32" enable-background="new 0 0 170 32" xml:space="preserve">
<g>
	<path fill="#FFFFFF" d="M8.874,4.008c1.903,0,3.439,1.279,4.104,3.114h4.541c-0.161-1.038-0.596-2.053-1.147-2.922
		C14.674,1.497,11.969,0,8.896,0C3.966,0,0,4.008,0,9.246c0,5.239,4.013,9.294,8.943,9.294c4.104,0,7.589-2.8,8.575-7.024h-4.541
		c-0.756,1.762-2.178,3.018-4.081,3.018c-2.774,0-4.563-2.559-4.563-5.311C4.333,6.47,6.122,4.008,8.874,4.008z"/>
	<path fill="#FFFFFF" d="M28.457,4.804v1.425h-0.045c-0.757-1.328-2.316-1.883-3.714-1.883c-3.83,0-6.397,3.234-6.397,7.146
		c0,3.981,2.476,7.169,6.397,7.169c1.375,0,3.026-0.531,3.714-1.907h0.045v1.448h3.806V4.804H28.457z M25.271,14.92
		c-1.789,0-3.165-1.521-3.165-3.381c0-1.906,1.284-3.452,3.141-3.452s3.21,1.449,3.21,3.405
		C28.457,13.423,27.127,14.92,25.271,14.92z"/>
	<path fill="#FFFFFF" d="M37.998,6.229h-0.046V4.804h-3.577v13.398h3.806V10.84c0-2.076,1.33-2.414,3.004-2.462V4.346
		C39.717,4.346,38.663,4.853,37.998,6.229z"/>
	<rect x="42.101" y="4.804" fill="#FFFFFF" width="3.807" height="13.398"/>
	<rect x="42.101" y="0.338" fill="#FFFFFF" width="3.807" height="3.042"/>
	<path fill="#FFFFFF" d="M58.163,4.998c-0.848-0.411-1.765-0.652-2.682-0.652c-1.422,0-2.706,0.41-3.692,1.521V0.338h-3.806v17.864
		h3.646v-1.424h0.046c0.665,1.304,2.338,1.883,3.646,1.883c3.967,0,6.42-3.211,6.42-7.242C61.74,8.643,60.617,6.204,58.163,4.998z
		 M54.747,14.92c-1.857,0-3.096-1.546-3.096-3.453c0-1.883,1.353-3.38,3.165-3.38c1.788,0,3.118,1.57,3.118,3.405
		C57.934,13.398,56.582,14.92,54.747,14.92z"/>
	<path fill="#FFFFFF" d="M73.393,4.998c-0.849-0.411-1.766-0.652-2.683-0.652c-1.421,0-2.706,0.41-3.692,1.521V0.338h-3.806v17.864
		h3.646v-1.424h0.046c0.665,1.304,2.339,1.883,3.646,1.883c3.967,0,6.42-3.211,6.42-7.242C76.97,8.643,75.846,6.204,73.393,4.998z
		 M69.976,14.92c-1.857,0-3.095-1.546-3.095-3.453c0-1.883,1.353-3.38,3.164-3.38c1.789,0,3.119,1.57,3.119,3.405
		C73.164,13.398,71.811,14.92,69.976,14.92z"/>
	<path fill="#FFFFFF" d="M91.101,11.661c0-4.032-2.82-7.315-6.719-7.315c-3.737,0-6.672,3.308-6.672,7.193
		c0,3.911,3.026,7.098,6.741,7.098c2.866,0,5.113-1.954,6.213-4.634h-3.897c-0.618,0.82-1.284,1.255-2.315,1.255
		c-1.49,0-2.752-0.941-2.981-2.536h9.539C91.078,12.36,91.101,12.022,91.101,11.661z M81.517,10.019
		c0.298-1.448,1.513-2.293,2.889-2.293s2.591,0.845,2.889,2.293H81.517z"/>
	<path fill="#FFFFFF" d="M102.032,4.804v1.425h-0.046c-0.756-1.328-2.314-1.883-3.714-1.883c-3.829,0-6.397,3.234-6.397,7.146
		c0,3.981,2.477,7.169,6.397,7.169c1.376,0,3.026-0.531,3.714-1.907h0.046v1.448h3.807V4.804H102.032z M98.846,14.92
		c-1.789,0-3.164-1.521-3.164-3.381c0-1.906,1.284-3.452,3.141-3.452c1.858,0,3.21,1.449,3.21,3.405
		C102.032,13.423,100.703,14.92,98.846,14.92z"/>
	<path fill="#FFFFFF" d="M118.28,5.504c-0.825-0.724-2.178-1.158-3.257-1.158c-1.536,0-2.659,0.507-3.461,1.883h-0.046V4.804h-3.555
		v13.398h3.807v-7.29c0-1.594,0.413-2.801,2.178-2.801c1.72,0,1.995,1.279,1.995,2.776v7.314h3.806V9.826
		C119.747,8.257,119.495,6.566,118.28,5.504z"/>
	<path fill="#FFFFFF" d="M127.967,14.896c-1.856,0-3.026-1.521-3.026-3.403c0-1.812,1.1-3.405,2.935-3.405
		c1.308,0,2.293,0.629,2.844,1.884h3.852c-0.665-3.404-3.485-5.625-6.741-5.625c-3.782,0-6.718,3.162-6.718,7.121
		c0,4.007,3.004,7.17,6.81,7.17c3.21,0,5.939-2.245,6.673-5.528h-3.875C130.146,14.268,129.228,14.896,127.967,14.896z"/>
	<path fill="#FFFFFF" d="M142.167,4.369c-3.898,0-6.856,3.019-6.856,7.123c0,4.104,2.958,7.121,6.856,7.121
		c3.897,0,6.855-3.018,6.855-7.121C149.022,7.388,146.064,4.369,142.167,4.369z M142.167,14.871c-1.767,0-3.05-1.569-3.05-3.379
		c0-1.812,1.283-3.381,3.05-3.381c1.765,0,3.05,1.569,3.05,3.381C145.217,13.302,143.932,14.871,142.167,14.871z"/>
	<path fill="#FFFFFF" d="M168.624,5.697c-0.895-0.966-2.087-1.352-3.348-1.352c-1.72,0-3.118,0.869-4.035,2.39
		c-0.78-1.521-2.018-2.39-3.669-2.39c-1.445,0-2.774,0.507-3.509,1.883h-0.045V4.804h-3.555v13.398h3.806v-7.121
		c0-1.569,0.391-2.97,2.156-2.97c1.605,0,1.902,1.425,1.902,2.801v7.29h3.807v-7.314c0-1.521,0.413-2.776,2.109-2.776
		c1.766,0,1.949,1.497,1.949,2.97v7.121h3.806v-7.314C169.999,8.836,170.068,7.242,168.624,5.697z"/>
</g>
<rect x="61.401" y="24.384" fill="#FFFFFF" width="0.916" height="1.088"/>
<g>
	<polygon fill="#FFFFFF" points="9.53,30.463 8.33,26.241 7.371,26.241 6.17,30.463 4.971,26.241 4,26.241 5.68,31.858 6.64,31.858 
		7.839,27.562 9.04,31.858 10.01,31.858 11.69,26.241 10.719,26.241 	"/>
	<polygon fill="#FFFFFF" points="19.921,30.463 18.722,26.241 17.762,26.241 16.562,30.463 15.362,26.241 14.392,26.241 
		16.07,31.858 17.03,31.858 18.23,27.562 19.43,31.858 20.401,31.858 22.081,26.241 21.109,26.241 	"/>
	<polygon fill="#FFFFFF" points="30.312,30.463 29.112,26.241 28.152,26.241 26.952,30.463 25.752,26.241 24.782,26.241 
		26.461,31.858 27.421,31.858 28.621,27.562 29.821,31.858 30.792,31.858 32.471,26.241 31.501,26.241 	"/>
	<rect x="35.032" y="30.735" fill="#FFFFFF" width="1.091" height="1.123"/>
	<path fill="#FFFFFF" d="M41.958,26.95c0.73,0,1.309,0.415,1.625,1.025h0.992c-0.381-1.133-1.363-1.876-2.617-1.876
		c-1.549,0-2.814,1.331-2.814,2.956c0,1.626,1.265,2.934,2.814,2.934c1.254,0,2.247-0.741,2.617-1.877h-0.992
		c-0.306,0.611-0.883,1.025-1.625,1.025c-1.037,0-1.887-0.926-1.887-2.082C40.071,27.9,40.921,26.95,41.958,26.95z"/>
	<path fill="#FFFFFF" d="M52.555,30.943v-3.099c0-1.047-0.764-1.745-2.269-1.745c-1.44,0-2.367,0.73-2.433,1.854h0.959
		c0.099-0.817,0.873-1.003,1.462-1.003c0.949,0,1.374,0.338,1.374,0.786c0,0.446-0.446,0.697-1.821,0.762
		c-1.451,0.077-2.291,0.602-2.291,1.757c0,1.21,1.036,1.734,2.192,1.734c0.873,0,1.527-0.284,1.93-0.774
		c0.012,0.262,0.066,0.479,0.143,0.644h0.917C52.631,31.642,52.555,31.226,52.555,30.943z M51.649,29.698
		c-0.021,1.016-0.927,1.429-1.886,1.429c-0.72,0-1.31-0.261-1.31-0.872c0-0.469,0.273-0.895,1.495-0.971
		c0.665-0.043,1.33-0.119,1.701-0.448V29.698z"/>
	<path fill="#FFFFFF" d="M57.148,26.874v-0.633h-0.894v5.617h0.927v-3.249c0-1.123,0.829-1.638,1.799-1.583v-0.917
		C58.337,26.035,57.574,26.273,57.148,26.874z"/>
	<rect x="62.11" y="26.241" fill="#FFFFFF" width="0.927" height="5.617"/>
	<path fill="#FFFFFF" d="M69.589,26.1c-0.807,0-1.504,0.448-1.909,0.993v-3.35h-0.927v8.115h0.896v-0.905
		C68.041,31.531,68.76,32,69.589,32c1.614,0,2.803-1.318,2.803-2.944C72.393,27.431,71.204,26.1,69.589,26.1z M69.589,31.149
		c-1.036,0-1.909-0.938-1.909-2.084c0-1.165,0.873-2.104,1.909-2.104c1.047,0,1.876,0.939,1.876,2.104
		C71.465,30.212,70.636,31.149,69.589,31.149z"/>
	<path fill="#FFFFFF" d="M78.598,26.1c-0.807,0-1.505,0.448-1.909,0.993v-3.35h-0.927v8.115h0.895v-0.905
		C77.048,31.531,77.769,32,78.598,32c1.614,0,2.803-1.318,2.803-2.944C81.401,27.431,80.211,26.1,78.598,26.1z M78.598,31.149
		c-1.037,0-1.909-0.938-1.909-2.084c0-1.165,0.873-2.104,1.909-2.104c1.047,0,1.876,0.939,1.876,2.104
		C80.474,30.212,79.645,31.149,78.598,31.149z"/>
	<path fill="#FFFFFF" d="M87.281,31.149c-0.927,0-1.821-0.687-1.941-1.854h4.724c0.011-1.996-1.387-3.195-2.837-3.195
		c-1.559,0-2.825,1.331-2.825,2.956c0,1.647,1.266,2.934,2.879,2.934c1.297,0,2.258-0.677,2.65-1.877h-0.98
		C88.645,30.769,88.077,31.149,87.281,31.149z M87.227,26.939c0.819,0,1.582,0.61,1.812,1.527h-3.644
		C85.635,27.507,86.453,26.939,87.227,26.939z"/>
	<path fill="#FFFFFF" d="M97.991,30.943v-3.099c0-1.047-0.764-1.745-2.27-1.745c-1.439,0-2.366,0.73-2.432,1.854h0.96
		c0.098-0.817,0.872-1.003,1.461-1.003c0.949,0,1.374,0.338,1.374,0.786c0,0.446-0.446,0.697-1.82,0.762
		c-1.45,0.077-2.291,0.602-2.291,1.757c0,1.21,1.036,1.734,2.192,1.734c0.872,0,1.528-0.284,1.932-0.774
		c0.011,0.262,0.063,0.479,0.14,0.644h0.917C98.067,31.642,97.991,31.226,97.991,30.943z M97.085,29.698
		c-0.021,1.016-0.926,1.429-1.886,1.429c-0.72,0-1.309-0.261-1.309-0.872c0-0.469,0.272-0.895,1.493-0.971
		c0.667-0.043,1.331-0.119,1.701-0.448V29.698z"/>
	<path fill="#FFFFFF" d="M104.222,26.1c-0.677,0-1.255,0.284-1.637,0.753v-0.611h-0.895v5.617h0.929v-3.437
		c0-0.839,0.619-1.472,1.472-1.472c0.894,0,1.373,0.633,1.373,1.495v3.413h0.918v-3.381C106.382,27.082,105.596,26.1,104.222,26.1z"
		/>
	<path fill="#FFFFFF" d="M112.5,26.95c0.73,0,1.309,0.415,1.625,1.025h0.994c-0.383-1.133-1.363-1.876-2.619-1.876
		c-1.548,0-2.813,1.331-2.813,2.956c0,1.626,1.266,2.934,2.813,2.934c1.256,0,2.247-0.741,2.619-1.877h-0.994
		c-0.306,0.611-0.883,1.025-1.625,1.025c-1.036,0-1.887-0.926-1.887-2.082C110.613,27.9,111.464,26.95,112.5,26.95z"/>
	<path fill="#FFFFFF" d="M120.841,26.1c-1.593,0-2.825,1.331-2.825,2.966c0,1.616,1.232,2.924,2.825,2.924
		c1.604,0,2.824-1.308,2.824-2.924C123.665,27.431,122.444,26.1,120.841,26.1z M120.841,31.138c-1.036,0-1.886-0.926-1.886-2.072
		c0-1.165,0.85-2.115,1.886-2.115c1.047,0,1.898,0.95,1.898,2.115C122.739,30.212,121.888,31.138,120.841,31.138z"/>
	<path fill="#FFFFFF" d="M132.906,26.1c-0.808,0-1.408,0.382-1.757,0.959c-0.35-0.599-0.938-0.959-1.734-0.959
		c-0.622,0-1.146,0.284-1.496,0.753v-0.611h-0.894v5.617h0.928v-3.437c0-0.839,0.567-1.472,1.332-1.472
		c0.828,0,1.263,0.536,1.263,1.408v3.5h0.918v-3.437c0-0.839,0.557-1.472,1.319-1.472c0.862,0,1.275,0.536,1.275,1.408v3.5h0.929
		v-3.479C134.989,26.982,134.203,26.1,132.906,26.1z"/>
	<rect x="138.587" y="30.735" fill="#FFFFFF" width="1.09" height="1.123"/>
	<path fill="#FFFFFF" d="M145.512,26.95c0.73,0,1.311,0.415,1.625,1.025h0.993c-0.382-1.133-1.362-1.876-2.618-1.876
		c-1.548,0-2.813,1.331-2.813,2.956c0,1.626,1.266,2.934,2.813,2.934c1.256,0,2.247-0.741,2.618-1.877h-0.993
		c-0.304,0.611-0.884,1.025-1.625,1.025c-1.036,0-1.886-0.926-1.886-2.082C143.626,27.9,144.476,26.95,145.512,26.95z"/>
	<path fill="#FFFFFF" d="M153.853,26.1c-1.593,0-2.825,1.331-2.825,2.966c0,1.616,1.232,2.924,2.825,2.924
		c1.604,0,2.826-1.308,2.826-2.924C156.679,27.431,155.456,26.1,153.853,26.1z M153.853,31.138c-1.036,0-1.886-0.926-1.886-2.072
		c0-1.165,0.85-2.115,1.886-2.115c1.047,0,1.898,0.95,1.898,2.115C155.751,30.212,154.899,31.138,153.853,31.138z"/>
	<path fill="#FFFFFF" d="M165.918,26.1c-0.808,0-1.409,0.382-1.757,0.959c-0.349-0.599-0.938-0.959-1.734-0.959
		c-0.62,0-1.146,0.284-1.494,0.753v-0.611h-0.894v5.617h0.926v-3.437c0-0.839,0.567-1.472,1.331-1.472
		c0.829,0,1.266,0.536,1.266,1.408v3.5h0.916v-3.437c0-0.839,0.556-1.472,1.319-1.472c0.861,0,1.275,0.536,1.275,1.408v3.5H168
		v-3.479C168,26.982,167.215,26.1,165.918,26.1z"/>
</g>
</svg>
