<?xml version="1.0" encoding="utf-8"?>
<!-- Generator: Adobe Illustrator 22.1.0, SVG Export Plug-In . SVG Version: 6.00 Build 0)  -->
<svg version="1.1" id="Vrstva_1" xmlns="http://www.w3.org/2000/svg" xmlns:xlink="http://www.w3.org/1999/xlink" x="0px" y="0px"
	 viewBox="0 0 1410.9 100.8" style="enable-background:new 0 0 1410.9 100.8;" xml:space="preserve">
<style type="text/css">
	.st0{fill:#FFFFFF;}
	.st1{fill:#DC4B89;}
</style>
<title>site-logo-watermark</title>
<g>
	<path class="st0" d="M51.2,83.2c11.6,0,20-3.5,26.2-7.6L85.7,87c-8.1,7-18.9,10.7-34.5,10.7C19.4,97.8,2,77.4,2,49.5
		C2,21.6,19.4,1.3,51.2,1.3C66.8,1.3,77.6,5,85.7,12l-8.3,11.5c-6.1-4.1-14.5-7.6-26.2-7.6c-21.4,0-31.5,14.3-31.5,33.6
		C19.7,68.9,29.8,83.2,51.2,83.2z"/>
	<path class="st0" d="M172.1,81.2v14.6H97.4v-8.7l50.2-69.4h-47.5V3.2h72v8.7l-50.2,69.4H172.1z"/>
	<path class="st0" d="M254.2,41.3v14.6h-46v25.3H257v14.6h-66.3V3.2h65.7v14.6h-48.2v23.5H254.2z"/>
	<path class="st0" d="M316.1,83.2c11.6,0,20-3.5,26.2-7.6l8.3,11.5c-8.1,7-18.9,10.7-34.5,10.7c-31.8,0-49.2-20.3-49.2-48.2
		c0-27.9,17.4-48.2,49.2-48.2c15.6,0,26.4,3.7,34.5,10.7l-8.3,11.5c-6.1-4.1-14.5-7.6-26.2-7.6c-21.4,0-31.5,14.3-31.5,33.6
		C284.6,68.9,294.7,83.2,316.1,83.2z"/>
	<path class="st0" d="M428.2,3.2h17.4v92.6h-17.4V55.9h-44.1v39.9h-17.4V3.2h17.4v38.1h44.1V3.2z"/>
	<path class="st1" d="M508.7,75.7c14.2,0,21.4-4.6,26.6-8.1l13.2,17.6c-7.3,6.4-18.2,13.3-39.8,13.3c-34.7,0-50.8-21.8-50.8-48.9
		c0-27.1,16.1-48.9,50.8-48.9c21.7,0,32.6,6.9,39.8,13.3l-13.2,17.6c-5.2-3.5-12.4-8.1-26.6-8.1c-16.7,0-23.2,13-23.2,26.2
		C485.5,62.6,491.9,75.7,508.7,75.7z"/>
	<path class="st1" d="M652.7,49.5c0,27.1-16.1,48.9-50.8,48.9c-34.7,0-50.8-21.8-50.8-48.9c0-27.1,16.1-48.9,50.8-48.9
		C636.6,0.6,652.7,22.4,652.7,49.5z M578.8,49.5c0,13.1,6.5,26.2,23.2,26.2s23.2-13,23.2-26.2c0-13.1-6.5-26.2-23.2-26.2
		S578.8,36.4,578.8,49.5z"/>
	<path class="st1" d="M663.1,53.1V3.2h27.3v49.9c0,14,2.3,22.5,16.7,22.5s16.7-8.5,16.7-22.5V3.2H751v49.9c0,27.4-12.1,45.3-44,45.3
		C675.2,98.4,663.1,80.6,663.1,53.1z"/>
	<path class="st1" d="M764,95.8V3.2h42.2c26,0,40.6,12.7,40.6,34.8s-14.6,34.8-40.6,34.8h-14.9v23H764z M791.3,26v24h14.9
		c9.2,0,13-4.9,13-12s-3.8-12-13-12H791.3z"/>
	<path class="st1" d="M885.7,73.1h44.4v22.7h-71.7V3.2h27.3V73.1z"/>
	<path class="st1" d="M1014,37.9V60h-43.2v13h47v22.7h-74.3V3.2h73.6v22.7h-46.3v11.9H1014z"/>
	<path class="st1" d="M1095,28.4c-7.2-3.1-15.5-5-25.1-5c-6,0-11.2,1.7-11.2,6.6c0,5,5.3,6.4,13.6,8.1c23.6,4.9,37.4,12.1,37.4,30.5
		c0,22.2-18.6,29.8-41.7,29.8c-15.7,0-29.4-4.3-39.3-11.9L1041,68c7.7,4.8,16.9,7.6,25.7,7.6c9.2,0,15.4-1.2,15.4-7.1
		c0-4.8-5.8-6.5-15.1-8.3c-24.7-5.2-35.8-15.3-35.8-30.3c0-16.1,10.8-29.3,37.5-29.3c15.8,0,28.2,3,38.7,9.4L1095,28.4z"/>
	<path class="st0" d="M1128.9,77.3c5.3,0,9.6,4.3,9.6,9.6c0,5.3-4.3,9.6-9.6,9.6c-5.3,0-9.6-4.3-9.6-9.6
		C1119.4,81.6,1123.6,77.3,1128.9,77.3z"/>
	<path class="st0" d="M1184.5,83.6c7,0,13.2-1.9,19-6.4l8.3,10.4c-7.2,7.2-16.6,9.5-27.3,9.5c-22.5,0-36.8-14.8-36.8-34.3
		s14.3-34.3,36.8-34.3c10.7,0,20,2.3,27.3,9.5l-8.4,10.3c-5.8-4.5-11.9-6.3-18.9-6.3c-14.1,0-20.2,9.9-20.2,20.8
		S1170.3,83.6,1184.5,83.6z"/>
	<path class="st0" d="M1256.9,97.1c-22.5,0-36.8-14.8-36.8-34.3s14.3-34.3,36.8-34.3c22.4,0,36.8,14.7,36.8,34.3
		C1293.7,82.4,1279.3,97.1,1256.9,97.1z M1256.9,42c-14.1,0-20.2,9.9-20.2,20.8s6.1,20.8,20.2,20.8s20.2-9.9,20.2-20.8
		S1271.1,42,1256.9,42z"/>
	<path class="st0" d="M1308,29.8h16.2v6.1c2.2-3.9,8.8-7.4,15.3-7.4c10.4,0,17.7,3.6,21.6,9.1c3.5-4.7,11.3-9.1,20.3-9.1
		c15.8,0,26.6,8.5,26.6,28.8v38.5h-16.2V57.3c0-9.1-3.9-15.3-12.9-15.3s-12.9,6.2-12.9,15.3v38.5h-16.2V57.3
		c0-9.1-3.9-15.3-12.8-15.3c-9,0-12.9,6.2-12.9,15.3v38.5H1308V29.8z"/>
</g>
</svg>
