<svg xmlns="http://www.w3.org/2000/svg" width="269" height="74" fill-rule="evenodd" clip-rule="evenodd" image-rendering="optimizeQuality" shape-rendering="geometricPrecision" text-rendering="geometricPrecision" viewBox="0 0 17.34 4.78"><defs><style>.fil0,.fil1{fill:#f9f;fill-rule:nonzero}.fil1{fill:#fff}</style></defs><g id="Layer_x0020_1"><g id="_1107876752"><path d="M2.4 0a2.38 2.38 0 011.98 1.06H3.7a1.87 1.87 0 00-2.77.15l-.5.17a.16.16 0 00-.13.16v.45l.01.05c.02.08.11.13.2.1h.01l-.01.25c0 .43.14.83.38 1.14v.2c0 .1.08.17.17.17h.2a1.87 1.87 0 002.36-.1h.7A2.38 2.38 0 010 2.4 2.38 2.38 0 012.38 0zM.66 1.64c0 .03-.02.06-.04.1v-.09l.04-.01z" class="fil0"/><path d="M1.67 3.74h-.6V1.82l-.6.17v-.45l1.14-.4h.06v2.6zm1.95-1.9a.6.6 0 01-.1.33.69.69 0 01-.26.23.641.641 0 01.4.62c0 .23-.07.42-.23.55a1 1 0 01-.66.2c-.28 0-.5-.06-.67-.2a.68.68 0 01-.24-.55c0-.14.03-.26.1-.37.08-.1.18-.19.3-.25a.69.69 0 01-.25-.23.59.59 0 01-.1-.33c0-.23.08-.4.23-.54.16-.13.36-.2.62-.2.27 0 .47.07.63.2.15.13.23.31.23.54zm-.56 1.13c0-.1-.02-.19-.08-.24a.3.3 0 00-.22-.1.3.3 0 00-.21.1c-.06.05-.09.14-.09.24 0 .1.03.19.09.25a.3.3 0 00.22.09c.09 0 .16-.03.21-.09a.35.35 0 00.08-.25zm-.3-1.4a.22.22 0 00-.18.08.34.34 0 00-.07.22c0 .09.03.16.07.22.04.06.1.09.19.09.08 0 .14-.03.18-.09a.37.37 0 00.06-.22c0-.1-.02-.17-.06-.22-.04-.05-.1-.08-.19-.08z" class="fil1"/><path d="M5.38 2.69h-.93v.95h-.58V1.25h1.6v.45H4.45v.55h.93v.44zm.94.95h-.57V1.25h.57v2.4zm1.22-.84h-.3v.84h-.58V1.25h.94c.28 0 .5.07.66.2.16.12.24.3.24.53 0 .16-.03.3-.1.4a.7.7 0 01-.32.27l.5.97v.02h-.62l-.42-.84zm-.3-.44h.36c.1 0 .19-.03.24-.1.06-.05.09-.13.09-.23s-.03-.19-.09-.25c-.05-.06-.14-.08-.24-.08h-.37v.65zM10 3a.24.24 0 00-.09-.2.985.985 0 00-.31-.15l-.37-.14c-.3-.15-.46-.36-.46-.63 0-.13.04-.25.11-.35.08-.1.19-.18.33-.24a1.27 1.27 0 01.94.01.724.724 0 01.43.65H10a.3.3 0 00-.09-.23.35.35 0 00-.24-.08.4.4 0 00-.24.07.21.21 0 00-.09.18c0 .06.03.11.1.16.06.05.18.1.34.16.17.05.3.1.41.17.26.15.39.35.39.61 0 .21-.08.38-.24.5-.16.11-.37.17-.65.17-.19 0-.36-.03-.52-.1a.8.8 0 01-.36-.28.75.75 0 01-.11-.42h.57c0 .12.04.22.1.28.07.06.17.1.32.1.1 0 .17-.03.23-.07A.2.2 0 0010 3zm2.33-1.31h-.3v1.94h-.57V1.7h-.7v-.45h1.88c-.23.1-.28.32-.31.45z" class="fil0"/><path d="M13.64 3.04a.4.4 0 00-.1-.28.78.78 0 00-.32-.18c-.23-.07-.4-.16-.52-.27a.56.56 0 01-.18-.43c0-.19.07-.34.2-.46s.3-.18.51-.18c.22 0 .4.07.53.21.13.14.2.3.2.5h-.33a.51.51 0 00-.1-.33.36.36 0 00-.3-.13.36.36 0 00-.28.11.39.39 0 00-.1.27c0 .1.03.19.1.26.08.07.2.13.36.18.21.07.38.16.49.28.11.11.17.26.17.45s-.07.34-.2.46a.78.78 0 01-.53.17.86.86 0 01-.55-.2.61.61 0 01-.22-.52h.31c0 .15.05.27.13.35.09.08.2.12.33.12a.4.4 0 00.3-.1c.06-.07.1-.17.1-.28zm1.75-.5h-.88v.84h1.02v.25h-1.34V1.28h1.33v.25h-1v.76h.87v.25zm1.11-.34l.43-.92h.39l-.62 1.16.64 1.2h-.39l-.44-.95-.44.94h-.39l.63-1.19-.61-1.16h.38l.42.92z" class="fil1"/></g></g></svg>