<svg xmlns="http://www.w3.org/2000/svg" width="285" height="37" fill-rule="evenodd" clip-rule="evenodd" image-rendering="optimizeQuality" shape-rendering="geometricPrecision" text-rendering="geometricPrecision" viewBox="0 0 19.46 2.53"><defs><style>.fil0,.fil1{fill:#ab8f54;fill-rule:nonzero}.fil1{fill:#ffc}</style></defs><g id="Layer_x0020_1"><g id="_1445496432"><path d="M1.66 2.13a.9.9 0 01-.8.4.87.87 0 01-.62-.23C.08 2.15 0 1.93 0 1.65V.9C0 .63.08.4.23.25a.81.81 0 01.6-.23c.28 0 .48.07.61.2.14.13.2.32.21.57V.8H1.2c0-.14-.03-.24-.09-.3S.97.4.85.4.64.45.57.53C.51.6.47.73.47.9v.75c0 .17.04.3.1.38.07.08.17.12.3.12.1 0 .16-.01.2-.04A.3.3 0 001.2 2v-.44H.87v-.33h.8v.9z" class="fil0"/><path id="1" d="M3.12 1.98h-.64l-.13.52h-.48L2.55.06h.5l.68 2.44h-.48l-.13-.52zm-.55-.39h.45L2.8.73l-.23.86z" class="fil0"/><path id="2" d="M5.52 2.13a.88.88 0 01-.8.4.86.86 0 01-.63-.23c-.16-.15-.23-.37-.23-.65V.9c0-.28.07-.5.22-.66A.82.82 0 014.7.02c.27 0 .47.07.6.2.14.13.21.32.22.57V.8h-.45c0-.14-.03-.24-.1-.3C4.92.44 4.83.4 4.7.4c-.11 0-.2.05-.27.13s-.1.2-.1.37v.75c0 .17.03.3.1.38.07.08.16.12.3.12.09 0 .16-.01.2-.04A.3.3 0 005.04 2v-.44h-.32v-.33h.8v.9z" class="fil0"/><path id="3" d="M10.48 2.13a.89.89 0 01-.8.4.87.87 0 01-.62-.23c-.16-.15-.24-.37-.24-.65V.9c0-.28.08-.5.23-.66a.81.81 0 01.6-.23c.27 0 .48.07.61.2.14.13.2.32.21.57V.8h-.45c0-.14-.03-.24-.09-.3S9.8.4 9.67.4s-.21.05-.28.13c-.06.08-.1.2-.1.37v.75c0 .17.04.3.1.38.07.08.17.12.3.12.09 0 .16-.01.2-.04a.3.3 0 00.12-.11v-.44h-.32v-.33h.8v.9z" class="fil0"/><path id="4" d="M11.94 1.98h-.64l-.13.52h-.49l.7-2.44h.49l.68 2.44h-.48l-.13-.52zm-.55-.39h.45l-.22-.86-.23.86z" class="fil0"/><path id="5" d="M13.22 1.62v.88h-.48V.06h.85c.24 0 .43.07.58.21.14.15.2.34.2.57 0 .23-.06.42-.2.57a.77.77 0 01-.58.21h-.37zm0-.38h.37c.1 0 .18-.04.23-.11a.48.48 0 00.08-.29.5.5 0 00-.08-.29.27.27 0 00-.23-.11h-.37v.8z" class="fil0"/><path id="6" d="M15.98 1.43h-.82v.69h.96v.38h-1.44V.06h1.44v.38h-.96v.61h.82z" class="fil0"/><path id="7" d="M16.46 2.5h-.16v-.17h.16z" class="fil1"/><path id="8" d="M17.39 2.14c0 .12-.03.21-.1.28a.35.35 0 01-.25.1.35.35 0 01-.28-.12.47.47 0 01-.1-.32v-.33c0-.14.03-.24.1-.32a.34.34 0 01.27-.12c.11 0 .2.03.26.1.07.06.1.15.1.27h-.16c0-.08-.02-.14-.05-.18-.03-.04-.08-.06-.15-.06a.18.18 0 00-.15.08.4.4 0 00-.06.23v.33c0 .1.02.17.06.23.03.05.09.08.16.08.06 0 .11-.02.14-.06.03-.04.05-.1.05-.19h.16z" class="fil1"/><path id="9" d="M18.3 2.08c0 .13-.03.24-.1.32a.37.37 0 01-.29.11.36.36 0 01-.28-.11.46.46 0 01-.1-.32v-.33c0-.13.03-.24.1-.32a.36.36 0 01.28-.12c.12 0 .22.04.29.12.07.08.1.19.1.32v.33zm-.15-.33c0-.1-.03-.18-.07-.23a.2.2 0 00-.17-.08.2.2 0 00-.17.08.39.39 0 00-.05.23v.33c0 .1.01.18.05.23.04.05.1.08.17.08a.2.2 0 00.17-.08.38.38 0 00.07-.23v-.33z" class="fil1"/><path id="10" d="M18.7 1.33l.27.95h.01l.27-.95h.21V2.5h-.16v-.45l.01-.45-.28.9h-.11l-.28-.9.01.45v.45h-.16V1.33z" class="fil1"/><path fill="#ffc" d="M5.88 0h2.53v2.53H5.88z"/><path fill-rule="nonzero" d="M7.83 2.16H7.6L6.7.78v1.38h-.23V.38h.23l.9 1.37V.38h.23z"/></g></g></svg>