<?xml version="1.0" encoding="utf-8"?>
<!-- Generator: Adobe Illustrator 24.0.2, SVG Export Plug-In . SVG Version: 6.00 Build 0)  -->
<svg version="1.1" id="Layer_1" xmlns="http://www.w3.org/2000/svg" xmlns:xlink="http://www.w3.org/1999/xlink" x="0px" y="0px"
	 viewBox="0 0 2981.1 424.7" style="enable-background:new 0 0 2981.1 424.7;" xml:space="preserve">
<style type="text/css">
	.st0{fill-rule:evenodd;clip-rule:evenodd;fill:#FFFFFF;}
	.st1{fill:#FFFFFF;}
</style>
<title>ASMR_Fantasy_Logo_oneline</title>
<polygon class="st0" points="26.8,287.2 121.9,24.8 215.1,286.3 228.5,286.3 128.1,6.2 115.7,6.2 18.2,275.8 0,275.8 0,287.2 "/>
<polygon class="st0" points="245.7,287.2 272.5,287.2 272.5,274.8 253.9,274.8 157.8,6.2 144.4,6.2 "/>
<polygon class="st0" points="71.3,205 44,287.2 83.2,287.2 83.2,274.8 60.3,274.8 80.3,216.5 159.7,216.5 179.3,275.8 159.7,275.8 
	159.7,287.2 197.9,287.2 168.8,205 "/>
<path class="st1" d="M122.9,68.3h-3.3L75.1,192.6H165L122.9,68.3z M121.5,95.1l26.3,86h-55L121.5,95.1z"/>
<rect x="159.7" y="297.7" class="st1" width="112.8" height="11.5"/>
<polygon class="st0" points="0,309.2 83.2,309.2 83.2,297.7 0,297.7 "/>
<path class="st0" d="M430.7,304.9c-40.2,0-66-11.5-84.6-49.2l-1,0.5v53.1h11.5v-22.9c12.9,18.6,32,29.6,75.5,29.6
	c62.6,0,100.4-40.1,100.4-97.5c0-66.9-50.2-81.7-97.5-95.6c-26.8-9.1-44.5-22.9-44.5-50.2c0-18.6,11.5-39.2,40.6-39.2
	c27.2,0,42.1,23.4,52.6,44V97h12V74.1C479.9,43,464.6,23,431.6,23C395.3,23,379,50.2,379,74.1c0,33.9,21.5,49.7,52.1,59.7
	c44.9,14.3,89.9,27.7,89.9,86.5C521.1,276.7,480.5,304.9,430.7,304.9L430.7,304.9z"/>
<path class="st1" d="M432.2,151c-35.9-12.9-70.7-35.4-70.7-69.3c0-32.5,19.1-70.7,66.9-70.7c32.5,0,55,14.8,66.4,47.3h1V6.7h-11.5
	v18.2c-5.4-6.4-11.8-11.7-19.1-15.8c-11-6.2-24.4-9.1-40.6-9.1l0,0c-61.7,0-99,44.4-99,99.4c0,47.3,39.7,71.2,81.3,86.5
	c36.8,11.5,59.8,21,59.8,50.2c0,25.3-15.3,43.5-40.6,43.5c-39.2,0-54-20.1-69.3-49.2v-31.1h-11.5v33.5
	c19.1,44.4,49.7,58.3,83.2,58.3c55,0,77.9-27.2,77.9-65.5C506.3,174,475.7,166.3,432.2,151z M451.3,282.4l-1-2.4
	c20.6-5.7,28.7-23.4,28.7-46.4c0-38.2-28.2-47.3-67.9-60.2C371.9,159.1,337,139,337,90.2l0,0c0-24.4,12.9-54,39.7-70.7l1.4,1.9
	c-17.7,15.4-28,37.7-28.2,61.2c0,42.1,39.2,67.9,76.5,80.8c40.6,15.3,68.4,21,68.4,62.6C494.8,254.7,484.3,275.3,451.3,282.4z"/>
<polygon class="st0" points="331.8,199.3 320.3,199.3 320.3,309.7 331.8,309.7 "/>
<polygon class="st0" points="509.1,97 520.6,97 520.6,6.2 509.1,6.2 "/>
<polygon class="st0" points="601.4,17.7 654,17.7 756.3,215.5 746.7,235.6 645.4,29.1 601.4,29.1 601.4,41.1 620.5,41.1 
	620.5,274.8 601.4,274.8 601.4,286.3 632,286.3 632,40.6 638.2,40.6 745.8,260.5 850,28.7 849.5,286.3 861,286.3 861.4,17.7 
	906.4,17.7 906.4,6.2 849,6.2 761.5,199.8 662.1,6.2 601.4,6.2 "/>
<polygon class="st0" points="645.4,286.3 679.8,286.3 679.8,274.3 656.8,274.3 656.8,133.3 739.5,309.2 751,309.2 824.6,136.7 
	824.6,274.8 801.7,274.8 801.7,286.3 836.1,286.3 836.1,90.8 834.7,90.8 745.8,294.4 647.3,91.3 645.4,91.3 "/>
<polygon class="st0" points="875.8,286.3 905.9,286.3 905.9,274.8 886.8,274.8 886.8,40.6 906.4,40.6 906.4,29.1 875.8,29.1 "/>
<rect x="801.7" y="297.7" class="st1" width="104.2" height="11.5"/>
<polygon class="st0" points="601.4,309.2 679.8,309.2 679.8,297.7 601.4,297.7 "/>
<path class="st0" d="M1194.6,274.8l-54-107.1c8.5-2.3,16.6-6,23.9-11c24.9-18.2,34.4-45.9,34.4-72.2c0-44.4-25.3-78.4-91.8-78.4
	L979,6.6v11.5l121.4-0.5c35.9,0,59.8,30.1,59.8,66.4c0,43-26.8,60.7-67.4,68.3v1l66.4,132.9h12.9L1109.5,160
	c7.7-2.3,15.2-5.2,22.5-8.6c24.9-12.4,39.7-32.5,39.7-67.4c0-29.2-13.9-51.1-36.3-66.4l1.4-1.4c34.4,12.9,50.7,37.8,50.7,68.3
	c0,35.8-17.7,67.4-60.2,76.9l-3.3,1v0.5l63.6,123.3h24.9v-11.5L1194.6,274.8L1194.6,274.8z"/>
<path class="st1" d="M1096.6,29.6h-48.8v111.8h29.6c36.3,0,67.4-18.6,67.4-56.9C1144.9,52.6,1125.3,29.6,1096.6,29.6z M1077.5,130
	h-18.2V41.1h37.3c22.9,0,36.8,18.6,36.8,43.5C1133.5,114.7,1110,130,1077.5,130z"/>
<polygon class="st0" points="1144.4,286.3 1079.4,153.4 1047.9,153.4 1047.9,286.3 1082.3,286.3 1082.3,274.8 1059.4,274.8 
	1059.4,164.9 1072.7,164.9 1133,286.3 "/>
<polygon class="st0" points="979,29.6 979,41.1 998.2,41.1 998.2,274.8 979,274.8 979,286.3 1009.6,286.3 1009.6,29.6 "/>
<rect x="1023" y="29.6" class="st1" width="11.5" height="256.7"/>
<rect x="979" y="297.7" class="st1" width="103.3" height="11.5"/>
<rect x="1127.7" y="297.7" class="st1" width="84.6" height="11.5"/>
<polygon class="st1" points="1256.3,6.1 1256.3,6.1 1256.3,14.8 1256.3,17.6 1256.3,40.6 1275.4,40.6 1275.4,274.6 1256.3,274.6 
	1256.3,283.3 1256.3,286 1256.3,309 1367.1,309 1367.1,283.3 1367.1,283.3 1367.1,274 1336.5,274 1336.5,166.6 1386.2,166.6 
	1386.2,187.7 1395.4,187.7 1395.4,188.1 1422.5,188.1 1422.5,110.3 1397.7,110.3 1395.4,110.3 1386.2,110.3 1386.2,131.3 
	1336.5,131.3 1336.5,40.6 1426.3,40.6 1437.3,73 1462.6,73 1464,73 1475.9,73 1452.1,6.1 "/>
<path class="st1" d="M1694.2,292.4"/>
<path class="st1" d="M1978.3,150.8c0-55.8-30.6-85.8-77.7-85.8c-15.8-0.2-31.4,3.5-45.5,10.7c-7.9,4.5-14.6,11-19.3,18.8v-23h-83.7
	v11l0,0v27h14.9v160.8h-14.9v38.7h98.9v-38.7h-15.2V150.1c0-28.5,11.2-46.1,41.3-46.1c21.5,0,32.7,16.6,32.7,46.7v119.5h-14.9v38.7
	h98.5v-25.8l0,0v-12.8h-15.1V150.8H1978.3z"/>
<path class="st1" d="M2141.2,8.6h-68.6v63H2048v38h24.6V250c0,42.4,17.2,66.4,83.6,66.4c10.2,0.2,20.4-1.4,30-4.8v-14.5l0,0v-29.5
	l0,0c-4.8,3.7-11.8,6.4-24.6,6.4c-18.8,0-20.3-7-20.3-37V109.4h51.5v-38h-51.6L2141.2,8.6z"/>
<path class="st1" d="M2454.7,270.3c-4.3,4.8-8.1,7.5-11.2,7.5c-5.8,0-7-8.1-7-11.8V134.2c0-57.9-40.7-69.1-96.4-69.1
	c-33.7,0-72.4,15.5-90.1,47.7v45h41.3v-35.9c8.1-13.4,23.6-17.6,40.3-17.6c23.1,0,35.9,7,35.9,37v18.2l-29.4,4.8
	c-56.3,10.3-100.3,32.1-100.3,82.5c0,31.6,18.2,69.7,71.8,69.7c26.3,0,51.5-6.4,63.7-28.5c8.1,18.8,20.9,28.5,44,28.5
	c13.5,0.2,26.8-3.7,38-11.2v-23.5l0,0v-11.2h-0.4L2454.7,270.3z M2368.4,239.9c-1.6,31.6-14.9,37-28.9,37
	c-21.5,0-30.6-12.4-30.6-32.1c0-20.3,3.7-37.5,32.1-41.8l27.3-4.3V239.9z M2373.6,255.4c-0.6,1.1-1,2.3-1.6,3.4
	C2373.3,255.9,2374.1,254.2,2373.6,255.4L2373.6,255.4z"/>
<path class="st1" d="M2624,156.8c-22.5-5.4-41.8-8.1-41.8-26.8c0-14.9,16.1-26.7,37-26.7c23,0,35.9,11.8,40.7,26.3v17.2h37V71.3
	H2661v13.9c-8.5-11.8-32.1-19.4-51.5-19.4c-54.2,0-97.6,32.1-97.6,81c0,44.5,37.6,62.7,71.9,71.3c25.7,7,53.1,10.7,53.1,32.1
	c0,12.8-19.4,28.5-35.9,28.5c-21.9,0-40.3-8.5-51.5-34.3v-21.9h-38.4v87.1h38.6v-13.1c12.4,16.6,32.7,20.9,57.9,20.9
	c55.2,0,98-28.5,98-81.5C2705.5,181.4,2661,165.3,2624,156.8z"/>
<path class="st1" d="M2981.1,97.3V72.1h-78.8v38h15.5L2876,244.6l-42.8-135h14.5V96.8l0,0V71.6h-105.6v27l0,0v11h13.4l82.5,228.3
	c-7,23.6-21.9,47.7-37.6,47.7c-9.1,0-20.9-3.3-37.6-14.5l-11.8,22.5c1.6,1.3,3,2.6,4.4,4c-1.5-1.3-3-2.6-4.4-4l-4.8,11.8
	c12.8,12.8,31.1,19.3,54.6,19.3c43.4,0,61.6-38.5,85.8-98.6l77.3-216h17.2L2981.1,97.3L2981.1,97.3z"/>
<path class="st1" d="M1694.2,281.5v-11.2h-0.6c-4.3,4.8-8.1,7.5-11.2,7.5c-5.8,0-7-8.1-7-11.8V134.2c0-57.9-40.7-69.1-96.4-69.1
	c-33.7,0-72.4,15.5-90.1,47.7v45h41.3v-35.9c8.1-13.4,23.6-17.6,40.3-17.6c23.1,0,35.8,7,35.8,37v18.2l-29.4,4.8
	c-56.3,10.3-100.3,32.1-100.3,82.5c0,31.6,18.2,69.7,71.8,69.7c26.3,0,51.5-6.4,63.7-28.5c8.1,18.8,20.9,28.5,44,28.5
	c13.5,0.2,26.8-3.7,38-11.2v-12.8L1694.2,281.5L1694.2,281.5z M1607.4,239.9c-1.6,31.6-14.9,37-28.9,37c-21.5,0-30.6-12.4-30.6-32.1
	c0-20.3,3.7-37.5,32.2-41.8l27.3-4.3L1607.4,239.9L1607.4,239.9z M1612.5,255.4c-0.6,1.1-1,2.3-1.6,3.4
	C1612.2,255.9,1613,254.2,1612.5,255.4z"/>
</svg>
