<?xml version="1.0" encoding="utf-8"?>
<!-- Generator: Adobe Illustrator 22.1.0, SVG Export Plug-In . SVG Version: 6.00 Build 0)  -->
<svg version="1.1" id="Vrstva_1" xmlns="http://www.w3.org/2000/svg" xmlns:xlink="http://www.w3.org/1999/xlink" x="0px" y="0px"
	 viewBox="0 0 1800.9 100.8" style="enable-background:new 0 0 1800.9 100.8;" xml:space="preserve">
<style type="text/css">
	.st0{fill:#FFFFFF;}
	.st1{fill:#CCDB3B;}
</style>
<g>
	<path class="st0" d="M51,83.2c11.6,0,19.9-3.5,26.1-7.6l8.3,11.5c-8,7-18.9,10.7-34.4,10.7c-31.7,0-49-20.3-49-48.1
		C2,21.9,19.4,1.6,51,1.6c15.5,0,26.3,3.7,34.4,10.7l-8.3,11.5C71,19.6,62.6,16.2,51,16.2c-21.3,0-31.4,14.2-31.4,33.5
		C19.6,69,29.7,83.2,51,83.2z"/>
	<path class="st0" d="M171.5,81.3v14.5H97v-8.6l50-69.1H99.7V3.5h71.8v8.6l-50,69.1H171.5z"/>
	<path class="st0" d="M253.3,41.5v14.5h-45.9v25.2h48.7v14.5H190V3.5h65.4v14.5h-48.1v23.4H253.3z"/>
	<path class="st0" d="M315,83.2c11.6,0,19.9-3.5,26.1-7.6l8.3,11.5c-8,7-18.9,10.7-34.4,10.7c-31.7,0-49-20.3-49-48.1
		c0-27.8,17.4-48.1,49-48.1c15.5,0,26.3,3.7,34.4,10.7L341,23.8c-6.1-4.1-14.5-7.6-26.1-7.6c-21.3,0-31.4,14.2-31.4,33.5
		C283.6,69,293.7,83.2,315,83.2z"/>
	<path class="st0" d="M426.6,3.5H444v92.3h-17.4V56.1h-44v39.8h-17.4V3.5h17.4v38h44V3.5z"/>
	<path class="st1" d="M547.5,12.9l-12.9,17.2c-8.4-4.5-16.9-6.6-27.7-6.6c-16.7,0-23.1,13-23.1,26.1c0,13.1,6.4,26.1,23.1,26.1
		c6.4,0,11.2-1,14.8-2.8V59.9h-16.1V39.8h40.3v47.7c-12.4,8.9-24.7,10.9-39,10.9c-34.6,0-50.6-21.7-50.6-48.7
		c0-27,16-48.7,50.6-48.7C525.7,1,537.5,5.7,547.5,12.9z"/>
	<path class="st1" d="M582,95.8h-28.7l37.8-92.3h27.5l37.8,92.3h-28.7l-5.8-14.9h-34.1L582,95.8z M595.9,60.2h18l-9-23.2L595.9,60.2
		z"/>
	<path class="st1" d="M663.5,95.8V3.5h40.7c23.9,0,41.7,8.9,41.7,32.9c0,15.1-10.8,22.7-18,25.5l18.8,33.9h-29.3l-15.8-28.5h-10.9
		v28.5H663.5z M690.7,26.3v20.3h13.5c9.8,0,14.2-3,14.2-10.2c0-7.1-4.4-10.2-14.2-10.2H690.7z"/>
	<path class="st1" d="M797.3,95.8h-40.2V3.5h40.2c35.6,0,48.3,20.2,48.3,46.1C845.6,75.7,832.9,95.8,797.3,95.8z M784.3,73.2h12.9
		c14.6,0,21-7.9,21-23.5c0-15.6-6.4-23.5-21-23.5h-12.9V73.2z"/>
	<path class="st1" d="M926.2,38.1v22.1h-43.1v13h46.8v22.7h-74V3.5h73.4v22.7h-46.1v11.9H926.2z"/>
	<path class="st1" d="M941.5,3.5h31.9l30.6,51.9V3.5h27.2v92.3h-31.9l-30.6-51.9v51.9h-27.2V3.5z"/>
	<path class="st1" d="M1044.1,95.8V3.5h42c25.9,0,40.4,12.7,40.4,34.7s-14.5,34.7-40.4,34.7h-14.8v22.9H1044.1z M1071.3,26.3v23.9
		h14.8c9.1,0,12.9-4.9,12.9-12s-3.8-12-12.9-12H1071.3z"/>
	<path class="st1" d="M1149.5,95.8h-28.7l37.8-92.3h27.5l37.8,92.3h-28.7l-5.8-14.9h-34.1L1149.5,95.8z M1163.3,60.2h18l-9-23.2
		L1163.3,60.2z"/>
	<path class="st1" d="M1231,95.8V3.5h40.7c23.9,0,41.7,8.9,41.7,32.9c0,15.1-10.8,22.7-18,25.5l18.8,33.9h-29.3l-15.8-28.5h-10.9
		v28.5H1231z M1258.2,26.3v20.3h13.5c9.8,0,14.2-3,14.2-10.2c0-7.1-4.4-10.2-14.2-10.2H1258.2z"/>
	<path class="st1" d="M1408.3,3.5v22.7h-30.2v69.6h-27.2V26.2h-30.2V3.5H1408.3z"/>
	<path class="st1" d="M1461.2,35.1l20.2-31.5h29.5l-36,55.7v36.6h-27.3V59.2l-36-55.7h29.5L1461.2,35.1z"/>
	<path class="st0" d="M1518.9,77.4c5.3,0,9.6,4.3,9.6,9.6c0,5.3-4.3,9.5-9.6,9.5c-5.3,0-9.5-4.2-9.5-9.5
		C1509.4,81.7,1513.6,77.4,1518.9,77.4z"/>
	<path class="st0" d="M1574.3,83.7c7,0,13.2-1.9,18.9-6.4l8.2,10.4c-7.2,7.1-16.5,9.5-27.2,9.5c-22.4,0-36.7-14.7-36.7-34.2
		s14.3-34.2,36.7-34.2c10.6,0,19.9,2.3,27.2,9.5l-8.4,10.2c-5.7-4.5-11.8-6.2-18.8-6.2c-14.1,0-20.1,9.9-20.1,20.7
		S1560.2,83.7,1574.3,83.7z"/>
	<path class="st0" d="M1646.4,97.1c-22.4,0-36.7-14.7-36.7-34.2s14.3-34.2,36.7-34.2c22.3,0,36.7,14.6,36.7,34.2
		C1683.1,82.5,1668.8,97.1,1646.4,97.1z M1646.4,42.2c-14.1,0-20.1,9.9-20.1,20.7s6,20.7,20.1,20.7s20.1-9.9,20.1-20.7
		S1660.5,42.2,1646.4,42.2z"/>
	<path class="st0" d="M1697.3,30.1h16.1v6c2.2-3.9,8.8-7.3,15.3-7.3c10.4,0,17.6,3.6,21.6,9.1c3.5-4.7,11.3-9.1,20.2-9.1
		c15.8,0,26.5,8.4,26.5,28.7v38.4h-16.2V57.5c0-9.1-3.9-15.3-12.8-15.3c-8.9,0-12.8,6.2-12.8,15.3v38.4h-16.1V57.5
		c0-9.1-3.9-15.3-12.8-15.3s-12.8,6.2-12.8,15.3v38.4h-16.1V30.1z"/>
</g>
</svg>
