<svg xmlns="http://www.w3.org/2000/svg" width="379" height="37" fill-rule="evenodd" clip-rule="evenodd" image-rendering="optimizeQuality" shape-rendering="geometricPrecision" text-rendering="geometricPrecision" viewBox="0 0 33.96 3.34"><path fill="#f93" d="M0 3.34h12.43v-.36H0z"/><path fill="#006edb" d="M12.39 3.34h8.79v-.36h-8.79z"/><path fill="#440385" d="M21.11 3.34h12.85v-.36H21.11z"/><g fill-rule="nonzero"><path fill="#909" d="M.18 2.78a.18.18 0 01-.13-.05A.18.18 0 010 2.6V.22C0 .16.02.12.05.09A.18.18 0 01.18.04c.06 0 .1.01.13.05.04.03.06.07.06.13v1H2v-1c0-.06.01-.1.05-.13a.18.18 0 01.13-.05.17.17 0 01.18.18V2.6c0 .05-.02.1-.05.13a.17.17 0 01-.13.05.18.18 0 01-.13-.05A.17.17 0 012 2.6V1.55H.37V2.6a.18.18 0 01-.19.18zm4.15.03c-.28 0-.52-.06-.73-.18a1.25 1.25 0 01-.5-.5 1.5 1.5 0 01-.17-.72c0-.28.06-.52.18-.73.11-.21.28-.38.5-.5.2-.12.44-.18.72-.18.27 0 .5.06.72.18.21.12.38.29.5.5.11.21.17.45.17.73 0 .27-.06.5-.18.72-.11.22-.28.39-.49.5-.21.12-.45.18-.72.18zm0-.33a1.03 1.03 0 00.9-.53c.1-.16.14-.34.14-.54s-.04-.39-.13-.55a.97.97 0 00-.37-.39C4.7.37 4.53.33 4.33.33s-.38.05-.54.14a.98.98 0 00-.37.39c-.1.16-.14.34-.14.55 0 .2.05.38.14.54a1 1 0 00.9.53zM8.86.04c.05 0 .1.01.13.05.03.03.05.08.05.13V2.6c0 .05-.02.09-.05.12a.18.18 0 01-.13.06.18.18 0 01-.18-.19V.85l-.85 1.73c-.04.06-.1.1-.16.1a.18.18 0 01-.17-.12L6.66.88V2.6a.18.18 0 01-.18.18.18.18 0 01-.19-.18V.22c0-.05.02-.1.06-.13a.18.18 0 01.13-.06c.07 0 .12.04.16.1l1.04 2.1L8.7.12c.03-.06.09-.1.16-.1zm1.06 2.74a.18.18 0 01-.13-.05.18.18 0 01-.05-.13V.22c0-.06.02-.1.05-.13a.18.18 0 01.13-.05h1.6c.05 0 .09.01.12.04s.05.08.05.13-.02.09-.05.12a.18.18 0 01-.13.04h-1.4v.86h1c.06 0 .1.01.13.04.04.04.05.08.05.12 0 .05-.01.1-.05.13a.18.18 0 01-.12.04H10.1v.88h1.4c.06 0 .1.02.13.05.03.03.05.07.05.12 0 .05-.01.09-.05.12a.18.18 0 01-.13.05H9.93z"/><path fill="#fff" d="M14.98.04a.16.16 0 01.17.16c0 .05-.02.1-.05.13a.17.17 0 01-.12.04h-.76V2.6c0 .06-.01.1-.05.13a.18.18 0 01-.13.06.18.18 0 01-.18-.19V.37h-.76a.17.17 0 01-.12-.05.16.16 0 01-.05-.12c0-.05.02-.09.05-.12a.16.16 0 01.12-.05h1.88zm1.66 2.77c-.27 0-.51-.06-.72-.18a1.25 1.25 0 01-.5-.5 1.5 1.5 0 01-.17-.72c0-.28.06-.52.17-.73.12-.21.29-.38.5-.5.21-.12.45-.18.72-.18.27 0 .51.06.72.18.22.12.38.29.5.5.12.21.18.45.18.73 0 .27-.06.5-.18.72-.12.22-.28.39-.5.5-.2.12-.45.18-.72.18zm0-.33a1.03 1.03 0 00.91-.53c.1-.16.14-.34.14-.54s-.05-.39-.14-.55a.98.98 0 00-.37-.39c-.16-.1-.34-.14-.54-.14s-.38.05-.54.14a.98.98 0 00-.37.39c-.09.16-.13.34-.13.55 0 .2.04.38.13.54a1 1 0 00.91.53zM20.3.04c.04 0 .08.01.11.04.03.04.04.08.04.12 0 .04 0 .08-.03.12l-.95 1.46v.82c0 .05-.01.09-.05.13a.18.18 0 01-.13.05.17.17 0 01-.13-.05.18.18 0 01-.05-.13v-.82L18.18.32a.21.21 0 01-.04-.11c0-.05.01-.1.05-.13a.19.19 0 01.13-.04c.04 0 .07 0 .09.02.02.02.05.04.07.08l.82 1.3.84-1.32c.04-.06.09-.08.16-.08z"/><path fill="#f06" d="M23.6.04c.05 0 .1.01.12.04.03.03.05.07.05.12 0 .05-.02.1-.05.13a.17.17 0 01-.12.04h-.75V2.6c0 .06-.02.1-.06.13a.18.18 0 01-.13.06.18.18 0 01-.18-.19V.37h-.76a.17.17 0 01-.12-.05.16.16 0 01-.05-.12c0-.05.02-.09.05-.12a.16.16 0 01.12-.05h1.88zm.76 2.74a.18.18 0 01-.13-.05.18.18 0 01-.06-.13V.22c0-.06.02-.1.06-.13a.18.18 0 01.13-.05h1.58c.06 0 .1.01.13.04.04.03.05.08.05.13s-.01.09-.05.12a.18.18 0 01-.13.04h-1.4v.86h1c.06 0 .1.01.13.04.04.04.06.08.06.12 0 .05-.02.1-.06.13a.18.18 0 01-.12.04h-1.01v.88h1.4c.06 0 .1.02.13.05.04.03.05.07.05.12 0 .05-.01.09-.05.12a.18.18 0 01-.13.05h-1.58zm2.45 0a.18.18 0 01-.13-.05.17.17 0 01-.05-.13V.22c0-.06.02-.1.05-.13a.18.18 0 01.13-.05h1.6c.05 0 .09.01.12.04s.05.08.05.13-.02.09-.05.12a.19.19 0 01-.13.04H27v.86h1c.06 0 .1.01.13.04.04.04.05.08.05.12 0 .05-.01.1-.05.13a.18.18 0 01-.13.04h-1v.88h1.4c.06 0 .1.02.13.05.03.03.05.07.05.12 0 .05-.02.09-.05.12a.18.18 0 01-.13.05h-1.59zm2.46 0a.17.17 0 01-.18-.19V.22c0-.06.02-.1.05-.13a.17.17 0 01.13-.06l.08.02a.2.2 0 01.06.05l1.53 2.04V.22c0-.06.02-.1.05-.13a.18.18 0 01.13-.06.17.17 0 01.18.19v2.37c0 .06-.01.1-.05.14a.17.17 0 01-.13.05.2.2 0 01-.08-.02.12.12 0 01-.06-.04L29.45.67V2.6a.18.18 0 01-.18.18zm3.6.03c-.22 0-.43-.05-.61-.15a.83.83 0 01-.39-.4.19.19 0 01-.02-.08c0-.03.02-.06.04-.09a.2.2 0 01.1-.05h.04a.2.2 0 01.11.03.2.2 0 01.08.09c.04.09.12.17.25.23.12.06.26.1.4.1.18 0 .33-.05.45-.13s.19-.19.19-.33a.45.45 0 00-.16-.34.8.8 0 00-.47-.18 1.2 1.2 0 01-.69-.25.67.67 0 01-.24-.53.6.6 0 01.12-.4c.09-.1.2-.18.35-.24.15-.06.32-.09.5-.09.2 0 .38.04.51.13.14.08.26.2.36.35.02.04.04.08.04.12 0 .06-.03.1-.07.13a.17.17 0 01-.1.03.19.19 0 01-.17-.1.66.66 0 00-.23-.24.71.71 0 00-.36-.09.8.8 0 00-.43.1.33.33 0 00-.17.3c0 .13.05.23.15.31.1.09.27.14.53.17.28.02.5.1.65.25.16.14.23.33.23.56a.7.7 0 01-.13.43.82.82 0 01-.37.27c-.15.06-.31.1-.48.1z"/></g></svg>