<svg xmlns="http://www.w3.org/2000/svg" width="322" height="50" fill-rule="evenodd" clip-rule="evenodd" image-rendering="optimizeQuality" shape-rendering="geometricPrecision" text-rendering="geometricPrecision" viewBox="0 0 24.94 3.88"><defs><style>.fil2{fill:#f06}.fil2,.fil3,.fil4{fill-rule:nonzero}.fil3{fill:#f9f}.fil4{fill:#fff}</style></defs><g id="Layer_x0020_1"><g id="_1348683760"><path fill="#450145" stroke="#f9f" stroke-miterlimit="22.93" stroke-width=".15" d="M.08.08h24.78V3.8H.08z"/><path d="M.85 2.59H24.1v.7H.85z"/><path d="M.88 2.53V.67h.87c.24 0 .42.05.53.15.1.1.15.25.15.47v.12c0 .22-.05.38-.16.48-.1.1-.28.14-.52.14h-.37v.5h-.5zm.5-.9h.34c.08 0 .14-.02.16-.05.03-.03.04-.09.04-.18v-.1c0-.08-.01-.13-.05-.16-.03-.03-.09-.05-.17-.05h-.32v.53z" class="fil2"/><path id="1" d="M3.66 1.57h.28c.08 0 .14-.01.17-.04s.04-.09.04-.16V1.3c0-.08-.02-.14-.05-.17-.03-.03-.08-.04-.16-.04h-.28v.48zm-.5.96V.67h.75c.28 0 .48.04.59.12.1.07.16.2.16.4v.14c0 .13-.03.23-.1.3a.4.4 0 01-.26.13c.12.02.21.06.27.12.06.06.09.15.09.27v.38h-.51V2.2c0-.08-.02-.14-.05-.17C4.07 2 4.02 2 3.93 2h-.27v.54h-.5z" class="fil2"/><path id="2" d="M5.45 2.53V.67h.51v1.86z" class="fil2"/><path id="3" d="M6.65.67h.53l.36 1.45.38-1.45h.53l-.53 1.86h-.75z" class="fil2"/><path id="4" d="M9.6 1.83h.41l-.18-.77h-.04l-.19.77zm-.7.7L9.42.67h.76l.52 1.86h-.53l-.08-.32H9.5l-.08.32H8.9z" class="fil2"/><path id="5" d="M11.48 2.53V1.09H11V.67h1.46v.42h-.48v1.44z" class="fil2"/><path id="6" d="M13.17 2.53V.67h1.39v.42h-.89v.32h.87v.36h-.87v.35h.91v.41z" class="fil2"/><path id="7" d="M16.18 2.53V1.09h-.48V.67h1.46v.42h-.48v1.44z" class="fil3"/><path id="8" d="M17.87 2.53V.67h1.39v.42h-.89v.32h.87v.36h-.87v.35h.91v.41z" class="fil3"/><path id="9" d="M20.07 2.53V.67h1.39v.42h-.89v.32h.87v.36h-.87v.35h.91v.41z" class="fil3"/><path id="10" d="M22.27 2.53V.67h.74l.58 1.38V.67h.47v1.86h-.74l-.58-1.39v1.39z" class="fil3"/><path d="M2.48 3.27l-.29-.56h.19l.22.42.23-.42h.18l-.31.56z" class="fil4"/><path id="1" d="M4.85 3.27v-.56h.17v.56z" class="fil4"/><path id="2" d="M7.4 2.7c.1 0 .16.02.2.06.04.03.05.1.05.2v.11a.4.4 0 010 .07c-.01.04-.03.06-.07.09a.2.2 0 01-.12.04H6.9V2.7h.5zm.08.29c0-.06 0-.1-.02-.12-.01-.02-.04-.03-.1-.03h-.29v.29h.29c.05 0 .09-.01.1-.03l.02-.11z" class="fil4"/><path id="3" d="M10.15 2.71v.12H9.7v.1h.42v.11H9.7v.1h.45v.13h-.62v-.56z" class="fil4"/><path id="4" d="M12.37 2.7h.14c.1 0 .17.02.2.05.04.04.06.1.06.2v.03c0 .11-.02.19-.04.23-.03.04-.1.06-.23.06h-.29a.23.23 0 01-.15-.04c-.04-.03-.06-.08-.06-.15v-.1c0-.11.02-.19.05-.22.02-.04.1-.06.2-.06h.12zm-.09.43h.18l.1-.01c.02-.01.03-.04.03-.08V2.9c0-.02 0-.03-.02-.04l-.04-.02a.3.3 0 00-.04 0h-.19l-.09.01c-.02 0-.03.03-.03.05V3l.01.1c.01.03.04.04.1.04z" class="fil4"/><path id="5" d="M14.62 3.27v-.16h.17v.16z" class="fil4"/><path id="6" d="M17.36 3.08c0 .07-.01.12-.04.15s-.08.04-.17.04h-.23c-.11 0-.19-.02-.22-.04a.198.198 0 01-.05-.14v-.12c0-.09.01-.16.04-.2.03-.04.08-.07.16-.07h.38c.05.01.08.03.1.07.02.03.03.08.03.13h-.17c0-.02 0-.04-.02-.05l-.06-.01h-.18c-.05 0-.08 0-.1.03v.12l.01.12.1.02h.17l.06-.01c.02 0 .03-.03.03-.07h.16v.03z" class="fil4"/><path id="7" d="M19.6 2.7h.13c.1 0 .17.02.2.05.04.04.06.1.06.2v.03c0 .11-.01.19-.04.23-.03.04-.1.06-.22.06h-.3a.23.23 0 01-.15-.04c-.04-.03-.05-.08-.05-.15v-.1c0-.11 0-.19.04-.22.03-.04.1-.06.2-.06h.13zm-.1.43h.18l.1-.01c.03-.01.04-.04.04-.08V2.9l-.02-.04-.05-.02a.3.3 0 00-.04 0h-.19l-.08.01c-.02 0-.04.03-.04.05V3l.01.1c.02.03.05.04.1.04z" class="fil4"/><path id="8" d="M22.65 3.27v-.43l-.25.43h-.13l-.25-.43v.43h-.16v-.56h.27l.21.37.2-.37h.27v.56z" class="fil4"/></g></g></svg>