<svg xmlns="http://www.w3.org/2000/svg" width="248" height="29" fill-rule="evenodd" clip-rule="evenodd" image-rendering="optimizeQuality" shape-rendering="geometricPrecision" text-rendering="geometricPrecision" viewBox="0 0 34.64 4.03"><defs><style>.fil3{fill:#2ec4ff}.fil0,.fil1,.fil2,.fil3{fill-rule:nonzero}.fil2{fill:#f9368d}.fil1{fill:#ff0}.fil0{fill:#fff}</style></defs><g id="Layer-214"><path d="M3.46.09v1.04h-.1a1.7 1.7 0 00-.2-.52.76.76 0 00-.31-.25c-.07-.03-.2-.05-.38-.05h-.29v2.97c0 .2.01.32.04.37.02.05.06.1.12.13.06.04.15.06.26.06h.12v.1h-2v-.1h.13c.11 0 .2-.02.26-.06a.28.28 0 00.12-.14c.02-.04.03-.16.03-.36V.31H.98C.72.31.54.36.42.47a1.1 1.1 0 00-.31.66H0V.09h3.46z" class="fil0"/><path id="1" d="M14.89 0l.03 1.28h-.12a1.23 1.23 0 00-.4-.77c-.22-.2-.45-.3-.7-.3a.7.7 0 00-.46.16.48.48 0 00-.17.36c0 .08.02.16.06.22.06.09.15.18.27.27.09.06.29.17.61.33.45.22.76.43.92.62a1.1 1.1 0 01-.15 1.51c-.25.23-.57.35-.95.35-.12 0-.24-.02-.35-.04a2.8 2.8 0 01-.4-.14.6.6 0 00-.23-.06c-.05 0-.1.02-.15.06-.06.04-.1.1-.14.18h-.1V2.57h.1c.09.41.25.72.48.94.24.21.5.32.77.32.21 0 .38-.06.51-.18a.5.5 0 00.19-.4.6.6 0 00-.07-.26.83.83 0 00-.22-.24c-.1-.08-.28-.18-.53-.3-.35-.17-.6-.32-.75-.44a1.34 1.34 0 01-.35-.41.92.92 0 01-.13-.49c0-.31.12-.57.34-.79.23-.21.51-.32.85-.32.13 0 .25.01.37.04l.32.13a.8.8 0 00.27.09c.05 0 .09-.01.12-.04A.7.7 0 0014.8 0h.09z" class="fil0"/><path id="2" d="M23.51 2.63L24.56.09h1.56v.1H26a.5.5 0 00-.27.06c-.05.02-.09.07-.12.13-.02.05-.03.17-.03.36v2.54c0 .2.01.32.03.37.02.05.06.1.13.13.06.04.15.06.26.06h.12v.1h-2v-.1h.12c.11 0 .21-.02.27-.06a.28.28 0 00.12-.14c.02-.04.03-.16.03-.36V.43l-1.48 3.51h-.07L21.61.46v2.71c0 .19.01.3.02.35.02.09.07.17.16.23.08.06.21.09.38.09v.1h-1.31v-.1h.04c.08 0 .16-.01.23-.04a.37.37 0 00.17-.12.51.51 0 00.09-.21l.01-.29V.74a.96.96 0 00-.04-.37.3.3 0 00-.12-.13.5.5 0 00-.26-.05h-.12v-.1h1.57l1.08 2.54z" class="fil0"/><path id="3" d="M4.25 3.94a.17.17 0 01-.13-.05.18.18 0 01-.06-.14V1.27c0-.05.02-.09.06-.13.03-.04.07-.05.13-.05h1.63c.05 0 .1.01.13.05.03.03.05.07.05.12 0 .05-.02.09-.05.12-.03.04-.08.05-.13.05H4.43v.91h1.31c.05 0 .09.01.12.05.04.03.05.07.05.12 0 .05-.01.09-.05.12-.03.04-.07.05-.12.05H4.43v.91h1.45c.05 0 .1.02.13.05.03.04.05.08.05.13s-.02.09-.05.12a.19.19 0 01-.13.05H4.25z" class="fil1"/><path id="4" d="M6.85 3.94a.21.21 0 01-.13-.05.22.22 0 01-.05-.14V1.27c0-.05.02-.09.05-.13a.17.17 0 01.13-.05h1.64c.05 0 .09.01.13.05.03.03.05.07.05.12 0 .05-.02.09-.05.12a.17.17 0 01-.13.05H7.04v.91h1.3c.05 0 .1.01.13.05.03.03.05.07.05.12 0 .05-.02.09-.05.12-.03.04-.08.05-.13.05h-1.3v.91h1.45c.05 0 .09.02.13.05.03.04.05.08.05.13s-.02.09-.05.12a.21.21 0 01-.13.05H6.85z" class="fil1"/><path id="5" d="M9.46 3.96a.21.21 0 01-.13-.05c-.04-.04-.05-.08-.05-.14V1.34c0-.08.02-.14.07-.19a.25.25 0 01.19-.08h.06c.08 0 .16.04.22.12l1.57 2.27V1.25c0-.05.02-.09.06-.13.03-.04.08-.05.13-.05s.09.01.13.05c.04.04.06.08.06.13v2.44c0 .08-.03.14-.08.19a.3.3 0 01-.19.08h-.05a.28.28 0 01-.13-.03.34.34 0 01-.09-.08L9.65 1.56v2.21c0 .06-.02.1-.06.14a.19.19 0 01-.13.05z" class="fil1"/><path id="6" d="M15.97 3.94a.21.21 0 01-.13-.05.22.22 0 01-.05-.14V1.27c0-.05.02-.09.05-.13a.17.17 0 01.13-.05h1.64c.05 0 .09.01.13.05.03.03.05.07.05.12 0 .05-.02.09-.05.12a.17.17 0 01-.13.05h-1.45v.91h1.3c.05 0 .1.01.13.05.03.03.05.07.05.12 0 .05-.02.09-.05.12-.03.04-.08.05-.13.05h-1.3v.91h1.45c.05 0 .09.02.13.05.03.04.05.08.05.13s-.02.09-.05.12a.21.21 0 01-.13.05h-1.64z" class="fil2"/><path id="7" d="M18.35 3.96a.18.18 0 01-.12-.05.2.2 0 01-.05-.12c0-.05.01-.08.04-.12l.94-1.16-.94-1.15a.2.2 0 01-.03-.11c0-.06.01-.1.05-.13.03-.04.08-.05.13-.05.03 0 .06 0 .08.02l.07.05.86 1.09.86-1.1c.03-.04.08-.06.14-.06.05 0 .09.01.12.05.04.03.06.07.06.12 0 .04-.01.07-.03.1l-.95 1.17.95 1.16c.02.03.03.06.03.1 0 .06-.01.1-.05.14a.19.19 0 01-.13.05.19.19 0 01-.15-.08l-.87-1.1-.87 1.11c-.04.04-.08.07-.14.07z" class="fil2"/><path id="8" d="M27.88 3.98c-.28 0-.53-.06-.75-.19-.21-.12-.38-.3-.5-.52a1.81 1.81 0 01-.18-.76c.01-.28.07-.54.18-.76.12-.22.29-.39.5-.52.22-.12.47-.18.75-.18a1.32 1.32 0 011.25.7c.12.23.18.48.19.76-.01.29-.07.54-.19.76-.12.22-.28.4-.5.52a1.4 1.4 0 01-.75.19zm0-.35c.22 0 .41-.05.57-.15a.9.9 0 00.37-.4 1.3 1.3 0 000-1.14.95.95 0 00-.37-.4c-.16-.1-.35-.15-.57-.15-.22 0-.41.05-.57.15a.93.93 0 00-.36.4 1.2 1.2 0 00-.13.57c0 .21.04.41.13.57.08.17.2.31.36.4.16.1.35.15.57.15z" class="fil3"/><path id="9" d="M30.86 3.96c-.11 0-.2-.06-.25-.19L29.6 1.32a.14.14 0 01-.02-.07c0-.05.02-.1.05-.13.04-.04.08-.05.14-.05.04 0 .07.01.1.03.03.02.06.05.07.09l.96 2.4.96-2.4c.02-.04.04-.07.08-.09a.17.17 0 01.1-.03c.06 0 .1.01.14.05.03.03.04.08.04.13l-.01.07-1.01 2.45c-.05.13-.14.19-.25.19h-.09z" class="fil3"/><path id="10" d="M33.6 3.98c-.35 0-.67-.07-.98-.2a.16.16 0 01-.08-.06.22.22 0 01-.03-.1c0-.05.02-.09.05-.12a.14.14 0 01.12-.06l.08.02c.25.11.51.17.8.17.48 0 .72-.16.72-.47a.26.26 0 00-.1-.21.91.91 0 00-.22-.13l-.39-.11c-.22-.05-.4-.11-.53-.16a.99.99 0 01-.35-.24.6.6 0 01-.15-.43.77.77 0 01.48-.72c.16-.08.35-.11.58-.11.3 0 .57.04.81.13.08.03.12.08.12.16 0 .05-.02.09-.05.12a.14.14 0 01-.12.06 2.17 2.17 0 00-.72-.13c-.22 0-.39.04-.53.12a.4.4 0 00-.2.34c0 .1.03.18.1.24a.7.7 0 00.24.15 5.75 5.75 0 01.91.26c.14.05.25.13.34.24.1.11.14.26.14.44 0 .15-.04.29-.13.41a.85.85 0 01-.37.29c-.15.07-.34.1-.54.1z" class="fil3"/></g></svg>