<svg xmlns="http://www.w3.org/2000/svg" width="173" height="29" fill-rule="evenodd" clip-rule="evenodd" image-rendering="optimizeQuality" shape-rendering="geometricPrecision" text-rendering="geometricPrecision" viewBox="0 0 16.65 2.78"><defs><style>.fil0,.fil2{fill-rule:nonzero}.fil2{fill:#f0135f}.fil0{fill:#fff}</style></defs><g id="Layer-214"><g id="_1872640688"><path d="M.13 2.39c-.04 0-.07-.01-.09-.03A.12.12 0 010 2.27V.53C0 .5.01.47.04.44A.13.13 0 01.13.4h1.1c.03 0 .06.02.08.04.03.02.04.05.04.09a.1.1 0 01-.04.08.11.11 0 01-.08.03H.26v.63h.87a.1.1 0 01.08.04.1.1 0 01.04.08c0 .04-.01.06-.04.09a.11.11 0 01-.08.03H.26v.76c0 .03-.02.06-.04.09a.16.16 0 01-.09.03z" class="fil0"/><path id="1" d="M1.85 2.39c-.04 0-.07-.01-.09-.03a.12.12 0 01-.04-.09V.52c0-.04.01-.07.04-.09.02-.03.05-.04.09-.04.03 0 .06.01.09.04.02.02.04.05.04.09v1.75c0 .03-.02.06-.04.09a.16.16 0 01-.09.03z" class="fil0"/><path id="2" d="M2.65 2.39a.16.16 0 01-.09-.03.16.16 0 01-.03-.09V.53l.03-.09c.03-.02.06-.04.09-.04h.66c.26 0 .45.06.58.16.13.11.19.25.19.42 0 .11-.03.21-.09.31a.58.58 0 01-.28.2.4.4 0 01.28.25c.05.14.07.27.07.4v.13l-.03.09a.16.16 0 01-.09.03.17.17 0 01-.1-.03.16.16 0 01-.03-.09v-.09c0-.09-.01-.18-.03-.26a.53.53 0 00-.12-.22c-.06-.06-.16-.09-.29-.09h-.59v.66l-.03.09a.17.17 0 01-.1.03zm.65-1.02c.16 0 .29-.04.38-.1.1-.06.14-.15.14-.27 0-.12-.04-.2-.12-.26-.08-.06-.22-.09-.42-.09h-.5v.72h.52z" class="fil0"/><path id="3" d="M5.16 2.41c-.24 0-.46-.05-.67-.14-.02-.01-.04-.02-.06-.05a.14.14 0 01-.02-.07c0-.03.01-.05.03-.08.02-.02.05-.03.09-.03a.1.1 0 01.05.01c.17.07.36.11.56.11.33 0 .49-.1.49-.32 0-.06-.02-.11-.06-.14a.42.42 0 00-.16-.09l-.26-.08-.38-.11a.8.8 0 01-.24-.17c-.07-.07-.1-.17-.1-.29 0-.11.03-.21.08-.3a.75.75 0 01.25-.21.99.99 0 01.4-.07c.21 0 .4.03.56.09.06.02.08.06.08.11 0 .03-.01.06-.03.08a.1.1 0 01-.08.04L5.65.69C5.5.64 5.35.61 5.19.61a.64.64 0 00-.36.09c-.1.05-.14.13-.14.24 0 .06.02.12.06.16.05.04.1.08.17.1l.27.08c.15.03.27.07.36.1.1.04.17.09.24.17.06.08.1.18.1.31 0 .1-.03.2-.09.28a.67.67 0 01-.26.2c-.11.04-.23.07-.38.07z" class="fil0"/><path id="4" d="M6.76 2.39a.16.16 0 01-.09-.03.16.16 0 01-.03-.09V.64h-.58a.14.14 0 01-.09-.03.11.11 0 01-.03-.08c0-.04.01-.07.03-.09C6 .42 6.02.4 6.06.4h1.41c.03 0 .06.02.08.04.03.02.04.05.04.09a.1.1 0 01-.04.08.11.11 0 01-.08.03h-.58v1.63c0 .03-.01.06-.04.09-.02.02-.05.03-.09.03z" class="fil0"/><path fill="#0cf" fill-rule="nonzero" d="M9.55 1.31c.25.06.43.13.54.21a.6.6 0 01.22.47c0 .2-.08.36-.25.49-.19.16-.48.24-.86.24H7.85v-.07c.13 0 .21-.01.25-.03.05-.02.08-.05.09-.09a.75.75 0 00.03-.27V.53a.78.78 0 00-.03-.28C8.18.21 8.15.18 8.1.16a.69.69 0 00-.25-.03V.06h1.28c.3 0 .52.03.65.08.12.06.22.14.3.24.07.11.11.23.11.35a.5.5 0 01-.14.34c-.1.1-.26.18-.5.24zm-.71-.05c.18 0 .32-.02.41-.07.09-.04.16-.1.21-.17a.65.65 0 00.07-.29.59.59 0 00-.07-.29.47.47 0 00-.2-.17 1.1 1.1 0 00-.42-.06v1.05zm0 .15v.95c0 .07.01.12.05.16.03.04.09.05.16.05.1 0 .19-.02.28-.07a.43.43 0 00.2-.2.54.54 0 00.07-.29.7.7 0 00-.08-.33.43.43 0 00-.23-.21c-.1-.04-.25-.06-.45-.06z"/><path id="1" d="M13.22 0v.94h-.07a1.14 1.14 0 00-.4-.58.86.86 0 00-.57-.2c-.2 0-.37.05-.5.16a1 1 0 00-.28.47 2.57 2.57 0 00.01 1.29c.06.19.16.33.29.42.13.09.29.13.48.13.06 0 .13 0 .19-.02a.83.83 0 00.21-.06V2l-.02-.2a.38.38 0 00-.09-.09c-.05-.02-.1-.04-.16-.04h-.07v-.06h1.29v.06c-.1.01-.17.02-.21.05a.2.2 0 00-.08.1c-.02.02-.02.09-.02.18v.55a2.55 2.55 0 01-1.1.23 1.48 1.48 0 01-1.37-.75 1.33 1.33 0 01-.14-.6c0-.4.14-.74.42-1.02.28-.27.64-.41 1.07-.41.13 0 .25.01.35.03l.28.09.23.07c.04 0 .07-.01.1-.04.03-.02.06-.08.09-.15h.07z" class="fil2"/><path id="2" d="M16.34 0v.94h-.07a1.13 1.13 0 00-.39-.58.9.9 0 00-.58-.2c-.2 0-.36.05-.49.16a.94.94 0 00-.29.47 2.57 2.57 0 00.01 1.29c.06.19.16.33.29.42.14.09.29.13.48.13.06 0 .13 0 .2-.02a.9.9 0 00.2-.06V2c0-.1 0-.17-.02-.2-.01-.03-.04-.06-.09-.09a.38.38 0 00-.16-.04h-.07v-.06h1.29v.06c-.09.01-.16.02-.2.05a.18.18 0 00-.09.1.57.57 0 00-.02.18v.55a2.55 2.55 0 01-1.1.23c-.25 0-.46-.03-.63-.1a1.8 1.8 0 01-.44-.27 1.2 1.2 0 01-.3-.38 1.4 1.4 0 01.29-1.62c.28-.27.63-.41 1.06-.41.13 0 .25.01.36.03l.28.09c.12.05.2.07.22.07.04 0 .07-.01.11-.04.03-.02.06-.08.08-.15h.07z" class="fil2"/></g></g></svg>