<svg xmlns="http://www.w3.org/2000/svg" width="337" height="50" fill-rule="evenodd" clip-rule="evenodd" image-rendering="optimizeQuality" shape-rendering="geometricPrecision" text-rendering="geometricPrecision" viewBox="0 0 27.22 4.04"><path fill="#585c6b" d="M.92.68H27.2v1.2H.92z"/><g fill-rule="nonzero"><path fill="#f9f" d="M1.77.68c.04 0 .07.01.1.04s.04.06.04.1c0 .05-.01.08-.04.11a.14.14 0 01-.1.04h-.65V2.9c0 .04-.02.08-.05.11a.15.15 0 01-.11.05.16.16 0 01-.16-.16V.97H.15a.14.14 0 01-.1-.04.15.15 0 01-.05-.1C0 .78.01.75.04.73a.14.14 0 01.1-.05h1.63zm.65 2.37a.15.15 0 01-.16-.16V.84c0-.05.02-.09.05-.12a.16.16 0 01.1-.04H3.8c.05 0 .08.01.11.04s.04.06.04.1c0 .05-.01.09-.04.11a.16.16 0 01-.11.04H2.58v.74h.87c.04 0 .08.01.1.04.04.03.05.06.05.1 0 .05-.01.08-.04.1a.15.15 0 01-.11.05h-.87v.76h1.21c.05 0 .08.01.11.04.03.02.04.06.04.1 0 .04-.01.08-.04.1a.15.15 0 01-.11.05H2.42zm2.12 0a.15.15 0 01-.16-.16V.84c0-.05.02-.09.05-.12a.16.16 0 01.11-.04h1.37c.05 0 .09.01.11.04.03.03.05.06.05.1 0 .05-.02.09-.05.11a.16.16 0 01-.1.04H4.7v.74h.87c.04 0 .08.01.11.04s.04.06.04.1c0 .05-.01.08-.04.1a.15.15 0 01-.11.05H4.7v.76h1.2c.05 0 .09.01.11.04.03.02.05.06.05.1 0 .04-.02.08-.05.1a.15.15 0 01-.1.05H4.53zm2.12 0A.15.15 0 016.55 3a.15.15 0 01-.04-.1V.83c0-.05.01-.09.04-.12A.15.15 0 016.73.7c.02 0 .04.02.05.04L8.1 2.5V.84c0-.05.02-.09.05-.12a.15.15 0 01.11-.04.15.15 0 01.16.16v2.05a.15.15 0 01-.16.16l-.07-.01a.12.12 0 01-.05-.05L6.82 1.24v1.65c0 .04-.02.08-.05.11a.15.15 0 01-.1.05z"/><path fill="#0cf" d="M14.22 3.08c-.2 0-.38-.05-.54-.13a.72.72 0 01-.33-.35.17.17 0 01-.02-.06c0-.03.01-.06.04-.08a.17.17 0 01.09-.05h.03c.03 0 .06 0 .1.02l.06.08c.03.08.1.15.21.2.1.06.23.08.36.08.15 0 .28-.03.38-.1.1-.07.16-.17.16-.29a.39.39 0 00-.14-.3.68.68 0 00-.4-.14c-.25-.03-.45-.1-.6-.22a.58.58 0 01-.2-.46c0-.13.03-.24.1-.34a.7.7 0 01.3-.21c.13-.05.28-.08.44-.08.17 0 .32.04.44.1a.9.9 0 01.3.31.2.2 0 01.04.11c0 .05-.02.08-.06.11a.14.14 0 01-.08.02c-.03 0-.06 0-.09-.02a.16.16 0 01-.06-.06.58.58 0 00-.2-.21.62.62 0 00-.31-.07.7.7 0 00-.38.09.29.29 0 00-.14.26c0 .1.04.19.13.26.08.07.24.12.45.14.25.02.43.1.57.22.13.12.2.28.2.48a.6.6 0 01-.12.38.71.71 0 01-.31.23c-.13.05-.27.08-.42.08zm2.42 0c-.23 0-.44-.05-.62-.16-.18-.1-.33-.24-.43-.43a1.3 1.3 0 01-.15-.63c0-.23.05-.44.15-.62.1-.19.25-.33.43-.43.18-.1.39-.16.62-.16.24 0 .44.05.63.16.18.1.32.24.43.43.1.18.15.39.15.62 0 .24-.05.45-.16.63-.1.19-.24.33-.42.43-.18.1-.4.16-.62.16zm0-.29a.87.87 0 00.79-.46c.08-.14.12-.3.12-.47a.97.97 0 00-.12-.47.86.86 0 00-.79-.45.86.86 0 00-.79.46.98.98 0 00-.1.46c0 .18.03.33.1.48a.86.86 0 00.8.45zM20.56.68c.04 0 .08.02.1.05.04.03.05.06.05.1V2.9c0 .04-.01.08-.04.11a.15.15 0 01-.11.05.15.15 0 01-.16-.16V1.4l-.74 1.49a.16.16 0 01-.13.08.15.15 0 01-.15-.1l-.72-1.45V2.9c0 .05-.02.08-.05.11a.15.15 0 01-.11.05.16.16 0 01-.16-.16V.84c0-.05.02-.08.05-.11a.15.15 0 01.11-.05c.06 0 .1.03.14.09l.9 1.8.88-1.8a.15.15 0 01.14-.09zm.92 2.37a.15.15 0 01-.16-.16V.84c0-.05.01-.09.04-.12a.16.16 0 01.12-.04h1.37c.04 0 .08.01.11.04s.04.06.04.1c0 .05-.01.09-.04.11a.16.16 0 01-.11.04h-1.22v.74h.87c.05 0 .09.01.12.04.02.03.04.06.04.1 0 .05-.01.08-.04.1a.15.15 0 01-.12.05h-.87v.76h1.22c.04 0 .08.01.11.04.03.02.04.06.04.1 0 .04-.01.08-.04.1a.15.15 0 01-.11.05h-1.37z"/><path fill="#bec1cc" d="M23.31 3.07a.1.1 0 01-.07-.03.1.1 0 01-.03-.07.1.1 0 01.03-.07.1.1 0 01.07-.03.1.1 0 01.08.03.1.1 0 01.02.07.1.1 0 01-.03.07.1.1 0 01-.07.03zm.78 0a.55.55 0 01-.5-.3.6.6 0 01-.07-.3c0-.1.03-.2.08-.3a.56.56 0 01.49-.28c.07 0 .14 0 .2.03.05.02.1.05.16.1l.02.02v.03l-.01.05a.07.07 0 01-.05.02c-.02 0-.04 0-.05-.02a.42.42 0 00-.12-.07.4.4 0 00-.15-.02.4.4 0 00-.21.06.46.46 0 00-.2.39.46.46 0 00.2.38.4.4 0 00.21.06c.1 0 .18-.03.27-.1a.08.08 0 01.05-.01c.02 0 .03 0 .05.02l.01.05c0 .02 0 .04-.02.06a.56.56 0 01-.36.12zm1.16 0a.6.6 0 01-.3-.08.52.52 0 01-.21-.21.63.63 0 01-.08-.3c0-.12.03-.22.08-.31a.52.52 0 01.2-.2.6.6 0 01.3-.08.6.6 0 01.3.07c.1.05.17.12.22.21.04.09.07.2.07.3 0 .12-.02.22-.07.3a.54.54 0 01-.21.22.6.6 0 01-.3.07zm0-.14a.43.43 0 00.38-.23.47.47 0 00.05-.23.48.48 0 00-.05-.23.41.41 0 00-.16-.16.43.43 0 00-.22-.05.43.43 0 00-.23.05.41.41 0 00-.15.17.48.48 0 00-.06.22c0 .09.02.17.06.23.03.07.09.13.15.17.07.04.14.06.23.06zm1.9-1.03c.01 0 .03 0 .04.02l.03.06v1l-.03.05a.07.07 0 01-.05.02c-.02 0-.04 0-.05-.02a.08.08 0 01-.03-.06v-.73l-.35.73a.08.08 0 01-.07.03.07.07 0 01-.07-.04l-.35-.7v.71a.08.08 0 01-.07.08c-.03 0-.04 0-.06-.02a.07.07 0 01-.02-.06v-1c0-.01 0-.03.02-.05a.07.07 0 01.06-.02c.03 0 .05.02.06.04l.44.88.42-.88c.02-.03.04-.04.07-.04z"/></g><path fill="#fff" fill-rule="nonzero" d="M10.45.25a.8.8 0 00-.3-.05.58.58 0 00-.39.13c-.1.09-.15.2-.15.35 0 .08.02.15.05.21.03.06.08.12.14.16a8.25 8.25 0 00.7.38c.08.05.16.1.23.17s.12.15.17.25c.04.1.06.2.06.34 0 .29-.1.52-.32.68-.22.17-.51.25-.87.25-.26 0-.51-.04-.77-.12v-.02l.11-.77.14-.02.16.66c.1.04.22.07.34.07.18 0 .33-.05.44-.14.11-.1.17-.22.17-.37a.45.45 0 00-.05-.23.63.63 0 00-.14-.16 7.3 7.3 0 00-.43-.24l-.27-.13a.81.81 0 01-.23-.17.82.82 0 01-.17-.25A.8.8 0 019 .9c0-.28.1-.5.32-.66.2-.16.48-.24.8-.24.22 0 .46.03.73.1l.01.02-.13.69-.11.02-.16-.58zm1.02 2.09c.26-.04.46-.1.59-.2.13-.09.2-.22.2-.38a.42.42 0 00-.15-.33.52.52 0 00-.36-.13c-.17 0-.34.06-.53.17l-.08-.18c.26-.18.56-.28.9-.28.25 0 .45.06.6.17.16.1.24.25.24.43 0 .32-.25.55-.75.7v.01c.29 0 .5.06.66.17.16.12.24.27.24.47a.8.8 0 01-.13.44c-.08.13-.2.25-.36.34-.16.1-.36.17-.6.22-.24.05-.5.08-.82.08l-.02-.19c.24-.01.44-.04.6-.09.17-.05.3-.1.4-.18.1-.07.17-.15.22-.24.04-.1.06-.19.06-.29 0-.17-.06-.3-.18-.4a.71.71 0 00-.45-.15c-.1 0-.18.01-.26.03l-.02-.2z"/></svg>