<svg xmlns="http://www.w3.org/2000/svg" width="277" height="29" fill-rule="evenodd" clip-rule="evenodd" image-rendering="optimizeQuality" shape-rendering="geometricPrecision" text-rendering="geometricPrecision" viewBox="0 0 41.43 4.31"><defs><style>.fil0,.fil1{fill:#0cf;fill-rule:nonzero}.fil1{fill:#fff}</style></defs><g id="Layer-214"><g id="_1872690160"><path d="M.2 3.69a.18.18 0 01-.14-.06.18.18 0 01-.06-.14V.83C0 .77.02.73.06.69A.18.18 0 01.2.63h1.03c.31 0 .56.07.73.21.17.14.25.34.25.58a.71.71 0 01-.43.68c.18.05.32.14.44.26a.7.7 0 01.17.47c0 .27-.1.48-.28.63-.18.15-.46.23-.85.23H.2zm.93-1.74c.26 0 .44-.04.54-.13a.44.44 0 00.16-.37.37.37 0 00-.17-.33A.76.76 0 001.2 1H.4v.95h.73zm.09 1.36c.28 0 .48-.04.6-.13A.43.43 0 002 2.81c0-.33-.26-.5-.78-.5H.4v1h.82z" class="fil0"/><path id="1" d="M3.24 3.69c-.06 0-.11-.02-.14-.06a.18.18 0 01-.06-.14V.83c0-.06.02-.1.06-.14.03-.04.08-.06.14-.06h1.75c.06 0 .1.01.14.05.03.04.05.08.05.13 0 .06-.02.1-.05.14a.22.22 0 01-.14.05H3.44v.97h1.4c.05 0 .09.02.13.05.04.04.05.08.05.14 0 .05-.01.09-.05.13a.21.21 0 01-.13.05h-1.4v.97h1.55c.06 0 .1.02.14.06.03.04.05.08.05.13 0 .06-.02.1-.05.13a.18.18 0 01-.14.06H3.24z" class="fil0"/><path id="2" d="M5.83 3.71a.2.2 0 01-.15-.06.22.22 0 01-.05-.14l.02-.09L6.77.78c.02-.05.06-.09.1-.13A.25.25 0 017.02.6h.05c.06 0 .11.02.15.05a.3.3 0 01.1.13l1.12 2.64.02.09c0 .06-.02.1-.05.14a.2.2 0 01-.15.06.23.23 0 01-.11-.03c-.03-.03-.06-.06-.07-.09l-.29-.69H6.3l-.28.69-.08.09a.2.2 0 01-.11.03zm.62-1.17h1.19l-.59-1.43-.6 1.43z" class="fil0"/><path id="3" d="M10.26 3.73c-.21 0-.41-.04-.6-.13A1.14 1.14 0 019 2.54V.81a.2.2 0 01.06-.15A.18.18 0 019.2.6c.05 0 .1.02.14.06a.2.2 0 01.06.15v1.74c0 .18.04.33.12.45.08.12.19.21.32.27.13.07.27.1.42.1.15 0 .29-.03.42-.1A.76.76 0 0011 3a.8.8 0 00.12-.45V.81a.2.2 0 01.06-.15c.03-.04.08-.06.14-.06.05 0 .1.02.14.06a.2.2 0 01.06.15v1.73a1.14 1.14 0 01-.66 1.06c-.19.09-.39.13-.6.13z" class="fil0"/><path id="4" d="M13.25 3.71a.2.2 0 01-.14-.06.22.22 0 01-.05-.14V1h-.9a.21.21 0 01-.13-.05.22.22 0 01-.05-.14c0-.05.02-.09.05-.13a.17.17 0 01.13-.05h2.19c.05 0 .09.01.13.05.04.04.05.08.05.13 0 .06-.01.1-.05.14a.21.21 0 01-.13.05h-.89v2.51c0 .06-.02.1-.06.14a.2.2 0 01-.15.06z" class="fil0"/><path id="5" d="M16.18 3.71a.2.2 0 01-.14-.06.18.18 0 01-.06-.14V2.39L14.93.92a.2.2 0 01-.03-.11c0-.06.02-.11.05-.15a.2.2 0 01.14-.06c.07 0 .13.04.18.11l.91 1.33.92-1.33c.04-.07.1-.11.17-.11a.2.2 0 01.15.06c.03.04.05.09.05.15 0 .04-.01.08-.04.11l-1.05 1.47v1.12c0 .06-.02.1-.06.14-.03.04-.08.06-.14.06z" class="fil0"/><path d="M19.79 3.04h-1.45l-.17.41a.82.82 0 00-.09.33c0 .12.05.2.14.26.05.03.19.06.4.07v.11h-1.37v-.11a.62.62 0 00.37-.18c.09-.1.21-.31.35-.63L19.44.01h.06l1.49 3.38c.14.32.26.53.35.61.07.07.16.1.29.11v.11h-1.99v-.11h.08c.16 0 .27-.02.34-.06a.19.19 0 00.06-.15c0-.03 0-.07-.02-.11l-.09-.23-.22-.52zm-.1-.22l-.61-1.41-.63 1.41h1.24z" class="fil1"/><path id="1" d="M23.25.09l2.03 2.56V.88c0-.25-.04-.42-.11-.51-.1-.12-.26-.17-.49-.17V.09h1.36V.2a.9.9 0 00-.35.09c-.06.03-.1.09-.14.17a1.3 1.3 0 00-.05.42v3.43h-.1L22.61.87V3.5c0 .24.06.4.17.49a.6.6 0 00.37.12h.1v.11h-1.47v-.11c.23 0 .39-.04.48-.14.09-.09.13-.24.13-.47V.59L22.3.48a.66.66 0 00-.23-.22.55.55 0 00-.29-.06V.09h1.47z" class="fil1"/><path id="2" d="M29.99 0v1.45h-.1a1.87 1.87 0 00-.62-.9c-.27-.2-.57-.31-.89-.31-.31 0-.56.09-.77.26-.21.18-.35.42-.44.73a3.75 3.75 0 00.02 1.99c.09.3.24.51.45.65.2.14.45.21.74.21l.3-.03c.11-.02.21-.05.32-.09v-.85a.99.99 0 00-.03-.32.31.31 0 00-.14-.14.62.62 0 00-.25-.05h-.11v-.11h2.01v.11a.9.9 0 00-.32.06.28.28 0 00-.14.16.8.8 0 00-.03.29v.85a3.91 3.91 0 01-1.71.35 2.5 2.5 0 01-.97-.16c-.26-.1-.49-.24-.68-.42a2 2 0 01-.47-.58 2.06 2.06 0 01-.21-.94A2.22 2.22 0 0128.25 0a2.2 2.2 0 01.99.19l.35.11c.06 0 .11-.02.16-.06.05-.04.09-.12.14-.24h.1z" class="fil1"/><path id="3" d="M31.98.33v1.68h.08c.27 0 .46-.08.57-.25.12-.16.2-.4.23-.72h.12V3.2h-.12a1.69 1.69 0 00-.15-.58.63.63 0 00-.28-.3c-.1-.05-.25-.08-.45-.08V3.4c0 .23.01.37.03.42.02.05.06.09.11.12s.14.05.25.05h.25c.39 0 .7-.09.93-.27.23-.17.4-.44.5-.81h.11l-.19 1.31h-3.56v-.11h.14a.6.6 0 00.29-.06.3.3 0 00.12-.15c.02-.05.03-.17.03-.38V.8l-.01-.35a.25.25 0 00-.12-.16.48.48 0 00-.31-.09h-.14V.09h3.45v1.22h-.12c-.05-.3-.14-.51-.24-.64a1.03 1.03 0 00-.45-.29 2.93 2.93 0 00-.64-.05h-.43z" class="fil1"/><path id="4" d="M38.25 2.78l-.16 1.44h-3.65v-.11h.14c.12 0 .21-.02.28-.06.06-.03.1-.08.13-.15.02-.05.03-.17.03-.38V.8c0-.22-.01-.35-.03-.4a.37.37 0 00-.14-.14.54.54 0 00-.27-.06h-.14V.09h2.2V.2h-.18a.6.6 0 00-.29.06.32.32 0 00-.13.15c-.02.05-.03.18-.03.39v2.63c0 .21.01.34.04.4.02.06.07.1.14.13.05.02.17.03.36.03h.35c.21 0 .4-.04.54-.12a.93.93 0 00.38-.36c.1-.17.2-.41.3-.73h.13z" class="fil1"/><path id="5" d="M41.14 0l.04 1.38h-.13c-.06-.35-.2-.63-.43-.84a1.09 1.09 0 00-.75-.31.7.7 0 00-.49.17.5.5 0 00-.12.62c.06.1.15.19.28.28.1.07.32.19.66.36.49.24.81.46.98.67.17.21.25.45.25.72 0 .35-.13.64-.4.89s-.61.37-1.03.37a1.85 1.85 0 01-.8-.19.7.7 0 00-.24-.06.34.34 0 00-.17.07.37.37 0 00-.14.18h-.11V2.76h.11c.09.43.26.77.51 1 .26.23.53.34.83.34.22 0 .41-.06.54-.18.14-.13.2-.27.2-.44a.58.58 0 00-.07-.28.96.96 0 00-.24-.26 3.72 3.72 0 00-.56-.32 4.24 4.24 0 01-.81-.47 1.53 1.53 0 01-.38-.43 1.19 1.19 0 01-.13-.53c0-.33.12-.61.36-.84.25-.23.55-.35.92-.35a1.74 1.74 0 01.73.18c.14.07.24.1.29.1.05 0 .1-.02.13-.05.03-.03.05-.11.08-.23h.09z" class="fil1"/></g></g></svg>