<?xml version="1.0" encoding="utf-8"?>
<!-- Generator: Adobe Illustrator 21.1.0, SVG Export Plug-In . SVG Version: 6.00 Build 0)  -->
<svg version="1.1" id="Layer_1" xmlns="http://www.w3.org/2000/svg" xmlns:xlink="http://www.w3.org/1999/xlink" x="0px" y="0px"
	 viewBox="0 0 536.2 112.7" style="enable-background:new 0 0 536.2 112.7;" xml:space="preserve">
<style type="text/css">
	.st0{fill:#939397;}
	.st1{fill:#1A191A;}
	.st2{fill:#FFFFFF;}
	.st3{fill:#FF6600;}
	.st4{fill:#9AA1A8;}
</style>
<polygon class="st0" points="85,47.7 106.2,30.3 80.2,39.6 94,16 72.9,33.6 77.7,6.8 63.9,30.4 59.2,3.5 54.4,30.4 40.6,6.8 
	45.4,33.6 24.3,16 38.1,39.6 12.1,30.3 33.4,47.7 5.7,47.7 31.7,57 86.6,57 112.6,47.7 "/>
<polygon class="st1" points="106.2,83.7 89.9,70.2 96.2,66.2 112.6,66.3 102,62.5 110.6,57 59.2,24.1 7.8,57 16.4,62.5 5.7,66.3 
	22.2,66.2 28.5,70.2 12.1,83.7 36.1,75.1 37.2,75.8 24.3,97.9 44.9,80.8 45.3,81 40.6,107.2 53,85.9 55.1,87.2 59.2,110.4 
	63.2,87.3 65.3,86 77.7,107.2 73,81.1 73.4,80.8 94,97.9 81.1,75.9 82.3,75.1 "/>
<polygon class="st2" points="59.2,86.6 12.9,57 59.2,27.4 105.4,57 "/>
<polygon class="st3" points="59.2,83.6 17.5,57 59.2,30.4 100.8,57 "/>
<path class="st2" d="M36.6,49h6.7v5.9h6.6V49h6.7v16h-6.7v-6.2h-6.6V65h-6.7V49z M61.7,49h6.7v5.9H75V49h6.7v16H75v-6.2h-6.6V65
	h-6.7V49z"/>
<path d="M129.9,32.4H145v13.3h15V32.4h15.1v35.9H160V54.4h-15v13.9h-15.1V32.4z M224.4,63c-3.9,3.7-10.1,6.2-19.4,6.2
	c-17.6,0-24.1-8.2-24.1-18.9c0-7,2.8-12,6.9-14.9c3.4-2.4,7.9-4,17.1-4c17.6,0,24.1,8.2,24.1,18.9C229.1,55.9,227.4,60.2,224.4,63z
	 M205.1,39.6c-5,0-8.6,3.4-8.6,10.7c0,7.4,3.6,10.7,8.6,10.7s8.6-3.4,8.6-10.7C213.7,43,210,39.6,205.1,39.6z M242.4,41.1h-11.8
	v-8.8h38.7v8.8h-11.8v27.2h-15.1V41.1z M292.6,32.4h15.1v13.3h15V32.4h15.1v35.9h-15.1V54.4h-15v13.9h-15.1V32.4z M387.1,63
	c-3.9,3.7-10.1,6.2-19.4,6.2c-17.6,0-24.1-8.2-24.1-18.9c0-7,2.8-12,6.9-14.9c3.4-2.4,7.9-4,17.1-4c17.6,0,24.1,8.2,24.1,18.9
	C391.8,55.9,390.1,60.2,387.1,63z M367.8,39.6c-5,0-8.6,3.4-8.6,10.7c0,7.4,3.6,10.7,8.6,10.7s8.6-3.4,8.6-10.7
	S372.8,39.6,367.8,39.6z M397,32.4h14.6v19.7c0,6.9,2.4,9,7,9s7-2.1,7-9V32.4h14.3v21c0,5.7-1.1,8.1-3.4,10.5
	c-3.6,3.8-9.9,5.4-18,5.4s-14.4-1.6-18-5.4c-2.3-2.4-3.4-4.8-3.4-10.5v-21H397z M461,56.8c0,2,0.4,3.4,1.4,4.4
	c1,0.9,2.3,1.4,4.3,1.4c3.1,0,6.5-0.7,6.5-3.6c0-0.6-0.3-1.2-0.6-1.6c-2-2.3-19.2-4-24.1-8.2c-1.9-1.7-2.5-4.2-2.5-6.3
	c0-7.9,7.2-11.4,21.6-11.4c15.3,0,19.9,4.2,20.1,11.6h-14.8c-0.1-2-0.7-3.2-1.8-4c-1-0.7-2.5-1-4.4-1c-3.2,0-4.9,1.2-4.9,3
	c0,0.5,0.2,1.2,0.6,1.6c2.3,2.2,19,3.8,23.8,8.1c1.4,1.2,2.8,3.2,2.8,6.7c0,7.1-6.3,11.7-22.7,11.7c-19.5,0-20.5-5.8-20.8-12.5
	L461,56.8L461,56.8z M495.3,32.4h34.5V40H510v6.6h18.6v7.6H510v6.6h20v7.6h-34.7V32.4z"/>
<path class="st4" d="M443.3,90h6.4v3.8h-6.4V90z M466.5,83.2c-0.2-2.1-1.1-3-3-3c-2.7,0-3.7,2.4-3.7,5.2c0,2.8,0.9,5.2,3.7,5.2
	c2.1,0,3.2-1,3.3-3.2h7.2c0,1.5-0.2,3-1.5,4.2c-1.9,1.8-5.2,2.6-8.8,2.6c-8.4,0-11.2-3.5-11.2-8.8c0-4,1.8-8.8,11.2-8.8
	c4.2,0,7.1,0.8,8.6,2.2c1,1,1.4,2,1.4,4.5L466.5,83.2L466.5,83.2z M496.3,91.3c-1.8,1.7-4.7,2.9-9,2.9c-8.2,0-11.2-3.8-11.2-8.8
	c0-3.3,1.3-5.6,3.2-7c1.6-1.1,3.7-1.9,8-1.9c8.2,0,11.2,3.8,11.2,8.8C498.5,88,497.7,90,496.3,91.3z M487.3,80.4c-2.3,0-4,1.6-4,5
	s1.7,5,4,5s4-1.6,4-5S489.6,80.4,487.3,80.4z M501.5,77h10.7l3.5,11.3l0,0l3.4-11.3h10.8v16.8h-6.6V81.2l0,0l-4.6,12.6h-6.8
	l-4.3-12.6h-0.1v12.6h-6L501.5,77L501.5,77z M436.1,85.4h-306 M130.1,83.6h306v3.5h-306V83.6z"/>
</svg>
