<?xml version="1.0" encoding="utf-8"?>
<!-- Generator: Adobe Illustrator 22.1.0, SVG Export Plug-In . SVG Version: 6.00 Build 0)  -->
<svg version="1.1" id="Ebene_1" xmlns="http://www.w3.org/2000/svg" xmlns:xlink="http://www.w3.org/1999/xlink" x="0px" y="0px"
	 viewBox="0 0 5200 1500" style="enable-background:new 0 0 5200 1500;" xml:space="preserve">
<style type="text/css">
	.st0{fill:#FD60A8;}
	.st1{fill:#FFFFFF;}
</style>
<path class="st0" d="M926.6,1030.1c-187.6,3-353-40.5-514.7-101c-108.9-40.7-213.5-90.1-304-165c-27.8-23-53.1-48.2-70.7-80.1
	c-14.1-25.7-26.3-52.9-3.6-79.2c22.6-26.3,53.9-28.6,84.4-19c55.7,17.4,104.2,50.3,154.9,78.1C393.9,730.3,516.7,792.7,650,831.9
	c65.8,19.4,132.6,34.2,201.6,34.5c24.7,0.1,41.8,12.3,58.2,27.3c97.1,88.1,247,43.2,306.2-37c90.2-122.2,15-292.8-137.9-313.4
	c-36.5-4.9-73.1-8.9-108.2-21.3c-50.6-17.8-76.8-50.1-68.3-84.9c8.1-33.1,49.9-55.5,99.3-48.6c109.1,15.3,196.6,67.3,255.4,161.8
	c110.4,177.3,16.5,388.9-174.4,459.6C1027.2,1030,970.7,1032,926.6,1030.1z"/>
<path class="st1" d="M3169.6,576.9c8.9-0.3,12.6-3.6,16.4-7.6c58-60.4,128.4-68.4,203.7-43.6c77.8,25.6,113.9,86.7,125.1,163.7
	c6.1,41.7,4.9,84-5.5,125.6c-36.4,145.1-211.6,196.3-320.3,93.4c-5.1-4.8-8.9-12.5-23.2-7.9c0,36.5,0,74.8,0,113.2
	c0,12.7,0.5,25.3-0.1,38c-1.6,32.4-13.4,43.1-45.5,42.2c-29.8-0.9-38.7-10.7-38.7-44.3c-0.1-159.3-0.1-318.5,0-477.8
	c0-39.1,7.1-49.6,34.7-51.6c35.7-2.7,44.9,6.1,50,47.5C3166.4,570.5,3168.1,573.2,3169.6,576.9z M3431.8,736.4
	c-0.5-10.5-0.6-21.1-1.5-31.5c-4.9-58.5-43.9-104.7-98.5-117c-98.7-22.4-176.6,51.4-168.9,160c7.3,103.3,78.5,161.2,170.5,138.7
	C3396.1,871.2,3432.2,816,3431.8,736.4z"/>
<path class="st1" d="M2859.2,900.5c-7.9-1.4-11.3,0.2-14.6,3.4c-109,108.9-271.1,75.9-321.9-67.8c-28.9-81.6-24.8-164,22.5-238.9
	c64-101.6,213.4-113.5,295.2-25.6c4.2,4.5,6.9,10.9,15.3,10.1c8.9-3.9,4.9-12.3,5.2-18.9c1.5-33.1,11.5-43.1,44.1-42.7
	c29.9,0.3,40.2,10.7,40.3,43.2c0.3,114.9,0.2,229.9,0.1,344.8c0,37.4-9.9,48.9-41.3,49c-31.9,0.1-41.2-10.3-43.1-47.5
	C2860.7,906.6,2859.8,903.7,2859.2,900.5z M2860.9,738.2c0-8.4,0.5-16.9-0.1-25.3c-4.4-69.5-53.9-121.5-121-127.3
	c-71.2-6.2-125.8,35.2-142.2,106.4c-9.3,40.2-7.1,79.4,6.7,118c19.9,55.5,70,88,130.2,85.1c59.3-2.9,103.9-38.2,119.7-94.7
	C2860,780,2862.3,759.3,2860.9,738.2z"/>
<path class="st0" d="M3933.3,761.5c-12.2,49.9,30.4,117.5,101.3,125.3c54.1,6,105.4,0.7,145.8-42.2c4.2-4.4,10.2-7.6,15.9-10.1
	c20-8.8,38.4-1.5,51.6,12.1c14.5,14.9,1.3,29.6-8.3,41.8c-30.8,38.9-71.6,61.9-120.1,69.5c-128.9,20.2-243.2-29.4-272.7-157.5
	c-28.7-124.4,22.9-254.8,162.1-282.7c152.2-30.5,259.9,61.8,263.6,198.7c0.9,34.2-7.7,42.1-43.1,42.2c-87.5,0.2-175,0-262.4,0.2
	C3955.5,758.9,3943.8,757,3933.3,761.5z M3932.9,688.4c85.3,0,170.4,0,256,0c-12.2-75.9-54.7-108.5-136.4-107
	C3986.3,582.7,3940.2,623.2,3932.9,688.4z"/>
<path class="st1" d="M1591,961.3c-61.8-0.2-118.8-15.7-168-54.5c-25.6-20.2-32.9-40.7-20.7-55.6c14-17.2,49.3-21,69-4.3
	c44.4,37.7,95.5,46.4,151,39.9c16.9-2,33.1-6.7,46.9-17.3c30.4-23.4,27.9-61.6-5.5-80c-25.3-14-53.9-17.4-81.8-22.9
	c-36.1-7.2-72.7-12.3-106.7-27.9c-34.3-15.9-59.9-38.7-64.4-78.8c-5.2-46.4,7.6-84.8,47.9-112.2c75.8-51.7,208.6-43.7,278.8,17.6
	c13,11.3,27.1,23.9,16.3,42.8c-10.1,17.6-28.8,20-47.4,17.4c-13.8-2-24.9-10.9-36.6-18c-40.8-24.8-84.8-31.1-130.8-19.4
	c-23.5,6-44.8,17.6-46.1,45.2c-1.3,27.8,18.6,40.4,42.1,48.2c39.2,12.9,80.6,15.5,120.4,25.7c15.3,3.9,30.8,7.7,45.4,13.5
	c39.5,15.8,68.4,41.8,73.9,86.6c5.9,47.8-10,87-49.2,116C1691,948.7,1646.9,961.1,1591,961.3z"/>
<path class="st0" d="M4463.1,885.7c72.6,0,139-0.2,205.5,0.1c15.8,0.1,32.3,0.6,39.8,19.1c10.7,26.5-4,49.7-33,49.9
	c-94.9,0.5-189.8,0.7-284.8,0c-35.7-0.3-51.1-38.9-28.4-76.1c14.7-24,34.8-44.8,53.3-66.3c59.2-68.5,118.8-136.7,178.3-205
	c3.4-3.9,7.5-7.6,4.4-18c-20.1,0-41.7,0.1-63.3,0c-47.4-0.3-94.9-0.5-142.3-1.3c-22.8-0.4-36.8-13.8-35.8-35.5
	c1-21.4,15.5-33,38.6-32.9c93.9,0.4,187.7,0.2,281.6,0c14.7,0,28.5,2.5,34.1,17.4c8.6,22.8,8.1,46.4-7.5,65.9
	c-24.2,30.5-50.1,59.7-75.7,89c-49.1,56.4-98.7,112.4-147.8,168.8C4474.7,866.9,4470.8,874.2,4463.1,885.7z"/>
<path class="st0" d="M5073.7,589.4c-61.2,0-115.7,0.1-170.3-0.1c-14.7,0-29.5-0.6-44.2-1.3c-21.5-1.1-34.5-14.4-34.2-34.1
	c0.4-21.2,14-34.3,37.4-34.2c48.5,0.2,97,0.1,145.5,0c40.1,0,80.2-0.3,120.2,0.1c19.4,0.2,42.9-5.9,52,18.8
	c8.8,23.8,6.2,48-10.9,68.4c-22.3,26.6-44.9,53.1-67.7,79.3c-50.6,57.9-101.5,115.5-152.1,173.4c-5.5,6.2-9.7,13.5-18.3,25.6
	c29.9,0,55.5-0.1,81.1,0c44.3,0.3,88.6,0.8,132.8,1c24,0.1,34.5,13,33.8,35.8c-0.7,23.5-13.6,33-36.9,32.9
	c-88.6-0.5-177.2-0.1-265.8-0.3c-17.4,0-39.1,5.8-48.2-14.4c-9.8-21.6-9.6-45.9,4.9-66.2c14.7-20.5,31.3-39.6,47.9-58.6
	c60-69.2,120.3-138.2,180.4-207.3C5064.5,604.5,5066.8,599.9,5073.7,589.4z"/>
<path class="st1" d="M1990,585c3.1,83.5-6.1,162.4,6.3,240.7c7.4,46.6,29.4,64.9,76.6,67.9c8.4,0.5,17,0.5,25,2.6
	c17.9,4.6,25.9,17.5,24.2,35.4c-1.6,16.6-10.9,28-28.1,28.8c-34.7,1.5-69.4,2.6-103-9.7c-55.6-20.3-81.1-65.4-84.8-144.8
	c-2.9-62-0.6-124.2-0.6-186.3c0-10.4,0-20.8,0-30.9c-51.8-8.9-65.3-16.9-63-39c4-38.6,35.9-26.7,59.5-30.7
	c6.5-12.8,2.7-26.6,3.3-39.8c1.6-34.8,27.9-56,61.8-49.2c16.1,3.2,22.8,14,23.1,29.3c0.3,18.9,0.1,37.8,0.1,61
	c30.5,0,59.6,0.3,88.7-0.1c21.4-0.3,38,5.1,39.8,29.9c1.6,22.1-10.2,33.5-38.7,34.8C2051.9,586,2023.6,585,1990,585z"/>
<path class="st1" d="M2310.3,563.8c13.3,1.1,16.7-11.2,23.8-18c24.3-23.2,53-32.9,86.2-32.1c19.9,0.5,32.8,9,33.9,29.4
	c1.1,20.6-0.7,41-26.2,47.3c-5.1,1.3-10.4,1.6-15.6,2.2c-61.5,7.5-86.8,30.2-99.8,91.1c-11.7,55.2-4.8,111.2-6.4,166.9
	c-0.7,23.1,0.8,46.4-0.4,69.5c-1.3,26-13,34.7-42.2,34.5c-29-0.3-41.7-9.7-41.8-34.9c-0.5-121.1-0.1-242.2-0.3-363.3
	c0-21.7,10.5-33.1,31.3-36.1c31.2-4.4,45.9,3,52.9,26.4C2307.4,552.3,2303.3,559.4,2310.3,563.8z"/>
<path class="st0" d="M3639.1,667.8c0-81.1-0.1-162.2,0.1-243.3c0.1-35.3,8.6-43.9,42-44c33.4-0.1,42.4,8.3,42.5,43.8
	c0.3,162.2,0.3,324.4,0,486.7c-0.1,35.7-8.9,44-42.3,44c-33.6-0.1-42.1-8.5-42.2-43.8C3639,830,3639.1,748.9,3639.1,667.8z"/>
</svg>
