<?xml version="1.0" encoding="UTF-8"?>
<svg width="300px" height="33px" viewBox="0 0 300 33" version="1.1" xmlns="http://www.w3.org/2000/svg" xmlns:xlink="http://www.w3.org/1999/xlink">
    <!-- Generator: Sketch 62 (91390) - https://sketch.com -->
    <title>BS-Logo-Positive on Dark</title>
    <desc>Created with Sketch.</desc>
    <defs>
        <linearGradient x1="-43.0889926%" y1="46.7158811%" x2="122.165048%" y2="52.4307063%" id="linearGradient-1">
            <stop stop-color="#E21A47" offset="0%"/>
            <stop stop-color="#BB1A6E" offset="100%"/>
        </linearGradient>
        <linearGradient x1="-31.537022%" y1="-17.5548279%" x2="113.209655%" y2="100%" id="linearGradient-2">
            <stop stop-color="#E21A47" offset="0%"/>
            <stop stop-color="#BB1A6E" offset="100%"/>
        </linearGradient>
    </defs>
    <g id="Digital-Guideline-MASTER" stroke="none" stroke-width="1" fill="none" fill-rule="evenodd">
        <g id="01_Basics_01_Logo_01" transform="translate(-552.000000, -667.000000)">
            <g id="Logotype-1" transform="translate(552.000000, 667.000000)">
                <g id="Group-2">
                    <g id="Group">
                        <path d="M156.475089,2.9812733 C156.789753,2.78561402 156.671754,3.05953701 157.105773,2.9812733 C161.719939,3.80439164 164.678051,8.04277638 165.03476,11.6550514 L165.03476,11.6550514 L165.547445,21.4258709 C164.798762,24.0949333 161.643986,28.7246366 158.882539,29.273832 C158.291188,29.5477549 156.949797,30.0578184 156.871131,30.0186866 C156.791109,30.0969503 156.67311,30.0969503 156.081759,30.175214 C155.017056,30.2534777 151.506926,30.6461456 150.165536,30.2926096 C149.218831,30.0173372 147.562777,28.4480149 147.523444,28.2914875 C147.523444,27.9770832 147.759442,27.1134837 147.720109,26.9178244 C147.720109,26.7208157 147.60211,26.8395607 147.562777,26.5642883 C147.364756,24.4052894 147.364756,14.2431514 147.207424,8.82811224 C147.168091,8.47457616 146.418052,3.64921359 149.258164,3.37394123 C149.574185,3.37394123 150.08687,3.41307308 150.322868,3.41307308 L150.322868,3.41307308 Z M42.1761489,2.62773723 C43.7942265,2.62773723 42.8475222,2.66686908 43.4782063,2.62773723 C50.6571541,3.45085556 50.2231349,3.17693258 50.73582,3.29432814 C51.1698392,3.37394123 51.2878381,3.53046865 51.6431913,3.5696005 C54.719302,4.90413171 57.7167466,7.96451267 57.6774136,10.9466299 C57.6380807,13.1434113 54.7586349,14.988006 54.7586349,15.4980695 C54.7586349,15.5372014 58.6227616,18.4801868 59.7661307,20.7161 L59.7661307,20.7161 L59.8841297,23.6982173 C59.8054637,26.6398533 53.6925754,30.250779 52.2725191,29.8972429 C51.0111509,29.8972429 50.9704616,30.0146385 50.7344637,30.0146385 L50.7344637,30.0146385 L49.7484265,30.0146385 C49.5910946,30.0146385 47.9350403,29.7002342 48.0137063,30.0146385 C46.7116488,30.0537703 46.6723159,30.0537703 46.6723159,30.0537703 C46.6250213,30.051205 46.4701805,30.0146385 44.0302244,30.0146385 C43.6355382,30.0146385 43.280185,30.0537703 42.2154818,30.0146385 C41.7027967,30.0146385 41.1507786,29.2697838 40.7167595,28.8379841 L40.7167595,28.8379841 L40.3614063,21.7753589 C40.5187383,22.3650354 40.1647414,19.5003137 40.3220733,19.1076458 C40.3220733,19.068514 40.7954255,18.2831781 39.8487212,11.7697483 C39.8487212,11.2596848 39.9680765,11.3379485 39.6520563,6.15904983 C39.6520563,5.64898633 39.4160584,4.90413171 39.4160584,4.62885935 C39.4160584,4.58972749 40.5594276,2.90300959 40.9134244,2.62773723 C41.4274658,2.70600094 41.8994617,2.62773723 42.1761489,2.62773723 Z M73.8866722,3.33346 C76.4107647,3.33346 77.0428051,12.2406799 77.4781805,14.1244064 C78.0695316,16.909515 80.198938,27.3077936 80.198938,28.2887887 C80.198938,29.3871794 78.5035507,29.9755066 78.1088646,29.9755066 C77.9501763,29.9755066 77.4374912,29.8189792 77.2408263,29.8189792 C77.0834944,29.8189792 76.9641391,29.9755066 76.8068072,29.9755066 C75.3474178,29.9755066 74.4793795,29.504575 74.4793795,27.9743845 C74.4793795,27.6221978 74.2420253,24.3256763 73.2166551,24.3256763 C70.0998552,24.050404 69.3511722,24.2082808 68.917153,24.3256763 C67.3790977,25.3458033 67.4970966,27.464321 66.5897254,28.9162478 C65.9590413,29.9755066 64.9336711,29.8189792 64.1049658,29.8189792 C63.5515914,29.8189792 61.8562042,30.0537703 61.8562042,28.5627117 C61.8562042,28.4061843 62.0135361,28.1700438 62.0135361,27.9743845 C62.0135361,27.6599803 62.7622191,26.1297898 62.5655542,26.1689216 L62.5655542,26.1689216 L65.4056669,15.3388433 C65.5236659,15.0257885 65.6823541,14.3187164 65.8003531,14.1621889 L65.8003531,14.1621889 L67.3777414,8.62975421 C67.5757626,8.08055886 67.6937616,6.86342322 68.6404658,4.70577368 C68.6404658,4.54924626 68.917153,4.23484204 68.956486,4.11744648 L68.956486,4.11744648 L69.4298381,3.68564669 C69.7065253,3.29432814 69.7851913,3.52911927 69.9425232,3.48998742 C72.2306179,3.37259185 72.9006349,3.33346 73.8866722,3.33346 Z M129.457398,3.25789503 C129.655419,3.21876318 137.779715,2.94484019 141.841862,3.17963132 C142.472546,3.22011255 142.945899,3.96496718 143.53725,4.43589882 L143.53725,4.43589882 L143.655249,7.33975236 C143.615916,7.6528072 143.458584,8.08460698 142.511879,8.08460698 C142.07786,8.31939812 141.801173,8.31939812 141.209822,8.31939812 L141.209822,8.31939812 L134.228895,8.43679368 L133.439523,8.55418925 L133.439523,8.78898038 C133.518189,9.49470315 133.360857,11.2219023 133.40019,11.4175616 C133.40019,11.8493613 133.321524,12.8303565 133.676877,12.9868839 C133.71621,12.9868839 133.874899,13.1447607 133.992898,13.2621563 C134.032231,13.3795518 135.294955,13.3012881 135.452287,13.2621563 L135.452287,13.2621563 L136.280992,13.2230244 C136.438324,13.1838925 140.580494,13.1447607 142.749234,13.066497 C143.104587,13.4969474 143.695938,14.1257558 143.735271,14.2822832 C143.735271,14.2040195 143.577939,16.9108644 143.499273,16.9499963 C143.223942,17.1470049 142.552569,17.774464 142.395237,17.774464 C142.237905,17.774464 142.159239,17.7353321 141.843219,17.7353321 L141.843219,17.7353321 L140.226497,17.774464 L133.640257,17.6570684 C133.482925,17.7353321 133.522258,18.0497364 133.640257,18.1671319 C133.718923,18.3236593 133.876255,19.0698633 133.797589,19.1872589 L133.797589,19.1872589 L133.876255,19.42205 C133.836922,19.814718 133.954921,21.9332357 134.07292,22.7185715 C134.07292,22.8750989 134.112253,23.6995666 134.112253,24.6805618 C136.12366,24.8370892 142.986588,24.4052894 143.104587,25.3080208 C143.104587,25.3471527 143.735271,25.7789525 143.773248,26.0555742 C143.812581,26.2121016 143.812581,27.9001689 143.851914,28.0958282 C143.891247,28.4493643 142.589189,29.5868868 142.353191,29.6260187 C142.235192,29.6260187 131.664114,29.4694912 130.954764,29.5477549 L130.954764,29.5477549 L130.047392,29.6651505 C129.456041,29.7042824 128.509337,28.6058917 128.430671,28.2132237 L128.430671,28.2132237 L128.430671,26.9974375 C128.391338,26.761297 128.666669,25.6629063 128.470004,25.6237744 C128.352005,24.7601749 128.627336,23.1908525 128.430671,22.327253 C128.391338,21.307126 128.668025,6.67181207 128.312672,7.29927113 C128.273339,7.18187556 128.312672,5.72994879 128.194673,4.31715388 C128.15534,3.96361781 129.141377,3.29702689 129.457398,3.25789503 Z M100.311656,3.60873236 C100.627676,3.60873236 101.533691,5.09979098 101.613714,5.45197768 L101.613714,5.45197768 L101.771045,26.8368619 C101.771045,27.6208484 101.022362,28.4453161 100.193657,28.4453161 C99.5222838,28.4453161 98.4575806,28.5235798 96.8015264,28.3670524 C96.5641721,28.3279206 96.6441944,28.3279206 96.3675072,28.1713931 C95.4614923,27.9352526 94.514788,26.5615896 94.1987678,25.8949987 C93.6860827,25.0313991 92.7787115,23.5012086 92.7787115,23.3055493 C92.7787115,23.0707582 91.5566763,22.0506312 89.6632678,18.2831781 C89.2292487,17.7339828 88.9132285,17.4978423 88.7165636,17.4195785 L88.7165636,17.4195785 L89.0719168,26.4050622 C89.0719168,26.8368619 88.2432115,28.2887887 87.4945285,28.2887887 C86.9425104,28.4453161 84.3790848,28.4061843 83.9450657,28.2887887 C83.4323806,27.9743845 82.8396732,26.8368619 82.6430083,26.2876666 L82.6430083,26.2876666 L82.1303232,6.07943674 C82.2496784,5.72590067 83.6290455,4.51011441 83.9057327,4.51011441 L83.9057327,4.51011441 L84.9311029,4.51011441 C85.0111252,4.47098255 85.2077901,4.58837812 85.2077901,4.54924626 C89.6239348,6.59084961 91.6760316,12.201548 94.9094742,16.282056 C94.9094742,16.2429241 95.0274731,16.3994516 95.0274731,16.3603197 C95.1454721,16.4399328 95.224138,16.3211878 95.224138,16.1255286 L95.224138,16.1255286 L95.6188242,5.25631841 C95.8941551,4.62885935 96.6048614,4.23619142 97.1962125,3.76525978 L97.1962125,3.76525978 Z M123.028489,3.60873236 C123.344509,3.60873236 124.251881,5.09979098 124.330547,5.45197768 L124.330547,5.45197768 L124.487878,26.8368619 C124.487878,27.6208484 123.739195,28.4453161 122.91049,28.4453161 C122.239117,28.4453161 121.174414,28.5235798 119.518359,28.3670524 C119.281005,28.3279206 119.361027,28.3279206 119.08434,28.1713931 C118.178325,27.9352526 117.231621,26.5615896 116.915601,25.8949987 C116.402916,25.0313991 115.495544,23.5012086 115.495544,23.3055493 C115.495544,23.0707582 114.273509,22.0506312 112.380101,18.2831781 C111.946082,17.7339828 111.630061,17.4978423 111.433397,17.4195785 L111.433397,17.4195785 L111.78875,26.4050622 C111.78875,26.8368619 110.960044,28.2887887 110.211361,28.2887887 C109.659343,28.4453161 107.095918,28.4061843 106.661899,28.2887887 C106.149214,27.9743845 105.556506,26.8368619 105.359841,26.2876666 L105.359841,26.2876666 L104.847156,6.07943674 C104.966511,5.72590067 106.345878,4.51011441 106.622566,4.51011441 L106.622566,4.51011441 L107.647936,4.51011441 C107.727958,4.47098255 107.924623,4.58837812 107.924623,4.54924626 C112.340768,6.59084961 114.392865,12.201548 117.626307,16.282056 C117.626307,16.2429241 117.744306,16.3994516 117.744306,16.3603197 C117.862305,16.4399328 117.940971,16.3211878 117.940971,16.1255286 L117.940971,16.1255286 L118.335657,5.25631841 C118.610988,4.62885935 119.321694,4.23619142 119.913045,3.76525978 L119.913045,3.76525978 Z M51.8791892,19.3451357 C51.3271711,19.3842676 51.0518402,19.3842676 48.1330615,19.3451357 C47.7777084,19.5016631 47.6203764,19.5799268 47.1863573,19.5799268 C46.9490031,19.5799268 46.4756509,19.6190587 46.396985,19.814718 C46.357652,20.1277728 46.239653,20.4030452 46.1609871,20.5204407 L46.1609871,20.5204407 L46.1609871,23.6199536 C45.8842999,24.9544848 48.1723945,24.7574761 49.1977647,24.6792124 C50.3804669,24.6009487 50.73582,24.7574761 51.2878381,24.5618168 C51.563169,24.5618168 51.9578552,24.6792124 52.1952094,24.5645156 L52.1952094,24.5645156 Z M157.617102,9.14251645 C157.104417,9.02512089 154.973654,8.90772532 154.816322,8.94685718 C154.619657,8.94685718 154.422992,9.14251645 154.146305,9.14251645 C153.988973,9.18164831 153.830285,9.02512089 153.63362,9.1033846 L153.63362,9.1033846 L153.002936,9.14251645 L152.963603,9.61344809 L153.042269,15.2241465 L153.751619,23.0329757 C153.790952,23.4242943 154.540991,23.3460306 156.118379,23.228635 C156.591732,23.1881538 157.065084,23.3068987 157.538436,23.4634261 C157.657791,23.4242943 157.657791,23.5416898 157.893789,23.4242943 C158.052477,23.4242943 158.249142,23.3460306 158.326452,23.3068987 L158.326452,23.3068987 Z M71.3625796,10.7496213 C71.2052477,11.848012 69.1938402,17.8513783 69.1938402,18.7541097 L69.1938402,18.7541097 L69.1938402,19.1076458 C69.2331732,19.1859095 69.3131955,19.2641732 69.5098604,19.2641732 L69.5098604,19.2641732 L70.6532296,19.2641732 C71.0085827,19.2641732 72.4679721,19.5003137 72.585971,19.6568412 C72.9806572,19.695973 72.743303,19.7351049 73.1379891,19.7742367 C73.491986,19.1076458 71.9145977,13.4578155 71.9145977,13.2608069 C71.9145977,13.0651476 71.9539307,13.1434113 71.3625796,10.7496213 Z M47.6583531,7.92538081 C47.4223552,7.92538081 46.9096701,8.00364452 46.4756509,8.00364452 C46.4756509,8.08190824 46.396985,8.16017195 46.357652,9.02377151 C47.1076913,11.7306164 45.7269679,12.594216 48.2903935,12.594216 C48.6457466,12.594216 48.9617668,12.6724797 49.0797658,12.594216 C49.7497828,12.2406799 50.105136,13.0260158 50.2624679,11.1814211 C50.3411339,10.7104894 50.0644467,11.0248936 50.3004446,8.00364452 C50.1431127,8.00364452 48.9197212,8.04277638 48.6837233,8.04277638 C48.5657244,8.04277638 47.894351,7.92538081 47.6583531,7.92538081 Z" id="Combined-Shape" fill="url(#linearGradient-1)"/>
                        <path d="M190.466471,2.72890594 L190.980124,2.80683026 L191.739885,2.80728519 C192.432469,2.81375686 200.222366,2.88821787 200.147055,2.96267889 C201.054779,2.96267889 201.885048,3.4315683 202.872946,3.07956536 C203.860844,3.00164104 204.177461,3.0406032 205.401802,3.0406032 C206.11249,3.39260614 206.903352,3.93941987 207.574633,4.52653928 C207.465506,6.36571848 207.557844,6.57359086 207.572696,6.68662288 L207.574633,6.7137942 C207.376238,7.37749441 206.348933,8.62831402 205.795874,8.86208697 L205.795874,8.86208697 L201.647246,8.86208697 C200.974606,8.70489481 200.77757,9.0179356 200.77757,9.52578717 L200.77757,9.52578717 L200.463671,27.9253303 C200.6213,28.5514118 199.237971,29.8008879 198.684912,30.1528909 C198.012271,30.1528909 198.210666,30.7386667 197.301583,30.2308152 L197.301583,30.2308152 L195.918254,30.2308152 C195.601638,29.8801557 194.574333,29.0203012 194.534925,28.5514118 L194.534925,28.5514118 L194.731961,16.0499333 L195.127392,8.94001128 L195.127392,8.94001128 L194.139495,8.94001128 C193.903051,8.94001128 193.191004,8.86208697 192.954561,8.86208697 C192.718118,8.86208697 192.67871,8.90104912 190.702915,8.74520049 C190.505879,8.58800834 189.67561,8.31527324 189.12255,7.88534598 C189.043735,7.72949735 188.964921,7.53334304 188.964921,7.33853225 C188.964921,7.14372146 189.043735,6.87098636 189.083143,5.62016674 C188.767885,4.40830929 189.557388,3.4315683 190.466471,2.72890594 L190.466471,2.72890594 Z M216.227912,2.61067594 C216.544528,2.61067594 217.532426,2.76652458 217.532426,2.72756242 L217.532426,2.72756242 L218.677953,2.72756242 C218.953803,2.72756242 219.388641,2.76652458 219.388641,2.76652458 C219.94306,2.76652458 220.850784,3.50949262 221.206808,3.62637909 C224.644747,5.50193675 227.213009,9.44786285 227.45217,12.180588 L227.45217,12.180588 L227.649206,19.2515478 C227.649206,22.1038465 224.447711,29.9177744 219.39,29.9177744 C219.232371,29.9177744 217.571833,29.8398501 217.453612,29.8008879 C216.821737,29.8788122 216.979366,29.8008879 214.806535,29.4878471 C214.806535,29.4878471 214.529325,29.2916928 214.05508,29.096882 C212.55353,28.1994089 209.708058,26.2848891 209.27322,24.917183 C208.680753,24.3314071 208.442951,23.3936283 208.364136,22.8078524 L208.364136,22.8078524 L208.600579,16.3616306 L208.600579,16.3616306 L208.600579,11.8688907 C208.600579,10.9324554 208.679394,10.1894874 208.679394,9.64267364 C208.679394,7.1813401 212.987009,4.05630635 213.421847,4.05630635 C213.500661,4.01734419 213.699056,3.97838203 213.817278,3.90045772 C215.397643,2.92371673 214.923397,2.61067594 216.227912,2.61067594 Z M232.587337,2.7678681 C233.100989,2.80683026 239.93746,2.02624358 242.070884,2.22105437 L242.070884,2.22105437 L244.599739,3.31468183 C245.508823,3.90045772 247.010373,4.95512302 247.60284,6.00978832 C248.234714,7.1813401 248.748367,9.76090364 248.748367,9.91675227 L248.748367,9.91675227 L248.748367,12.3780858 C248.748367,13.4717133 244.796775,17.3007529 244.800852,18.0450645 C244.800852,19.0997298 249.779748,27.2253549 249.779748,28.0072851 C249.779748,28.4372124 248.831258,29.3346855 248.514641,29.6477263 C247.369115,30.1166157 244.997888,29.6087642 244.602457,29.569802 L244.602457,29.569802 L243.219128,28.3982502 C242.864464,27.7735122 242.823698,28.0072851 242.587254,26.991582 C242.546488,26.7954277 240.808495,23.0066937 240.808495,22.2247635 C240.808495,21.8337984 239.267537,19.2166162 238.990328,18.786689 C238.516082,18.5139539 238.081244,18.904919 237.132754,18.6308404 L237.132754,18.6308404 L236.697916,18.6308404 C235.908413,19.3335027 236.026634,19.9192786 236.026634,20.740171 L236.026634,20.740171 L236.144856,27.7721687 C235.987227,28.4761745 235.078144,29.1398748 234.761527,29.569802 L234.761527,29.569802 L232.94336,29.569802 C231.758427,29.4529155 232.035636,29.569802 231.758427,29.569802 C230.809936,29.569802 229.743224,27.7332065 229.743224,26.7954277 C229.743224,26.6382355 229.664409,26.2096518 229.625002,25.9355732 C229.625002,25.778381 230.178062,24.9588322 229.861445,5.81497753 C229.861445,4.4862336 231.481217,2.84579241 232.587337,2.7678681 Z M256.966807,2.7678681 C257.204609,2.7678681 257.165202,2.88475457 257.322831,2.88475457 C257.87589,2.88475457 258.627345,4.95512302 258.784974,5.46297459 L258.784974,5.46297459 L259.259219,26.7161598 C259.022776,27.4967465 257.798435,29.1385312 256.493921,29.3723042 C256.415106,29.2943799 256.375699,29.2943799 254.518125,29.3723042 C252.660551,28.0449038 253.016575,27.5760144 253.016575,26.2083083 L253.016575,26.2083083 L252.699958,20.269938 C252.81818,19.9179351 252.699958,17.1838664 252.699958,14.3315678 C252.699958,14.136757 252.936401,13.6289054 252.896994,12.7300888 C252.81818,11.7533478 252.619785,10.8155689 252.501563,8.97897344 L252.501563,8.97897344 L252.26512,4.64208223 C252.224354,3.0406032 254.87279,2.96267889 255.978909,2.96267889 C256.175945,2.96267889 256.809178,2.7678681 256.966807,2.7678681 Z M264.236757,3.04329025 C264.435152,3.00432809 272.574777,2.73159299 276.64459,2.96536593 C277.276464,3.00567161 277.75071,3.74729613 278.343177,4.21618555 L278.343177,4.21618555 L278.461398,7.10744635 C278.421991,7.41914361 278.264362,7.84907087 277.315872,7.84907087 C276.881034,8.08284381 276.603824,8.08284381 276.011357,8.08284381 L276.011357,8.08284381 L269.017258,8.19973029 L268.226396,8.31661676 L268.226396,8.55038971 C268.305211,9.25305207 268.147582,10.9727611 268.186989,11.1675719 C268.186989,11.5974991 268.108175,12.5742401 268.464198,12.7300888 C268.503606,12.7300888 268.662593,12.8872809 268.780815,13.0041674 C268.820222,13.1210539 270.085329,13.0431295 270.242958,13.0041674 L270.242958,13.0041674 L271.073227,12.9652052 C271.230856,12.9262431 275.380842,12.8872809 277.553674,12.8093566 C277.909697,13.2379403 278.502164,13.8640219 278.541572,14.0198705 C278.541572,13.9419462 278.383943,16.6370527 278.305128,16.6760149 C278.029278,16.8721692 277.356638,17.4969072 277.199009,17.4969072 C277.04138,17.4969072 276.962566,17.4579451 276.645949,17.4579451 L276.645949,17.4579451 L275.026177,17.4969072 L268.427509,17.3800207 C268.26988,17.4579451 268.309287,17.7709858 268.427509,17.8878723 C268.506323,18.043721 268.663952,18.786689 268.585138,18.9035755 L268.585138,18.9035755 L268.663952,19.1373484 C268.624545,19.5283135 268.742767,21.6376441 268.860988,22.4195743 C268.860988,22.5754229 268.900395,23.3963153 268.900395,24.3730563 C270.915598,24.5289049 277.791476,24.0989777 277.909697,24.9977943 C277.909697,25.0367565 278.54293,25.4666837 278.57962,25.7421059 C278.619027,25.8979545 278.619027,27.5787014 278.658434,27.7735122 C278.697842,28.1255151 277.393327,29.2581047 277.156884,29.2970669 C277.038662,29.2970669 266.447637,29.1412183 265.736948,29.2191426 L265.736948,29.2191426 L264.827865,29.3360291 C264.235398,29.3749912 263.286907,28.2813638 263.208093,27.8903987 L263.208093,27.8903987 L263.208093,26.6798847 C263.168686,26.4447683 263.444536,25.3511408 263.2475,25.3121786 C263.129278,24.4523241 263.405129,22.8898073 263.208093,22.0299527 C263.168686,21.0142496 263.445895,6.44240262 263.089871,7.06714067 C263.050464,6.9502542 263.089871,5.50462379 262.97165,4.09795555 C262.932242,3.74595261 263.92014,3.0822524 264.236757,3.04329025 Z M298.143258,3.31468183 C298.182665,3.31468183 298.222073,3.35364399 298.26148,3.35364399 C299.960066,4.83823655 299.999473,5.22920164 299.999473,6.79171852 L299.999801,7.22889818 C299.994861,8.27618427 299.884843,8.04440947 298.26148,9.36993854 L298.26148,9.36993854 L288.777932,9.05689776 C287.512825,9.05689776 287.790035,11.1286097 287.790035,11.8312721 C287.790035,12.1443129 287.790035,13.1210539 287.908256,13.2769025 L287.908256,13.2769025 L294.506925,13.3548268 C297.667654,14.7225329 299.960066,17.2617908 299.960066,20.3478623 C299.960066,24.6457914 293.756829,29.0216448 291.227973,28.5917175 C291.109752,28.5917175 290.99153,28.6306797 291.030937,28.5917175 L291.030937,28.5917175 L284.15506,29.0216448 C283.483778,29.0216448 282.574695,27.6929008 282.139857,27.1850493 L282.139857,27.1850493 L282.139857,24.4899428 C283.917258,22.7312716 283.167162,22.6533473 284.70812,22.6533473 C284.906514,22.6533473 287.317148,22.7312716 287.98843,22.7702337 C288.582255,23.0053502 290.044398,22.7312716 290.755087,22.7312716 C293.205128,22.7312716 292.650709,22.848158 293.441571,22.3792686 C293.441571,22.4961551 293.520386,21.5973384 293.559793,19.0580806 C293.361398,18.9398506 292.808338,18.7060776 292.690117,18.7060776 C292.452314,18.7060776 292.215871,18.7450398 291.859848,18.7450398 L291.859848,18.7450398 L291.543231,18.7450398 C284.905156,18.7450398 281.862648,14.4094921 281.862648,11.088304 L281.862648,11.088304 L281.862648,8.97897344 C281.862648,7.41645657 286.288484,3.97838203 286.841544,3.97838203 C287.079346,3.97838203 289.094549,3.31468183 289.133956,3.31468183 L289.133956,3.31468183 Z M184.893749,3.31468183 C184.933156,3.31468183 184.972564,3.35364399 185.011971,3.35364399 C186.710557,4.83823655 186.749964,5.22920164 186.749964,6.79171852 C186.749964,8.35423539 186.830138,7.88534598 185.011971,9.36993854 L185.011971,9.36993854 L175.528423,9.05689776 C174.263316,9.05689776 174.540526,11.1286097 174.540526,11.8312721 C174.540526,12.1443129 174.540526,13.1210539 174.658747,13.2769025 L174.658747,13.2769025 L181.257416,13.3548268 C184.418145,14.7225329 186.710557,17.2617908 186.710557,20.3478623 C186.710557,24.6457914 180.50732,29.0216448 177.978464,28.5917175 C177.860243,28.5917175 177.742021,28.6306797 177.781428,28.5917175 L177.781428,28.5917175 L170.905551,29.0216448 C170.23427,29.0216448 169.325186,27.6929008 168.890348,27.1850493 L168.890348,27.1850493 L168.890348,24.4899428 C170.667749,22.7312716 169.917653,22.6533473 171.458611,22.6533473 C171.657005,22.6533473 174.067639,22.7312716 174.738921,22.7702337 C175.332746,23.0053502 176.794889,22.7312716 177.505578,22.7312716 C179.955619,22.7312716 179.4012,22.848158 180.192062,22.3792686 C180.192062,22.4961551 180.270877,21.5973384 180.310284,19.0580806 C180.111889,18.9398506 179.558829,18.7060776 179.440608,18.7060776 C179.202806,18.7060776 178.966362,18.7450398 178.610339,18.7450398 L178.610339,18.7450398 L178.293722,18.7450398 C171.655647,18.7450398 168.613139,14.4094921 168.613139,11.088304 L168.613139,11.088304 L168.613139,8.97897344 C168.613139,7.41645657 173.038975,3.97838203 173.592035,3.97838203 C173.829837,3.97838203 175.84504,3.31468183 175.884447,3.31468183 L175.884447,3.31468183 Z M219.468814,8.08150029 C218.243115,8.08150029 216.227912,8.19838676 215.161199,8.62831402 L215.161199,8.62831402 L215.161199,12.653508 C215.240014,13.0444731 215.318828,14.254987 215.358235,14.6849143 L215.358235,14.6849143 L215.081026,24.2172077 C216.424948,24.176902 218.440151,24.3730563 218.874989,24.4509806 C219.231012,24.2937885 220.021874,24.1379398 220.140096,24.0600155 C220.21891,24.0210533 220.338491,23.8638612 220.338491,23.6690504 C220.338491,18.7463833 219.746024,17.1449043 220.102047,16.090239 L220.102047,16.090239 L219.824838,9.01927912 C219.824838,8.70623834 219.864245,8.78550617 219.824838,8.51142755 L219.824838,8.51142755 Z M242.464956,7.1047593 L237.011814,7.22164578 C236.537569,7.29957009 236.37994,8.00357598 236.37994,8.19838676 L236.37994,8.19838676 L236.37994,13.9029841 C236.37994,14.254987 236.578335,14.7238764 237.170802,14.7238764 C238.079886,14.7628386 240.252717,15.231728 241.793675,14.9576494 C242.030118,14.9576494 242.386142,14.9576494 242.386142,14.6446086 L242.386142,14.6446086 L242.663351,7.92430814 C242.663351,7.76845951 242.82098,7.37749441 242.464956,7.1047593 L242.464956,7.1047593 Z" id="Combined-Shape" fill="#FFFFFF"/>
                        <g id="Logomark-2"/>
                    </g>
                    <g id="Mark">
                        <path d="M22.8388545,20.3639157 C22.5195453,19.713287 22.0937997,19.1103081 21.5819017,18.5828663 L19.4307087,16.3661614 L21.1962879,14.410762 L23.2190157,12.0456181 C23.4299255,11.7990248 23.5651521,11.488752 23.5937241,11.1580578 C23.6231686,10.8168236 23.7847862,10.3275895 23.8164118,9.98306149 C23.8641773,9.4723081 23.6286213,9.27687795 22.2628329,10.3477912 C22.4970803,10.0961475 22.8724431,9.69145336 23.1657975,9.40862861 C23.4318885,9.15237358 23.5969957,8.79730554 23.6155349,8.41808322 C23.6386543,7.93499747 23.3915386,7.72265932 21.4394776,9.9378271 C23.0495462,8.03095586 20.8150362,8.63151929 19.6571042,9.46352472 L16.2504851,13.0888637 L12.31561,9.03379798 C12.049519,8.92444493 11.6837529,8.71913348 11.3177688,8.51953123 C10.6985619,8.18202996 9.95110796,8.65743026 9.98775,9.36537048 L10.026355,10.1126163 C10.040532,10.3886339 10.1090177,10.6598207 10.2329027,10.9066336 C10.6381462,11.7129477 9.70093881,11.1848471 8.70222515,10.5812095 C8.50243879,10.4606576 8.2483437,10.4819573 8.07145862,10.6350077 C7.83263105,10.8416366 7.81910839,11.2090014 8.04201413,11.4329775 L13.0663356,16.4772712 L8.89764935,20.9135355 C8.68128684,21.14366 8.51945117,21.4240693 8.42239339,21.7317071 C8.40647155,21.7824311 8.38684188,21.8382056 8.36415872,21.8972738 C8.22587864,22.2576118 8.59535253,22.5992852 8.9168428,22.4084664 C9.68174536,21.9541462 9.84641642,22.1366208 8.83069039,23.7808691 L10.3814338,22.904288 C10.4237466,22.8803533 10.4621335,22.9422761 10.4241829,22.9734571 C10.3487177,23.7046733 10.8843894,23.7885545 11.1646574,24.1190291 C11.3984685,24.3939488 11.8617285,24.1554801 11.3722956,25.0606072 C11.3273655,25.1436101 11.4316208,25.2257347 11.4939995,25.1565656 L16.3521231,19.7760881 L18.3211965,21.7530068 C18.7556664,22.1385971 21.7657662,24.529652 21.9426513,24.8647378 C22.3603269,24.8785717 21.8423219,23.8831954 21.4756834,23.0683176 C21.1090449,22.2534397 20.8942092,21.6188407 21.9214949,22.3500569 C21.9723139,22.4062705 22.0582482,22.3353447 22.0139724,22.2740807 C21.826182,22.0143123 21.7869227,21.9016655 22.2294625,22.2659561 C22.2314255,22.2679323 22.2333884,22.269689 22.2351333,22.2716652 C22.3236849,22.3757483 22.4796317,22.2589293 22.4107097,22.1458434 C22.2360057,21.8579682 22.1727546,21.6754935 22.4442983,21.8614815 L23.2482421,22.8450002 C23.3023327,22.9110951 23.3727814,22.9622583 23.4523906,22.9932197 C24.436491,23.3794687 23.4456292,21.601274 22.8388545,20.3639157" id="Fill-1" fill="url(#linearGradient-2)"/>
                        <path d="M16.4233577,0 C18.639854,0 20.7908759,0.434452555 22.8166423,1.29131387 C24.7723358,2.11861314 26.5287591,3.30240876 28.0366423,4.81029197 C29.5440876,6.3179562 30.7283212,8.07416058 31.5554015,10.030073 C32.4122628,12.0558394 32.8467153,14.2068613 32.8467153,16.4233577 C32.8467153,18.639635 32.4122628,20.7906569 31.5554015,22.8164234 C30.7283212,24.7723358 29.5440876,26.5285401 28.0366423,28.0364234 C26.5287591,29.5440876 24.7723358,30.7281022 22.8166423,31.5554015 C20.7908759,32.4122628 18.639854,32.8467153 16.4233577,32.8467153 C15.5008029,32.8467153 14.7525547,32.0984672 14.7525547,31.1756934 C14.7525547,30.2529197 15.5008029,29.5048905 16.4233577,29.5048905 C18.190292,29.5048905 19.9031387,29.1593431 21.5148175,28.4776642 C23.0724088,27.8187591 24.4714599,26.8754015 25.6736496,25.6734307 C26.8754015,24.4714599 27.8189781,23.0721898 28.4776642,21.5148175 C29.159562,19.9031387 29.5051095,18.190073 29.5051095,16.4233577 C29.5051095,14.6566423 29.159562,12.9435766 28.4776642,11.3318978 C27.8189781,9.77430657 26.8754015,8.3750365 25.6736496,7.17306569 C24.4714599,5.97131387 23.0724088,5.02773723 21.5148175,4.36905109 C19.9031387,3.68737226 18.190292,3.34160584 16.4233577,3.34160584 C15.5008029,3.34160584 14.7525547,2.59357664 14.7525547,1.67080292 C14.7525547,0.748029197 15.5008029,0 16.4233577,0 Z M3.35936496,23.4832336 C4.11615328,22.9552774 5.15783212,23.1407518 5.68578832,23.8977591 C6.97535036,25.7463723 8.72673723,27.239146 10.7509708,28.2149124 C11.5822117,28.6156423 11.9312628,29.6141825 11.5307518,30.4456423 C11.2425766,31.0430146 10.6458613,31.3911898 10.0244015,31.3911898 C9.78089781,31.3911898 9.53367153,31.3377591 9.3000219,31.2252044 C6.75965693,30.0006788 4.56221168,28.1279781 2.94505839,25.809438 C2.41688321,25.0526496 2.60257664,24.0111898 3.35936496,23.4832336 Z M0.192481752,13.9021752 C0.333284672,12.9901314 1.18642336,12.3649489 2.09846715,12.5055328 C3.01051095,12.6461168 3.63591241,13.4994745 3.49510949,14.4112993 C3.39350365,15.0721752 3.34182482,15.7490365 3.34182482,16.4232701 C3.34182482,17.3280876 3.43445255,18.2313723 3.61729927,19.1081606 C3.80540146,20.0114453 3.22576642,20.8965547 2.32248175,21.0848759 C2.20751825,21.1087445 2.09277372,21.1203504 1.97978102,21.1203504 C1.2050365,21.1203504 0.510218978,20.5785985 0.345985401,19.7900584 C0.11649635,18.6894745 0,17.5567007 0,16.4232701 C0,15.5791095 0.0648175182,14.7307883 0.192481752,13.9021752 Z M4.47637226,5.15413139 C5.10943796,4.4829635 6.16688321,4.45230657 6.83827007,5.08559124 C7.50921898,5.71887591 7.54009489,6.77632117 6.90659124,7.44748905 C6.63089683,7.7400438 6.36505839,8.0490219 6.11717518,8.36544526 C5.78761314,8.78632117 5.29666423,9.00617518 4.80045985,9.00617518 C4.44024088,9.00617518 4.07739416,8.89011679 3.77170073,8.65077372 C3.04513139,8.08186861 2.91746715,7.03164964 3.48615328,6.30508029 C3.79688321,5.90829197 4.13016788,5.52091971 4.47637226,5.15413139 Z" id="Combined-Shape" fill="#FFFFFF" fill-rule="nonzero"/>
                    </g>
                </g>
            </g>
        </g>
    </g>
</svg>