<?xml version="1.0" encoding="utf-8"?>
<!-- Generator: Adobe Illustrator 22.1.0, SVG Export Plug-In . SVG Version: 6.00 Build 0)  -->
<svg version="1.1" id="Vrstva_1" xmlns="http://www.w3.org/2000/svg" xmlns:xlink="http://www.w3.org/1999/xlink" x="0px" y="0px"
	 viewBox="0 0 749.4 48.1" style="enable-background:new 0 0 749.4 48.1;" xml:space="preserve">
<style type="text/css">
	.st0{fill:#FFFFFF;}
	.st1{fill:#1B779B;}
</style>
<title>site-logo</title>
<g>
	<path class="st0" d="M24.3,40.4c5.6,0,9.7-1.7,12.7-3.7l4,5.6c-3.9,3.4-9.2,5.2-16.7,5.2c-15.4,0-23.8-9.9-23.8-23.4
		c0-13.5,8.4-23.4,23.8-23.4c7.5,0,12.8,1.8,16.7,5.2l-4,5.6c-3-2-7-3.7-12.7-3.7C13.9,7.8,9,14.7,9,24.1
		C9,33.5,13.9,40.4,24.3,40.4z"/>
	<path class="st0" d="M82.8,39.5v7.1H46.6v-4.2L70.9,8.8h-23V1.7h34.9v4.2L58.5,39.5H82.8z"/>
	<path class="st0" d="M122.6,20.1v7.1h-22.3v12.3H124v7.1H91.8V1.7h31.8v7.1h-23.4v11.4H122.6z"/>
	<path class="st0" d="M152.6,40.4c5.6,0,9.7-1.7,12.7-3.7l4,5.6c-3.9,3.4-9.2,5.2-16.7,5.2c-15.4,0-23.8-9.9-23.8-23.4
		c0-13.5,8.4-23.4,23.8-23.4c7.5,0,12.8,1.8,16.7,5.2l-4,5.6c-3-2-7-3.7-12.7-3.7c-10.4,0-15.3,6.9-15.3,16.3
		C137.3,33.5,142.2,40.4,152.6,40.4z"/>
	<path class="st0" d="M206.9,1.7h8.4v44.9h-8.4V27.2h-21.4v19.3h-8.4V1.7h8.4v18.5h21.4V1.7z"/>
	<path class="st1" d="M225.5,46.5V1.7H246c12.6,0,19.6,6.2,19.6,16.9c0,10.7-7.1,16.9-19.6,16.9h-7.2v11.1H225.5z M238.8,12.7v11.6
		h7.2c4.4,0,6.3-2.4,6.3-5.8c0-3.4-1.8-5.8-6.3-5.8H238.8z"/>
	<path class="st1" d="M275.5,46.5h-14l18.4-44.9h13.4l18.4,44.9h-14l-2.8-7.3h-16.6L275.5,46.5z M282.2,29.2h8.8l-4.4-11.3
		L282.2,29.2z"/>
	<path class="st1" d="M337.4,23.4l-6.7,23.2h-10.1L305,1.7h13.9l7.1,23.6l6.8-23.6h9.3l6.8,23.6l7.1-23.6h13.9l-15.6,44.9H344
		L337.4,23.4z"/>
	<path class="st1" d="M373.2,1.7h15.5l14.9,25.3V1.7h13.2v44.9h-15.5l-14.9-25.2v25.2h-13.2V1.7z"/>
	<path class="st1" d="M453.3,13.9c-3.5-1.5-7.5-2.4-12.1-2.4c-2.9,0-5.4,0.8-5.4,3.2c0,2.4,2.6,3.1,6.6,3.9
		c11.4,2.4,18.1,5.9,18.1,14.8c0,10.7-9,14.5-20.2,14.5c-7.6,0-14.2-2.1-19.1-5.8l6-8.9c3.7,2.3,8.2,3.7,12.5,3.7
		c4.4,0,7.4-0.6,7.4-3.4c0-2.3-2.8-3.1-7.3-4c-12-2.5-17.4-7.4-17.4-14.7c0-7.8,5.3-14.2,18.2-14.2c7.7,0,13.7,1.5,18.7,4.5
		L453.3,13.9z"/>
	<path class="st1" d="M496.2,1.7h13.2v44.9h-13.2V29.2h-16.6v17.3h-13.2V1.7h13.2v16.5h16.6V1.7z"/>
	<path class="st1" d="M563.6,24.1c0,13.1-7.8,23.7-24.6,23.7c-16.8,0-24.6-10.6-24.6-23.7c0-13.1,7.8-23.7,24.6-23.7
		C555.8,0.4,563.6,11,563.6,24.1z M527.8,24.1c0,6.4,3.1,12.7,11.2,12.7c8.1,0,11.2-6.3,11.2-12.7c0-6.3-3.1-12.7-11.2-12.7
		C530.9,11.4,527.8,17.8,527.8,24.1z"/>
	<path class="st1" d="M568.6,46.5V1.7h20.4c12.6,0,19.6,6.2,19.6,16.9c0,10.7-7.1,16.9-19.6,16.9h-7.2v11.1H568.6z M581.9,12.7v11.6
		h7.2c4.4,0,6.3-2.4,6.3-5.8c0-3.4-1.8-5.8-6.3-5.8H581.9z"/>
	<path class="st0" d="M611.8,37.6c2.6,0,4.7,2.1,4.7,4.7s-2.1,4.6-4.7,4.6c-2.6,0-4.6-2.1-4.6-4.6S609.3,37.6,611.8,37.6z"/>
	<path class="st0" d="M640.2,40.6c3.4,0,6.4-0.9,9.2-3.1l4,5c-3.5,3.5-8,4.6-13.2,4.6c-10.9,0-17.8-7.2-17.8-16.6
		c0-9.4,6.9-16.6,17.8-16.6c5.2,0,9.7,1.1,13.2,4.6l-4.1,5c-2.8-2.2-5.8-3-9.1-3c-6.9,0-9.8,4.8-9.8,10.1S633.4,40.6,640.2,40.6z"/>
	<path class="st0" d="M675.3,47.2c-10.9,0-17.8-7.2-17.8-16.6c0-9.4,6.9-16.6,17.8-16.6c10.9,0,17.8,7.1,17.8,16.6
		C693.2,40.1,686.2,47.2,675.3,47.2z M675.3,20.5c-6.9,0-9.8,4.8-9.8,10.1s2.9,10.1,9.8,10.1s9.8-4.8,9.8-10.1
		S682.2,20.5,675.3,20.5z"/>
	<path class="st0" d="M700.1,14.6h7.9v2.9c1.1-1.9,4.3-3.6,7.4-3.6c5,0,8.6,1.8,10.5,4.4c1.7-2.3,5.5-4.4,9.8-4.4
		c7.7,0,12.9,4.1,12.9,14v18.6h-7.9V27.9c0-4.4-1.9-7.4-6.2-7.4c-4.3,0-6.2,3-6.2,7.4v18.6h-7.9V27.9c0-4.4-1.9-7.4-6.2-7.4
		c-4.3,0-6.2,3-6.2,7.4v18.6h-7.9V14.6z"/>
</g>
</svg>
