<svg xmlns="http://www.w3.org/2000/svg" width="318" height="29" fill-rule="evenodd" clip-rule="evenodd" image-rendering="optimizeQuality" shape-rendering="geometricPrecision" text-rendering="geometricPrecision" viewBox="0 0 53.78 4.87"><defs><style>.fil0,.fil1{fill:#fcfcab;fill-rule:nonzero}.fil1{fill:#fff}</style></defs><g id="Layer-214"><g id="_1868216656"><path d="M1.73 4.21c-.33 0-.62-.07-.89-.21a1.58 1.58 0 01-.61-.62A1.9 1.9 0 010 2.44c0-.36.08-.68.23-.95.15-.27.35-.47.61-.62.27-.14.56-.21.89-.21.23 0 .43.02.61.08.17.05.35.13.52.23.08.03.11.1.11.18 0 .05-.02.1-.05.13a.2.2 0 01-.15.06l-.09-.02a1.75 1.75 0 00-1.63-.06c-.2.12-.35.28-.45.49-.1.2-.15.43-.15.69 0 .25.05.48.15.69.1.2.25.36.45.48a1.75 1.75 0 001.63-.06.3.3 0 01.09-.02c.06 0 .11.02.15.05.03.04.05.09.05.14 0 .08-.03.15-.11.19a2.31 2.31 0 01-1.13.3z" class="fil0"/><path id="1" d="M3.87 4.19a.21.21 0 01-.16-.07.2.2 0 01-.06-.15V.94c0-.07.02-.12.06-.17.05-.04.1-.06.16-.06h1.16c.45 0 .78.09 1.01.27.22.19.33.43.33.73 0 .2-.05.38-.16.55a.9.9 0 01-.49.35c.24.06.41.21.49.44.09.24.13.46.13.69v.23a.2.2 0 01-.06.15.2.2 0 01-.16.07.21.21 0 01-.16-.06.2.2 0 01-.07-.16v-.15c0-.17-.01-.32-.04-.46a.76.76 0 00-.21-.38c-.12-.11-.29-.16-.51-.16H4.1v1.15c0 .06-.02.11-.07.15-.04.05-.09.07-.16.07zM5 2.39c.28 0 .51-.05.67-.17a.53.53 0 00.25-.47c0-.2-.07-.35-.21-.46-.15-.1-.39-.16-.74-.16H4.1v1.26H5z" class="fil0"/><path id="2" d="M7.4 4.16a.23.23 0 01-.16-.06.23.23 0 01-.06-.16v-3c0-.07.02-.12.06-.17.04-.04.1-.06.16-.06h1.98c.06 0 .11.02.16.06a.2.2 0 01.06.15.2.2 0 01-.06.15.25.25 0 01-.16.06H7.63v1.09h1.58a.2.2 0 01.15.06c.04.05.06.1.06.16s-.02.1-.06.14a.2.2 0 01-.15.06H7.63v1.1h1.75c.06 0 .11.02.16.07a.2.2 0 01.06.15c0 .06-.02.11-.06.14a.25.25 0 01-.16.06H7.4z" class="fil0"/><path id="3" d="M10.33 4.19a.22.22 0 01-.17-.07.2.2 0 01-.06-.15l.03-.1L11.39.89a.42.42 0 01.11-.15.28.28 0 01.18-.06h.05c.07 0 .12.02.17.06.05.04.09.09.11.15l1.27 2.98.02.1a.2.2 0 01-.06.15.2.2 0 01-.16.07.2.2 0 01-.13-.04c-.04-.02-.06-.06-.08-.1l-.33-.77h-1.68l-.32.77a.22.22 0 01-.09.1.2.2 0 01-.12.04zm.7-1.32h1.34l-.67-1.61-.67 1.61z" class="fil0"/><path id="4" d="M14.25 4.19a.21.21 0 01-.16-.07.2.2 0 01-.06-.15V1.01c0-.09.03-.17.09-.23a.3.3 0 01.23-.1h.17c.06 0 .12.02.18.06.05.04.09.09.12.15l1.12 2.8 1.13-2.8a.29.29 0 01.12-.15.28.28 0 01.18-.06h.16c.09 0 .17.03.23.1.06.06.09.14.09.23v2.96a.2.2 0 01-.06.15.2.2 0 01-.16.07.2.2 0 01-.16-.07.18.18 0 01-.07-.15V1.15l-1.14 2.83a.37.37 0 01-.13.15.33.33 0 01-.38 0 .37.37 0 01-.13-.15l-1.14-2.83v2.82c0 .06-.02.11-.07.15-.04.05-.09.07-.16.07z" class="fil0"/><path id="5" d="M19.04 4.19c-.07 0-.12-.02-.16-.07a.21.21 0 01-.07-.15V.94c0-.07.03-.12.07-.17a.21.21 0 01.16-.06h1.13c.31 0 .57.05.76.16a.99.99 0 01.56.94 1 1 0 01-.56.94c-.19.1-.45.16-.76.16h-.91v1.06a.2.2 0 01-.06.15.21.21 0 01-.16.07zm1.08-1.71c.34 0 .57-.06.71-.19a.63.63 0 00.21-.48.63.63 0 00-.21-.48c-.14-.13-.37-.2-.71-.2h-.86v1.35h.86z" class="fil0"/><path id="6" d="M22.36 4.19a.18.18 0 01-.15-.07.18.18 0 01-.07-.15V.91a.2.2 0 01.07-.16.21.21 0 01.15-.07c.07 0 .12.03.17.07.04.04.06.1.06.16v3.06a.2.2 0 01-.06.15.22.22 0 01-.17.07z" class="fil0"/><path id="7" d="M23.78 4.16a.21.21 0 01-.16-.06.2.2 0 01-.07-.16v-3c0-.07.02-.12.07-.17a.21.21 0 01.16-.06h1.98a.2.2 0 01.21.21.2.2 0 01-.21.21H24v1.09h1.58a.2.2 0 01.15.06c.05.05.07.1.07.16s-.02.1-.07.14a.2.2 0 01-.15.06H24v1.1h1.76c.06 0 .11.02.15.07a.2.2 0 01.06.15c0 .06-.02.11-.06.14a.2.2 0 01-.15.06h-1.98z" class="fil0"/><path d="M29.34 3.44h-1.63l-.21.45c-.06.15-.09.28-.09.38 0 .13.05.23.15.29.07.04.22.07.46.09v.12h-1.55v-.12a.7.7 0 00.41-.21c.11-.12.25-.35.4-.71L28.95.01h.06l1.68 3.82c.16.37.29.6.4.69a.5.5 0 00.33.13v.12h-2.26v-.12h.1c.18 0 .31-.03.38-.08.05-.04.07-.09.07-.16 0-.04 0-.09-.02-.13l-.1-.26-.25-.58zm-.11-.26l-.7-1.58-.71 1.58h1.41z" class="fil1"/><path id="1" d="M33.24.11l2.3 2.88v-2c0-.28-.04-.47-.12-.57-.11-.14-.3-.2-.56-.2V.11h1.54v.11a1.4 1.4 0 00-.4.1.46.46 0 00-.15.2 1.3 1.3 0 00-.06.47v3.88h-.12L32.53.99v2.97c0 .27.06.45.18.55.13.09.27.14.43.14h.11v.12h-1.66v-.12c.25-.01.43-.06.53-.16.1-.11.16-.28.16-.53V.66l-.1-.12a.96.96 0 00-.26-.25.9.9 0 00-.33-.07V.11h1.65z" class="fil1"/><path id="2" d="M40.86 0v1.64h-.12a2.02 2.02 0 00-.69-1.02 1.65 1.65 0 00-1.01-.35c-.35 0-.64.1-.87.3-.23.19-.39.47-.49.81a3.97 3.97 0 00.01 2.25c.11.34.28.59.51.75.24.15.51.23.84.23l.34-.03c.12-.03.24-.06.36-.11v-.96c0-.19-.01-.31-.04-.36-.02-.06-.07-.11-.15-.15a.52.52 0 00-.29-.07h-.12v-.12h2.27v.12c-.17.01-.29.04-.36.07a.4.4 0 00-.16.18c-.02.05-.03.16-.03.33v.96a5.04 5.04 0 01-1.93.4 2.9 2.9 0 01-1.1-.18 2.84 2.84 0 01-.77-.47 2.3 2.3 0 01-.52-.66 2.33 2.33 0 01-.24-1.06c0-.7.24-1.29.74-1.78A2.55 2.55 0 0138.9 0c.23 0 .43.02.62.05.1.02.26.07.49.16.23.09.36.13.4.13.06 0 .12-.03.18-.07a.66.66 0 00.15-.27h.12z" class="fil1"/><path id="3" d="M43.11.37v1.9h.09c.3 0 .51-.09.65-.28.13-.18.21-.46.25-.82h.13v2.44h-.13a2.11 2.11 0 00-.17-.65.74.74 0 00-.31-.34 1.16 1.16 0 00-.51-.09v1.31c0 .26.01.41.03.47.02.06.06.1.12.14.06.04.16.06.29.06h.28c.44 0 .78-.1 1.05-.3.26-.21.45-.51.56-.92h.13l-.21 1.48h-4.02v-.12h.15c.14 0 .24-.03.33-.08.06-.03.1-.08.13-.16.03-.06.04-.2.04-.44V.9c0-.21 0-.34-.02-.39a.35.35 0 00-.12-.19.64.64 0 00-.36-.1h-.15V.11h3.89v1.37h-.13a1.7 1.7 0 00-.28-.72 1.03 1.03 0 00-.51-.33 2.8 2.8 0 00-.72-.06h-.48z" class="fil1"/><path id="4" d="M50.19 3.14l-.18 1.63h-4.12v-.12h.15c.13 0 .24-.03.33-.08.06-.03.1-.08.13-.16.03-.06.04-.2.04-.44V.9c0-.24-.01-.39-.04-.45-.02-.06-.07-.11-.15-.16a.68.68 0 00-.31-.07h-.15V.11h2.48v.11h-.21a.6.6 0 00-.32.08.32.32 0 00-.14.16c-.03.06-.04.2-.04.44v2.97c0 .24.01.39.04.46s.08.11.16.15c.06.02.2.03.41.03h.39c.25 0 .45-.05.61-.13.17-.09.31-.23.43-.41.12-.19.23-.47.34-.83h.15z" class="fil1"/><path id="5" d="M53.46 0l.03 1.55h-.14c-.06-.39-.23-.7-.49-.93a1.22 1.22 0 00-.84-.36.78.78 0 00-.56.19.58.58 0 00-.2.43c0 .1.02.19.07.27.07.11.17.22.32.32.11.08.36.21.74.4.55.27.92.52 1.11.76.19.24.28.51.28.82 0 .39-.15.72-.45 1-.31.28-.69.42-1.16.42a1.87 1.87 0 01-.91-.21.67.67 0 00-.27-.07.32.32 0 00-.19.07.5.5 0 00-.16.21h-.12V3.11h.12c.1.5.29.87.58 1.13.29.26.6.39.93.39a.9.9 0 00.62-.21c.15-.14.22-.3.22-.48a.72.72 0 00-.08-.32c-.06-.11-.15-.2-.27-.3a4.55 4.55 0 00-.63-.36 5.4 5.4 0 01-.92-.53 1.74 1.74 0 01-.42-.49c-.1-.18-.15-.38-.15-.6 0-.37.13-.69.41-.95.27-.26.61-.39 1.03-.39.15 0 .3.02.44.05.11.03.24.08.39.16.16.07.26.11.33.11.06 0 .1-.02.14-.06.03-.03.06-.12.09-.26h.11z" class="fil1"/></g></g></svg>