<?xml version="1.0" encoding="utf-8"?>
<!-- Generator: Adobe Illustrator 23.0.4, SVG Export Plug-In . SVG Version: 6.00 Build 0)  -->
<svg version="1.1" id="Vrstva_1" xmlns="http://www.w3.org/2000/svg" xmlns:xlink="http://www.w3.org/1999/xlink" x="0px" y="0px"
	 viewBox="0 0 1358 100.8" style="enable-background:new 0 0 1358 100.8;" xml:space="preserve">
<style type="text/css">
	.st0{fill:#FFFFFF;}
	.st1{fill:#BE9228;}
</style>
<title>site-logo-watermark</title>
<g>
	<path class="st0" d="M52.8,84.7c11.8,0,20.3-3.5,26.5-7.7l8.4,11.6c-8.2,7.1-19.2,10.8-34.9,10.8C20.6,99.4,3,78.9,3,50.6
		C3,22.4,20.6,1.8,52.8,1.8c15.8,0,26.7,3.8,34.9,10.9l-8.4,11.6c-6.2-4.2-14.7-7.7-26.5-7.7c-21.6,0-31.9,14.4-31.9,34.1
		C20.9,70.2,31.2,84.7,52.8,84.7z"/>
	<path class="st0" d="M175.1,82.7v14.8H99.5v-8.8l50.8-70.2h-48V3.8h72.9v8.8l-50.8,70.2L175.1,82.7L175.1,82.7z"/>
	<path class="st0" d="M258.2,42.3v14.8h-46.6v25.6h49.5v14.8H194V3.8h66.5v14.8h-48.8v23.8h46.5V42.3z"/>
	<path class="st0" d="M320.9,84.7c11.8,0,20.3-3.5,26.5-7.7l8.4,11.6c-8.2,7.1-19.2,10.8-34.9,10.8c-32.2,0-49.8-20.6-49.8-48.8
		s17.6-48.8,49.8-48.8c15.8,0,26.7,3.8,34.9,10.9l-8.4,11.6c-6.2-4.2-14.7-7.7-26.5-7.7c-21.7,0-31.9,14.4-31.9,34
		S299.2,84.7,320.9,84.7z"/>
	<path class="st0" d="M434.3,3.8h17.6v93.7h-17.6V57.1h-44.6v40.4H372V3.8h17.6v38.6h44.6L434.3,3.8L434.3,3.8z"/>
	<path class="st1" d="M552,3.8v23h-30.7v70.7h-27.6V26.8H463v-23C463,3.8,552,3.8,552,3.8z"/>
	<path class="st1" d="M571.3,97.5h-29.1l38.4-93.7h28L647,97.5h-29.1L612,82.3h-34.6L571.3,97.5z M585.3,61.3h18.3l-9.2-23.6
		L585.3,61.3z"/>
	<path class="st1" d="M654,3.8h32.4l31,52.7V3.8H745v93.7h-32.4l-31-52.7v52.7H654V3.8z"/>
	<path class="st1" d="M843.2,3.8v23h-30.7v70.7h-27.6V26.8h-30.7v-23C754.2,3.8,843.2,3.8,843.2,3.8z"/>
	<path class="st1" d="M852.4,97.5V3.8h41.4c24.3,0,42.4,9.1,42.4,33.4c0,15.3-11,23.1-18.2,25.9l19,34.4h-29.7l-16.1-29H880v29
		H852.4z M880,26.8v20.7h13.7c9.9,0,14.4-3,14.4-10.3s-4.5-10.3-14.4-10.3H880V26.8z"/>
	<path class="st1" d="M973.9,97.5h-29.1l38.4-93.7h28l38.4,93.7h-29.1l-5.9-15.2H980L973.9,97.5z M987.9,61.3h18.3L997,37.7
		L987.9,61.3z"/>
	<path class="st0" d="M1070.1,78.7c5.4,0,9.7,4.4,9.7,9.7s-4.4,9.7-9.7,9.7s-9.7-4.3-9.7-9.7S1064.7,78.7,1070.1,78.7z"/>
	<path class="st0" d="M1126.3,85.1c7.1,0,13.4-1.9,19.2-6.5l8.4,10.5c-7.3,7.3-16.8,9.6-27.6,9.6c-22.7,0-37.3-15-37.3-34.7
		s14.5-34.7,37.3-34.7c10.8,0,20.3,2.4,27.6,9.6l-8.5,10.4c-5.8-4.6-12-6.3-19.1-6.3c-14.3,0-20.5,10.1-20.5,21
		S1112,85.1,1126.3,85.1z"/>
	<path class="st0" d="M1199.6,98.8c-22.7,0-37.3-15-37.3-34.7s14.5-34.7,37.3-34.7c22.7,0,37.3,14.8,37.3,34.7
		S1222.3,98.8,1199.6,98.8z M1199.6,43c-14.3,0-20.5,10.1-20.5,21s6.1,21,20.5,21s20.5-10.1,20.5-21S1213.9,43,1199.6,43z"/>
	<path class="st0" d="M1251.3,30.7h16.4v6.1c2.2-4,8.9-7.5,15.5-7.5c10.5,0,17.9,3.7,21.9,9.2c3.6-4.8,11.4-9.2,20.5-9.2
		c16,0,26.9,8.6,26.9,29.1v39h-16.4v-39c0-9.2-3.9-15.5-13-15.5s-13,6.3-13,15.5v39h-16.4v-39c0-9.2-3.9-15.5-13-15.5
		s-13,6.3-13,15.5v39h-16.4V30.7z"/>
</g>
</svg>
