<svg xmlns="http://www.w3.org/2000/svg" width="304" height="43" fill-rule="evenodd" clip-rule="evenodd" image-rendering="optimizeQuality" shape-rendering="geometricPrecision" text-rendering="geometricPrecision" viewBox="0 0 22.14 3.15"><path fill="#f9f" fill-rule="nonzero" d="M7.81 2.32a.87.87 0 01-.4.28c-.16.07-.35.1-.56.1-.22 0-.42-.05-.59-.15a1 1 0 01-.4-.43c-.08-.19-.13-.4-.13-.65v-.2c0-.4.09-.71.28-.93a.98.98 0 01.8-.34c.29 0 .52.07.69.22.17.14.28.35.31.62h-.45C7.31.53 7.13.37 6.81.37c-.2 0-.35.07-.46.22-.1.15-.16.36-.17.65v.2c0 .28.06.5.18.66a.6.6 0 00.5.23c.23 0 .4-.05.5-.16v-.5h-.54V1.3h1v1.01zm.98.34h-.45V.04h.45v2.62zm1.53-1H9.8v1h-.46V.04h.93c.3 0 .53.06.7.2.16.14.25.33.25.6 0 .17-.05.31-.13.43a.8.8 0 01-.36.28l.6 1.09v.02h-.5l-.52-1zm-.51-.38h.47c.15 0 .27-.03.36-.11a.4.4 0 00.13-.32c0-.14-.04-.25-.12-.32-.08-.08-.2-.12-.36-.12h-.48v.87zm2.3 1.02h1.2v.36h-1.65V.04h.45V2.3zm2.92-.31c0-.12-.04-.2-.12-.27a1.47 1.47 0 00-.44-.2 2.05 2.05 0 01-.5-.2c-.25-.15-.37-.35-.37-.6 0-.2.09-.38.26-.51.17-.14.4-.21.67-.21.19 0 .35.03.5.1a.8.8 0 01.33.29c.08.12.12.26.12.41h-.45a.4.4 0 00-.13-.32c-.09-.08-.21-.11-.37-.11a.55.55 0 00-.35.1.31.31 0 00-.12.26c0 .1.04.17.13.24.1.06.24.12.44.18s.37.13.5.21c.12.08.2.17.27.27.05.1.08.22.08.35 0 .22-.08.4-.25.52-.17.13-.4.2-.68.2-.2 0-.37-.04-.52-.1a.87.87 0 01-.38-.3.72.72 0 01-.13-.43h.46c0 .15.05.26.15.34.1.09.23.13.42.13.16 0 .28-.04.36-.1a.31.31 0 00.12-.26z"/><path fill="#f39" fill-rule="nonzero" d="M16.28 2.77h.76l-.06.35h-1.2l.32-1.88h.44l-.26 1.53zm1.59.38a.63.63 0 01-.47-.2.79.79 0 01-.2-.5 1.41 1.41 0 01.16-.75.98.98 0 01.23-.3c.16-.13.35-.19.56-.19.13 0 .24.04.33.1.1.05.18.13.23.24.06.1.1.22.1.36a1.58 1.58 0 01-.12.67c-.04.11-.1.21-.19.3a.88.88 0 01-.27.2.79.79 0 01-.36.07zm1.77-.55l.58-1.36h.5l-.9 1.88h-.49l-.31-1.88h.48l.14 1.36zm2.18-.28h-.69l-.08.45h.82l-.06.35h-1.26l.33-1.88h1.26l-.06.35h-.82l-.07.4h.7l-.07.33z"/><path fill="#fff" fill-rule="nonzero" d="M.84.97H.38l-.15.3H0L.67.01h.19l.24 1.24H.9L.84.97zM.46.8h.35L.73.28.46.8zm.79.46L1.47.02h.38c.13 0 .23.03.3.09.07.05.1.13.09.24-.01.12-.08.2-.22.27.05.02.09.05.12.1.02.05.04.1.03.17 0 .11-.05.2-.13.27-.09.07-.2.1-.33.1h-.46zm.3-.56l-.06.39h.22c.07 0 .13-.02.17-.05a.2.2 0 00.08-.15c.01-.06 0-.1-.02-.14A.198.198 0 001.8.7h-.25zM1.6.54h.19c.07 0 .12-.02.17-.05a.2.2 0 00.08-.13C2.05.26 2 .2 1.87.19h-.21l-.07.35zm1.22.74a.42.42 0 01-.22-.06.37.37 0 01-.14-.16.6.6 0 01-.06-.24A1.08 1.08 0 012.5.3c.04-.08.1-.14.16-.2A.5.5 0 013 0c.12 0 .22.04.29.13.07.08.11.2.12.33a1.14 1.14 0 01-.1.5.64.64 0 01-.15.19.5.5 0 01-.35.13zM3.19.6L3.2.5c0-.06 0-.11-.02-.17a.23.23 0 00-.07-.12A.21.21 0 003 .18a.3.3 0 00-.2.06c-.05.04-.1.1-.13.2-.04.08-.06.2-.06.32 0 .1 0 .19.05.25.03.06.1.09.17.1a.3.3 0 00.24-.12c.06-.08.1-.19.12-.32L3.2.6zM4.61 0l-.14.84a.5.5 0 01-.52.43.4.4 0 01-.29-.11.36.36 0 01-.1-.29V.85L3.7.02h.21l-.14.83c0 .08 0 .14.04.18.03.05.08.07.15.07.08 0 .14-.01.2-.06a.3.3 0 00.1-.19L4.4.02h.2zm1.07.2H5.3l-.18 1.07H4.9L5.09.2h-.37l.03-.17h.96L5.68.2z"/><path d="M18.02 2c-.2-.37-.65-.22-.53.19.08.26.4.46.41.57.07-.15.49-.3.61-.56.2-.42-.22-.56-.5-.2z"/></svg>