<?xml version="1.0" encoding="UTF-8"?>
<svg width="130px" height="40px" viewBox="0 0 130 40" version="1.1" xmlns="http://www.w3.org/2000/svg" xmlns:xlink="http://www.w3.org/1999/xlink">
    <title>Logos / BD-studios-logo</title>
    <g id="desktop" stroke="none" stroke-width="1" fill="none" fill-rule="evenodd">
        <g id="landing-desktop" transform="translate(-40.000000, -40.000000)" fill="#FFFFFF">
            <g id="Logos-/-BD-studios-logo-placeholder-02" transform="translate(40.000000, 40.000000)">
                <path d="M31.0721795,32.8797193 C31.8846641,32.8781535 32.5338818,33.0657774 33.0200592,33.4423758 C33.5062366,33.8191994 33.7664218,34.3487557 33.8008415,35.0314952 L33.8008415,35.0314952 L31.6906007,35.0353219 C31.6834677,34.8253002 31.6187045,34.6679527 31.4964242,34.5630544 C31.3739174,34.4582687 31.2169911,34.4060446 31.0255318,34.4062697 C30.8801542,34.4066074 30.7613838,34.4496022 30.6691075,34.535029 C30.5767179,34.620681 30.5308628,34.7421244 30.5310892,34.899697 C30.5314289,35.0311575 30.5826055,35.1442721 30.6852983,35.2391533 C30.7877646,35.3342596 30.9150267,35.4159722 31.0670845,35.4847414 C31.2191423,35.553398 31.4438889,35.6399504 31.7414376,35.7443985 C32.1840243,35.8947677 32.5493933,36.0433362 32.8369784,36.190554 C33.1245635,36.3377718 33.372634,36.5441918 33.5811898,36.8095891 C33.7897457,37.0750988 33.8944765,37.4115163 33.8952735,37.8186163 C33.8960616,38.2322443 33.7925762,38.6034402 33.5851526,38.931979 C33.377729,39.2608555 33.0776894,39.5207377 32.6850339,39.7118507 C32.292265,39.9029637 31.828619,39.9989704 31.2936427,39.9999917 C30.4811581,40.0014466 29.8137116,39.8106712 29.291303,39.4275448 C28.768668,39.0444183 28.4869704,38.4950528 28.4459839,37.7794482 L28.4459839,37.7794482 L30.51671,37.7756215 C30.5369768,38.0185083 30.6097789,38.1956649 30.7355691,38.3069787 C30.861246,38.4185176 31.0231542,38.4738931 31.2214067,38.4734428 C31.3997322,38.4731052 31.5465817,38.4286472 31.6620687,38.3398438 C31.7773292,38.2509279 31.8349594,38.1276836 31.8346197,37.9702236 C31.8343933,37.7667299 31.7381542,37.6092699 31.5465817,37.4979561 C31.3546696,37.3867549 31.0439871,37.2623851 30.6145342,37.1254095 C30.158474,36.9752654 29.7899348,36.8298484 29.5090298,36.6891586 C29.2278984,36.5485814 28.9833378,36.3422738 28.7746688,36.070011 C28.5659997,35.7980857 28.4613822,35.4420843 28.4605896,35.0020066 C28.4596838,34.555626 28.571208,34.1729498 28.7953885,33.8539779 C29.0191161,33.5351185 29.3293458,33.2933572 29.7252848,33.1283562 C30.1212238,32.9636929 30.570151,32.8806296 31.0721795,32.8797193 Z M56.6633037,32.9406422 L56.6708981,36.9687599 C56.672135,37.6056907 56.5376267,38.1494286 56.2677043,38.5995234 C55.9976687,39.0498433 55.6301485,39.3886243 55.1649173,39.615979 C54.6997993,39.8434463 54.1830518,39.9575739 53.6151278,39.9585952 C53.0469774,39.9597123 52.5398539,39.8473856 52.0936441,39.6217192 C51.6474342,39.3959402 51.2965577,39.0601981 51.0415807,38.6140426 C50.7863772,38.1682248 50.6582094,37.6234739 50.6570771,36.9799025 L50.6570771,36.9799025 L50.6494912,32.9517849 L52.5815198,32.9481832 L52.5889924,36.9763008 C52.589785,37.3505357 52.6776456,37.6394563 52.8532537,37.8426123 C53.0285221,38.0457684 53.294595,38.147065 53.651359,38.1463897 C54.0080099,38.1457144 54.2768001,38.0418291 54.4582957,37.8346211 C54.6393385,37.6275258 54.72969,37.3401809 54.7290107,36.9723615 L54.7290107,36.9723615 L54.721538,32.9442439 L56.6633037,32.9406422 Z M45.0023158,32.9622747 L45.0051464,34.4986073 L43.1425232,34.5020964 L43.1527133,39.9090865 L41.2109476,39.9126882 L41.2007576,34.505698 L39.3578351,34.5090746 L39.3550046,32.972742 L45.0023158,32.9622747 Z M86.2764642,32.777412 C86.936891,32.7761815 87.5400272,32.9262131 88.0854199,33.2271767 C88.6310391,33.5282529 89.0626432,33.9491967 89.3807984,34.4903459 C89.6987272,35.0313826 89.8584841,35.6434395 89.8597382,36.3261789 C89.8610882,37.0091435 89.7035957,37.6216506 89.387705,38.1639253 C89.0715878,38.7062 88.6397572,39.1305205 88.0921,39.4368866 C87.5443297,39.7430275 86.9436844,39.8968859 86.2898245,39.898019 C85.6359646,39.8992495 85.0345268,39.7477547 84.4857374,39.4435271 C83.936948,39.139187 83.5019472,38.7164423 83.1806217,38.1755181 C82.8590699,37.6342564 82.6978411,37.0225371 82.6965883,36.3394601 C82.6953502,35.6567206 82.8542013,35.0439884 83.1737152,34.5018262 C83.4930026,33.9595515 83.9264183,33.5369194 84.4741887,33.2338173 C85.0218458,32.9309403 85.6224911,32.7786576 86.2764642,32.777412 Z M98.1058592,32.7555184 C98.9183438,32.7539525 99.5675615,32.9415764 100.053739,33.3181749 C100.539916,33.6949984 100.800102,34.2246673 100.834521,34.9072942 L100.834521,34.9072942 L98.7242804,34.9112335 C98.7171474,34.7012118 98.6523841,34.5438643 98.5301039,34.4388535 C98.4075971,34.3340677 98.2506708,34.2819562 98.0592115,34.2821813 C97.9138339,34.2824064 97.7950635,34.3254012 97.7027871,34.4109406 C97.6103976,34.49648 97.5645425,34.6179235 97.5647689,34.775496 C97.5651086,34.9069566 97.6162852,35.0200712 97.718978,35.1150649 C97.8214443,35.2101712 97.9487064,35.2918838 98.1007642,35.3605405 C98.252822,35.4293096 98.4775686,35.515862 98.7751173,35.6203101 C99.217704,35.7705668 99.583073,35.9191352 99.8706581,36.066353 C100.158243,36.2136834 100.406314,36.4199909 100.61487,36.6855007 C100.823425,36.9508979 100.928156,37.2874279 100.928953,37.6945279 C100.929741,38.1081559 100.826256,38.4792393 100.618832,38.8078906 C100.411409,39.1366545 100.111369,39.3965367 99.7187135,39.5876497 C99.3259447,39.7788753 98.8622986,39.874882 98.3273224,39.8759021 C97.5148378,39.8772456 96.8473912,39.6864703 96.3249827,39.3033438 C95.8023477,38.9202174 95.5206501,38.3709644 95.4796636,37.6552473 L95.4796636,37.6552473 L97.5503897,37.6515331 C97.5706565,37.8943074 97.6434586,38.071464 97.7692487,38.1828903 C97.8949257,38.2944292 98.0568339,38.3496921 98.2550864,38.3493544 C98.4334119,38.3490168 98.5802614,38.3044463 98.6957484,38.2156429 C98.8110088,38.1267269 98.8686391,38.0034827 98.8682994,37.8460226 C98.868073,37.6425289 98.7718339,37.4850689 98.5802614,37.3737551 C98.3883493,37.2625539 98.0776668,37.1382967 97.6482139,37.0013211 C97.1921537,36.851177 96.8236145,36.70576 96.5427095,36.5649577 C96.2615781,36.4243804 96.0170175,36.2180729 95.8083485,35.9459226 C95.5996794,35.6738848 95.4950618,35.3178833 95.4942693,34.8778056 C95.4933635,34.4314251 95.6048877,34.0487488 95.8290682,33.7297769 C96.0527958,33.4110301 96.3630254,33.1691562 96.7589645,33.0042678 C97.1549035,32.8394919 97.6038307,32.7564287 98.1058592,32.7555184 Z M65.4512595,32.9243354 C66.1843752,32.9229941 66.8267996,33.0679609 67.3789856,33.3590199 C67.9309453,33.6503041 68.3562089,34.0580794 68.654437,34.582796 C68.952665,35.1077378 69.1023451,35.7082018 69.1037102,36.3843007 C69.104836,37.0540967 68.955722,37.6518595 68.6562485,38.1777016 C68.3565486,38.7036564 67.9312849,39.116384 67.3804575,39.4161095 C66.8295169,39.7159476 66.1907156,39.8664294 65.4642801,39.86778 L65.4642801,39.86778 L62.7000663,39.8728448 L62.6870457,32.9295221 Z M76.8644486,32.903275 L76.8775825,39.8465977 L74.9357036,39.8501994 L74.922683,32.9068767 L76.8644486,32.903275 Z M65.3057687,34.5988849 L64.6319816,34.600129 L64.6386618,38.1654335 L65.3124488,38.1641954 C65.8803728,38.1630699 66.3259033,38.008086 66.6490402,37.6987936 C66.972064,37.3897262 67.1330664,36.9528 67.1321644,36.3880149 C67.1310284,35.8167018 66.9682144,35.3756112 66.6440585,35.0642928 C66.3199025,34.753087 65.8735794,34.5977654 65.3057687,34.5988849 L65.3057687,34.5988849 Z M86.2797477,34.5502197 C85.7778324,34.5512365 85.3850636,34.7110601 85.1016677,35.030032 C84.8182718,35.3491165 84.6770834,35.7842418 84.6780969,36.3357458 C84.6791214,36.8808344 84.8218949,37.3123581 85.1065363,37.6300919 C85.3910644,37.9480509 85.7843993,38.1065239 86.2864278,38.1056273 C86.7818894,38.104723 87.1729599,37.9430986 87.4596392,37.6208627 C87.7463186,37.2987393 87.8890921,36.8682286 87.8880785,36.3297806 C87.8870541,35.7782766 87.7426955,35.3438265 87.4547707,35.025755 C87.1668459,34.7077961 86.7752093,34.5493231 86.2797477,34.5502197 Z M26.1917242,7.0374774 C27.2822832,7.03557677 28.2237282,7.24897505 29.014474,7.67745989 C29.8054463,8.10639493 30.4175271,8.68457371 30.8518485,9.41300919 L30.8518485,9.41300919 L30.8477725,7.22522661 L36.378125,7.2149844 L36.407676,22.9506314 L30.8772104,22.960761 L30.8730212,20.773091 C30.4416435,21.5031022 29.8267321,22.0840948 29.0281739,22.515506 C28.2292761,22.9473674 27.2941715,23.1639171 26.2219546,23.1658433 C24.9614486,23.1681941 23.8180147,22.8433695 22.7917661,22.1904563 C21.7650646,21.5379933 20.9547312,20.5997612 20.3598603,19.3759851 C19.7651025,18.1525466 19.4660819,16.7269651 19.4631145,15.1001409 C19.4600811,13.4732041 19.7535538,12.051787 20.3438959,10.8351016 C20.9341247,9.61852884 21.7409482,8.68232267 22.765272,8.02569526 C23.7890298,7.36929296 24.9312182,7.03985374 26.1917242,7.0374774 Z M70.4907585,6.95539776 C72.0708916,6.95249101 73.486852,7.2773156 74.7392059,7.92932838 C75.9912202,8.58179137 76.9805583,9.51473354 77.7072202,10.7287176 C78.433316,11.9432645 78.7984586,13.363331 78.8015349,14.9902678 C78.8045726,16.617092 78.4448647,18.0439116 77.7231846,19.2696011 C77.0011648,20.4960784 76.010468,21.4375745 74.7516604,22.094202 C73.4923999,22.7512796 72.0730428,23.0809439 70.4927965,23.0838884 C68.9126635,23.086684 67.4964766,22.7625348 66.2444623,22.1099592 C64.9919952,21.458059 64.0074124,20.5250043 63.2906008,19.31057 C62.5731099,18.0964733 62.2134021,16.6666148 62.2103257,15.0209944 C62.2072881,13.3940576 62.566543,11.972528 63.2887893,10.755505 C64.0103562,9.53870708 64.9961844,8.60216325 66.2461607,7.94497309 C67.495684,7.28834568 68.9106255,6.95845625 70.4907585,6.95539776 Z M9.53718305,3.22549405 C11.5687341,3.22180285 13.1638126,3.66773322 14.3223051,4.56319563 C15.4809108,5.45854547 16.0617421,6.71968879 16.0646859,8.34662557 C16.0669504,9.50624713 15.7627215,10.474418 15.1532449,11.2514759 C14.5432021,12.0286463 13.7307176,12.5583152 12.7153383,12.8407078 C13.882096,13.10059 14.8095014,13.6738165 15.4980074,14.5604998 C16.1860604,15.4476334 16.531389,16.4616129 16.5335532,17.6018755 C16.5367105,19.2848631 15.9558791,20.6041957 14.7916123,21.5599859 C13.6267793,22.5160012 11.9911673,22.9958097 9.88466286,22.9996365 L9.88466286,22.9996365 L0.037136976,23.0179824 L0,3.24330025 Z M48.8138263,3.15277097 C50.9018755,3.14897056 52.7317773,3.56192324 54.304098,4.39086751 C55.8763055,5.22026198 57.08722,6.38202203 57.9366151,7.87637275 C58.785897,9.37106112 59.2122929,11.0812863 59.2159376,13.0069356 C59.2194259,14.9143516 58.7946151,16.6168106 57.9415969,18.1142002 C57.0883522,19.6121526 55.877098,20.7875314 54.3082872,21.6411245 C52.7390236,22.4951679 50.9199911,22.9237653 48.8509633,22.927592 L48.8509633,22.927592 L40.9786037,22.9421112 L40.9414668,3.16742906 Z M87.9849576,7.11942789 L88.0145087,22.8550749 L82.484043,22.8652045 L82.454492,7.1296701 L87.9849576,7.11942789 Z M102.910988,6.95156421 C104.735342,6.94809023 106.185382,7.54844172 107.25975,8.7526338 C108.334232,9.95671334 108.873397,11.5874769 108.877247,13.6442491 L108.877247,13.6442491 L108.894456,22.8163233 L103.364104,22.8265655 L103.34814,14.3837147 C103.346441,13.4862263 103.109806,12.7809765 102.638801,12.2674025 C102.167456,11.7541661 101.53692,11.4981107 100.746966,11.4994613 C99.9188569,11.5010371 99.2704317,11.7595686 98.801351,12.2744933 C98.3319305,12.7897556 98.0983525,13.4959058 98.1000509,14.3933941 L98.1000509,14.3933941 L98.115902,22.8363575 L92.5855496,22.8465997 L92.5559985,7.11095273 L98.086351,7.10059797 L98.0906534,9.34465646 C98.5781894,8.63321631 99.2353328,8.05706346 100.062536,7.61586027 C100.88906,7.17521983 101.838771,6.95360527 102.910988,6.95156421 Z M118.843962,2.04144925 L118.864795,13.233041 L123.226804,7.05417033 L129.857679,7.04190218 L123.63667,14.9631878 L130,22.7772115 L123.256242,22.7897048 L118.870682,16.3464499 L118.88291,22.7979211 L113.352445,22.8080507 L113.313496,2.05157891 L118.843962,2.04144925 Z M8.74088929,14.9797482 L5.55254403,14.9856081 L5.55922416,18.5758991 L8.77587504,18.5699339 C10.1677191,18.5674577 10.8629052,17.9866903 10.8606462,16.8271813 C10.8595085,16.2288557 10.6751823,15.7712199 10.3078885,15.4537112 C9.94036833,15.1366527 9.41818621,14.9785174 8.74088929,14.9797482 L8.74088929,14.9797482 Z M27.978375,11.8306171 C27.1502658,11.8321983 26.4644771,12.1187553 25.9201034,12.6899559 C25.37539,13.2614941 25.1043354,14.0615125 25.106362,15.089561 C25.108185,16.0994886 25.3821834,16.8983815 25.9291612,17.4863523 C26.4755729,18.0744357 27.162607,18.3676332 27.9906031,18.3661755 C28.7992381,18.3645943 29.480611,18.0735353 30.0346086,17.4927678 C30.5881534,16.9124505 30.864303,16.1075923 30.8625003,15.0790937 C30.8605667,14.0691661 30.5812468,13.2751129 30.0255508,12.6963713 C29.4695152,12.1179674 28.7868968,11.8291594 27.978375,11.8306171 Z M70.4997031,11.7237843 C69.7472264,11.7252516 69.1177094,12.0069688 68.6108123,12.5688276 C68.1040285,13.1306863 67.8515423,13.9446612 67.8535681,15.0105271 C67.8556183,16.0951891 68.1013111,16.9174928 68.591791,17.4774382 C69.0818179,18.0374962 69.7123539,18.3168498 70.4838519,18.3153924 C71.2550103,18.314036 71.8986802,18.0280418 72.4152011,17.4562785 C72.9312692,16.8851905 73.1885107,16.0664884 73.1864847,15.0006225 C73.184548,13.9347567 72.9241362,13.1217948 72.4060301,12.5618494 C71.8873579,12.0017914 71.2519533,11.7225503 70.4997031,11.7237843 Z M48.3995453,7.92205323 L46.480877,7.92567045 L46.4998984,18.0794217 L48.4185666,18.0757075 C50.0360631,18.0727812 51.3050607,17.6313529 52.2253331,16.7504096 C53.1450394,15.8700292 53.6039301,14.6257687 53.6008883,13.0172904 C53.5978161,11.3905787 53.1342833,10.13405 52.2112935,9.2472541 C51.2877377,8.3611335 50.0170417,7.91902989 48.3995453,7.92205323 L48.3995453,7.92205323 Z M8.33204289,7.60343801 L5.53861766,7.60862318 L5.54518457,11.0868125 L8.33860979,11.0816352 C9.73045384,11.0790465 10.4255267,10.5075083 10.4233804,9.3667954 C10.421111,8.1888279 9.72388693,7.60096966 8.33204289,7.60343801 L8.33204289,7.60343801 Z M85.2345003,8.8670848e-06 C86.1938345,-0.00178300663 86.9704275,0.268003743 87.5639398,0.809152967 C88.1574521,1.35063985 88.455114,2.03247886 88.4567038,2.85512023 C88.4580578,3.65919054 88.163,4.32819865 87.5714125,4.86225711 C86.9800514,5.39631557 86.2044774,5.66418893 85.2451432,5.6658875 C84.2669009,5.66779059 83.4811369,5.40273102 82.8875114,4.8709236 C82.2939991,4.33900362 81.9965636,3.67123359 81.9950854,2.86693817 C81.9935066,2.04440936 82.2884512,1.36133227 82.8800387,0.817706906 C83.471513,0.274531749 84.256258,0.00170610026 85.2345003,8.8670848e-06 Z"></path>
            </g>
        </g>
    </g>
</svg>