<svg class="header__logo" xmlns="http://www.w3.org/2000/svg" viewBox="0 0 136 36"><path fill="#1ca1fc" d="M41 25.7V12.6h4.5c1.6 0 2.9.3 3.8.9.9.6 1.4 1.6 1.4 2.7 0 .6-.1 1.2-.4 1.7-.3.5-.8.9-1.4 1.1.7.1 1.3.5 1.7 1 .4.5.6 1.2.6 1.8 0 1.3-.4 2.2-1.3 2.9-.9.7-2.1 1-3.7 1H41zm3.1-7.7h1.5c.5 0 1.1-.1 1.6-.4.3-.3.5-.7.5-1.1 0-.5-.2-.9-.5-1.2-.5-.3-1-.4-1.6-.4h-1.5V18zm0 2v3.3h2.1c.5 0 1-.1 1.5-.4.3-.3.5-.7.5-1.2s-.1-.9-.4-1.3c-.4-.3-.9-.5-1.4-.4h-2.3zm13.7 5.6c-.1-.2-.2-.3-.2-.5-.1-.2-.1-.4-.2-.6-.3.4-.6.7-1.1 1-.5.2-1 .4-1.5.4a4 4 0 0 1-2.3-.8c-.6-.6-.9-1.3-.9-2.1 0-.9.4-1.7 1.1-2.2.7-.5 1.8-.8 3.3-.8h1.1v-.7c0-.3-.1-.7-.3-1-.2-.2-.6-.4-.9-.3-.3 0-.6.1-.8.2-.2.2-.3.5-.3.8h-3v-.1c0-.9.4-1.7 1.1-2.2.9-.6 2-.9 3.1-.9s2.1.3 2.9.9c.8.6 1.2 1.6 1.1 2.6V23a6.15 6.15 0 0 0 .5 2.7l-2.7-.1zm-2.1-1.9c.3 0 .6-.1.8-.2.2-.1.4-.3.6-.5v-1.5H56c-.4 0-.8.1-1.1.4-.2.2-.3.6-.3.9 0 .3.1.5.3.7.3.1.6.2.8.2zm5.8 2V12.6h4.8c1.5 0 2.9.5 3.9 1.5s1.6 2.4 1.6 3.9v2.4c.1 1.4-.5 2.8-1.6 3.9-1 1-2.4 1.5-3.9 1.5h-4.8v-.1zm3-10.8v8.4H66c.7 0 1.4-.3 1.9-.8.5-.6.7-1.4.7-2.2v-2.4c0-.8-.2-1.6-.7-2.2-.5-.6-1.2-.9-1.9-.8h-1.5zm7.8 5.8c-.1-1.3.4-2.6 1.2-3.6.9-.9 2.2-1.5 3.5-1.4 1.5 0 2.7.5 3.5 1.4.9 1 1.3 2.3 1.3 3.6v.2c.1 1.3-.4 2.6-1.3 3.6a5 5 0 0 1-3.5 1.4c-1.5 0-2.7-.5-3.5-1.4-.9-1-1.3-2.3-1.2-3.6v-.2zm3.1.2c0 .7.1 1.3.4 1.9.3.4.8.7 1.3.7s1-.3 1.3-.7c.3-.6.4-1.3.4-1.9v-.2c0-.7-.1-1.3-.4-1.9-.3-.5-.8-.8-1.3-.7-.5 0-1 .2-1.3.7-.3.6-.4 1.2-.4 1.9v.2zm10.3-7.2h-3.1v-2h3.1v2zm0 12h-3.1V16h3.1v9.7zm4-9.8.1 1.4c.3-.5.7-.9 1.2-1.1.5-.3 1-.4 1.6-.4.9 0 1.7.3 2.3.9.5.6.8 1.6.8 2.9v6h-3.1v-6c0-.4-.1-.8-.3-1.2-.3-.2-.7-.4-1-.3-.3 0-.5 0-.8.2-.2.1-.4.2-.6.4v7h-3.1V16h2.9v-.1zm10.5 5.9h-.5v3.9h-3.1v-14h3.1v7.9h.4l2.1-3.6h3.5l-3 4.4 3.5 5.3h-3.5l-2.5-3.9zm10.8.3.1.5h.1l.1-.4 2.6-9.6h3.2l-4.3 13.1h-3.3l-4.3-13.1h3.2l2.6 9.5zm9.5-1.5v5h-3.1v-13h5.1c1.5 0 2.7.3 3.6 1 .9.7 1.4 1.8 1.3 2.9 0 .6-.2 1.2-.5 1.7-.4.5-1 .9-1.6 1.2.7.2 1.3.6 1.7 1.1.4.6.6 1.3.5 2v.8c0 .4.1.8.2 1.2.1.4.2.7.5.9v.2H125c-.3-.3-.4-.6-.5-1-.1-.4-.1-.9-.1-1.3v-.8c0-.5-.1-1-.5-1.4-.4-.4-.9-.5-1.5-.5h-1.9zm0-2.3h2c.5 0 1-.1 1.4-.4.3-.3.5-.7.5-1.2s-.2-.9-.5-1.3c-.4-.3-.9-.5-1.4-.5h-2v3.4zm2.1-14.6c-3.9-.7-8 .1-11.4 2.3-.8.5-1.6 1.2-2.3 1.9-.7.7-1.3 1.4-1.9 2.3-.1.1-.1.2-.2.3h.1c.1-.1.1-.2.2-.3.5-.8 1.2-1.6 1.9-2.2.7-.7 1.5-1.3 2.3-1.8.8-.5 1.7-1 2.6-1.3 1.8-.7 3.8-1 5.7-1 3.9.1 7.7 1.6 10.5 4.3 1.4 1.3 2.5 2.9 3.3 4.6.8 1.7 1.2 3.6 1.3 5.5 0 1.9-.3 3.8-1 5.6-.7 1.8-1.8 3.3-3.2 4.7a14.95 14.95 0 0 1-10.4 4c-1.9 0-3.8-.4-5.6-1.1-.9-.3-1.7-.8-2.6-1.3-.4-.2-.7-.5-1.1-.7l.8-1c.2-.3 0-.5-.4-.6l-2.6-.1c-.2 0-.4.1-.5.2s-.1.4-.1.5l1 2.5c.1.4.4.5.7.2l.8-1.1c.4.3.7.6 1.1.8a17.07 17.07 0 0 0 5.6 2.3 15.15 15.15 0 0 0 8.9-.9c1.9-.8 3.6-1.9 5-3.3 2.9-2.9 4.5-6.8 4.3-10.9-.1-2-.6-4-1.4-5.8-1.7-3.6-4.8-6.5-8.5-7.9-.9-.2-1.9-.5-2.9-.7zM18.1 24.4c0 .7-2.2.9-2.6.9 0 .7.1.7 2.7.7s2.8 0 2.8-.7c-.5 0-2.9-.2-2.9-.9zM30.6 5.2a17.95 17.95 0 0 0-25.3 0c-7 7-7 18.2 0 25.2 3.3 3.3 7.9 5.2 12.7 5.2s9.3-1.9 12.7-5.2c7-7 7-18.2-.1-25.2zm-1.2 16c0 3.3-2.6 4.2-4.2 4.2h-1c-.1 0-.2 0-.3.1-.1.1-.1.2-.1.3v.1c0 1.4-.3 3.3-4.2 3.3h-2.8c-3.8 0-4.2-1.9-4.2-3.3v-.1c0-.1 0-.2-.1-.3s-.2-.1-.3-.1h-1c-1.6 0-4.2-.9-4.2-4.2V9c0-.5.4-.8.8-.8h1.4c.4 0 .8.4.8.8v9c0 .2.1.4.2.6s.4.2.6.2h4.8c.2 0 .4-.2.4-.4v-1.2c0-.1 0-.2-.1-.3-.1-.1-.2-.1-.3-.1H12c-.2 0-.4-.1-.6-.2s-.2-.4-.2-.6v-2.5c0-.2.1-.4.2-.6s.4-.2.6-.2h3.2c.6 0 1.1.1 1.6.3l.6.2c.4.1.6.5.7.8.1-.4.4-.7.7-.8l.6-.2c.5-.2 1.1-.3 1.6-.3h3.2c.2 0 .4.1.6.2.2.2.2.4.2.6V16c0 .2-.1.4-.2.6-.2.2-.4.2-.6.2h-3.6c-.1 0-.2 0-.3.1-.1.1-.1.2-.1.3v1.2c0 .2.2.4.4.4h4.8c.2 0 .4-.1.6-.2s.2-.4.2-.6V9c0-.5.4-.8.8-.8h1.4c.5 0 .8.4.8.8l.2 12.2z"/></svg>