<svg xmlns="http://www.w3.org/2000/svg" width="323" height="34" fill-rule="evenodd" clip-rule="evenodd" image-rendering="optimizeQuality" shape-rendering="geometricPrecision" text-rendering="geometricPrecision" viewBox="0 0 40.92 4.29"><defs><style>.fil0{fill:#fff;fill-rule:nonzero}</style></defs><g id="Layer_x0020_1"><path d="M16.48 4.26c-.38 0-.72-.1-1.04-.29a2.12 2.12 0 01-1.03-1.84A2.12 2.12 0 0116.48 0c.26 0 .49.04.7.11.2.08.4.2.6.36.04.03.06.07.06.12 0 .03 0 .05-.02.08a.12.12 0 01-.06.05.1.1 0 01-.05.06.2.2 0 01-.21-.03 1.31 1.31 0 00-.45-.27 1.72 1.72 0 00-1.4.15 1.75 1.75 0 00-.83 1.5 1.76 1.76 0 00.83 1.5 1.64 1.64 0 001.88-.14.19.19 0 01.26.01.2.2 0 01.05.15c0 .06-.02.11-.06.15-.33.3-.76.46-1.3.46z" class="fil0"/><path id="1" d="M20.63 4.26c-.4 0-.76-.1-1.09-.28a1.98 1.98 0 01-.75-.76 2.19 2.19 0 01-.28-1.1c0-.4.1-.76.28-1.08.18-.33.43-.58.75-.76.33-.19.69-.28 1.1-.28.4 0 .76.1 1.08.28.33.18.58.43.76.76.19.32.28.68.28 1.09 0 .4-.1.77-.28 1.1-.18.32-.43.57-.76.75-.32.19-.68.28-1.09.28zm0-.4a1.7 1.7 0 001.5-.85c.14-.26.22-.56.22-.88 0-.32-.08-.62-.23-.88a1.65 1.65 0 00-1.49-.86 1.65 1.65 0 00-1.5.85c-.14.27-.21.57-.21.89 0 .32.07.62.22.88.15.27.35.48.61.63.26.15.56.23.88.23z" class="fil0"/><path id="2" d="M25.27 4.3c-.32 0-.6-.07-.86-.2-.25-.12-.45-.3-.59-.51a1.38 1.38 0 01-.2-.75V.25a.2.2 0 01.2-.2.2.2 0 01.2.2v2.58a1 1 0 00.6.92c.2.1.4.14.65.14.23 0 .44-.05.63-.14a.98.98 0 00.59-.93V.27a.2.2 0 01.06-.15.2.2 0 01.15-.06.2.2 0 01.2.21v2.58a1.38 1.38 0 01-.79 1.27c-.25.12-.53.18-.84.18z" class="fil0"/><path id="3" d="M28.18 4.2a.2.2 0 01-.15-.05.2.2 0 01-.06-.15V.26a.2.2 0 01.2-.2h1.07c.26 0 .49.05.7.17.2.11.36.27.47.48.11.2.17.43.17.7 0 .25-.06.48-.17.69-.11.2-.27.35-.48.47-.2.11-.43.17-.69.17h-.86V4a.2.2 0 01-.06.15.2.2 0 01-.14.06zm1.06-1.86c.18 0 .34-.04.48-.12.15-.08.26-.19.34-.33.08-.14.12-.3.12-.49a1 1 0 00-.12-.49.88.88 0 00-.34-.34.96.96 0 00-.48-.12h-.86v1.89h.86z" class="fil0"/><path id="4" d="M31.43 4.2a.2.2 0 01-.14-.05.2.2 0 01-.07-.15V.26c0-.06.02-.1.07-.15a.2.2 0 01.14-.06.2.2 0 01.2.21v3.55h2.09a.2.2 0 01.15.06c.04.04.06.08.06.14 0 .06-.02.1-.06.14a.2.2 0 01-.15.06h-2.29z" class="fil0"/><path id="5" d="M34.8 4.2a.2.2 0 01-.15-.05.2.2 0 01-.06-.15V.26a.2.2 0 01.06-.15.2.2 0 01.15-.06h2.5a.2.2 0 01.2.2c0 .06-.02.1-.06.15a.2.2 0 01-.15.05h-2.28v1.47h1.66a.2.2 0 01.2.2.2.2 0 01-.05.15.2.2 0 01-.15.05H35v1.49h2.3a.2.2 0 01.14.05c.04.04.06.09.06.14a.2.2 0 01-.2.2h-2.5z" class="fil0"/><path id="6" d="M39.55 4.26c-.34 0-.64-.07-.9-.21a1.28 1.28 0 01-.56-.59.17.17 0 01-.02-.08c0-.05.02-.1.06-.13a.22.22 0 01.15-.05c.04 0 .08.01.12.04.03.02.06.05.08.1a.9.9 0 00.4.38c.2.1.42.15.67.15.29 0 .52-.07.7-.21a.7.7 0 00.27-.6.74.74 0 00-.25-.55 1.32 1.32 0 00-.74-.3 1.76 1.76 0 01-.97-.38.98.98 0 01-.36-.77c0-.2.06-.4.17-.56.12-.16.28-.28.48-.37a1.75 1.75 0 011.44.06c.21.12.38.28.5.48.02.04.03.08.03.13 0 .07-.03.12-.1.16a.2.2 0 01-.09.02.22.22 0 01-.2-.11 1 1 0 00-.89-.48c-.28 0-.51.06-.68.18a.6.6 0 00-.25.52c0 .42.34.67 1 .76.45.06.78.2 1 .4.2.2.32.48.32.81a1.14 1.14 0 01-.67 1.06c-.22.1-.45.14-.71.14z" class="fil0"/><path d="M5.3 2.66h1.3l-.65-1.61-.66 1.61zm1.93 1.56l-.32-.8H4.98l-.32.8h-.97L5.49.07h.97l1.78 4.15h-1zM.94 2.25h.86c.27 0 .47-.06.6-.18.15-.12.22-.3.22-.53 0-.23-.07-.4-.21-.52a.92.92 0 00-.6-.17H.94v1.4zm1.61 1.97L1.9 3.04H.94v1.18H0V.07h1.8c.55 0 .97.12 1.26.38.3.25.45.6.45 1.06 0 .32-.07.6-.2.82-.13.23-.33.4-.58.52l.89 1.37H2.55z" fill="#fff" fill-rule="nonzero"/><g id="_1173209200" fill-rule="nonzero"><path fill="#ff91d1" d="M8.39.07h-.97l1.81 4.15h.97l.78-1.83-.68-.75-.61 1.6z"/><path fill="#0cf" d="M10.45.07h-.97l1.81 4.15h.97L14.03.07h-1l-1.29 3.17z"/></g></g></svg>