<?xml version="1.0" encoding="utf-8"?>
<svg xmlns="http://www.w3.org/2000/svg" viewBox="0 0 570 93.1" xmlns:v="https://vecta.io/nano">
	<path d="M204.9 44.9l-5.2-2.3s-2.8-29.3-33-27.5c-30.3 1.8-28.6.8-34.4-1.5 3.4 6.2 7.3 8.6 7.3 8.6v22.5l-5.2 2.5s5.1 1.5 5.2 3.9c.2 2.3 0 20.1 0 20.1s-6.4 5-6 10.2c0 0 8.2-9.5 21.2-5.9S181 82 190.7 72s9.4-24.5 9.4-24.5l4.8-2.6zm-33 26.9c-10.3-1.5-7.7-15.3-7.7-15.3-4.9 1.1-8.1 5.2-8.1 5.2v-39c11.3.6 20.1 4.1 25.4 15.2 5.2 11.1.7 35.4-9.6 33.9zM347.8 16s7.7 2.3 7.7 7.4V42s-5 3-5.8 4.2c0 0 5.8-.7 5.8 2.3v22.1 1.2l-4.5 4.1h27.4s-5.8-3-5.8-4.8v-25-16.4s-.7-6 8-8.3c8.7-2.2 16.2 3.7 15 9.8s-7.9 9.1-14.3 8.5-5-6.7-5-6.7-3.7 3.9 2.7 15.2 14.8 26.6 14.1 29.3c0 0 3.9-1.9 3.9-4.6 0 0 19.1 7.9 14.3 16.3 0 0 6.6-5.5-1.4-17.7C402 59.3 397.4 47 397.4 47l-5-1.6s18.3 2.4 22.2-11.9-14.3-17.2-22-17.7c-4.8-.3-31.6 3.9-35.5-11.6 0 0-2.1 7.6 4 12 0 .1-6.5-1-13.3-.2zm-138.4.4s5.5 4.9 5.7 6.2c.2 1.2 0 18.7 0 18.7s-5.7 4.1-6.4 4.4c0 0 6.4.4 6.4 3.2V71s-7 5.4-7.9 10.3c0 0 21.3-17.1 62.9.4l-3.4-7.1s7.6-17.2-8.1-26.9c0 0 5.7 12.8-7 18.7s-19.7.8-19.7.8v-21s8.8-.1 8.2 5c0 0 15.5-3 23.2-11 0 0-11.7 4.8-17.4-.3s-2.3-9.1-2.3-9.1-5.8 4.4-11.8 13.5V26.6s14.8-2.2 18.2-1.7c0 0 5.1 14.1 21 14.7 0 0-11.3-7.1-4.3-22.9 0 0-13.8 3.9-22.3 2.8l-3-4S238 20 237.1 20c-1.1-.1-16.4.4-27.7-3.6zm212.6.2s5.7 5 5.9 6.2c.2 1.3 0 18.9 0 18.9s-5.9 4.1-6.7 4.4c0 0 6.7.4 6.7 3.2v22.3s-7.2 5.4-8.2 10.4c0 0 22.1-17.2 65.2.5l-3.5-7.2s7.8-17.4-8.4-27.1c0 0 5.9 12.9-7.3 18.9-13.1 6-20.5.8-20.5.8V46.6s9.1-.1 8.5 5c0 0 16.1-3 24.1-11.1 0 0-12.2 4.8-18-.3-5.9-5.1-2.4-9.1-2.4-9.1s-6.1 4.4-12.2 13.6V26.9s15.4-2.2 18.9-1.7c0 0 5.3 14.2 21.7 14.8 0 0-11.8-7.2-4.5-23.1 0 0-14.3 3.9-23.1 2.8l-3.1-4s-3.5 4.5-4.5 4.5-16.8.5-28.6-3.6zm71.7-.2s5.6 4.9 5.7 6.2c.2 1.2 0 18.7 0 18.7s-5.8 4.1-6.5 4.4c0 0 6.5.4 6.5 3.2V71s-7.1 5.4-8 10.3c0 0 21.6-17.1 63.8.5l-3.4-7.1s7.7-17.2-8.2-26.9c0 0 5.8 12.8-7.1 18.7-12.8 5.9-20 .8-20 .8V46.2s8.9-.1 8.3 5c0 0 15.7-3 23.6-11 0 0-11.9 4.8-17.6-.3s-2.3-9.1-2.3-9.1-5.9 4.4-12 13.5V26.6s15-2.2 18.5-1.7c0 0 5.2 14.1 21.3 14.7 0 0-11.5-7.1-4.4-22.9 0 0-14 3.9-22.6 2.8l-3.1-4s-3.4 4.5-4.4 4.5c-1.1-.1-16.6.4-28.1-3.6zM317.2 79.1c30.1-4.9 27.4-36.5 27.4-36.5-23.2 17.4-41.7-2.8-41.7-2.8-4.2 22.1 13.5 29.2 13.5 29.2-3.6-4.5-3-13.5-3-13.5 5.5 1.9 16.4 1.8 16.4 1.8-8.2 24.3-29.9 14.8-31.4-7.9-1.5-22.8 11-30.4 23.2-25s4 23.2 4 23.2c14.9-7.2 16.6-23.7 16.6-23.7l1.9-4s-10.8 1.5-11.8 1.2-9.5-8.1-26.4-4.5C289 20 284.2 34.5 283.1 38l-7.8 3.7s6.5 1.2 6.5 4.3-1.7 26.5 27.8 32.6l3 3.4 4.2-3.1.4.2zM118.1 35.3c-7.5-.2-20.3 0-20.3 0s5.4 2.7 5.4 3.6v16.6h-2l-5.6-9s3.2-1.7 3.4-4.7-.9-5.8-9.6-6.4H66.7s5.4 2.4 5.4 3.4v15.9s-2.2 2.7-5.4 2.9h20s-4.6-1.2-4.6-3.6V41.4s0-1.8 2-2 4.7.2 4.2 2.3-4.2 3.5-4.2 3.5l7.3 12.4h28.2s8.6-3.1 9.9-9c1.4-6-3.9-13-11.4-13.3zm2.4 13.5c-.8 4.2-7.6 6.5-7.6 6.5v-1V39c7.2.9 8.4 5.6 7.6 9.8zM41.6 7.7s-3.8 6.6-24.1 8.1c0 0 2.6 1.5 2.6 3.1v13.4s.1 4.3-3 5c0 0 14.4-5.8 18.3-6V17.8l6.2 3.5v8.3.4 1.2s-1.4 4.3-8 7c-6.5 2.6-17.2 3.2-20.1 1.5 0 0 6.3 4.4 17.2 4.8 0 0-4.6 1.3-8.8 5.8 0 0 6.3-2.5 11.5-1 5.2 1.4 8.2 3.2 8.2 3.8v21.3L35.5 76V52.6s-13.2 6.6-24.8 7.8l9.5.4v16.5l-4.5 2.5s15.5-.2 26 7.4c0 0 9-8 23.3-9.9 0 0-7.2-1.7-7.2-2.7V53l3.7-3.6s-6.2-1.6-10.1-3.6c-4.7-2.4-9.8-3-9.8-3s14.6-6.9 18.6-7.8c0 0-2.5-.5-2.5-1.2V22s.4-3.5 4.7-3.7c0 .2-21.1-4.4-20.8-10.6z"/>
	<path d="M201.9 42.9l-5.2-2.3s-2.8-29.3-33-27.5c-30.3 1.8-28.6.8-34.4-1.5 3.4 6.2 7.3 8.6 7.3 8.6v22.5l-5.2 2.5s5.1 1.5 5.2 3.9c.2 2.3 0 20.1 0 20.1s-6.4 5-6 10.2c0 0 8.2-9.5 21.2-5.9S178 80 187.7 70s9.4-24.5 9.4-24.5l4.8-2.6zm-33 26.9c-10.3-1.5-7.7-15.3-7.7-15.3-4.9 1.1-8.1 5.2-8.1 5.2v-39c11.3.6 20.1 4.1 25.4 15.2 5.2 11.1.7 35.4-9.6 33.9zM344.8 14s7.7 2.3 7.7 7.4V40s-5 3-5.8 4.2c0 0 5.8-.7 5.8 2.3v22.1 1.2l-4.5 4.1h27.4s-5.8-3-5.8-4.8v-25-16.4s-.7-6 8-8.3c8.7-2.2 16.2 3.7 15 9.8s-7.9 9.1-14.3 8.5-5-6.7-5-6.7-3.7 3.9 2.7 15.2 14.8 26.6 14.1 29.3c0 0 3.9-1.9 3.9-4.6 0 0 19.1 7.9 14.3 16.3 0 0 6.6-5.5-1.4-17.7C399 57.3 394.4 45 394.4 45l-5-1.6s18.3 2.4 22.2-11.9-14.3-17.2-22-17.7c-4.8-.3-31.6 3.9-35.5-11.6 0 0-2.1 7.6 4 12 0 .1-6.5-1-13.3-.2zm-138.4.4s5.5 4.9 5.7 6.2c.2 1.2 0 18.7 0 18.7s-5.7 4.1-6.4 4.4c0 0 6.4.4 6.4 3.2V69s-7 5.4-7.9 10.3c0 0 21.3-17.1 62.9.4l-3.4-7.1s7.6-17.2-8.1-26.9c0 0 5.7 12.8-7 18.7s-19.7.8-19.7.8v-21s8.8-.1 8.2 5c0 0 15.5-3 23.2-11 0 0-11.7 4.8-17.4-.3s-2.3-9.1-2.3-9.1-5.8 4.4-11.8 13.5V24.6s14.8-2.2 18.2-1.7c0 0 5.1 14.1 21 14.7 0 0-11.3-7.1-4.3-22.9 0 0-13.8 3.9-22.3 2.8l-3-4S235 18 234.1 18c-1.1-.1-16.4.4-27.7-3.6zm212.6.2s5.7 5 5.9 6.2c.2 1.3 0 18.9 0 18.9s-5.9 4.1-6.7 4.4c0 0 6.7.4 6.7 3.2v22.3s-7.2 5.4-8.2 10.4c0 0 22.1-17.2 65.2.5l-3.5-7.2s7.8-17.4-8.4-27.1c0 0 5.9 12.9-7.3 18.9-13.1 6-20.5.8-20.5.8V44.6s9.1-.1 8.5 5c0 0 16.1-3 24.1-11.1 0 0-12.2 4.8-18-.3-5.9-5.1-2.4-9.1-2.4-9.1s-6.1 4.4-12.2 13.6V24.9s15.4-2.2 18.9-1.7c0 0 5.3 14.2 21.7 14.8 0 0-11.8-7.2-4.5-23.1 0 0-14.3 3.9-23.1 2.8l-3.1-4s-3.5 4.5-4.5 4.5-16.8.5-28.6-3.6zm71.7-.2s5.6 4.9 5.7 6.2c.2 1.2 0 18.7 0 18.7s-5.8 4.1-6.5 4.4c0 0 6.5.4 6.5 3.2V69s-7.1 5.4-8 10.3c0 0 21.6-17.1 63.8.5l-3.4-7.1s7.7-17.2-8.2-26.9c0 0 5.8 12.8-7.1 18.7-12.8 5.9-20 .8-20 .8V44.2s8.9-.1 8.3 5c0 0 15.7-3 23.6-11 0 0-11.9 4.8-17.6-.3s-2.3-9.1-2.3-9.1-5.9 4.4-12 13.5V24.6s15-2.2 18.5-1.7c0 0 5.2 14.1 21.3 14.7 0 0-11.5-7.1-4.4-22.9 0 0-14 3.9-22.6 2.8l-3.1-4s-3.4 4.5-4.4 4.5c-1.1-.1-16.6.4-28.1-3.6zM314.2 77.1c30.1-4.9 27.4-36.5 27.4-36.5-23.2 17.4-41.7-2.8-41.7-2.8-4.2 22.1 13.5 29.2 13.5 29.2-3.6-4.5-3-13.5-3-13.5 5.5 1.9 16.4 1.8 16.4 1.8-8.2 24.3-29.9 14.8-31.4-7.9-1.5-22.8 11-30.4 23.2-25s4 23.2 4 23.2c14.9-7.2 16.6-23.7 16.6-23.7l1.9-4s-10.8 1.5-11.8 1.2-9.5-8.1-26.4-4.5C286 18 281.2 32.5 280.1 36l-7.8 3.7s6.5 1.2 6.5 4.3-1.7 26.5 27.8 32.6l3 3.4 4.2-3.1.4.2zM115.1 33.3c-7.5-.2-20.3 0-20.3 0s5.4 2.7 5.4 3.6v16.6h-2l-5.6-9s3.2-1.7 3.4-4.7-.9-5.8-9.6-6.4H63.7s5.4 2.4 5.4 3.4v15.9s-2.2 2.7-5.4 2.9h20s-4.6-1.2-4.6-3.6V39.4s0-1.8 2-2 4.7.2 4.2 2.3-4.2 3.5-4.2 3.5l7.3 12.4h28.2s8.6-3.1 9.9-9c1.4-6-3.9-13-11.4-13.3zm2.4 13.5c-.8 4.2-7.6 6.5-7.6 6.5v-1V37c7.2.9 8.4 5.6 7.6 9.8zM38.6 5.7s-3.8 6.6-24.1 8.1c0 0 2.6 1.5 2.6 3.1v13.4s.1 4.3-3 5c0 0 14.4-5.8 18.3-6V15.8l6.2 3.5v8.3.4 1.2s-1.4 4.3-8 7c-6.5 2.6-17.2 3.2-20.1 1.5 0 0 6.3 4.4 17.2 4.8 0 0-4.6 1.3-8.8 5.8 0 0 6.3-2.5 11.5-1 5.2 1.4 8.2 3.2 8.2 3.8v21.3L32.5 74V50.6s-13.2 6.6-24.8 7.8l9.5.4v16.5l-4.5 2.5s15.5-.2 26 7.4c0 0 9-8 23.3-9.9 0 0-7.2-1.7-7.2-2.7V51l3.7-3.6s-6.2-1.6-10.1-3.6c-4.7-2.4-9.8-3-9.8-3s14.6-6.9 18.6-7.8c0 0-2.5-.5-2.5-1.2V20s.4-3.5 4.7-3.7c0 .2-21.1-4.4-20.8-10.6z" fill="#fc12cb"/>
	<path d="M200.1 42.1l-5.2-2.3s-2.8-29.3-33-27.5c-30.3 1.8-28.6.8-34.4-1.5 3.4 6.2 7.3 8.6 7.3 8.6v22.5l-5.2 2.5s5.1 1.5 5.2 3.9c.2 2.3 0 20.1 0 20.1s-6.4 5-6 10.2c0 0 8.2-9.5 21.2-5.9s26.2 6.5 35.9-3.5 9.4-24.5 9.4-24.5l4.8-2.6zM167.2 69c-10.3-1.5-7.7-15.3-7.7-15.3-4.9 1.1-8.1 5.2-8.1 5.2v-39c11.3.6 20.1 4.1 25.4 15.2 5.2 11 .7 35.4-9.6 33.9zm175.9-55.9s7.7 2.3 7.7 7.4v18.6s-5 3-5.8 4.2c0 0 5.8-.7 5.8 2.3v22.1 1.2l-4.5 4.1h27.4s-5.8-3-5.8-4.8v-25-16.3s-.7-6 8-8.3c8.7-2.2 16.2 3.7 15 9.8s-7.9 9.1-14.3 8.5-5-6.7-5-6.7-3.7 3.9 2.7 15.2 14.8 26.6 14.1 29.3c0 0 3.9-1.9 3.9-4.6 0 0 19.1 7.9 14.3 16.3 0 0 6.6-5.5-1.4-17.7-7.9-12.2-12.5-24.5-12.5-24.5l-5-1.6S406 45 409.9 30.7s-14.3-17.2-22-17.7c-4.8-.3-31.6 3.9-35.5-11.6 0 0-2.1 7.6 4 12 0 0-6.5-1-13.3-.3zm-138.4.4s5.5 4.9 5.7 6.2c.2 1.2 0 18.7 0 18.7s-5.7 4.1-6.4 4.4c0 0 6.4.4 6.4 3.2v22.1s-7 5.4-7.9 10.3c0 0 21.3-17.1 62.9.4l-3.4-7.1s7.6-17.2-8.1-26.9c0 0 5.7 12.8-7 18.7s-19.7.8-19.7.8v-21s8.8-.1 8.2 5c0 0 15.5-3 23.2-11 0 0-11.7 4.8-17.4-.3s-2.3-9.1-2.3-9.1-5.8 4.4-11.8 13.5V23.7s14.8-2.2 18.2-1.7c0 0 5.1 14.1 21 14.7 0 0-11.3-7.1-4.3-22.9 0 0-13.8 3.9-22.3 2.8l-3-4s-3.4 4.5-4.3 4.5c-1.1 0-16.4.4-27.7-3.6zm212.6.3s5.7 5 5.9 6.2c.2 1.3 0 18.9 0 18.9s-5.9 4.1-6.7 4.4c0 0 6.7.4 6.7 3.2v22.3s-7.2 5.4-8.2 10.4c0 0 22.1-17.2 65.2.5l-3.5-7.2s7.8-17.4-8.4-27.1c0 0 5.9 12.9-7.3 18.9-13.1 6-20.5.8-20.5.8V43.8s9.1-.1 8.5 5c0 0 16.1-3 24.1-11.1 0 0-12.2 4.8-18-.3-5.9-5.1-2.4-9.1-2.4-9.1s-6.1 4.4-12.2 13.6V24s15.4-2.2 18.9-1.7c0 0 5.3 14.2 21.7 14.8 0 0-11.8-7.2-4.5-23.1 0 0-14.3 3.9-23.1 2.8l-3.1-4s-3.5 4.5-4.5 4.5c-1 .1-16.8.5-28.6-3.5zm71.7-.3s5.6 4.9 5.7 6.2c.2 1.2 0 18.7 0 18.7s-5.8 4.1-6.5 4.4c0 0 6.5.4 6.5 3.2v22.1s-7.1 5.4-8 10.3c0 0 21.6-17.1 63.8.5l-3.4-7.1s7.7-17.2-8.2-26.9c0 0 5.8 12.8-7.1 18.7-12.8 5.9-20 .8-20 .8V43.3s8.9-.1 8.3 5c0 0 15.7-3 23.6-11 0 0-11.9 4.8-17.6-.3s-2.3-9.1-2.3-9.1-5.9 4.4-12 13.5V23.7s15-2.2 18.5-1.7c0 0 5.2 14.1 21.3 14.7 0 0-11.5-7.1-4.4-22.9 0 0-14 3.9-22.6 2.8l-3.1-4s-3.4 4.5-4.4 4.5c-1.1 0-16.6.4-28.1-3.6zM312.5 76.3c30.1-4.9 27.4-36.5 27.4-36.5-23.2 17.4-41.7-2.8-41.7-2.8-4.2 22.2 13.5 29.2 13.5 29.2-3.6-4.5-3-13.5-3-13.5 5.5 1.9 16.4 1.8 16.4 1.8-8.2 24.3-29.9 14.8-31.4-7.9-1.5-22.8 11-30.4 23.2-25s4 23.2 4 23.2c14.9-7.2 16.6-23.7 16.6-23.7l1.9-4s-10.8 1.5-11.8 1.2-9.5-8.1-26.4-4.5c-16.8 3.5-21.6 18-22.8 21.5l-7.8 3.7s6.5 1.2 6.5 4.3-1.7 26.5 27.8 32.6l3 3.4 4.2-3.1.4.1zM113.4 32.5c-7.5-.2-20.3 0-20.3 0s5.4 2.7 5.4 3.6v16.6h-2l-5.6-9s3.2-1.7 3.4-4.7-.9-5.8-9.6-6.4H62s5.4 2.4 5.4 3.4v15.9s-2.2 2.7-5.4 2.9h20s-4.6-1.2-4.6-3.6V38.6s0-1.8 2-2 4.7.2 4.2 2.3-4.2 3.5-4.2 3.5l7.3 12.4H115s8.6-3.1 9.9-9c1.3-6-4-13.1-11.5-13.3zm2.3 13.5c-.8 4.2-7.6 6.5-7.6 6.5v-1-15.3c7.3.9 8.5 5.6 7.6 9.8zM36.9 4.8s-3.8 6.6-24.1 8.1c0 0 2.6 1.5 2.6 3.1v13.4s.1 4.3-3 5c0 0 14.4-5.8 18.3-6V14.9l6.2 3.5v8.3.5 1.2s-1.4 4.3-8 7c-6.5 2.6-17.2 3.2-20.1 1.5 0 0 6.3 4.4 17.2 4.8 0 0-4.6 1.3-8.8 5.8 0 0 6.3-2.5 11.5-1 5.2 1.4 8.2 3.2 8.2 3.8v21.3l-6.2 1.7V49.8s-13.2 6.6-24.8 7.8l9.5.4v16.5L11 77s15.5-.2 26 7.4c0 0 9-8 23.3-9.9 0 0-7.2-1.7-7.2-2.7V50.2l3.7-3.6S50.6 45 46.7 43c-4.7-2.4-9.8-3-9.8-3s14.6-6.9 18.6-7.8c0 0-2.5-.5-2.5-1.2V19.2s.4-3.5 4.7-3.7c0 .1-21.1-4.5-20.8-10.7z" fill="#fff"/>
</svg>