<svg width="251" height="39" fill="none" xmlns="http://www.w3.org/2000/svg"><path d="M.04 1.56h29.98v6.87H19.05v29h-8.1v-29H.05V1.56z" fill="#fff"/><path d="M192.54 39a19.5 19.5 0 100-39 19.5 19.5 0 000 39z" fill="#66C"/><path d="M192.54 31a11.5 11.5 0 100-23 11.5 11.5 0 000 23z" fill="#1A1A1A"/><path d="M186 16.24a4.2 4.2 0 100-8.4 4.2 4.2 0 000 8.4zM123.62 1.5H132l-10.19 36h-8.38l-7.56-25.97-7.66 25.97h-8.33l-10.14-36h8.74l5.82 25.46 7.77-25.46h7.97l7.86 25.46 5.72-25.46zm-50.49 36h8.38l-10.19-36h-8.38l-7.56 25.97L47.72 1.5h-8.33l-10.14 36h8.74l5.82-25.46 7.76 25.46h7.98l7.86-25.46 5.72 25.46zM214.27 1.56h8.71l9.79 27.06 9.84-27.06h8.35l-14.25 35.88h-8.35l-14.1-35.88zm-61.23 18.86c2.3 0 4.05-.52 5.26-1.56s1.82-2.57 1.82-4.59c0-1.98-.6-3.47-1.82-4.48-1.22-1-2.97-1.51-5.26-1.51h-6.7v12.14h6.7zm.41-18.86c4.58 0 8.12 1.09 10.61 3.26 2.5 2.17 3.74 5.23 3.74 9.2 0 4.16-1.25 7.4-3.76 9.7-2.51 2.31-6.04 3.47-10.59 3.47h-7.12v10.25h-8.1V1.56h15.22z" fill="#fff"/></svg>