<svg xmlns="http://www.w3.org/2000/svg" viewBox="0 0 253.17 54.56"><defs><style>.cls-1{fill:#fff;}</style></defs><title>logo-czech-sexcasting</title><g id="Layer_2" data-name="Layer 2"><g id="Layer_1-2" data-name="Layer 1"><path class="cls-1" d="M3.81,12a6.22,6.22,0,0,0,2.42.49A6.36,6.36,0,0,0,8.67,12a7.07,7.07,0,0,0,1-.54V8.79a5.53,5.53,0,0,1-.42.47,4.28,4.28,0,1,1-6-6,4.28,4.28,0,0,1,5.73-.3V.6L8.67.49A6.06,6.06,0,0,0,6.23,0,5.93,5.93,0,0,0,3.81.49a5.88,5.88,0,0,0-2,1.33,6.37,6.37,0,0,0-1.34,2A6.36,6.36,0,0,0,0,6.23,6.28,6.28,0,0,0,3.81,12Z"/><polygon class="cls-1" points="12.17 0 12.17 1.95 17.18 1.95 10.78 12.46 20.49 12.46 20.49 10.52 14.26 10.52 20.66 0 12.17 0"/><polygon class="cls-1" points="30.55 12.46 30.55 10.7 25.02 10.7 25.02 6.84 29.57 6.84 29.57 5.07 25.02 5.07 25.02 1.75 30.55 1.75 30.55 0 25 0 23.07 0 23.07 12.46 25 12.46 30.55 12.46"/><path class="cls-1" d="M33.57,10.63A6.17,6.17,0,0,0,38,12.46,6.35,6.35,0,0,0,40.4,12a7.21,7.21,0,0,0,1-.54V8.79a5.59,5.59,0,0,1-.42.47,4.28,4.28,0,1,1-6-6,4.28,4.28,0,0,1,5.73-.3V.6L40.4.49A6.05,6.05,0,0,0,38,0a6.24,6.24,0,0,0-4.4,1.81,6.37,6.37,0,0,0-1.34,2,6.36,6.36,0,0,0-.49,2.44,6.17,6.17,0,0,0,1.83,4.4Z"/><polygon class="cls-1" points="45.24 7.09 50.21 7.09 50.21 12.46 52.16 12.46 52.16 0 50.21 0 50.21 5.33 45.24 5.33 45.24 0 43.29 0 43.29 12.46 45.24 12.46 45.24 7.09"/><path class="cls-1" d="M16.17,36.33c-.67-.63-1.59-1.51-2.35-2.27l-5.2-5c-1.3-1.26-1.34-2.22-1.18-2.81a2.86,2.86,0,0,1,2.27-1.8,4.15,4.15,0,0,1,4.11,1.76l3.82-3.06A10.5,10.5,0,0,0,13.4,20a8.29,8.29,0,0,0-4.62-.33A8.11,8.11,0,0,0,5,21.43a7.11,7.11,0,0,0-2.31,3.48,6.66,6.66,0,0,0,.08,3.95A8.89,8.89,0,0,0,5.21,32.6L9,36.21c.17.17,2.43,2.39,3.82,3.69.88.84,1.85,2.1,1.43,3.53A4.12,4.12,0,0,1,11,46a4.79,4.79,0,0,1-2.85-.25,7,7,0,0,1-3.06-2.44l-3.86,3a12.31,12.31,0,0,0,5.16,4,10.1,10.1,0,0,0,3.69.67A9.56,9.56,0,0,0,12,50.86a9,9,0,0,0,7-6.09,7.37,7.37,0,0,0-.08-4.36A9.32,9.32,0,0,0,16.17,36.33Z"/><polygon class="cls-1" points="22.97 19.88 22.97 51.02 27.8 51.02 41.65 51.02 41.65 46.62 27.84 46.62 27.84 36.96 39.21 36.96 39.21 32.55 27.84 32.55 27.84 24.25 41.65 24.25 41.65 19.88 27.8 19.88 22.97 19.88"/><polygon class="cls-1" points="71.54 19.88 65.41 19.88 58.57 29.87 51.77 19.88 45.64 19.88 55.5 34.36 44.17 51.02 50.3 51.02 58.57 38.85 66.88 51.02 73 51.02 61.63 34.36 71.54 19.88"/><path class="cls-1" d="M88,46.15A10.68,10.68,0,0,1,80.4,27.9a10.69,10.69,0,0,1,14.31-.76V21.39L94,21.1A15.16,15.16,0,0,0,88,19.88a15.59,15.59,0,0,0-11,4.53,15.39,15.39,0,0,0-4.58,11A15.56,15.56,0,0,0,88,51,15.91,15.91,0,0,0,94,49.81a18,18,0,0,0,2.52-1.34V41.83a14,14,0,0,1-1,1.18A10.64,10.64,0,0,1,88,46.15Z"/><path class="cls-1" d="M98.49,51h5.37l2.64-6.67h11.08L120.23,51h5.33L112,18.45Zm9.78-11L112,30.5,115.83,40Z"/><path class="cls-1" d="M141.9,36.33c-.67-.63-1.59-1.51-2.35-2.27l-5.2-5c-1.3-1.26-1.34-2.22-1.18-2.81a2.86,2.86,0,0,1,2.27-1.8,4.15,4.15,0,0,1,4.11,1.76l3.82-3.06A10.5,10.5,0,0,0,139.13,20a8.29,8.29,0,0,0-4.62-.33,8.11,8.11,0,0,0-3.74,1.76,7.1,7.1,0,0,0-2.31,3.48,6.65,6.65,0,0,0,.08,3.95,8.89,8.89,0,0,0,2.39,3.74l3.82,3.61c.17.17,2.43,2.39,3.82,3.69.88.84,1.85,2.1,1.43,3.53a4.12,4.12,0,0,1-3.27,2.6,4.79,4.79,0,0,1-2.85-.25,7,7,0,0,1-3.06-2.44l-3.86,3a12.31,12.31,0,0,0,5.16,4,10.1,10.1,0,0,0,3.69.67,9.57,9.57,0,0,0,1.89-.17,9,9,0,0,0,7-6.09,7.37,7.37,0,0,0-.08-4.36A9.32,9.32,0,0,0,141.9,36.33Z"/><polygon class="cls-1" points="146.31 24.25 154.87 24.25 154.87 51.02 159.78 51.02 159.78 24.25 168.34 24.25 168.34 19.88 146.31 19.88 146.31 24.25"/><rect class="cls-1" x="171.79" y="19.88" width="4.87" height="31.14"/><polygon class="cls-1" points="201.63 39.86 182.07 18.41 182.07 51.02 186.94 51.02 186.94 31 206.54 52.45 206.54 19.88 201.63 19.88 201.63 39.86"/><path class="cls-1" d="M225.31,39.27h5.88V45h0a8.64,8.64,0,0,1-1.72.67.15.15,0,0,1-.08,0,.25.25,0,0,0-.17,0,.15.15,0,0,0-.13,0h-.13a.25.25,0,0,1-.17,0s0,0-.08,0c-.29,0-.63.13-.92.17h-.25s-.08,0-.08,0h-.63a.15.15,0,0,1-.13,0h-.29a10.72,10.72,0,0,1-10.28-7.81A11,11,0,0,1,215.7,36a2.59,2.59,0,0,1,0-.55,2.77,2.77,0,0,1,0-.59V34.4c0-.42.13-.84.21-1.26,0,0,0,0,0-.08a10.05,10.05,0,0,1,1.3-3.19.31.31,0,0,1,.08-.17l.25-.38.08-.08a8.79,8.79,0,0,1,.55-.76,0,0,0,0,0,0,0,6.57,6.57,0,0,1,.55-.55,9.07,9.07,0,0,1,1.85-1.51.92.92,0,0,0,.21-.13,10.43,10.43,0,0,1,5.5-1.51H227s.08,0,.13,0h.38a.25.25,0,0,0,.17,0h.08s.13,0,.17,0H228c.17,0,.38,0,.55.08a.13.13,0,0,0,.08,0c.08,0,.13,0,.17,0H229a.15.15,0,0,0,.13,0,11.88,11.88,0,0,1,1.93.71,10,10,0,0,1,2.1,1.34V21.39h0l-.25-.13a0,0,0,0,1,0,0,15.31,15.31,0,0,0-5.25-1.3,1.19,1.19,0,0,0-.38,0h-.8a15.59,15.59,0,0,0-11,4.53,15.92,15.92,0,0,0-3.36,5,16.46,16.46,0,0,0-1.22,5.29v.8c0,.5,0,1,.08,1.55A15,15,0,0,0,212,41.5a15.44,15.44,0,0,0,3.36,5,13.74,13.74,0,0,0,3.44,2.6,8.45,8.45,0,0,0,1.51.76l.63.25c.17,0,.29.13.46.17h0a14.88,14.88,0,0,0,4.91.8h.8a15.8,15.8,0,0,0,5.58-1.34l0,0,.29-.13a.92.92,0,0,0,.21-.13h.08l.08-.08a.32.32,0,0,0,.21-.08s.08,0,.13-.08l.21-.08s.08,0,.13-.08.08,0,.13-.08a.58.58,0,0,0,.17-.13.22.22,0,0,0,.17-.08s.08,0,.13-.08a.32.32,0,0,0,.17-.08s0,0,.08,0l1.09-.76V34.86H225.31Z"/><path class="cls-1" d="M252.16,47.25a5.49,5.49,0,0,0-.42-2.1,6.31,6.31,0,0,0-.46-.87H249a4.8,4.8,0,0,1,.41.36,3.69,3.69,0,1,1-5.22,5.22,3.69,3.69,0,0,1-.26-4.94h-2l-.1.23a5.24,5.24,0,0,0-.42,2.1A5.38,5.38,0,0,0,243,51a5.31,5.31,0,0,0,3.81,1.58,5.37,5.37,0,0,0,5.37-5.37Z"/><path class="cls-1" d="M248.87,32.73a5.37,5.37,0,0,0-2.09-.42,5.5,5.5,0,0,0-2.1.42,5.3,5.3,0,0,0-2.85,2.85,5.5,5.5,0,0,0-.42,2.1,5.37,5.37,0,0,0,.42,2.09A5.3,5.3,0,0,0,243,41.48a5.67,5.67,0,0,0,1.71,1.16,5.5,5.5,0,0,0,2.1.42,5.37,5.37,0,0,0,5.37-5.37,5.49,5.49,0,0,0-.42-2.1,5.66,5.66,0,0,0-1.16-1.71A5.3,5.3,0,0,0,248.87,32.73Zm.52,7.56a3.67,3.67,0,1,1,1.09-2.61A3.67,3.67,0,0,1,249.39,40.3Z"/><polygon class="cls-1" points="252.16 30.41 252.16 28.73 246.45 28.73 251.46 25.36 246.45 22 252.16 22 252.16 20.3 240.91 20.3 248.45 25.36 240.91 30.41 252.16 30.41"/><path class="cls-1" d="M252.16,52.53a1,1,0,1,0,0,2,1,1,0,0,0,0-2Z"/></g></g></svg>