<?xml version="1.0" encoding="UTF-8" standalone="no"?>
<!DOCTYPE svg PUBLIC "-//W3C//DTD SVG 1.1//EN" "http://www.w3.org/Graphics/SVG/1.1/DTD/svg11.dtd">
<svg width="100%" height="100%" viewBox="0 0 392 47" version="1.1" xmlns="http://www.w3.org/2000/svg" xmlns:xlink="http://www.w3.org/1999/xlink" xml:space="preserve" xmlns:serif="http://www.serif.com/" style="fill-rule:evenodd;clip-rule:evenodd;stroke-linejoin:round;stroke-miterlimit:2;">
    <g transform="matrix(1,0,0,1,-1361.8,-871.587)">
        <g transform="matrix(1,0,0,1,1244,355)">
            <g transform="matrix(1,0,0,1,-646.5,158.587)">
                <g transform="matrix(1.70074e-14,46.3049,46.3049,-1.70074e-14,787.604,358.754)">
                    <ellipse cx="0.5" cy="0" rx="0.495" ry="0.503" style="fill:url(#_Linear1);"/>
                </g>
                <g transform="matrix(0.598394,0,0,0.598394,780.275,382.83)">
                    <path d="M0,-4.751C0.6,-5.026 1.11,-5.32 1.53,-5.634C1.948,-5.946 2.296,-6.29 2.571,-6.667C2.847,-7.042 3.047,-7.461 3.173,-7.924C3.297,-8.386 3.36,-8.907 3.36,-9.482C3.36,-10.108 3.27,-10.663 3.088,-11.145C2.906,-11.626 2.668,-12.034 2.374,-12.365C2.081,-12.697 1.752,-12.947 1.388,-13.116C1.026,-13.285 0.67,-13.37 0.318,-13.37C-0.369,-13.37 -0.926,-13.27 -1.352,-13.069C-1.778,-12.868 -2.113,-12.605 -2.357,-12.28C-2.602,-11.955 -2.767,-11.583 -2.856,-11.163C-2.943,-10.744 -2.986,-10.315 -2.986,-9.877C-2.986,-9.389 -2.888,-8.91 -2.686,-8.44C-2.486,-7.971 -2.235,-7.517 -1.935,-7.078C-1.634,-6.641 -1.312,-6.228 -0.968,-5.839C-0.624,-5.452 -0.302,-5.088 0,-4.751M4.431,5.088C3.303,3.887 2.209,2.72 1.146,1.587C0.081,0.455 -0.99,-0.714 -2.067,-1.915C-2.968,-1.164 -3.603,-0.344 -3.972,0.544C-4.341,1.434 -4.526,2.347 -4.526,3.286C-4.526,3.9 -4.454,4.46 -4.311,4.966C-4.167,5.474 -3.937,5.905 -3.624,6.263C-3.313,6.62 -2.918,6.898 -2.442,7.099C-1.967,7.298 -1.396,7.399 -0.733,7.399C0.167,7.399 1.106,7.21 2.084,6.835C3.047,6.46 3.841,5.99 4.469,5.427C4.567,5.328 4.556,5.215 4.431,5.088M0.844,-3.642C1.857,-2.578 2.86,-1.539 3.848,-0.526C4.836,0.488 5.864,1.527 6.929,2.591C7.854,1.415 8.677,0.382 9.397,-0.506C10.116,-1.396 10.789,-2.141 11.415,-2.742C12.042,-3.342 12.646,-3.795 13.228,-4.103C13.811,-4.409 14.426,-4.563 15.078,-4.563C15.867,-4.563 16.467,-4.372 16.88,-3.99C17.293,-3.608 17.5,-3.148 17.5,-2.609C17.5,-2.159 17.368,-1.758 17.105,-1.409C16.867,-1.057 16.386,-0.883 15.659,-0.883C15.398,-0.883 15.177,-0.911 15.003,-0.966C14.826,-1.022 14.692,-1.095 14.599,-1.183C14.504,-1.27 14.439,-1.364 14.402,-1.465C14.364,-1.565 14.345,-1.653 14.345,-1.728C14.345,-2.203 14.101,-2.442 13.613,-2.442C13.337,-2.442 13.059,-2.354 12.778,-2.178C12.495,-2.002 12.151,-1.689 11.745,-1.239C11.336,-0.789 10.83,-0.178 10.224,0.591C9.616,1.361 8.85,2.335 7.923,3.512C8.311,3.875 8.75,4.278 9.237,4.722C9.726,5.168 10.231,5.59 10.759,5.99C11.285,6.391 11.809,6.725 12.335,6.995C12.863,7.264 13.356,7.399 13.818,7.399C14.707,7.399 15.371,7.186 15.81,6.76C16.249,6.334 16.554,5.752 16.729,5.013C16.755,4.913 16.817,4.835 16.917,4.779C17.016,4.722 17.13,4.695 17.255,4.695C17.406,4.695 17.543,4.735 17.669,4.817C17.794,4.897 17.843,5.026 17.819,5.202C17.756,5.777 17.599,6.353 17.349,6.929C17.099,7.504 16.762,8.021 16.335,8.478C15.91,8.934 15.406,9.305 14.823,9.586C14.242,9.868 13.594,10.008 12.879,10.008C12.116,10.008 11.404,9.907 10.741,9.708C10.076,9.508 9.446,9.238 8.852,8.9C8.257,8.563 7.692,8.168 7.153,7.717C6.614,7.267 6.101,6.798 5.614,6.31C5.513,6.234 5.426,6.234 5.351,6.31C4.25,7.587 3.104,8.522 1.914,9.116C0.725,9.712 -0.59,10.008 -2.029,10.008C-2.93,10.008 -3.784,9.889 -4.593,9.652C-5.399,9.415 -6.108,9.06 -6.717,8.591C-7.328,8.121 -7.812,7.535 -8.173,6.835C-8.533,6.133 -8.714,5.32 -8.714,4.394C-8.714,3.354 -8.564,2.46 -8.267,1.709C-7.969,0.957 -7.558,0.3 -7.036,-0.262C-6.514,-0.826 -5.906,-1.318 -5.211,-1.736C-4.517,-2.156 -3.774,-2.56 -2.986,-2.948C-3.4,-3.386 -3.8,-3.818 -4.188,-4.244C-4.576,-4.67 -4.921,-5.124 -5.221,-5.605C-5.521,-6.086 -5.762,-6.62 -5.943,-7.2C-6.126,-7.782 -6.216,-8.456 -6.216,-9.22C-6.216,-9.857 -6.091,-10.507 -5.841,-11.163C-5.59,-11.82 -5.199,-12.415 -4.667,-12.947C-4.136,-13.479 -3.456,-13.915 -2.629,-14.252C-1.803,-14.59 -0.808,-14.759 0.355,-14.759C1.082,-14.759 1.812,-14.666 2.543,-14.478C3.276,-14.289 3.938,-13.991 4.535,-13.586C5.127,-13.179 5.61,-12.649 5.979,-11.999C6.35,-11.347 6.534,-10.559 6.534,-9.633C6.534,-8.856 6.35,-8.165 5.979,-7.559C5.61,-6.951 5.146,-6.407 4.582,-5.923C4.018,-5.442 3.401,-5.013 2.731,-4.639C2.062,-4.263 1.431,-3.931 0.844,-3.642" style="fill:white;fill-rule:nonzero;"/>
                </g>
                <g transform="matrix(0.598394,0,0,0.598394,770.096,388.226)">
                    <path d="M0,-22.976L0,-23.919L7.084,-23.919L7.084,-7.021C7.084,-4.657 6.44,-2.74 5.149,-1.267C3.862,0.207 2.176,0.943 0.097,0.943L-0.229,0.943C-1.961,0.943 -3.555,0.325 -5.005,-0.909L-5.005,-2.243C-3.641,-0.748 -2.005,0 -0.098,0C1.808,0 3.304,-0.644 4.386,-1.934C5.47,-3.222 6.012,-4.874 6.012,-6.89L6.012,-22.976L0,-22.976Z" style="fill:white;fill-rule:nonzero;"/>
                </g>
                <g transform="matrix(0.598394,0,0,0.598394,806.537,388.676)">
                    <path d="M0,-24.655L0,-0.452L-1.065,-0.452L-1.065,-23.396L-12.489,0L-23.848,-23.396L-23.848,-0.452L-24.815,-0.452L-24.815,-24.655L-23.267,-24.655L-12.392,-2.324L-1.483,-24.655L0,-24.655Z" style="fill:white;fill-rule:nonzero;"/>
                </g>
                <g transform="matrix(32.9789,0,0,-32.9789,949.766,377.685)">
                    <path d="M0.229,0.448C0.198,0.435 0.173,0.418 0.152,0.398C0.132,0.378 0.118,0.356 0.108,0.331C0.099,0.306 0.094,0.282 0.094,0.258C0.094,0.229 0.098,0.204 0.104,0.182C0.111,0.16 0.12,0.14 0.132,0.122C0.143,0.104 0.156,0.086 0.171,0.07C0.185,0.054 0.2,0.038 0.216,0.022C0.186,0.007 0.158,-0.008 0.132,-0.024C0.106,-0.04 0.083,-0.058 0.063,-0.08C0.044,-0.101 0.028,-0.126 0.017,-0.154C0.006,-0.182 0,-0.216 0,-0.255C0,-0.29 0.007,-0.321 0.02,-0.347C0.034,-0.373 0.052,-0.396 0.075,-0.413C0.098,-0.431 0.125,-0.444 0.155,-0.453C0.186,-0.462 0.218,-0.467 0.252,-0.467C0.306,-0.467 0.356,-0.455 0.4,-0.433C0.445,-0.411 0.488,-0.375 0.53,-0.327C0.533,-0.324 0.536,-0.324 0.54,-0.327C0.558,-0.346 0.578,-0.363 0.598,-0.38C0.618,-0.397 0.64,-0.412 0.662,-0.425C0.684,-0.438 0.708,-0.448 0.733,-0.455C0.758,-0.463 0.785,-0.467 0.814,-0.467C0.841,-0.467 0.865,-0.461 0.887,-0.451C0.909,-0.44 0.928,-0.426 0.944,-0.409C0.96,-0.392 0.973,-0.372 0.982,-0.351C0.992,-0.329 0.997,-0.307 1,-0.286C1.001,-0.279 0.999,-0.274 0.994,-0.271C0.989,-0.268 0.984,-0.266 0.979,-0.266C0.974,-0.266 0.97,-0.267 0.966,-0.27C0.962,-0.272 0.96,-0.275 0.959,-0.278C0.952,-0.306 0.941,-0.328 0.924,-0.344C0.908,-0.36 0.883,-0.368 0.849,-0.368C0.832,-0.368 0.813,-0.363 0.793,-0.353C0.773,-0.343 0.754,-0.33 0.734,-0.315C0.714,-0.3 0.695,-0.284 0.676,-0.267C0.658,-0.251 0.641,-0.235 0.627,-0.222C0.662,-0.177 0.691,-0.141 0.714,-0.112C0.736,-0.083 0.756,-0.06 0.771,-0.043C0.786,-0.026 0.799,-0.014 0.81,-0.007C0.82,-0.001 0.831,0.002 0.841,0.002C0.86,0.002 0.869,-0.006 0.869,-0.024C0.869,-0.027 0.87,-0.031 0.871,-0.034C0.872,-0.038 0.875,-0.042 0.878,-0.045C0.882,-0.048 0.887,-0.051 0.894,-0.053C0.9,-0.055 0.908,-0.056 0.918,-0.056C0.946,-0.056 0.964,-0.05 0.973,-0.036C0.983,-0.023 0.988,-0.008 0.988,0.009C0.988,0.029 0.98,0.046 0.964,0.061C0.949,0.075 0.926,0.082 0.896,0.082C0.872,0.082 0.849,0.077 0.827,0.065C0.805,0.054 0.782,0.036 0.759,0.014C0.735,-0.009 0.71,-0.037 0.682,-0.07C0.655,-0.104 0.624,-0.143 0.589,-0.187C0.549,-0.147 0.511,-0.108 0.473,-0.07C0.436,-0.031 0.398,0.008 0.36,0.048C0.382,0.059 0.406,0.071 0.431,0.085C0.456,0.099 0.48,0.116 0.501,0.134C0.522,0.152 0.54,0.172 0.554,0.195C0.568,0.218 0.575,0.244 0.575,0.273C0.575,0.308 0.568,0.338 0.554,0.363C0.54,0.387 0.522,0.407 0.499,0.422C0.477,0.438 0.452,0.449 0.424,0.456C0.397,0.463 0.369,0.467 0.342,0.467C0.298,0.467 0.26,0.46 0.229,0.448ZM0.292,0.131C0.279,0.145 0.267,0.161 0.255,0.177C0.244,0.194 0.235,0.211 0.227,0.229C0.22,0.246 0.216,0.264 0.216,0.283C0.216,0.299 0.217,0.315 0.221,0.331C0.224,0.347 0.23,0.361 0.239,0.373C0.249,0.386 0.261,0.395 0.277,0.403C0.293,0.411 0.314,0.414 0.34,0.414C0.354,0.414 0.367,0.411 0.381,0.405C0.394,0.398 0.407,0.389 0.418,0.376C0.429,0.364 0.438,0.349 0.445,0.33C0.452,0.312 0.455,0.291 0.455,0.268C0.455,0.246 0.453,0.227 0.448,0.209C0.443,0.192 0.436,0.176 0.425,0.162C0.415,0.148 0.402,0.135 0.386,0.123C0.37,0.111 0.351,0.1 0.328,0.09C0.317,0.102 0.305,0.116 0.292,0.131ZM0.236,-0.357C0.218,-0.349 0.203,-0.339 0.192,-0.325C0.18,-0.312 0.171,-0.296 0.166,-0.277C0.16,-0.258 0.158,-0.236 0.158,-0.213C0.158,-0.178 0.165,-0.144 0.179,-0.11C0.193,-0.077 0.216,-0.046 0.25,-0.017C0.291,-0.063 0.331,-0.107 0.371,-0.149C0.412,-0.192 0.453,-0.236 0.495,-0.281C0.5,-0.286 0.5,-0.29 0.497,-0.294C0.473,-0.315 0.443,-0.333 0.407,-0.347C0.37,-0.361 0.335,-0.368 0.301,-0.368C0.276,-0.368 0.254,-0.365 0.236,-0.357Z" style="fill:url(#_Linear2);fill-rule:nonzero;"/>
                </g>
                <g transform="matrix(0.598394,0,0,0.598394,828.609,393.582)">
                    <path d="M0,-47.721L0,-17.395C0,-13.772 -0.253,-11.07 -0.759,-9.289C-1.265,-7.265 -2.125,-5.555 -3.339,-4.158C-5.707,-1.386 -8.844,0 -12.75,0C-15.705,0 -18.467,-0.769 -21.037,-2.307L-17.577,-8.348C-15.857,-7.195 -14.248,-6.617 -12.75,-6.617C-10.646,-6.617 -9.188,-7.417 -8.378,-9.016C-7.528,-10.615 -7.104,-13.408 -7.104,-17.395L-7.104,-47.721L0,-47.721Z" style="fill:white;fill-rule:nonzero;"/>
                </g>
                <g transform="matrix(0.598394,0,0,0.598394,837.892,384.3)">
                    <path d="M0,-0.212C0,2.622 0.759,4.929 2.277,6.71C3.835,8.511 5.798,9.411 8.166,9.411C10.695,9.411 12.739,8.541 14.298,6.801C15.856,5 16.635,2.713 16.635,-0.06C16.635,-2.832 15.856,-5.119 14.298,-6.921C12.739,-8.682 10.716,-9.562 8.227,-9.562C5.879,-9.562 3.916,-8.671 2.337,-6.891C0.779,-5.089 0,-2.863 0,-0.212M16.21,-14.904L23.071,-14.904L23.071,14.663L16.21,14.663L16.21,11.566C13.397,14.198 10.372,15.513 7.134,15.513C3.045,15.513 -0.334,14.036 -3.005,11.081C-5.657,8.065 -6.982,4.302 -6.982,-0.212C-6.982,-4.644 -5.657,-8.337 -3.005,-11.292C-0.354,-14.247 2.964,-15.725 6.952,-15.725C10.392,-15.725 13.479,-14.308 16.21,-11.475L16.21,-14.904Z" style="fill:white;fill-rule:nonzero;"/>
                </g>
                <g transform="matrix(0.598394,0,0,0.598394,870.626,392.329)">
                    <path d="M0,-27.048L0,-17.971C-1.559,-19.873 -2.955,-21.178 -4.189,-21.887C-5.404,-22.615 -6.831,-22.98 -8.47,-22.98C-11.04,-22.98 -13.175,-22.079 -14.875,-20.278C-16.575,-18.477 -17.425,-16.22 -17.425,-13.509C-17.425,-10.736 -16.605,-8.459 -14.966,-6.678C-13.307,-4.897 -11.192,-4.007 -8.622,-4.007C-6.982,-4.007 -5.536,-4.361 -4.28,-5.069C-3.066,-5.757 -1.639,-7.093 0,-9.076L0,-0.061C-2.773,1.377 -5.545,2.095 -8.318,2.095C-12.892,2.095 -16.717,0.618 -19.793,-2.337C-22.869,-5.312 -24.407,-9.005 -24.407,-13.417C-24.407,-17.829 -22.849,-21.553 -19.732,-24.589C-16.616,-27.624 -12.791,-29.143 -8.257,-29.143C-5.343,-29.143 -2.591,-28.444 0,-27.048" style="fill:white;fill-rule:nonzero;"/>
                </g>
                <g transform="matrix(0.598394,0,0,0.598394,877.928,393.455)">
                    <path d="M0,-15.572C0,-12.718 0.769,-10.401 2.307,-8.62C3.845,-6.799 5.798,-5.888 8.166,-5.888C10.675,-5.888 12.709,-6.759 14.268,-8.499C15.846,-10.26 16.635,-12.547 16.635,-15.359C16.635,-18.132 15.856,-20.419 14.298,-22.22C12.739,-23.981 10.716,-24.861 8.227,-24.861C5.879,-24.861 3.916,-23.97 2.337,-22.19C0.779,-20.388 0,-18.182 0,-15.572M16.21,15.452L16.21,-3.945C13.498,-1.173 10.402,0.213 6.921,0.213C2.934,0.213 -0.375,-1.254 -3.005,-4.188C-5.657,-7.142 -6.982,-10.837 -6.982,-15.268C-6.982,-19.761 -5.657,-23.515 -3.005,-26.531C-0.334,-29.526 3.015,-31.024 7.042,-31.024C10.462,-31.024 13.519,-29.677 16.21,-26.986L16.21,-30.204L23.071,-30.204L23.071,15.452L16.21,15.452Z" style="fill:white;fill-rule:nonzero;"/>
                </g>
                <g transform="matrix(0.598394,0,0,0.598394,901.397,393.582)">
                    <path d="M0,-30.417L0,-13.447C0,-8.55 1.933,-6.102 5.799,-6.102C9.664,-6.102 11.597,-8.55 11.597,-13.447L11.597,-30.417L18.427,-30.417L18.427,-13.296C18.427,-10.928 18.134,-8.884 17.547,-7.164C16.979,-5.626 15.998,-4.239 14.602,-3.005C12.295,-1.001 9.36,0 5.799,0C2.257,0 -0.668,-1.001 -2.975,-3.005C-4.392,-4.239 -5.394,-5.626 -5.979,-7.164C-6.547,-8.54 -6.83,-10.584 -6.83,-13.296L-6.83,-30.417L0,-30.417Z" style="fill:white;fill-rule:nonzero;"/>
                </g>
                <g transform="matrix(0.598394,0,0,0.598394,649.1,7.49429)">
                    <path d="M455.503,644.357L448.673,644.357L448.673,614.79L455.503,614.79L455.503,644.357ZM447.641,602.495C447.641,601.302 448.076,600.269 448.946,599.398C449.816,598.529 450.858,598.094 452.073,598.094C453.308,598.094 454.359,598.529 455.23,599.398C456.1,600.249 456.535,601.291 456.535,602.525C456.535,603.761 456.1,604.812 455.23,605.682C454.38,606.553 453.338,606.988 452.104,606.988C450.868,606.988 449.816,606.553 448.946,605.682C448.076,604.812 447.641,603.75 447.641,602.495" style="fill:white;fill-rule:nonzero;"/>
                </g>
                <g transform="matrix(0.598394,0,0,0.598394,938.764,386.624)">
                    <path d="M0,-7.983C-0.951,-11.626 -3.248,-13.447 -6.891,-13.447C-7.721,-13.447 -8.5,-13.321 -9.229,-13.068C-9.957,-12.814 -10.62,-12.45 -11.217,-11.975C-11.813,-11.499 -12.324,-10.927 -12.75,-10.259C-13.175,-9.591 -13.499,-8.833 -13.721,-7.983L0,-7.983ZM7.013,-2.397L-14.177,-2.397C-13.994,0.032 -13.205,1.964 -11.809,3.401C-10.412,4.818 -8.621,5.526 -6.436,5.526C-4.735,5.526 -3.329,5.121 -2.216,4.312C-1.123,3.502 0.122,2.004 1.518,-0.181L7.286,3.037C6.396,4.554 5.454,5.855 4.463,6.938C3.471,8.021 2.408,8.911 1.275,9.609C0.142,10.307 -1.083,10.818 -2.398,11.142C-3.714,11.465 -5.141,11.627 -6.679,11.627C-11.091,11.627 -14.632,10.211 -17.304,7.377C-19.975,4.524 -21.311,0.74 -21.311,-3.976C-21.311,-8.651 -20.016,-12.435 -17.425,-15.33C-14.814,-18.183 -11.354,-19.61 -7.043,-19.61C-2.691,-19.61 0.749,-18.223 3.278,-15.451C5.788,-12.698 7.043,-8.883 7.043,-4.006L7.013,-2.397Z" style="fill:white;fill-rule:nonzero;"/>
                </g>
                <g transform="matrix(0.598394,0,0,0.598394,990.231,364.209)">
                    <path d="M0,48.238L9.866,-2.155L25.955,34.274L42.621,-2.155L51.485,48.238L44.23,48.238L39.707,19.945L25.834,50.393L12.355,19.915L7.316,48.238L0,48.238Z" style="fill:white;fill-rule:nonzero;"/>
                </g>
                <g transform="matrix(0.598394,0,0,0.598394,649.1,7.49429)">
                    <path d="M637.016,644.357L630.186,644.357L630.186,614.79L637.016,614.79L637.016,644.357ZM629.152,602.495C629.152,601.302 629.588,600.269 630.459,599.398C631.328,598.529 632.371,598.094 633.585,598.094C634.819,598.094 635.872,598.529 636.742,599.398C637.612,600.249 638.048,601.291 638.048,602.525C638.048,603.761 637.612,604.812 636.742,605.682C635.893,606.553 634.85,606.988 633.615,606.988C632.381,606.988 631.328,606.553 630.459,605.682C629.588,604.812 629.152,603.75 629.152,602.495" style="fill:white;fill-rule:nonzero;"/>
                </g>
                <g transform="matrix(0.598394,0,0,0.598394,1049.23,392.329)">
                    <path d="M0,-27.048L0,-17.971C-1.559,-19.873 -2.955,-21.178 -4.189,-21.887C-5.404,-22.615 -6.83,-22.98 -8.47,-22.98C-11.04,-22.98 -13.175,-22.079 -14.875,-20.278C-16.574,-18.477 -17.425,-16.22 -17.425,-13.509C-17.425,-10.736 -16.605,-8.459 -14.966,-6.678C-13.307,-4.897 -11.191,-4.007 -8.621,-4.007C-6.982,-4.007 -5.535,-4.361 -4.28,-5.069C-3.066,-5.757 -1.639,-7.093 0,-9.076L0,-0.061C-2.773,1.377 -5.545,2.095 -8.318,2.095C-12.892,2.095 -16.717,0.618 -19.793,-2.337C-22.869,-5.312 -24.407,-9.005 -24.407,-13.417C-24.407,-17.829 -22.849,-21.553 -19.732,-24.589C-16.615,-27.624 -12.791,-29.143 -8.258,-29.143C-5.343,-29.143 -2.591,-28.444 0,-27.048" style="fill:white;fill-rule:nonzero;"/>
                </g>
                <g transform="matrix(0.598394,0,0,0.598394,1054.16,393.074)">
                    <path d="M0,-51.272L6.83,-51.272L6.83,-27.108C9.259,-29.293 11.94,-30.387 14.875,-30.387C18.215,-30.387 20.886,-29.304 22.89,-27.138C24.589,-25.256 25.439,-22.251 25.439,-18.123L25.439,0L18.609,0L18.609,-17.485C18.609,-19.853 18.188,-21.568 17.35,-22.63C16.51,-23.693 15.158,-24.224 13.297,-24.224C10.908,-24.224 9.229,-23.485 8.258,-22.008C7.306,-20.51 6.83,-17.941 6.83,-14.297L6.83,0L0,0L0,-51.272Z" style="fill:white;fill-rule:nonzero;"/>
                </g>
                <g transform="matrix(0.598394,0,0,0.598394,1086.47,386.624)">
                    <path d="M0,-7.983C-0.951,-11.626 -3.248,-13.447 -6.891,-13.447C-7.721,-13.447 -8.5,-13.321 -9.229,-13.068C-9.957,-12.814 -10.62,-12.45 -11.217,-11.975C-11.813,-11.499 -12.324,-10.927 -12.75,-10.259C-13.175,-9.591 -13.499,-8.833 -13.721,-7.983L0,-7.983ZM7.013,-2.397L-14.177,-2.397C-13.994,0.032 -13.205,1.964 -11.809,3.401C-10.412,4.818 -8.621,5.526 -6.436,5.526C-4.735,5.526 -3.329,5.121 -2.216,4.312C-1.123,3.502 0.122,2.004 1.518,-0.181L7.286,3.037C6.396,4.554 5.454,5.855 4.463,6.938C3.471,8.021 2.408,8.911 1.275,9.609C0.142,10.307 -1.083,10.818 -2.398,11.142C-3.714,11.465 -5.141,11.627 -6.679,11.627C-11.091,11.627 -14.632,10.211 -17.304,7.377C-19.975,4.524 -21.311,0.74 -21.311,-3.976C-21.311,-8.651 -20.016,-12.435 -17.425,-15.33C-14.814,-18.183 -11.354,-19.61 -7.043,-19.61C-2.691,-19.61 0.749,-18.223 3.278,-15.451C5.788,-12.698 7.043,-8.883 7.043,-4.006L7.013,-2.397Z" style="fill:white;fill-rule:nonzero;"/>
                </g>
                <g transform="matrix(-0.598394,0,0,0.598394,1545.26,4.49694)">
                    <rect x="745.39" y="598.094" width="6.83" height="51.272" style="fill:white;"/>
                </g>
                <g transform="matrix(49.8939,0,0,-49.8939,1105.81,376.907)">
                    <path d="M0.845,0.379L0.627,-0.036L0.503,0.379L0.016,0.379L0,0.245L0.155,0.245L0.086,-0.314L0.227,-0.314L0.296,0.245L0.399,0.245L0.587,-0.379L1,0.379L0.845,0.379Z" style="fill:url(#_Linear3);fill-rule:nonzero;"/>
                </g>
            </g>
        </g>
    </g>
    <defs>
        <linearGradient id="_Linear1" x1="0" y1="0" x2="1" y2="0" gradientUnits="userSpaceOnUse" gradientTransform="matrix(0.635986,0.771701,0.771701,-0.635986,0.18201,-0.385856)"><stop offset="0" style="stop-color:rgb(181,35,130);stop-opacity:1"/><stop offset="0" style="stop-color:rgb(181,35,130);stop-opacity:1"/><stop offset="1" style="stop-color:rgb(143,17,102);stop-opacity:1"/></linearGradient>
        <linearGradient id="_Linear2" x1="0" y1="0" x2="1" y2="0" gradientUnits="userSpaceOnUse" gradientTransform="matrix(1,0,0,-1,0,1.94221e-05)"><stop offset="0" style="stop-color:rgb(181,35,130);stop-opacity:1"/><stop offset="0" style="stop-color:rgb(181,35,130);stop-opacity:1"/><stop offset="1" style="stop-color:rgb(143,17,102);stop-opacity:1"/></linearGradient>
        <linearGradient id="_Linear3" x1="0" y1="0" x2="1" y2="0" gradientUnits="userSpaceOnUse" gradientTransform="matrix(1,0,0,-1,0,-3.50205e-07)"><stop offset="0" style="stop-color:rgb(181,35,130);stop-opacity:1"/><stop offset="0" style="stop-color:rgb(181,35,130);stop-opacity:1"/><stop offset="1" style="stop-color:rgb(143,17,102);stop-opacity:1"/></linearGradient>
    </defs>
</svg>
