<svg xmlns="http://www.w3.org/2000/svg" width="349" height="44" fill-rule="evenodd" clip-rule="evenodd" image-rendering="optimizeQuality" shape-rendering="geometricPrecision" text-rendering="geometricPrecision" viewBox="0 0 29.01 3.66"><defs><style>.fil4{fill:#870058}.fil1{fill:#c93;fill-rule:nonzero}.fil0{fill:#f06}.fil0,.fil2,.fil5{fill-rule:nonzero}.fil2{fill:#f9f}.fil5{fill:#ffc}</style></defs><g id="Layer_x0020_1"><g id="_1232753216"><path d="M5.25.93h-.51v1.42h-.28V.93h-.5V.7h1.29z" class="fil0"/><path id="1" d="M6.41 1.61h-.67v.51h.78v.23H5.46V.7h1.05v.23h-.77v.46h.67z" class="fil0"/><path id="2" d="M7.7 1.61h-.67v.51h.78v.23H6.75V.7H7.8v.23h-.77v.46h.67z" class="fil0"/><path id="3" d="M9.32 2.35h-.28l-.72-1.17v1.17h-.28V.7h.28l.72 1.18V.7h.28z" class="fil0"/><path id="4" d="M10.92 1.75c0-.1-.04-.18-.1-.23-.08-.06-.2-.11-.39-.17a1.82 1.82 0 01-.44-.19c-.2-.13-.31-.3-.31-.52 0-.18.08-.34.23-.46a.9.9 0 01.58-.18c.16 0 .3.03.42.09a.7.7 0 01.3.25c.07.11.1.23.1.37h-.4a.36.36 0 00-.1-.29.509.509 0 00-.32-.1.48.48 0 00-.3.09.28.28 0 00-.11.23c0 .09.04.16.11.21.08.06.2.11.39.17.17.05.32.11.42.18.11.07.19.15.24.24.05.09.08.19.08.3 0 .2-.08.36-.22.47a.94.94 0 01-.6.17 1.1 1.1 0 01-.45-.1.77.77 0 01-.32-.25.65.65 0 01-.12-.38h.4c0 .13.04.23.13.3.08.08.2.11.36.11.14 0 .25-.03.31-.08.07-.06.1-.14.1-.23z" class="fil1"/><path id="5" d="M13.31.36h-.71v1.99h-.39V.36h-.71V.03h1.81z" class="fil1"/><path id="6" d="M16.59 1.46h-.45v.89h-.4V.03h.81c.26 0 .47.06.6.18.15.12.22.3.22.52 0 .16-.03.29-.1.4a.7.7 0 01-.32.23l.52.97v.02h-.43l-.45-.9zm-.45-.33h.41c.13 0 .24-.03.31-.1a.36.36 0 00.12-.28.39.39 0 00-.1-.29.509.509 0 00-.32-.1h-.42v.77z" class="fil1"/><path id="7" d="M18.94 1.75c0-.1-.03-.18-.1-.23-.07-.06-.2-.11-.38-.17a1.82 1.82 0 01-.44-.19c-.21-.13-.32-.3-.32-.52 0-.18.08-.34.23-.46a.9.9 0 01.58-.18c.16 0 .3.03.43.09a.7.7 0 01.3.25c.06.11.1.23.1.37h-.4a.36.36 0 00-.1-.29.54.54 0 00-.33-.1.48.48 0 00-.3.09.28.28 0 00-.1.23c0 .09.03.16.1.21.08.06.21.11.39.17.18.05.32.11.43.18.1.07.18.15.24.24.05.09.07.19.07.3 0 .2-.07.36-.22.47a.94.94 0 01-.6.17 1.1 1.1 0 01-.45-.1.77.77 0 01-.32-.25.65.65 0 01-.12-.38h.4c0 .13.04.23.13.3.09.08.2.11.37.11.14 0 .24-.03.3-.08a.27.27 0 00.11-.23z" class="fil1"/><path id="8" d="M14.89 1.81H14l-.18.54h-.41l.86-2.32h.35l.87 2.32h-.42l-.18-.54zm-.78-.33h.67l-.33-.96-.33.96z" class="fil1"/><path id="9" d="M20.91 1.57c0 .16-.02.3-.08.42a.63.63 0 01-.23.28c-.1.07-.22.1-.36.1a.64.64 0 01-.35-.1.65.65 0 01-.24-.28 1 1 0 01-.08-.41v-.1c0-.16.03-.3.08-.42a.63.63 0 01.24-.28c.1-.07.22-.1.35-.1a.63.63 0 01.59.38c.05.12.08.26.08.42v.09zm-.28-.09a.72.72 0 00-.1-.42.33.33 0 00-.29-.14.33.33 0 00-.28.14c-.07.1-.1.24-.11.41v.1c0 .18.03.32.1.42.07.1.17.15.3.15.12 0 .21-.05.28-.15.07-.1.1-.24.1-.42v-.09z" class="fil2"/><path id="10" d="M22.48 2.35h-.28l-.72-1.17v1.17h-.28V.7h.28l.72 1.18V.7h.28z" class="fil2"/><path id="11" d="M23.1 2.12h.73v.23h-1.02V.7h.29z" class="fil2"/><path id="12" d="M24.27 1.48l.37-.78h.31l-.54 1.04v.61h-.28v-.61L23.58.7h.31z" class="fil2"/><path fill="#ffc" d="M14.3.04l.31.86.91.02-.72.55.29.88-.79-.52-.82.52.33-.88-.72-.55L14 .9z"/><path d="M0 0h9.31v.34H0zm.38 1h2.98v.34H.38zm.48 1h2.98v.34H.86z" class="fil4"/><path d="M12.6 3.45c.04 0 .06.01.08.03a.1.1 0 01.03.07.1.1 0 01-.03.07.1.1 0 01-.08.03.1.1 0 01-.07-.03.1.1 0 01-.03-.07c0-.03 0-.05.02-.07.02-.02.05-.03.08-.03z" class="fil5"/><path id="1" d="M13.76 3.29a.39.39 0 01-.13.27.43.43 0 01-.3.1.4.4 0 01-.38-.23.62.62 0 01-.05-.27v-.1c0-.1.02-.2.05-.27a.4.4 0 01.16-.18.43.43 0 01.23-.06c.12 0 .22.03.29.1a.4.4 0 01.13.27h-.19c0-.08-.03-.14-.07-.17-.03-.04-.09-.05-.16-.05a.22.22 0 00-.19.09.45.45 0 00-.06.26v.1c0 .11.02.2.06.26.04.06.1.1.18.1.08 0 .13-.02.17-.06.04-.03.06-.08.07-.16h.19z" class="fil5"/><path id="2" d="M14.79 3.13c0 .1-.02.2-.06.28a.41.41 0 01-.39.25.42.42 0 01-.4-.25.66.66 0 01-.05-.27v-.07c0-.1.02-.2.06-.27a.42.42 0 01.39-.25.414.414 0 01.39.24c.04.08.06.17.06.28v.06zm-.2-.06a.47.47 0 00-.06-.27.22.22 0 00-.2-.1.22.22 0 00-.18.1.47.47 0 00-.07.27v.06c0 .12.02.21.07.28.04.06.1.1.19.1.08 0 .15-.04.2-.1a.48.48 0 00.06-.28v-.06z" class="fil5"/><path id="3" d="M15.22 2.56l.31.83.31-.83h.24v1.08h-.18v-.35l.02-.48-.32.83h-.14l-.32-.83.02.48v.35h-.19V2.56z" class="fil5"/><path d="M19.69 0H29v.34h-9.31zm5.95 1h2.98v.34h-2.98zm-.48 1h2.98v.34h-2.98z" class="fil4"/><path fill="#f06" d="M1.32 2.85h10.5v.81H1.7z"/><path fill="#f9f" d="M27.53 2.85H17.02v.81h10.13z"/></g></g></svg>