<?xml version="1.0" encoding="utf-8"?>
<!-- Generator: Adobe Illustrator 22.1.0, SVG Export Plug-In . SVG Version: 6.00 Build 0)  -->
<svg version="1.1" id="Vrstva_1" xmlns="http://www.w3.org/2000/svg" xmlns:xlink="http://www.w3.org/1999/xlink" x="0px" y="0px"
	 viewBox="0 0 1577 100.8" style="enable-background:new 0 0 1577 100.8;" xml:space="preserve">
<style type="text/css">
	.st0{fill:#FFFFFF;}
	.st1{fill:#B71C1C;}
</style>
<title>site-logo-watermark</title>
<g>
	<path class="st0" d="M51.1,83.2c11.6,0,20-3.5,26.1-7.6l8.3,11.5c-8.1,7-18.9,10.7-34.4,10.7C19.4,97.8,2,77.4,2,49.6
		C2,21.8,19.4,1.4,51.1,1.4c15.5,0,26.4,3.7,34.4,10.7l-8.3,11.5C71.1,19.5,62.7,16,51.1,16c-21.3,0-31.5,14.2-31.5,33.6
		C19.7,68.9,29.8,83.2,51.1,83.2z"/>
	<path class="st0" d="M171.8,81.3v14.6H97.2v-8.6l50.1-69.2H99.9V3.4h71.9V12l-50.1,69.2H171.8z"/>
	<path class="st0" d="M253.7,41.4V56h-46v25.3h48.8v14.6h-66.2V3.4h65.6v14.6h-48.2v23.5H253.7z"/>
	<path class="st0" d="M315.5,83.2c11.6,0,20-3.5,26.1-7.6l8.3,11.5c-8.1,7-18.9,10.7-34.4,10.7c-31.7,0-49.1-20.3-49.1-48.2
		c0-27.8,17.4-48.2,49.1-48.2c15.5,0,26.4,3.7,34.4,10.7l-8.3,11.5c-6.1-4.1-14.5-7.6-26.1-7.6c-21.3,0-31.5,14.2-31.5,33.6
		C284.1,68.9,294.2,83.2,315.5,83.2z"/>
	<path class="st0" d="M427.4,3.4h17.4v92.4h-17.4V56h-44v39.8h-17.4V3.4h17.4v38h44V3.4z"/>
	<path class="st1" d="M524.3,3.4h27.3v92.4h-27.3V60.1H490v35.7h-27.3V3.4H490v34h34.3V3.4z"/>
	<path class="st1" d="M663.2,49.6c0,27-16.1,48.8-50.7,48.8s-50.7-21.8-50.7-48.8c0-27,16.1-48.8,50.7-48.8S663.2,22.6,663.2,49.6z
		 M589.4,49.6c0,13.1,6.4,26.1,23.1,26.1c16.7,0,23.1-13,23.1-26.1c0-13.1-6.4-26.1-23.1-26.1C595.9,23.5,589.4,36.5,589.4,49.6z"/>
	<path class="st1" d="M700.9,45.7v50.1h-27.3V3.4h36.5l20.2,52.3l20.3-52.3H787v92.4h-27.3V45.7l-19.5,50.1h-20L700.9,45.7z"/>
	<path class="st1" d="M873.4,38v22.1h-43.1v13h46.9v22.7H803V3.4h73.5v22.7h-46.2V38H873.4z"/>
	<path class="st1" d="M987.6,49.6c0,27-16.1,48.8-50.7,48.8s-50.7-21.8-50.7-48.8c0-27,16.1-48.8,50.7-48.8S987.6,22.6,987.6,49.6z
		 M913.8,49.6c0,13.1,6.4,26.1,23.1,26.1c16.7,0,23.1-13,23.1-26.1c0-13.1-6.4-26.1-23.1-26.1C920.2,23.5,913.8,36.5,913.8,49.6z"/>
	<path class="st1" d="M997.9,95.8V3.4h40.8c24,0,41.8,9,41.8,32.9c0,15.1-10.8,22.8-18,25.5l18.8,34H1052l-15.9-28.6h-11v28.6H997.9
		z M1025.2,26.1v20.4h13.5c9.8,0,14.3-3,14.3-10.2c0-7.2-4.5-10.2-14.3-10.2H1025.2z"/>
	<path class="st1" d="M1180.5,12.8l-13,17.3c-8.4-4.5-16.9-6.6-27.8-6.6c-16.7,0-23.1,13-23.1,26.1c0,13.1,6.4,26.1,23.1,26.1
		c6.4,0,11.2-1,14.8-2.8V59.8h-16.1V39.7h40.4v47.8c-12.4,9-24.8,10.9-39.1,10.9c-34.6,0-50.7-21.8-50.7-48.8
		c0-27,16.1-48.8,50.7-48.8C1158.7,0.8,1170.5,5.6,1180.5,12.8z"/>
	<path class="st1" d="M1236.1,35l20.2-31.6h29.5l-36.1,55.8v36.7h-27.3V59.1l-36.1-55.8h29.5L1236.1,35z"/>
	<path class="st0" d="M1293.9,77.3c5.3,0,9.6,4.3,9.6,9.6c0,5.3-4.3,9.5-9.6,9.5c-5.3,0-9.5-4.3-9.5-9.5
		C1284.4,81.6,1288.6,77.3,1293.9,77.3z"/>
	<path class="st0" d="M1349.4,83.6c7,0,13.2-1.9,19-6.4l8.3,10.4c-7.2,7.2-16.6,9.5-27.2,9.5c-22.4,0-36.7-14.8-36.7-34.2
		s14.3-34.2,36.7-34.2c10.6,0,20,2.3,27.2,9.5l-8.4,10.3c-5.7-4.5-11.9-6.3-18.8-6.3c-14.1,0-20.2,9.9-20.2,20.8
		S1335.3,83.6,1349.4,83.6z"/>
	<path class="st0" d="M1421.7,97.1c-22.4,0-36.7-14.8-36.7-34.2s14.3-34.2,36.7-34.2c22.4,0,36.7,14.6,36.7,34.2
		C1458.4,82.5,1444.1,97.1,1421.7,97.1z M1421.7,42.1c-14.1,0-20.2,9.9-20.2,20.8s6.1,20.8,20.2,20.8s20.2-9.9,20.2-20.8
		S1435.8,42.1,1421.7,42.1z"/>
	<path class="st0" d="M1472.6,29.9h16.2V36c2.2-3.9,8.8-7.4,15.3-7.4c10.4,0,17.7,3.6,21.6,9.1c3.5-4.7,11.3-9.1,20.2-9.1
		c15.8,0,26.6,8.4,26.6,28.8v38.4h-16.2V57.4c0-9.1-3.9-15.3-12.8-15.3c-9,0-12.8,6.2-12.8,15.3v38.4h-16.2V57.4
		c0-9.1-3.9-15.3-12.8-15.3c-9,0-12.8,6.2-12.8,15.3v38.4h-16.2V29.9z"/>
</g>
</svg>
