<svg xmlns="http://www.w3.org/2000/svg" width="240" height="29" fill-rule="evenodd" clip-rule="evenodd" image-rendering="optimizeQuality" shape-rendering="geometricPrecision" text-rendering="geometricPrecision" viewBox="0 0 31.13 3.73"><defs><style>.fil0,.fil1{fill:#11abef;fill-rule:nonzero}.fil1{fill:#fff}</style></defs><g id="Layer-214"><g id="_1872673040"><path d="M15.95 3.2c-.05 0-.09-.01-.12-.05-.04-.03-.05-.07-.05-.12 0-.02 0-.05.02-.08l.97-2.28a.23.23 0 01.08-.11.22.22 0 01.14-.05h.03c.06 0 .1.02.14.05.04.03.06.06.08.11l.97 2.28c.02.03.02.06.02.08 0 .05-.01.09-.05.12-.03.04-.07.05-.12.05a.2.2 0 01-.1-.03.13.13 0 01-.06-.07l-.25-.6h-1.29l-.25.6a.13.13 0 01-.06.07.2.2 0 01-.1.03zm.54-1.01h1.03L17.01.95l-.52 1.24z" class="fil0"/><path id="1" d="M18.96 3.2c-.05 0-.09-.01-.12-.05a.17.17 0 01-.05-.12V.76c0-.06.02-.12.07-.17a.25.25 0 01.18-.08h.05c.08 0 .15.04.2.12l1.47 2.11V.69c0-.05.01-.09.05-.13a.17.17 0 01.12-.05c.05 0 .09.02.12.05.04.04.05.08.05.13v2.26c0 .07-.02.13-.07.18a.24.24 0 01-.18.07h-.04a.27.27 0 01-.12-.03.55.55 0 01-.09-.07L19.14.98v2.05c0 .05-.02.09-.06.12-.03.04-.07.05-.12.05z" class="fil0"/><path id="2" d="M23.01 3.22c-.26 0-.49-.06-.69-.17-.2-.12-.36-.28-.47-.48a1.52 1.52 0 01-.17-.71 1.33 1.33 0 01.65-1.2c.2-.11.43-.17.67-.17.2 0 .37.03.52.08.15.04.29.11.43.2l.05.05c.02.03.02.05.02.08 0 .05-.01.08-.04.11a.17.17 0 01-.12.05l-.08-.02a1.81 1.81 0 00-.35-.16 1.6 1.6 0 00-.39-.05c-.19 0-.37.04-.52.12a.81.81 0 00-.36.35c-.09.16-.13.35-.13.56 0 .2.04.38.12.53.08.16.2.28.36.37.15.09.34.13.55.13.24 0 .46-.05.66-.16v-.69h-.62a.14.14 0 01-.11-.05.14.14 0 01-.05-.11c0-.04.02-.08.05-.11.03-.03.06-.04.11-.04h.74c.05 0 .1.02.13.05.04.04.06.08.06.13v.86c0 .06-.02.1-.04.14a.21.21 0 01-.11.1c-.28.14-.57.21-.87.21z" class="fil0"/><path id="3" d="M24.88 3.18a.16.16 0 01-.12-.05.17.17 0 01-.05-.12V.71c0-.05.02-.09.05-.13a.2.2 0 01.12-.05h1.53c.04 0 .08.02.11.05.03.03.05.07.05.12 0 .04-.02.08-.05.11a.15.15 0 01-.11.04h-1.35v.84h1.21c.05 0 .08.02.12.05.03.03.04.07.04.12 0 .04-.01.08-.04.11-.04.03-.07.05-.12.05h-1.21v.84h1.35c.04 0 .08.02.11.05.03.03.05.07.05.11 0 .05-.02.09-.05.12a.15.15 0 01-.11.04h-1.53z" class="fil0"/><path id="4" d="M27.38 3.18c-.07 0-.13-.02-.17-.07-.05-.04-.07-.1-.07-.17V.69c0-.05.01-.09.05-.13a.17.17 0 01.12-.05c.05 0 .09.02.12.05.03.04.05.08.05.13v2.15h1.24c.05 0 .09.01.13.05.03.03.05.07.05.12 0 .05-.02.09-.05.12a.17.17 0 01-.13.05h-1.34z" class="fil0"/><path id="5" d="M30.16 3.22c-.32 0-.62-.06-.9-.18l-.08-.06a.17.17 0 01-.03-.1c0-.04.01-.08.04-.11a.16.16 0 01.11-.05l.08.02c.23.1.48.15.75.15.44 0 .66-.14.66-.43a.23.23 0 00-.09-.19.53.53 0 00-.21-.12l-.35-.11a3.9 3.9 0 01-.5-.15.83.83 0 01-.33-.22.57.57 0 01-.13-.4c0-.14.03-.27.11-.39a.8.8 0 01.34-.28c.14-.07.32-.11.53-.11.28 0 .53.05.75.13.08.02.11.08.11.15 0 .04-.01.08-.04.11a.16.16 0 01-.11.05l-.06-.01c-.2-.07-.4-.11-.61-.11-.2 0-.37.04-.49.12a.34.34 0 00-.19.32c0 .09.03.16.09.22.06.05.13.1.22.13s.22.07.37.1c.2.05.36.1.49.15.12.04.22.12.31.22s.13.24.13.41c0 .14-.04.27-.12.38-.08.11-.2.2-.34.27-.15.06-.32.09-.51.09z" class="fil0"/><path d="M2.19 2.63H.95l-.16.34a.8.8 0 00-.07.29c0 .11.04.18.12.23.04.03.16.05.35.06v.09H0v-.09a.55.55 0 00.32-.16c.08-.09.18-.27.3-.54L1.9 0h.05l1.28 2.93c.13.28.23.45.31.53.06.05.14.08.25.09v.09H2.06v-.09h.07c.14 0 .24-.02.3-.06.04-.02.05-.07.05-.12l-.01-.1-.08-.2-.2-.44zm-.08-.2l-.53-1.22-.55 1.22h1.08z" class="fil1"/><path id="1" d="M5.19.07l1.76 2.21V.75c0-.22-.03-.36-.09-.44-.09-.1-.23-.15-.43-.15V.07h1.18v.09a.87.87 0 00-.3.08.3.3 0 00-.12.15.98.98 0 00-.05.36v2.98h-.08L4.64.75v2.27c0 .21.05.35.14.42.1.08.21.11.33.11h.08v.09H3.92v-.09c.2 0 .34-.04.41-.12.08-.08.12-.21.12-.41V.5L4.37.4a.69.69 0 00-.2-.19.68.68 0 00-.25-.05V.07h1.27z" class="fil1"/><path id="2" d="M9.98 2.63H8.73l-.15.34a.85.85 0 00-.08.29c0 .11.04.18.12.23.05.03.17.05.35.06v.09H7.79v-.09a.52.52 0 00.31-.16c.08-.09.19-.27.31-.54L9.68 0h.05l1.29 2.93c.12.28.22.45.3.53.06.05.15.08.26.09v.09H9.85v-.09h.07c.14 0 .24-.02.29-.06.04-.02.06-.07.06-.12l-.01-.1-.08-.2-.2-.44zm-.08-.2l-.54-1.22-.54 1.22H9.9z" class="fil1"/><path id="3" d="M15.04 2.39l-.13 1.25h-3.17v-.09h.12c.11 0 .19-.02.25-.05a.28.28 0 00.11-.13c.02-.04.03-.15.03-.33V.68c0-.18-.01-.3-.03-.35a.34.34 0 00-.12-.12.54.54 0 00-.24-.05h-.12V.07h1.91v.09h-.16c-.1 0-.19.02-.25.06-.05.02-.08.06-.11.13-.02.04-.03.15-.03.33v2.28c0 .18.01.3.03.35.03.05.07.09.13.11.04.02.15.02.31.02h.3c.19 0 .35-.03.47-.09a.92.92 0 00.33-.32c.09-.14.18-.36.26-.64h.11z" class="fil1"/></g></g></svg>